<?xml version="1.0" encoding="UTF-8"?>
<svg width="364px" height="355px" viewBox="0 0 364 355" version="1.1" xmlns="http://www.w3.org/2000/svg" xmlns:xlink="http://www.w3.org/1999/xlink">
    <!-- Generator: Sketch 61.1 (89650) - https://sketch.com -->
    <title>facebook-reactions</title>
    <desc>Created with Sketch.</desc>
    <defs>
        <polygon id="path-1" points="0.680149313 0.0797993757 73.3683983 0.0797993757 73.3683983 72 0.680149313 72"></polygon>
        <polygon id="path-3" points="0.830983274 0.565764706 41.7043498 0.565764706 41.7043498 41.1392159 0.830983274 41.1392159"></polygon>
        <polygon id="path-5" points="0.229509944 0.506625859 46.821345 0.506625859 46.821345 46.8714254 0.229509944 46.8714254"></polygon>
    </defs>
    <g id="Page---Desktop-HD" stroke="none" stroke-width="1" fill="none" fill-rule="evenodd">
        <g id="Home" transform="translate(-319.000000, -1824.000000)">
            <g id="facebook-section" transform="translate(0.000000, 1770.000000)">
                <g id="facebook-reactions" transform="translate(501.000000, 231.500000) scale(-1, 1) translate(-501.000000, -231.500000) translate(319.000000, 54.000000)">
                    <g id="Group-5" transform="translate(172.000000, 11.000000)">
                        <path d="M50.2605153,35.3558833 C45.1496581,48.5740976 30.2289815,55.1734548 16.9306657,50.0923119 C3.63515188,45.011169 -3.00279799,30.1772405 2.10805915,16.9590262 C7.2217183,3.73802619 22.142395,-2.85854524 35.4379088,2.2198119 C48.7334226,7.30095476 55.3713724,22.1348833 50.2605153,35.3558833" id="Fill-1" fill="#FF3C6E"></path>
                        <path d="M41.5698165,28.1862905 C43.3827138,23.4895762 41.0402376,18.742719 37.3219769,17.3247905 C34.1977414,16.129719 30.6027689,17.1381476 28.6861975,19.6842905 C28.980408,16.5169333 26.9909845,13.3746476 23.8639469,12.1795762 C20.1456862,10.7616476 15.2085534,12.7255762 13.3928541,17.4195048 C10.6440872,24.534219 18.4728892,36.8749333 20.8489895,38.7608619 C20.8966236,38.7998619 20.9414556,38.8360762 20.9918917,38.866719 C21.0703479,38.9196476 21.140398,38.9614333 21.2020421,38.983719 C21.2104481,38.9865048 21.2160521,38.9865048 21.2216561,38.9892905 C21.2300622,38.9920762 21.2356662,38.9976476 21.2412702,39.0004333 C21.3057163,39.022719 21.3841724,39.0394333 21.4766386,39.0533619 C21.5382827,39.0645048 21.5943228,39.0672905 21.6559669,39.0672905 C24.6933404,39.2511476 38.8210496,35.3010048 41.5698165,28.1862905" id="Fill-3" fill="#FDFDFD"></path>
                    </g>
                    <g id="Group-10" transform="translate(311.000000, 195.000000)">
                        <path d="M41.2680214,28.8468571 C37.1188286,39.6413929 25.0029643,45.0289857 14.2084286,40.8825571 C3.41389286,36.7333643 -1.97646429,24.6175 2.17272857,13.8202 C6.32192143,3.02566429 18.4377857,-2.36192857 29.2323214,1.78726429 C40.0296214,5.93645714 45.4172143,18.0523214 41.2680214,28.8468571" id="Fill-6" fill="#FF3C6E"></path>
                        <path d="M34.2113529,22.9915471 C35.6847171,19.1547186 33.7801243,15.27919 30.7642886,14.1209543 C28.2266743,13.1423971 25.3048243,13.9661543 23.75406,16.0476614 C23.9917886,13.4630543 22.3746814,10.8950329 19.8370671,9.91924 C16.8212314,8.76100429 12.8102529,10.36429 11.3368886,14.1983543 C9.10334571,20.0088829 15.4612029,30.0847043 17.3906743,31.6271757 C17.42661,31.6575829 17.4625457,31.68799 17.50401,31.7128686 C17.5675886,31.7570971 17.6256386,31.7930329 17.67816,31.8096186 C17.6836886,31.8096186 17.6864529,31.8096186 17.6919814,31.8123829 C17.69751,31.8151471 17.7002743,31.8179114 17.7058029,31.8206757 C17.7583243,31.8400257 17.8219029,31.8538471 17.8993029,31.8649043 C17.9462957,31.8731971 17.9960529,31.8759614 18.0402814,31.8787257 C20.5087886,32.0279971 31.97781,28.8020757 34.2113529,22.9915471" id="Fill-8" fill="#FDFDFD"></path>
                    </g>
                    <path d="M155.018853,191.618255 C151.086888,205.712374 136.47619,213.949232 122.382999,210.019747 C108.289808,206.087523 100.050754,191.475863 103.979981,177.381745 C107.914684,163.287626 122.525382,155.050768 136.618573,158.980253 C150.711763,162.912477 158.950817,177.526875 155.018853,191.618255" id="Fill-11" fill="#FF3C6E"></path>
                    <path d="M145.63575,185.925526 C147.053483,180.94331 144.145741,176.309959 140.148291,175.214307 C136.784651,174.295814 133.151364,175.674917 131.416727,178.471281 C131.408387,175.197954 129.026041,172.172648 125.662401,171.254155 C121.667731,170.161229 116.736246,172.649611 115.318513,177.631827 C113.166895,185.18419 122.52393,197.056472 125.181484,198.757185 C125.228741,198.792616 125.281559,198.825322 125.337156,198.852577 C125.423332,198.901636 125.501168,198.934342 125.567885,198.953421 C125.573445,198.956146 125.581785,198.953421 125.587344,198.956146 C125.595684,198.958872 125.601244,198.961597 125.609583,198.964323 C125.67352,198.983401 125.762476,198.991578 125.859771,198.997029 C125.920928,199.00248 125.982085,199 126.043243,198.994303 C129.215072,198.888009 143.489692,193.475164 145.63575,185.925526" id="Fill-13" fill="#FDFDFD"></path>
                    <g id="Group-17" transform="translate(13.000000, 283.000000)">
                        <mask id="mask-2" fill="white">
                            <use xlink:href="#path-1"></use>
                        </mask>
                        <g id="Clip-16"></g>
                        <path d="M72.0230991,45.6976271 C66.6313769,64.8233672 46.591446,76.0032542 27.2620522,70.671096 C7.9326584,65.3334237 -3.3662737,45.5046328 2.02544852,26.3788927 C7.41717074,7.2559096 27.459888,-3.9239774 46.7864954,1.41093785 C66.1158893,6.74309605 77.4148214,26.571887 72.0230991,45.6976271" id="Fill-15" fill="#FF3C6E" mask="url(#mask-2)"></path>
                    </g>
                    <path d="M72.506764,319.256157 C74.4265688,312.493556 70.4891526,306.205764 65.0734588,304.720956 C60.515669,303.474924 55.5945973,305.346716 53.2416488,309.136956 C53.2332654,304.698999 50.005646,300.593134 45.4478562,299.344358 C40.0321623,297.862295 33.350571,301.240851 31.4307662,308.000708 C28.5189226,318.248903 41.1918697,334.364973 44.7911544,336.675894 C44.8582218,336.719807 44.9308782,336.766465 45.0035345,336.804889 C45.1209025,336.865269 45.2270926,336.914671 45.3193103,336.936628 C45.3276937,336.939372 45.3360772,336.939372 45.3472551,336.942117 C45.3556385,336.944861 45.3640219,336.95035 45.3724053,336.953095 C45.4618286,336.977796 45.5791965,336.991519 45.7105369,336.997008 C45.7971656,337.002497 45.8809999,337 45.9620397,336.994263 C50.2599433,336.848802 69.5949204,329.501608 72.506764,319.256157" id="Fill-18" fill="#FDFDFD"></path>
                    <path d="M81.5128503,106.967421 C84.3344278,121.058291 98.0324615,130.258751 112.10968,127.516492 C126.18411,124.774232 135.309626,111.126194 132.488049,97.0353247 C129.666472,82.9417045 115.96565,73.741244 101.89122,76.4835038 C87.8140016,79.2285141 78.6884847,92.873801 81.5128503,106.967421" id="Fill-20" fill="#FFFFFD"></path>
                    <path d="M114.232117,96.8811737 L118.687842,96.0271891 C119.513186,95.870671 120.324349,96.4061276 120.491687,97.2161773 L122.970557,109.355939 C123.135058,110.168734 122.593337,110.962308 121.767993,111.118826 L117.309432,111.972811 C116.484087,112.129329 115.672924,111.593872 115.505586,110.783823 L113.029553,98.6440614 C112.865051,97.8312658 113.403936,97.0376918 114.232117,96.8811737" id="Fill-22" fill="#2258DD"></path>
                    <path d="M95.5837805,102.681461 L95.8455474,102.630118 C94.5645606,102.878724 93.3030672,102.046434 93.0468698,100.781786 C92.7878877,99.5198395 93.6288834,98.287618 94.9098701,98.0417141 L102.386934,96.6068245 C101.175566,95.352985 99.4601579,93.3127936 99.0814313,91.4482479 C98.4799245,88.4974015 99.7887588,86.5436818 100.819118,86.1491547 C101.852261,85.7573299 102.751737,86.1707726 103.241854,87.0003604 C103.73197,87.8299482 103.528683,89.6215335 103.862854,90.1835994 C104.378033,91.0510185 106.282805,91.977887 109.092621,94.3720718 C111.604469,96.5149484 111.924716,99.5495642 111.924716,99.5495642 L112.754573,103.624542 L113.584429,107.702223 L113.97151,109.599196 C114.130241,110.385548 113.609492,111.152984 112.813052,111.304309 L98.9171309,113.968718 C97.9898078,114.147066 97.0764086,113.544466 96.8926148,112.628407 C96.7032516,111.71505 97.3131127,110.820608 98.2404357,110.64226 L98.0037316,110.688199 C96.8647673,110.90708 95.748081,110.169368 95.5197312,109.045236 C95.2913814,107.926509 96.0349107,106.829399 97.173875,106.61322 L96.4136372,106.759141 C95.2746729,106.97532 94.1552018,106.237609 93.926852,105.116179 C93.6985022,103.994749 94.4448162,102.900342 95.5837805,102.681461" id="Fill-24" fill="#2258DD"></path>
                    <g id="Group-33" transform="translate(282.000000, 0.000000)">
                        <g id="Group-28">
                            <mask id="mask-4" fill="white">
                                <use xlink:href="#path-3"></use>
                            </mask>
                            <g id="Clip-27"></g>
                            <path d="M2.21844,13.5211588 C-1.86116,23.9634088 3.36084,35.7119824 13.88324,39.7615853 C24.40284,43.8111882 36.23844,38.6303647 40.31804,28.1853353 C44.39484,17.7430853 39.17564,5.99451176 28.65324,1.94212941 C18.13644,-2.10747353 6.29804,3.07890882 2.21844,13.5211588" id="Fill-26" fill="#FFFFFD" mask="url(#mask-4)"></path>
                        </g>
                        <path d="M28.06356,21.0694853 L31.33956,22.3313382 C31.94716,22.5648088 32.24956,23.2485441 32.01436,23.8488971 L28.49476,32.8625294 C28.25956,33.4656618 27.57076,33.7658382 26.96316,33.5323676 L23.68996,32.2732941 C23.08236,32.0398235 22.77716,31.3533088 23.01236,30.7501765 L26.53196,21.7393235 C26.76716,21.1361912 27.45596,20.8360147 28.06356,21.0694853" id="Fill-29" fill="#2258DD"></path>
                        <path d="M12.85788,16.4362059 L13.05108,16.51125 C12.09628,16.1415882 11.61468,15.0603971 11.98428,14.1070588 C12.35668,13.1565 13.44588,12.6784412 14.40628,13.0481029 L20.00348,15.2021471 C19.73188,13.8569118 19.46868,11.7751324 20.02028,10.36875 C20.88828,8.14522059 22.59908,7.38088235 23.45588,7.54764706 C24.31268,7.71441176 24.73268,8.36479412 24.70188,9.12357353 C24.67388,9.88513235 23.76668,10.9996765 23.74708,11.5138676 C23.71628,12.3087794 24.58428,13.7207206 25.42708,16.4973529 C26.18028,18.9765882 25.08548,21.14175 25.08548,21.14175 L23.88428,24.2185588 L22.68588,27.2925882 L22.12588,28.7239853 C21.89628,29.316 21.21588,29.6133971 20.61668,29.3827059 L10.22308,25.3831324 C9.52868,25.1135294 9.18148,24.3297353 9.44748,23.6404412 C9.71908,22.9511471 10.50868,22.6037206 11.20308,22.8733235 L11.02668,22.8038382 C10.17268,22.4758676 9.74708,21.5169706 10.07748,20.66925 C10.40788,19.8243088 11.37388,19.4018382 12.22508,19.7298088 L11.65668,19.5102353 C10.80548,19.1822647 10.37708,18.2233676 10.70748,17.3756471 C11.04068,16.5307059 12.00388,16.1082353 12.85788,16.4362059" id="Fill-31" fill="#2258DD"></path>
                    </g>
                    <g id="Group-40" transform="translate(214.000000, 212.000000)">
                        <path d="M0.744852375,20.6044119 C-2.42632863,34.3129119 5.75967908,47.9656976 19.037792,51.0968405 C32.3131451,54.230769 45.6492169,45.6563405 48.8231579,31.9450548 C51.9970988,18.2365548 43.8110911,4.58376905 30.5329782,1.45262619 C17.2548652,-1.68130238 3.91879332,6.89312619 0.744852375,20.6044119" id="Fill-34" fill="#FFFFFD"></path>
                        <path d="M32.9667009,25.316169 L37.101104,26.2939548 C37.8656098,26.4722405 38.3430809,27.2689548 38.1609243,28.0573119 L35.4202953,39.8882405 C35.2353787,40.682169 34.4598331,41.1780262 33.6953273,40.9997405 L29.5609243,40.0219548 C28.7936585,39.843669 28.3161874,39.0497405 28.501104,38.2585976 L31.241733,26.4248833 C31.4238896,25.6365262 32.2021951,25.1378833 32.9667009,25.316169" id="Fill-36" fill="#2258DD"></path>
                        <path d="M13.9785302,22.3045333 L14.2241656,22.3630333 C13.0125481,22.0788905 12.2590822,20.8225333 12.5488768,19.5717476 C12.8386714,18.3181762 14.0668485,17.529819 15.278466,17.8167476 L22.3384146,19.4826048 C21.7947047,17.8585333 21.137837,15.3235333 21.565629,13.4766048 C22.2418164,10.5543905 24.1682606,9.29803333 25.222561,9.3509619 C26.2768614,9.40110476 26.88957,10.1337476 26.9751284,11.0864619 C27.0634467,12.0336048 26.1609435,13.5824619 26.2244223,14.2287476 C26.3182606,15.2204619 27.5905969,16.8166762 29.0561297,20.1121762 C30.3643453,23.0594619 29.4094031,25.9454619 29.4094031,25.9454619 L28.4765404,29.9819619 L27.5409178,34.0184619 L27.104846,35.8960333 C26.9254493,36.6760333 26.1609435,37.166319 25.4074775,36.9880333 L12.2894416,33.8931048 C11.4117779,33.6869619 10.8653081,32.7760333 11.0750642,31.8706762 C11.2848203,30.9625333 12.1762837,30.3914619 13.0511874,30.6003905 L12.8276316,30.5474619 C11.7512516,30.2939619 11.083344,29.1768905 11.3400193,28.0653905 C11.5966945,26.9566762 12.6868742,26.2574619 13.7604942,26.5109619 L13.0429076,26.3410333 C11.9665276,26.0847476 11.29862,24.9704619 11.5552953,23.8617476 C11.8119705,22.7502476 12.9021502,22.0510333 13.9785302,22.3045333" id="Fill-38" fill="#2258DD"></path>
                    </g>
                    <g id="Group-54" transform="translate(317.000000, 88.000000)">
                        <g id="Group-43">
                            <mask id="mask-6" fill="white">
                                <use xlink:href="#path-5"></use>
                            </mask>
                            <g id="Clip-42"></g>
                            <path d="M45.7015906,30.7686838 C41.7711813,42.9587692 28.6579064,49.6678291 16.4104211,45.7567179 C4.16293567,41.8456068 -2.57922807,28.7967179 1.34843275,16.6093675 C5.27884211,4.41928205 18.392117,-2.28977778 30.6423509,1.62133333 C42.8898363,5.5297094 49.6347485,18.5813333 45.7015906,30.7686838" id="Fill-41" fill="#FDDA74" mask="url(#mask-6)"></path>
                        </g>
                        <path d="M26.252386,34.8712479 C24.7132047,39.6384274 20.8982339,42.6825299 17.7264211,41.6705641 C14.5573567,40.6585983 13.2353099,35.9734701 14.7689942,31.2062906 C16.3081754,26.4391111 20.1258947,23.3950085 23.2949591,24.4069744 C26.4640234,25.4189402 27.7888187,30.1040684 26.252386,34.8712479" id="Fill-44" fill="#3C3C3B"></path>
                        <path d="M17.6041111,16.0716581 C16.8537602,18.3991795 14.9902515,19.8843077 13.4428246,19.389265 C11.8953977,18.8969573 11.2467427,16.6104615 11.9998421,14.2829402 C12.7474444,11.9554188 14.6109532,10.4702906 16.1611287,10.9625983 C17.705807,11.457641 18.3517135,13.7441368 17.6041111,16.0716581" id="Fill-46" fill="#3C3C3B"></path>
                        <path d="M38.400924,22.7104274 C37.6505731,25.0379487 35.7870643,26.525812 34.2396374,26.0307692 C32.6922105,25.5357265 32.0435556,23.2492308 32.796655,20.9217094 C33.5442573,18.594188 35.4077661,17.1090598 36.9579415,17.6041026 C38.5026199,18.0964103 39.1485263,20.382906 38.400924,22.7104274" id="Fill-48" fill="#3C3C3B"></path>
                        <path d="M21.0801871,7.8145641 C20.854807,7.74345299 20.6624094,7.58755556 20.5469708,7.36328205 C19.6481988,5.632 17.3531696,4.89900855 15.613345,5.78789744 C15.1653333,6.01764103 14.6128772,5.84259829 14.3792515,5.39678632 C14.1511228,4.94823932 14.3270292,4.39849573 14.7777895,4.16875214 C16.083345,3.50413675 17.5703041,3.38105983 18.9638129,3.82687179 C20.3628187,4.27268376 21.5007135,5.23268376 22.1713567,6.53182906 C22.4022339,6.97764103 22.2263275,7.52738462 21.7755673,7.75712821 C21.5529357,7.872 21.3028187,7.88567521 21.0801871,7.8145641" id="Fill-50" fill="#3C3C3B"></path>
                        <path d="M40.6393333,14.0592137 C40.4167018,13.9881026 40.2215556,13.8322051 40.106117,13.6079316 C39.2100936,11.8766496 36.9150643,11.1436581 35.1752398,12.032547 C34.7244795,12.2650256 34.1720234,12.0872479 33.9411462,11.6414359 C33.710269,11.1956239 33.888924,10.6458803 34.3369357,10.4161368 C35.6424912,9.74878632 37.1294503,9.6257094 38.5257076,10.0715214 C39.9219649,10.5173333 41.0598596,11.4773333 41.7305029,12.7764786 C41.9613801,13.2222906 41.7854737,13.7720342 41.337462,14.0017778 C41.1120819,14.1166496 40.8619649,14.1303248 40.6393333,14.0592137" id="Fill-52" fill="#3C3C3B"></path>
                    </g>
                    <path d="M167.606317,303.856596 C162.715369,319.103718 146.389285,327.49885 131.141521,322.605357 C115.896508,317.714615 107.501022,301.39197 112.394721,286.144849 C117.285669,270.897727 133.611752,262.502595 148.859517,267.393337 C164.10453,272.284079 172.497264,288.609475 167.606317,303.856596" id="Fill-55" fill="#FDDA74"></path>
                    <path d="M143.196056,309.283744 C141.270434,315.22515 136.485473,319.020744 132.512321,317.757373 C128.536398,316.496743 126.873991,310.656735 128.805154,304.715329 C130.730775,298.776663 135.515736,294.981069 139.488888,296.241699 C143.464811,297.50507 145.124448,303.342338 143.196056,309.283744" id="Fill-57" fill="#3C3C3B"></path>
                    <path d="M132.648148,285.643049 C131.803862,288.613349 129.71053,290.508389 127.972294,289.879517 C126.234058,289.247837 125.508966,286.328071 126.350768,283.360579 C127.195054,280.387471 129.285904,278.489624 131.026622,279.121304 C132.764858,279.750176 133.492434,282.669942 132.648148,285.643049" id="Fill-59" fill="#3C3C3B"></path>
                    <path d="M157.648148,293.643049 C156.803862,296.613349 154.71053,298.508389 152.972294,297.879517 C151.234058,297.247837 150.508966,294.328071 151.350768,291.360579 C152.195054,288.387471 154.285904,286.489624 156.026622,287.121304 C157.764858,287.750176 158.492434,290.669942 157.648148,293.643049" id="Fill-61" fill="#3C3C3B"></path>
                    <path d="M136.506677,274.94842 C136.224708,274.866492 135.984205,274.684713 135.840457,274.426127 C134.720875,272.408643 131.843136,271.556076 129.667554,272.590421 C129.106381,272.859248 128.415281,272.654428 128.127784,272.132135 C127.837522,271.612402 128.058674,270.974897 128.619847,270.70863 C130.253607,269.930312 132.114047,269.786937 133.863911,270.30923 C135.611012,270.828963 137.031913,271.945236 137.87229,273.455789 C138.162552,273.975522 137.9414,274.615586 137.377462,274.884414 C137.098258,275.014987 136.785881,275.032909 136.506677,274.94842" id="Fill-63" fill="#3C3C3B"></path>
                    <path d="M160.506524,283.950439 C160.224526,283.865959 159.983999,283.684201 159.840235,283.425643 C158.720539,281.410939 155.842505,280.555906 153.6667,281.592698 C153.105469,281.861496 152.417063,281.656697 152.129536,281.131901 C151.83648,280.614786 152.057655,279.974791 152.62165,279.708553 C154.252812,278.930319 156.113444,278.78696 157.860723,279.309196 C159.608002,279.828872 161.031813,280.945023 161.872277,282.455411 C162.162568,282.975087 161.941394,283.615081 161.377399,283.883879 C161.098166,284.014438 160.785757,284.032358 160.506524,283.950439" id="Fill-65" fill="#3C3C3B"></path>
                    <path d="M56.8094744,193.804006 C61.3367436,209.164676 52.5556645,225.282191 37.1949912,229.809459 C21.83708,234.336727 5.71679775,225.55565 1.18952862,210.197743 C-3.33497829,194.837074 5.44333854,178.716796 20.8040119,174.189528 C36.161923,169.665023 52.2822053,178.443337 56.8094744,193.804006" id="Fill-67" fill="#FDDA74"></path>
                    <path d="M50.1200172,197 C53.4664808,208.146924 46.9754477,219.850514 35.6195968,223.136209 C24.263746,226.421904 12.3464636,220.046027 9,208.899103 L50.1200172,197 Z" id="Fill-69" fill="#3C3C3B"></path>
                    <path d="M31.0906059,209.895774 C25.176209,211.671439 20.5931073,215.814656 18,221.005713 C22.9388549,223.93117 28.9977765,224.87989 34.9121734,223.104226 C40.8265703,221.328561 45.4068927,217.182512 48,211.994287 C43.0611451,209.06883 37.0050028,208.12011 31.0906059,209.895774" id="Fill-71" fill="#F25268"></path>
                    <path d="M9.36361247,201.955367 C8.89076223,202.100081 8.36881824,201.88569 8.12593342,201.416711 C7.84945814,200.880735 8.04324922,200.210765 8.56002545,199.921338 L15.9292544,195.826482 L8.99153359,194.181036 C8.42049587,194.044362 8.06133639,193.452108 8.19311433,192.857175 C8.32489227,192.264921 8.89334611,191.889738 9.4695516,192.029092 L19.1720252,194.331109 C19.6035333,194.432944 19.9316862,194.802768 19.9911155,195.261027 C20.0479609,195.716607 19.828331,196.164147 19.4381649,196.381217 L9.56773908,201.869611 C9.50055817,201.904449 9.43337726,201.931248 9.36361247,201.955367" id="Fill-73" fill="#3C3C3B"></path>
                    <path d="M47.1387819,190.971927 C47.0629723,190.994254 46.9784155,191.010999 46.8967745,191.016581 L34.2978144,191.996165 C33.799221,192.035237 33.3268693,191.772898 33.1140195,191.340318 C32.9011697,190.907738 32.9915579,190.391433 33.3414481,190.04816 L41.1819025,182.348238 C41.6484227,181.890541 42.4094337,181.884959 42.8817854,182.325912 C43.3570528,182.772446 43.3658,183.498063 42.9021956,183.95297 L37.3010379,189.453712 L46.7043349,188.722512 C47.3632947,188.672277 47.9406134,189.143929 47.9960126,189.774658 C48.0426647,190.330035 47.67528,190.818431 47.1387819,190.971927" id="Fill-75" fill="#3C3C3B"></path>
                    <g id="Group-87" transform="translate(229.000000, 113.000000)">
                        <path d="M45.8180882,26.0194595 C43.9878529,38.1005405 32.4839118,46.4437838 20.1256765,44.6545946 C7.76744118,42.8627027 -0.767205882,31.6194595 1.06579412,19.5383784 C2.89602941,7.4572973 14.3999706,-0.885945946 26.7554412,0.905945946 C39.1136765,2.69513514 47.6483235,13.9383784 45.8180882,26.0194595" id="Fill-77" fill="#FDDA74"></path>
                        <path d="M39.9242882,25.4416216 C38.5723471,34.3605405 30.0764059,40.5227027 20.9528765,39.1983784 C11.8265824,37.8794595 5.52581765,29.5740541 6.87775882,20.6551351 L39.9242882,25.4416216 Z" id="Fill-79" fill="#3C3C3B"></path>
                        <path d="M22.4881176,29.0667568 C17.7577059,28.382973 13.2097647,29.7181081 9.72623529,32.3937838 C12.2642353,35.9451351 16.2205294,38.5154054 20.9509412,39.1991892 C25.6813529,39.8856757 30.2320588,38.5478378 33.7183529,35.8721622 C31.1775882,32.3208108 27.2185294,29.7505405 22.4881176,29.0667568" id="Fill-81" fill="#F25268"></path>
                        <path d="M8.70799412,16.092973 C8.30158235,16.0335135 7.97811176,15.7010811 7.95322941,15.2848649 C7.92558235,14.8064865 8.29881765,14.3956757 8.78540588,14.3659459 L15.7469353,13.9713514 L11.0552294,10.42 C10.6654059,10.1254054 10.5962882,9.58216216 10.8948765,9.20378378 C11.1934647,8.82540541 11.7547,8.75243243 12.1417588,9.04702703 L18.7079353,14.0145946 C19.0009941,14.2362162 19.1254059,14.6118919 19.0148176,14.9578378 C18.9042294,15.3037838 18.5862882,15.547027 18.2158176,15.5686486 L8.89046471,16.1010811 C8.82964118,16.1037838 8.76605294,16.1010811 8.70799412,16.092973" id="Fill-83" fill="#3C3C3B"></path>
                        <path d="M39.5272765,20.5559459 C39.4692176,20.5478378 39.4056294,20.5343243 39.3503353,20.5127027 L30.5806882,17.3586486 C30.2351,17.2343243 30.0028647,16.91 30.000075,16.5505405 C29.9973353,16.1883784 30.2240412,15.8613514 30.5696294,15.7343243 L38.3273941,12.8424324 C38.7891,12.6694595 39.3005706,12.8964865 39.4747471,13.3424324 C39.6489235,13.7910811 39.4194529,14.2910811 38.9632765,14.4640541 L33.4200412,16.5289189 L39.9613353,18.882973 C40.4202765,19.0478378 40.6580412,19.5478378 40.4893941,19.9964865 C40.3401,20.3883784 39.9309235,20.6154054 39.5272765,20.5559459" id="Fill-85" fill="#3C3C3B"></path>
                    </g>
                </g>
            </g>
        </g>
    </g>
</svg>