<?xml version="1.0" encoding="utf-8"?>
<!-- Generator: Adobe Illustrator 23.0.2, SVG Export Plug-In . SVG Version: 6.00 Build 0)  -->
<svg version="1.1" id="Layer_1" xmlns="http://www.w3.org/2000/svg" xmlns:xlink="http://www.w3.org/1999/xlink" x="0px" y="0px"
	 viewBox="0 0 364 132" style="enable-background:new 0 0 364 132;" xml:space="preserve">
<style type="text/css">
	.st0{filter:url(#Adobe_OpacityMaskFilter);}
	.st1{fill-rule:evenodd;clip-rule:evenodd;fill:#FFFFFF;}
	.st2{mask:url(#mask-2_1_);fill-rule:evenodd;clip-rule:evenodd;fill:#FF3C6E;}
	.st3{fill-rule:evenodd;clip-rule:evenodd;fill:#FDFDFD;}
	.st4{fill-rule:evenodd;clip-rule:evenodd;fill:#FFFFFD;}
	.st5{fill-rule:evenodd;clip-rule:evenodd;fill:#2258DD;}
	.st6{fill-rule:evenodd;clip-rule:evenodd;fill:#FDDA74;}
	.st7{fill-rule:evenodd;clip-rule:evenodd;fill:#3C3C3B;}
	.st8{fill-rule:evenodd;clip-rule:evenodd;fill:#F25268;}
</style>
<g id="Group-17" transform="translate(13.000000, 283.000000)">
	<g id="Clip-16">
	</g>
	<defs>
		<filter id="Adobe_OpacityMaskFilter" filterUnits="userSpaceOnUse" x="264.6" y="-222.9" width="72.7" height="71.9">
			<feColorMatrix  type="matrix" values="1 0 0 0 0  0 1 0 0 0  0 0 1 0 0  0 0 0 1 0"/>
		</filter>
	</defs>
	<mask maskUnits="userSpaceOnUse" x="264.6" y="-222.9" width="72.7" height="71.9" id="mask-2_1_">
		<g class="st0">
			<polygon id="path-1_1_" class="st1" points="337.3,-222.9 264.6,-222.9 264.6,-151 337.3,-151 			"/>
		</g>
	</mask>
	<path id="Fill-15" class="st2" d="M266-177.3c5.4,19.1,25.4,30.3,44.8,25c19.3-5.3,30.6-25.2,25.2-44.3
		c-5.4-19.1-25.4-30.3-44.8-25C271.9-216.3,260.6-196.4,266-177.3"/>
	<path id="Fill-18" class="st3" d="M278.5-186.7c-1.9-6.8,2-13.1,7.4-14.5c4.6-1.2,9.5,0.6,11.8,4.4c0-4.4,3.2-8.5,7.8-9.8
		c5.4-1.5,12.1,1.9,14,8.7c2.9,10.2-9.8,26.4-13.4,28.7c-0.1,0-0.1,0.1-0.2,0.1c-0.1,0.1-0.2,0.1-0.3,0.1c0,0,0,0,0,0c0,0,0,0,0,0
		c-0.1,0-0.2,0-0.3,0c-0.1,0-0.2,0-0.3,0C300.7-169.2,281.4-176.5,278.5-186.7"/>
</g>
<g id="Group-40" transform="translate(214.000000, 212.000000)">
	<path id="Fill-34" class="st4" d="M-72.6-172.9c3.2,13.7-5,27.4-18.3,30.5c-13.3,3.1-26.6-5.4-29.8-19.2
		c-3.2-13.7,5-27.4,18.3-30.5C-89.1-195.2-75.8-186.6-72.6-172.9"/>
	<path id="Fill-36" class="st5" d="M-104.9-168.2l-4.1,1c-0.8,0.2-1.2,1-1.1,1.8l2.7,11.8c0.2,0.8,1,1.3,1.7,1.1l4.1-1
		c0.8-0.2,1.2-1,1.1-1.8l-2.7-11.8C-103.3-167.9-104.1-168.4-104.9-168.2"/>
	<path id="Fill-38" class="st5" d="M-85.9-171.2l-0.2,0.1c1.2-0.3,2-1.5,1.7-2.8c-0.3-1.3-1.5-2-2.7-1.8l-7.1,1.7
		c0.5-1.6,1.2-4.2,0.8-6c-0.7-2.9-2.6-4.2-3.7-4.1c-1.1,0.1-1.7,0.8-1.8,1.7c-0.1,0.9,0.8,2.5,0.8,3.1c-0.1,1-1.4,2.6-2.8,5.9
		c-1.3,2.9-0.4,5.8-0.4,5.8l0.9,4l0.9,4l0.4,1.9c0.2,0.8,0.9,1.3,1.7,1.1l13.1-3.1c0.9-0.2,1.4-1.1,1.2-2c-0.2-0.9-1.1-1.5-2-1.3
		l0.2-0.1c1.1-0.3,1.7-1.4,1.5-2.5c-0.3-1.1-1.3-1.8-2.4-1.6l0.7-0.2c1.1-0.3,1.7-1.4,1.5-2.5C-83.7-170.8-84.8-171.5-85.9-171.2"/>
</g>
<g id="Group-40_1_" transform="translate(214.000000, 212.000000)">
	<path id="Fill-34_1_" class="st4" d="M-166.7-181.8c-1.8,10.1-11.2,16.9-21,15.2c-9.8-1.7-16.3-11.3-14.5-21.4
		c1.8-10.1,11.2-16.9,21-15.2C-171.4-201.5-164.9-191.9-166.7-181.8"/>
	<path id="Fill-36_1_" class="st5" d="M-189.7-187.8l-3.1-0.5c-0.6-0.1-1.1,0.3-1.2,0.9l-1.5,8.7c-0.1,0.6,0.3,1.1,0.8,1.2l3.1,0.5
		c0.6,0.1,1.1-0.3,1.2-0.9l1.5-8.7C-188.7-187.2-189.1-187.7-189.7-187.8"/>
	<path id="Fill-38_1_" class="st5" d="M-176.1-184.4l-0.2,0c0.9,0.2,1.8-0.5,1.9-1.4c0.2-0.9-0.4-1.8-1.3-2l-5.2-0.9
		c0.8-0.9,2-2.4,2.2-3.8c0.4-2.2-0.6-3.5-1.3-3.8c-0.7-0.3-1.3,0-1.7,0.7c-0.3,0.6-0.2,1.9-0.4,2.3c-0.3,0.6-1.7,1.3-3.6,3.1
		c-1.7,1.6-1.9,3.8-1.9,3.8l-0.5,3l-0.5,3l-0.2,1.4c-0.1,0.6,0.3,1.1,0.8,1.2l9.7,1.7c0.6,0.1,1.3-0.3,1.4-1c0.1-0.7-0.3-1.3-1-1.4
		l0.2,0c0.8,0.1,1.6-0.4,1.7-1.2c0.1-0.8-0.4-1.6-1.2-1.7l0.5,0.1c0.8,0.1,1.6-0.4,1.7-1.2C-174.7-183.5-175.3-184.3-176.1-184.4"/>
</g>
<g>
	<path id="Fill-55" class="st6" d="M142.9,97.5c4.9,15.2,21.2,23.6,36.5,18.7c15.2-4.9,23.6-21.2,18.7-36.5
		c-4.9-15.2-21.2-23.6-36.5-18.8C146.4,65.9,138,82.2,142.9,97.5"/>
	<path id="Fill-57" class="st7" d="M167.3,102.9c1.9,5.9,6.7,9.7,10.7,8.5c4-1.3,5.6-7.1,3.7-13c-1.9-5.9-6.7-9.7-10.7-8.5
		C167.1,91.1,165.4,97,167.3,102.9"/>
	<path id="Fill-59" class="st7" d="M177.9,79.3c0.8,3,2.9,4.9,4.7,4.2c1.7-0.6,2.5-3.6,1.6-6.5c-0.8-3-2.9-4.9-4.7-4.2
		C177.8,73.4,177,76.3,177.9,79.3"/>
	<path id="Fill-61" class="st7" d="M152.9,87.3c0.8,3,2.9,4.9,4.7,4.2c1.7-0.6,2.5-3.6,1.6-6.5c-0.8-3-2.9-4.9-4.7-4.2
		C152.8,81.4,152,84.3,152.9,87.3"/>
	<path id="Fill-63" class="st7" d="M174,68.6c0.3-0.1,0.5-0.3,0.7-0.5c1.1-2,4-2.9,6.2-1.8c0.6,0.3,1.3,0.1,1.5-0.5
		c0.3-0.5,0.1-1.2-0.5-1.4c-1.6-0.8-3.5-0.9-5.2-0.4c-1.7,0.5-3.2,1.6-4,3.1c-0.3,0.5-0.1,1.2,0.5,1.4
		C173.4,68.7,173.7,68.7,174,68.6"/>
	<path id="Fill-65" class="st7" d="M150,77.6c0.3-0.1,0.5-0.3,0.7-0.5c1.1-2,4-2.9,6.2-1.8c0.6,0.3,1.2,0.1,1.5-0.5
		c0.3-0.5,0.1-1.2-0.5-1.4c-1.6-0.8-3.5-0.9-5.2-0.4c-1.7,0.5-3.2,1.6-4,3.1c-0.3,0.5-0.1,1.2,0.5,1.4
		C149.4,77.7,149.7,77.7,150,77.6"/>
</g>
<g>
	<path id="Fill-67" class="st6" d="M201.8,20.8c-4.5,15.4,4.3,31.5,19.6,36c15.4,4.5,31.5-4.3,36-19.6c4.5-15.4-4.3-31.5-19.6-36
		C222.5-3.3,206.3,5.4,201.8,20.8"/>
	<path id="Fill-69" class="st7" d="M208.5,24c-3.3,11.1,3.1,22.9,14.5,26.1c11.4,3.3,23.3-3.1,26.6-14.2L208.5,24z"/>
	<path id="Fill-71" class="st8" d="M227.5,36.9c5.9,1.8,10.5,5.9,13.1,11.1c-4.9,2.9-11,3.9-16.9,2.1c-5.9-1.8-10.5-5.9-13.1-11.1
		C215.6,36.1,221.6,35.1,227.5,36.9"/>
	<path id="Fill-73" class="st7" d="M249.3,29c0.5,0.1,1-0.1,1.2-0.5c0.3-0.5,0.1-1.2-0.4-1.5l-7.4-4.1l6.9-1.6
		c0.6-0.1,0.9-0.7,0.8-1.3c-0.1-0.6-0.7-1-1.3-0.8l-9.7,2.3c-0.4,0.1-0.8,0.5-0.8,0.9c-0.1,0.5,0.2,0.9,0.6,1.1l9.9,5.5
		C249.1,28.9,249.2,28.9,249.3,29"/>
	<path id="Fill-75" class="st7" d="M211.5,18c0.1,0,0.2,0,0.2,0l12.6,1c0.5,0,1-0.2,1.2-0.7c0.2-0.4,0.1-0.9-0.2-1.3l-7.8-7.7
		c-0.5-0.5-1.2-0.5-1.7,0c-0.5,0.4-0.5,1.2,0,1.6l5.6,5.5l-9.4-0.7c-0.7-0.1-1.2,0.4-1.3,1.1C210.6,17.3,211,17.8,211.5,18"/>
</g>
</svg>
