<?xml version="1.0" encoding="UTF-8"?>
<svg width="1114px" height="660px" viewBox="0 0 1114 660" version="1.1" xmlns="http://www.w3.org/2000/svg" xmlns:xlink="http://www.w3.org/1999/xlink">
    <!-- Generator: Sketch 61.1 (89650) - https://sketch.com -->
    <title>hero-bg-blobs</title>
    <desc>Created with Sketch.</desc>
    <g id="Page---Desktop-HD" stroke="none" stroke-width="1" fill="none" fill-rule="evenodd">
        <g id="Home" transform="translate(-161.000000, -144.000000)">
            <g id="Fullscreen-hero" transform="translate(0.000000, -1.000000)">
                <g id="hero-bg-blobs" transform="translate(113.000000, -99.000000)">
                    <path d="M616.593471,604.937598 C440.48795,419.89882 310.076787,335.509241 225.359982,351.768861 C98.2847753,376.158292 1.45990677,649.865606 88.0464941,710.658422 C174.633081,771.451238 642.984588,953.392578 772.555584,890.925043 C858.936248,849.280019 806.948877,753.950871 616.593471,604.937598 Z" id="Path-2" fill="#ECECEC"></path>
                    <path d="M144.832987,543.431561 C144.832987,543.431561 167.468917,799.212468 357.950777,827.268253 C548.435455,855.322663 684.207363,846.543798 817.295753,897.166343 C950.385552,947.788888 1181.54137,829.530706 1094.92784,665.565483 C1008.31432,501.598884 967.830529,694.086137 785.320337,412.455508 C602.805918,130.822128 212.444955,96.4947416 132.462041,215.780311 C52.4763105,335.064506 144.832987,543.431561 144.832987,543.431561" id="Fill-1" fill="#F2F2F2" transform="translate(606.859144, 530.000000) rotate(-20.000000) translate(-606.859144, -530.000000) "></path>
                </g>
            </g>
        </g>
    </g>
</svg>