<?xml version="1.0" encoding="UTF-8"?>
<svg width="410px" height="576px" viewBox="0 0 410 576" version="1.1" xmlns="http://www.w3.org/2000/svg" xmlns:xlink="http://www.w3.org/1999/xlink">
    <!-- Generator: Sketch 61.1 (89650) - https://sketch.com -->
    <title>two-doctors</title>
    <desc>Created with Sketch.</desc>
    <g id="Page---Desktop-HD" stroke="none" stroke-width="1" fill="none" fill-rule="evenodd">
        <g id="Home" transform="translate(-780.000000, -265.000000)">
            <g id="Fullscreen-hero" transform="translate(0.000000, -1.000000)">
                <g id="two-doctors" transform="translate(780.000000, 266.205696)">
                    <path d="M383.5601,565.2747 C383.5601,570.9057 309.1571,575.4697 217.3731,575.4697 C125.5901,575.4697 51.1861,570.9057 51.1861,565.2747 C51.1861,559.6437 125.5901,555.0797 217.3731,555.0797 C309.1571,555.0797 383.5601,559.6437 383.5601,565.2747" id="Fill-1" fill="#C2D6FF"></path>
                    <polygon id="Fill-3" fill="#1E3340" points="193.8345 90.4144 139.3275 58.9444 172.9935 0.6344 227.4995 32.1034"></polygon>
                    <path d="M204.5532,89.5228 C203.9612,87.9448 202.6212,86.7828 200.9692,86.4498 C200.3712,86.3278 199.6922,86.1978 198.9972,86.0688 C200.6772,85.9668 202.2542,85.8508 203.2682,85.8508 C205.8382,85.8508 206.3752,94.2698 206.4502,94.6508 C206.4372,94.6508 205.3822,91.7528 204.5532,89.5228 M198.4472,96.4928 C196.2772,97.0878 194.1902,90.6928 192.4282,87.5988 C194.9382,88.6728 200.1062,89.1568 201.2212,91.2778 C203.1172,94.8878 200.7522,95.8608 198.4472,96.4928 M200.8812,82.9548 C196.0262,83.0228 190.6332,83.9818 190.6332,85.0288 C190.6332,85.3618 190.9192,85.5798 191.3212,85.7628 C191.1702,85.8648 191.0552,85.9878 191.0342,86.1508 C190.9192,86.1578 190.8172,86.2118 190.7082,86.3348 C188.9942,88.2788 194.9042,100.7628 193.3542,110.0518 C193.0272,111.9978 191.7562,115.4448 189.8652,119.6538 L201.2352,125.4888 C203.9422,116.1518 209.8232,95.7728 209.8572,94.8678 C210.2852,83.8588 205.8522,82.8858 200.8812,82.9548" id="Fill-5" fill="#FC7575"></path>
                    <polygon id="Fill-7" fill="#C9BBB1" points="113.4927 121.2161 75.0927 122.0401 75.0927 92.1501 106.0897 91.4271"></polygon>
                    <path d="M30.8657,479.4085 C30.8657,479.4085 82.4387,451.7865 138.9487,479.4085 L116.3777,314.2145 L54.6357,308.7985 L30.8657,479.4085 Z" id="Fill-9" fill="#C9BBB1"></path>
                    <path d="M69.5259,230.9974 C69.5259,230.9974 52.9129,270.1454 52.9129,294.9894 L52.9129,398.8834 C52.9129,398.8834 49.5889,412.4344 49.5889,447.8194 C49.5889,483.2034 53.5769,543.4314 53.5769,543.4314 L44.6219,563.2154 L47.0529,570.2214 L57.6489,563.2154 L62.8809,544.9364 C62.8809,544.9364 83.4819,401.1424 83.4819,390.6014 C83.4819,380.0614 90.7919,307.0354 90.7919,307.0354 L116.3779,232.8494 C116.2469,232.2814 116.1729,231.5194 116.1499,230.5934 L69.4699,230.5934 L69.5259,230.9974 Z" id="Fill-11" fill="#FC7575"></path>
                    <path d="M137.938,572.1439 L137.503,570.1229 C137.503,570.1229 116.045,569.0289 113.718,558.4889 C111.392,547.9489 129.003,394.3669 126.676,381.5689 C124.351,368.7689 118.703,243.0129 116.377,232.8489 L90.792,307.0359 L96.772,388.3439 C96.772,388.3439 90.792,448.5729 96.772,489.9789 C101.258,521.0339 101.356,550.5599 101.284,563.4229 C101.26,567.7109 101.502,570.2209 101.502,570.2209 L137.938,572.1439 Z" id="Fill-13" fill="#FD5E5A"></path>
                    <path d="M69.5259,230.9974 C69.5259,230.9974 54.1299,268.3774 50.2059,298.7714 C46.2799,329.1664 44.3169,425.5164 44.3169,425.5164 L126.6759,425.5164 L126.6759,290.7664 L116.3779,232.8494 L69.5259,230.9974 Z" id="Fill-15" fill="#1E3340"></path>
                    <path d="M127.2505,110.5179 C126.6015,109.5709 125.9665,108.7319 125.3485,108.0319 C120.7015,102.7669 105.8365,97.9579 91.6455,98.0579 C76.4065,98.1649 61.9435,103.3969 61.7325,103.5909 L59.3945,159.7059 C59.4975,159.5619 59.5585,159.4769 59.5585,159.4769 L64.9245,239.1169 L119.5515,241.8959 C119.2165,228.8729 125.3585,171.4209 128.5995,156.1749 L127.2505,110.5179 Z" id="Fill-17" fill="#ACA2CC"></path>
                    <path d="M88.9585,234.761 L102.0105,151.93 L78.3115,99.296 C72.1185,100.344 66.9515,101.818 64.1055,102.74 L63.2215,103.591 L61.1695,117.088 L59.3945,159.706 C59.4975,159.562 59.5585,159.477 59.5585,159.477 L64.9245,239.116 L88.5885,240.321 L88.9585,234.761 Z" id="Fill-19" fill="#574591"></path>
                    <path d="M266.0454,167.5413 L269.5894,117.3613 C243.1774,146.4143 214.7314,190.7833 213.2214,208.0493 C212.2244,219.4553 233.3524,249.5073 247.8114,266.0663 C250.3224,262.3213 253.5534,255.5983 257.5574,253.9373 C250.7634,243.9293 241.9754,229.0033 239.4824,215.6863 C235.2564,193.1073 266.0454,167.5413 266.0454,167.5413" id="Fill-21" fill="#EDD8CA"></path>
                    <path d="M357.3315,171.6273 L355.1115,121.3723 C380.7485,151.1103 408.0155,196.2143 409.0685,213.5143 C409.7655,224.9423 387.8535,254.4273 372.9625,270.5993 C370.5505,266.7903 367.4975,259.9823 363.5395,258.2193 C370.5945,248.3923 379.7725,233.7023 382.6155,220.4563 C387.4355,197.9963 357.3315,171.6273 357.3315,171.6273" id="Fill-23" fill="#EDD8CA"></path>
                    <polygon id="Fill-25" fill="#C9BBB1" points="295.0435 106.1185 327.7075 104.7555 326.3145 196.5385 287.4245 199.1045"></polygon>
                    <polygon id="Fill-27" fill="#C9BBB1" points="247.811 355.8607 367.004 355.8607 345.348 242.4257 275.459 234.7607"></polygon>
                    <path d="M345.8696,556.5745 C329.3686,556.5745 327.2766,535.0055 327.2766,535.0055 L341.5646,428.1875 L356.9856,300.5275 L352.6306,262.7465 L267.7576,262.7465 L267.1526,296.0385 L258.2436,425.7535 L283.7326,532.5695 C283.7326,532.5695 281.6406,554.1395 265.1406,554.1395 C248.6386,554.1395 249.039732,560.7805 249.039732,560.7805 L297.3376,560.7805 C297.3376,560.7805 294.5196,536.8745 294.5196,534.6605 C294.5196,532.4475 291.5016,417.1205 291.5016,417.1205 L309.8136,311.9755 L316.9766,422.3395 C316.9766,422.3395 316.4896,534.8825 316.4896,537.0955 C316.4896,539.3085 313.6726,563.2155 313.6726,563.2155 L333.7956,563.2155 L361.968474,563.2155 C361.968474,563.2155 362.3706,556.5745 345.8696,556.5745" id="Fill-29" fill="#1E3340"></path>
                    <path d="M353.2026,267.7112 L352.6306,262.7462 L267.7576,262.7462 L267.6786,267.0962 L285.4926,273.0292 C300.0166,277.8662 315.4676,278.2522 330.1766,274.1442 L353.2026,267.7112 Z" id="Fill-31" fill="#0C0C0D"></path>
                    <path d="M358.5122,127.3021 C349.2842,117.1521 327.9252,100.9521 304.3802,104.8621 L269.5892,117.3621 L266.0452,167.5411 L266.0702,266.5611 L353.7912,267.5471 L362.1342,171.1581 C362.1342,171.1581 367.7412,137.4521 358.5122,127.3021" id="Fill-33" fill="#574591"></path>
                    <path d="M266.0454,167.5413 L269.5894,117.3613 C243.1774,146.4143 214.7314,190.7833 213.2214,208.0493 C212.2244,219.4553 233.3524,249.5073 247.8114,266.0663 C250.3224,262.3213 253.5534,255.5983 257.5574,253.9373 C250.7634,243.9293 241.9754,229.0033 239.4824,215.6863 C235.2564,193.1073 266.0454,167.5413 266.0454,167.5413" id="Fill-35" fill="#EDD8CA"></path>
                    <path d="M300.5571,82.6517 C300.5571,82.6517 300.2831,104.4967 298.1541,115.6237 C297.3291,119.9287 299.3421,124.3347 303.0751,125.9177 C305.8291,127.0867 309.4731,127.7737 314.0391,126.9227 C325.9121,124.7097 326.3151,111.6487 326.3151,111.6487 L322.3111,71.8117 L300.5571,82.6517 Z" id="Fill-37" fill="#FC7575"></path>
                    <path d="M322.311,71.8118 L300.557,82.6518 C300.557,82.6518 300.456,90.7148 299.899,99.5408 C305.577,99.8148 312.708,96.6638 320.278,87.1578 C321.403,85.7448 322.452,84.3448 323.431,82.9578 L322.311,71.8118 Z" id="Fill-39" fill="#FD5E5A"></path>
                    <path d="M301.9653,26.6478 C301.9653,26.6478 294.5203,32.8468 291.3003,43.2498 C288.0803,53.6538 285.2633,61.1788 285.2633,61.1788 L288.6843,63.3938 C288.6843,63.3938 285.9593,77.9158 288.0803,82.8738 C291.3003,90.3988 304.8833,96.4868 320.2773,79.5528 C335.6723,62.6188 336.9813,47.6768 334.3643,40.3728 C331.7483,33.0668 308.0023,22.8848 301.9653,26.6478" id="Fill-41" fill="#FC7575"></path>
                    <path d="M325.1079,43.0287 C325.1079,43.0287 318.2659,36.8317 308.4049,39.4877 C298.5449,42.1437 295.2239,38.0487 297.1359,35.9447 C297.1359,35.9447 288.4829,36.1677 285.2629,28.4187 C282.0439,20.6717 282.8479,-2.7913 298.1419,1.6347 C313.4359,6.0617 310.3469,16.6867 310.3469,16.6867 C310.3469,16.6867 315.2469,11.5957 319.8759,14.2527 C324.5039,16.9087 323.9009,20.6717 323.9009,20.6717 C323.9009,20.6717 328.1269,29.3037 333.9619,30.4117 C339.7979,31.5187 339.1939,44.3567 339.1939,44.3567 C339.1939,44.3567 342.6149,47.0127 340.2009,56.3097 C337.7859,65.6067 323.5869,80.0847 323.5869,84.5117 C323.5869,84.5117 320.0769,78.6677 322.8939,69.5907 C325.7119,60.5147 325.7119,55.2027 322.6929,55.2027 C319.6739,55.2027 325.1079,43.0287 325.1079,43.0287" id="Fill-43" fill="#0B1742"></path>
                    <path d="M320.7563,61.2074 C320.7563,61.2074 321.7363,53.5704 323.9253,53.5704 C326.1133,53.5704 328.1513,54.4004 327.6233,58.7174 C327.0943,63.0334 324.8303,67.8484 321.9633,65.8554 C319.0963,63.8634 320.7563,61.2074 320.7563,61.2074" id="Fill-45" fill="#FC7575"></path>
                    <path d="M346.7075,43.7064 C346.5195,43.1024 346.0435,42.4614 345.4595,42.1854 C343.5555,41.2964 341.0125,43.2144 339.3365,44.5434 L339.0515,44.1704 C340.1825,42.8884 341.3775,41.6064 343.0535,40.7884 C345.5175,39.6444 347.7175,40.8114 348.6485,42.9824 L346.7075,43.7064 Z" id="Fill-47" fill="#0B1742"></path>
                    <path d="M345.1772,53.1009 C345.3592,52.0729 345.3582,50.8689 345.1122,49.7999 C343.8962,44.4579 337.9832,44.9239 337.6952,44.7659 L337.6952,44.4339 C337.8622,44.4979 346.2492,42.7089 347.4482,51.3339 C347.5552,52.0829 347.6082,52.7149 347.5422,53.6259 L345.1772,53.1009 Z" id="Fill-49" fill="#0B1742"></path>
                    <path d="M300.2153,49.8851 C300.2153,51.7641 299.4603,53.2871 298.5293,53.2871 C297.5993,53.2871 296.8443,51.7641 296.8443,49.8851 C296.8443,48.0041 297.5993,46.4811 298.5293,46.4811 C299.4603,46.4811 300.2153,48.0041 300.2153,49.8851" id="Fill-51" fill="#2846A6"></path>
                    <path d="M304.4048,44.3929 C301.3208,42.3369 296.9848,43.0899 296.9428,43.0979 L296.7448,41.7879 C296.9398,41.7499 301.5588,40.9419 305.0308,43.2569 L304.4048,44.3929 Z" id="Fill-53" fill="#2846A6"></path>
                    <path d="M300.894,69.2806 C296.8,70.8256 291.104,70.3166 287.744,69.8016 C287.622,70.8736 287.509,72.0116 287.424,73.1646 C296.163,73.4576 300.894,69.2806 300.894,69.2806" id="Fill-55" fill="#FFFFFF"></path>
                    <path d="M295.0435,106.1185 L288.5045,355.8605 L247.8115,355.8605 L259.8085,242.4265 L261.3185,171.8725 C261.3185,171.8725 263.1395,122.9495 271.4275,114.6615 C279.7155,106.3745 295.0435,106.1185 295.0435,106.1185" id="Fill-57" fill="#FBE9DC"></path>
                    <path d="M322.2036,58.1263 C322.2036,58.1263 323.4786,55.5373 324.6206,55.9073 C325.7636,56.2773 326.0216,61.4763 323.9926,63.6653 C321.9636,65.8553 320.2546,62.2673 322.2036,58.1263" id="Fill-59" fill="#FD5E5A"></path>
                    <path d="M327.7075,104.7552 L323.4235,355.8602 L367.0045,355.8602 C367.0045,355.8602 368.6455,156.8392 363.8205,136.0332 C358.9965,115.2262 327.7075,104.7552 327.7075,104.7552" id="Fill-61" fill="#FBE9DC"></path>
                    <polygon id="Fill-63" fill="#FFFFFF" points="267.117 168.453 291.236 168.453 291.236 149.266 267.117 149.266"></polygon>
                    <polygon id="Fill-65" fill="#0B1742" points="277.221 151.811 280.965 151.811 280.965 141.833 277.221 141.833"></polygon>
                    <polygon id="Fill-66" fill="#FFF4F0" points="280.937 327.1575 251.078 324.9775 255.294 279.0245 280.937 279.0245"></polygon>
                    <path d="M249.0396,264.1243 L255.9376,279.0243 L279.1766,279.0243 C279.1766,279.0243 258.4376,255.8903 255.6996,253.1503 C252.9616,250.4113 244.5456,259.6293 249.0396,264.1243" id="Fill-67" fill="#FC7575"></path>
                    <path d="M371.7847,268.6253 L364.4977,283.3393 L341.2657,282.7263 C341.2657,282.7263 362.6067,260.1463 365.4167,257.4793 C368.2267,254.8143 376.3967,264.2503 371.7847,268.6253" id="Fill-68" fill="#FC7575"></path>
                    <polygon id="Fill-69" fill="#FFF4F0" points="367.1606 329.9388 337.8676 330.8478 337.8676 281.6168 368.5706 281.6168"></polygon>
                    <path d="M363.5396,258.2191 C367.4976,259.9831 370.5506,266.7891 372.9626,270.5991 C378.5006,264.5831 385.0096,256.7251 390.9666,248.6401 C386.4306,244.7121 381.2396,241.5951 375.1416,239.6661 C371.4966,246.5771 367.2356,253.0701 363.5396,258.2191" id="Fill-70" fill="#EDD8CA"></path>
                    <path d="M247.811,266.0667 C250.323,262.3217 253.553,255.5967 257.557,253.9377 C254.33,249.1827 250.665,243.3047 247.427,237.0307 C243.25,240.9997 236.865,242.7607 232.329,246.3707 C237.527,253.6337 243.03,260.5907 247.811,266.0667" id="Fill-71" fill="#EDD8CA"></path>
                    <path d="M198.9858,86.0609 C195.9198,85.5079 192.2988,85.0549 191.3098,85.7519 C192.6828,86.3729 195.9898,86.2469 198.9858,86.0609" id="Fill-72" fill="#FC7575"></path>
                    <path d="M186.7915,117.3616 C179.6735,133.2096 166.7635,162.3226 158.7125,162.3226 C149.1765,162.3226 138.0575,119.9406 128.5995,106.1186 C123.6025,149.7416 125.2515,155.3556 125.7695,156.7506 C127.3965,161.1346 139.3995,188.4616 155.6865,188.4616 C176.2875,188.4616 203.4965,128.2656 204.3045,125.4806 L186.7915,117.3616 Z" id="Fill-73" fill="#EDD8CA"></path>
                    <path d="M192.4263,87.6009 C191.9123,86.7009 191.4413,86.1109 191.0383,86.1489 C190.9723,86.7739 191.5423,87.2229 192.4263,87.6009" id="Fill-74" fill="#FC7575"></path>
                    <path d="M33.1099,165.5286 C21.6169,193.4306 7.6079,289.7076 6.0859,293.3826 C3.8989,298.6576 -0.1831,311.7276 0.0059,312.5216 C0.3869,314.1156 6.1329,302.9036 6.1329,302.9036 C7.8679,304.4876 4.7019,313.2966 4.3579,316.0986 C4.0129,318.9026 2.0689,322.1076 4.5089,321.8116 C6.9499,321.5146 8.6949,303.7026 9.6889,303.5826 C10.6829,303.4616 9.6709,319.1136 9.0959,322.7046 C8.5209,326.2956 10.8969,329.4246 11.5619,322.9226 C12.2269,316.4216 13.2149,300.6896 13.5059,303.7606 C13.7969,306.8326 14.5779,321.9476 16.1789,323.4106 C17.7799,324.8736 17.6469,317.1086 16.8339,308.5076 C16.4469,304.4236 16.5379,301.9976 16.7389,300.5776 C16.9379,299.1776 18.1319,298.1786 19.3499,298.5056 C19.8159,298.6296 20.1939,298.9346 20.2549,299.5796 C20.4289,301.4236 21.2409,306.7786 23.5899,306.4926 C25.9399,306.2086 23.5299,300.8876 23.1229,296.5886 C22.7159,292.2876 19.6079,285.0216 19.6079,285.0216 C19.6079,285.0216 36.4319,202.4196 41.7489,189.6206 C46.7139,177.6666 57.9329,161.7576 59.3939,159.7066 L61.7329,103.5906 C52.3669,112.2116 44.9969,136.6726 33.1099,165.5286" id="Fill-75" fill="#FC7575"></path>
                    <path d="M59.3941,159.7064 L58.0621,103.5914 C48.6961,112.2114 42.0641,136.6724 30.1771,165.5284 C21.5101,186.5704 8.9981,246.4774 3.9031,276.2504 C7.3501,278.2494 23.0001,281.8014 26.7421,283.8834 C29.4561,270.6754 36.9501,201.1744 41.7481,189.6204 C46.7141,177.6664 57.9331,161.7574 59.3941,159.7064" id="Fill-76" fill="#EDD8CA"></path>
                    <path d="M76.7661,60.9945 C76.7661,60.9945 78.8631,96.1255 82.6081,102.2345 C86.3531,108.3455 99.3861,105.6295 100.4351,102.2345 C101.4831,98.8415 92.7941,63.5405 92.7941,63.5405 L76.7661,60.9945 Z" id="Fill-77" fill="#FC7575"></path>
                    <path d="M95.3071,74.1009 C93.9161,68.0999 92.7941,63.5399 92.7941,63.5399 L76.7661,60.9949 C76.7661,60.9949 85.5801,71.0619 88.2631,72.4059 C90.8451,73.6989 93.2261,74.1559 95.3071,74.1009" id="Fill-78" fill="#FD5E5A"></path>
                    <path d="M70.1743,19.9232 C70.1743,19.9232 73.3203,9.7402 68.0763,5.4972 C62.8333,1.2552 52.4963,3.4612 50.0993,16.5282 C47.7023,29.5972 49.6883,38.2522 58.8823,34.5192 C68.0763,30.7852 70.1743,19.9232 70.1743,19.9232" id="Fill-79" fill="#2846A6"></path>
                    <path d="M92.8696,14.4925 C92.8696,14.4925 99.3866,13.7285 101.4086,23.6575 C103.4316,33.5855 102.8696,39.9495 104.1046,41.3505 C105.3406,42.7505 108.0376,44.0225 108.0376,44.0225 C108.0376,44.0225 107.7566,46.0585 106.4076,46.8225 C105.0596,47.5875 104.6666,49.5595 104.6666,50.1335 C104.6666,50.7055 105.7346,50.7055 105.7346,51.7235 C105.7346,52.7415 104.4416,54.4605 104.4416,54.4605 C104.4416,54.4605 105.3966,55.4785 105.3966,56.4975 C105.3966,57.5145 103.8806,58.9155 103.8806,58.9155 C103.8806,58.9155 103.6556,62.6065 103.6556,64.6425 C103.6556,66.6795 97.1396,71.6435 88.2636,67.5705 C79.3876,63.4975 54.4436,57.3885 64.1066,35.2405 C73.7686,13.0935 92.8696,14.4925 92.8696,14.4925" id="Fill-80" fill="#FC7575"></path>
                    <path d="M80.5112,50.1331 C80.9592,50.6421 74.7482,54.7111 76.8792,62.7751 C79.0132,70.8371 67.5092,65.2371 63.5242,58.9571 C59.5372,52.6781 56.8412,37.9431 60.8862,30.5451 C64.9302,23.1481 65.0802,25.0151 68.9752,18.9051 C72.8702,12.7951 93.2782,9.6201 97.1502,15.8461 C101.0212,22.0701 94.2472,31.4441 87.2512,35.5371 C80.2562,39.6301 80.5112,50.1331 80.5112,50.1331" id="Fill-81" fill="#111F59"></path>
                    <path d="M95.7915,14.4749 C96.3905,14.4749 108.6745,9.5719 107.3255,18.7359 C105.9785,27.9009 97.7375,35.3279 87.5515,37.7039 C77.3645,40.0789 72.5705,43.5139 78.5625,47.9259 C78.5625,47.9259 71.6725,47.0789 71.6725,43.0039 C71.6725,38.9319 80.4575,34.1799 84.9785,31.6339 C89.4985,29.0879 94.9725,14.7579 94.9725,14.7579 L95.7915,14.4749 Z" id="Fill-82" fill="#2846A6"></path>
                    <path d="M85.604,45.3802 C85.604,45.3802 85.155,36.2162 80.661,37.9132 C76.166,39.6102 79.013,53.1882 83.132,53.1882 C87.251,53.1882 85.604,45.3802 85.604,45.3802" id="Fill-83" fill="#FC7575"></path>
                    <path d="M83.5415,44.14 C83.5415,44.14 82.8685,38.964 80.9955,40.068 C79.1235,41.17 79.4225,51.014 81.8185,50.504 C84.2165,49.995 83.5415,44.14 83.5415,44.14" id="Fill-84" fill="#FD5E5A"></path>
                    <path d="M100.7837,54.181 C101.9237,54.763 103.2427,54.84 104.4417,54.46 C103.2717,54.997 101.9297,55.136 100.5767,54.634 C100.4587,54.59 100.3937,54.446 100.4327,54.312 C100.4717,54.178 100.5987,54.106 100.7177,54.15 C100.7247,54.153 100.7317,54.155 100.7387,54.159 L100.7837,54.181 Z" id="Fill-85" fill="#2846A6"></path>
                    <path d="M101.481,38.8958 C101.481,38.8958 102.539,39.3748 102.539,40.4998 C102.539,41.6258 101.481,42.2258 101.481,42.2258 L101.481,38.8958 Z" id="Fill-86" fill="#2846A6"></path>
                    <path d="M98.2788,41.931 C98.2788,41.931 99.9368,39.566 101.0378,38.321 C102.1368,37.074 105.2668,36.595 105.2668,36.595 L98.2788,41.931 Z" id="Fill-87" fill="#172866"></path>
                    <path d="M97.231,35.9095 C97.231,35.9095 99.557,33.1085 101.418,32.5985 C103.28,32.0915 102.26,34.8275 102.26,34.8275 C102.26,34.8275 102.681,33.1085 97.231,35.9095" id="Fill-88" fill="#172866"></path>
                    <path d="M58.062,103.5911 L58.882,230.3081 C58.882,230.3081 24.97,358.0851 30.866,479.4081 L66.01,479.4081 L79.779,234.7611 L90.791,151.9301 L75.092,98.5521 L58.062,103.5911 Z" id="Fill-89" fill="#FBE9DC"></path>
                    <path d="M108.0376,99.5599 L112.2276,141.8329 L102.5386,479.4089 L138.9486,479.4089 C138.9486,479.4089 137.1806,277.7529 123.7826,241.8959 L128.5996,156.1749 L128.5996,106.1189 L108.0376,99.5599 Z" id="Fill-90" fill="#FBE9DC"></path>
                    <polygon id="Fill-91" fill="#FFF4F0" points="59.3941 100.2737 69.2591 115.9807 67.2741 119.5907 90.7911 151.9297 75.0921 92.1497"></polygon>
                    <polygon id="Fill-92" fill="#FFF4F0" points="114.7554 112.9114 117.4644 96.8434 106.0894 91.4274 111.8564 154.8024 118.3664 117.3614"></polygon>
                    <polygon id="Fill-93" fill="#E3E4FF" points="224.2954 34.3285 209.6364 25.8645 210.4514 24.4525 225.1094 32.9155"></polygon>
                    <polygon id="Fill-94" fill="#FFFFFF" points="59.612 166.91 83.732 166.91 83.732 147.724 59.612 147.724"></polygon>
                    <polygon id="Fill-95" fill="#0B1742" points="69.716 150.268 73.46 150.268 73.46 140.29 69.716 140.29"></polygon>
                    <path d="M241.3872,61.183 C241.2142,61.183 241.0392,61.142 240.8762,61.055 C240.3492,60.773 240.1512,60.117 240.4332,59.589 C253.9242,34.403 231.0982,2.039 230.8662,1.715 C230.5172,1.229 230.6292,0.552 231.1152,0.204 C231.6012,-0.145 232.2772,-0.034 232.6262,0.453 C233.6072,1.82 256.4742,34.229 242.3432,60.612 C242.1482,60.976 241.7742,61.183 241.3872,61.183" id="Fill-96" fill="#22346D"></path>
                    <path d="M101.2837,563.4232 C101.8977,564.0372 118.0057,570.5812 121.6167,570.5812 C125.2267,570.5812 126.8887,568.3692 126.8887,568.3692 L137.9737,569.4082 L141.9617,572.7922 L101.0927,572.7922 L101.2837,563.4232 Z" id="Fill-97" fill="#1E3340"></path>
                    <path d="M48.9673,553.6146 C48.9673,553.6146 40.2853,564.3426 40.2853,568.0046 C40.2853,571.6656 41.4553,574.5536 44.5263,575.2756 C47.5943,575.9976 54.9183,572.7526 57.6493,563.2156 C57.6493,563.2156 50.5533,567.9446 47.7753,565.1656 C44.9963,562.3866 48.9673,553.6146 48.9673,553.6146" id="Fill-98" fill="#1E3340"></path>
                </g>
            </g>
        </g>
    </g>
</svg>