<?xml version="1.0" standalone="no"?>
<!DOCTYPE svg PUBLIC "-//W3C//DTD SVG 20010904//EN"
 "http://www.w3.org/TR/2001/REC-SVG-20010904/DTD/svg10.dtd">
<svg version="1.0" xmlns="http://www.w3.org/2000/svg"
 width="700.000000pt" height="700.000000pt" viewBox="0 0 700.000000 700.000000"
 preserveAspectRatio="xMidYMid meet">
<metadata>
Created by potrace 1.11, written by Peter Selinger 2001-2013
</metadata>
<g transform="translate(0.000000,700.000000) scale(0.100000,-0.100000)"
fill="#000000" stroke="none">
<path d="M4744 6080 c-24 -9 -38 -36 -24 -45 6 -4 10 -2 10 3 0 5 11 14 25 20
14 6 25 16 25 22 0 12 -7 12 -36 0z"/>
<path d="M2802 6038 c-63 -21 -162 -95 -162 -121 0 -7 -11 -22 -25 -35 -27
-26 -77 -149 -95 -235 -44 -216 10 -495 134 -687 97 -150 203 -220 344 -228
94 -5 141 8 231 65 112 72 214 208 245 328 38 152 30 309 -20 356 -21 20 -29
22 -53 12 l-29 -10 -4 55 c-3 31 -11 60 -19 66 -8 6 -27 43 -42 83 -42 108
-145 254 -209 298 -102 69 -195 86 -296 53z"/>
<path d="M4677 5913 c-4 -3 -7 -20 -7 -37 1 -33 11 -24 24 22 7 21 -3 30 -17
15z"/>
<path d="M4631 5819 c-7 -19 -17 -29 -30 -29 -17 0 -21 -6 -21 -34 0 -55 16
-51 54 13 41 67 41 67 22 74 -10 4 -18 -4 -25 -24z"/>
<path d="M4426 5740 c-49 -49 -93 -90 -98 -90 -4 0 -8 -7 -8 -15 0 -9 -11 -20
-25 -25 -74 -28 -417 -430 -580 -680 -73 -111 -91 -158 -140 -351 -19 -79 -50
-173 -67 -209 -28 -57 -32 -78 -36 -172 -2 -60 -2 -118 2 -131 3 -13 23 -33
47 -46 35 -20 51 -23 109 -19 45 4 82 13 111 29 40 22 46 31 70 102 18 53 22
77 14 77 -20 0 -25 40 -11 75 8 18 32 47 55 65 63 51 72 72 82 181 8 99 42
203 88 267 10 15 54 92 98 172 44 80 100 175 126 213 41 59 77 146 77 184 0 7
14 23 31 35 32 24 86 105 76 114 -3 3 -16 -14 -28 -38 -22 -42 -23 -42 -30
-18 -12 42 -10 50 16 60 15 6 25 17 25 30 0 11 7 20 15 20 10 0 15 10 15 34 0
28 5 38 27 48 21 10 31 27 45 73 23 78 23 80 -7 61 -23 -15 -25 -15 -25 0 0 9
9 18 20 21 11 3 20 9 20 14 0 25 -34 1 -114 -81z m-196 -224 c0 -2 -7 -6 -15
-10 -8 -3 -15 -1 -15 4 0 6 7 10 15 10 8 0 15 -2 15 -4z"/>
<path d="M2075 4559 c-158 -8 -422 -52 -529 -87 -162 -53 -566 -269 -629 -336
-109 -116 -50 -236 117 -236 58 0 112 17 251 78 50 21 114 47 143 56 28 10 52
22 52 27 0 16 77 60 151 86 74 26 75 26 459 28 421 3 468 -1 602 -53 115 -44
290 -149 391 -233 190 -157 392 -388 526 -602 100 -158 221 -413 271 -572 7
-22 44 -109 82 -194 70 -154 91 -228 103 -351 7 -67 63 -372 71 -379 9 -9 2
39 -21 158 -14 69 -23 126 -21 128 2 3 19 -21 36 -53 30 -52 32 -59 21 -91
-13 -35 -10 -66 16 -147 12 -38 13 -53 3 -70 -10 -19 -7 -33 15 -87 21 -48 26
-77 24 -119 -6 -118 -3 -179 14 -287 9 -61 17 -141 18 -177 2 -72 9 -75 39
-16 16 32 21 74 30 263 8 164 8 231 0 246 -8 15 -8 27 1 42 8 16 8 64 0 186
-6 90 -9 168 -6 173 7 11 -29 323 -51 440 -77 418 -232 828 -448 1184 -168
275 -400 530 -663 728 -270 202 -624 291 -1068 267z"/>
<path d="M4157 1069 c-4 -63 -7 -153 -7 -201 0 -74 2 -86 15 -82 12 5 15 26
15 100 0 70 4 101 16 119 19 30 13 91 -15 144 l-18 33 -6 -113z"/>
<path d="M4285 740 c-3 -5 -1 -10 4 -10 6 0 11 5 11 10 0 6 -2 10 -4 10 -3 0
-8 -4 -11 -10z"/>
<path d="M4152 640 c0 -56 2 -78 8 -65 11 25 11 92 0 125 -5 17 -8 -3 -8 -60z"/>
<path d="M4267 613 c-4 -3 -7 -16 -6 -27 0 -19 1 -19 10 3 10 24 8 36 -4 24z"/>
<path d="M4141 261 c-7 -5 -11 -15 -9 -22 3 -8 -5 -30 -17 -49 -12 -19 -29
-54 -38 -78 -17 -41 -17 -43 0 -40 10 2 20 14 23 28 3 14 18 51 34 83 29 59
32 93 7 78z"/>
</g>
</svg>
