<?xml version="1.0" encoding="UTF-8"?>
<svg width="112px" height="132px" viewBox="0 0 112 132" version="1.1" xmlns="http://www.w3.org/2000/svg" xmlns:xlink="http://www.w3.org/1999/xlink">
    <!-- Generator: Sketch 61.1 (89650) - https://sketch.com -->
    <title>hazo24-logo</title>
    <desc>Created with Sketch.</desc>
    <defs>
        <polygon id="path-1" points="0 0.0574177665 111.999943 0.0574177665 111.999943 112.483814 0 112.483814"></polygon>
        <polygon id="path-3" points="0 132 112 132 112 1 0 1"></polygon>
    </defs>
    <g id="Page---Desktop-HD" stroke="none" stroke-width="1" fill="none" fill-rule="evenodd">
        <g id="Home" transform="translate(-612.000000, -4513.000000)">
            <g id="Group-13" transform="translate(0.000000, 4447.000000)">
                <g id="Group-12" transform="translate(364.000000, 66.000000)">
                    <g id="Group-9" transform="translate(43.000000, 0.000000)">
                        <g id="hazo24-logo" transform="translate(205.000000, 0.000000)">
                            <path d="M72.4010417,131.882845 L72.4010417,129.129707 C78.2447917,124.794393 79.3333333,123.857741 79.3333333,122.51046 C79.3333333,121.572636 78.4739583,121.104603 77.4994271,121.104603 C76.0104167,121.104603 74.8645833,121.690377 73.890625,122.627615 L72,120.284519 C73.4322917,118.702929 75.5520833,118 77.4427083,118 C80.59375,118 82.8854167,119.815314 82.8854167,122.569038 C82.8854167,124.677824 81.3958333,126.493724 78.0723438,128.894812 L83,128.894812 L83,132 L72.4010417,132 L72.4010417,131.882845 Z" id="Fill-1" fill="#000000"></path>
                            <path d="M90.1291109,120.931915 L87.2284691,125.689362 L90.1291109,125.689362 L90.1291109,120.931915 Z M90.1291109,131 L90.1291109,128.621277 L84,128.621277 L84,126.021277 L88.8703418,118 L93.4681327,118 L93.4681327,125.689362 L95,125.689362 L95,128.621277 L93.4681327,128.621277 L93.4681327,131 L90.1291109,131 Z" id="Fill-3" fill="#000000"></path>
                            <g id="Group-7">
                                <mask id="mask-2" fill="white">
                                    <use xlink:href="#path-1"></use>
                                </mask>
                                <g id="Clip-6"></g>
                                <path d="M3.71422857,56.2706157 C3.71422857,85.1796868 27.1428,108.755387 55.9999429,108.755387 C84.8570857,108.755387 108.285657,85.2376208 108.285657,56.2706157 C108.285657,27.3609711 84.8570857,3.78584416 55.9999429,3.78584416 C27.1428,3.78584416 3.71422857,27.3036107 3.71422857,56.2706157 M-5.71428571e-05,56.2706157 C-5.71428571e-05,25.2959964 25.0856571,0.0574177665 55.9999429,0.0574177665 C86.8570857,0.0574177665 111.999943,25.2380624 111.999943,56.2706157 C111.999943,87.3025954 86.9148,112.483814 55.9999429,112.483814 C25.0856571,112.483814 -5.71428571e-05,87.245235 -5.71428571e-05,56.2706157" id="Fill-5" fill="#000000" mask="url(#mask-2)"></path>
                            </g>
                            <path d="M60,8.97418455 C60,7.32856562 58.6071429,5.94889994 57,6.00145358 C55.3928571,6.00145358 54,7.43526543 54,9.02779988 C54,10.6203343 55.3928571,11.9474464 57,12 C58.6607143,11.9474464 60,10.6203343 60,8.97418455" id="Fill-8" fill="#3C95D1"></path>
                            <mask id="mask-4" fill="white">
                                <use xlink:href="#path-3"></use>
                            </mask>
                            <g id="Clip-11"></g>
                            <polygon id="Fill-10" fill="#3C95D1" mask="url(#mask-4)" points="52 16 62 16 62 13 52 13"></polygon>
                            <path d="M8,44.0538435 C15.5110193,39.8367961 27.4834711,39.2591183 36.4622452,47 C37.5358127,36.7173363 39.2300275,26.7235115 49,18 C46.7410468,18.3471843 44.8774105,18.5776777 43.0702479,18.9826298 C26.2969559,22.6214219 15.0021901,30.2473457 8.95949036,41.6847872" id="Fill-12" fill="#3C95D1" mask="url(#mask-4)"></path>
                            <path d="M58.3871335,40.6027808 C57.2531495,40.4895557 56.2325638,40.4895557 54.8150837,40.6599595 C54.8150837,40.6027808 53.5104351,40.8292311 53.2269391,40.8292311 C47.1039921,41.4519692 42.7375865,43.659859 39.0521383,46.887341 C38.5424125,40.1498804 41.8309662,29.789782 46.2535041,24.2983638 C47.4441873,22.8270034 48.9183666,21.3545107 50.6754749,20.1090344 C54.5315877,17.335019 59.1242232,17.2784065 62.9230698,20.0524219 C65.0776395,21.6375735 66.9487132,23.4491754 68.3661932,25.3745686 C71.9949422,30.2426825 73.5258207,35.5648292 74.3763088,40.9430223 C74.6598048,42.8106706 74.7726362,44.7354976 75,47 C69.4434781,42.7540581 65.8714283,41.2821315 59.8046136,40.7726185" id="Fill-13" fill="#3C95D1" mask="url(#mask-4)"></path>
                            <path d="M64,18 C73.5156695,26.4849699 75.3960114,36.4809619 76.3646724,47 C79.8974359,43.9198397 83.9430199,41.8276553 89.3561254,41.1302605 C94.7122507,40.4328657 99.4991453,41.3627255 104,43.3386774 C101.037037,32.6452906 84.8552707,20.1503006 64,18" id="Fill-14" fill="#3C95D1" mask="url(#mask-4)"></path>
                            <polygon id="Fill-15" fill="#3C95D1" mask="url(#mask-4)" points="26.3785672 132 26.3785672 126.8 20.6208392 126.8 20.6208392 132 17 132 17 119 20.6208392 119 20.6208392 123.868085 26.3785672 123.868085 26.3785672 119 30 119 30 132"></polygon>
                            <path d="M37.5587575,122.319149 L35.7871737,127.187234 L39.2712885,127.187234 L37.5587575,122.319149 Z M40.9844101,132 L40.2757765,130.119149 L34.7838668,130.119149 L34.0752333,132 L30,132 L35.3147514,119 L39.8033542,119 L45,132 L40.9844101,132 Z" id="Fill-16" fill="#3C95D1" mask="url(#mask-4)"></path>
                            <polygon id="Fill-17" fill="#3C95D1" mask="url(#mask-4)" points="46 132 46 129.344681 51.4644809 121.931915 46 121.931915 46 119 55.8360656 119 55.8360656 121.655319 50.3715847 129.068085 56 129.068085 56 132"></polygon>
                            <path d="M67.5416949,125 C67.5416949,122.801653 66.147217,121.066116 63.9723893,121.066116 C61.7964461,121.066116 60.4019682,122.801653 60.4019682,125 C60.4019682,127.198347 61.7964461,128.933884 63.9723893,128.933884 C66.147217,128.933884 67.5416949,127.198347 67.5416949,125 M57,125 C57,120.892562 60.0115144,118 64.0276107,118 C68.0437069,118 71,120.892562 71,125 C71,129.107438 68.0437069,132 64.0276107,132 C60.0115144,132 57,129.107438 57,125" id="Fill-18" fill="#3C95D1" mask="url(#mask-4)"></path>
                            <path d="M66.9063513,52.7530435 C67.1317156,52.6376812 67.4141271,52.2892754 67.4141271,51.9994203 C67.4141271,51.7681159 67.1317156,51.3623188 66.9063513,51.2457971 C65.7196584,50.666087 64.4776128,50.666087 63.2914847,51.2457971 C63.0090733,51.3623188 62.7266618,51.7681159 62.7266618,52.057971 C62.7266618,52.3478261 63.0655556,52.6950725 63.347967,52.8115942 C63.8563076,53.0428986 64.4211305,53.1014493 65.0424357,53.2747826 C65.6072586,53.1014493 66.2844813,52.9849275 66.9063513,52.7530435 M48.6060893,67.8255072 C45.7819748,67.5356522 43.1837895,66.666087 40.9809802,64.6371014 C38.213348,62.0869565 37.253149,58.2023188 38.6081592,54.9565217 C39.8513344,51.942029 42.279508,50.3188406 45.3301165,49.7391304 C48.2671956,49.1594203 51.260757,49.5066667 54.197836,49.7965217 C56.3441631,49.9704348 58.4904901,50.1443478 60.5238525,49.0434783 C62.0483095,48.2313043 63.7427782,48 65.4372469,48 C67.0757982,48 68.60082,48.3472464 69.8999127,49.5646377 C70.4082533,50.0289855 71.0295585,50.3188406 71.707346,50.4927536 C73.1194032,50.955942 74.644425,50.7826087 76,50.4927536 C76,51.5356522 75.9435177,52.5791304 75.9435177,53.6226087 C75.5481417,53.5646377 75.1527656,53.4486957 74.7568248,53.3913043 C72.9499563,53.1014493 71.3119699,53.2747826 69.9558301,54.6666667 C68.9397137,55.7101449 67.5841388,56.115942 66.1720815,56.2313043 C64.0251897,56.4631884 61.9923921,56 59.9025473,55.5936232 C56.3441631,54.8405797 52.7287317,54.2023188 49.0573828,54.5507246 C47.4764435,54.724058 46.007904,55.1304348 44.7088113,56.1733333 C42.901378,57.6805797 42.8443309,59.9414493 44.7088113,61.3333333 C45.612528,61.9704348 46.6856915,62.4927536 47.758855,62.7826087 C49.0573828,63.1298551 50.4694401,63.1878261 51.8814973,63.4197101 C51.8814973,64.8689855 51.8255799,66.3762319 51.8255799,68 C50.7518515,67.884058 49.6792528,67.9414493 48.6060893,67.8255072" id="Fill-19" fill="#3C95D1" mask="url(#mask-4)"></path>
                            <path d="M52.8695561,86.6748158 C51.7102103,86.5057099 50.6094114,86.4493413 49.6233878,86.1674983 C48.2907198,85.8292866 47.1313739,85.1528633 46.8989251,83.6309109 C46.7250232,82.2780643 47.537145,80.868849 49.0437149,80.3051629 C50.2030607,79.8536504 51.4789208,79.6851082 52.6956543,79.6287396 C55.5940188,79.5718073 58.5509304,79.6851082 61.4492949,79.7978455 C65.2171689,79.9105827 68.5792718,79.1214222 71.129253,76.2466231 C73.9122626,73.0894173 73.5638792,68.9187039 70.2597436,66.2130107 C68.2308884,64.5783211 65.8542294,63.7885968 63.3036686,63.3945803 C62.3188043,63.2249107 61.2748134,63.1691058 60.2899491,63 C60.2899491,64.634126 60.2314021,66.1566421 60.2314021,67.6785945 C61.4492949,67.904069 62.5500938,68.0731748 63.652052,68.2980856 C64.9847201,68.6368609 66.1440659,69.200547 67.1300895,70.2151819 C68.4627575,71.6243972 68.2894353,73.2590868 66.4918696,73.9918787 C65.2745565,74.4986325 63.8833415,74.8937765 62.5500938,74.8937765 C59.4778274,74.9501451 56.4061406,74.6683021 53.3338741,74.6683021 C51.8261449,74.6683021 50.319575,74.8374079 48.8118457,75.1756195 C45.5082898,75.9647801 43.1895981,78.7832105 43.0151166,82.0525898 C42.7838271,85.9983925 45.2184533,88.9295601 49.5074532,89.718157 C50.4355096,89.8878265 51.4203738,89.9441951 52.3484302,90 C52.5217524,90 52.8695561,89.718157 52.8695561,89.5496148 L52.8695561,86.6748158 Z" id="Fill-20" fill="#3C95D1" mask="url(#mask-4)"></path>
                            <path d="M46,101 C46.4527818,101 46.6791727,101 46.8489658,100.941667 C50.5844154,99.71725 54.3764628,99.95 58.2251078,100.008917 C59.809278,100.008917 61.4511779,99.89225 63.0359141,99.6005833 C63.8848799,99.4833333 64.7338458,99.01725 65.4690502,98.5505833 C68.0731113,96.8583333 68.752284,93.65 67.1109501,90.96725 C65.299823,87.9916667 62.4699369,87.0589167 59.1872691,87 C59.1872691,88.2255833 59.1306713,89.3333333 59.1306713,90.5 C59.9230394,90.6166667 60.6582438,90.6166667 61.3379825,90.7916667 C62.0171551,90.96725 62.6963278,91.2589167 63.262305,91.6666667 C64.6200843,92.71725 64.7338458,94.525 63.4881299,95.8089167 C62.5831323,96.7416667 61.3945802,97.0333333 60.1494303,97.0333333 C57.8855215,97.0333333 55.6782103,97.0333333 53.4143015,97.09225 C52.4515743,97.09225 51.489979,97.26725 50.470654,97.3839167 C48.7166906,97.5589167 47.4715408,98.6083333 46.5088135,100.066667 C46.2829886,100.300583 46.2258249,100.59225 46,101" id="Fill-21" fill="#3C95D1" mask="url(#mask-4)"></path>
                            <path d="M58,57.0571429 C56.6461538,57.0571429 55.4763077,57 54.3076923,57 C54.2455385,62.0862857 54.1224615,67.9142857 54,72.9434286 C55.3532308,72.9434286 56.584,73 57.9378462,73 C58,67.9142857 58,62.1428571 58,57.0571429" id="Fill-22" fill="#3C95D1" mask="url(#mask-4)"></path>
                            <path d="M58,81.0586338 C56.561875,81.0586338 55.311875,81 54.061875,81 C54.061875,81.8133264 54,82.568019 54,83.322131 L54,94.178674 C54,94.8166795 54.186875,95.0494731 54.875,94.9914199 C55.8125,94.932786 56.8125,94.9914199 57.75,94.9914199 C57.875,90.288524 57.936875,85.644262 58,81.0586338" id="Fill-23" fill="#3C95D1" mask="url(#mask-4)"></path>
                            <path d="M58,102.056818 C56.6451613,102.056818 55.4193548,102 54.1290323,102 C54.1290323,103.250568 54,105.636932 54,106.94375 C55.2903226,106.94375 56.5806452,107 57.8709677,107 C57.9354839,105.75 58,103.364205 58,102.056818" id="Fill-24" fill="#3C95D1" mask="url(#mask-4)"></path>
                            <path d="M58,42.0531858 C56.6445161,42.0531858 55.4193548,42 54.1290323,42 C54.1290323,43.1706201 54.063871,45.7230082 54,46.9462823 C55.2903226,46.9462823 56.5806452,47 57.8709677,47 C57.9348387,45.8299117 58,43.2769918 58,42.0531858" id="Fill-25" fill="#3C95D1" mask="url(#mask-4)"></path>
                        </g>
                    </g>
                </g>
            </g>
        </g>
    </g>
</svg>