<svg width="299" height="224" xmlns="http://www.w3.org/2000/svg" xmlns:xlink="http://www.w3.org/1999/xlink"><defs><path id="a" d="M0 0h299v224H0z"/><path id="d" d="M0 191h342.828V.274H0z"/><path d="M.058 6.33c-.02 3.711 72.842 7.119 162.743 7.61 7.243.04 14.37.06 21.362.06h.53c79.545-.007 140.908-2.486 140.927-5.891.02-3.713-72.842-7.12-162.743-7.612-7.32-.04-14.517-.06-21.582-.06C61.598.438.077 2.92.058 6.33" id="f"/><path id="i" d="M0 .275h342.828v187.3H0z"/><linearGradient x1="23.917%" y1="68.65%" x2="84%" y2="28.94%" id="b"><stop stop-color="#EEE" offset="0%"/><stop stop-color="#D8D8D8" offset="100%"/></linearGradient><linearGradient x1="0%" y1="49.998%" x2="100%" y2="50.002%" id="g"><stop stop-color="#181D66" offset="0%"/><stop stop-color="#2D31BA" offset="100%"/></linearGradient></defs><g fill="none" fill-rule="evenodd"><mask id="c" fill="#fff"><use xlink:href="#a"/></mask><use fill="url(#b)" xlink:href="#a"/><g mask="url(#c)"><path fill="#FFDFBB" d="M183 213h73v-31h-73z"/><path fill="#C19549" d="M183 213h18v-31h-18z"/><path fill="#DCB874" d="M190 186h36l-24.724 2z"/><path fill="#FFF7CF" d="M182 189h10l-10 1zM188.695 192.75L182.7 192 180 194h13zM191 201h9v4zM188 208h28l-15.077 2z"/><path fill="#DCB874" d="M201 193l43 .211L201 195zM201 201h27l-27 1zM201 198v2l16-1.777z"/><path fill="#FFF7CF" d="M238 196h17.617l4.383 2zM230 209h20l-10.862 2z"/><path fill="#DCB874" d="M257 204l-20 1.445 20 .555z"/><g transform="translate(-5 35)"><path d="M233.554 154.173c.764 0 27.295-.88 27.295-.88v1.583l-27.295-.703z" fill="#DCB874"/><path d="M219.314 147.49s-18.05.66-13.727 16.221l-25.684-3.165s8.137-11.604 12.206-13.187l27.205.132z" fill="#FFEBFB"/><mask id="e" fill="#fff"><use xlink:href="#d"/></mask><path fill="#F2C86C" mask="url(#e)" d="M165.23 149.36h72.984v-29.744H165.23z"/><path fill="#936F33" mask="url(#e)" d="M165.23 149.36h18.309v-29.744h-18.31z"/><path fill="#936F33" mask="url(#e)" d="M172.096 123.428h36.534l-25.09 1.356z"/><path fill="#FFF7CF" mask="url(#e)" d="M165.23 126.733h9.154l-9.155 1.101zM171.249 130.461l-6.02-.507-2.712 1.355h13.054zM172.774 138.512h9.07v3.729zM170.824 143.85h27.55l-14.835 1.78z"/><path fill="#936F33" mask="url(#e)" d="M183.54 130.461l42.976.17-42.977 1.441zM183.54 137.24h26.955l-26.956 1.102zM183.54 134.91v1.525l16.02-1.355z"/><path fill="#FFF7CF" mask="url(#e)" d="M220.497 132.58h17.717l4.407 1.907zM212.784 145.121h19.666l-10.681 2.204z"/><path fill="#936F33" mask="url(#e)" d="M238.214 140.715l-19.412 1.101 19.412.424zM210.919 126.055c.763 0 27.295-.847 27.295-.847v1.525l-27.295-.678z"/></g><g transform="translate(-2 212)"><mask id="h" fill="#fff"><use xlink:href="#f"/></mask><path d="M.058 6.33c-.02 3.711 72.842 7.119 162.743 7.61 7.243.04 14.37.06 21.362.06h.53c79.545-.007 140.908-2.486 140.927-5.891.02-3.713-72.842-7.12-162.743-7.612-7.32-.04-14.517-.06-21.582-.06C61.598.438.077 2.92.058 6.33" fill="url(#g)" mask="url(#h)"/></g><g transform="translate(-5 34)"><mask id="j" fill="#fff"><use xlink:href="#i"/></mask><path fill="#EDD7B2" mask="url(#j)" d="M259.306 133.348h80.53V87.865h-80.53z"/><path fill="#DCCAA8" mask="url(#j)" d="M332.26 93.696h-40.313l27.686 2.073z"/><path fill="#FFF7CF" mask="url(#j)" d="M333.662 124.925h-30.397l16.368 2.72z"/><path fill="#DCCAA8" mask="url(#j)" d="M319.633 104.451l-47.42.26 47.42 2.202zM319.633 114.818H289.89l29.743 1.684zM319.633 111.254v2.332l-17.678-2.073z"/><path fill="#FFF7CF" mask="url(#j)" d="M278.854 107.69h-19.548l-4.864 2.916zM287.365 126.868h-21.699l11.785 3.37z"/><path fill="#DCCAA8" mask="url(#j)" d="M259.306 120.13l21.418 1.685-21.418.647zM289.423 97.713c-.842 0-30.117-1.296-30.117-1.296v2.333l30.117-1.037z"/><path fill="#FFEFDD" mask="url(#j)" d="M242.138 87.865h80.53V37.234h-80.53z"/><path fill="#C1AB85" mask="url(#j)" d="M302.465 87.865h20.202V37.234h-20.202z"/><path fill="#DCCAA8" mask="url(#j)" d="M315.091 43.725H274.78l27.685 2.308z"/><path fill="#FFF7CF" mask="url(#j)" d="M316.494 78.488h-30.397l16.368 3.03z"/><path fill="#DCCAA8" mask="url(#j)" d="M302.465 55.698l-47.421.288 47.42 2.452zM302.465 67.238h-29.743l29.743 1.874zM302.465 63.27v2.597l-17.678-2.308z"/><path fill="#FFF7CF" mask="url(#j)" d="M261.685 59.304h-19.547l-4.864 3.246zM270.197 80.653h-21.699l11.785 3.75z"/><path fill="#DCCAA8" mask="url(#j)" d="M242.137 73.151l21.418 1.877-21.418.72zM272.254 48.197c-.841 0-30.117-1.443-30.117-1.443v2.597l30.117-1.154z"/><path fill="#542360" mask="url(#j)" d="M207.697 163.533l-3.955-.022.343-61.96 3.955.023z"/><path fill="#542360" mask="url(#j)" d="M175.563 178.96l29.305-15.183-.085 15.344 2.093.012.083-15.16 30.212 15.328 3.22.018-32.939-16.712-.684.461-1.896-.01v.128l-.892-.589-31.55 16.345z"/><path d="M209.246 164.471l-6.67-.037.02-3.493a3.184 3.184 0 013.2-3.17h.304a3.186 3.186 0 013.165 3.207l-.02 3.493z" fill="#542360" mask="url(#j)"/><path d="M166.05 91.12s-1.613 4.053-.373 6.55c1.238 2.496 18.5 10.98 18.5 10.98l5.882-7.438L166.05 91.12z" fill="#1B2B80" mask="url(#j)"/><path d="M246.754 47.604c1.57-8.898 4.431-49.766-8.138-47.215-12.57 2.55-20.877 3.992-27.429 6.314s-2.757 59.89-10.384 67.446c-7.628 7.556-43.357 11.944-33.342 22.089 0 0 16.426 9.525 19.303 9.541 2.877.015 37.691-4.508 41.615-4.486 3.923.022 16.431-42.674 18.375-53.69" fill="#3A0027" mask="url(#j)"/><path d="M242.638 1.32s-6.899 92.463-21.322 95.561c-9.718 2.088-36.367 6.005-37.698 10.19-1.33 4.186 7.855-1.266 14.917-1.227 7.061.04 21.484-1.5 29.844-4.55 19.44-7.095 28.714-89.752 14.26-99.974" fill="#1E3340" mask="url(#j)"/><path d="M173.943 92.338c-.026-4.877.133-29.487 5.79-35.091 5.593-5.542 30.24-10.076 33.032-10.575l.85 4.776c-9.974 1.781-27.07 5.868-30.479 9.246-3.1 3.072-4.412 20.34-4.352 31.617l-4.84.027z" fill="#09133F" mask="url(#j)"/><path d="M199.818 104.13c-.026-4.878.132-29.488 5.79-35.092 5.592-5.542 30.239-10.076 33.031-10.575l.85 4.776c-9.974 1.781-27.069 5.868-30.478 9.246-3.099 3.07-4.41 20.34-4.353 31.618l-4.84.028z" fill="#1E3340" mask="url(#j)"/><path fill="#542360" mask="url(#j)" d="M36.293 187.575h80.617V67.161H36.293z"/><path fill="#2A1230" mask="url(#j)" d="M36.293 73.06h80.617v-5.899H36.293z"/><path fill="#542360" mask="url(#j)" d="M216.227 187.575h7.621V67.161h-7.62z"/><path fill="#2A1230" mask="url(#j)" d="M215.973 74.45h7.875V67.16h-7.875z"/><path fill="#FFEFDD" mask="url(#j)" d="M27.969 183.317h80.53v-32.889h-80.53z"/><path fill="#C1AB85" mask="url(#j)" d="M27.969 183.317h20.203v-32.889H27.969z"/><path fill="#DCCAA8" mask="url(#j)" d="M35.545 154.645h40.311l-27.684 1.499z"/><path fill="#FFF7CF" mask="url(#j)" d="M27.969 158.299H38.07l-10.101 1.218zM34.61 162.421l-6.641-.56-2.993 1.497h14.403zM36.293 171.324h10.008v4.123zM34.142 177.226H64.54l-16.367 1.968z"/><path fill="#DCCAA8" mask="url(#j)" d="M48.172 162.421l47.42.188-47.42 1.593zM48.172 169.918h29.742l-29.742 1.218zM48.172 167.341v1.687l17.677-1.5z"/><path fill="#FFF7CF" mask="url(#j)" d="M88.95 164.764h19.548l4.864 2.11zM80.44 178.632h21.698l-11.785 2.436z"/><path fill="#DCCAA8" mask="url(#j)" d="M108.498 173.76l-21.418 1.218 21.418.469zM78.382 157.55c.841 0 30.116-.937 30.116-.937v1.686l-30.116-.75z"/><path d="M62.669 150.428s-19.916.703-15.146 17.288l-28.34-3.373s8.98-12.369 13.469-14.056l30.017.141z" fill="#FFF5FD" mask="url(#j)"/><path fill="#FFEFDD" mask="url(#j)" d="M2.993 152.499h80.53v-32.89H2.992z"/><path fill="#E1CFAD" mask="url(#j)" d="M2.993 152.499h20.203v-32.89H2.993z"/><path fill="#DCCAA8" mask="url(#j)" d="M10.57 123.827H50.88l-27.685 1.499z"/><path fill="#FFF7CF" mask="url(#j)" d="M2.993 127.48h10.101L2.993 128.7zM9.634 131.603l-6.641-.561L0 132.54h14.404zM11.317 140.505h10.007v4.123zM9.166 146.408h30.397l-16.367 1.968z"/><path fill="#DCCAA8" mask="url(#j)" d="M23.196 131.603l47.42.187-47.42 1.594zM23.196 139.1h29.742l-29.742 1.218zM23.196 136.523v1.686l17.677-1.499z"/><path fill="#FFF7CF" mask="url(#j)" d="M63.975 133.946h19.547l4.865 2.108zM55.464 147.814h21.699l-11.785 2.436z"/><path fill="#DCCAA8" mask="url(#j)" d="M83.523 142.94l-21.419 1.22 21.419.468zM53.406 126.73c.841 0 30.117-.936 30.117-.936v1.687l-30.117-.75z"/><path fill="#FFEFDD" mask="url(#j)" d="M19.355 119.61h80.53V86.72h-80.53z"/><path fill="#C1AB85" mask="url(#j)" d="M19.354 119.61h20.203V86.72H19.354z"/><path fill="#DCCAA8" mask="url(#j)" d="M26.93 90.937h40.313l-27.686 1.5z"/><path fill="#FFF7CF" mask="url(#j)" d="M19.355 94.591h10.1l-10.1 1.219zM25.995 98.715l-6.64-.562-2.993 1.498h14.403zM27.679 107.616h10.007v4.123zM25.528 113.519h30.397l-16.368 1.968z"/><path fill="#DCCAA8" mask="url(#j)" d="M39.557 98.715l47.42.187-47.42 1.593zM39.557 106.21H69.3l-29.743 1.219zM39.557 103.634v1.686l17.678-1.499z"/><path fill="#FFF7CF" mask="url(#j)" d="M80.336 101.057h19.548l4.864 2.108zM71.825 114.924h21.7l-11.786 2.437z"/><path fill="#DCCAA8" mask="url(#j)" d="M99.884 110.052l-21.418 1.218 21.418.469zM69.768 93.842c.841 0 30.116-.937 30.116-.937v1.686l-30.116-.749z"/><path fill="#FFEFDD" mask="url(#j)" d="M63.547 62.477h80.53V29.59h-80.53z"/><path fill="#C1AB85" mask="url(#j)" d="M63.547 62.477H83.75V29.59H63.547z"/><path fill="#DCCAA8" mask="url(#j)" d="M71.124 33.805h40.312l-27.686 1.5z"/><path fill="#FFF7CF" mask="url(#j)" d="M63.548 37.46h10.1l-10.1 1.218zM70.188 41.583l-6.64-.563-2.993 1.499h14.403zM71.872 50.484h10.007v4.123zM69.72 56.387h30.398L83.75 58.355z"/><path fill="#DCCAA8" mask="url(#j)" d="M83.75 41.583l47.42.187-47.42 1.593zM83.75 49.079h29.743L83.75 50.297zM83.75 46.502v1.686l17.678-1.499z"/><path fill="#FFF7CF" mask="url(#j)" d="M124.529 43.925h19.548l4.863 2.108zM116.018 57.792h21.7l-11.786 2.437z"/><path fill="#DCCAA8" mask="url(#j)" d="M144.077 52.92l-21.419 1.218 21.419.469zM113.96 36.71c.842 0 30.117-.937 30.117-.937v1.686l-30.116-.749z"/><path fill="#F78500" mask="url(#j)" d="M30.085 67.161H257.97v-4.835H30.085z"/><path fill="#FFEFDD" mask="url(#j)" d="M240.177 183.978h80.53v-50.631h-80.53z"/><path fill="#C1AB85" mask="url(#j)" d="M300.503 183.978h20.203v-50.631h-20.203z"/><path fill="#DCCAA8" mask="url(#j)" d="M313.13 139.838h-40.312l27.685 2.308z"/><path fill="#FFF7CF" mask="url(#j)" d="M312.382 165.514h-10.008v6.347zM314.533 174.602h-30.397l16.367 3.03z"/><path fill="#DCCAA8" mask="url(#j)" d="M300.503 151.81l-47.42.29 47.42 2.452zM300.503 163.35h-29.742l29.742 1.876zM300.503 159.384v2.596l-17.677-2.308z"/><path fill="#FFF7CF" mask="url(#j)" d="M259.724 155.417h-19.547l-4.865 3.246zM268.236 176.766h-21.7l11.785 3.75z"/><path fill="#DCCAA8" mask="url(#j)" d="M240.176 169.265l21.419 1.875-21.419.721zM270.293 144.31c-.841 0-30.117-1.442-30.117-1.442v2.596l30.117-1.154z"/><path d="M286.006 133.347s19.916 1.082 15.146 26.614l28.34-5.193s-8.98-19.04-13.469-21.637l-30.017.216z" fill="#FFF5FD" mask="url(#j)"/></g></g></g></svg>