<svg width="299" height="224" viewBox="0 0 299 224" fill="none" xmlns="http://www.w3.org/2000/svg">
<g clip-path="url(#clip0_6_948)">
<path d="M0 0H299V224H0V0Z" fill="url(#paint0_linear_6_948)" style=""/>
<g clip-path="url(#clip1_6_948)">
<path d="M45.2397 176.648C45.2397 176.648 62.5278 183.387 62.4694 172.31C62.4694 172.31 62.0418 169.111 62.4746 164.745C62.9075 160.379 62.7489 153.471 54.5504 151.621C46.3519 149.771 35.2139 148.968 35.2139 148.968L29.3445 171.529C29.3445 171.529 36.1733 174.552 39.9266 181.91C43.1756 188.27 43.4316 190.594 44.2184 190.242C45.0145 189.886 47.0037 188.165 47.2035 184.151C47.4067 180.146 45.2362 176.639 45.2362 176.639L45.2397 176.648Z" fill="#F0F0F0" style="fill:#F0F0F0;fill:color(display-p3 0.9412 0.9412 0.9412);fill-opacity:1;"/>
<path d="M11.7268 169.885L28.7796 174.32L36.146 145.992L19.0931 141.557L11.7268 169.885Z" fill="#E0E0E0" style="fill:#E0E0E0;fill:color(display-p3 0.8784 0.8784 0.8784);fill-opacity:1;"/>
<path d="M85.9991 103.721C85.9991 103.721 61.4748 99.4983 64.5186 114.04C64.5186 114.04 65.9406 118.119 66.5328 123.974C67.1251 129.828 69.1915 138.858 80.4646 139.101C91.7377 139.344 106.578 137.405 106.578 137.405L108.25 106.189C108.25 106.189 98.4736 104.045 91.5683 95.3831C85.5993 87.8798 84.6434 84.8964 83.6987 85.5732C82.7539 86.2499 80.6036 89.0412 81.408 94.3701C82.2183 99.6863 86.0085 103.718 86.0085 103.718L85.9991 103.721Z" fill="#F0F0F0" style="fill:#F0F0F0;fill:color(display-p3 0.9412 0.9412 0.9412);fill-opacity:1;"/>
<path d="M131.834 103.612L108.248 102.352L106.155 141.546L129.742 142.806L131.834 103.612Z" fill="#E0E0E0" style="fill:#E0E0E0;fill:color(display-p3 0.8784 0.8784 0.8784);fill-opacity:1;"/>
</g>
<g clip-path="url(#clip2_6_948)">
<path d="M216.392 232.87C271.947 232.87 316.984 187.613 316.984 131.785C316.984 75.9577 271.947 30.7006 216.392 30.7006C160.837 30.7006 115.801 75.9577 115.801 131.785C115.801 187.613 160.837 232.87 216.392 232.87Z" fill="#3A2A79" style="fill:#3A2A79;fill:color(display-p3 0.2275 0.1647 0.4745);fill-opacity:1;"/>
<path opacity="0.76" d="M216.392 232.87C271.947 232.87 316.984 187.613 316.984 131.785C316.984 75.9577 271.947 30.7006 216.392 30.7006C160.837 30.7006 115.801 75.9577 115.801 131.785C115.801 187.613 160.837 232.87 216.392 232.87Z" fill="white" style="fill:white;fill-opacity:1;"/>
<path d="M247.869 105.043L225.214 100.04L202.9 99.2581C202.868 98.6552 179.224 99.8774 176.548 104.245C174.57 107.471 171.116 179.419 167.499 220.354C182.727 229.676 197.111 233 216.246 233C231.23 233 245.436 229.692 258.199 223.776C256.723 194.851 254.469 147.055 255.134 135.696C256.107 119.058 247.852 105.043 247.852 105.043H247.869Z" fill="#407BFF" style="fill:#407BFF;fill:color(display-p3 0.2510 0.4824 1.0000);fill-opacity:1;"/>
<path d="M177.456 142.035C176.305 143.958 161.094 187.86 139.737 185.839C120.86 184.047 98.1085 140.324 98.1085 140.324L107.19 131.166C107.19 131.166 131.823 160.564 138.812 161.851C144.65 162.927 165.067 121.812 165.067 121.812L177.456 142.035Z" fill="#FA8383" style="fill:#FA8383;fill:color(display-p3 0.9800 0.5147 0.5147);fill-opacity:1;"/>
<path d="M81.0811 128.184C81.1946 127.646 82.6865 125.967 82.6865 125.967C82.6865 125.967 82.0865 124.761 82.0541 124.159C81.973 122.447 83.5784 121.16 85.1352 120.443C84.7298 119.987 84.8109 116.19 87.9894 116.45C86.8704 114.381 89.6921 111.252 92.4327 112.621C93.6814 113.24 98.7572 117.347 100.249 118.308C100.784 115.945 101.936 113.908 103.671 111.936C104.255 111.268 106.363 110.291 107.255 110.421C108.147 110.551 107.66 111.496 107.709 112.393C107.774 113.273 106.736 115.424 106.59 116.304C105.406 123.523 106.395 127.662 107.709 133.675L98.6274 141.563C92.303 137.717 92.5624 136.69 85.265 133.627C82.6541 132.535 80.5784 130.824 81.0973 128.2L81.0811 128.184Z" fill="#FA8383" style="fill:#FA8383;fill:color(display-p3 0.9800 0.5147 0.5147);fill-opacity:1;"/>
<path d="M87.9731 116.809C88.9137 117.526 89.9029 118.194 90.957 118.765C91.93 119.302 93.0327 119.954 94.1679 120.052C95.1408 120.133 96.049 119.612 96.5193 118.765C97.0544 117.819 96.9733 116.662 96.5841 115.668C96.422 115.228 95.7084 115.424 95.8868 115.864C96.2274 116.728 96.3409 117.738 95.8057 118.536C95.2381 119.384 94.2976 119.449 93.3895 119.123C92.4813 118.797 91.6218 118.308 90.811 117.836C90.0002 117.363 89.1407 116.776 88.3461 116.173C87.9731 115.88 87.6164 116.516 87.9731 116.809Z" fill="#D12E2A" style="fill:#D12E2A;fill:color(display-p3 0.8206 0.1815 0.1655);fill-opacity:1;"/>
<path d="M92.8219 120.101C93.4868 120.671 93.7625 121.649 93.3246 122.447C92.8868 123.246 91.9624 123.572 91.0705 123.344C90.0813 123.099 89.1408 122.545 88.2326 122.073C87.2921 121.584 86.3677 121.046 85.4596 120.476C85.0542 120.231 84.6974 120.85 85.0866 121.111C86.2218 121.828 87.3731 122.48 88.5732 123.083C89.6435 123.604 90.8435 124.321 92.076 124.126C93.0327 123.979 93.8436 123.262 94.1355 122.35C94.4598 121.356 94.0868 120.247 93.3084 119.579C92.9517 119.27 92.4327 119.791 92.7895 120.101H92.8219Z" fill="#D12E2A" style="fill:#D12E2A;fill:color(display-p3 0.8206 0.1815 0.1655);fill-opacity:1;"/>
<path d="M90.5191 124.305C91.2165 124.794 91.5732 125.723 91.33 126.554C91.0543 127.483 90.1786 128.053 89.238 128.021C88.2002 127.988 87.1623 127.45 86.2055 127.092C85.1352 126.684 84.0812 126.277 83.0109 125.87C82.573 125.707 82.3784 126.407 82.8163 126.57C84.1785 127.092 85.5406 127.613 86.9191 128.151C88.038 128.575 89.2705 129.047 90.4381 128.542C92.4814 127.678 92.6597 124.908 90.8921 123.67C90.5029 123.393 90.1462 124.028 90.5191 124.305Z" fill="#D12E2A" style="fill:#D12E2A;fill:color(display-p3 0.8206 0.1815 0.1655);fill-opacity:1;"/>
<path d="M88.6056 128.624C89.0597 128.982 89.238 129.536 89.1732 130.107C89.0921 130.71 88.7029 131.198 88.184 131.492C86.8542 132.274 85.2812 131.736 84.0487 131.035C83.6433 130.807 83.2703 131.443 83.6757 131.671C85.2001 132.518 87.1785 133.089 88.7353 131.997C89.384 131.541 89.8056 130.889 89.8867 130.09C89.9678 129.357 89.7083 128.558 89.1083 128.086C88.9461 127.956 88.7515 127.939 88.5894 128.086C88.4596 128.216 88.4272 128.477 88.5894 128.607L88.6056 128.624Z" fill="#D12E2A" style="fill:#D12E2A;fill:color(display-p3 0.8206 0.1815 0.1655);fill-opacity:1;"/>
<path d="M99.6166 119.596C95.903 122.904 94.9625 128.379 97.2977 132.779C97.5247 133.203 98.1571 132.828 97.9301 132.404C95.7409 128.281 96.6652 123.213 100.136 120.117C100.492 119.807 99.9734 119.286 99.6166 119.596Z" fill="#D12E2A" style="fill:#D12E2A;fill:color(display-p3 0.8206 0.1815 0.1655);fill-opacity:1;"/>
<path d="M199.008 114.837C195.311 127.059 178.608 161.868 178.608 161.868L147.115 144.056C147.115 144.056 160.121 117.738 170.013 107.83C185.175 95.7382 203.776 99.0789 199.024 114.837H199.008Z" fill="#407BFF" style="fill:#407BFF;fill:color(display-p3 0.2510 0.4824 1.0000);fill-opacity:1;"/>
<path opacity="0.2" d="M169.867 156.914L173.126 130.139L160.121 151.406L169.867 156.914Z" fill="#3565CE" style="fill:#3565CE;fill:color(display-p3 0.2093 0.3952 0.8093);fill-opacity:1;"/>
<path d="M203.565 79.5236L227.76 66.5845C227.582 68.3282 227.517 71.6689 226.106 73.5266C213.717 89.7901 223.317 99.9752 223.317 99.9752C216.782 104.815 202.251 107.08 199.381 99.4537C201.424 95.396 203.76 85.0154 203.565 79.5236Z" fill="#FA8383" style="fill:#FA8383;fill:color(display-p3 0.9800 0.5147 0.5147);fill-opacity:1;"/>
<path opacity="0.2" d="M202.657 87.1828L216.246 85.0154C214.754 89.122 210.749 93.8478 201.408 93.636C201.408 93.636 202.641 89.0079 202.657 87.1665V87.1828Z" fill="#3565CE" style="fill:#3565CE;fill:color(display-p3 0.2093 0.3952 0.8093);fill-opacity:1;"/>
<path d="M188.289 36.8605C185.208 42.0915 185.759 55.5847 194.484 53.6617C203.224 51.7388 193.592 27.8651 188.289 36.8605Z" fill="#3A2A79" style="fill:#3A2A79;fill:color(display-p3 0.2275 0.1647 0.4745);fill-opacity:1;"/>
<path d="M228.668 55.2425C226.138 69.9578 225.02 78.3177 216.733 85.0317C181.04 107.211 174.067 40.5108 203.062 31.6783C217.933 27.5717 231.198 40.5108 228.668 55.2425Z" fill="#FA8383" style="fill:#FA8383;fill:color(display-p3 0.9800 0.5147 0.5147);fill-opacity:1;"/>
<path d="M238.252 39.1419C238.252 39.1419 224.922 37.2679 222.684 37.0886C220.446 36.9094 218.16 44.9433 218.484 47.5507C218.809 50.1581 222.311 51.2988 222.214 53.7921C222.101 55.9106 218.565 62.1031 219.83 64.9712C221.274 66.1119 229.187 61.3535 229.187 61.3535L233.825 63.0646C233.825 63.0646 247.123 45.1552 238.252 39.1419Z" fill="#3A2A79" style="fill:#3A2A79;fill:color(display-p3 0.2275 0.1647 0.4745);fill-opacity:1;"/>
<path d="M238.009 40.299C239.404 39.0442 240.912 36.8605 239.258 32.7865C239.258 33.8946 237.863 35.2146 237.004 35.6709C236.144 32.3139 231.798 26.5288 219.571 23.791C204.522 20.4341 200.581 25.5347 196.203 23.2696C191.808 21.0044 197.305 19.2444 197.305 19.2444C197.305 19.2444 189.716 17.4845 187.267 23.237C184.819 29.0058 186.927 39.1256 200.354 38.4901C213.765 37.8546 216.392 42.2382 223.155 41.1627C228.084 40.5434 233.063 40.2664 238.025 40.299H238.009Z" fill="#3A2A79" style="fill:#3A2A79;fill:color(display-p3 0.2275 0.1647 0.4745);fill-opacity:1;"/>
<path d="M233.144 67.9697C230.549 75.7103 217.138 79.931 218.841 68.3608C219.83 57.1002 236.485 54.3299 233.144 67.9697Z" fill="#FA8383" style="fill:#FA8383;fill:color(display-p3 0.9800 0.5147 0.5147);fill-opacity:1;"/>
<path d="M206.857 56.8395C206.857 60.4409 203.192 60.3431 203.257 56.7743C203.257 53.1729 206.922 53.2706 206.857 56.8395Z" fill="#3A2A79" style="fill:#3A2A79;fill:color(display-p3 0.2275 0.1647 0.4745);fill-opacity:1;"/>
<path d="M192.635 57.5565C192.635 61.1579 188.97 61.0602 189.035 57.4913C189.035 53.8899 192.7 53.9877 192.635 57.5565Z" fill="#3A2A79" style="fill:#3A2A79;fill:color(display-p3 0.2275 0.1647 0.4745);fill-opacity:1;"/>
<path d="M211.56 50.4514C211.317 50.5166 211.057 50.4514 210.862 50.2722C208.576 48.0396 206.014 48.5774 205.997 48.5774C202.884 47.1922 208.641 45.807 211.852 49.2618C212.241 49.6203 212.063 50.321 211.56 50.4514Z" fill="#3A2A79" style="fill:#3A2A79;fill:color(display-p3 0.2275 0.1647 0.4745);fill-opacity:1;"/>
<path opacity="0.2" d="M230.225 63.7653C227.776 60.3268 223.43 64.4009 223.009 67.4645" stroke="#3565CE" style="stroke:#3565CE;stroke:color(display-p3 0.2093 0.3952 0.8093);stroke-opacity:1;" stroke-width="0.5" stroke-linecap="round" stroke-linejoin="round"/>
<path d="M186.424 48.7403C185.905 48.5774 185.759 47.8277 186.197 47.5018C189.278 45.0574 192.359 46.1167 192.505 46.1492C193.365 46.4263 192.927 47.8114 192.067 47.5018C191.597 46.964 188.873 47.4855 186.424 48.7403Z" fill="#3A2A79" style="fill:#3A2A79;fill:color(display-p3 0.2275 0.1647 0.4745);fill-opacity:1;"/>
<path d="M197.305 72.1904C198.651 73.8363 199.868 75.5799 200.954 77.4214C201.295 77.291 201.651 77.1607 201.992 76.9977C206.695 75.0585 208.235 72.6141 208.511 70.4793C208.625 69.4363 208.495 68.3771 208.122 67.383C207.927 66.829 207.652 66.2912 207.311 65.8023C205.43 68.3282 201.197 70.463 198.895 71.5059C197.873 71.9133 197.305 72.1904 197.305 72.1904Z" fill="#3A2A79" style="fill:#3A2A79;fill:color(display-p3 0.2275 0.1647 0.4745);fill-opacity:1;"/>
<path d="M198.895 71.4733L200.014 72.9889C204.424 71.1637 207.279 69.2897 208.122 67.3504C207.927 66.7964 207.652 66.2586 207.311 65.7697C205.414 68.3119 201.197 70.4304 198.895 71.4733Z" fill="white" style="fill:white;fill-opacity:1;"/>
<path d="M201.943 77.0303C206.646 75.0911 208.187 72.6467 208.462 70.5119C206.695 71.2778 205.073 72.3533 203.678 73.6896C202.77 74.6022 202.17 75.7592 201.96 77.0303H201.943Z" fill="#BC0100" style="fill:#BC0100;fill:color(display-p3 0.7382 0.0050 0.0012);fill-opacity:1;"/>
<path d="M170.418 155.871C171.894 145.62 173.386 135.354 174.862 125.104C174.975 124.338 173.808 123.996 173.694 124.778C172.218 135.028 170.726 145.295 169.251 155.545C169.137 156.311 170.305 156.653 170.418 155.871Z" fill="#3565CE" style="fill:#3565CE;fill:color(display-p3 0.2093 0.3952 0.8093);fill-opacity:1;"/>
<path d="M278.68 202.575C277.626 190.565 270.685 150.411 265.48 131.133C264.101 126 259.626 121.796 253.95 120.867C251.793 120.525 249.555 120.671 247.593 121.844C241.042 125.756 239.858 138.662 242.874 149.629C246.344 162.226 253.447 181.504 256.982 198.648C257.274 200.082 257.518 211.294 257.712 224.07C265.042 220.892 271.95 216.443 278.372 211.457C278.745 207.415 278.859 204.531 278.696 202.592L278.68 202.575Z" fill="#FA8383" style="fill:#FA8383;fill:color(display-p3 0.9800 0.5147 0.5147);fill-opacity:1;"/>
<path d="M265.204 120.899C271.221 136.267 277.805 160.499 277.805 160.499L243.669 168.272C239.76 156.164 234.895 142.948 236.047 130.27C237.831 113.028 239.485 102.354 250.009 105.516C255.345 107.113 261.653 111.839 265.204 120.899Z" fill="#407BFF" style="fill:#407BFF;fill:color(display-p3 0.2510 0.4824 1.0000);fill-opacity:1;"/>
<path d="M277.642 159.912C266.858 162.503 256.074 165.094 245.29 167.685L246.036 168.109C243.782 157.549 241.512 147.006 239.258 136.446C239.096 135.68 237.928 136.006 238.09 136.772C240.344 147.332 242.615 157.875 244.869 168.435C244.934 168.761 245.306 168.94 245.615 168.859C256.399 166.268 267.183 163.677 277.967 161.085C278.729 160.906 278.405 159.717 277.642 159.912Z" fill="#3565CE" style="fill:#3565CE;fill:color(display-p3 0.2093 0.3952 0.8093);fill-opacity:1;"/>
<path d="M197.385 69.9174L192 68.2527L195.007 58.5247C195.06 58.3525 195.364 58.2578 195.615 58.3352C195.865 58.4127 196.062 58.6623 196.009 58.8344L193.241 67.7876L197.625 69.1426C197.875 69.2201 198.073 69.4697 198.019 69.6418C197.966 69.814 197.663 69.9088 197.412 69.8313L197.385 69.9174Z" fill="#3A2A79" style="fill:#3A2A79;fill:color(display-p3 0.2275 0.1647 0.4745);fill-opacity:1;"/>
</g>
<g clip-path="url(#clip3_6_948)">
<path d="M143.52 27H17.77C14.5833 27 12 29.5833 12 32.77V63.6C12 66.7867 14.5833 69.37 17.77 69.37H143.52C146.707 69.37 149.29 66.7867 149.29 63.6V32.77C149.29 29.5833 146.707 27 143.52 27Z" fill="#407BFF" style="fill:#407BFF;fill:color(display-p3 0.2510 0.4824 1.0000);fill-opacity:1;"/>
<path d="M143.52 27H17.77C14.5833 27 12 29.5833 12 32.77V63.6C12 66.7867 14.5833 69.37 17.77 69.37H143.52C146.707 69.37 149.29 66.7867 149.29 63.6V32.77C149.29 29.5833 146.707 27 143.52 27Z" fill="#8B81B3" style="fill:#8B81B3;fill:color(display-p3 0.5445 0.5045 0.7019);fill-opacity:1;"/>
<path opacity="0.6" d="M143.52 27H17.77C14.5833 27 12 29.5833 12 32.77V63.6C12 66.7867 14.5833 69.37 17.77 69.37H143.52C146.707 69.37 149.29 66.7867 149.29 63.6V32.77C149.29 29.5833 146.707 27 143.52 27Z" fill="white" style="fill:white;fill-opacity:1;"/>
<path d="M35.79 36.46L38.59 42.13C38.83 42.62 39.3 42.96 39.84 43.04L46.09 43.95C47.45 44.15 48 45.83 47.01 46.79L42.48 51.2C42.09 51.58 41.91 52.13 42 52.67L43.07 58.9C43.3 60.26 41.88 61.3 40.66 60.65L35.07 57.71C34.59 57.46 34.01 57.46 33.52 57.71L27.93 60.65C26.71 61.29 25.28 60.26 25.52 58.9L26.59 52.67C26.68 52.13 26.5 51.58 26.11 51.2L21.58 46.79C20.59 45.83 21.14 44.15 22.5 43.95L28.75 43.04C29.29 42.96 29.76 42.62 30 42.13L32.8 36.46C33.41 35.22 35.17 35.22 35.78 36.46H35.79Z" fill="#407BFF" style="fill:#407BFF;fill:color(display-p3 0.2510 0.4824 1.0000);fill-opacity:1;"/>
<path d="M67.41 36.46L70.21 42.13C70.45 42.62 70.92 42.96 71.46 43.04L77.71 43.95C79.07 44.15 79.62 45.83 78.63 46.79L74.1 51.2C73.71 51.58 73.53 52.13 73.62 52.67L74.69 58.9C74.92 60.26 73.5 61.3 72.28 60.65L66.69 57.71C66.21 57.46 65.63 57.46 65.14 57.71L59.55 60.65C58.33 61.29 56.9 60.26 57.14 58.9L58.21 52.67C58.3 52.13 58.12 51.58 57.73 51.2L53.2 46.79C52.21 45.83 52.76 44.15 54.12 43.95L60.37 43.04C60.91 42.96 61.38 42.62 61.62 42.13L64.42 36.46C65.03 35.22 66.79 35.22 67.4 36.46H67.41Z" fill="#407BFF" style="fill:#407BFF;fill:color(display-p3 0.2510 0.4824 1.0000);fill-opacity:1;"/>
<path d="M99.03 36.46L101.83 42.13C102.07 42.62 102.54 42.96 103.08 43.04L109.33 43.95C110.69 44.15 111.24 45.83 110.25 46.79L105.72 51.2C105.33 51.58 105.15 52.13 105.24 52.67L106.31 58.9C106.54 60.26 105.12 61.3 103.9 60.65L98.31 57.71C97.83 57.46 97.25 57.46 96.76 57.71L91.17 60.65C89.95 61.29 88.52 60.26 88.76 58.9L89.83 52.67C89.92 52.13 89.74 51.58 89.35 51.2L84.82 46.79C83.83 45.83 84.38 44.15 85.74 43.95L91.99 43.04C92.53 42.96 93 42.62 93.24 42.13L96.04 36.46C96.65 35.22 98.41 35.22 99.02 36.46H99.03Z" fill="#407BFF" style="fill:#407BFF;fill:color(display-p3 0.2510 0.4824 1.0000);fill-opacity:1;"/>
<path d="M130.65 36.46L133.45 42.13C133.69 42.62 134.16 42.96 134.7 43.04L140.95 43.95C142.31 44.15 142.86 45.83 141.87 46.79L137.34 51.2C136.95 51.58 136.77 52.13 136.86 52.67L137.93 58.9C138.16 60.26 136.74 61.3 135.52 60.65L129.93 57.71C129.45 57.46 128.87 57.46 128.38 57.71L122.79 60.65C121.57 61.29 120.14 60.26 120.38 58.9L121.45 52.67C121.54 52.13 121.36 51.58 120.97 51.2L116.44 46.79C115.45 45.83 116 44.15 117.36 43.95L123.61 43.04C124.15 42.96 124.62 42.62 124.86 42.13L127.66 36.46C128.27 35.22 130.03 35.22 130.64 36.46H130.65Z" fill="#407BFF" style="fill:#407BFF;fill:color(display-p3 0.2510 0.4824 1.0000);fill-opacity:1;"/>
</g>
</g>
<defs>
<linearGradient id="paint0_linear_6_948" x1="7151.18" y1="15377.6" x2="21666.3" y2="2572.25" gradientUnits="userSpaceOnUse">
<stop stop-color="#EEEEEE" style="stop-color:#EEEEEE;stop-color:color(display-p3 0.9333 0.9333 0.9333);stop-opacity:1;"/>
<stop offset="1" stop-color="#D8D8D8" style="stop-color:#D8D8D8;stop-color:color(display-p3 0.8471 0.8471 0.8471);stop-opacity:1;"/>
</linearGradient>
<clipPath id="clip0_6_948">
<rect width="299" height="224" fill="white" style="fill:white;fill-opacity:1;"/>
</clipPath>
<clipPath id="clip1_6_948">
<rect width="135.96" height="84.69" fill="white" style="fill:white;fill-opacity:1;" transform="translate(-7 118.821) rotate(-20.1437)"/>
</clipPath>
<clipPath id="clip2_6_948">
<rect width="236" height="214" fill="white" style="fill:white;fill-opacity:1;" transform="translate(81 19)"/>
</clipPath>
<clipPath id="clip3_6_948">
<rect width="137.29" height="42.37" fill="white" style="fill:white;fill-opacity:1;" transform="translate(12 27)"/>
</clipPath>
</defs>
</svg>
