<svg width="299" height="224" xmlns="http://www.w3.org/2000/svg" xmlns:xlink="http://www.w3.org/1999/xlink"><defs><path id="k" d="M.8.296h32.156v11.37H.8z"/><path id="u" d="M0 .63h32.5V12H0z"/><path d="M.444 18.95c0 10.276 8.33 18.606 18.606 18.606 10.275 0 18.605-8.33 18.605-18.606C37.655 8.674 29.325.345 19.05.345 8.774.345.444 8.675.444 18.95" id="d"/><path id="s" d="M.655.296h16.29v11.37H.654z"/><path id="g" d="M0 .038h49.962V50H0z"/><path d="M.444 18.95c0 10.276 8.33 18.606 18.606 18.606 10.275 0 18.605-8.33 18.605-18.606C37.655 8.674 29.325.345 19.05.345 8.774.345.444 8.675.444 18.95" id="i"/><path id="b" d="M0 .038h49.962V50H0z"/><path id="m" d="M.655.296h16.29v11.37H.654z"/><path id="o" d="M0 .63h32.5V12H0z"/><path id="q" d="M.8.296h32.156v11.37H.8z"/><linearGradient x1="39.805%" y1="27.189%" x2="89.215%" y2="137.733%" id="e"><stop stop-color="#FFF" offset="0%"/><stop stop-color="#CFCFCF" offset="100%"/></linearGradient><linearGradient x1="23.917%" y1="68.65%" x2="84%" y2="28.94%" id="a"><stop stop-color="#EEE" offset="0%"/><stop stop-color="#D8D8D8" offset="100%"/></linearGradient></defs><g fill="none" fill-rule="evenodd"><path fill="url(#a)" d="M0 0h299v224H0z"/><g transform="translate(67 29)"><mask id="c" fill="#fff"><use xlink:href="#b"/></mask><path d="M49.962 25.019C49.962 38.815 38.777 50 24.98 50 11.184 50 0 38.815 0 25.019 0 11.223 11.184.038 24.98.038c13.797 0 24.982 11.185 24.982 24.98" fill="#B0B0D9" mask="url(#c)"/></g><g transform="translate(73 35)"><mask id="f" fill="#fff"><use xlink:href="#d"/></mask><path d="M.444 18.95c0 10.276 8.33 18.606 18.606 18.606 10.275 0 18.605-8.33 18.605-18.606C37.655 8.674 29.325.345 19.05.345 8.774.345.444 8.675.444 18.95" fill="url(#e)" mask="url(#f)"/></g><path d="M105.457 60a.55.55 0 01-.213-.043L91 54.016V40.532c0-.294.243-.532.543-.532.3 0 .542.238.542.532v12.781l13.585 5.666a.527.527 0 01.286.698.542.542 0 01-.5.323" fill="#7A7AB5"/><path d="M228.73 53h-88.46c-1.806 0-3.27-1.549-3.27-3.458v-5.084c0-1.91 1.464-3.458 3.27-3.458h88.46c1.806 0 3.27 1.549 3.27 3.458v5.084c0 1.91-1.464 3.458-3.27 3.458M212.236 72h-72.472c-1.527 0-2.764-1.32-2.764-2.948v-6.104c0-1.628 1.237-2.948 2.764-2.948h72.472c1.527 0 2.764 1.32 2.764 2.948v6.104c0 1.628-1.237 2.948-2.764 2.948" fill="#8D8DBD"/><g><g transform="translate(67 93)"><mask id="h" fill="#fff"><use xlink:href="#g"/></mask><path d="M49.962 25.019C49.962 38.815 38.777 50 24.98 50 11.184 50 0 38.815 0 25.019 0 11.223 11.184.038 24.98.038c13.797 0 24.982 11.185 24.982 24.98" fill="#B0B0D9" mask="url(#h)"/></g><g transform="translate(73 99)"><mask id="j" fill="#fff"><use xlink:href="#i"/></mask><path d="M.444 18.95c0 10.276 8.33 18.606 18.606 18.606 10.275 0 18.605-8.33 18.605-18.606C37.655 8.674 29.325.345 19.05.345 8.774.345.444 8.675.444 18.95" fill="url(#e)" mask="url(#j)"/></g><path d="M105.457 124a.55.55 0 01-.213-.043L91 118.016v-13.484c0-.294.243-.532.543-.532.3 0 .542.238.542.532v12.781l13.585 5.666a.527.527 0 01.286.698.542.542 0 01-.5.323" fill="#7A7AB5"/><path d="M228.73 117h-88.46c-1.806 0-3.27-1.549-3.27-3.458v-5.084c0-1.91 1.464-3.458 3.27-3.458h88.46c1.806 0 3.27 1.549 3.27 3.458v5.084c0 1.91-1.464 3.458-3.27 3.458M212.236 136h-72.472c-1.527 0-2.764-1.32-2.764-2.948v-6.104c0-1.628 1.237-2.948 2.764-2.948h72.472c1.527 0 2.764 1.32 2.764 2.948v6.104c0 1.628-1.237 2.948-2.764 2.948" fill="#8D8DBD"/></g><g><g transform="translate(96 125)"><mask id="l" fill="#fff"><use xlink:href="#k"/></mask><path d="M32.957 5.979c0 3.141-2.426 5.687-5.416 5.687H6.214c-2.99 0-5.415-2.546-5.415-5.687C.8 2.839 3.224.296 6.214.296H27.54c2.99 0 5.416 2.543 5.416 5.683" fill="#FFF" mask="url(#l)"/></g><g transform="translate(112 125)"><mask id="n" fill="#fff"><use xlink:href="#m"/></mask><path d="M16.945 5.979c0-3.14-2.47-5.683-5.515-5.683H.655v11.37H11.43c3.044 0 5.515-2.546 5.515-5.687" fill="#A338C6" mask="url(#n)"/></g><path d="M102.359 136H113v-5H97c.022 2.767 2.407 5 5.359 5" fill="#CDE3E8"/><path d="M123.586 136c2.975 0 5.392-2.233 5.414-5h-16v5h10.586z" fill="#5D3FAA"/><g transform="translate(83 134)"><mask id="p" fill="#fff"><use xlink:href="#o"/></mask><path d="M32.5 6.314c0 3.14-2.452 5.685-5.47 5.685H5.472C2.45 12 0 9.454 0 6.314 0 3.173 2.45.63 5.47.63h21.56c3.017 0 5.47 2.544 5.47 5.685" fill="#FFF" mask="url(#p)"/></g><path d="M115 140.5c0-3.04-2.427-5.5-5.412-5.5H99v11h10.588c2.985 0 5.412-2.463 5.412-5.5" fill="#757AD8"/><path d="M88.359 145H99v-5H83c.018 2.764 2.407 5 5.359 5" fill="#CDE3E8"/><path d="M109.59 145c2.978 0 5.392-2.236 5.41-5H99v5h10.59z" fill="#5D3FAA"/><g><g transform="translate(96 61)"><mask id="r" fill="#fff"><use xlink:href="#q"/></mask><path d="M32.957 5.979c0 3.141-2.426 5.687-5.416 5.687H6.214c-2.99 0-5.415-2.546-5.415-5.687C.8 2.839 3.224.296 6.214.296H27.54c2.99 0 5.416 2.543 5.416 5.683" fill="#FFF" mask="url(#r)"/></g><g transform="translate(112 61)"><mask id="t" fill="#fff"><use xlink:href="#s"/></mask><path d="M16.945 5.979c0-3.14-2.47-5.683-5.515-5.683H.655v11.37H11.43c3.044 0 5.515-2.546 5.515-5.687" fill="#A338C6" mask="url(#t)"/></g><path d="M102.359 72H113v-5H97c.022 2.767 2.407 5 5.359 5" fill="#CDE3E8"/><path d="M123.586 72c2.975 0 5.392-2.233 5.414-5h-16v5h10.586z" fill="#5D3FAA"/><g transform="translate(83 70)"><mask id="v" fill="#fff"><use xlink:href="#u"/></mask><path d="M32.5 6.314c0 3.14-2.452 5.685-5.47 5.685H5.472C2.45 12 0 9.454 0 6.314 0 3.173 2.45.63 5.47.63h21.56c3.017 0 5.47 2.544 5.47 5.685" fill="#FFF" mask="url(#v)"/></g><path d="M115 76.5c0-3.04-2.427-5.5-5.412-5.5H99v11h10.588c2.985 0 5.412-2.463 5.412-5.5" fill="#757AD8"/><path d="M88.359 81H99v-5H83c.018 2.764 2.407 5 5.359 5" fill="#CDE3E8"/><path d="M109.59 81c2.978 0 5.392-2.236 5.41-5H99v5h10.59z" fill="#5D3FAA"/></g></g></g></svg>