<svg width="299" height="224" xmlns="http://www.w3.org/2000/svg" xmlns:xlink="http://www.w3.org/1999/xlink"><defs><path id="a" d="M0 0h299v224H0z"/><path d="M48.89 16.556c3.53 7.08 4.483 33.396 4.58 36.383-.206.237-.015-2.516-.705 40.864-.17.511-.166 1.222-.033 2.08-.023 1.455.073-.363-.778 6.445a160.367 160.367 0 01-1.359-4.422s-.466.514-1.128 1.362c-.371-2.264-1.167-4.019-2.509-4.553 0 0-.655.69-1.619 1.638-.209-7.263-.962-33.975-3.484-40.713.874-.015 2.032-.283 3.571-1.03 5.094-2.473-.934-20.349-1.736-16.873-.8 3.476-5.55 9.227-6.166 7.866-.616-1.362 4.71-6.716 4.393-10.99-.316-4.276-5.804-6.816-5.804-6.816s-1.443 14.596-2.829 13.885c-1.385-.712 2.989-14.848 2.595-17.98-.393-3.13-6.699-6.158-6.699-6.158s.75 22.555-.815 22.67c-1.564.116.347-21.446-1.471-23.775-1.819-2.328-6.892-2.633-6.892-2.633s3.665 21.474 2.15 21.323c-1.515-.15-1.99-18.52-3.324-20.53-1.334-2.01-5.657 1.417-6.494 1.823-.838.407 3.256 12.758 2.897 14.317-.36 1.559-3.608-12.311-4.018-13.219-.41-.908-1.7-1.5-2.894.188-1.194 1.687-6.13 5.08-6.13 5.08.493 1.089-.262 7.324-.521 8.446-.258 1.122 6.72 1.499 7.254 2.68.292.648-1.722.279-3.795-.09-1.701-.303-3.442-.605-3.976-.345-1.187.575-.92 3.99.147 6.35.618 1.369 5.506 1.187 9.598 1.005 2.965-.132 5.513-.264 5.72.194.494 1.09-14.12 2.205-14.35 3.202-.228.998-.123 3.493 2.336 7.614 1.393 2.334 6.185.353 10.423-1.628 3.243-1.516 6.161-3.032 6.978-2.613C23.887 48.57 7 54.888 6.581 55.09c-.42.203 3.16 5.108 5.488 6.304 1.182.607 4.91-1.65 8.51-3.906 3.49-2.188 6.862-4.375 7.68-3.955 1.662.854-11.942 8.788-13.407 9.5-1.466.71-.826 2.504 6.136 5.103 1.92.717 3.462.261 4.71-.76 5.858 6.186 14.192.783 15.805-3.725.806 6.864 1.344 16.485 1.693 27.286-1.494-2.648-4.546-5.634-6.02-4.109-1.992 2.066-4.075 10.983-6.34 8.637-2.263-2.347 5.616-8.448 4.71-12.015-.905-3.567-3.967-6.64-5.12-5.444-1.153 1.195-.857 13.328-2.306 11.827-1.45-1.503 2.15-13.589 1.086-14.691-1.063-1.103-6.46-6.335-8.452-4.27-1.993 2.065 2.354 13.203 1.207 12.014-1.147-1.188-3.985-13.641-5.556-15.268-.792-.821-1.817-.708-2.831-.594-.995.111-1.98.223-2.723-.549 0 0-.302 3.458-1.087 4.272-.785.813 7.608 8.135 6.521 8.135-1.087 0-7.97-6.633-7.97-6.633s.544 7.07 2.053 8.635c1.51 1.565 9.54 2.88 9.54 4.255 0 1.377-10.385-1.752-10.385-1.752s2.052 8.136 5.675 9.136c3.623 1.002 9.299.25 9.299 1.627s-7.125.5-7.125.5 1.69 10.013 6.4 10.013c4.71 0 5.247-.875 5.247.876 0 .766-.702.624-1.492.482-1.019-.183-2.185-.366-2.185 1.396 0 3.128 3.416 9.404 5.193 7.562.953-.987 1.594-2.423 1.985-3.545 2.475 9.609 5.51 23.585 7.559 40.4h-8.82c-16.267 5.606-15.597 16.905 1.395 22.085h32.58c16.99-5.179 17.668-16.477 1.396-22.084H55.833c.306-6.337.921-12.656 2.004-17.896.156 1.248.537 2.776 1.318 4.64 2.778 6.634 14.612 3.756 14.612 3.756-7.246 0-9.298-12.641-7.124-13.642 2.173-1.002.966 10.513 8.09 12.265 7.125 1.752 9.3-4.13 9.3-4.13-5.556-1.126-15.517-10.574-13.644-12.516 1.873-1.94 11.107 11.265 14.85 11.265 3.744 0 7.85-10.264 7.85-10.264-4.589 2.754-19.563-4.505-20.958-7.008-.742-1.33 3.485.627 8.496 2.584 4.42 1.725 9.448 3.45 12.22 2.923 5.918-1.127 5.556-11.89 5.556-11.89-1.872 1.94-18.115.125-19.805-1.627-.846-.875 3.17-.657 7.818-.438 4.65.22 9.933.438 11.624-.438 3.382-1.752 2.295-10.713 2.295-10.713s-12.318 2.703-15.458 1.827c-3.14-.876 12.922-2.502 14.37-6.257 1.45-3.755-2.129-12.465-2.129-12.465-1.66 1.72-6.882.295-9.055.04 5.914-2.935 12.82-6.319 15.786-7.6 4.97-2.147 18.413-2.766 24.764-.797 1.386.554 2.213.985 2.213.985s-2.679-4.367-6.979-8.823c-.926-.961-1.626-1.753-2.206-2.392-2.181 2.246-5.008 4.812-5.615 3.715-.679-1.23 1.032-4.16 2.242-5.97-.805-.072-1.842.054-3.382.329a12.81 12.81 0 01-.673.103c-2.026 3.206-6.043 9.189-7.535 8.738-1.604-.483 1.262-6.561 2.544-9.106-1.717-.507-2.799-1.237-3.393-1.237-.548 0-2.68 7.71-3.555 10.003-1.812.684-5.759 2.52-2.168-6.946-1.221-1.306-3.865.54-5.689 1.26-1.753.693-2.241 6.762-3.303 9.84-1.226.685-2.658 1.136-3.996 2.107-.018-2.804 3.134-12.134 3.134-12.134S79.02 67.68 79.02 69.747c0 2.065 7.427 5.631 4.166 5.631-3.26 0-6.883-5.444-6.883-5.444s-5.843 3.192-4.733 6.758c1.11 3.568-2.499 4.853-3.686 6.084-.003.002-.003.006-.005.008-2.752 1.012-6.252 3.05-7.757 4.61-2.537 2.627 4.648 18.083 2.777 20.024-1.872 1.94-5.676-15.019-5.676-16.645 0-.938-.81-1.016-1.86-.267 3.042-17.44 7.757-32.511 15.102-40.151 2.835-3.057 6.099-4.804 9.116-6.678-.542.907-1.014 2.52-1.014 5.42 0 6.852 17.017 9.115 14.492 6.498-2.525-2.617-5.344-10.722-3.986-10.722 1.36 0 3.624 8.54 7.246 10.325 3.623 1.783 7.88-3.004 7.88-3.004s-11.367-8.87-10.234-10.044c1.132-1.173 10.959 10.7 13.675 11.828 2.718 1.125 7.7-4.318 7.7-4.318S96.59 39.24 97.117 37.457c.273-.92 4.908 2.065 9.688 5.05 4.474 2.796 9.074 5.59 10.344 5.181 2.628-.844 4.891-6.289 4.891-6.289s-19.02-6.664-18.295-8.26c.384-.844 4.824 1.176 9.243 3.196 3.932 1.798 7.848 3.596 8.871 3.375 2.175-.47 1.087-6.947 1.087-8.072 0-1.127-11.729-2.77-12.86-3.943-1.133-1.173 11.501 2.159 12.407 2.159.906 0 1.902-1.127.996-3.285-.905-2.16-1.72-9.293-1.72-9.293-1.087 0-5.887-3.942-6.702-4.787-.815-.845-3.895 6.664-5.072 6.664-1.178 0 3.442-6.758 3.442-8.354 0-1.595-2.899-3.003-5.254-3.003-2.355 0-5.977 16.298-7.064 16.298-1.087 0 3.804-16.674 3.078-17.425-.723-.751-2.806-1.877-7.154-1.22-4.347.657-1.902 19.712-3.442 21.307-1.539 1.596 0-20.18 0-20.744 0-.563-5.434.939-7.336 2.91-1.902 1.971 1.358 20.369 0 21.777-1.358 1.408-2.446-17.553-2.446-19.524s-1.72-2.16-6.61 4.224c-1.35 1.761-1.59 3.69-1.25 5.578-7.702 3.523-6.166 16.304-2.827 19.765 1.696 1.758 3.737 2.192 5.343 2.193-7.374 4.506-11.885 7.572-16.906 19.487-.004-4.033-.433-12.774-2.536-14.953-2.113-2.19 2.536-1.001 2.536-3.254 0-2.252-.24-10.888-1.207-11.89-.467-.483-1.3 1.107-2.213 2.696-.977 1.701-2.048 3.402-2.86 2.561-1.57-1.627 4.469-6.508 4.469-7.134 0-.626-3.502-12.39-4.347-12.39-.846 0-.242 5.131-2.657 6.383-2.415 1.251 1.328-7.259 1.328-9.887s-2.475-3.191-5.313-6.133C45.932 5.481 42.732.286 42.732.286s2.415 8.761 6.159 16.27m27.866 8.417c.075-.442.093-.836.09-1.208 1.683 3.8 4.798 6.936 4.347 7.403a.334.334 0 01-.251.096c-1.161 0-4.603-3.877-4.186-6.29M53.855 53.484c1.393 1.567.518 9.553 2.644 11.756 1.23 1.275 2.595 1.533 3.601.89-3.162 8.42-4.956 15.91-6.33 23.836.154-18.24.224-33.177.085-36.482M30.907 58.45c.942.484-.436 6.191-2.595 6.685a4.168 4.168 0 00-.94.345c2.062-3.059 2.983-7.313 3.535-7.03m53.366 25.292c.796-.398 1.636-.817 2.513-1.253-1.252 2.192-2.19 9.134-4.324 9.661a.842.842 0 01-.2.027c-1.535 0 .76-5.611 2.011-8.435m-12.63 1.226c.705.237 1.442.467 2.16.681-.017 5.31 1.84 14.761-1.002 14.761-3.14 0-1.494-10.504-1.158-15.442m-34.647 16.881c-1.336-1.384 4.253-4.531 6.318-6.965.03 1.093.058 2.198.085 3.309-2.09 1.9-4.563 3.871-5.832 3.871-.235 0-.428-.067-.571-.215m16.617 5.342c.062-6.297-.004-5.087.27-7.097 2.208 6.379 6.402 14.814 4.668 15.585a.556.556 0 01-.227.048c-1.272 0-3.133-4.209-4.71-8.536m-19.922 2.988c1.586 1.016 5.702 3.522 9.033 4.446-.211 1.97-.058 5.928 1.034 9.466.055 9.873.032 19.453-.019 27.746h-2.2c-2.122-17.492-5.31-31.938-7.848-41.658m12.052 6.127l-.02-1.433c.344-.079.721-.095 1.362-.91 1.135 1.612 2.377 2.946 3.212 4.002-.079.882-.154 1.765-.23 2.65-1.282-.17-2.924-2.383-4.324-4.31m.114 12.044c1.043 1.337 2.02 1.943 3.429 2.444-.5 7.24-.88 14.38-1.162 21.044h-2.24c.026-7.09.027-15.124-.027-23.488m7.503 2.958c1.9-.168 3.445-.84 4.34-1.332-1.798 6.272-2.752 14.124-3.192 21.862h-1.383c.072-6.061.153-13.074.235-20.53m-2.398-.086c.39.063.776.109 1.15.124-.161 8.41-.3 15.116-.412 20.492h-1.628c.186-6.45.461-13.413.89-20.616" id="d"/><path id="g" d="M0 0h21v17H0z"/><linearGradient x1="23.917%" y1="68.65%" x2="84%" y2="28.94%" id="b"><stop stop-color="#EEE" offset="0%"/><stop stop-color="#D8D8D8" offset="100%"/></linearGradient><linearGradient x1="48.13%" y1="116.576%" x2="50.704%" y2="-.495%" id="e"><stop stop-color="#82ACF4" offset="0%"/><stop stop-color="#F7BCEB" offset="100%"/></linearGradient></defs><g fill="none" fill-rule="evenodd"><mask id="c" fill="#fff"><use xlink:href="#a"/></mask><use fill="url(#b)" xlink:href="#a"/><g mask="url(#c)"><g transform="translate(161 39)"><mask id="f" fill="#fff"><use xlink:href="#d"/></mask><path d="M48.89 16.556c3.53 7.08 4.483 33.396 4.58 36.383-.206.237-.015-2.516-.705 40.864-.17.511-.166 1.222-.033 2.08-.023 1.455.073-.363-.778 6.445a160.367 160.367 0 01-1.359-4.422s-.466.514-1.128 1.362c-.371-2.264-1.167-4.019-2.509-4.553 0 0-.655.69-1.619 1.638-.209-7.263-.962-33.975-3.484-40.713.874-.015 2.032-.283 3.571-1.03 5.094-2.473-.934-20.349-1.736-16.873-.8 3.476-5.55 9.227-6.166 7.866-.616-1.362 4.71-6.716 4.393-10.99-.316-4.276-5.804-6.816-5.804-6.816s-1.443 14.596-2.829 13.885c-1.385-.712 2.989-14.848 2.595-17.98-.393-3.13-6.699-6.158-6.699-6.158s.75 22.555-.815 22.67c-1.564.116.347-21.446-1.471-23.775-1.819-2.328-6.892-2.633-6.892-2.633s3.665 21.474 2.15 21.323c-1.515-.15-1.99-18.52-3.324-20.53-1.334-2.01-5.657 1.417-6.494 1.823-.838.407 3.256 12.758 2.897 14.317-.36 1.559-3.608-12.311-4.018-13.219-.41-.908-1.7-1.5-2.894.188-1.194 1.687-6.13 5.08-6.13 5.08.493 1.089-.262 7.324-.521 8.446-.258 1.122 6.72 1.499 7.254 2.68.292.648-1.722.279-3.795-.09-1.701-.303-3.442-.605-3.976-.345-1.187.575-.92 3.99.147 6.35.618 1.369 5.506 1.187 9.598 1.005 2.965-.132 5.513-.264 5.72.194.494 1.09-14.12 2.205-14.35 3.202-.228.998-.123 3.493 2.336 7.614 1.393 2.334 6.185.353 10.423-1.628 3.243-1.516 6.161-3.032 6.978-2.613C23.887 48.57 7 54.888 6.581 55.09c-.42.203 3.16 5.108 5.488 6.304 1.182.607 4.91-1.65 8.51-3.906 3.49-2.188 6.862-4.375 7.68-3.955 1.662.854-11.942 8.788-13.407 9.5-1.466.71-.826 2.504 6.136 5.103 1.92.717 3.462.261 4.71-.76 5.858 6.186 14.192.783 15.805-3.725.806 6.864 1.344 16.485 1.693 27.286-1.494-2.648-4.546-5.634-6.02-4.109-1.992 2.066-4.075 10.983-6.34 8.637-2.263-2.347 5.616-8.448 4.71-12.015-.905-3.567-3.967-6.64-5.12-5.444-1.153 1.195-.857 13.328-2.306 11.827-1.45-1.503 2.15-13.589 1.086-14.691-1.063-1.103-6.46-6.335-8.452-4.27-1.993 2.065 2.354 13.203 1.207 12.014-1.147-1.188-3.985-13.641-5.556-15.268-.792-.821-1.817-.708-2.831-.594-.995.111-1.98.223-2.723-.549 0 0-.302 3.458-1.087 4.272-.785.813 7.608 8.135 6.521 8.135-1.087 0-7.97-6.633-7.97-6.633s.544 7.07 2.053 8.635c1.51 1.565 9.54 2.88 9.54 4.255 0 1.377-10.385-1.752-10.385-1.752s2.052 8.136 5.675 9.136c3.623 1.002 9.299.25 9.299 1.627s-7.125.5-7.125.5 1.69 10.013 6.4 10.013c4.71 0 5.247-.875 5.247.876 0 .766-.702.624-1.492.482-1.019-.183-2.185-.366-2.185 1.396 0 3.128 3.416 9.404 5.193 7.562.953-.987 1.594-2.423 1.985-3.545 2.475 9.609 5.51 23.585 7.559 40.4h-8.82c-16.267 5.606-15.597 16.905 1.395 22.085h32.58c16.99-5.179 17.668-16.477 1.396-22.084H55.833c.306-6.337.921-12.656 2.004-17.896.156 1.248.537 2.776 1.318 4.64 2.778 6.634 14.612 3.756 14.612 3.756-7.246 0-9.298-12.641-7.124-13.642 2.173-1.002.966 10.513 8.09 12.265 7.125 1.752 9.3-4.13 9.3-4.13-5.556-1.126-15.517-10.574-13.644-12.516 1.873-1.94 11.107 11.265 14.85 11.265 3.744 0 7.85-10.264 7.85-10.264-4.589 2.754-19.563-4.505-20.958-7.008-.742-1.33 3.485.627 8.496 2.584 4.42 1.725 9.448 3.45 12.22 2.923 5.918-1.127 5.556-11.89 5.556-11.89-1.872 1.94-18.115.125-19.805-1.627-.846-.875 3.17-.657 7.818-.438 4.65.22 9.933.438 11.624-.438 3.382-1.752 2.295-10.713 2.295-10.713s-12.318 2.703-15.458 1.827c-3.14-.876 12.922-2.502 14.37-6.257 1.45-3.755-2.129-12.465-2.129-12.465-1.66 1.72-6.882.295-9.055.04 5.914-2.935 12.82-6.319 15.786-7.6 4.97-2.147 18.413-2.766 24.764-.797 1.386.554 2.213.985 2.213.985s-2.679-4.367-6.979-8.823c-.926-.961-1.626-1.753-2.206-2.392-2.181 2.246-5.008 4.812-5.615 3.715-.679-1.23 1.032-4.16 2.242-5.97-.805-.072-1.842.054-3.382.329a12.81 12.81 0 01-.673.103c-2.026 3.206-6.043 9.189-7.535 8.738-1.604-.483 1.262-6.561 2.544-9.106-1.717-.507-2.799-1.237-3.393-1.237-.548 0-2.68 7.71-3.555 10.003-1.812.684-5.759 2.52-2.168-6.946-1.221-1.306-3.865.54-5.689 1.26-1.753.693-2.241 6.762-3.303 9.84-1.226.685-2.658 1.136-3.996 2.107-.018-2.804 3.134-12.134 3.134-12.134S79.02 67.68 79.02 69.747c0 2.065 7.427 5.631 4.166 5.631-3.26 0-6.883-5.444-6.883-5.444s-5.843 3.192-4.733 6.758c1.11 3.568-2.499 4.853-3.686 6.084-.003.002-.003.006-.005.008-2.752 1.012-6.252 3.05-7.757 4.61-2.537 2.627 4.648 18.083 2.777 20.024-1.872 1.94-5.676-15.019-5.676-16.645 0-.938-.81-1.016-1.86-.267 3.042-17.44 7.757-32.511 15.102-40.151 2.835-3.057 6.099-4.804 9.116-6.678-.542.907-1.014 2.52-1.014 5.42 0 6.852 17.017 9.115 14.492 6.498-2.525-2.617-5.344-10.722-3.986-10.722 1.36 0 3.624 8.54 7.246 10.325 3.623 1.783 7.88-3.004 7.88-3.004s-11.367-8.87-10.234-10.044c1.132-1.173 10.959 10.7 13.675 11.828 2.718 1.125 7.7-4.318 7.7-4.318S96.59 39.24 97.117 37.457c.273-.92 4.908 2.065 9.688 5.05 4.474 2.796 9.074 5.59 10.344 5.181 2.628-.844 4.891-6.289 4.891-6.289s-19.02-6.664-18.295-8.26c.384-.844 4.824 1.176 9.243 3.196 3.932 1.798 7.848 3.596 8.871 3.375 2.175-.47 1.087-6.947 1.087-8.072 0-1.127-11.729-2.77-12.86-3.943-1.133-1.173 11.501 2.159 12.407 2.159.906 0 1.902-1.127.996-3.285-.905-2.16-1.72-9.293-1.72-9.293-1.087 0-5.887-3.942-6.702-4.787-.815-.845-3.895 6.664-5.072 6.664-1.178 0 3.442-6.758 3.442-8.354 0-1.595-2.899-3.003-5.254-3.003-2.355 0-5.977 16.298-7.064 16.298-1.087 0 3.804-16.674 3.078-17.425-.723-.751-2.806-1.877-7.154-1.22-4.347.657-1.902 19.712-3.442 21.307-1.539 1.596 0-20.18 0-20.744 0-.563-5.434.939-7.336 2.91-1.902 1.971 1.358 20.369 0 21.777-1.358 1.408-2.446-17.553-2.446-19.524s-1.72-2.16-6.61 4.224c-1.35 1.761-1.59 3.69-1.25 5.578-7.702 3.523-6.166 16.304-2.827 19.765 1.696 1.758 3.737 2.192 5.343 2.193-7.374 4.506-11.885 7.572-16.906 19.487-.004-4.033-.433-12.774-2.536-14.953-2.113-2.19 2.536-1.001 2.536-3.254 0-2.252-.24-10.888-1.207-11.89-.467-.483-1.3 1.107-2.213 2.696-.977 1.701-2.048 3.402-2.86 2.561-1.57-1.627 4.469-6.508 4.469-7.134 0-.626-3.502-12.39-4.347-12.39-.846 0-.242 5.131-2.657 6.383-2.415 1.251 1.328-7.259 1.328-9.887s-2.475-3.191-5.313-6.133C45.932 5.481 42.732.286 42.732.286s2.415 8.761 6.159 16.27m27.866 8.417c.075-.442.093-.836.09-1.208 1.683 3.8 4.798 6.936 4.347 7.403a.334.334 0 01-.251.096c-1.161 0-4.603-3.877-4.186-6.29M53.855 53.484c1.393 1.567.518 9.553 2.644 11.756 1.23 1.275 2.595 1.533 3.601.89-3.162 8.42-4.956 15.91-6.33 23.836.154-18.24.224-33.177.085-36.482M30.907 58.45c.942.484-.436 6.191-2.595 6.685a4.168 4.168 0 00-.94.345c2.062-3.059 2.983-7.313 3.535-7.03m53.366 25.292c.796-.398 1.636-.817 2.513-1.253-1.252 2.192-2.19 9.134-4.324 9.661a.842.842 0 01-.2.027c-1.535 0 .76-5.611 2.011-8.435m-12.63 1.226c.705.237 1.442.467 2.16.681-.017 5.31 1.84 14.761-1.002 14.761-3.14 0-1.494-10.504-1.158-15.442m-34.647 16.881c-1.336-1.384 4.253-4.531 6.318-6.965.03 1.093.058 2.198.085 3.309-2.09 1.9-4.563 3.871-5.832 3.871-.235 0-.428-.067-.571-.215m16.617 5.342c.062-6.297-.004-5.087.27-7.097 2.208 6.379 6.402 14.814 4.668 15.585a.556.556 0 01-.227.048c-1.272 0-3.133-4.209-4.71-8.536m-19.922 2.988c1.586 1.016 5.702 3.522 9.033 4.446-.211 1.97-.058 5.928 1.034 9.466.055 9.873.032 19.453-.019 27.746h-2.2c-2.122-17.492-5.31-31.938-7.848-41.658m12.052 6.127l-.02-1.433c.344-.079.721-.095 1.362-.91 1.135 1.612 2.377 2.946 3.212 4.002-.079.882-.154 1.765-.23 2.65-1.282-.17-2.924-2.383-4.324-4.31m.114 12.044c1.043 1.337 2.02 1.943 3.429 2.444-.5 7.24-.88 14.38-1.162 21.044h-2.24c.026-7.09.027-15.124-.027-23.488m7.503 2.958c1.9-.168 3.445-.84 4.34-1.332-1.798 6.272-2.752 14.124-3.192 21.862h-1.383c.072-6.061.153-13.074.235-20.53m-2.398-.086c.39.063.776.109 1.15.124-.161 8.41-.3 15.116-.412 20.492h-1.628c.186-6.45.461-13.413.89-20.616" fill="url(#e)" mask="url(#f)"/></g><path d="M161.605 98.298h-39.108c-6.061 0-22.27 42.57-32.06 69.928h71.168V98.298z" fill="#70A3FF"/><path d="M124.369 175.588H24.012c-5.783 0-10.47-4.68-10.47-10.452V108.75c0-5.773 4.687-10.453 10.47-10.453h100.357c5.782 0 10.47 4.68 10.47 10.453v56.385c0 5.772-4.688 10.452-10.47 10.452" fill="#99BEFF"/><path fill="#D6E5FF" d="M20.721 179.73h120.852v-34.493H20.721z"/><path fill="#8FB7FF" d="M20.721 183.677h120.852v-31.02H20.721zM166.966 183.677h-25.393v-81.35a5.24 5.24 0 015.246-5.236h14.903a5.24 5.24 0 015.244 5.236v81.35z"/><path d="M27.378 183.677H-6V103.87a5.98 5.98 0 015.985-5.975h21.407a5.98 5.98 0 015.986 5.975v79.807z" fill="#BFD7FF"/><path fill="#99BEFF" d="M-2.857 196.327H.955v-12.65h-3.812zM25.378 197.707h4.395v-14.03h-4.395zM158.487 195.128h4.927v-11.45h-4.927zM141.573 195.128h5.338v-11.45h-5.338z"/><path d="M164.456 143.194c.489 1.554 1.966 6.368 2.823 9.166a2.897 2.897 0 01-.918 3.072c-.043.036-.08.07-.112.101-.385.384-1.216 1.64-1.602 1.64-.384 0-1.344.816-1.885.816-.54 0-.868.101-1.7.412-.833.31-2.306-.758-2.306-1.228s-.384-3.494-.833-6.051c-.448-2.558-.423-8.239-.423-8.239-.264-.263-.65-.7-1.122-1.263 2.043-1.079 4.09-2.148 6.279-2.793.99 2.324 1.662 3.933 1.799 4.367" fill="#FC7575"/><path d="M129.812 82.714l8.268-21.468s10.783 39.853 10.783 43.114c0 2.629 9.674 24.799 13.793 34.467-2.188.645-5.25 2.728-7.293 3.808-4.886-5.814-18.695-26.932-18.695-26.932l-6.856-32.989z" fill="#210D61"/><path d="M111.953 263.8c7.894 0 8.895-10.153 8.895-10.153l-6.836-50.276-3.369-62.156-1.925-15.713 32.409 3.143 5.265 15.694 7.48 57.886-12.194 50.276s1 10.153 8.894 10.153 7.703 3.125 7.703 3.125H135.17s1.347-11.252 1.347-12.294c0-1.042 1.444-55.323 1.444-55.323l-8.76-49.489-3.426 51.945s.233 52.971.233 54.013c0 1.042 1.348 12.294 1.348 12.294H104.25s-.192-3.126 7.702-3.126" fill="#1E3340"/><path d="M107.333 57.373c4.415-6.066 21.895-11.426 30.11-1.518 7.14 8.613 8.681 33.674 9.15 55.501.425 19.678 3.534 36.727 3.534 36.727l-41.964.59-.83-56.705s-4.415-28.528 0-34.595" fill="#574591"/><path d="M131.068 41.808s.115 8.958 1.002 13.52c.343 1.765-.495 3.571-2.05 4.221-1.149.479-2.667.76-4.57.412-4.948-.908-5.115-6.263-5.115-6.263l1.668-16.334 9.065 4.444z" fill="#FC7575"/><path d="M122.003 37.364l9.065 4.444s.043 3.307.275 6.926c-2.366.112-5.338-1.18-8.492-5.078-.47-.579-.907-1.153-1.314-1.722l.466-4.57z" fill="#FD5E5A"/><path d="M116.98 24.473c1.09-2.995 10.986-7.17 13.502-5.627 0 0 3.102 2.541 4.444 6.807a146.45 146.45 0 002.517 7.352l-1.426.907s.224 1.178.395 2.664c-1.488.196-3.797.348-5.484-.25 0 0 1.972 1.625 5.613 1.594.114 1.529.105 3.111-.273 3.98-1.342 3.085-7.002 5.58-13.418-1.362-6.415-6.943-6.96-13.07-5.87-16.065" fill="#FC7575"/><path d="M120.838 25.562s2.85-2.541 6.96-1.452c4.11 1.09 5.493-.59 4.697-1.452 0 0 3.605.09 4.948-3.086 1.341-3.177 1.006-12.797-5.368-10.982-6.373 1.815-5.086 6.172-5.086 6.172s-2.042-2.088-3.97-1c-1.93 1.09-1.678 2.633-1.678 2.633s-1.761 3.54-4.194 3.994c-2.431.453-2.18 5.718-2.18 5.718s-1.426 1.089-.42 4.901c1.007 3.812 6.928 9.711 6.928 11.526 0 0 1.459-2.359.285-6.08-1.174-3.722-1.174-5.9.084-5.9s-1.006-4.992-1.006-4.992" fill="#0B1742"/><path d="M122.651 33.016s-.408-3.131-1.32-3.131c-.913 0-1.762.34-1.542 2.11.22 1.77 1.164 3.744 2.36 2.927 1.194-.817.502-1.906.502-1.906" fill="#FC7575"/><path d="M114.109 19.599c.102-.325.362-.67.681-.818 1.04-.478 2.43.554 3.346 1.268l.155-.2c-.617-.69-1.27-1.379-2.186-1.819-1.346-.614-2.549.013-3.058 1.18l1.062.389z" fill="#0B1742"/><path d="M114.944 24.65c-.1-.553-.099-1.2.036-1.775.664-2.872 3.896-2.621 4.053-2.707v-.178c-.091.035-4.674-.927-5.33 3.71a5.177 5.177 0 00-.051 1.232l1.292-.283z" fill="#0B1742"/><path d="M131.211 28.373c0 .771.315 1.396.703 1.396.387 0 .702-.625.702-1.396 0-.77-.315-1.395-.702-1.395-.388 0-.703.625-.703 1.395M129.465 26.122c1.286-.843 3.092-.535 3.11-.531l.082-.537c-.08-.016-2.006-.348-3.453.602l.261.466z" fill="#2846A6"/><path d="M122.048 31.753s-.532-1.062-1.008-.91c-.476.152-.583 2.283.262 3.181.846.898 1.558-.573.746-2.271" fill="#FD5E5A"/><path d="M221.228 82.2s-19.213 6.084-20.367 16.997l5.125 1.657 17.723-11.016-2.481-7.637z" fill="#2E98A0"/><path d="M242.346 156.654s-11.081 95.031-13.852 105.176v6.406h-21.25s1.284-2.136 3.685-2.136 8.471-2.313 10.134-3.915c1.663-1.601-1.046-132.938-1.046-132.938h26.392l-4.063 27.407z" fill="#0F1D5B"/><path fill="#D3C4BA" d="M245.468 48.61l.509 7.941-18.85-2.139 4.404-5.387z"/><path d="M230.003 137.484l3.066 15.373s24.528 83.273 23.455 112.372c0 0-2.065 3.45-9.352 5.491-.392.11-.766 1.464-.766 1.464h19.01l-1.073-5.857s-.614-99.012-.614-110.542c0-11.53-3.065-26.537-3.065-26.537h-31.887l1.226 8.236z" fill="#1A2A63"/><path d="M217.254 109.534c0-26.939 7.883-53.736 13.779-57.144 0 0 6.854-.471 10.38-.59 5.259-.175 13.354 2.477 17.722 17.336 2.753 9.368 1.452 31.978 1.158 51.682-.131 8.736 1.199 16.9 1.011 23.086-14.857 0-25.726-.493-40.142-.493-.225-4.701-3.908-25.408-3.908-33.877" fill="#D24307"/><path d="M238.183 84.283c-.042.4 8.765-31.693 8.765-31.693s2.953 1 6.877 3.59c3.924 2.592 9.35 20.482 9.35 20.482s-1.332 42.32-1.332 45.54c0 1.731 2.822 27.647 5.43 51.235l-32.144 3.042c.484-32.9 3.054-92.196 3.054-92.196" fill="#5CD4ED"/><path d="M231.033 52.39s-11.338 4.408-13.78 34.02c-2.44 29.61-2.44 90.069-2.44 90.069h11.11s1.203-86.368 1.203-92.29c0-5.923 3.907-31.8 3.907-31.8" fill="#42AEBC"/><path fill="#9DE5F4" d="M231.53 49.025l-4.387 34.413-1.557-17.207 1.54-1.866v-9.953zM251.197 159.378h-2.092c-4.068 0-7.364-3.291-7.364-7.351V139.59h16.82v12.435c0 4.06-3.297 7.352-7.364 7.352M258.561 125.393h4.386v-9.615h-4.386z"/><path d="M250.76 86.31l.024-.025c-.202-.014-.188-.004-.024.025" fill="#FC7575"/><path fill="#1E3340" d="M205.007 103.81l-28.013-19.977 29.085-2.637 21.995 23.164z"/><path d="M217.01 94.693s3.424.764 4.69 2.117c1.615 1.727 5.449 4.533 7.06 4.533 1.612 0 8.473.67 8.473.67l1.15 7.537s-25.599-5.853-26.805-7.142c-1.205-1.289 6.004.957 6.004.383s-8.683-1.22-8.236-2.667c.448-1.448 8.013 1.95 8.684 1.232.671-.718-9.13-1.915-9.13-3.446 0-1.53 9.756 2.214 9.756 2.214s.18-.778-2.461-2.022c-2.641-1.244-5.202-2.245-4.617-2.871.585-.625 7.337 3.34 8.227 2.388l-2.794-2.926z" fill="#FC7575"/><path d="M251.177 59.037s-3.242 5.921-2.595 14.452c.647 8.531 1.752 21.611-.064 25.877-1.816 4.265-15.116 0-15.116 0v10.094s19.285 7.82 24.871 5.261c5.587-2.56 5.055-24.597 5.055-35.402 0-10.806-8.588-28.034-12.15-20.282" fill="#9DE5F4"/><path d="M240.173 21.165c.016-4.037-4.024-6.363-7.856-6.21-3.757.15-7.423.197-8.721 2.62-3.132 5.845 1.708 16.786 1.708 16.786s2.563 5.096 7.688 5.096c3.508 0 7.15-10.744 7.181-18.292" fill="#F98A8A"/><path d="M243.812 32.444s1.384 18.552.887 22.45c-.5 3.896-10.71 4.87-12.703 1.873-1.994-2.997 0-15.812 0-15.812l11.816-8.511z" fill="#EA7373"/><path d="M231.187 48.728c.215-3.955.809-7.773.809-7.773l11.816-8.511s.431 5.224.69 10.893c-.232-.123-.535-.275-.69-.453-1.352-1.56-2.919-6.977-2.919-6.977s-.72 5.5-.72 8.537c0 1.935-3.322 3.215-6.579 3.888-.521-.744-.918-1.684-1.163-2.484.085.873.267 1.783.58 2.6-.627.115-1.243.209-1.824.28" fill="#D86666"/><path d="M226.622 41.78c-.307.725-.876 1.729-1.553 2.368-1.163-1.457-1.844-3.448-1.844-5.066 0-2.922 1.725-4.508 1.725-5.587 0 0 .604 2.477 3.878 3.002 3.274.524 5.908-2.099 7.154-3.41 1.246-1.311 2.847-2.572 2.847-4.721 0-2.15.23-10.548.23-10.548s.34-1.442 3.898.432c3.56 1.873 3.132 3.297 3.702 6.145.57 2.847-.214 4.945 1.993 5.695 2.207.749 4.627 4.196 2.918 7.868-1.707 3.672-6.406 4.122-7.758 2.697-1.353-1.423-2.919-5.767-2.919-5.767s-.72 4.419-.72 7.192c0 1.766-3.322 2.935-6.579 3.55-.521-.68-.918-1.538-1.163-2.268.085.797.267 1.628.58 2.373-1.649.279-3.227.416-4.29.416-1.001 0-1.904-.388-2.674-1.01.45-.995.61-2.189.575-3.361" fill="#E3E4FF"/><path d="M243.302 18.11c3.274 1.552 3.29 3.284 3.768 5.804.78 3.652-.151 4.98 1.972 5.693 4.813 2.11 4.983 9.907-.844 11.722-1.46.383-3.25.473-4.386-.673 1.262.897 2.9.638 4.21.115 4.783-1.923 4.61-8.444.612-10.045-2.773-.758-1.934-3.44-2.53-6.62-.43-2.36-.005-3.686-3.06-5.477-1.074-.665-3.288-1.909-3.985-.811.557-1.292 3.014-.281 4.243.293" fill="#C5C6FE"/><path d="M237.263 25.818s1.05-1.498 2.91-1.049c1.86.45.43 5.47-1.201 5.47-1.633 0-1.71-4.42-1.71-4.42" fill="#F98A8A"/><path d="M226.657 24.685c.022 5.843.28 5.239.594 8.084.602-.133 1.215-.226 1.826-.325-2.044.85-1.805.703-2.134.827-.085-1.02-1.389-3.81-.286-8.586" fill="#18287D"/><path d="M232.174 23.757s-.855-.374-2.314 0c-1.459.375-1.922.6-1.922.6s-.178-1.574.748-1.574c.925 0 1.21.712 1.886 0 .676-.712 1.602.974 1.602.974M222.275 23.598s.644-.351 1.712.062c1.068.414 1.404.651 1.404.651s.183-1.568-.502-1.593c-.685-.025-.92.68-1.397-.05-.477-.73-1.217.93-1.217.93" fill="#E3E4FF"/><path d="M229.718 25.177c0 .479.311.866.696.866.385 0 .696-.387.696-.866 0-.478-.311-.866-.696-.866-.385 0-.696.388-.696.866M223.454 25.55c0 .48.311.867.695.867.386 0 .697-.387.697-.866 0-.478-.311-.866-.697-.866-.384 0-.695.388-.695.866" fill="#18287D"/><path d="M238.787 26.16s1.137-1.024 1.386-.117c.249.907-.34 2.818-1.144 2.935-.804.116-.242-2.818-.242-2.818" fill="#D86666"/><path d="M227.369 35.148c1.161 1.177 3.407 1.036 5.358-1.095.242-.265-.101-.67-.378-.445-.484.178-1.89 2.384-4.98 1.54" fill="#18287D"/><path fill="#9DE5F4" d="M238.183 84.283l7.285-35.673 7.53 5.843-6.589 12.215.49 3.825z"/><path d="M207.666 104.6s-.458.46-1.854 1.324c-1.353.837-2.713-.475-3-.73-.545-.483-1.285-1.397-1.654-1.986-.37-.588-.555-.976-.686-1.589-.192-.898 3.18-3.666 3.495-3.439.212.152.377.355.307.586-.073.245-1.93 2.943-1.93 2.943s2.658-2.63 3.438-2.546c.78.084.676.557.475.78-.2.221-2.708 3.392-2.708 3.392s3.168-2.43 3.676-2.376c.51.055.857.715-.42 1.794-.716.605-1.89 2.054-1.89 2.054s2.385-1.485 3.148-1.403c.762.082-.397 1.196-.397 1.196" fill="#FC7575"/><path d="M112.122 53.513s6.17 3.552 6.17 13.926c0 10.373-37.791 51.536-37.791 51.536v-16.853s19.946-43.041 31.621-48.609" fill="#210D61"/><path d="M81.51 120.907s-.873-.23-2.88-1.308c-1.943-1.044-1.303-3.585-1.195-4.104.204-.99.794-2.509 1.246-3.358.453-.85.792-1.343 1.439-1.923.949-.852 6.613 1.279 6.56 1.814-.037.36-.168.698-.495.774-.345.08-4.878-.28-4.878-.28s5.005 1.37 5.443 2.363c.438.994-.202 1.197-.609 1.11-.406-.087-5.957-.902-5.957-.902s5.116 2.12 5.402 2.767c.285.648-.267 1.522-2.45.736-1.224-.44-3.095-.729-3.095-.729s2.753 1.717 3.182 2.688c.428.971-1.714.352-1.714.352" fill="#FC7575"/><g transform="translate(72 114)"><mask id="h" fill="#fff"><use xlink:href="#g"/></mask><path d="M20.608 17C.236 17 0 .57 0 .406A.4.4 0 01.392 0a.4.4 0 01.393.406c0 .644.252 15.784 19.823 15.784a.4.4 0 01.392.405.399.399 0 01-.392.405" fill="#411AC0" mask="url(#h)"/></g></g></g></svg>