<svg width="299" height="224" xmlns="http://www.w3.org/2000/svg" xmlns:xlink="http://www.w3.org/1999/xlink"><defs><path id="a" d="M0 0h299v224H0z"/><path id="d" d="M0 245h281.907V.069H0z"/><linearGradient x1="23.917%" y1="68.65%" x2="84%" y2="28.94%" id="b"><stop stop-color="#EEE" offset="0%"/><stop stop-color="#D8D8D8" offset="100%"/></linearGradient></defs><g fill="none" fill-rule="evenodd"><mask id="c" fill="#fff"><use xlink:href="#a"/></mask><use fill="url(#b)" xlink:href="#a"/><g mask="url(#c)"><path fill="#EDD7B2" d="M179 155h116V89H179z"/><path fill="#E1CFAD" d="M265 155h29V89h-29z"/><path fill="#DCCAA8" d="M284 98h-58l39.833 3z"/><path fill="#FFF7CF" d="M294 105h-14l14 3zM284.955 113.126L278 115h21l-4.363-3zM282 131h-14v8zM286 143h-44l23.693 4z"/><path fill="#DCCAA8" d="M265 113l-69 .42 69 3.58zM265 128h-43l43 3zM265 123v4l-26-3.555z"/><path fill="#FFF7CF" d="M206 118h-28.827L170 122zM219 146h-31l16.836 4z"/><path fill="#DCCAA8" d="M178 135l31 2.89-31 1.11z"/><g transform="translate(17)"><path d="M204.686 103.661c-1.218 0-43.548-1.87-43.548-1.87v3.365l43.548-1.495z" fill="#DCCAA8"/><mask id="e" fill="#fff"><use xlink:href="#d"/></mask><path fill="#FFEFDD" mask="url(#e)" d="M136.313 89.454h116.442V16.409H136.313z"/><path fill="#C1AB85" mask="url(#e)" d="M223.543 89.454h29.212V16.409h-29.212z"/><path fill="#DCCAA8" mask="url(#e)" d="M241.8 25.775h-58.288l40.032 3.33z"/><path fill="#FFF7CF" mask="url(#e)" d="M252.755 33.89h-14.606l14.606 2.706zM243.152 43.047l9.603-1.249 4.328 3.33h-20.827zM240.718 62.816h-14.47v9.158zM243.83 75.926h-43.954l23.667 4.371z"/><path fill="#DCCAA8" mask="url(#e)" d="M223.543 43.047l-68.567.416 68.567 3.538zM223.543 59.695h-43.006l43.006 2.705zM223.543 53.972v3.746l-25.56-3.33z"/><path fill="#FFF7CF" mask="url(#e)" d="M164.579 48.25h-28.265l-7.033 4.682zM176.885 79.049h-31.374l17.04 5.411z"/><path fill="#DCCAA8" mask="url(#e)" d="M136.313 68.227l30.97 2.706-30.97 1.04zM179.86 32.226c-1.216 0-43.547-2.081-43.547-2.081v3.745l43.547-1.664z"/><path fill="#FFEFDD" mask="url(#e)" d="M35.925 220.738h116.442v-73.044H35.925z"/><path fill="#C1AB85" mask="url(#e)" d="M123.154 220.738h29.213v-73.044h-29.213z"/><path fill="#DCCAA8" mask="url(#e)" d="M141.413 157.059H83.124l40.031 3.329z"/><path fill="#FFF7CF" mask="url(#e)" d="M152.367 165.175h-14.606l14.606 2.705zM142.765 174.33l9.602-1.247 4.327 3.33h-20.826zM140.33 194.1h-14.47v9.157zM143.44 207.21H99.489l23.667 4.372z"/><path fill="#DCCAA8" mask="url(#e)" d="M123.155 174.33l-68.566.417 68.566 3.538zM123.155 190.98H80.149l43.006 2.705zM123.155 185.257v3.745l-25.56-3.329z"/><path fill="#FFF7CF" mask="url(#e)" d="M64.19 179.534H35.927l-7.034 4.683zM76.498 210.333H45.122l17.04 5.41z"/><path fill="#DCCAA8" mask="url(#e)" d="M35.926 199.511l30.97 2.706-30.97 1.04zM79.473 163.51c-1.217 0-43.547-2.08-43.547-2.08v3.745l43.547-1.665z"/><path d="M102.193 147.694s28.797 1.561 21.9 38.395l40.977-7.491s-12.983-27.47-19.474-31.215l-43.403.311z" fill="#FFF5FD" mask="url(#e)"/><path fill="#F2C86C" mask="url(#e)" d="M13.632 245h105.531v-43.002H13.632z"/><path fill="#936F33" mask="url(#e)" d="M13.632 245h26.475v-43.002H13.632z"/><path fill="#936F33" mask="url(#e)" d="M23.56 207.51h52.827l-36.28 1.961z"/><path fill="#FFF7CF" mask="url(#e)" d="M13.632 212.289h13.237l-13.237 1.592zM22.335 217.679l-8.703-.734-3.922 1.96h18.875z"/><path fill="#936F33" mask="url(#e)" d="M40.107 217.679l62.142.245-62.142 2.084z"/><path fill="#FFF7CF" mask="url(#e)" d="M93.546 220.743h25.617l6.373 2.756z"/><path d="M79.697 211.309c1.103 0 39.467-1.225 39.467-1.225v2.205l-39.467-.98z" fill="#936F33" mask="url(#e)"/><path fill="#FFEFDD" mask="url(#e)" d="M133.478 228.112h116.441V155.07H133.478z"/><path fill="#C1AB85" mask="url(#e)" d="M220.707 228.112h29.212V155.07h-29.212z"/><path fill="#DCCAA8" mask="url(#e)" d="M238.965 164.433h-58.288l40.03 3.33z"/><path fill="#FFF7CF" mask="url(#e)" d="M249.92 172.55h-14.606l14.605 2.704zM240.317 181.706l9.602-1.248 4.327 3.329h-20.825zM237.883 201.475h-14.47v9.157zM240.993 214.585H197.04l23.667 4.371z"/><path fill="#DCCAA8" mask="url(#e)" d="M220.707 181.706l-68.566.416 68.566 3.538zM220.707 198.354h-43.006l43.006 2.705zM220.707 192.631v3.746l-25.56-3.33z"/><path fill="#FFF7CF" mask="url(#e)" d="M161.743 186.908h-28.265l-7.033 4.683zM174.05 217.708h-31.376l17.04 5.41z"/><path fill="#DCCAA8" mask="url(#e)" d="M133.478 206.886l30.97 2.706-30.97 1.04zM177.025 170.884c-1.217 0-43.547-2.08-43.547-2.08v3.745l43.547-1.665z"/><path d="M199.745 155.069s28.797 1.56 21.9 38.394l40.977-7.49s-12.982-27.47-19.474-31.216l-43.403.312z" fill="#FFF5FD" mask="url(#e)"/><path d="M122.098.606L6.354 41.168C1.407 42.9-1.196 48.314.537 53.258L59.05 220.077c1.733 4.944 7.15 7.547 12.096 5.814l115.745-40.562c4.946-1.734 7.55-7.147 5.817-12.092L134.195 6.42c-1.734-4.944-7.15-7.547-12.097-5.813" fill="#FF787F" mask="url(#e)"/><path fill="#FFF" mask="url(#e)" d="M185.19 174.785L65.888 216.593 8.054 51.71 127.357 9.902z"/><path fill="#FAFDFE" mask="url(#e)" d="M8.054 51.71l57.834 164.883 61.469-206.69z"/><path d="M24.61 37.27a2.492 2.492 0 00-1.527 3.174l4.673 13.324a2.495 2.495 0 003.176 1.526l80-28.035a2.492 2.492 0 001.526-3.174l-4.673-13.324a2.494 2.494 0 00-3.175-1.527l-80 28.036zm87.182-7.56l-80 28.036a5.097 5.097 0 01-6.489-3.118L20.63 41.303a5.094 5.094 0 013.119-6.485l80-28.035c2.65-.929 5.56.47 6.489 3.118l4.673 13.324a5.093 5.093 0 01-3.119 6.485z" fill="#C2C2C2" mask="url(#e)"/><path fill="#4675AB" mask="url(#e)" d="M105.016 12.828L27.33 40.05l-3.58-10.208L101.435 2.62z"/><path fill="#3D699A" mask="url(#e)" d="M27.332 40.05l77.684-27.223-1.791-5.104L25.54 34.947z"/><path d="M86.352 164.678l-15.069-27.602.53 14.123-11.23 3.935a1.299 1.299 0 11-.858-2.452l9.418-3.3-.87-23.247 15.109 27.676-.763-22.374 6.681 8.39 1.153-20.871 17.426 26.364-.459-10.156 8.068-2.827a1.299 1.299 0 11.86 2.452l-6.244 2.188.794 17.628-18.283-27.663-1.095 19.842-6.036-7.576.868 25.47z" fill="#FF787F" mask="url(#e)"/><path d="M34.59 78.21a3.874 3.874 0 00-2.373 4.932l8.607 24.538a3.876 3.876 0 004.934 2.371l17.57-6.156a3.873 3.873 0 002.372-4.932l-8.607-24.539a3.877 3.877 0 00-4.934-2.371l-17.57 6.157zm29.261 27.178l-17.568 6.157a5.462 5.462 0 01-6.954-3.341l-8.606-24.539a5.456 5.456 0 013.343-6.95l17.569-6.156a5.461 5.461 0 016.952 3.341l8.607 24.539a5.458 5.458 0 01-3.343 6.95z" fill="#E8E8E8" mask="url(#e)"/><path d="M53.414 103.757c8.303-2.91 9.206-8.615 9.206-8.615-.532-.339-1.159-.586-1.936-.776-2.679-.657-4.645-.664-5.596-1.005-.951-.34-1.674-1.054-1.674-1.054l-.361.442s-.617-.862-.962-2.358c0 0 .593-.394.312-2.756.82-.12 1.054-2.393.377-2.967-.439-.372-.76-.213-.95-.019-.104-1.07-.941-6.866-6.805-4.811-5.865 2.055-2.898 7.104-2.31 8.005-.27-.033-.62.044-.73.607-.17.872 1.432 2.502 2.148 2.083 1.256 2.02 1.965 1.957 1.965 1.957.666 1.384.722 2.443.722 2.443l-.559-.12s-.118 1.009-.648 1.868c-.53.86-2.06 2.093-3.744 4.277-.489.635-.823 1.22-1.027 1.817 0 0 4.27 3.891 12.572.982" fill="#4675AB" mask="url(#e)"/><path fill="#E8E8E8" mask="url(#e)" d="M97.7 62.846L67.717 73.353l-1.04-2.966L96.658 59.88zM148.566 109.389l-19.857 6.958-1.04-2.965 19.856-6.959zM151.604 118.05l-19.856 6.96-1.04-2.966 19.856-6.958zM154.642 126.713l-19.856 6.958-1.04-2.965 19.856-6.958zM100.804 70.386l-30.392 10.65-1.04-2.965L99.764 67.42zM134.97 68.748L73.64 90.24l-1.04-2.965 61.329-21.492zM164.04 155.278l-93.636 32.814-1.04-2.965L163 152.313zM140.464 88.063L46.83 120.877l-1.04-2.966 93.634-32.813zM167.23 164.374l-93.635 32.814-1.04-2.966 93.635-32.813zM138.124 77.742L76.795 99.234l-1.04-2.965 61.329-21.492z"/></g><g><path fill="#082036" d="M197-91l6.468 12.735L208 77l-5.925-13.957z"/><path fill="#D9CEFA" d="M172 123h66V77h-66z"/><path fill="#487065" d="M181 90h43v-3h-43zM189 100h27v-3h-27z"/><path fill="#0F3F6B" d="M216 119h17v-16h-17zM135.27-108L112-105.847 199.213 77H208z"/></g></g></g></svg>