<svg width="299" height="224" xmlns="http://www.w3.org/2000/svg" xmlns:xlink="http://www.w3.org/1999/xlink"><defs><linearGradient x1="23.917%" y1="68.65%" x2="84%" y2="28.94%" id="b"><stop stop-color="#EEE" offset="0%"/><stop stop-color="#D8D8D8" offset="100%"/></linearGradient><linearGradient x1="61.148%" y1="113.037%" x2="43.688%" y2="13.338%" id="e"><stop stop-color="#F20000" offset="0%"/><stop stop-color="#FF9000" offset="100%"/></linearGradient><linearGradient x1="-.001%" y1="50%" x2="100%" y2="50%" id="i"><stop stop-color="#D34149" offset="0%"/><stop stop-color="#AC4491" offset="100%"/></linearGradient><linearGradient x1="-.136%" y1="51.302%" x2="207.6%" y2="46.43%" id="k"><stop stop-color="#690252" offset="0%"/><stop stop-color="#B8004B" offset="100%"/></linearGradient><linearGradient x1="0%" y1="50.002%" x2="100%" y2="50.002%" id="m"><stop stop-color="#690252" offset="0%"/><stop stop-color="#B8004B" offset="100%"/></linearGradient><path id="a" d="M0 0h299v224H0z"/><path d="M9.555.686C4.21 4.977.818 11.363.818 18.498c0 7.62 3.866 14.386 9.847 18.659h29.958c5.98-4.273 9.848-11.04 9.848-18.66 0-7.134-3.393-13.52-8.738-17.811H9.555z" id="d"/><path id="g" d="M0 369.833h659.26V.697H0z"/><path d="M311.47.149v7.43h-26.44V.16h-29.324v7.42H66.83V.15H40.035v7.43H.543v136.896h366.652V7.58h-27.59V.149H311.47zm-149.91 137.15H359.54V14.756H161.56V137.3zM8.2 137.3h147.19V14.756H8.199V137.3z" id="j"/></defs><g fill="none" fill-rule="evenodd"><mask id="c" fill="#fff"><use xlink:href="#a"/></mask><use fill="url(#b)" xlink:href="#a"/><g mask="url(#c)"><path d="M97.8 100.13c1.349 1.412 3.797 2.31 6.568 2.21 2.77-.102 5.147-1.174 6.39-2.681-1.348-1.414-3.796-2.311-6.566-2.21-2.77.1-5.149 1.172-6.392 2.68" fill="#F66D75"/><path d="M67.866 158.048c1.843-12.658 2.693-25.449 2.479-38.21-.051-6.382-.4-12.756-.905-19.112-.484-6.359-1.257-12.689-2.137-18.998-1.802-12.616-4.347-25.113-7.501-37.445a350.916 350.916 0 00-5.248-18.352c-1.922-6.067-3.976-12.084-6.346-18.007l-.747.308c2.276 5.901 4.257 11.943 6.096 18.009a350.928 350.928 0 015.003 18.356c2.989 12.326 5.369 24.802 7.004 37.372.8 6.285 1.488 12.587 1.89 18.908.422 6.319.69 12.648.663 18.976.055 12.656-.946 25.301-2.92 37.77l2.669.425z" fill="#AC4492"/><path d="M44.507-17.442c3.59 2.173 6.453 6.778 7.248 12.41C52.551.6 51.078 5.823 48.23 8.913c-3.59-2.173-6.452-6.779-7.248-12.411-.795-5.632.678-10.854 3.525-13.944M65.664 1.968c.44 3.258-.953 7.262-3.978 10.504-3.027 3.243-6.915 4.898-10.183 4.67-.44-3.26.953-7.263 3.98-10.506 3.025-3.241 6.913-4.897 10.181-4.668M50.739 17.226c-2.75 1.786-6.951 2.225-11.163.857-4.21-1.37-7.357-4.197-8.543-7.263 2.75-1.786 6.951-2.226 11.162-.857 4.21 1.369 7.358 4.196 8.544 7.263M55.007 30.95c-2.749 1.787-6.95 2.226-11.161.857-4.21-1.368-7.358-4.196-8.543-7.261 2.75-1.787 6.95-2.226 11.161-.857 4.21 1.368 7.357 4.196 8.543 7.26M59.308 45.268c-2.75 1.785-6.95 2.225-11.162.856-4.211-1.368-7.358-4.197-8.544-7.261 2.751-1.787 6.952-2.227 11.163-.857 4.21 1.367 7.358 4.195 8.543 7.262M62.192 58.6c-2.75 1.786-6.95 2.226-11.162.857-4.21-1.369-7.358-4.197-8.543-7.263 2.75-1.786 6.95-2.225 11.162-.856 4.21 1.368 7.358 4.196 8.543 7.262M60.993 55.9c2.75 1.787 6.95 2.228 11.161.86 4.21-1.371 7.358-4.2 8.543-7.264-2.75-1.787-6.95-2.226-11.162-.857-4.21 1.37-7.357 4.196-8.542 7.261M69.525 14.652c.44 3.26-.953 7.263-3.979 10.505-3.026 3.243-6.915 4.9-10.183 4.67-.439-3.258.954-7.262 3.98-10.505 3.025-3.243 6.914-4.898 10.182-4.67M73.948 29.064c.439 3.261-.953 7.262-3.98 10.506-3.026 3.242-6.914 4.898-10.183 4.67-.438-3.259.954-7.264 3.98-10.506 3.027-3.243 6.915-4.898 10.183-4.67M-.283 69.726c3.909 2.164 7.573 4.715 11.128 7.407 3.55 2.702 6.938 5.617 10.18 8.684a132.302 132.302 0 019.243 9.699 131.745 131.745 0 018.175 10.634c5.096 7.364 9.344 15.314 12.763 23.611a130.94 130.94 0 017.387 25.868l-1.891.317a129.258 129.258 0 00-6.894-25.624c-3.25-8.247-7.33-16.178-12.27-23.555a130.782 130.782 0 00-7.946-10.678 131.918 131.918 0 00-9.037-9.78c-3.178-3.1-6.505-6.054-9.999-8.8-3.497-2.733-7.119-5.34-10.964-7.546l.125-.237z" fill="#AC4492"/><path d="M-14.706 59.62c.21 2.98 2.184 6.283 5.473 8.606 3.29 2.324 7.054 3.075 9.918 2.265-.209-2.98-2.184-6.284-5.472-8.608-3.29-2.322-7.054-3.073-9.919-2.264M7.442 57.092c-2.196 2.016-3.546 5.623-3.317 9.654.231 4.031 1.984 7.459 4.396 9.209 2.197-2.016 3.547-5.622 3.316-9.653-.23-4.032-1.983-7.46-4.395-9.21M20.516 63.68c-2.651 1.357-4.91 4.473-5.756 8.42-.847 3.948-.066 7.72 1.794 10.052 2.652-1.356 4.91-4.47 5.756-8.419.847-3.946.067-7.72-1.794-10.052M29.336 71.828c-2.653 1.356-4.91 4.472-5.757 8.419-.847 3.947-.067 7.72 1.794 10.052 2.652-1.357 4.91-4.471 5.756-8.418.847-3.948.067-7.72-1.793-10.053M39.488 80.2c-2.909.63-5.886 3.062-7.71 6.66-1.825 3.599-2.031 7.446-.828 10.179 2.91-.63 5.887-3.062 7.711-6.661 1.824-3.597 2.031-7.445.827-10.178M46.638 90.683c-2.656-.113-5.774 1.315-8.158 4.012-2.384 2.698-3.427 5.975-2.998 8.61 2.656.113 5.774-1.315 8.157-4.012 2.384-2.697 3.426-5.976 2.999-8.61M51.826 97.274c-2.656-.113-5.773 1.314-8.158 4.012-2.384 2.697-3.426 5.974-2.999 8.61 2.656.113 5.775-1.315 8.159-4.013 2.384-2.697 3.426-5.975 2.998-8.609M54.79 106.994c-2.277-.096-4.95 1.127-6.994 3.44-2.044 2.312-2.937 5.121-2.57 7.379 2.277.098 4.95-1.127 6.993-3.439 2.044-2.313 2.936-5.122 2.57-7.38M57.664 117.13c-1.657-.94-4.119-1.05-6.534-.115-2.414.933-4.164 2.675-4.763 4.49 1.657.939 4.119 1.051 6.533.117 2.415-.936 4.164-2.678 4.764-4.491M58.825 125.486c-1.018-1.14-2.86-1.855-4.931-1.765-2.072.09-3.844.964-4.761 2.186 1.018 1.139 2.86 1.856 4.93 1.767 2.072-.09 3.845-.965 4.762-2.188" fill="#AC4492"/><path d="M-9.239 81.815c2.53 1.574 6.355 1.896 10.155.577 3.802-1.32 6.61-3.946 7.631-6.752-2.53-1.574-6.354-1.896-10.156-.576-3.8 1.32-6.608 3.945-7.63 6.751M-1.21 88.448c2.53 1.574 6.354 1.896 10.154.577 3.801-1.32 6.61-3.946 7.63-6.752-2.53-1.574-6.353-1.896-10.155-.577-3.8 1.32-6.608 3.946-7.63 6.752M7.346 96.627c2.53 1.573 6.356 1.895 10.155.575 3.802-1.32 6.61-3.945 7.631-6.751-2.53-1.575-6.354-1.896-10.156-.576-3.8 1.319-6.608 3.945-7.63 6.752M17.005 102.067c2.058 1.28 5.169 1.543 8.26.469 3.09-1.074 5.375-3.21 6.205-5.491-2.058-1.281-5.168-1.543-8.259-.47-3.09 1.073-5.376 3.209-6.206 5.492M24.238 107.263c1.682 1.093 4.208 1.345 6.705.477s4.328-2.632 4.98-4.535c-1.684-1.091-4.208-1.344-6.705-.476-2.498.867-4.33 2.632-4.98 4.534M28.559 113.945c1.682 1.091 4.208 1.342 6.705.476 2.497-.868 4.328-2.633 4.98-4.535-1.684-1.092-4.209-1.344-6.705-.476-2.498.866-4.33 2.632-4.98 4.535M33.295 119.991c1.363 1.166 3.648 1.729 6.1 1.33 2.45-.4 4.442-1.658 5.37-3.196-1.364-1.165-3.65-1.728-6.101-1.329-2.451.398-4.442 1.657-5.37 3.195M37.871 127.605c1.537.44 3.579.044 5.385-1.194 1.806-1.24 2.917-3.005 3.069-4.6-1.535-.438-3.577-.043-5.384 1.196-1.806 1.238-2.917 3.003-3.07 4.598M42.97 132.152c1.216.11 2.695-.478 3.877-1.666 1.182-1.189 1.767-2.675 1.656-3.896-1.217-.11-2.695.479-3.877 1.667-1.183 1.188-1.768 2.674-1.657 3.895M46.351 133.344c.798.123 1.74-.2 2.463-.927.724-.727 1.043-1.67.92-2.475-.8-.123-1.74.2-2.464.927-.722.727-1.043 1.672-.919 2.475M47.441 135.592c.799.122 1.74-.2 2.464-.927.722-.726 1.043-1.672.92-2.475-.8-.123-1.741.2-2.465.926-.723.728-1.043 1.673-.919 2.476" fill="#AC4492"/><path d="M109.253 30.702c-3.931 4.325-7.398 9.028-10.671 13.858-3.262 4.84-6.236 9.875-8.966 15.038a174.133 174.133 0 00-7.38 15.9 173.3 173.3 0 00-5.665 16.607c-3.227 11.262-5.156 22.89-5.916 34.6a171.272 171.272 0 001.68 35.125l2.473-.405a169.053 169.053 0 01-2.19-34.617c.574-11.574 2.302-23.11 5.33-34.32a171.224 171.224 0 015.366-16.563 172.73 172.73 0 017.09-15.915c2.636-5.178 5.519-10.235 8.693-15.105 3.183-4.859 6.574-9.61 10.41-13.964l-.254-.239z" fill="#F66D75"/><path d="M122.872 12.113c.99 3.776-.074 8.696-3.17 12.958-3.099 4.263-7.443 6.78-11.327 6.985-.988-3.776.074-8.696 3.172-12.958 3.098-4.263 7.44-6.78 11.325-6.985M94.408 18.325c3.561 1.569 6.741 5.463 8.143 10.548 1.401 5.086.666 10.066-1.586 13.25-3.561-1.57-6.74-5.463-8.142-10.548-1.401-5.085-.667-10.066 1.585-13.25M80.986 31.993c3.85.56 7.947 3.463 10.645 7.99 2.7 4.528 3.314 9.526 1.986 13.196-3.85-.56-7.946-3.464-10.645-7.991-2.7-4.528-3.312-9.524-1.986-13.195M73.482 45.792c3.849.562 7.946 3.463 10.645 7.991 2.7 4.528 3.312 9.524 1.985 13.195-3.85-.56-7.947-3.462-10.646-7.99-2.699-4.528-3.311-9.525-1.984-13.196M64.42 60.434c3.865-.447 8.564 1.307 12.328 4.99 3.763 3.684 5.628 8.356 5.28 12.247-3.862.446-8.563-1.308-12.326-4.99-3.763-3.683-5.629-8.358-5.281-12.247M59.958 76.422c3.24-1.26 7.696-.808 11.774 1.524 4.079 2.332 6.74 5.95 7.312 9.39-3.239 1.258-7.695.807-11.773-1.526-4.079-2.331-6.74-5.948-7.313-9.388M56.296 86.765c3.239-1.26 7.695-.808 11.773 1.524 4.08 2.333 6.74 5.95 7.312 9.39-3.238 1.26-7.694.808-11.773-1.524-4.079-2.333-6.74-5.95-7.312-9.39M56.696 100.044c2.777-1.08 6.596-.693 10.093 1.306 3.495 2 5.776 5.1 6.267 8.049-2.777 1.079-6.596.69-10.092-1.307-3.496-2-5.776-5.1-6.268-8.048M57.38 113.798c1.656-1.86 4.656-3.037 8.035-2.897 3.379.137 6.273 1.555 7.773 3.546-1.656 1.862-4.657 3.038-8.036 2.899-3.377-.137-6.273-1.556-7.772-3.548M59.438 124.628c.784-1.84 2.762-3.501 5.364-4.265 2.6-.76 5.16-.428 6.806.699-.784 1.838-2.763 3.502-5.364 4.265-2.601.762-5.16.428-6.806-.699" fill="#F66D75"/><path d="M125.393 41.886c-2.473 3.014-7.07 5.026-12.326 4.995-5.255-.03-9.829-2.095-12.266-5.137 2.473-3.014 7.07-5.027 12.325-4.995 5.256.03 9.83 2.095 12.267 5.137M118.234 53.479c-2.473 3.013-7.07 5.026-12.325 4.995-5.255-.03-9.829-2.095-12.267-5.138 2.474-3.014 7.07-5.026 12.325-4.995 5.256.03 9.829 2.096 12.267 5.138M111.067 67.207c-2.474 3.014-7.071 5.026-12.326 4.995-5.256-.03-9.83-2.095-12.266-5.137 2.472-3.013 7.07-5.027 12.325-4.995 5.255.03 9.827 2.096 12.267 5.137M101.39 78.013c-2.01 2.45-5.75 4.087-10.024 4.062-4.274-.024-7.994-1.704-9.977-4.178 2.011-2.452 5.75-4.088 10.025-4.064 4.274.025 7.993 1.704 9.976 4.18M94.615 87.492c-1.626 2.061-4.647 3.437-8.099 3.418-3.453-.02-6.458-1.432-8.06-3.511 1.626-2.062 4.647-3.438 8.1-3.417 3.452.018 6.457 1.43 8.059 3.51M92.062 97.583c-1.625 2.06-4.645 3.436-8.098 3.417-3.453-.02-6.457-1.433-8.059-3.512 1.625-2.062 4.646-3.438 8.099-3.416 3.452.02 6.457 1.43 8.058 3.51M88.732 107.062c-1.2 2.017-3.793 3.678-6.992 4.217-3.2.54-6.19-.175-7.982-1.69 1.2-2.018 3.793-3.677 6.992-4.217 3.2-.54 6.19.178 7.982 1.69M86.254 118.415c-1.718 1.191-4.41 1.561-7.163.792-2.754-.772-4.866-2.488-5.723-4.398 1.718-1.19 4.41-1.563 7.163-.791 2.753.77 4.866 2.486 5.723 4.397M81.847 126.191c-1.459.648-3.535.544-5.495-.428s-3.306-2.563-3.679-4.122c1.459-.65 3.536-.544 5.496.429 1.96.971 3.305 2.562 3.678 4.121M78.16 129.09c-.937.489-2.236.488-3.435-.106-1.198-.595-1.99-1.63-2.173-2.676.937-.488 2.237-.486 3.435.107 1.2.595 1.992 1.63 2.174 2.675M77.752 132.332c-.936.489-2.237.487-3.436-.107-1.198-.595-1.99-1.63-2.173-2.674.938-.49 2.238-.488 3.436.107 1.2.593 1.991 1.629 2.173 2.674" fill="#F66D75"/><path d="M25.918 17.854c4.008 4.864 7.495 10.112 10.768 15.486 3.26 5.383 6.198 10.96 8.867 16.664a187.293 187.293 0 017.118 17.508 186.263 186.263 0 015.232 18.182c2.888 12.295 4.358 24.919 4.566 37.57a184.75 184.75 0 01-3.644 37.733l-2.643-.567a182.224 182.224 0 004.166-37.159c-.013-12.495-1.273-25.007-3.946-37.237a184.545 184.545 0 00-4.914-18.119 186.268 186.268 0 00-6.804-17.51c-2.568-5.713-5.407-11.312-8.571-16.722-3.173-5.4-6.578-10.694-10.48-15.584l.285-.245z" fill="#F794AC"/><path d="M12.224-2.88c-1.262 4.014-.374 9.37 2.739 14.121 3.113 4.753 7.659 7.692 11.83 8.12 1.261-4.016.374-9.37-2.739-14.123-3.113-4.752-7.659-7.69-11.83-8.118M42.55 5.308c-3.917 1.502-7.544 5.528-9.318 10.93-1.775 5.402-1.245 10.804 1.014 14.35 3.918-1.503 7.545-5.526 9.319-10.928 1.774-5.402 1.243-10.805-1.015-14.352M56.288 20.732c-4.174.402-8.737 3.31-11.88 8.044-3.143 4.734-4.064 10.083-2.827 14.104 4.174-.401 8.738-3.31 11.88-8.043 3.144-4.733 4.065-10.082 2.827-14.105M63.65 35.987c-4.175.401-8.738 3.31-11.881 8.044-3.143 4.732-4.063 10.08-2.827 14.103 4.174-.401 8.738-3.31 11.88-8.043 3.143-4.733 4.064-10.081 2.827-14.104M72.641 52.23c-4.137-.683-9.29.957-13.535 4.725-4.244 3.769-6.496 8.701-6.326 12.91 4.137.683 9.291-.958 13.535-4.726 4.245-3.768 6.497-8.703 6.326-12.909M76.612 69.68c-3.423-1.528-8.244-1.275-12.759 1.022-4.513 2.297-7.567 6.052-8.363 9.725 3.421 1.529 8.243 1.275 12.757-1.021 4.514-2.297 7.568-6.052 8.365-9.727M80.015 81.012c-3.421-1.53-8.244-1.275-12.757 1.02-4.514 2.297-7.569 6.053-8.364 9.727 3.421 1.527 8.243 1.274 12.757-1.023 4.514-2.297 7.568-6.051 8.364-9.724M78.89 95.287c-2.932-1.308-7.065-1.092-10.934.877-3.87 1.968-6.487 5.186-7.17 8.335 2.933 1.31 7.066 1.093 10.936-.875 3.869-1.97 6.487-5.188 7.168-8.337M77.437 110.064c-1.687-2.09-4.856-3.517-8.5-3.545-3.646-.029-6.838 1.346-8.558 3.41 1.687 2.092 4.858 3.516 8.502 3.546 3.646.029 6.837-1.347 8.556-3.411M74.655 121.617c-.749-2.022-2.793-3.917-5.553-4.875-2.761-.957-5.534-.733-7.366.394.748 2.022 2.792 3.917 5.554 4.874 2.76.957 5.534.733 7.365-.393" fill="#F794AC"/><path d="M7.955 29.048c2.506 3.375 7.351 5.784 13.012 6.028 5.66.244 10.692-1.74 13.477-4.887-2.506-3.375-7.35-5.784-13.011-6.028-5.66-.245-10.694 1.74-13.478 4.887M15.058 41.908c2.506 3.375 7.35 5.784 13.011 6.029 5.661.242 10.693-1.741 13.478-4.888-2.506-3.376-7.351-5.784-13.012-6.029-5.66-.243-10.692 1.741-13.477 4.888M22.06 57.069c2.506 3.375 7.35 5.784 13.01 6.027 5.661.243 10.694-1.74 13.478-4.887-2.505-3.376-7.35-5.784-13.011-6.028-5.66-.244-10.694 1.74-13.477 4.888M31.914 69.213c2.038 2.745 5.979 4.704 10.583 4.902 4.603.197 8.697-1.414 10.961-3.975-2.037-2.746-5.979-4.704-10.582-4.902-4.604-.199-8.698 1.415-10.962 3.975M38.716 79.777c1.643 2.304 4.823 3.945 8.541 4.107 3.72.159 7.029-1.202 8.862-3.357-1.643-2.306-4.823-3.946-8.542-4.106-3.72-.161-7.029 1.2-8.86 3.356M40.937 90.776c1.643 2.305 4.823 3.945 8.542 4.106 3.72.16 7.028-1.202 8.861-3.356-1.643-2.306-4.823-3.946-8.542-4.107-3.72-.16-7.028 1.201-8.86 3.357M44.029 101.159c1.186 2.236 3.891 4.16 7.309 4.91 3.416.75 6.674.135 8.682-1.4-1.187-2.236-3.892-4.158-7.309-4.91-3.416-.75-6.674-.135-8.682 1.4M46.104 113.514c1.787 1.372 4.667 1.915 7.672 1.23s5.37-2.422 6.391-4.434c-1.787-1.372-4.666-1.914-7.671-1.23-3.006.685-5.37 2.422-6.392 4.434M50.443 122.119c1.537.776 3.778.772 5.94-.172 2.162-.941 3.692-2.584 4.176-4.242-1.537-.777-3.778-.774-5.94.17-2.162.944-3.692 2.586-4.176 4.244M54.26 125.435c.985.577 2.384.643 3.706.066s2.228-1.649 2.48-2.765c-.984-.576-2.384-.642-3.706-.066-1.322.578-2.228 1.65-2.48 2.765M54.531 128.947c.984.577 2.384.643 3.706.066 1.322-.576 2.228-1.65 2.48-2.765-.985-.576-2.384-.643-3.706-.065-1.322.576-2.228 1.649-2.48 2.764" fill="#F794AC"/><path d="M84.163 119.25c5.92-8.709 12.156-17.216 18.811-25.384l-.109-.094c-6.824 8.038-13.237 16.424-19.345 25.03-6.092 8.617-11.842 17.494-17.012 26.726-1.247 2.237-2.46 4.499-3.635 6.781.46.258.92.516 1.374.784a226.456 226.456 0 013.508-6.88c4.952-9.278 10.503-18.242 16.408-26.963" fill="#F66D75"/><path d="M109.552 82.757c-2.183.201-4.448 1.663-5.876 4.048-1.429 2.386-1.65 5.08-.802 7.11 2.184-.2 4.45-1.66 5.878-4.048 1.428-2.385 1.65-5.079.8-7.11M93.273 87.844c-.89 1.741-.935 4.357.064 6.954.998 2.596 2.785 4.502 4.61 5.19.89-1.741.935-4.357-.064-6.955-.999-2.595-2.784-4.502-4.61-5.189M92.725 107.005c1.483 1.27 4.008 1.915 6.755 1.536 2.746-.38 5.004-1.687 6.089-3.313-1.483-1.27-4.009-1.915-6.754-1.535-2.747.379-5.004 1.687-6.09 3.312M86.174 115.496c1.482 1.27 4.009 1.915 6.755 1.535 2.745-.38 5.004-1.686 6.09-3.313-1.484-1.27-4.01-1.915-6.756-1.534-2.745.38-5.004 1.686-6.089 3.312M81.725 122.258c1.482 1.27 4.008 1.915 6.754 1.536 2.747-.38 5.005-1.687 6.09-3.313-1.483-1.27-4.009-1.915-6.755-1.534-2.746.378-5.004 1.686-6.09 3.31M76.79 129.723c1.483 1.27 4.01 1.916 6.756 1.536 2.747-.38 5.003-1.687 6.09-3.313-1.483-1.27-4.01-1.915-6.755-1.535-2.747.38-5.005 1.686-6.09 3.312M87.57 95.128c-.89 1.741-.935 4.357.064 6.954 1 2.596 2.785 4.502 4.61 5.19.89-1.741.936-4.357-.063-6.954-1-2.596-2.786-4.503-4.61-5.19" fill="#F66D75"/><path d="M82.12 102.626c-.89 1.74-.935 4.357.064 6.954 1 2.596 2.785 4.503 4.609 5.189.89-1.74.937-4.358-.063-6.954-.999-2.595-2.784-4.502-4.61-5.189M76.934 110.184c-.891 1.74-.936 4.356.063 6.954 1 2.596 2.786 4.501 4.61 5.19.89-1.742.936-4.357-.063-6.954-1-2.596-2.786-4.503-4.61-5.19M71.907 117.59c-.89 1.74-.935 4.356.064 6.952.999 2.598 2.785 4.503 4.61 5.19.89-1.74.935-4.356-.064-6.953-.999-2.596-2.785-4.502-4.61-5.19" fill="#F66D75"/><g transform="translate(38 152)"><mask id="f" fill="#fff"><use xlink:href="#d"/></mask><path d="M9.555.686C4.21 4.977.818 11.363.818 18.498c0 7.62 3.866 14.386 9.847 18.659h29.958c5.98-4.273 9.848-11.04 9.848-18.66 0-7.134-3.393-13.52-8.738-17.811H9.555z" fill="url(#e)" mask="url(#f)"/></g><g transform="translate(-99 -28)"><path d="M149.595 183.562c-3.207-.587-7.504 3.21-8.614 10.845-1.513 15.067 8.095 19.492 13.336 15.667-4.568-1.8-9.564-5.092-9.71-12.51-.254-3.882 1.214-7.623 1.239-7.739.203-.456.612-1.588 1.377-2.897.675-1.267 1.496-2.334 2.372-3.366" fill="#F8E000"/><mask id="h" fill="#fff"><use xlink:href="#g"/></mask><path fill="#0072C5" mask="url(#h)" d="M145.017 180.858h35.937v-3.545h-35.937z"/></g><path fill="url(#i)" d="M128 328h87V218h-87z" transform="translate(-99 -28)"/><g><path fill="#901019" d="M116.025 298.479h16.917v-109.77h-16.917zM40.79 221.097h71.146V193.68l-1.91 26.171zM79.389 200.816c0 1.348-2.623 2.442-5.86 2.442-3.235 0-5.858-1.094-5.858-2.442s2.623-2.441 5.859-2.441c3.236 0 5.859 1.093 5.859 2.441"/><path fill="#A6393F" d="M28.474 194.604h87.551v-5.895h-87.55z"/><path fill="#350042" d="M116.082 194.604h16.86v-5.895h-16.86z"/><path d="M193.126 119.161h-37.68c1.913 4.815 5.587 15.446 2.92 20.622-.343.64-.65 1.217-.943 1.754 5.944 1.128 10.039 3.472 10.039 6.186 0 .039-.014.09-.026.141H131.44c0-.051-.014-.102-.014-.14 0-3.817 8.062-6.905 18.012-6.905 1.34 0 2.64.052 3.89.154a43.68 43.68 0 001.633-2.971c1.786-3.446-1.186-13.064-3.66-18.84h-45.54V59.806h87.365v59.354z" fill="#51427B"/><path fill="#C5C5E0" d="M145.152 59.807l-28.025 59.355h-9.923l28.024-59.355zM129.603 59.807l-23.841 50.49V89.293l13.93-29.485z"/></g><g transform="translate(78 155)"><mask id="l" fill="#fff"><use xlink:href="#j"/></mask><path d="M311.47.149v7.43h-26.44V.16h-29.324v7.42H66.83V.15H40.035v7.43H.543v136.896h366.652V7.58h-27.59V.149H311.47zm-149.91 137.15H359.54V14.756H161.56V137.3zM8.2 137.3h147.19V14.756H8.199V137.3z" fill="url(#k)" mask="url(#l)"/></g><path fill="url(#m)" d="M161 184h384v-8H161z" transform="translate(-99 -28)"/><g><path d="M268.638 77.598l.213 1.031-2.718 34.045s-13.66 20.525-18.509 25.37c-4.794 4.788-11.824 0-11.824 0 9.062-13.315 32.838-60.446 32.838-60.446" fill="#FD5E5A"/><path d="M268.638 77.598l-2.186 36.463-16.196 26.11s-8.876-11.973-8.876-13.01c0-.912 16.463-40.165 21.966-44.348 5.505-4.184 5.292-5.215 5.292-5.215" fill="#7D7DA2"/><path d="M261.705 316.933c-.698-2.284-6.323-11.068-13.61-22.161-15.275-23.22-37.929-56.843-37.929-61.945 0-7.664 17.493-31.663 25.953-41.287 5.521-6.281 23.302-28.967 23.302-28.967l11.136-6.19s-13.331 46.968-13.331 50.111c0 3.144-30.733 19.651-29.158 24.368 1.572 4.717 8.105 11.791 13.318 16.997 3.29 3.287 9.892 22.263 15.256 36.757a8.098 8.098 0 00-.722.413c.24-.14.475-.29.722-.413 3.135 8.473 5.847 15.416 7.227 16.792 1.401 1.402 2.553 2.139 3.54 2.607 1.645.778 1.9 7.031 1.607 9.194-2.003 2.898 2.441 15.387 2.441 15.387l-7.443 9.24c-2.655-2.653-.765-7.228-.163-8.548 1.097-2.401.018-5.28-2.146-12.355" fill="#FD5E5A"/><path d="M221.773 343.66c3.736-1.18 3.736-18.669 6.098-29.476 2.35-10.768 5.125-77.695 6.294-85.484 1.18-7.861 28.477-57.507 28.477-57.507l-3.221-8.62c11.945 2.537 28.18 3.027 40.238 3.17-8.376 21.753-48.463 64.53-48.463 64.53s-2.175 44.017-8.076 63.276c-1.446 4.717-4.331 14.79-4.558 15.405-3.057 8.269-5.231 12.456-2.124 17.857 1.274 2.216-2.816 11.104-2.816 11.104-1.516 3.19-2.392 8.81-4.458 10.873-2.066 2.063-11.146 1.113-11.146 1.113s.017-5.062 3.755-6.241" fill="#FC7575"/><path d="M203.426 227.975c1.939-8.042 54.13-65.403 54.13-65.403s11.295-9.031 2.862-42.13c-6.384-25.05-3.101-29.085 2.02-37.185 4.452-7.042 7.307-8.706 7.307-8.706s20.484-6.597 20.484-.702c0 5.896-6.689 31.442-2.755 46.77 4.054 15.794 26.518 46.156 10.42 62.238-11.324 11.312-10.407 3.982-35.114 45.008-4.514 7.496-6.664 13.376-6.664 13.376l-52.69-13.266z" fill="#4239A0"/><path d="M257.556 162.573c5.303-4.304 6.86-14.506 6.846-22.15-.276-7.748-.217-3.721-.653-8.894-4.98-28.505-9.87-32.937-1-47.697 1.654-2.882 4.567-7.445 6.996-9.282-2.945 1.795-6.006 5.877-7.96 8.674-10.715 15.687-4.618 23.955-.127 48.611.125 1.413 2.007 11.05.356 20.172-.673 3.766-1.854 7.607-4.458 10.566M285.003 69.018s-8.11 17.352-9.94 32.95c-1.83 15.596 8.142 71.35 18.1 74.972 9.96 3.622 20.736-.876 21.753-3.72 1.016-2.843-14.451-35.245-20.036-43.927-5.584-8.682-2.356-48.563-2.356-51.695 0-3.132-7.521-8.58-7.521-8.58" fill="#A6A6D8"/><path d="M285.003 69.018c-6.159 12.13-11.55 27.046-11.24 40.647.567 16.857 8.256 60.744 18.76 66.972-7.995-5.88-13.885-43.334-15.123-53.173-2.246-16.596-2.965-26.98 7.603-54.446" fill="#7D7DA2"/><path d="M280.764 137.822a1.572 1.572 0 103.144-.002 1.572 1.572 0 00-3.144.002M283.426 147.876a1.571 1.571 0 103.143 0 1.571 1.571 0 00-3.143 0M286.934 157.45a1.571 1.571 0 003.144 0 1.57 1.57 0 00-1.572-1.57 1.57 1.57 0 00-1.572 1.57" fill="#7D7DA2"/><path d="M245.541 172.496c2.884-.88 4.09-6.18 4.301-7.654.211-1.474-1.025-4.109-2.376-2.35-1.352 1.756-5.496 1.61-4.915.408.582-1.203 4.502-2.461 5.374-4.265.872-1.803 2.344-6.095 5.64-7.1s36.772-9.993 37.375-14.653c.042-.33-.06-1.145-.266-2.298 4.213-1.299 8.7-2.007 13.039-1.778.37 5.762.475 9.514.475 9.514-8.822 10.57-48.498 10.426-48.666 13.679-.167 3.255-.989 13.052-1.752 14.629-.763 1.578-7.032 9.256-7.415 8.284-.384-.973 1.49-3.915 1.49-3.915s-3.943 4.213-5.002 3.703c-1.058-.511 4.225-5.005 4.225-5.005s-4.574 2.612-5.47 2.18c-.895-.431 1.06-2.5 3.943-3.379" fill="#FC7575"/><path d="M290.675 134.583c-1.681-9.475-10.687-43.248-10.766-43.836-.984-7.248 7.04-15.648 10.43-16.3 9.1 9.091 14.598 42.602 15.656 59.038-4.337-.23-11.108-.2-15.32 1.098" fill="#B8B8E0"/><path d="M290.675 134.583c-.782-5.426-2.004-10.772-3.206-16.11-6.415-28.14-7.862-26.863-6.814-31.675 1.432-5.808 6.622-11.389 9.684-12.352-3.239.682-8.8 5.97-10.594 12.121-.903 3.367-.21 4.873.643 8.301-.191-.526 2.29 9.04 8.266 31.762.71 2.641 1.396 5.287 2.02 7.953" fill="#E3E3F3"/><path d="M261.161 28.158s1.874-4.808 13.216-4.808c11.34 0 13.667 11.185 12.212 13.944-1.454 2.759 1.017 8.345 3.635 9.11 2.617.766 9.167 4.348 5.627 7.883-3.541 3.538 2.806 3.341 2.806 6.537 0 3.194-1.941 5.296-6.398 5.868-4.457.572-31.098-38.534-31.098-38.534" fill="#31003D"/><path d="M269.65 49.63c2.881 10.33 10.745 6.812 11.83 15.686.402 3.293-.343 6.859-2.073 9.816-3.09 5.287-9.205 3.009-9.205 3.009s4.463-2.551 3.595-3.628c0 0-3.923 4.812-7.1 3.325-3.178-1.485-4.23-3.357-4.23-3.357s5.95-.027 2.663-3.448c-2.291-2.384-5.898-4.768-8.424-8.618-1.885-2.875 1.282-9.032 1.963-14.025 3.371-3.315 7.055-6.36 10.847-9.315-.04 3.522-.827 7.107.134 10.555" fill="#31003D"/><path d="M262.993 61.296s4.017 3.37 4.98 8.218c.522 2.624.924 5.99.665 8.084-.271 2.197.754 3.702 2.954 3.955 1.346.155 2.85-.03 4.215-1.022 2.174-1.584 5.388-4.297 5.767-7.282.255-1.997-12.157-20.421-12.157-20.421l-6.424 8.468z" fill="#FC7575"/><path d="M262.993 61.296l6.424-8.468s1.46 2.165 3.367 5.093c-1.121 3.382-2.898 6.838-5.753 8.77-1.528-3.28-4.038-5.395-4.038-5.395" fill="#FD5E5A"/><path d="M259.163 30.642s-2.877 1.606-4.021 5.146c-1.144 3.542.643 7.99.163 11.047-.48 3.06 2.918 18.516 10.537 16.184 7.618-2.33 8.785-13.505 9.175-15.99.39-2.485-1.704-11.626-5.598-14.292-3.893-2.665-10.256-2.095-10.256-2.095" fill="#FC7575"/><path d="M255.142 35.788c1.144-3.54 4.021-5.146 4.021-5.146s6.362-.571 10.257 2.095c3.893 2.666 5.987 11.807 5.597 14.292-.298 1.899-1.049 8.87-4.786 13.094-.393-4.329 2.698-10.747 1.421-16.916-.377.226-2.031.4-2.867.356-3.522-.181 1.364-5.166-1.835-10.087-1.975-1.485-2.04-1.662-3.332-1.972-.422 3.975-4.277 10.908-8.261 14.892.266-3.035-1.306-7.232-.215-10.608" fill="#FD5E5A"/><path d="M260.623 46.12c-.238 1.927-.729 4.236-1.224 6.126.598.363 1.4.607 2.167.538-1.237.409-2.461-.356-2.538-.375.343-1.573.717-3.683 1.595-6.29M264.284 43.281s1.54-.997 3.26-1.059c1.72-.062 3.91 2.082 3.91 2.082s-2.458-1.674-3.606-1.589c-1.147.086-2.32.745-2.32.745l-1.244-.179zM260.184 43.001s-1.177-1.214-2.6-1.53c-1.423-.317-3.46 1.478-3.46 1.478s2.212-1.291 3.157-1.035c.945.256 1.852 1.079 1.852 1.079l1.051.008z" fill="#4F005E"/><path d="M264.927 55.936c-3.776 1.069-5.134.865-6.373.488 1.695 1.594 4.878 1.002 6.373-.488" fill="#FFF"/><path d="M265.174 45.873c.097.6.606 1.017 1.134.931.53-.086.88-.642.783-1.242-.097-.6-.606-1.017-1.136-.93-.529.085-.88.64-.781 1.241" fill="#4F005E"/><path d="M269.557 46.404c-3.597-3.692-5.015-.99-6.21-.8.973.059 2.082-.988 3.15-.71.873.217 2.181 1.015 3.06 1.51" fill="#42004A"/><path d="M257.006 45.646c.089.602.497 1.029.912.954.415-.074.678-.622.59-1.223-.09-.6-.498-1.027-.913-.953-.415.075-.679.622-.59 1.222" fill="#4F005E"/><path d="M260.058 46.066c-2.86-3.487-4.175-.754-5.188-.512.815.014 1.796-1.07 2.68-.843.726.176 1.791.905 2.508 1.355" fill="#42004A"/><path d="M264.944 51.648c.168 1.03 1.41 1.684 2.776 1.464 1.366-.222 2.337-1.238 2.17-2.267-.167-1.03-1.41-1.687-2.776-1.464-1.367.22-2.337 1.236-2.17 2.266" fill="#FD5E5A"/><path d="M266.95 33.476c-2.54-1.909-4.529-2.525-5.93-2.676-.61-.03-1.088-.023-1.45 0-.515.055-.83.149-.94.128-.004-.033.047-.174.158-.39.527-1.154 2.498-4.464 7.743-4.373.173-.001.347.002.52.01 3.218.125 6.466.038 9.58.993 1.822.557 3.62 1.52 4.98 2.867 1.667 1.654 1.87 3.629 1.92 5.884.092 4.13-.822 8.343.229 12.402 1.004 3.888 3.331 7.521 6.892 9.52 3.098 1.739 4.661 4.455 5.076 7.98.43 3.657-.286 7.604-1.992 10.87-3.048 5.838-9.186 3.26-9.186 3.26s4.445-2.791 3.568-3.994c0 0-3.885 5.306-7.077 3.631-3.192-1.676-4.26-3.76-4.26-3.76s5.953.018 2.635-3.804c-2.314-2.663-5.942-5.336-8.502-9.629-1.41-2.365-.116-6.378.943-10.777.081-.513.299-1.408.544-2.457.481-2.476.725-4.996.239-7.345-.377.227-.923.4-1.76.357-2.025-.105-2.016-1.324-2.098-3.152-.254-1.763-.773-3.916-1.833-5.545" fill="#4F005E"/><path d="M261.161 28.158s-3.983-.61-7.378 1.862c-3.394 2.472-3.746 12.303-1.96 14.342 1.786 2.039-6.376 4.71-1.977 5.072 6.238.513 15.153-20.259 11.315-21.276" fill="#4F005E"/><path d="M279.733 43.638c-1.334 2.489-2.523 5.835-2.831 8.545-.914 8.661 8.92 5.608 11.43 6.184 1.549.307 2.654 1.952 1.779 3.8-.707 1.526-1.82 1.842-2.46 2.4-.972.863-.725 2.082.152 2.697 1.735 1.237 4.389-.534 4.748 2.131.294 1.86-.589 3.895-2.212 5.053 1.785-.929 2.934-3.005 2.817-5.114-.132-2.17-1.602-2.3-3.63-2.466-1.251-.112-1.61-.78-1.45-1.146.197-.736 1.967-.75 3.092-3.048.863-1.637.483-3.607-.979-4.77-3.805-3.073-14.504 4.16-12.098-8.562.352-1.94.955-3.834 1.642-5.704M259.94 29.531c-5.915-.194-9.633 4.575-8.067 9.512.267.836.712 1.68 1.53 1.982l.34-1.19c-.323-.037-.728-.851-.848-1.151-1.748-4.297 1.417-8.91 7.045-9.153" fill="#6A0084"/><path d="M227.688 111.014s19.883 26.595 18.098 28.378c-1.785 1.783-9.07 3.614-14.898-3.851-5.827-7.465-5.828-17.679-8.776-22.55-2.947-4.872-6.604-3.4-8.304-5.097-1.699-1.698-1.982-8.916-1.982-10.896 0-1.98 6.939-2.514 9.455 0 2.516 2.513 6.407 14.016 6.407 14.016" fill="#FD5E5A"/><path d="M205.01 87.576v23.361c0 .456 3.051.827 6.815.827 3.765 0 6.817-.371 6.817-.827V87.576H205.01z" fill="red"/><path d="M218.641 87.576c0 .495-3.051.898-6.816.898-3.763 0-6.815-.403-6.815-.898 0-.496 3.052-.9 6.815-.9 3.765 0 6.816.404 6.816.9" fill="#720000"/><path d="M218.1 87.576c0 .456-2.81.826-6.274.826s-6.274-.37-6.274-.826c0-.456 2.81-.827 6.274-.827s6.273.37 6.273.827" fill="#5DB9F4"/><path fill="#F99" d="M209.488 90.448h-2.644l1.321 18.89z"/></g></g></g></svg>