<svg width="299" height="224" viewBox="0 0 299 224" fill="none" xmlns="http://www.w3.org/2000/svg">
<g clip-path="url(#clip0_1_6)">
<path d="M0 0H299V224H0V0Z" fill="url(#paint0_linear_1_6)" style=""/>
<g clip-path="url(#clip1_1_6)">
<path d="M178.707 20.0807C178.707 20.0807 179.13 4.06253 206.32 7.48687C233.51 10.895 239.938 46.7776 246.772 53.821C253.622 60.8644 248.92 65.9928 248.92 65.9928C248.92 65.9928 255.347 67.9079 261.123 78.5866C266.9 89.2654 258.341 104.634 258.341 104.634C258.341 104.634 258.552 108.903 270.122 118.51C281.675 128.118 281.252 144.136 264.557 143.487C247.862 142.854 247.211 170.606 218.312 174.225C189.414 177.844 156.236 158.645 155.373 157.996C154.511 157.363 139.313 163.757 128.183 150.092C117.053 136.427 137.393 123.395 137.393 123.395C137.393 123.395 133.748 93.7122 150.231 85.5976C166.715 77.4831 168.423 54.4215 167.789 43.1098C167.154 31.7981 178.707 20.0482 178.707 20.0482V20.0807Z" fill="#0C1A3C" style="fill:#0C1A3C;fill:color(display-p3 0.0471 0.1020 0.2353);fill-opacity:1;"/>
<path d="M221.941 25.6472C221.941 25.6472 228.092 38.3546 235.154 49.1308C242.216 59.9069 239.872 66.5609 239.872 66.5609" stroke="#56114A" style="stroke:#56114A;stroke:color(display-p3 0.3373 0.0667 0.2902);stroke-opacity:1;" stroke-width="0.96" stroke-linecap="round" stroke-linejoin="round"/>
<path d="M242.33 69.758C242.33 69.758 257.446 81.2482 249.294 99.9442" stroke="#56114A" style="stroke:#56114A;stroke:color(display-p3 0.3373 0.0667 0.2902);stroke-opacity:1;" stroke-width="0.96" stroke-linecap="round" stroke-linejoin="round"/>
<path d="M229.768 55.8496C229.768 55.8496 233.787 64.5971 232.029 73.2148C232.029 73.2148 239.091 81.1346 239.384 92.6897" stroke="#56114A" style="stroke:#56114A;stroke:color(display-p3 0.3373 0.0667 0.2902);stroke-opacity:1;" stroke-width="0.96" stroke-linecap="round" stroke-linejoin="round"/>
<path d="M232.225 87.61C232.225 87.61 232.762 89.5737 233.315 92.6086C234.731 100.269 238.75 107.247 244.77 112.213C250.628 117.066 257.007 124.126 257.934 132.337" stroke="#56114A" style="stroke:#56114A;stroke:color(display-p3 0.3373 0.0667 0.2902);stroke-opacity:1;" stroke-width="0.96" stroke-linecap="round" stroke-linejoin="round"/>
<path d="M218.28 74.6592C218.28 74.6592 225.342 84.4778 224.854 102.005" stroke="#56114A" style="stroke:#56114A;stroke:color(display-p3 0.3373 0.0667 0.2902);stroke-opacity:1;" stroke-width="0.96" stroke-linecap="round" stroke-linejoin="round"/>
<path d="M174.607 68.9303C174.607 68.9303 174.021 78.895 162.923 90.1418C151.826 101.405 154.088 117.358 154.088 117.358" stroke="#56114A" style="stroke:#56114A;stroke:color(display-p3 0.3373 0.0667 0.2902);stroke-opacity:1;" stroke-width="0.96" stroke-linecap="round" stroke-linejoin="round"/>
<path d="M149.581 97.1041C149.581 97.1041 144.569 102.151 146.245 121.853C146.245 121.853 134.318 128.832 133.797 143.325" stroke="#56114A" style="stroke:#56114A;stroke:color(display-p3 0.3373 0.0667 0.2902);stroke-opacity:1;" stroke-width="0.96" stroke-linecap="round" stroke-linejoin="round"/>
<path d="M201.162 104.878C224.723 102.086 239.693 110.526 246.544 117.358C253.394 124.19 254.257 162.053 258.813 187.387C263.385 212.72 266.526 233.51 268.234 245.454C269.943 257.415 249.115 270.512 203.163 268.792C157.212 267.088 138.093 261.099 138.093 248.294C138.093 235.49 143.804 190.503 144.081 156.908C144.374 123.314 145.496 111.451 201.162 104.862V104.878Z" fill="#FFAA3F" style="fill:#FFAA3F;fill:color(display-p3 1.0000 0.6667 0.2471);fill-opacity:1;"/>
<path d="M141.396 205.401L159.669 209.28C159.669 209.28 154.755 227.294 138.89 234.419C139.541 226.434 140.485 216.323 141.396 205.385V205.401Z" fill="#D98609" style="fill:#D98609;fill:color(display-p3 0.8510 0.5255 0.0353);fill-opacity:1;"/>
<path d="M201.162 104.878C224.723 102.086 239.694 110.526 246.544 117.358C253.394 124.19 254.257 162.053 258.813 187.387C263.385 212.72 266.526 233.51 268.234 245.454C269.471 254.105 258.894 263.355 235.544 267.153L235.495 266.682C235.495 266.682 244.054 241.884 227.213 137.125C227.213 137.125 228.873 135.048 207.589 114.193C203.733 110.412 201.422 107.393 200.3 104.975C200.593 104.943 200.869 104.894 201.162 104.862V104.878Z" fill="#D98609" style="fill:#D98609;fill:color(display-p3 0.8510 0.5255 0.0353);fill-opacity:1;"/>
<path d="M209.607 231.303C202.757 229.209 190.683 225.671 182.319 224.113C182.319 224.113 190.878 207.608 199.437 203.048C207.996 198.487 211.429 208.176 211.429 208.176L214.098 227.473C214.456 230.004 212.048 232.049 209.591 231.286L209.607 231.303Z" fill="#B39C91" style="fill:#B39C91;fill:color(display-p3 0.7020 0.6118 0.5686);fill-opacity:1;"/>
<path d="M211.429 208.176C211.429 208.176 188.6 215.009 182.319 224.113L181.18 201.62C181.18 201.62 201.732 203.616 211.429 208.16V208.176Z" fill="#D9CFCA" style="fill:#D9CFCA;fill:color(display-p3 0.8510 0.8118 0.7922);fill-opacity:1;"/>
<path d="M198.298 115.946C199.437 116.271 210.29 202.772 211.429 208.176C211.429 208.176 192.31 204.184 178.316 204.184C164.323 204.184 163.477 199.623 162.045 191.655C160.613 183.686 171.466 124.19 170.327 117.926C170.327 117.926 181.18 111.094 198.298 115.93V115.946Z" fill="#F3E8E2" style="fill:#F3E8E2;fill:color(display-p3 0.9529 0.9098 0.8863);fill-opacity:1;"/>
<path d="M197.078 102.833C216.734 102.314 243.224 104.667 249.082 115.508C254.956 126.349 239.986 140.728 213.919 151.244C187.852 161.761 160.629 151.179 148.783 139.284C136.921 127.388 155.341 103.937 197.078 102.833Z" fill="#D9CFCA" style="fill:#D9CFCA;fill:color(display-p3 0.8510 0.8118 0.7922);fill-opacity:1;"/>
<path d="M236.748 114.21C236.748 114.21 217.271 140.728 186.68 139.284C156.073 137.839 151.354 126.771 151.354 126.771" stroke="#F3E8E2" style="stroke:#F3E8E2;stroke:color(display-p3 0.9529 0.9098 0.8863);stroke-opacity:1;" stroke-width="0.97" stroke-linecap="round" stroke-linejoin="round"/>
<path d="M223.422 117.358C223.422 117.358 198.217 134.626 160.629 121.253" stroke="#F3E8E2" style="stroke:#F3E8E2;stroke:color(display-p3 0.9529 0.9098 0.8863);stroke-opacity:1;" stroke-width="0.97" stroke-linecap="round" stroke-linejoin="round"/>
<path d="M208.566 92.4788C214.668 93.2415 219.809 94.6859 220.656 97.4124C221.502 100.123 220.314 112.863 220.314 112.863C220.314 112.863 212.308 122.21 193.238 121.188C174.167 120.166 171.434 113.885 171.434 113.885C171.434 113.885 171.938 98.9379 172.621 97.9155C173.305 96.8931 192.375 90.4339 208.549 92.4788H208.566Z" fill="#D98609" style="fill:#D98609;fill:color(display-p3 0.8510 0.5255 0.0353);fill-opacity:1;"/>
<path d="M216.474 99.9442C217.483 103.969 216.799 109.13 216.295 111.905" stroke="#FFAA3F" style="stroke:#FFAA3F;stroke:color(display-p3 1.0000 0.6667 0.2471);stroke-opacity:1;" stroke-width="0.97" stroke-linecap="round" stroke-linejoin="round"/>
<path d="M204.921 104.083C205.246 104.991 205.588 106.484 205.669 108.773C205.783 111.937 205.507 114.599 205.311 115.962" stroke="#FFAA3F" style="stroke:#FFAA3F;stroke:color(display-p3 1.0000 0.6667 0.2471);stroke-opacity:1;" stroke-width="0.97" stroke-linecap="round" stroke-linejoin="round"/>
<path d="M189.707 105.04C189.17 107.101 188.682 111.077 190.211 117.374" stroke="#FFAA3F" style="stroke:#FFAA3F;stroke:color(display-p3 1.0000 0.6667 0.2471);stroke-opacity:1;" stroke-width="0.97" stroke-linecap="round" stroke-linejoin="round"/>
<path d="M176.998 101.242C176.185 102.914 175.339 106.549 176.657 113.853" stroke="#FFAA3F" style="stroke:#FFAA3F;stroke:color(display-p3 1.0000 0.6667 0.2471);stroke-opacity:1;" stroke-width="0.97" stroke-linecap="round" stroke-linejoin="round"/>
<path d="M210.095 82.8387L210.339 99.4573C201.601 103.174 192.766 103.596 183.816 100.95L184.809 89.3141L210.079 82.8224L210.095 82.8387Z" fill="#93405C" style="fill:#93405C;fill:color(display-p3 0.5765 0.2510 0.3608);fill-opacity:1;"/>
<path d="M210.16 87.5289C205.995 93.4363 193.758 99.1652 183.947 99.4248L184.809 89.3303L210.079 82.8387L210.144 87.5126L210.16 87.5289Z" fill="#56114A" style="fill:#56114A;fill:color(display-p3 0.3373 0.0667 0.2902);fill-opacity:1;"/>
<path d="M185.281 19.5289C199.893 16.348 211.267 26.6697 214.472 43.3857C217.678 60.1017 216.36 70.4234 214.472 78.1322C212.585 85.8248 193.758 94.6535 182.271 92.4138C170.783 90.158 171.157 74.01 169.269 58.2353C167.382 42.4606 164.567 24.0568 185.281 19.5451V19.5289Z" fill="#93405C" style="fill:#93405C;fill:color(display-p3 0.5765 0.2510 0.3608);fill-opacity:1;"/>
<path d="M189.088 84.4129C193.352 84.9809 193.775 86.0845 195.76 85.2893C197.745 84.494 193.563 79.7551 188.389 79.9986C183.214 80.242 181.392 84.2019 182.45 85.9871C183.507 87.7561 185.297 83.9098 189.088 84.4129Z" fill="#0C1A3C" style="fill:#0C1A3C;fill:color(display-p3 0.0471 0.1020 0.2353);fill-opacity:1;"/>
<path d="M184.451 62.536C184.451 62.536 183.507 69.19 182.401 71.5432C181.294 73.8964 187.054 74.6592 187.054 74.6592" stroke="#56114A" style="stroke:#56114A;stroke:color(display-p3 0.3373 0.0667 0.2902);stroke-opacity:1;" stroke-width="0.96" stroke-linecap="round" stroke-linejoin="round"/>
<path d="M198.233 58.6573C198.233 58.6573 194.181 57.505 192.44 59.1117" stroke="#0C1A3C" style="stroke:#0C1A3C;stroke:color(display-p3 0.0471 0.1020 0.2353);stroke-opacity:1;" stroke-width="0.96" stroke-linecap="round" stroke-linejoin="round"/>
<path d="M178.984 60.8482C178.984 60.8482 176.543 59.5824 174.004 61.4325" stroke="#0C1A3C" style="stroke:#0C1A3C;stroke:color(display-p3 0.0471 0.1020 0.2353);stroke-opacity:1;" stroke-width="0.96" stroke-linecap="round" stroke-linejoin="round"/>
<path d="M199.388 52.8635C199.388 52.8635 193.238 55.2979 187.917 52.9771" stroke="#0C1A3C" style="stroke:#0C1A3C;stroke:color(display-p3 0.0471 0.1020 0.2353);stroke-opacity:1;" stroke-width="2" stroke-linecap="round" stroke-linejoin="round"/>
<path d="M181.018 53.7886C181.018 53.7886 179.586 57.2616 172.963 57.148" stroke="#0C1A3C" style="stroke:#0C1A3C;stroke:color(display-p3 0.0471 0.1020 0.2353);stroke-opacity:1;" stroke-width="2" stroke-linecap="round" stroke-linejoin="round"/>
<path d="M184.272 30.5322C184.272 30.5322 185.769 40.3508 202.464 44.1971C202.464 44.1971 210.388 51.6625 211.234 62.3413C212.097 73.02 221.941 70.2449 221.941 70.2449C221.941 70.2449 233.771 28.5847 209.737 15.1632C191.594 5.03628 181.701 17.7274 181.05 17.3055C180.416 16.8835 165.201 8.76898 158.579 24.138C151.94 39.5069 167.138 44.6353 167.138 44.6353C167.138 44.6353 177.633 41.6492 184.256 30.5485L184.272 30.5322Z" fill="#0C1A3C" style="fill:#0C1A3C;fill:color(display-p3 0.0471 0.1020 0.2353);fill-opacity:1;"/>
<path d="M217.401 45.0248C217.401 45.0248 193.156 39.6368 186.583 24.2678" stroke="#56114A" style="stroke:#56114A;stroke:color(display-p3 0.3373 0.0667 0.2902);stroke-opacity:1;" stroke-width="0.96" stroke-linecap="round" stroke-linejoin="round"/>
<path d="M216.409 37.0888C216.409 37.0888 200.885 25.1279 192.44 20.1456" stroke="#56114A" style="stroke:#56114A;stroke:color(display-p3 0.3373 0.0667 0.2902);stroke-opacity:1;" stroke-width="0.96" stroke-linecap="round" stroke-linejoin="round"/>
<path d="M216.409 26.7184C216.409 26.7184 204.481 14.1895 187.917 17.0296" stroke="#56114A" style="stroke:#56114A;stroke:color(display-p3 0.3373 0.0667 0.2902);stroke-opacity:1;" stroke-width="0.96" stroke-linecap="round" stroke-linejoin="round"/>
<path d="M180.302 23.4888C180.302 23.4888 176.868 35.336 165.869 39.8315" stroke="#56114A" style="stroke:#56114A;stroke:color(display-p3 0.3373 0.0667 0.2902);stroke-opacity:1;" stroke-width="0.96" stroke-linecap="round" stroke-linejoin="round"/>
<path d="M175.192 21.6711C175.192 21.6711 165.576 24.3814 161.947 35.4334" stroke="#56114A" style="stroke:#56114A;stroke:color(display-p3 0.3373 0.0667 0.2902);stroke-opacity:1;" stroke-width="0.96" stroke-linecap="round" stroke-linejoin="round"/>
<path d="M213.333 63.2826C213.333 63.2826 218.98 53.7074 224.626 61.5947C230.272 69.4821 226.888 83.001 211.625 78.5055L213.317 63.2988L213.333 63.2826Z" fill="#93405C" style="fill:#93405C;fill:color(display-p3 0.5765 0.2510 0.3608);fill-opacity:1;"/>
<path d="M222.478 63.6883C222.478 63.6883 216.262 64.8568 215.091 75.8277" stroke="#56114A" style="stroke:#56114A;stroke:color(display-p3 0.3373 0.0667 0.2902);stroke-opacity:1;" stroke-width="0.96" stroke-linecap="round" stroke-linejoin="round"/>
<path d="M221.941 73.7991C221.941 73.7991 220.428 69.0439 217.906 67.1776" stroke="#56114A" style="stroke:#56114A;stroke:color(display-p3 0.3373 0.0667 0.2902);stroke-opacity:1;" stroke-width="0.96" stroke-linecap="round" stroke-linejoin="round"/>
<path d="M218.28 140.988C218.28 140.988 211.462 136.297 206.044 128.037C200.625 119.776 193.742 115.654 192.587 117.082C191.448 118.51 197.159 124.775 197.159 124.775C197.159 124.775 187.168 117.374 180.887 116.806C174.607 116.238 187.168 125.343 188.6 126.771C190.032 128.199 176.608 119.37 174.037 120.506C171.466 121.642 174.037 134.171 174.899 135.6C175.762 137.028 194.881 148.696 200.3 150.125C205.718 151.553 212.861 153.825 212.861 153.825L218.28 141.02V140.988Z" fill="#93405C" style="fill:#93405C;fill:color(display-p3 0.5765 0.2510 0.3608);fill-opacity:1;"/>
<path d="M218.068 140.842L210.356 153.03C207.785 152.234 203.717 151.001 200.3 150.108C199.502 149.897 198.38 149.459 197.078 148.859C198.656 145.532 202.903 139.689 213.691 137.141C215.823 139.17 217.499 140.436 218.068 140.842Z" fill="#56114A" style="fill:#56114A;fill:color(display-p3 0.3373 0.0667 0.2902);fill-opacity:1;"/>
<path d="M177.649 126.089C177.649 126.089 181.18 128.962 188.242 131.705" stroke="#56114A" style="stroke:#56114A;stroke:color(display-p3 0.3373 0.0667 0.2902);stroke-opacity:1;" stroke-width="0.96" stroke-linecap="round" stroke-linejoin="round"/>
<path d="M177.259 131.039C177.259 131.039 181.05 134.431 185.378 136.654" stroke="#56114A" style="stroke:#56114A;stroke:color(display-p3 0.3373 0.0667 0.2902);stroke-opacity:1;" stroke-width="0.96" stroke-linecap="round" stroke-linejoin="round"/>
<path d="M226.839 143.276C226.839 143.276 222.836 139.284 219.696 137.872C216.555 136.443 205.425 144.542 204.286 154.214C203.147 163.887 219.126 169.746 219.126 169.746L226.839 143.276Z" fill="#D98609" style="fill:#D98609;fill:color(display-p3 0.8510 0.5255 0.0353);fill-opacity:1;"/>
<path d="M246.544 117.358C257.478 114.21 261.969 118.624 271.033 138.634C278.176 154.425 280.796 184.547 281.935 194.219C283.074 203.892 269.666 213.288 249.391 202.756C229.133 192.223 215.709 173.43 211.153 168.317C206.597 163.205 215.725 143.828 223.145 141.28C230.565 138.715 239.124 147.252 239.124 147.252C239.124 147.252 233.787 121.042 246.544 117.358Z" fill="#FFAA3F" style="fill:#FFAA3F;fill:color(display-p3 1.0000 0.6667 0.2471);fill-opacity:1;"/>
<path d="M257.478 206.066C254.94 205.32 252.239 204.232 249.408 202.756C229.149 192.223 215.725 173.43 211.169 168.317C206.613 163.205 215.741 143.828 223.161 141.28C230.581 138.716 239.14 147.252 239.14 147.252" stroke="#D98609" style="stroke:#D98609;stroke:color(display-p3 0.8510 0.5255 0.0353);stroke-opacity:1;" stroke-width="0.96" stroke-linecap="round" stroke-linejoin="round"/>
<path d="M242.427 150.368C242.427 150.368 258.65 163.676 265.468 184.303" stroke="#D98609" style="stroke:#D98609;stroke:color(display-p3 0.8510 0.5255 0.0353);stroke-opacity:1;" stroke-width="0.96" stroke-linecap="round" stroke-linejoin="round"/>
<path d="M140.647 95.1566L140.355 86.62L157.489 96.5847L143.788 97.4449L140.647 95.1566Z" fill="#D9CFCA" style="fill:#D9CFCA;fill:color(display-p3 0.8510 0.8118 0.7922);fill-opacity:1;"/>
<path d="M165.478 100.285C165.478 100.285 155.78 83.2119 153.779 81.7838C151.777 80.3556 152.64 90.3203 149.499 94.0205C146.359 97.7208 140.371 86.62 140.371 86.62L133.813 100.285C133.813 100.285 152.656 104.553 157.782 108.253C160.678 110.347 162.956 119.971 164.372 127.956C164.795 130.309 168.114 130.568 168.863 128.296C169.676 125.846 174.314 123.768 175.892 125.164C177.129 126.252 179.114 125.326 179.081 123.671C179.049 121.448 179.358 119.159 180.595 118.023C181.994 116.741 183.475 116.076 184.711 115.719C185.639 115.459 185.867 114.258 185.069 113.706C179.895 110.12 167.935 101.827 165.494 100.285H165.478Z" fill="white" style="fill:white;fill-opacity:1;"/>
<path d="M178.609 103.693C178.609 103.693 171.564 118.656 170.913 120.993C169.806 124.969 165.771 135.583 164.062 137.011C162.354 138.44 151.501 138.44 148.653 135.583C145.806 132.743 150.655 103.693 150.655 103.693C150.655 103.693 163.786 89.168 167.203 88.3241C170.62 87.464 163.786 99.4248 163.786 99.4248C163.786 99.4248 167.496 92.0243 171.206 90.8883C174.916 89.7523 179.195 100.853 178.626 103.693H178.609Z" fill="#93405C" style="fill:#93405C;fill:color(display-p3 0.5765 0.2510 0.3608);fill-opacity:1;"/>
<path d="M147.791 127.81C152.607 126.868 160.206 126.105 168.505 127.923C166.943 131.98 165.071 136.151 164.046 137.011C163.932 137.109 163.77 137.19 163.574 137.271L147.742 131.185C147.709 130.163 147.742 129.027 147.791 127.81Z" fill="#56114A" style="fill:#56114A;fill:color(display-p3 0.3373 0.0667 0.2902);fill-opacity:1;"/>
<path d="M175.16 101.421C175.16 101.421 170.718 105.202 167.301 111.207" stroke="#56114A" style="stroke:#56114A;stroke:color(display-p3 0.3373 0.0667 0.2902);stroke-opacity:1;" stroke-width="0.96" stroke-linecap="round" stroke-linejoin="round"/>
<path d="M172.54 96.0654C172.54 96.0654 165.999 99.8468 162.989 106.777" stroke="#56114A" style="stroke:#56114A;stroke:color(display-p3 0.3373 0.0667 0.2902);stroke-opacity:1;" stroke-width="0.96" stroke-linecap="round" stroke-linejoin="round"/>
<path d="M159.311 131.98C159.311 131.98 165.039 133.977 165.787 135.892C166.536 137.807 165.039 146.781 164.29 147.706C163.542 148.631 148.832 150.384 144.585 146.83C140.355 143.276 140.355 138.147 140.355 138.147C140.355 138.147 143.349 130.163 145.334 128.832C147.335 127.501 155.064 129.854 159.295 131.997L159.311 131.98Z" fill="#D98609" style="fill:#D98609;fill:color(display-p3 0.8510 0.5255 0.0353);fill-opacity:1;"/>
<path d="M154.641 140.988C165.82 144.022 168.342 149.816 168.911 156.925C169.481 164.049 163.2 183.394 162.923 197.919C162.631 212.444 147.791 223.821 138.955 225.525C130.103 227.229 120.975 211.568 122.114 195.631C123.253 179.694 131.242 146.668 134.106 141.539C136.954 136.411 148.376 139.267 154.657 140.971L154.641 140.988Z" fill="#FFAA3F" style="fill:#FFAA3F;fill:color(display-p3 1.0000 0.6667 0.2471);fill-opacity:1;"/>
<path d="M164.762 182.161C163.786 187.533 163.005 193.018 162.907 197.936C162.663 210.643 151.257 220.948 142.486 224.47" stroke="#D98609" style="stroke:#D98609;stroke:color(display-p3 0.8510 0.5255 0.0353);stroke-opacity:1;" stroke-width="0.96" stroke-linecap="round" stroke-linejoin="round"/>
</g>
</g>
<defs>
<linearGradient id="paint0_linear_1_6" x1="7151.18" y1="15377.6" x2="21666.3" y2="2572.25" gradientUnits="userSpaceOnUse">
<stop stop-color="#EEEEEE" style="stop-color:#EEEEEE;stop-color:color(display-p3 0.9333 0.9333 0.9333);stop-opacity:1;"/>
<stop offset="1" stop-color="#D8D8D8" style="stop-color:#D8D8D8;stop-color:color(display-p3 0.8471 0.8471 0.8471);stop-opacity:1;"/>
</linearGradient>
<clipPath id="clip0_1_6">
<rect width="299" height="224" fill="white" style="fill:white;fill-opacity:1;"/>
</clipPath>
<clipPath id="clip1_1_6">
<rect width="160" height="272" fill="white" style="fill:white;fill-opacity:1;" transform="matrix(-1 0 0 1 282 7)"/>
</clipPath>
</defs>
</svg>
