<svg width="299" height="224" xmlns="http://www.w3.org/2000/svg" xmlns:xlink="http://www.w3.org/1999/xlink"><defs><path id="a" d="M0 0h299v224H0z"/><path id="d" d="M.154.431h49.608V211H.154z"/><path id="f" d="M0 397h336V0H0z"/><linearGradient x1="23.917%" y1="68.65%" x2="84%" y2="28.94%" id="b"><stop stop-color="#EEE" offset="0%"/><stop stop-color="#D8D8D8" offset="100%"/></linearGradient></defs><g fill="none" fill-rule="evenodd"><mask id="c" fill="#fff"><use xlink:href="#a"/></mask><use fill="url(#b)" xlink:href="#a"/><g mask="url(#c)"><g transform="translate(-50 6)"><path d="M220.151 395L218 389.466c54.999-12.517 76.91-70.081 86.183-113.367 10.573-49.347 8.014-96.373 7.985-96.843l7.534-.256c.03.475 2.625 48.019-8.058 97.947C301.79 323.008 278.573 381.704 220.15 395" fill="#2B374D"/><g transform="translate(253 186)"><mask id="e" fill="#fff"><use xlink:href="#d"/></mask><path d="M5.468 211l-5.314-4.083C29.977 183.987 40.69 32.739 42.255.43l7.507.215C48.088 35.279 37.643 186.26 5.468 211" fill="#2B374D" mask="url(#e)"/></g><mask id="g" fill="#fff"><use xlink:href="#f"/></mask><path fill="#2B374D" mask="url(#g)" d="M180 373h39V154h-39z"/><path fill="#8493AE" mask="url(#g)" d="M241.458 228H0l127.157-79H336z"/><path fill="#65789A" mask="url(#g)" d="M336 194.652V148l-94 79.402V249z"/><path d="M132.155 158L54 209l59.348-2.833s21.628-22.667 43.254-17.827c16.062 3.595 11.675 20.66 11.675 20.66h62.138L296 158H132.155z" fill="#4C5A73" mask="url(#g)"/><path fill="#20293A" mask="url(#g)" d="M224 106.325L211.642 182l-4.642-.502L211.739 105z"/><path d="M224 201h-28v-22.648c0-5.717 4.677-10.352 10.445-10.352h7.11c5.77 0 10.445 4.635 10.445 10.352V201z" fill="#2B374D" mask="url(#g)"/><path fill="#20293A" mask="url(#g)" d="M139 113h132V0H139z"/><path fill="#4C5A73" mask="url(#g)" d="M143 109h123V5H143z"/><path fill="#65789A" mask="url(#g)" d="M276 1.478L271 0v113l2.5-1.94z"/><path fill="#191E27" mask="url(#g)" d="M152 99h82V9h-82z"/><path fill="#AEC2E7" mask="url(#g)" d="M244 46h20V10h-20zM244 85h20V49h-20zM196.633 43.828c-.824 0-1.604-.312-2.344-.939-.741-.626-1.112-1.417-1.112-2.373 0-1.45.691-3.066 2.073-4.846 1.383-1.78 2.814-2.67 4.295-2.67.987 0 1.81.305 2.468.915.658.61.987 1.492.987 2.645 0 1.418-.675 2.984-2.023 4.698-1.35 1.714-2.798 2.57-4.344 2.57m3.356 22.102v3.61c-3.192 4.12-6.17 7.227-8.934 9.32-2.764 2.093-5.117 3.14-7.058 3.14-2.7 0-4.706-1.417-6.022-4.253-1.316-2.835-1.975-5.933-1.975-9.296 0-1.285.132-2.512.395-3.682.264-1.17.576-2.135.939-2.894.36-.758 1.036-1.944 2.023-3.559 4.673-7.285 8.95-10.928 12.833-10.928 2.007 0 3.012.775 3.012 2.324 0 1.056-.651 2.703-1.95 4.944-1.3 2.243-2.46 3.84-3.48 4.796-2.863 2.77-4.73 4.698-5.602 5.786a5.764 5.764 0 00-1.308 3.707c0 1.188.444 2.177 1.333 2.967.888.792 2.039 1.187 3.454 1.187 1.547 0 3.25-.568 5.109-1.705 1.859-1.138 4.27-2.959 7.231-5.464"/></g></g></g></svg>