<svg width="299" height="224" viewBox="0 0 299 224" fill="none" xmlns="http://www.w3.org/2000/svg">
<g clip-path="url(#clip0_1_84)">
<path d="M0 0H299V224H0V0Z" fill="url(#paint0_linear_1_84)" style=""/>
<path d="M75.9829 41.5648H74.9365V151.652H75.9829V41.5648Z" fill="#E0E0E0" style="fill:#E0E0E0;fill:color(display-p3 0.8784 0.8784 0.8784);fill-opacity:1;"/>
<path d="M150.443 41.5648H149.396V151.652H150.443V41.5648Z" fill="#E0E0E0" style="fill:#E0E0E0;fill:color(display-p3 0.8784 0.8784 0.8784);fill-opacity:1;"/>
<path d="M224.906 41.5648H223.859V151.652H224.906V41.5648Z" fill="#E0E0E0" style="fill:#E0E0E0;fill:color(display-p3 0.8784 0.8784 0.8784);fill-opacity:1;"/>
<path d="M18.8346 28H1V30.8688H18.8346V28Z" fill="#D9D9D9" style="fill:#D9D9D9;fill:color(display-p3 0.8510 0.8510 0.8510);fill-opacity:1;"/>
<path d="M26.2989 33.3031H1V36.1719H26.2989V33.3031Z" fill="#D9D9D9" style="fill:#D9D9D9;fill:color(display-p3 0.8510 0.8510 0.8510);fill-opacity:1;"/>
<path d="M95.5949 28H74.657V30.8688H95.5949V28Z" fill="#D9D9D9" style="fill:#D9D9D9;fill:color(display-p3 0.8510 0.8510 0.8510);fill-opacity:1;"/>
<path d="M88.0446 33.3031H74.657V36.1719H88.0446V33.3031Z" fill="#D9D9D9" style="fill:#D9D9D9;fill:color(display-p3 0.8510 0.8510 0.8510);fill-opacity:1;"/>
<path d="M163.422 28H150.446V30.8688H163.422V28Z" fill="#D9D9D9" style="fill:#D9D9D9;fill:color(display-p3 0.8510 0.8510 0.8510);fill-opacity:1;"/>
<path d="M165.568 33.3031H150.446V36.1719H165.568V33.3031Z" fill="#D9D9D9" style="fill:#D9D9D9;fill:color(display-p3 0.8510 0.8510 0.8510);fill-opacity:1;"/>
<g opacity="0.43">
<path d="M273.038 118.943C249.814 118.943 229.625 108.883 208.576 98.3984C182.593 85.4511 155.725 72.0659 119.926 75.7317C97.0677 78.0727 82.7197 87.4008 70.0595 95.6301C58.5962 103.08 47.7599 109.633 33.0823 110.193C9.36726 111.094 1.13617 100.958 1 100.341V93.8349C1.02867 93.9462 6.2067 105.324 33.0608 105.188C46.2836 105.12 56.0448 98.7754 67.3468 91.4293C80.48 82.8911 95.3655 73.2148 119.421 70.7518C156.656 66.9387 184.18 80.6543 210.802 93.9175C238.655 107.795 265.237 120.81 298.846 109.518V114.864C289.267 118.081 281.603 118.939 273.042 118.939L273.038 118.943Z" fill="url(#paint1_linear_1_84)" style=""/>
</g>
<g opacity="0.22">
<path d="M133.633 117.697C116.49 117.697 102.894 106.147 89.5819 94.8366C79.4874 86.2626 69.0167 77.4947 56.9299 73.1717C20.0422 59.9767 1.16842 84.0724 1 84.2842V76.9525C1.20067 76.7012 4.56549 72.3208 14.3052 68.1415C23.1741 64.3356 38.0489 61.298 58.5711 68.4503C71.5717 72.9814 82.3685 82.1515 92.8106 91.0236C113.992 109.019 132.285 124.555 164.052 100.215C188.115 81.7781 210.794 64.2099 233.112 57.7937C254.938 51.5176 277.697 56.1134 299 77.4552L298.842 84.1119C253.595 38.5739 215.066 67.427 167.084 104.19C154.374 113.927 143.423 117.697 133.633 117.697Z" fill="url(#paint2_linear_1_84)" style=""/>
</g>
<path opacity="0.72" d="M115.41 14.483H246.573C251.751 14.483 255.952 18.6845 255.952 23.8616V157.463C255.952 162.64 251.751 166.841 246.573 166.841H115.41C110.233 166.841 106.031 162.64 106.031 157.463V23.8616C106.031 18.6845 110.233 14.483 115.41 14.483Z" fill="url(#paint3_linear_1_84)" style=""/>
<path d="M163.748 112.043C160.64 103.355 152.338 98.0183 143.585 98.281C141.466 98.3453 139.322 98.7367 137.217 99.4886C130.844 101.77 126.27 106.846 124.392 112.845C123.089 117.002 123.081 121.603 124.663 126.02C124.82 126.459 124.99 126.892 125.175 127.314C126.005 129.229 127.098 130.959 128.392 132.48C133.824 138.865 142.836 141.562 151.197 138.574C161.99 134.714 167.609 122.836 163.751 112.043H163.748ZM149.444 133.682C143.177 135.924 136.42 133.9 132.348 129.114C131.378 127.974 130.558 126.677 129.935 125.24C129.798 124.924 129.67 124.6 129.552 124.27C128.367 120.957 128.375 117.508 129.351 114.391C130.76 109.893 134.187 106.086 138.964 104.378C140.541 103.813 142.151 103.52 143.739 103.472C150.3 103.274 156.525 107.277 158.856 113.79C161.75 121.883 157.537 130.789 149.444 133.682Z" fill="url(#paint4_linear_1_84)" style=""/>
<path d="M129.351 114.394L124.392 112.845C126.27 106.846 130.841 101.77 137.217 99.4886C139.322 98.7367 141.466 98.3453 143.585 98.281L143.739 103.475C142.151 103.522 140.541 103.816 138.964 104.381C134.184 106.089 130.757 109.896 129.351 114.394Z" fill="#3788CC" style="fill:#3788CC;fill:color(display-p3 0.2157 0.5333 0.8000);fill-opacity:1;"/>
<path d="M129.935 125.24L125.172 127.314C124.987 126.892 124.817 126.459 124.66 126.02C123.081 121.6 123.089 117.002 124.389 112.845L129.348 114.394C128.372 117.511 128.367 120.96 129.549 124.273C129.667 124.603 129.795 124.927 129.932 125.243L129.935 125.24Z" fill="#2273B5" style="fill:#2273B5;fill:color(display-p3 0.1333 0.4510 0.7098);fill-opacity:1;"/>
<path d="M128.389 132.48C127.095 130.959 126.002 129.226 125.172 127.314L129.935 125.24C130.558 126.674 131.375 127.974 132.347 129.114L128.389 132.48Z" fill="#2273B5" style="fill:#2273B5;fill:color(display-p3 0.1333 0.4510 0.7098);fill-opacity:1;"/>
<path d="M158.264 149.977H126.69V152.411H158.264V149.977Z" fill="white" style="fill:white;fill-opacity:1;"/>
<path d="M150.316 155.151H126.69V157.586H150.316V155.151Z" fill="white" style="fill:white;fill-opacity:1;"/>
<path d="M275.794 125.886C275.794 125.886 275.802 125.886 275.808 125.886C275.744 125.914 275.735 125.916 275.794 125.886Z" fill="#323657" style="fill:#323657;fill:color(display-p3 0.1961 0.2118 0.3412);fill-opacity:1;"/>
<path d="M235.034 127.342C237.617 120.818 235.548 113.603 230.416 109.362C229.172 108.336 227.752 107.484 226.17 106.857C221.384 104.962 216.224 105.571 212.14 108.057C209.311 109.779 206.999 112.403 205.685 115.722C205.554 116.051 205.436 116.384 205.327 116.717C204.844 118.226 204.598 119.764 204.572 121.284C204.472 127.658 208.268 133.721 214.546 136.206C222.65 139.415 231.822 135.446 235.031 127.342H235.034ZM216.006 132.533C211.298 130.669 208.452 126.123 208.528 121.346C208.545 120.208 208.729 119.054 209.093 117.922C209.174 117.673 209.263 117.421 209.361 117.175C210.345 114.687 212.078 112.719 214.2 111.428C217.261 109.563 221.13 109.108 224.716 110.528C225.901 110.997 226.966 111.635 227.9 112.406C231.749 115.585 233.298 120.994 231.364 125.886C228.957 131.963 222.083 134.937 216.006 132.53V132.533Z" fill="white" style="fill:white;fill-opacity:1;"/>
<path d="M214.2 111.428L212.142 108.057C216.224 105.571 221.384 104.962 226.173 106.857C227.752 107.484 229.175 108.336 230.419 109.362L227.903 112.406C226.972 111.637 225.904 110.997 224.719 110.528C221.13 109.108 217.264 109.563 214.203 111.428H214.2Z" fill="#2273B5" style="fill:#2273B5;fill:color(display-p3 0.1333 0.4510 0.7098);fill-opacity:1;"/>
<path d="M209.093 117.922L205.33 116.717C205.436 116.384 205.556 116.051 205.688 115.722C207.002 112.403 209.313 109.779 212.142 108.057L214.2 111.428C212.078 112.719 210.345 114.687 209.361 117.175C209.263 117.424 209.174 117.673 209.093 117.922Z" fill="#2273B5" style="fill:#2273B5;fill:color(display-p3 0.1333 0.4510 0.7098);fill-opacity:1;"/>
<path d="M204.575 121.284C204.598 119.764 204.844 118.229 205.33 116.717L209.093 117.922C208.729 119.054 208.545 120.205 208.528 121.346L204.578 121.284H204.575Z" fill="#3788CC" style="fill:#3788CC;fill:color(display-p3 0.2157 0.5333 0.8000);fill-opacity:1;"/>
<path d="M229.066 149.895H211.656V152.33H229.066V149.895Z" fill="white" style="fill:white;fill-opacity:1;"/>
<path d="M233.284 155.073H207.441V157.507H233.284V155.073Z" fill="white" style="fill:white;fill-opacity:1;"/>
<path opacity="0.72" d="M274.729 97.4927H261.761V99.5753H274.729V97.4927Z" fill="url(#paint5_linear_1_84)" style=""/>
<path opacity="0.72" d="M280.155 101.342H261.761V103.425H280.155V101.342Z" fill="url(#paint6_linear_1_84)" style=""/>
<path d="M235.929 169.969H105.33L102.09 166.729H94V166.008H102.389L105.629 169.248H235.929V169.969Z" fill="url(#paint7_linear_1_84)" style=""/>
<g style="mix-blend-mode:hard-light">
<path opacity="0.72" d="M194.076 17.6558H279.344C284.927 17.6558 289.458 22.1872 289.458 27.7696V82.7525C289.458 88.3349 284.927 92.8663 279.344 92.8663H194.076C188.493 92.8663 183.962 88.3349 183.962 82.7525V27.7724C183.962 22.19 188.493 17.6586 194.076 17.6586V17.6558Z" fill="url(#paint8_linear_1_84)" style=""/>
</g>
<path d="M262.163 31.7531H258.865V50.0881H262.163V31.7531Z" fill="url(#paint9_linear_1_84)" style=""/>
<path opacity="0.72" d="M262.163 38.4592H258.865V50.0881H262.163V38.4592Z" fill="url(#paint10_linear_1_84)" style=""/>
<path d="M262.163 64.2162H258.865V82.5512H262.163V64.2162Z" fill="url(#paint11_linear_1_84)" style=""/>
<path d="M262.163 72.8903H258.865V82.5485H262.163V72.8903Z" fill="#2273B5" style="fill:#2273B5;fill:color(display-p3 0.1333 0.4510 0.7098);fill-opacity:1;"/>
<path d="M270.821 31.7531H267.522V50.0881H270.821V31.7531Z" fill="url(#paint12_linear_1_84)" style=""/>
<g opacity="0.72">
<path d="M270.821 36.55H267.522V50.0881H270.821V36.55Z" fill="url(#paint13_linear_1_84)" style=""/>
</g>
<path d="M270.821 64.2162H267.522V82.5512H270.821V64.2162Z" fill="url(#paint14_linear_1_84)" style=""/>
<path d="M270.821 76.0156H267.522V82.5485H270.821V76.0156Z" fill="#2273B5" style="fill:#2273B5;fill:color(display-p3 0.1333 0.4510 0.7098);fill-opacity:1;"/>
<path d="M279.481 31.7531H276.182V50.0881H279.481V31.7531Z" fill="url(#paint15_linear_1_84)" style=""/>
<path opacity="0.72" d="M279.481 41.4783H276.182V50.0881H279.481V41.4783Z" fill="url(#paint16_linear_1_84)" style=""/>
<path d="M279.481 64.2162H276.182V82.5512H279.481V64.2162Z" fill="url(#paint17_linear_1_84)" style=""/>
<path d="M279.481 70.9223H276.182V82.5512H279.481V70.9223Z" fill="#2273B5" style="fill:#2273B5;fill:color(display-p3 0.1333 0.4510 0.7098);fill-opacity:1;"/>
<path d="M250.294 44.707C245.933 32.5162 234.285 25.0301 222.005 25.3991C219.033 25.4886 216.022 26.0393 213.071 27.0931C204.128 30.2911 197.713 37.4166 195.079 45.8336C193.254 51.6676 193.243 58.1194 195.459 64.3196C195.68 64.9374 195.921 65.544 196.175 66.1338C197.341 68.8174 198.873 71.2466 200.69 73.3823C208.31 82.3416 220.954 86.1266 232.683 81.9335C247.826 76.516 255.712 59.8525 250.294 44.707ZM230.226 75.0707C221.432 78.2156 211.952 75.3782 206.239 68.6609C204.877 67.0591 203.728 65.2393 202.856 63.2266C202.663 62.7821 202.484 62.3293 202.317 61.8652C200.653 57.2193 200.665 52.3804 202.031 48.0084C204.008 41.6963 208.816 36.3571 215.519 33.9587C217.733 33.1676 219.989 32.7538 222.217 32.6867C231.422 32.41 240.158 38.0232 243.429 47.1614C247.488 58.5163 241.578 71.009 230.223 75.0707H230.226Z" fill="white" style="fill:white;fill-opacity:1;"/>
<path d="M202.034 48.0056L195.076 45.8336C197.712 37.4166 204.125 30.2939 213.068 27.0931C216.02 26.0365 219.03 25.4886 222.002 25.3991L222.22 32.6839C219.992 32.751 217.736 33.1648 215.522 33.9559C208.816 36.3543 204.008 41.6936 202.034 48.0056Z" fill="#1A598C" style="fill:#1A598C;fill:color(display-p3 0.1020 0.3490 0.5490);fill-opacity:1;"/>
<path d="M202.856 63.2266L196.172 66.1366C195.915 65.544 195.675 64.9374 195.457 64.3224C193.24 58.1222 193.251 51.6704 195.076 45.8363L202.034 48.0084C200.664 52.3804 200.656 57.2192 202.319 61.8652C202.484 62.3265 202.663 62.7821 202.859 63.2266H202.856Z" fill="#2273B5" style="fill:#2273B5;fill:color(display-p3 0.1333 0.4510 0.7098);fill-opacity:1;"/>
<path d="M200.687 73.3823C198.87 71.2466 197.338 68.8174 196.172 66.1338L202.856 63.2238C203.728 65.2365 204.877 67.0591 206.239 68.6581L200.687 73.3795V73.3823Z" fill="#3788CC" style="fill:#3788CC;fill:color(display-p3 0.2157 0.5333 0.8000);fill-opacity:1;"/>
<path d="M152.2 81.3492H132.753V83.7449H152.2V81.3492Z" fill="white" style="fill:white;fill-opacity:1;"/>
<path d="M156.916 77.0806H128.034V79.4763H156.916V77.0806Z" fill="white" style="fill:white;fill-opacity:1;"/>
<path d="M142.52 49.2132C145.293 49.2132 147.54 46.9654 147.54 44.1926C147.54 41.4199 145.293 39.1721 142.52 39.1721C139.747 39.1721 137.499 41.4199 137.499 44.1926C137.499 46.9654 139.747 49.2132 142.52 49.2132Z" fill="white" style="fill:white;fill-opacity:1;"/>
<path d="M151.577 60.5626V70.1117C148.804 71.3724 145.721 72.0741 142.475 72.0741C139.23 72.0741 136.146 71.3724 133.373 70.1117V60.5626C133.373 55.5392 137.446 51.4607 142.475 51.4607C147.504 51.4607 151.577 55.5364 151.577 60.5626Z" fill="white" style="fill:white;fill-opacity:1;"/>
<path d="M142.475 72.6723C139.213 72.6723 136.068 71.993 133.127 70.6568C125.065 66.992 119.858 58.9049 119.858 50.0518C119.858 37.5787 130.005 27.4314 142.478 27.4314C154.951 27.4314 165.098 37.5787 165.098 50.0518C165.098 58.9049 159.888 66.992 151.826 70.6568C148.885 71.9958 145.74 72.6723 142.478 72.6723H142.475ZM142.475 28.625C130.662 28.625 121.048 38.2356 121.048 50.0518C121.048 58.438 125.982 66.0975 133.619 69.5694C136.404 70.8357 139.383 71.4786 142.475 71.4786C145.567 71.4786 148.544 70.8357 151.331 69.5694C158.968 66.0975 163.902 58.438 163.902 50.0518C163.902 38.2384 154.291 28.625 142.475 28.625Z" fill="white" style="fill:white;fill-opacity:1;"/>
<path d="M47.0368 64.6025C47.0368 64.6025 38.3236 76.4878 36.4521 83.1672C36.4521 83.1672 41.6372 94.3844 45.7609 93.2456L52.1943 76.821L46.9872 64.5844L47.0368 64.6025Z" fill="#FC7575" style="fill:#FC7575;fill:color(display-p3 0.9882 0.4588 0.4588);fill-opacity:1;"/>
<path d="M47.0368 64.6025L52.2439 76.8391L48.9729 85.2002C45.0766 83.5559 43.5744 76.2655 45.7124 69.0088C46.1147 67.7505 46.3139 66.5868 46.4454 65.4547C46.8111 64.9136 47.0368 64.6025 47.0368 64.6025Z" fill="#FD5E5A" style="fill:#FD5E5A;fill:color(display-p3 0.9922 0.3686 0.3529);fill-opacity:1;"/>
<path d="M67.1818 57.8936C67.2764 58.0967 67.2853 58.3809 67.3076 58.7823C67.3426 60.5371 66.6051 64.2581 64.0993 67.8968C61.0698 72.3562 55.1774 81.8976 51.4568 80.542C47.7361 79.1865 44.5377 72.2333 46.3639 65.9869C48.19 59.7405 46.7129 55.7746 50.6623 51.8751C54.5935 48.0252 67.2314 57.9117 67.2314 57.9117L67.1818 57.8936Z" fill="#FC7575" style="fill:#FC7575;fill:color(display-p3 0.9882 0.4588 0.4588);fill-opacity:1;"/>
<path d="M50.6126 51.857C54.5439 48.0072 67.1818 57.8936 67.1818 57.8936C67.2764 58.0967 67.2853 58.3809 67.3076 58.7823C67.3426 60.5371 66.6051 64.2581 64.0993 67.8968C63.7156 68.4875 63.246 69.1593 62.7403 69.9304C61.5055 68.0757 61.1147 65.2922 61.0039 62.0489C60.8959 61.7285 61.515 59.8749 58.6792 57.3246C57.4064 58.659 56.6488 58.2706 53.5616 61.1918C50.8236 68.3984 47.2511 68.3331 45.8259 67.9263C45.912 67.2271 46.0297 66.5957 46.2331 65.8831C48.0593 59.6367 46.5821 55.6708 50.5315 51.7713L50.6126 51.857Z" fill="#FD5E5A" style="fill:#FD5E5A;fill:color(display-p3 0.9922 0.3686 0.3529);fill-opacity:1;"/>
<path d="M52.1864 60.185C52.1864 60.185 54.556 57.8453 56.3699 56.8766C58.2335 55.926 58.2208 54.5727 58.2208 54.5727C58.2208 54.5727 62.6579 57.2007 62.7818 61.1793C62.9056 65.158 62.6811 70.8641 68.7214 70.4798C74.7616 70.0956 76.5255 62.4778 75.2853 62.026C74.0451 61.5741 73.3513 60.0851 73.3513 60.0851C73.3513 60.0851 71.4077 51.8471 69.0761 50.9977C66.7445 50.1482 69.6098 48.6073 65.8761 46.5165C62.1424 44.4257 57.6254 47.1069 57.6254 47.1069C57.6254 47.1069 56.6482 44.3907 52.863 45.3718C49.0778 46.3529 47.5389 54.8955 47.6001 58.1208C47.6613 61.3461 46.0301 65.9777 46.0301 65.9777C46.0301 65.9777 49.3127 68.0727 52.2044 60.1354L52.1864 60.185Z" fill="#1B2B80" style="fill:#1B2B80;fill:color(display-p3 0.1059 0.1686 0.5020);fill-opacity:1;"/>
<path d="M50.5908 58.0865C51.5614 56.8105 53.4196 57.2627 53.6261 58.8552C53.8238 60.1635 53.665 61.679 52.361 62.3278C49.6672 63.7065 48.7623 60.7919 50.3289 58.4968C50.3832 58.348 50.5547 58.1857 50.6585 58.055L50.5908 58.0865Z" fill="#FC7575" style="fill:#FC7575;fill:color(display-p3 0.9882 0.4588 0.4588);fill-opacity:1;"/>
<path d="M53.282 61.0337C53.4989 60.4384 53.4866 58.4672 52.3767 58.7371C51.2669 59.0071 49.7952 60.8873 51.0712 61.8579C52.3968 62.8465 53.1147 61.6471 53.282 61.0337Z" fill="#FD5E5A" style="fill:#FD5E5A;fill:color(display-p3 0.9922 0.3686 0.3529);fill-opacity:1;"/>
<path d="M56.0214 73.7199L58.1545 74.4971L60.1968 68.8913C60.233 68.7921 60.1699 68.6567 60.0707 68.6206C59.9715 68.5844 59.8361 68.6475 59.8 68.7467L57.9203 73.906L56.184 73.2734C56.0848 73.2373 55.9495 73.3003 55.9133 73.3996C55.8772 73.4988 55.9402 73.6341 56.0394 73.6703L56.0214 73.7199Z" fill="#18287D" style="fill:#18287D;fill:color(display-p3 0.0941 0.1569 0.4902);fill-opacity:1;"/>
<path d="M56.8285 66.8774C56.5935 67.5224 56.8097 68.163 57.3057 68.3438C57.8018 68.5245 58.3794 68.173 58.6144 67.5281C58.8493 66.8832 58.6332 66.2425 58.1371 66.0618C57.641 65.881 57.0634 66.2325 56.8285 66.8774Z" fill="#18287D" style="fill:#18287D;fill:color(display-p3 0.0941 0.1569 0.4902);fill-opacity:1;"/>
<path d="M61.0582 69.149C60.8414 69.7443 61.026 70.3173 61.4228 70.4618C61.8197 70.6064 62.3296 70.2865 62.5465 69.6912C62.7634 69.0959 62.5788 68.5229 62.1819 68.3783C61.785 68.2337 61.2751 68.5537 61.0582 69.149Z" fill="#18287D" style="fill:#18287D;fill:color(display-p3 0.0941 0.1569 0.4902);fill-opacity:1;"/>
<path d="M53.0646 77.3629C53.511 77.5255 53.7952 77.5167 53.7952 77.5167C53.8944 77.5528 53.9983 77.4221 54.0344 77.3229C54.0706 77.2236 53.9398 77.1198 53.8406 77.0837C53.7414 77.0475 51.7071 76.9245 50.9464 74.2311C50.9329 74.1138 50.7841 74.0595 50.6983 74.1407C50.581 74.1541 50.5268 74.303 50.5899 74.4383C51.121 76.3738 52.3024 77.1414 53.0961 77.4306L53.0646 77.3629Z" fill="#18287D" style="fill:#18287D;fill:color(display-p3 0.0941 0.1569 0.4902);fill-opacity:1;"/>
<path d="M60.2895 64.9354C60.2895 64.9354 59.6949 63.4825 58.4547 63.0307C57.2145 62.5788 55.7117 63.7733 55.7117 63.7733C55.7117 63.7733 57.0565 62.8584 58.0575 63.5041C59.0269 64.082 60.0184 65.6795 60.0184 65.6795L60.2895 64.9354Z" fill="#18287D" style="fill:#18287D;fill:color(display-p3 0.0941 0.1569 0.4902);fill-opacity:1;"/>
<path d="M125.668 220.438C125.668 220.438 131.744 223.183 134.454 224.133C137.168 225.087 147.1 224.016 148.206 224.869C149.308 225.722 149.356 228.946 147.759 229.514C146.163 230.077 134.293 233.007 130.155 232.593C126.018 232.174 118.735 234.972 116.998 234.605C115.261 234.243 115.108 224.475 115.474 222.221C115.84 219.971 125.668 220.438 125.668 220.438Z" fill="#484E7D" style="fill:#484E7D;fill:color(display-p3 0.2824 0.3059 0.4902);fill-opacity:1;"/>
<path d="M124.268 216.522L125.664 220.438C125.664 220.438 118.341 223.05 115.47 222.221L114.509 218.228L124.264 216.522H124.268Z" fill="#FC7575" style="fill:#FC7575;fill:color(display-p3 0.9882 0.4588 0.4588);fill-opacity:1;"/>
<path d="M109.294 223.919C109.294 223.919 115.024 227.417 117.61 228.705C120.199 229.997 130.183 230.198 131.185 231.184C132.186 232.174 131.876 235.382 130.228 235.74C128.579 236.099 116.472 237.499 112.41 236.557C108.349 235.616 100.809 237.463 99.1246 236.883C97.4398 236.304 98.3647 226.584 98.9799 224.394C99.5911 222.205 109.298 223.923 109.298 223.923L109.294 223.919Z" fill="#5B639E" style="fill:#5B639E;fill:color(display-p3 0.3569 0.3882 0.6196);fill-opacity:1;"/>
<path d="M108.437 219.85L109.294 223.919C109.294 223.919 101.738 225.582 98.9759 224.39L98.4652 220.305L108.437 219.846V219.85Z" fill="#FC7575" style="fill:#FC7575;fill:color(display-p3 0.9882 0.4588 0.4588);fill-opacity:1;"/>
<path d="M51.0206 146.594C51.0206 146.594 77.1414 146.823 80.3422 147.278C83.8124 147.769 97.4036 148.208 99.0442 150.699C115.607 175.862 126.42 217.061 126.42 217.061L113.327 219.641C113.327 219.641 100.669 195.081 95.3649 182.326C90.604 170.872 86.5306 167.929 76.5302 168.183C66.5298 168.437 34.5543 166.231 16.1177 163.945L51.0166 146.598L51.0206 146.594Z" fill="#212759" style="fill:#212759;fill:color(display-p3 0.1313 0.1529 0.3479);fill-opacity:1;"/>
<path d="M48.2581 85.9873C48.2581 85.9873 56.0067 102.682 55.3794 108.885C54.7521 115.087 48.0852 132.277 47.6147 135.731C47.1443 139.184 50.5179 146.014 50.5179 146.014L15.6191 162.186C15.6191 162.186 14.2117 151.963 15.6191 140.19C17.0265 128.417 18.0599 115.759 19.612 109.106C24.9037 86.4019 38.9091 76.9918 38.9091 76.9918L48.2541 85.9914L48.2581 85.9873Z" fill="#7D7DA2" style="fill:#7D7DA2;fill:color(display-p3 0.4902 0.4902 0.6353);fill-opacity:1;"/>
<path d="M50.5179 146.014C50.5179 146.014 76.6388 146.244 79.8396 146.698C83.3098 147.189 97.2106 147.427 98.5416 150.123C108.031 169.31 110.166 220.518 110.166 220.518L97.9545 221.995C97.9545 221.995 91.9551 196.007 90.0732 183.626C88.1914 171.246 85.839 169.447 75.8386 169.7C65.8382 169.954 26.681 179.972 15.6191 162.186L50.5179 146.014Z" fill="#303664" style="fill:#303664;fill:color(display-p3 0.1886 0.2107 0.3927);fill-opacity:1;"/>
<path d="M27.9638 101.757C28.0402 98.5248 29.914 84.5706 37.7792 85.5245C45.6404 86.4784 44.7316 95.9207 44.0038 103.045C43.2438 110.495 39.3796 128.768 40.61 129.705C41.8405 130.643 51.1694 133.448 53.1719 133.851C55.1784 134.253 67.2697 137.224 68.2629 137.502C69.236 137.771 67.2898 142.48 67.2898 142.48C67.2898 142.48 33.7983 141.498 28.193 138.842C22.5876 136.185 27.9638 101.757 27.9638 101.757Z" fill="#FC7575" style="fill:#FC7575;fill:color(display-p3 0.9882 0.4588 0.4588);fill-opacity:1;"/>
<path d="M68.2629 137.502C68.2629 137.502 70.752 138.129 71.9502 138.226C73.1485 138.323 78.8303 136.065 80.5956 136.391C82.3608 136.717 93.7243 142.207 94.235 142.593C94.7457 142.979 93.9334 143.736 93.9334 143.736L67.2858 142.77L68.2589 137.502H68.2629Z" fill="#FC7575" style="fill:#FC7575;fill:color(display-p3 0.9882 0.4588 0.4588);fill-opacity:1;"/>
<path d="M101.635 143.862L57.3227 142.073L57.159 146.135L101.471 147.924L101.635 143.862Z" fill="#807066" style="fill:#807066;fill:color(display-p3 0.5020 0.4392 0.4000);fill-opacity:1;"/>
<path d="M112.638 104.775L97.6518 146.554L101.474 147.928L116.46 106.149L112.638 104.775Z" fill="#807066" style="fill:#807066;fill:color(display-p3 0.5020 0.4392 0.4000);fill-opacity:1;"/>
<path d="M27.3646 102.365L45.3187 103.013C45.3187 103.013 48.1053 84.313 37.7873 84.6752C27.4692 85.0335 27.3646 102.365 27.3646 102.365Z" fill="#6161A2" style="fill:#6161A2;fill:color(display-p3 0.3786 0.3786 0.6354);fill-opacity:1;"/>
<path d="M74.7369 169.004H-1V235.797H74.7369V169.004Z" fill="#FAB46C" style="fill:#FAB46C;fill:color(display-p3 0.9804 0.7059 0.4235);fill-opacity:1;"/>
<path d="M38.9131 76.9877C38.9131 76.9877 54.3179 104.852 53.9198 100.903C53.6061 97.8164 46.9352 82.9003 46.9352 82.9003L38.9172 76.9877H38.9131Z" fill="#FC7575" style="fill:#FC7575;fill:color(display-p3 0.9882 0.4588 0.4588);fill-opacity:1;"/>
</g>
<defs>
<linearGradient id="paint0_linear_1_84" x1="7151.18" y1="15377.6" x2="21666.3" y2="2572.25" gradientUnits="userSpaceOnUse">
<stop stop-color="#EEEEEE" style="stop-color:#EEEEEE;stop-color:color(display-p3 0.9333 0.9333 0.9333);stop-opacity:1;"/>
<stop offset="1" stop-color="#D8D8D8" style="stop-color:#D8D8D8;stop-color:color(display-p3 0.8471 0.8471 0.8471);stop-opacity:1;"/>
</linearGradient>
<linearGradient id="paint1_linear_1_84" x1="1" y1="94.5243" x2="298.842" y2="94.5243" gradientUnits="userSpaceOnUse">
<stop stop-color="#FFC05C" style="stop-color:#FFC05C;stop-color:color(display-p3 1.0000 0.7529 0.3608);stop-opacity:1;"/>
<stop offset="1" stop-color="#FF3857" style="stop-color:#FF3857;stop-color:color(display-p3 1.0000 0.2196 0.3412);stop-opacity:1;"/>
</linearGradient>
<linearGradient id="paint2_linear_1_84" x1="1" y1="86.4493" x2="299" y2="86.4493" gradientUnits="userSpaceOnUse">
<stop stop-color="#40D5E6" style="stop-color:#40D5E6;stop-color:color(display-p3 0.2510 0.8353 0.9020);stop-opacity:1;"/>
<stop offset="1" stop-color="#5577FF" style="stop-color:#5577FF;stop-color:color(display-p3 0.3333 0.4667 1.0000);stop-opacity:1;"/>
</linearGradient>
<linearGradient id="paint3_linear_1_84" x1="180.99" y1="4.263" x2="180.99" y2="196.928" gradientUnits="userSpaceOnUse">
<stop stop-color="#40CDE6" style="stop-color:#40CDE6;stop-color:color(display-p3 0.2510 0.8039 0.9020);stop-opacity:1;"/>
<stop offset="0.2" stop-color="#40CDE6" style="stop-color:#40CDE6;stop-color:color(display-p3 0.2510 0.8039 0.9020);stop-opacity:1;"/>
<stop offset="1" stop-color="#5577FF" style="stop-color:#5577FF;stop-color:color(display-p3 0.3333 0.4667 1.0000);stop-opacity:1;"/>
</linearGradient>
<linearGradient id="paint4_linear_1_84" x1="123.444" y1="119.031" x2="164.964" y2="119.031" gradientUnits="userSpaceOnUse">
<stop stop-color="#D5E4FF" style="stop-color:#D5E4FF;stop-color:color(display-p3 0.8353 0.8941 1.0000);stop-opacity:1;"/>
<stop offset="1" stop-color="#EDFFFE" style="stop-color:#EDFFFE;stop-color:color(display-p3 0.9294 1.0000 0.9961);stop-opacity:1;"/>
</linearGradient>
<linearGradient id="paint5_linear_1_84" x1="269.848" y1="113.944" x2="253.288" y2="-45.2573" gradientUnits="userSpaceOnUse">
<stop stop-color="#40CDE6" style="stop-color:#40CDE6;stop-color:color(display-p3 0.2510 0.8039 0.9020);stop-opacity:1;"/>
<stop offset="0.2" stop-color="#40CDE6" style="stop-color:#40CDE6;stop-color:color(display-p3 0.2510 0.8039 0.9020);stop-opacity:1;"/>
<stop offset="1" stop-color="#5577FF" style="stop-color:#5577FF;stop-color:color(display-p3 0.3333 0.4667 1.0000);stop-opacity:1;"/>
</linearGradient>
<linearGradient id="paint6_linear_1_84" x1="272.137" y1="113.706" x2="255.577" y2="-45.4955" gradientUnits="userSpaceOnUse">
<stop stop-color="#40CDE6" style="stop-color:#40CDE6;stop-color:color(display-p3 0.2510 0.8039 0.9020);stop-opacity:1;"/>
<stop offset="0.2" stop-color="#40CDE6" style="stop-color:#40CDE6;stop-color:color(display-p3 0.2510 0.8039 0.9020);stop-opacity:1;"/>
<stop offset="1" stop-color="#5577FF" style="stop-color:#5577FF;stop-color:color(display-p3 0.3333 0.4667 1.0000);stop-opacity:1;"/>
</linearGradient>
<linearGradient id="paint7_linear_1_84" x1="94" y1="167.99" x2="235.929" y2="167.99" gradientUnits="userSpaceOnUse">
<stop stop-color="#D5E4FF" style="stop-color:#D5E4FF;stop-color:color(display-p3 0.8353 0.8941 1.0000);stop-opacity:1;"/>
<stop offset="0.82" stop-color="#E9FAFE" style="stop-color:#E9FAFE;stop-color:color(display-p3 0.9137 0.9804 0.9961);stop-opacity:1;"/>
<stop offset="1" stop-color="#EDFFFE" style="stop-color:#EDFFFE;stop-color:color(display-p3 0.9294 1.0000 0.9961);stop-opacity:1;"/>
</linearGradient>
<linearGradient id="paint8_linear_1_84" x1="236.711" y1="133.419" x2="236.711" y2="57.4345" gradientUnits="userSpaceOnUse">
<stop stop-color="#40CDE6" style="stop-color:#40CDE6;stop-color:color(display-p3 0.2510 0.8039 0.9020);stop-opacity:1;"/>
<stop offset="0.2" stop-color="#40CDE6" style="stop-color:#40CDE6;stop-color:color(display-p3 0.2510 0.8039 0.9020);stop-opacity:1;"/>
<stop offset="1" stop-color="#5577FF" style="stop-color:#5577FF;stop-color:color(display-p3 0.3333 0.4667 1.0000);stop-opacity:1;"/>
</linearGradient>
<linearGradient id="paint9_linear_1_84" x1="258.865" y1="40.922" x2="262.161" y2="40.922" gradientUnits="userSpaceOnUse">
<stop stop-color="#D5E4FF" style="stop-color:#D5E4FF;stop-color:color(display-p3 0.8353 0.8941 1.0000);stop-opacity:1;"/>
<stop offset="1" stop-color="#EDFFFE" style="stop-color:#EDFFFE;stop-color:color(display-p3 0.9294 1.0000 0.9961);stop-opacity:1;"/>
</linearGradient>
<linearGradient id="paint10_linear_1_84" x1="260.511" y1="30.2827" x2="260.511" y2="51.1336" gradientUnits="userSpaceOnUse">
<stop stop-color="#40CDE6" style="stop-color:#40CDE6;stop-color:color(display-p3 0.2510 0.8039 0.9020);stop-opacity:1;"/>
<stop offset="0.2" stop-color="#40CDE6" style="stop-color:#40CDE6;stop-color:color(display-p3 0.2510 0.8039 0.9020);stop-opacity:1;"/>
<stop offset="1" stop-color="#5577FF" style="stop-color:#5577FF;stop-color:color(display-p3 0.3333 0.4667 1.0000);stop-opacity:1;"/>
</linearGradient>
<linearGradient id="paint11_linear_1_84" x1="258.865" y1="73.3823" x2="262.161" y2="73.3823" gradientUnits="userSpaceOnUse">
<stop stop-color="#D5E4FF" style="stop-color:#D5E4FF;stop-color:color(display-p3 0.8353 0.8941 1.0000);stop-opacity:1;"/>
<stop offset="1" stop-color="#EDFFFE" style="stop-color:#EDFFFE;stop-color:color(display-p3 0.9294 1.0000 0.9961);stop-opacity:1;"/>
</linearGradient>
<linearGradient id="paint12_linear_1_84" x1="267.522" y1="40.922" x2="270.821" y2="40.922" gradientUnits="userSpaceOnUse">
<stop stop-color="#D5E4FF" style="stop-color:#D5E4FF;stop-color:color(display-p3 0.8353 0.8941 1.0000);stop-opacity:1;"/>
<stop offset="1" stop-color="#EDFFFE" style="stop-color:#EDFFFE;stop-color:color(display-p3 0.9294 1.0000 0.9961);stop-opacity:1;"/>
</linearGradient>
<linearGradient id="paint13_linear_1_84" x1="267.522" y1="43.3205" x2="270.821" y2="43.3205" gradientUnits="userSpaceOnUse">
<stop stop-color="#40CDE6" style="stop-color:#40CDE6;stop-color:color(display-p3 0.2510 0.8039 0.9020);stop-opacity:1;"/>
<stop offset="0.2" stop-color="#40CDE6" style="stop-color:#40CDE6;stop-color:color(display-p3 0.2510 0.8039 0.9020);stop-opacity:1;"/>
<stop offset="1" stop-color="#5577FF" style="stop-color:#5577FF;stop-color:color(display-p3 0.3333 0.4667 1.0000);stop-opacity:1;"/>
</linearGradient>
<linearGradient id="paint14_linear_1_84" x1="267.522" y1="73.3823" x2="270.821" y2="73.3823" gradientUnits="userSpaceOnUse">
<stop stop-color="#D5E4FF" style="stop-color:#D5E4FF;stop-color:color(display-p3 0.8353 0.8941 1.0000);stop-opacity:1;"/>
<stop offset="1" stop-color="#EDFFFE" style="stop-color:#EDFFFE;stop-color:color(display-p3 0.9294 1.0000 0.9961);stop-opacity:1;"/>
</linearGradient>
<linearGradient id="paint15_linear_1_84" x1="276.182" y1="40.922" x2="279.481" y2="40.922" gradientUnits="userSpaceOnUse">
<stop stop-color="#D5E4FF" style="stop-color:#D5E4FF;stop-color:color(display-p3 0.8353 0.8941 1.0000);stop-opacity:1;"/>
<stop offset="1" stop-color="#EDFFFE" style="stop-color:#EDFFFE;stop-color:color(display-p3 0.9294 1.0000 0.9961);stop-opacity:1;"/>
</linearGradient>
<linearGradient id="paint16_linear_1_84" x1="277.832" y1="30.2827" x2="277.832" y2="51.1336" gradientUnits="userSpaceOnUse">
<stop stop-color="#40CDE6" style="stop-color:#40CDE6;stop-color:color(display-p3 0.2510 0.8039 0.9020);stop-opacity:1;"/>
<stop offset="0.2" stop-color="#40CDE6" style="stop-color:#40CDE6;stop-color:color(display-p3 0.2510 0.8039 0.9020);stop-opacity:1;"/>
<stop offset="1" stop-color="#5577FF" style="stop-color:#5577FF;stop-color:color(display-p3 0.3333 0.4667 1.0000);stop-opacity:1;"/>
</linearGradient>
<linearGradient id="paint17_linear_1_84" x1="276.182" y1="73.3823" x2="279.481" y2="73.3823" gradientUnits="userSpaceOnUse">
<stop stop-color="#D5E4FF" style="stop-color:#D5E4FF;stop-color:color(display-p3 0.8353 0.8941 1.0000);stop-opacity:1;"/>
<stop offset="1" stop-color="#EDFFFE" style="stop-color:#EDFFFE;stop-color:color(display-p3 0.9294 1.0000 0.9961);stop-opacity:1;"/>
</linearGradient>
<clipPath id="clip0_1_84">
<rect width="299" height="224" fill="white" style="fill:white;fill-opacity:1;"/>
</clipPath>
</defs>
</svg>
