<?xml version="1.0" encoding="UTF-8"?>
<svg width="299px" height="224px" viewBox="0 0 299 224" version="1.1" xmlns="http://www.w3.org/2000/svg" xmlns:xlink="http://www.w3.org/1999/xlink">
    <!-- Generator: Sketch 60.1 (88133) - https://sketch.com -->
    <title>mi-privacy</title>
    <desc>Created with Sketch.</desc>
    <defs>
        <linearGradient x1="23.9173266%" y1="68.6503384%" x2="83.9996625%" y2="28.9398055%" id="linearGradient-1">
            <stop stop-color="#EEEEEE" offset="0%"></stop>
            <stop stop-color="#D8D8D8" offset="100%"></stop>
        </linearGradient>
        <rect id="path-2" x="0" y="0" width="299" height="224"></rect>
        <polygon id="path-4" points="0.000399505876 0.129901692 154.509297 0.129901692 154.509297 85.1650485 0.000399505876 85.1650485"></polygon>
        <polygon id="path-6" points="0.000399505876 0.129901692 154.509297 0.129901692 154.509297 85.1650485 0.000399505876 85.1650485"></polygon>
        <polygon id="path-8" points="0.319368881 0.433222065 62.8945594 0.433222065 62.8945594 80.8764645 0.319368881 80.8764645"></polygon>
        <polygon id="path-10" points="0.309978824 0.474103036 60.885324 0.474103036 60.885324 69.8774299 0.309978824 69.8774299"></polygon>
    </defs>
    <g id="Symbols" stroke="none" stroke-width="1" fill="none" fill-rule="evenodd">
        <g id="Privacy">
            <g id="klachtenregeling">
                <g id="mi-privacy">
                    <mask id="mask-3" fill="white">
                        <use xlink:href="#path-2"></use>
                    </mask>
                    <use id="Mask" fill="url(#linearGradient-1)" xlink:href="#path-2"></use>
                    <g id="Group-33" mask="url(#mask-3)">
                        <g transform="translate(57.000000, 17.000000)">
                            <g id="Group-3" stroke-width="1" fill="none" transform="translate(0.000000, 43.000000)">
                                <mask id="mask-5" fill="white">
                                    <use xlink:href="#path-4"></use>
                                </mask>
                                <g id="Clip-2"></g>
                                <path d="M154.509297,6.11216632 L154.509297,79.164821 C154.509297,82.4909924 151.664815,85.1652504 148.159151,85.1652504 L6.35054541,85.1652504 C2.84488134,85.1652504 0.000399505876,82.4909924 0.000399505876,79.164821 L0.000399505876,6.11216632 C0.000399505876,2.80415967 2.84488134,0.129901692 6.35054541,0.129901692 L148.159151,0.129901692 C151.664815,0.129901692 154.509297,2.80415967 154.509297,6.11216632" id="Fill-1" fill="#7C7CBE" mask="url(#mask-5)"></path>
                            </g>
                            <path d="M51.9946143,108 L20.0053857,108 C17.7932479,108 16,106.209669 16,103.996677 L16,64.0033228 C16,61.7923243 17.7932479,60 20.0053857,60 L51.9946143,60 C54.2067521,60 56,61.7923243 56,64.0033228 L56,103.996677 C56,106.209669 54.2067521,108 51.9946143,108" id="Fill-4" fill="#B0B0D9"></path>
                            <path d="M44,74.0010646 C44,77.8657034 40.8657034,81 36.9989354,81 C33.1321673,81 30,77.8657034 30,74.0010646 C30,70.1364259 33.1321673,67 36.9989354,67 C40.8657034,67 44,70.1364259 44,74.0010646" id="Fill-6" fill="#D5D5E7"></path>
                            <path d="M43.3429868,102 L28.6550159,102 C26.6357694,102 25,100.392892 25,98.4090265 L25,91.6882154 C25,87.4418402 28.5032229,84 32.8253291,84 L39.1726736,84 C43.4947798,84 47,87.4418402 47,91.6882154 L47,98.4090265 C47,100.392892 45.3622333,102 43.3429868,102" id="Fill-8" fill="#D5D5E7"></path>
                            <path d="M108.258654,67 L73.7413456,67 C72.2283954,67 71,65.8815789 71,64.5 C71,63.1184211 72.2283954,62 73.7413456,62 L108.258654,62 C109.771605,62 111,63.1184211 111,64.5 C111,65.8815789 109.771605,67 108.258654,67" id="Fill-10" fill="#B0B0D9"></path>
                            <path d="M135.269949,77 L73.7320466,77 C72.2233342,77 71,75.8801608 71,74.4990866 C71,73.1198392 72.2233342,72 73.7320466,72 L135.269949,72 C136.778661,72 138,73.1198392 138,74.4990866 C138,75.8801608 136.778661,77 135.269949,77" id="Fill-12" fill="#B0B0D9"></path>
                            <path d="M135.269949,88 L73.7320466,88 C72.2233342,88 71,86.8815789 71,85.5 C71,84.1184211 72.2233342,83 73.7320466,83 L135.269949,83 C136.778661,83 138,84.1184211 138,85.5 C138,86.8815789 136.778661,88 135.269949,88" id="Fill-14" fill="#B0B0D9"></path>
                            <path d="M135.269949,99 L73.7320466,99 C72.2233342,99 71,97.8815789 71,96.5 C71,95.1184211 72.2233342,94 73.7320466,94 L135.269949,94 C136.778661,94 138,95.1184211 138,96.5 C138,97.8815789 136.778661,99 135.269949,99" id="Fill-16" fill="#B0B0D9"></path>
                            <path d="M135.269949,110 L73.7320466,110 C72.2233342,110 71,108.880161 71,107.499087 C71,106.119839 72.2233342,105 73.7320466,105 L135.269949,105 C136.778661,105 138,106.119839 138,107.499087 C138,108.880161 136.778661,110 135.269949,110" id="Fill-18" fill="#B0B0D9"></path>
                            <g id="Group-22" stroke-width="1" fill="none" transform="translate(0.000000, 43.000000)">
                                <mask id="mask-7" fill="white">
                                    <use xlink:href="#path-6"></use>
                                </mask>
                                <g id="Clip-21"></g>
                                <path d="M154.509297,6.11216632 L154.509297,79.164821 C154.509297,82.4909924 151.664815,85.1652504 148.159151,85.1652504 L6.35054541,85.1652504 C2.84488134,85.1652504 0.000399505876,82.4909924 0.000399505876,79.164821 L0.000399505876,50.8964004 L68.1141538,50.8964004 C95.863832,50.8964004 118.35801,28.1702534 118.35801,0.129901692 L148.159151,0.129901692 C151.664815,0.129901692 154.509297,2.80415967 154.509297,6.11216632" id="Fill-20" fill-opacity="0.106288243" fill="#E6D8D8" mask="url(#mask-7)"></path>
                            </g>
                            <g id="Group-25" stroke-width="1" fill="none" transform="translate(123.000000, 0.000000)">
                                <mask id="mask-9" fill="white">
                                    <use xlink:href="#path-8"></use>
                                </mask>
                                <g id="Clip-24"></g>
                                <path d="M62.8955507,19.795514 L62.8955507,40.511961 C62.5406801,63.0494376 32.5570857,80.3263825 31.627285,80.8625635 L31.6134073,80.8764645 L31.5995297,80.8764645 C31.5856521,80.8764645 31.5856521,80.8764645 31.5856521,80.8625635 C30.7787675,80.4097884 9.04442832,67.8730812 2.28800874,50.2942863 C1.09849825,47.1844362 0.372896853,43.911746 0.319368881,40.511961 L0.319368881,19.795514 C0.319368881,17.4124871 1.90538287,15.3293245 4.18924301,14.6581052 C16.0744353,11.1629992 23.9271871,5.46359321 28.0706486,1.77983083 C30.0809213,-0.0173685997 33.1181381,-0.0173685997 35.1284108,1.77983083 C38.4669703,4.75265686 44.2103234,9.0123174 52.5269843,12.3843004 C54.5392395,13.2064447 56.7001836,13.972985 59.0236941,14.6581052 C61.3095367,15.3293245 62.8955507,17.4124871 62.8955507,19.795514" id="Fill-23" fill="#FF787F" mask="url(#mask-9)"></path>
                            </g>
                            <g id="Group-32" stroke-width="1" fill="none" transform="translate(125.000000, 11.000000)">
                                <mask id="mask-11" fill="white">
                                    <use xlink:href="#path-10"></use>
                                </mask>
                                <g id="Clip-31"></g>
                                <path d="M60.8863148,7.98390924 L60.8863148,28.9759506 C60.5316269,51.8132471 30.5634706,69.32003 29.6341486,69.863344 L29.6202782,69.8774299 L29.6064077,69.8774299 C29.5925372,69.8774299 29.5925372,69.8774299 29.5925372,69.863344 C28.7860681,69.4045455 7.06291961,56.7010604 0.309978824,38.8884118 L12.6963148,38.8884118 C33.5872346,38.8884118 50.523087,21.6915191 50.523087,0.474103036 C52.5600656,1.3172458 54.7516009,2.1040449 57.1115635,2.80632849 C59.3625438,3.4764157 60.8863148,5.60338921 60.8863148,7.98390924" id="Fill-30" fill-opacity="0.165018575" fill="#E6D8D8" mask="url(#mask-11)"></path>
                            </g>
                            <path d="M145.861364,26.7704752 C145.861364,21.7613751 149.967586,17.70273 155.001019,17.70273 C160.046679,17.70273 164.152901,21.7613751 164.152901,26.7704752 L164.152901,32.2831143 L145.861364,32.2831143 L145.861364,26.7704752 Z M166.853022,32.2831143 L165.854486,32.2831143 L165.854486,26.7704752 C165.854486,20.8270981 160.990193,16 155.001019,16 C149.024072,16 144.145514,20.8270981 144.145514,26.7704752 L144.145514,32.2831143 L143.146978,32.2831143 C140.870725,32.2831143 139,34.1233569 139,36.3983822 L139,57.8847321 C139,60.1597573 140.870725,62 143.146978,62 L166.853022,62 C169.143539,62 171,60.1597573 171,57.8847321 L171,36.3983822 C171,34.1233569 169.143539,32.2831143 166.853022,32.2831143 L166.853022,32.2831143 Z" id="Fill-26" fill="#D5D5E7"></path>
                            <path d="M159,45.0770614 C159,42.8248138 157.210128,41 155.001008,41 C152.789872,41 151,42.8248138 151,45.0770614 C151,46.3963524 151.612749,47.5656306 152.564122,48.3115849 L151,57 L159,57 L157.435878,48.3115849 C158.387251,47.5656306 159,46.3963524 159,45.0770614" id="Fill-28" fill="#282747"></path>
                        </g>
                    </g>
                </g>
            </g>
        </g>
    </g>
</svg>