<svg width="299" height="224" viewBox="0 0 299 224" fill="none" xmlns="http://www.w3.org/2000/svg">
<g clip-path="url(#clip0_7_1256)">
<path d="M0 0H299V224H0V0Z" fill="url(#paint0_linear_7_1256)" style=""/>
<g clip-path="url(#clip1_7_1256)">
<path d="M143.202 208.279C143.202 208.279 143.209 208.322 143.216 208.314C143.23 208.3 143.216 208.286 143.202 208.279Z" fill="#3A2A79" style="fill:#3A2A79;fill:color(display-p3 0.2275 0.1647 0.4745);fill-opacity:1;"/>
<path d="M143.202 208.279C143.202 208.279 143.209 208.322 143.216 208.314C143.23 208.3 143.216 208.286 143.202 208.279Z" fill="#3A2A79" style="fill:#3A2A79;fill:color(display-p3 0.2275 0.1647 0.4745);fill-opacity:1;"/>
<path d="M123.473 208.313C123.473 208.313 123.48 208.306 123.487 208.279C123.466 208.293 123.459 208.3 123.473 208.313Z" fill="#3A2A79" style="fill:#3A2A79;fill:color(display-p3 0.2275 0.1647 0.4745);fill-opacity:1;"/>
<path d="M123.473 208.313C123.473 208.313 123.48 208.306 123.487 208.279C123.466 208.293 123.459 208.3 123.473 208.313Z" fill="#3A2A79" style="fill:#3A2A79;fill:color(display-p3 0.2275 0.1647 0.4745);fill-opacity:1;"/>
<path d="M189.599 38.9626C189.385 16.8537 177.669 13.1546 165.554 12.2566C160.443 11.8788 144.098 11.9929 133.348 12.1212C122.599 11.9929 106.254 11.8788 101.142 12.2566C89.0203 13.1617 75.05 17.7517 74.8297 39.8606C74.8297 39.8606 75.3131 198.764 77.3464 208.45C79.3798 218.136 84.5981 222.833 98.5328 223.146C104.818 223.289 114.657 223.175 123.501 223.061C123.501 223.075 123.501 223.089 123.501 223.104C123.523 223.089 123.573 223.075 123.644 223.061C127.134 223.018 130.462 222.975 133.355 222.947C136.249 222.975 139.576 223.018 143.067 223.061C143.138 223.075 143.188 223.089 143.209 223.104C143.209 223.096 143.209 223.075 143.209 223.061C152.053 223.168 161.886 223.282 168.178 223.146C182.105 222.833 187.331 218.143 189.364 208.45C191.397 198.764 189.62 38.9626 189.62 38.9626H189.599Z" fill="#3A2A79" style="fill:#3A2A79;fill:color(display-p3 0.2275 0.1647 0.4745);fill-opacity:1;"/>
<path d="M184.48 38.3924C184.316 22.2134 177.576 18.6569 165.206 17.766C163.699 17.6591 160.037 17.5237 151.172 17.5237C146.202 17.5237 140.223 17.5664 133.412 17.6377H133.298C126.487 17.5593 120.508 17.5237 115.539 17.5237C106.673 17.5237 103.012 17.6519 101.505 17.766C86.5462 18.8493 80.1049 25.2782 79.9698 39.1906C80.1618 100.607 80.9581 194.566 82.3586 201.665C83.553 207.203 85.5153 211.465 98.6537 211.75H168.078C181.217 211.465 183.172 207.203 184.366 201.686C185.745 194.459 185.177 97.6915 184.494 38.3924H184.48Z" fill="white" style="fill:white;fill-opacity:1;"/>
<path d="M184.658 62.1406C184.601 56.1821 184.537 43.8234 184.473 38.3924C184.309 22.2134 177.569 18.6569 165.199 17.766C163.692 17.6591 160.03 17.5237 151.165 17.5237C146.195 17.5237 140.216 17.5664 133.405 17.6377H133.291C126.48 17.5593 120.501 17.5237 115.532 17.5237C106.666 17.5237 103.005 17.6519 101.497 17.766C86.539 18.8493 80.0978 25.2782 79.9627 39.1907C79.9769 44.8212 80.0054 57.8072 80.0338 63.8868C94.4946 63.901 170.247 63.4591 184.665 62.1334L184.658 62.1406Z" fill="#847AAB" style="fill:#847AAB;fill:color(display-p3 0.5176 0.4784 0.6706);fill-opacity:1;"/>
<path d="M118.297 20.8592C117.074 20.8592 115.916 21.5648 115.468 22.7123C115.304 23.1257 115.233 23.5961 115.354 24.0808C115.788 25.8341 116.52 25.9766 119.719 25.8341C122.499 25.7058 144.553 26.0123 150.048 26.0479C151.3 26.055 151.577 25.1712 152.046 24.0024C152.224 23.5534 152.309 23.0402 152.188 22.47C151.755 20.4245 148.619 21.0089 147.453 20.8664C146.437 20.7381 124.255 20.8378 118.29 20.8664L118.297 20.8592Z" fill="#3A2A79" style="fill:#3A2A79;fill:color(display-p3 0.2275 0.1647 0.4745);fill-opacity:1;"/>
<path d="M91.992 72.746C91.992 72.746 91.018 90.3576 93.4779 91.0133C96.0303 91.6975 112.595 91.6904 113.584 90.1437C114.373 88.9107 114.735 73.1594 113.214 71.848C111.685 70.5365 91.9992 71.0212 91.992 72.746Z" fill="#A0D2F4" style="fill:#A0D2F4;fill:color(display-p3 0.6275 0.8235 0.9569);fill-opacity:1;"/>
<path d="M92.8665 104.021C92.7528 106.102 92.6959 108.19 92.6817 110.278C92.6533 113.543 92.6035 116.942 93.2505 120.157C93.414 120.955 93.6344 122.117 94.388 122.594C95.1203 123.058 96.3858 122.979 97.2105 123.036C100.829 123.271 104.483 123.236 108.109 123.05C109.702 122.972 111.294 122.858 112.866 122.601C113.605 122.48 114.814 122.366 115.29 121.682C115.752 121.026 115.724 119.857 115.795 119.102C115.951 117.427 116.015 115.745 116.044 114.063C116.1 110.841 116.236 107.363 115.496 104.199C115.318 103.429 115.077 102.766 114.288 102.495C113.314 102.16 112.204 102.118 111.188 102.053C107.725 101.818 104.22 101.897 100.765 102.11C99.2082 102.203 97.6513 102.339 96.1085 102.567C95.2269 102.702 94.1036 102.802 93.3429 103.315C93.0798 103.493 92.9021 103.707 92.8737 104.028C92.831 104.619 93.7481 104.612 93.7908 104.028C93.7766 104.177 93.7268 104.149 93.805 104.106C93.9259 104.042 94.0467 103.978 94.1747 103.928C94.587 103.764 95.0421 103.678 95.4757 103.6C96.8123 103.344 98.1702 103.215 99.5211 103.108C102.777 102.852 106.055 102.773 109.318 102.88C110.562 102.923 111.828 102.966 113.058 103.158C113.712 103.258 114.224 103.272 114.444 103.835C114.856 104.883 114.899 106.145 114.984 107.256C115.112 108.938 115.148 110.62 115.148 112.303C115.148 113.985 115.112 115.667 115.013 117.342C114.949 118.475 114.913 119.658 114.657 120.77C114.522 121.368 114.138 121.411 113.413 121.568C112.076 121.867 110.69 121.967 109.332 122.06C105.877 122.295 102.4 122.324 98.9381 122.202C97.7721 122.16 96.5848 122.131 95.4331 121.946C94.6653 121.825 94.5159 121.383 94.3027 120.62C93.5277 117.819 93.613 114.69 93.5988 111.804C93.5917 109.352 93.6486 106.893 93.7694 104.441C93.7694 104.299 93.7837 104.156 93.7908 104.013C93.8263 103.422 92.9092 103.422 92.8737 104.013L92.8665 104.021Z" fill="#A0D2F4" style="fill:#A0D2F4;fill:color(display-p3 0.6275 0.8235 0.9569);fill-opacity:1;"/>
<path d="M92.8665 136.706C92.7528 138.788 92.6959 140.876 92.6817 142.964C92.6533 146.228 92.6035 149.628 93.2505 152.843C93.414 153.641 93.6344 154.803 94.388 155.28C95.1203 155.743 96.3858 155.665 97.2105 155.722C100.829 155.957 104.483 155.922 108.109 155.736C109.702 155.658 111.294 155.544 112.866 155.287C113.605 155.166 114.814 155.052 115.29 154.368C115.752 153.712 115.724 152.543 115.795 151.788C115.951 150.113 116.015 148.431 116.044 146.749C116.1 143.527 116.236 140.049 115.496 136.885C115.318 136.115 115.077 135.452 114.288 135.181C113.314 134.846 112.204 134.803 111.188 134.739C107.725 134.504 104.22 134.582 100.765 134.796C99.2082 134.889 97.6513 135.024 96.1085 135.252C95.2269 135.388 94.1036 135.488 93.3429 136.001C93.0798 136.179 92.9021 136.393 92.8737 136.714C92.831 137.305 93.7481 137.298 93.7908 136.714C93.7766 136.863 93.7268 136.835 93.805 136.792C93.9259 136.728 94.0467 136.664 94.1747 136.614C94.587 136.45 95.0421 136.364 95.4757 136.286C96.8123 136.029 98.1702 135.901 99.5211 135.794C102.777 135.538 106.055 135.459 109.318 135.566C110.562 135.609 111.828 135.652 113.058 135.844C113.712 135.944 114.224 135.958 114.444 136.521C114.856 137.569 114.899 138.83 114.984 139.942C115.112 141.624 115.148 143.306 115.148 144.988C115.148 146.67 115.112 148.352 115.013 150.027C114.949 151.161 114.913 152.344 114.657 153.456C114.522 154.054 114.138 154.097 113.413 154.254C112.076 154.553 110.69 154.653 109.332 154.746C105.877 154.981 102.4 155.009 98.9381 154.888C97.7721 154.845 96.5848 154.817 95.4331 154.632C94.6653 154.51 94.5159 154.069 94.3027 153.306C93.5277 150.505 93.613 147.376 93.5988 144.489C93.5917 142.038 93.6486 139.579 93.7694 137.127C93.7694 136.984 93.7837 136.842 93.7908 136.699C93.8263 136.108 92.9092 136.108 92.8737 136.699L92.8665 136.706Z" fill="#A0D2F4" style="fill:#A0D2F4;fill:color(display-p3 0.6275 0.8235 0.9569);fill-opacity:1;"/>
<path d="M92.8665 172.329C92.7528 174.41 92.6959 176.498 92.6817 178.586C92.6533 181.851 92.6035 185.25 93.2505 188.465C93.414 189.263 93.6344 190.425 94.388 190.902C95.1203 191.366 96.3858 191.287 97.2105 191.344C100.829 191.58 104.483 191.544 108.109 191.359C109.702 191.28 111.294 191.166 112.866 190.91C113.605 190.788 114.814 190.674 115.29 189.99C115.752 189.334 115.724 188.166 115.795 187.41C115.951 185.735 116.015 184.053 116.044 182.371C116.1 179.149 116.236 175.671 115.496 172.507C115.318 171.737 115.077 171.074 114.288 170.803C113.314 170.468 112.204 170.426 111.188 170.362C107.725 170.126 104.22 170.205 100.765 170.419C99.2082 170.511 97.6513 170.647 96.1085 170.875C95.2269 171.01 94.1036 171.11 93.3429 171.623C93.0798 171.801 92.9021 172.015 92.8737 172.336C92.831 172.927 93.7481 172.92 93.7908 172.336C93.7766 172.485 93.7268 172.457 93.805 172.414C93.9259 172.35 94.0467 172.286 94.1747 172.236C94.587 172.072 95.0421 171.987 95.4757 171.908C96.8123 171.652 98.1702 171.523 99.5211 171.416C102.777 171.167 106.055 171.081 109.318 171.188C110.562 171.231 111.828 171.274 113.058 171.466C113.712 171.566 114.224 171.58 114.444 172.143C114.856 173.191 114.899 174.453 114.984 175.564C115.112 177.246 115.148 178.929 115.148 180.611C115.148 182.293 115.112 183.975 115.013 185.65C114.949 186.783 114.913 187.966 114.657 189.078C114.522 189.677 114.138 189.719 113.413 189.876C112.076 190.175 110.69 190.275 109.332 190.368C105.877 190.603 102.4 190.632 98.9381 190.51C97.7721 190.468 96.5848 190.439 95.4331 190.254C94.6653 190.133 94.5159 189.691 94.3027 188.928C93.5277 186.127 93.613 182.998 93.5988 180.112C93.5917 177.66 93.6486 175.201 93.7694 172.749C93.7694 172.607 93.7837 172.464 93.7908 172.322C93.8263 171.73 92.9092 171.73 92.8737 172.322L92.8665 172.329Z" fill="#A0D2F4" style="fill:#A0D2F4;fill:color(display-p3 0.6275 0.8235 0.9569);fill-opacity:1;"/>
<path d="M117.501 68.8188C116.605 69.4175 104.562 83.1946 104.562 83.1946C104.562 83.1946 98.7816 73.4302 98.675 73.138C98.675 73.138 95.5326 74.3354 95.2269 75.3332C94.9211 76.331 101.419 88.312 104.164 88.1552C106.908 87.9984 120.914 71.684 120.914 71.684L117.501 68.826V68.8188Z" fill="#847AAB" style="fill:#847AAB;fill:color(display-p3 0.5176 0.4784 0.6706);fill-opacity:1;"/>
<path d="M117.153 42.1414C117.21 42.1984 117.259 42.2696 117.309 42.3552C117.359 42.4407 117.38 42.5191 117.38 42.5833C117.38 42.6973 117.352 42.7971 117.288 42.8826C117.231 42.9681 117.153 43.0394 117.067 43.0822C116.982 43.1249 116.89 43.1534 116.797 43.1534C116.733 43.1534 116.669 43.1392 116.605 43.1035C116.541 43.0679 116.477 43.018 116.413 42.9467C116.172 42.6759 115.916 42.4692 115.645 42.3338C115.382 42.1984 115.112 42.1271 114.835 42.1271C114.607 42.1271 114.401 42.177 114.224 42.2697C114.046 42.3623 113.904 42.4906 113.797 42.6545C113.69 42.8185 113.641 42.9966 113.641 43.2033C113.641 43.4528 113.733 43.6809 113.911 43.8733C114.088 44.0729 114.401 44.2653 114.842 44.4649C115.39 44.7001 115.823 44.9424 116.15 45.1918C116.477 45.4342 116.719 45.7121 116.875 46.0044C117.032 46.3037 117.103 46.6387 117.103 47.0164C117.103 47.3514 117.032 47.6721 116.897 47.9644C116.762 48.2566 116.57 48.5132 116.335 48.727C116.1 48.9408 115.823 49.1047 115.51 49.2259C115.198 49.3471 114.863 49.397 114.508 49.3827C114.273 49.3827 114.032 49.3399 113.79 49.2758C113.548 49.2116 113.321 49.119 113.1 49.0049C112.88 48.8909 112.688 48.7412 112.524 48.5702C112.418 48.4561 112.34 48.3564 112.29 48.2566C112.24 48.1639 112.212 48.0713 112.212 47.9857C112.212 47.8717 112.24 47.7719 112.297 47.6864C112.354 47.6009 112.425 47.5296 112.51 47.4726C112.595 47.4227 112.681 47.3942 112.766 47.3942C112.88 47.3942 112.972 47.4227 113.043 47.4868C113.114 47.551 113.178 47.6223 113.235 47.7007C113.392 47.8931 113.584 48.0356 113.825 48.1283C114.067 48.2209 114.302 48.278 114.536 48.278C114.771 48.278 114.991 48.2281 115.19 48.1212C115.39 48.0143 115.546 47.8717 115.667 47.6864C115.788 47.5011 115.845 47.3087 115.845 47.0948C115.845 46.8668 115.802 46.6601 115.717 46.4961C115.631 46.3251 115.489 46.1754 115.29 46.0329C115.091 45.8903 114.821 45.7549 114.487 45.6195C113.825 45.3415 113.306 45.0065 112.944 44.6288C112.581 44.2439 112.396 43.7878 112.396 43.2461C112.396 42.8327 112.503 42.455 112.731 42.12C112.951 41.785 113.242 41.5142 113.612 41.3146C113.982 41.115 114.38 41.0152 114.814 41.0152C115.091 41.0152 115.368 41.058 115.638 41.1364C115.909 41.2148 116.172 41.3431 116.42 41.507C116.669 41.671 116.904 41.8848 117.124 42.1414H117.153Z" fill="#A0D2F4" style="fill:#A0D2F4;fill:color(display-p3 0.6275 0.8235 0.9569);fill-opacity:1;"/>
<path d="M119.165 41.3645C119.186 41.1934 119.257 41.0723 119.371 41.001C119.485 40.9297 119.62 40.8941 119.762 40.8941C119.869 40.8941 119.968 40.9083 120.06 40.944C120.153 40.9725 120.231 41.0295 120.288 41.0936C120.345 41.1649 120.373 41.2576 120.359 41.3645C120.316 41.7422 120.267 42.1556 120.21 42.5975C120.153 43.0394 120.096 43.4884 120.046 43.9303C119.996 44.3722 119.975 44.7927 119.975 45.1847C119.975 45.8761 120.053 46.4534 120.217 46.9024C120.38 47.3514 120.615 47.6864 120.928 47.9002C121.241 48.1212 121.625 48.2281 122.087 48.2281C122.599 48.2281 122.982 48.0855 123.238 47.8004C123.494 47.5153 123.665 47.102 123.75 46.5674C123.836 46.0257 123.878 45.37 123.878 44.6003C123.878 44.4364 123.878 44.2154 123.878 43.9374C123.878 43.6595 123.878 43.3601 123.878 43.0394C123.878 42.7187 123.893 42.4122 123.907 42.12C123.921 41.8278 123.942 41.5783 123.971 41.3716C123.985 41.2647 124.02 41.1863 124.084 41.1222C124.148 41.0651 124.22 41.0224 124.305 40.9939C124.39 40.9725 124.468 40.9582 124.547 40.9582C124.646 40.9582 124.746 40.9796 124.838 41.0224C124.938 41.0651 125.016 41.1222 125.08 41.1934C125.144 41.2647 125.165 41.3574 125.144 41.4643C125.122 41.671 125.108 41.9062 125.094 42.1912C125.087 42.4692 125.08 42.7614 125.073 43.0679C125.073 43.3744 125.073 43.6595 125.073 43.9303C125.073 44.2011 125.073 44.4221 125.073 44.6003C125.073 45.0849 125.051 45.5553 125.016 46.0186C124.98 46.4819 124.902 46.9166 124.788 47.3158C124.675 47.722 124.511 48.0713 124.291 48.3777C124.07 48.6842 123.779 48.9194 123.423 49.0905C123.068 49.2615 122.62 49.3471 122.08 49.3471C121.461 49.3471 120.949 49.2402 120.53 49.0263C120.11 48.8125 119.769 48.5203 119.513 48.1425C119.257 47.7648 119.065 47.3372 118.951 46.8454C118.838 46.3536 118.781 45.8262 118.781 45.2702C118.781 44.8711 118.802 44.4363 118.852 43.9731C118.902 43.5098 118.958 43.0465 119.022 42.5975C119.086 42.1485 119.136 41.7351 119.172 41.3645H119.165Z" fill="#A0D2F4" style="fill:#A0D2F4;fill:color(display-p3 0.6275 0.8235 0.9569);fill-opacity:1;"/>
<path d="M127.22 41.5284C127.234 41.3716 127.284 41.2576 127.376 41.1792C127.469 41.1008 127.589 41.0651 127.753 41.0651C127.824 41.0651 127.895 41.0723 127.98 41.0936C128.059 41.1079 128.137 41.1435 128.208 41.1863C128.279 41.2291 128.343 41.2861 128.386 41.3431C128.428 41.4001 128.45 41.4785 128.443 41.5712L127.98 48.8695C127.98 49.0406 127.902 49.1618 127.774 49.233C127.639 49.3043 127.49 49.3399 127.326 49.3399C127.184 49.3399 127.056 49.3043 126.935 49.233C126.815 49.1618 126.758 49.0335 126.765 48.8624L127.227 41.5284H127.22ZM128.101 42.1699C128.016 42.1841 127.945 42.1699 127.881 42.1414C127.817 42.1057 127.767 42.0558 127.717 41.9917C127.675 41.9275 127.639 41.8563 127.611 41.7779C127.589 41.7066 127.575 41.6424 127.575 41.5854C127.575 41.4643 127.639 41.3645 127.767 41.2718C127.895 41.1863 128.116 41.1222 128.421 41.0794C128.585 41.058 128.741 41.0438 128.912 41.0295C129.075 41.0224 129.253 41.0152 129.445 41.0152C130.163 41.0152 130.76 41.1222 131.23 41.3288C131.699 41.5427 132.047 41.8135 132.282 42.1556C132.516 42.4977 132.63 42.8541 132.63 43.2318C132.63 43.5312 132.566 43.8305 132.431 44.1156C132.296 44.4007 132.104 44.6644 131.855 44.8996C131.606 45.1348 131.301 45.3344 130.945 45.4912C130.59 45.648 130.199 45.7478 129.758 45.7834C130.085 46.0044 130.391 46.2182 130.668 46.4249C130.945 46.6316 131.208 46.8311 131.457 47.0236C131.706 47.2231 131.955 47.4227 132.189 47.6223C132.424 47.8289 132.673 48.0499 132.936 48.2851C133.007 48.3564 133.05 48.4205 133.078 48.4775C133.099 48.5345 133.114 48.5987 133.114 48.67C133.114 48.7769 133.085 48.8767 133.021 48.9693C132.957 49.062 132.872 49.1404 132.772 49.2045C132.673 49.2687 132.573 49.2972 132.474 49.2972C132.41 49.2972 132.339 49.2829 132.268 49.2544C132.189 49.2259 132.111 49.1831 132.04 49.119C131.763 48.8695 131.45 48.5916 131.109 48.2993C130.767 48.0071 130.412 47.7078 130.035 47.4084C129.658 47.1091 129.289 46.824 128.905 46.546C128.528 46.2681 128.158 46.0115 127.803 45.7834L127.959 44.8141C128.037 44.8212 128.172 44.8355 128.357 44.864C128.549 44.8925 128.777 44.9067 129.047 44.9067C129.473 44.9067 129.836 44.8569 130.135 44.75C130.433 44.643 130.675 44.5076 130.86 44.3437C131.045 44.1798 131.18 44.0016 131.272 43.8163C131.358 43.631 131.407 43.4528 131.407 43.2817C131.407 43.0251 131.315 42.8042 131.13 42.6189C130.945 42.4336 130.696 42.2982 130.376 42.1984C130.064 42.0986 129.708 42.0487 129.303 42.0487C129.139 42.0487 129.004 42.0487 128.883 42.0558C128.763 42.063 128.649 42.0701 128.528 42.0843C128.407 42.0986 128.265 42.12 128.101 42.1485V42.1699Z" fill="#A0D2F4" style="fill:#A0D2F4;fill:color(display-p3 0.6275 0.8235 0.9569);fill-opacity:1;"/>
<path d="M133.782 42.1699C133.761 42.12 133.739 42.0558 133.725 41.9846C133.704 41.9133 133.697 41.8491 133.697 41.7921C133.697 41.6638 133.732 41.564 133.796 41.4928C133.86 41.4215 133.945 41.3645 134.045 41.3288C134.144 41.2932 134.244 41.279 134.344 41.279C134.479 41.279 134.585 41.3075 134.671 41.3716C134.756 41.4358 134.827 41.5284 134.884 41.6424C135.09 42.177 135.303 42.7472 135.524 43.3601C135.737 43.9731 135.95 44.6003 136.149 45.2489C136.355 45.8974 136.547 46.5318 136.725 47.1519C137.045 46.1184 137.408 45.1206 137.813 44.1441C138.218 43.1677 138.645 42.2625 139.107 41.4286C139.178 41.3075 139.249 41.2291 139.334 41.1863C139.413 41.1435 139.505 41.1222 139.612 41.1222C139.718 41.1222 139.818 41.1435 139.903 41.1863C139.996 41.2291 140.074 41.2861 140.131 41.3645C140.188 41.4429 140.223 41.5284 140.223 41.6282C140.223 41.6995 140.209 41.7779 140.18 41.8563C140.152 41.9418 140.116 42.0202 140.074 42.0986C139.789 42.6403 139.533 43.1321 139.306 43.5739C139.086 44.0158 138.879 44.4364 138.709 44.8284C138.531 45.2275 138.375 45.6266 138.218 46.0257C138.069 46.432 137.912 46.8596 137.763 47.3229C137.607 47.7791 137.443 48.2993 137.258 48.8624C137.216 49.005 137.145 49.1047 137.031 49.1689C136.924 49.233 136.803 49.2687 136.683 49.2758C136.562 49.2758 136.448 49.2473 136.334 49.176C136.22 49.1047 136.142 48.9907 136.1 48.8339C135.936 48.2993 135.765 47.7434 135.566 47.159C135.374 46.5745 135.175 45.9901 134.969 45.4057C134.763 44.8141 134.557 44.2439 134.358 43.6951C134.152 43.1463 133.96 42.6331 133.768 42.1627L133.782 42.1699Z" fill="#A0D2F4" style="fill:#A0D2F4;fill:color(display-p3 0.6275 0.8235 0.9569);fill-opacity:1;"/>
<path d="M141.745 49.3542C141.666 49.3542 141.574 49.3542 141.474 49.3328C141.368 49.3186 141.282 49.2758 141.204 49.2045C141.133 49.1332 141.098 49.0263 141.105 48.8767C141.162 48.0998 141.218 47.3087 141.275 46.5033C141.332 45.6979 141.382 44.8925 141.425 44.0871C141.467 43.2817 141.51 42.4906 141.545 41.7066C141.56 41.5213 141.602 41.3859 141.681 41.2932C141.759 41.2006 141.894 41.1507 142.093 41.1435C142.441 41.115 142.818 41.0936 143.216 41.0723C143.614 41.058 144.034 41.0438 144.475 41.0295C144.915 41.0224 145.37 41.0152 145.847 41.0152C146.039 41.0152 146.167 41.058 146.252 41.1435C146.33 41.2291 146.373 41.3502 146.373 41.4999C146.373 41.7137 146.33 41.8634 146.252 41.9632C146.174 42.063 146.039 42.1128 145.861 42.1128C145.534 42.1128 145.228 42.1128 144.951 42.1128C144.674 42.1128 144.411 42.1271 144.169 42.1342C143.927 42.1485 143.685 42.1556 143.458 42.1627C143.23 42.177 142.989 42.1912 142.733 42.2126C142.719 42.4692 142.704 42.7329 142.697 42.9895C142.69 43.2461 142.676 43.5027 142.662 43.7593C142.647 44.0087 142.633 44.2653 142.612 44.529C142.918 44.4862 143.238 44.4577 143.565 44.4363C143.892 44.415 144.212 44.4007 144.517 44.3936C144.823 44.3936 145.086 44.3936 145.306 44.4007C145.427 44.4007 145.527 44.4435 145.619 44.529C145.712 44.6145 145.754 44.7428 145.754 44.9139C145.754 45.1134 145.712 45.256 145.612 45.3486C145.513 45.4413 145.406 45.4912 145.292 45.4912C145.114 45.4769 144.88 45.4698 144.588 45.4769C144.297 45.4769 143.97 45.4912 143.614 45.5197C143.259 45.5411 142.903 45.5838 142.541 45.6266C142.512 46.0614 142.484 46.4961 142.455 46.9238C142.427 47.3585 142.399 47.7791 142.363 48.1996C142.605 48.1853 142.875 48.1711 143.152 48.1497C143.437 48.1283 143.728 48.1069 144.027 48.0927C144.325 48.0784 144.617 48.057 144.901 48.0428C145.186 48.0285 145.441 48.0214 145.683 48.0214C145.832 48.0214 145.939 48.0641 146.017 48.1568C146.096 48.2495 146.131 48.3706 146.124 48.5274C146.124 48.7199 146.088 48.8624 146.01 48.9622C145.932 49.062 145.825 49.1119 145.683 49.1119H145.257C145.114 49.1119 144.972 49.1119 144.83 49.119C144.503 49.1261 144.162 49.1404 143.806 49.1617C143.451 49.1831 143.102 49.2045 142.754 49.233C142.406 49.2615 142.064 49.29 141.737 49.3257L141.745 49.3542Z" fill="#A0D2F4" style="fill:#A0D2F4;fill:color(display-p3 0.6275 0.8235 0.9569);fill-opacity:1;"/>
<path d="M147.382 41.7636C147.318 41.6353 147.311 41.5213 147.354 41.4072C147.397 41.2932 147.475 41.2006 147.589 41.1293C147.702 41.058 147.823 41.0224 147.965 41.0224C148.108 41.0224 148.207 41.0438 148.292 41.0936C148.378 41.1435 148.442 41.2148 148.491 41.3075C148.584 41.4856 148.69 41.6923 148.826 41.9347C148.961 42.177 149.103 42.4336 149.252 42.7044C149.401 42.9753 149.544 43.239 149.679 43.4742C149.814 43.7165 149.928 43.9232 150.027 44.0871C150.127 44.2582 150.184 44.358 150.205 44.4007C150.468 43.9873 150.724 43.6025 150.958 43.239C151.193 42.8755 151.428 42.5334 151.662 42.1984C151.89 41.8634 152.124 41.5427 152.352 41.2362C152.416 41.1507 152.48 41.0936 152.544 41.0509C152.608 41.0152 152.693 40.9939 152.793 40.9939C152.949 40.9939 153.084 41.0366 153.205 41.1222C153.326 41.2077 153.397 41.3217 153.433 41.45C153.461 41.5783 153.433 41.7066 153.354 41.8206C153.077 42.2126 152.793 42.6118 152.508 43.018C152.224 43.4243 151.932 43.8448 151.641 44.2724C151.349 44.7001 151.058 45.1491 150.752 45.6195C150.752 46.1683 150.731 46.71 150.66 47.2445C150.596 47.7791 150.539 48.3065 150.489 48.8196C150.475 48.9764 150.418 49.0976 150.311 49.1831C150.205 49.2687 150.048 49.3186 149.842 49.3257C149.65 49.3257 149.508 49.2758 149.401 49.1689C149.295 49.062 149.252 48.9408 149.266 48.7983C149.323 48.2851 149.38 47.7719 149.444 47.2588C149.508 46.7456 149.537 46.2182 149.529 45.6765C149.195 44.9709 148.84 44.2938 148.456 43.6595C148.079 43.018 147.724 42.3908 147.382 41.7636Z" fill="#A0D2F4" style="fill:#A0D2F4;fill:color(display-p3 0.6275 0.8235 0.9569);fill-opacity:1;"/>
<path d="M122.876 78.2269C122.627 78.6331 122.485 83.3015 123.238 83.33C124.525 83.3871 172.678 83.2516 173.055 82.7028C173.432 82.154 173.567 79.1035 172.685 78.291C171.804 77.4714 122.876 78.2269 122.876 78.2269Z" fill="#847AAB" style="fill:#847AAB;fill:color(display-p3 0.5176 0.4784 0.6706);fill-opacity:1;"/>
<path d="M122.719 85.5894C122.662 85.9956 122.634 90.664 122.798 90.6925C123.089 90.7496 133.91 90.6141 133.995 90.0653C134.08 89.5237 134.109 86.466 133.91 85.6535C133.711 84.8339 122.712 85.5894 122.712 85.5894H122.719Z" fill="#847AAB" style="fill:#847AAB;fill:color(display-p3 0.5176 0.4784 0.6706);fill-opacity:1;"/>
<path d="M124.525 148.317C124.468 148.723 124.44 153.391 124.603 153.42C124.895 153.477 135.716 153.342 135.801 152.793C135.886 152.251 135.915 149.193 135.716 148.381C135.517 147.561 124.518 148.317 124.518 148.317H124.525Z" fill="#847AAB" style="fill:#847AAB;fill:color(display-p3 0.5176 0.4784 0.6706);fill-opacity:1;"/>
<path d="M122.876 109.138C122.627 109.544 122.485 114.213 123.238 114.241C124.525 114.298 172.678 114.163 173.055 113.614C173.432 113.065 173.567 110.015 172.685 109.202C171.804 108.383 122.876 109.138 122.876 109.138Z" fill="#847AAB" style="fill:#847AAB;fill:color(display-p3 0.5176 0.4784 0.6706);fill-opacity:1;"/>
<path d="M122.876 140.056C122.627 140.462 122.485 145.131 123.238 145.159C124.525 145.216 172.678 145.081 173.055 144.532C173.432 143.983 173.567 140.933 172.685 140.12C171.804 139.301 122.876 140.056 122.876 140.056Z" fill="#847AAB" style="fill:#847AAB;fill:color(display-p3 0.5176 0.4784 0.6706);fill-opacity:1;"/>
<path d="M122.876 170.974C122.627 171.381 122.485 176.049 123.238 176.078C124.525 176.135 172.678 175.999 173.055 175.45C173.432 174.902 173.567 171.851 172.685 171.039C171.804 170.219 122.876 170.974 122.876 170.974Z" fill="#847AAB" style="fill:#847AAB;fill:color(display-p3 0.5176 0.4784 0.6706);fill-opacity:1;"/>
<path d="M229.531 154.043C229.531 154.043 185.765 154.193 160.206 154.692C156.438 153.003 153.971 149.268 151.674 145.825C151.397 145.405 151.12 144.97 150.715 144.678C150.309 144.386 149.726 144.264 149.307 144.542C148.895 144.813 148.767 145.348 148.695 145.84C148.283 148.612 148.738 152.19 149.691 154.82C145.624 155.055 142.887 154.677 142.539 155.119C140.754 157.386 141.344 203.72 143.314 203.913C148.276 204.39 230.754 205.174 230.754 205.174C230.981 184.455 230.725 170.422 229.531 154.043Z" fill="white" style="fill:white;fill-opacity:1;"/>
<path d="M229.531 153.58C221.213 153.608 212.887 153.658 204.569 153.715C197.005 153.772 189.447 153.829 181.883 153.915C178.108 153.958 174.325 154 170.55 154.057C168.808 154.079 167.066 154.107 165.325 154.136C164.493 154.15 163.661 154.164 162.829 154.179C162.054 154.193 161.187 154.335 160.419 154.221C159.331 154.057 158.073 152.91 157.291 152.204C156.445 151.442 155.684 150.594 154.98 149.71C154.17 148.691 153.43 147.614 152.705 146.538C152.158 145.718 151.639 144.628 150.736 144.15C148.411 142.917 148.127 146.232 148.091 147.671C148.034 150.123 148.44 152.632 149.25 154.941C149.399 154.749 149.541 154.556 149.691 154.364C148.312 154.442 146.925 154.457 145.539 154.442C144.714 154.435 143.861 154.378 143.043 154.478C142.368 154.563 142.076 154.849 141.892 155.469C141.458 156.901 141.437 158.519 141.344 159.994C140.967 165.81 140.975 171.655 141.024 177.478C141.074 183.735 141.209 190 141.629 196.244C141.764 198.232 141.899 200.242 142.233 202.209C142.368 203.001 142.453 204.241 143.42 204.376C144.33 204.504 145.283 204.469 146.2 204.497C147.942 204.547 149.691 204.59 151.433 204.626C156.679 204.733 161.933 204.818 167.187 204.889C173.728 204.982 180.276 205.068 186.817 205.146C193.365 205.224 199.92 205.303 206.467 205.374C211.736 205.431 217.004 205.488 222.272 205.538C224.974 205.566 227.675 205.595 230.377 205.616C230.498 205.616 230.626 205.616 230.746 205.616C230.995 205.616 231.201 205.403 231.201 205.16C231.344 191.647 231.322 178.126 230.64 164.62C230.462 161.085 230.235 157.557 229.979 154.022C229.936 153.437 229.019 153.43 229.061 154.022C229.986 166.773 230.355 179.545 230.355 192.324C230.355 196.6 230.327 200.877 230.284 205.153C230.434 205.003 230.59 204.847 230.739 204.697C228.948 204.683 227.156 204.661 225.372 204.647C220.772 204.604 216.179 204.554 211.579 204.504C205.422 204.44 199.265 204.369 193.109 204.298C186.547 204.219 179.984 204.141 173.415 204.048C167.713 203.97 162.004 203.891 156.303 203.785C152.613 203.72 148.923 203.663 145.24 203.528C144.785 203.514 144.33 203.492 143.875 203.471C143.733 203.464 143.555 203.421 143.42 203.442C143.285 203.464 143.513 203.478 143.513 203.507C143.534 203.343 143.235 202.637 143.171 202.316C143.029 201.561 142.937 200.798 142.851 200.036C142.268 194.598 142.14 189.102 142.02 183.636C141.885 177.378 141.849 171.113 142.034 164.855C142.098 162.61 142.183 160.358 142.396 158.12C142.46 157.443 142.532 156.759 142.667 156.089C142.709 155.882 142.766 155.682 142.83 155.483C142.83 155.497 142.816 155.433 142.887 155.376C142.809 155.447 142.987 155.376 143.157 155.355C145.326 155.205 147.508 155.369 149.684 155.248C149.961 155.233 150.231 154.963 150.124 154.67C149.385 152.561 148.994 150.323 148.994 148.085C148.994 147.286 148.852 145.74 149.371 145.091C150.316 143.922 151.952 147.058 152.378 147.686C153.473 149.289 154.639 150.871 156.018 152.247C156.708 152.931 157.454 153.566 158.258 154.107C158.983 154.592 159.729 155.134 160.625 155.112C167.578 154.977 174.531 154.891 181.485 154.813C194.68 154.67 207.875 154.578 221.07 154.506C223.886 154.492 226.701 154.478 229.516 154.471C230.107 154.471 230.107 153.551 229.516 153.551L229.531 153.58Z" fill="#3A2A79" style="fill:#3A2A79;fill:color(display-p3 0.2275 0.1647 0.4745);fill-opacity:1;"/>
<path d="M152.272 180.607H224.654C225.244 180.607 225.244 179.687 224.654 179.687H152.272C151.681 179.687 151.681 180.607 152.272 180.607Z" fill="#3A2A79" style="fill:#3A2A79;fill:color(display-p3 0.2275 0.1647 0.4745);fill-opacity:1;"/>
<path d="M152.272 188.988H169.924C170.515 188.988 170.515 188.069 169.924 188.069H152.272C151.681 188.069 151.681 188.988 152.272 188.988Z" fill="#3A2A79" style="fill:#3A2A79;fill:color(display-p3 0.2275 0.1647 0.4745);fill-opacity:1;"/>
<path d="M161.705 168.811C162.574 165.337 160.469 161.814 157.003 160.942C153.537 160.071 150.023 162.181 149.154 165.656C148.285 169.13 150.39 172.653 153.855 173.524C157.321 174.396 160.835 172.286 161.705 168.811Z" fill="#A0D2F4" style="fill:#A0D2F4;fill:color(display-p3 0.6275 0.8235 0.9569);fill-opacity:1;"/>
<path d="M260.244 247.817C260.244 247.817 247.105 229.407 248.016 224.561C248.926 219.721 291.241 191.262 297.676 196.415C304.11 201.568 312.094 220.762 308.745 225.345C305.396 229.928 272.437 250.49 260.251 247.817H260.244Z" fill="#847AAB" style="fill:#847AAB;fill:color(display-p3 0.5176 0.4784 0.6706);fill-opacity:1;"/>
<path d="M193.4 165.668C189.17 168.055 183.859 165.497 182.992 160.707C182.437 157.635 184.044 154.072 185.985 149.261C190.194 138.798 197.225 133.46 206.588 135.113C206.588 135.113 208.451 129.34 218.831 129.832C218.831 129.832 220.772 123.645 229.524 125.855L235.709 128.378C235.709 128.378 210.243 108.885 209.965 103.952C209.702 99.2485 211.963 94.9578 218.49 98.0439C222.997 100.175 246.949 117.665 250.454 121.336C258.751 130.01 269.465 155.811 276.382 169.524C283.3 183.237 290.466 197.049 292.094 204.961C292.77 208.261 256.17 228.039 254.08 223.085C251.99 218.132 243.771 203.229 243.771 203.229C243.771 203.229 226.026 204.348 210.484 198.938C202.323 196.094 187.585 191.433 188.537 185.09C189.483 178.746 197.118 178.604 204.399 180.25C211.672 181.897 220.473 183.871 223.85 178.768C227.22 173.672 217.338 157.585 217.338 157.585L201.597 151.114C201.597 151.114 201.121 149.339 200.033 153.06C198.946 156.78 198.476 162.731 193.549 165.582C193.5 165.611 193.45 165.639 193.4 165.668Z" fill="#FA8383" style="fill:#FA8383;fill:color(display-p3 0.9804 0.5137 0.5137);fill-opacity:1;"/>
<path d="M176.337 174.313C176.337 174.313 167.401 186.244 169.697 187.72C171.993 189.195 182.942 187.563 184.727 185.745C186.518 183.928 266.45 123.909 267.368 121.906C269.33 117.608 260.621 108.129 256.469 109.633C252.317 111.137 176.33 174.32 176.33 174.32L176.337 174.313Z" fill="#3A2A79" style="fill:#3A2A79;fill:color(display-p3 0.2275 0.1647 0.4745);fill-opacity:1;"/>
<path d="M186.383 165.582C186.383 165.582 186.603 166.131 190.919 164.641C195.234 163.152 199.614 154.67 199.614 154.67L195.234 150.465L187.13 159.845L186.383 165.575V165.582Z" fill="#FA8383" style="fill:#FA8383;fill:color(display-p3 0.9804 0.5137 0.5137);fill-opacity:1;"/>
<path d="M205.813 135.27C210.626 135.968 215.198 137.793 219.165 140.622C219.648 140.965 220.103 140.173 219.627 139.831C215.61 136.966 210.939 135.092 206.062 134.386C205.486 134.301 205.237 135.184 205.82 135.27H205.813Z" fill="#3A2A79" style="fill:#3A2A79;fill:color(display-p3 0.2275 0.1647 0.4745);fill-opacity:1;"/>
<path d="M217.373 130.074C221.66 130.794 225.628 132.868 228.656 135.997C229.069 136.424 229.716 135.769 229.303 135.348C226.175 132.12 222.044 129.939 217.615 129.19C217.039 129.09 216.79 129.974 217.373 130.074Z" fill="#3A2A79" style="fill:#3A2A79;fill:color(display-p3 0.2275 0.1647 0.4745);fill-opacity:1;"/>
<path d="M188.544 187.442C190.67 186.679 193.066 186.936 195 188.105C196.742 189.159 198.988 191.996 196.905 193.835C196.464 194.227 197.111 194.875 197.552 194.483C198.562 193.593 198.832 192.131 198.455 190.87C198.05 189.53 197.054 188.432 195.938 187.634C193.763 186.073 190.812 185.653 188.296 186.558C187.748 186.757 187.983 187.641 188.537 187.442H188.544Z" fill="#3A2A79" style="fill:#3A2A79;fill:color(display-p3 0.2275 0.1647 0.4745);fill-opacity:1;"/>
<path d="M183.774 186.358C179.7 184.505 176.152 180.899 174.787 176.48C173.97 177.656 172.939 179.181 172 180.735V180.892C171.944 182.873 174.524 186.765 176.551 188.069C179.33 187.748 182.21 187.1 183.781 186.358H183.774Z" fill="#A0D2F4" style="fill:#A0D2F4;fill:color(display-p3 0.6275 0.8235 0.9569);fill-opacity:1;"/>
<path d="M255.864 111.272C255.836 114.123 256.945 116.96 258.971 118.977C260.99 121.001 263.813 122.113 266.664 122.084C267.254 122.084 267.254 121.158 266.664 121.165C264.055 121.193 261.474 120.181 259.618 118.328C257.763 116.475 256.753 113.888 256.781 111.272C256.781 110.681 255.871 110.681 255.864 111.272Z" fill="#847AAB" style="fill:#847AAB;fill:color(display-p3 0.5176 0.4784 0.6706);fill-opacity:1;"/>
<path d="M185.061 163.907C187.641 163.359 189.653 160.764 189.419 158.106C189.184 155.426 186.874 153.238 184.215 153.067C183.625 153.031 183.632 153.943 184.215 153.986C186.397 154.129 188.388 156.025 188.516 158.248C188.644 160.486 186.98 162.567 184.819 163.031C184.243 163.152 184.485 164.036 185.061 163.914V163.907Z" fill="#3A2A79" style="fill:#3A2A79;fill:color(display-p3 0.2275 0.1647 0.4745);fill-opacity:1;"/>
<path d="M251.201 224.404C258.395 224.026 265.491 222.045 272.11 219.244C278.572 216.507 284.857 212.879 289.933 207.975C292.329 205.659 294.476 203.001 295.863 199.943C296.104 199.408 295.315 198.945 295.073 199.48C292.486 205.182 287.395 209.494 282.262 212.843C276.198 216.799 269.429 219.735 262.448 221.61C258.772 222.601 255.004 223.278 251.201 223.477C250.618 223.506 250.61 224.425 251.201 224.397V224.404Z" fill="#3A2A79" style="fill:#3A2A79;fill:color(display-p3 0.2275 0.1647 0.4745);fill-opacity:1;"/>
<path opacity="0.2" d="M277.292 241.231C277.776 241.488 278.259 241.695 278.437 242.336C277.968 244.752 274.904 242.037 277.292 241.231ZM303.491 228.495C303.064 228.531 302.482 228.331 302.254 228.752C302.254 229.315 301.436 229.863 302.105 230.291C302.275 230.348 302.446 230.377 302.602 230.384C303.001 230.106 303.384 229.835 303.747 229.571C303.79 229.272 303.733 228.908 303.484 228.488L303.491 228.495ZM289.208 238.559C289.791 238.245 290.367 237.924 290.943 237.604C290.26 236.399 288.767 237.718 289.208 238.559ZM309.015 217.939C308.567 218.089 308.262 218.588 308.333 219.258C308.667 219.507 309.015 219.707 309.349 219.764C309.264 219.18 309.15 218.574 309.015 217.947V217.939ZM303.057 222.038C303.783 221.475 303.996 220.89 303.463 220.185C302.602 219.971 302.368 220.078 301.827 220.947C301.977 221.296 302.133 221.66 302.297 222.038H303.05H303.057ZM272.245 246.021C272.188 246.078 272.152 246.142 272.131 246.206C272.6 246.049 273.084 245.893 273.56 245.722C273.176 245.486 272.678 245.529 272.238 246.028L272.245 246.021ZM299.154 224.504C298.756 224.981 298.322 225.459 297.86 225.936C299.638 227.048 300.029 224.924 299.154 224.504ZM300.768 226.378C299.268 226.756 300.043 228.787 301.344 228.438C302.311 227.925 301.493 226.756 300.768 226.378ZM306.278 217.177C306.79 217.348 307.252 217.498 307.686 217.633C308.169 217.212 307.935 216.642 308.198 216.172C307.387 215.181 305.944 215.994 306.285 217.17L306.278 217.177ZM274.235 244.617C274.257 244.952 274.484 245.166 274.776 245.273C275.288 245.08 275.799 244.888 276.311 244.681C276.318 244.645 276.326 244.603 276.326 244.56C276.347 243.149 274.385 243.555 274.235 244.617ZM270.588 243.633C269.742 244.125 269.927 245.365 270.979 245.33C272.799 245.401 271.839 243.142 270.588 243.633ZM267.844 242.678C267.936 242.856 268.036 243.063 268.157 243.305C271.527 243.241 268.569 239.507 267.844 242.678ZM254.229 236.962C254.407 236.755 254.57 236.57 254.734 236.371C254.151 236.107 253.646 235.843 253.213 235.594C253.042 236.257 253.412 236.862 254.229 236.962ZM303.982 218.873C304.159 219.401 304.437 219.764 304.941 219.885C307.316 218.966 305.254 216.885 303.982 218.873ZM285.184 238.815C286.286 239.414 287.203 238.295 286.677 237.226C286.108 237.09 285.604 237.176 285.042 237.475C285.397 237.953 284.786 238.438 285.184 238.808V238.815ZM282.966 235.145C282.646 236.563 283.705 237.169 284.786 236.363C284.949 235.294 283.826 234.753 282.966 235.145ZM259.021 239.692C258.374 239.279 257.706 239.507 256.995 239.207C257.369 239.83 257.549 240.419 257.535 240.975C258.296 241.331 260.08 240.497 259.021 239.692ZM305.887 210.876C305.809 210.513 305.731 210.121 305.638 209.672C305.219 209.465 304.899 209.451 304.664 209.579C304.664 210.078 304.643 210.62 304.6 211.197C305.048 211.546 305.404 211.425 305.894 210.876H305.887ZM294.249 234.689C295.13 235.273 295.599 233.876 295.216 233.199C293.822 232.244 293.118 233.662 294.249 234.689ZM256.447 237.311C255.345 236.884 255.402 238.316 255.097 239.008C255.544 239.122 255.928 238.623 256.426 238.865C256.497 238.894 256.654 238.808 256.732 238.73C257.194 238.316 257.18 237.368 256.447 237.311ZM297.114 226.685C296.694 227.084 296.254 227.483 295.784 227.882C296.097 228.345 296.986 228.267 297.526 227.668C297.69 227.248 297.462 226.891 297.114 226.685ZM303.683 216.158C303.548 216.607 303.399 217.056 303.228 217.519C303.804 216.934 304.053 216.421 303.683 216.158ZM298.081 230.369C298.514 230.548 298.849 230.17 299.232 230.213C299.382 229.92 299.51 229.671 299.659 229.372C299.346 229.072 299.041 228.78 298.749 228.509C297.626 228.958 297.533 229.25 298.074 230.377L298.081 230.369ZM304.557 207.163C304.778 207.199 304.97 207.191 305.126 207.134C304.899 206.664 304.664 206.201 304.43 205.737C304.38 205.752 304.472 206.265 304.557 207.156V207.163ZM275.536 239.15C274.634 239.407 274.69 239.499 274.449 240.269C274.641 242.172 277.577 240.184 275.536 239.15ZM262.604 247.66C262.355 247.76 262.135 247.888 261.957 248.038C262.313 248.059 262.682 248.059 263.066 248.052C262.945 247.903 262.789 247.767 262.604 247.667V247.66ZM261.552 244.51C261.765 244.952 261.971 245.372 262.562 245.479C263.13 245.287 263.479 244.945 263.543 244.375C263.265 243.947 262.846 243.812 262.455 243.648C261.964 243.769 261.68 244.068 261.552 244.51ZM299.908 231.987C299.936 232.051 299.979 232.087 300.015 232.137C300.519 231.802 301.017 231.474 301.493 231.153C300.882 230.512 299.695 230.776 299.915 231.98L299.908 231.987ZM285.71 234.646C286.151 234.339 286.698 234.254 286.94 233.812C286.89 233.655 286.826 233.527 286.755 233.413C286.179 233.669 285.589 233.926 284.971 234.168C285.163 234.432 285.433 234.582 285.71 234.646ZM281.672 241.296C281.046 241.388 280.563 242.186 280.847 242.742C281.359 242.507 281.864 242.272 282.376 242.03C282.262 241.759 282.042 241.495 281.672 241.296ZM305.012 213.57C303.839 214.133 304.266 214.226 304.373 215.245C305.261 215.758 305.425 215.402 305.908 214.803C306.413 214.198 305.389 213.941 305.012 213.57ZM269.991 239.628C269.934 240.077 270.382 240.234 270.425 240.661C273.29 241.745 271.839 238.245 269.991 239.628ZM307.728 220.127C306.683 220.049 306.577 220.256 306.1 221.083C306.733 222.059 307.43 221.888 308.148 221.125C307.998 220.762 307.885 220.491 307.735 220.127H307.728ZM283.336 239.4C283.222 239.699 283.051 240.02 282.866 240.291C283.058 240.718 283.392 240.961 283.762 241.274C284.146 240.896 284.836 240.754 284.736 240.177C284.537 239.663 283.919 239.122 283.343 239.4H283.336ZM295.415 230.113C295.301 229.621 295.144 229.144 294.739 228.723C294.405 228.98 294.064 229.236 293.708 229.486C293.758 229.771 293.9 230.034 293.936 230.312C294.249 230.712 295.066 230.448 295.408 230.113H295.415ZM264.46 241.288C264.026 241.509 263.891 241.901 263.664 242.251C264.126 242.643 264.303 243.598 265.05 243.334C265.775 242.578 265.412 241.666 264.46 241.288ZM288.781 236.385V235.394C288.262 234.931 288.177 234.924 287.388 235.316C286.634 236.428 287.95 237.347 288.781 236.385ZM291.682 231.253C291.533 232.329 291.647 232.95 292.898 232.479C293.644 231.41 292.372 229.856 291.682 231.253ZM280.975 238.815C281.252 239.058 281.523 239.193 281.935 239.05C282.12 238.758 282.333 238.416 282.518 238.117C282.411 237.803 282.326 237.561 282.234 237.29C281.956 237.197 281.686 237.112 281.43 237.026C281.032 237.425 280.925 238.231 280.975 238.808V238.815ZM272.92 241.324C272.394 241.609 272.437 242.072 272.245 242.443C272.373 242.678 272.494 242.906 272.607 243.134C273.169 243.227 273.695 243.341 274.001 242.721C273.923 242.4 273.844 242.094 273.759 241.752C273.482 241.609 273.197 241.467 272.92 241.324ZM295.642 231.324C295.72 231.645 295.799 231.952 295.877 232.272C296.31 232.672 297.242 232.515 297.526 231.873C297.213 231.481 297 230.84 296.481 230.626C296.175 230.883 295.912 231.104 295.642 231.332V231.324ZM303.975 227.412C304.451 227.975 305.496 228.716 305.851 227.739C305.659 227.447 305.908 227.176 305.887 226.841C305.219 226.179 304.373 226.727 303.975 227.412ZM261.246 242.913C261.012 242.5 261.118 242.151 260.891 241.73C260.237 240.911 259.54 241.787 259.547 242.578C260.059 243.092 260.414 243.341 260.67 243.341C260.855 243.206 261.061 243.049 261.246 242.913ZM303.733 224.739C302.496 224.083 302.652 223.983 302.012 225.216C302.105 225.452 302.197 225.694 302.304 225.972C303.207 226.122 304.031 225.808 303.733 224.739ZM297.988 233.427C298.28 233.249 298.564 233.064 298.841 232.885C298.422 233.056 298.159 233.242 297.988 233.427ZM256.007 241.531C256.248 241.909 256.49 242.279 256.725 242.628C256.853 242.507 256.995 242.415 257.187 242.358C257.094 241.431 256.575 241.31 256.014 241.531H256.007ZM269.458 245.736C269.095 245.943 268.69 246 268.249 245.985C268.164 246.263 268.086 246.534 268.022 246.755C268.121 247.005 268.263 247.168 268.427 247.268C268.861 247.161 269.301 247.054 269.749 246.926C270.005 246.577 270.027 246.099 269.465 245.736H269.458ZM263.827 246.926C264.531 248.416 265.704 247.183 265.32 245.964C264.424 245.265 264.055 246.121 263.827 246.926ZM280.542 235.786C280.023 235.957 279.518 236.114 279.013 236.264C279.148 236.492 279.283 236.72 279.432 236.962C280.03 236.677 280.385 236.314 280.542 235.786ZM279.113 239.336C278.935 239.692 278.8 239.963 278.657 240.248C278.835 240.462 278.935 240.611 279.084 240.847C280.819 241.588 280.755 238.894 279.113 239.336ZM307.643 213.157C307.465 212.651 307.28 212.145 307.081 211.639C305.347 212.181 306.605 213.563 307.643 213.157ZM305.617 222.501C305.219 222.408 304.394 222.023 304.238 222.579C303.967 225.017 306.733 223.841 305.617 222.501ZM277.563 237.019C277.243 237.026 277.037 237.19 277.065 237.447C277.143 238.031 276.66 238.053 276.518 238.523C277.648 239.763 279.134 237.789 277.563 237.019ZM309.328 223.962C309.442 223.484 309.506 222.95 309.52 222.351C309.036 222.23 308.461 222.537 308.56 223.356C308.589 223.72 308.951 223.926 309.321 223.962H309.328ZM260.749 247.389C260.969 247.176 261.204 246.969 261.438 246.776C261.005 245.772 260.521 245.437 259.668 246C260.038 246.905 259.227 247.268 260.749 247.382V247.389ZM306.299 224.889C306.065 225.68 306.868 226.307 307.607 226.093C307.764 225.851 307.913 225.616 308.07 225.373C307.451 224.66 307.117 223.99 306.299 224.889ZM272.437 237.989C272.622 238.373 272.579 238.908 273.197 239.1C273.553 238.887 273.837 238.58 274.008 238.067C273.987 237.86 273.923 237.703 273.837 237.568C273.382 237.661 272.934 237.746 272.494 237.825C272.472 237.882 272.451 237.924 272.437 237.989ZM266.337 245.273C266.493 245.33 266.678 245.394 266.962 245.494C269.074 243.305 264.957 242.963 266.337 245.273ZM259.163 244.496C259.121 243.626 258.175 243.662 257.684 244.082C257.962 244.496 258.225 244.881 258.466 245.244C258.808 245.123 259.106 244.845 259.163 244.496ZM267.368 239.535C266.763 239.357 266.301 239.528 265.953 240.148C266.244 240.775 267.005 241.531 267.581 240.711C267.353 240.369 267.78 239.891 267.368 239.535ZM301.024 223.998C301.216 223.855 301.408 223.72 301.628 223.57C301.607 222.594 301.202 222.266 300.818 222.287C300.605 222.608 300.384 222.929 300.142 223.256C300.235 223.52 300.491 223.791 301.024 224.005V223.998ZM261.815 239.785C261.481 241.239 262.768 241.374 263.557 240.433C263.066 239.606 262.924 239.549 261.815 239.785ZM289.286 233.655C289.549 234.952 290.836 234.874 291.128 233.698C290.857 233.113 290.324 233.227 289.819 233.135C289.656 233.292 289.492 233.456 289.286 233.655ZM292.734 235.123C292.422 235.138 292.123 235.152 291.803 235.166C291.725 235.501 291.654 235.822 291.576 236.171C291.995 236.342 292.386 236.485 292.777 236.57C292.869 236.52 292.955 236.463 293.047 236.413C293.516 235.786 293.36 235.594 292.741 235.123H292.734ZM261.168 238.167C260.678 238.095 260.208 238.017 259.76 237.931C259.696 238.024 259.625 238.11 259.561 238.195C259.959 239.414 261.033 238.83 261.175 238.167H261.168ZM269.842 238.202C269.294 238.266 268.754 238.316 268.235 238.352C268.804 238.758 269.87 238.951 269.842 238.202ZM264.908 238.908C265 238.751 265.093 238.601 265.171 238.459C264.737 238.459 264.325 238.445 263.912 238.423C264.175 238.737 264.467 239.036 264.901 238.908H264.908Z" fill="#3A2A79" style="fill:#3A2A79;fill:color(display-p3 0.2275 0.1647 0.4745);fill-opacity:1;"/>
<path opacity="0.2" d="M240.956 150.665H240.55C240.451 149.781 241.404 149.574 241.887 149.981L240.956 150.665ZM233.604 150.244C233.377 149.938 233.093 149.76 232.673 149.695C232.517 150.095 231.991 150.194 231.877 150.658H233.469C233.512 150.522 233.555 150.38 233.604 150.237V150.244ZM237.614 149.874C236.669 149.931 236.292 150.152 235.944 150.665H237.892C237.799 150.401 237.707 150.13 237.614 149.874ZM229.189 150.579L229.069 150.672H229.211C229.211 150.672 229.189 150.615 229.182 150.579H229.189ZM248.115 136.467C248.407 136.282 248.556 136.089 248.613 135.89L247.589 136.66C247.745 136.674 247.916 136.624 248.115 136.467ZM257.109 131.172C256.81 130.879 256.518 130.601 256.206 130.302C256.021 130.359 255.872 130.423 255.744 130.487L255.459 130.701C254.506 131.713 257.329 133.431 257.109 131.165V131.172ZM241.141 143.067C242.1 142.775 242.257 142.304 241.994 141.378C241.866 141.285 241.745 141.221 241.624 141.171L240.43 142.076C240.401 142.212 240.387 142.347 240.38 142.49C240.636 142.682 240.885 142.875 241.133 143.067H241.141ZM249.587 136.724C248.677 137.002 249.494 137.622 248.862 138.206C250.433 139.632 251.705 137.401 249.587 136.724ZM239.982 149.011C240.231 148.569 239.797 148.313 239.747 147.907C239.733 147.215 238.937 147.7 238.56 147.75C238.403 147.978 238.254 148.192 238.112 148.391C238.446 149.36 239.328 149.674 239.975 149.011H239.982ZM255.082 133.253C254.67 132.932 254.478 132.312 253.81 132.49C253.589 132.918 253.383 133.324 253.17 133.73C253.511 134.529 253.696 134.336 254.464 134.208C254.983 134.144 254.876 133.673 255.082 133.253ZM255.459 135.013C254.72 135.961 255.935 137.109 256.853 136.196C257.087 135.213 256.426 134.201 255.459 135.013ZM252.914 135.762C252.601 135.284 252.388 134.764 251.755 134.55C250.091 135.783 251.741 137.401 252.914 135.762ZM244.297 144.236C243.814 143.552 243.551 142.86 242.626 143.338C242.591 143.83 242.562 144.272 242.527 144.771C243.167 145.177 244.027 145.048 244.304 144.236H244.297ZM256.483 138.962C255.466 138.826 255.153 139.361 255.345 140.095L256.554 139.211C256.533 139.133 256.511 139.054 256.483 138.962ZM245.392 140.965C245.193 141.071 245.015 141.171 244.866 141.25C244.809 141.606 244.766 141.92 244.717 142.233C245.366 142.651 245.963 142.784 246.508 142.632C246.508 141.798 246.089 141.364 245.392 140.957V140.965ZM260.244 136.339L259.739 135.441C259.668 135.697 259.618 135.954 259.64 136.239C259.824 136.31 260.031 136.339 260.244 136.339ZM258.374 136.824C257.883 137.045 257.471 137.308 257.237 137.764C257.372 138.049 257.507 138.263 257.635 138.413L258.801 137.558C258.651 137.308 258.509 137.059 258.374 136.824ZM257.443 133.082C257.443 134.479 258.41 134.379 258.865 133.887L258.118 132.554C257.82 132.633 257.606 132.818 257.443 133.075V133.082ZM248.691 144.186C248.428 143.309 247.724 143.466 247.084 143.381C246.338 144.835 248.108 145.562 248.691 144.186ZM234.059 148.641C234.251 149.382 234.657 149.318 235.218 149.275C236.413 148.527 234.657 146.175 234.059 148.641ZM239.925 143.48C239.498 143.431 239.043 143.423 238.581 143.48C238.418 143.701 238.268 143.915 238.098 144.15C238.347 145.54 240.423 144.578 239.925 143.48ZM247.041 139.354C246.281 140.701 247.61 141.1 248.57 140.28C248.35 139.86 248.307 139.689 248.257 139.176C247.816 139.24 247.425 139.297 247.041 139.354ZM242.946 140.573C243.473 140.594 243.999 140.729 244.439 140.287C244.383 139.91 244.176 139.625 243.913 139.446L242.747 140.33C242.811 140.409 242.882 140.494 242.953 140.573H242.946ZM253.483 141.463L253.909 141.15C253.767 141.178 253.625 141.285 253.483 141.463ZM253.888 136.774C253.056 137.237 252.743 138.741 254.016 138.62C254.713 137.843 255.047 137.18 253.888 136.774ZM231.372 148.926L231.031 149.189C231.173 149.14 231.287 149.054 231.372 148.926ZM242.513 148.049C242.605 148.519 242.811 148.854 243.138 149.061L244.134 148.327C244.041 147.735 243.245 147.336 242.513 148.042V148.049ZM251.101 139.625C251.222 139.924 251.35 140.245 251.478 140.565H252.459C252.779 139.603 252.708 139.411 251.897 139.054C251.592 139.154 251.293 139.261 251.108 139.625H251.101ZM246.387 146.303C246.217 145.989 246.075 145.711 245.932 145.448C243.878 145.533 244.987 148.106 246.387 146.303ZM237.707 146.039C237.586 145.925 237.387 145.897 237.259 145.783C237.138 145.683 237.237 145.419 236.946 145.376C236.868 145.811 236.654 146.068 236.278 146.331C236.619 147.693 238.325 147.03 237.707 146.032V146.039ZM249.096 142.169C249.26 143.074 250.753 142.718 250.653 141.813C250.568 140.822 249.174 141.585 249.096 142.169ZM245.477 138.776C245.691 138.399 245.861 138.242 246.231 137.985C246.231 137.9 246.217 137.807 246.217 137.714L245.328 138.384C245.371 138.477 245.413 138.598 245.485 138.776H245.477ZM241.859 146.845C242.292 146.282 242.299 145.483 241.432 145.583C240.572 145.818 241.311 146.624 241.859 146.845ZM241.048 146.894L241.062 146.837L240.991 146.859L241.048 146.894ZM233.469 150.665H231.877C232.012 151.064 231.927 151.656 232.481 151.748C232.894 151.399 233.619 151.214 233.825 150.665H233.469ZM229.218 150.665H229.076L228.244 151.292C228.749 151.527 229.339 151.427 229.218 150.665ZM236.825 151.577C237.301 151.392 237.422 151.078 237.365 150.665H236.128C236.306 151.028 236.605 151.278 236.832 151.577H236.825ZM240.55 150.665C240.6 150.729 240.643 150.793 240.693 150.857L240.956 150.665H240.55ZM226.232 160.337C225.365 160.921 225.407 161.206 225.748 161.833L226.978 160.928C226.786 160.693 226.545 160.493 226.232 160.329V160.337ZM220.893 163.501C220.765 163.009 220.466 162.767 220.146 162.717L220.864 163.608C220.871 163.572 220.886 163.544 220.893 163.501ZM226.658 153.708C226.929 153.487 227.17 153.288 227.469 153.038C227.341 152.675 227.128 152.447 226.886 152.318L225.606 153.288C225.805 153.452 226.132 153.601 226.658 153.708ZM225.77 157.742C227.163 158.583 227.64 156.88 226.602 156.267C225.777 156.131 225.293 156.994 225.77 157.742ZM231.422 152.454C230.725 151.249 229.531 152.254 230.078 153.423C230.775 154.164 231.792 153.202 231.422 152.454ZM224.597 155.789C225.165 155.397 225.414 154.307 224.511 154.136C224.497 154.136 224.483 154.136 224.476 154.143L223.545 154.849C223.367 155.39 223.729 156.003 224.597 155.789ZM234.443 152.34C234.308 152.375 234.18 152.561 234.102 152.71C233.668 153.452 234.884 154.057 235.375 153.444C235.638 152.568 235.666 152.176 234.728 151.919C234.536 152.026 234.685 152.276 234.436 152.34H234.443ZM232.687 154.207C231.635 154.442 231.792 156.032 232.908 155.625C233.91 155.34 233.804 154.15 232.687 154.207ZM223.338 163.608L224.362 162.86C223.907 163.002 223.417 163.202 223.338 163.608ZM219.89 158.355C219.57 158.512 219.364 158.747 219.137 159.061C219.414 159.381 219.641 159.652 219.904 159.952C220.175 159.859 220.438 159.773 220.665 159.702C221.163 158.868 220.708 158.469 219.89 158.355ZM238.688 152.047C238.666 152.169 238.645 152.268 238.624 152.382L239.171 151.976C239.015 151.955 238.851 151.969 238.688 152.047ZM221.952 157.963C222.471 157.5 223.111 157.728 223.203 156.801C222.016 155.889 220.729 156.759 221.952 157.963ZM230.505 157.792C230.839 157.593 231.152 157.4 231.529 157.179C231.5 156.516 230.903 156.523 230.611 156.196C230.128 156.388 229.908 156.73 229.794 157.215C230.028 157.407 230.156 157.728 230.512 157.792H230.505ZM227.718 158.633C227.647 158.826 227.569 159.039 227.483 159.275C227.803 159.645 228.102 159.838 228.358 159.916L229.204 159.296C229.175 158.875 228.749 158.448 227.718 158.633ZM224.945 158.847C223.765 157.664 222.99 159.88 224.099 159.93C224.696 159.852 225.165 159.531 224.945 158.847ZM227.846 154.97C227.888 155.355 228.351 156.288 228.678 155.647C228.692 155.511 228.77 155.554 228.862 155.583C229.125 155.675 229.225 155.476 229.367 155.241C229.118 154.371 228.201 153.922 227.846 154.97ZM222.386 160.714C221.931 160.586 221.696 160.821 221.49 161.142C221.554 161.42 221.618 161.698 221.696 162.054C222.684 162.354 222.983 161.349 222.386 160.714Z" fill="#3A2A79" style="fill:#3A2A79;fill:color(display-p3 0.2275 0.1647 0.4745);fill-opacity:1;"/>
<path d="M-8.8363 175.243C-8.8363 175.243 0.107479 169.127 2.68113 164.68C5.25477 160.233 38.897 115.865 38.897 115.865C38.897 115.865 67.9963 71.3408 77.8074 78.1902C87.6186 85.0395 65.5222 102.359 61.5622 109.629C57.6022 116.891 57.3676 122.971 57.3676 122.971C57.3676 122.971 70.0367 116.4 76.1438 120.576C81.4333 124.197 81.8599 128.324 81.8599 128.324C81.8599 128.324 87.2915 128.63 90.2349 134.624C93.1853 140.618 87.839 148.872 87.839 148.872C87.839 148.872 96.5197 151.559 95.2684 160.81C94.0172 170.061 85.8128 177.217 78.9094 174.829C72.0061 172.442 68.4655 164.516 68.4655 164.516C68.4655 164.516 60.2327 186.318 49.1205 190.851C38.0083 195.384 29.2778 191.158 29.2778 191.158C29.2778 191.158 15.3787 206.817 9.70533 206.161C4.03194 205.505 -13.0025 181.878 -8.84341 175.25L-8.8363 175.243Z" fill="#FA8383" style="fill:#FA8383;fill:color(display-p3 0.9804 0.5137 0.5137);fill-opacity:1;"/>
<path d="M-9.0567 171.415C-7.90496 170.296 -0.589263 164.288 1.13124 165.386C2.88729 166.505 26.6758 195.142 25.1188 198.52C22.8651 203.403 16.2816 206.881 16.2816 206.881L-9.04959 171.415H-9.0567Z" fill="#A0D2F4" style="fill:#A0D2F4;fill:color(display-p3 0.6275 0.8235 0.9569);fill-opacity:1;"/>
<path d="M-9.26287 168.023C-9.26287 168.023 -37.8076 182.912 -35.9094 189.939C-33.0655 200.473 -5.82897 232.061 -1.03715 228.441C8.87352 220.957 21.4787 210.672 21.7702 205.441C22.0759 199.853 -2.46616 168.557 -9.26287 168.023Z" fill="#847AAB" style="fill:#847AAB;fill:color(display-p3 0.5176 0.4784 0.6706);fill-opacity:1;"/>
<path d="M50.4642 140.554C59.4862 133.683 70.4349 129.557 81.7532 128.808C82.3362 128.773 82.3433 127.853 81.7532 127.889C70.2856 128.644 59.1592 132.785 50.0021 139.756C49.54 140.105 49.995 140.903 50.4642 140.547V140.554Z" fill="#3A2A79" style="fill:#3A2A79;fill:color(display-p3 0.2275 0.1647 0.4745);fill-opacity:1;"/>
<path d="M59.1947 148.729C68.5366 145.878 78.6108 146.006 87.8746 149.093C88.4362 149.278 88.6779 148.394 88.1163 148.209C78.7033 145.073 68.4371 144.944 58.9459 147.845C58.3843 148.016 58.626 148.9 59.1876 148.729H59.1947Z" fill="#3A2A79" style="fill:#3A2A79;fill:color(display-p3 0.2275 0.1647 0.4745);fill-opacity:1;"/>
<path d="M78.0278 141.302C78.0705 142.821 78.1131 144.339 78.1487 145.857C78.1629 146.448 79.08 146.448 79.0658 145.857C79.0232 144.339 78.9805 142.821 78.9449 141.302C78.9307 140.711 78.0136 140.711 78.0278 141.302Z" fill="#3A2A79" style="fill:#3A2A79;fill:color(display-p3 0.2275 0.1647 0.4745);fill-opacity:1;"/>
<path d="M66.3398 163.689C71.1316 162.278 76.5704 162.314 81.4831 163.034C82.059 163.119 82.3078 162.235 81.7248 162.15C76.6415 161.401 71.0605 161.344 66.0981 162.806C65.5364 162.969 65.771 163.86 66.3398 163.689Z" fill="#3A2A79" style="fill:#3A2A79;fill:color(display-p3 0.2275 0.1647 0.4745);fill-opacity:1;"/>
<path d="M64.7188 84.3054C67.1574 86.1015 70.6197 86.3367 73.2573 84.8257C75.8523 83.3361 77.4946 79.9221 75.6319 77.2066C75.2978 76.722 74.5086 77.1781 74.8428 77.6699C76.5064 80.1003 74.8428 83.0011 72.5108 84.1842C70.1789 85.3745 67.2711 85.0395 65.188 83.5071C64.7117 83.1579 64.2567 83.9562 64.7259 84.2983L64.7188 84.3054Z" fill="#3A2A79" style="fill:#3A2A79;fill:color(display-p3 0.2275 0.1647 0.4745);fill-opacity:1;"/>
<path d="M79.5991 158.786C81.7532 161.209 81.5968 164.915 79.2933 167.175C78.8739 167.588 79.5209 168.237 79.9403 167.823C82.6135 165.2 82.7272 160.924 80.246 158.137C79.855 157.695 79.208 158.344 79.5991 158.786Z" fill="#3A2A79" style="fill:#3A2A79;fill:color(display-p3 0.2275 0.1647 0.4745);fill-opacity:1;"/>
<path d="M57.9932 121.888C53.7346 123.748 49.7462 126.157 46.0919 129.029C45.6298 129.393 46.2838 130.041 46.7388 129.678C50.3291 126.855 54.2749 124.503 58.4553 122.679C58.9957 122.444 58.5264 121.652 57.9932 121.888Z" fill="#3A2A79" style="fill:#3A2A79;fill:color(display-p3 0.2275 0.1647 0.4745);fill-opacity:1;"/>
<path opacity="0.2" d="M4.21681 218.919C4.15993 218.926 4.10305 218.933 4.03907 218.94C4.359 218.448 4.46564 218.32 4.56517 217.736C5.41121 217.65 5.73824 217.778 5.7809 218.712C5.2548 218.783 4.7358 218.847 4.2097 218.919H4.21681ZM0.0292983 219.468C0.548293 219.396 1.0744 219.332 1.6005 219.261C1.5223 218.648 0.797127 218.719 0.335008 218.484C0.0790651 218.805 -0.226646 219.047 -0.141331 219.489C-0.0844553 219.482 -0.0275791 219.475 0.0364066 219.468H0.0292983ZM-7.72008 219.51C-8.16087 219.731 -8.56611 219.981 -8.50924 220.587C-7.92626 220.508 -7.35039 220.437 -6.7674 220.358C-7.01624 220.009 -7.27218 219.667 -7.72008 219.51ZM-2.99936 219.225C-3.39749 219.033 -3.78141 219.076 -4.20087 219.282C-4.24352 219.532 -4.27907 219.781 -4.32173 220.031C-3.80273 219.959 -3.27663 219.895 -2.75052 219.824C-2.83584 219.624 -2.91404 219.418 -2.99936 219.218V219.225ZM8.98729 217.451C8.72424 217.579 8.47541 217.7 8.21236 217.828C8.15548 218.035 8.0986 218.227 8.04884 218.42C8.10571 218.413 8.16259 218.406 8.21947 218.398C8.74557 218.327 9.26457 218.263 9.79067 218.192C9.69114 217.771 9.32855 217.643 8.98729 217.458V217.451ZM12.734 217.244C12.8193 217.165 12.8975 217.094 12.9828 217.016C12.9402 217.016 12.8975 217.016 12.8549 217.023C12.8193 217.094 12.7767 217.165 12.734 217.244ZM-11.2322 220.387C-12 220.052 -12.5759 220.244 -12.5119 221.114C-12.0498 221.05 -11.5805 220.993 -11.1184 220.929C-11.1611 220.743 -11.1966 220.551 -11.2322 220.387ZM-21.3633 199.59C-21.5836 199.233 -21.804 198.877 -22.0173 198.513C-22.0529 198.599 -22.0955 198.684 -22.124 198.784C-21.8894 199.326 -21.6974 199.518 -21.3561 199.59H-21.3633ZM-27.2997 187.487C-27.2997 187.487 -27.2855 187.494 -27.2784 187.502C-27.4561 187.045 -27.6267 186.604 -27.776 186.19C-27.904 186.554 -27.7831 187.053 -27.2997 187.487ZM18.0235 205.291C17.277 205.74 17.2059 207.251 18.2723 207.33C18.7771 207.087 19.5378 206.532 19.0402 205.954C18.8198 205.584 18.5354 205.013 18.0164 205.291H18.0235ZM-23.3824 207.194C-24.0364 206.339 -24.8469 206.767 -25.0318 207.529C-24.79 207.836 -24.5554 208.135 -24.3066 208.442C-23.6241 208.356 -23.0269 208.05 -23.3752 207.194H-23.3824ZM-34.2315 187.879C-34.3452 187.459 -34.7363 187.502 -34.8571 187.181C-34.9282 186.981 -35.0704 186.889 -35.241 186.867C-35.5539 187.416 -35.7814 187.944 -35.9022 188.442C-35.433 188.891 -34.523 188.728 -34.2315 187.879ZM-25.5436 200.267C-24.5199 200.438 -23.7094 199.019 -24.7758 198.328C-25.3659 198.421 -25.7285 198.92 -26.2973 199.162C-26.0342 199.604 -25.8422 199.875 -25.5365 200.267H-25.5436ZM-19.8276 203.588C-19.5077 202.726 -20.0196 201.321 -21.0362 202.006C-21.9533 202.818 -21.1002 204.016 -19.8276 203.588ZM-16.3724 205.854C-16.415 205.876 -16.4577 205.904 -16.5003 205.926C-17.0264 207.373 -15.832 207.708 -15.1069 206.945C-15.5334 206.61 -15.9529 206.246 -16.3724 205.854ZM10.7149 207.693C10.6012 207.508 10.5443 207.287 10.4803 207.087C9.97552 207.23 9.45652 207.365 8.93042 207.501C9.0655 208.385 10.1177 208.827 10.7149 207.693ZM-28.5368 197.145C-28.9491 198.314 -27.1717 198.599 -26.5532 197.907C-26.6598 196.81 -27.776 196.168 -28.5368 197.145ZM-26.6527 204.757C-26.7949 204.814 -26.9087 204.885 -27.0153 204.949C-26.6456 205.441 -26.2759 205.926 -25.892 206.417C-25.3659 205.733 -25.8422 204.849 -26.6527 204.757ZM-32.4897 183.496C-31.5512 184.38 -31.0322 183.852 -30.6838 182.762C-30.7691 182.598 -30.8687 182.477 -30.9824 182.384L-31.4232 182.498C-31.7929 182.833 -32.1484 183.168 -32.4897 183.496ZM-29.2406 200.787C-28.5296 200.188 -28.2026 199.069 -29.4326 198.884C-30.0226 199.098 -30.3568 199.497 -30.4421 200.096C-30.1814 200.352 -29.7809 200.585 -29.2406 200.794V200.787ZM12.6842 209.988C13.7436 208.762 12.8904 208.72 11.8382 208.214C11.1059 208.919 11.3121 210.594 12.6842 209.988ZM-27.3637 191.208C-26.7807 191.635 -26.0413 191.778 -25.6574 191.393C-25.8494 190.965 -26.0342 190.545 -26.2048 190.132C-26.8447 190.053 -27.4988 190.395 -27.3637 191.208ZM18.5354 209.468C17.6467 210.102 17.7107 211.25 18.5496 211.342C18.8624 210.972 19.161 210.601 19.4312 210.245C19.2463 209.917 18.8909 209.618 18.5283 209.475L18.5354 209.468ZM-19.9627 206.047C-20.1689 206.311 -20.3608 206.41 -20.7163 206.503C-20.7163 206.895 -21.0007 207.216 -20.7661 207.551C-19.1166 208.663 -18.3844 206.303 -19.9627 206.047ZM6.34966 208.655C6.47763 208.456 6.53451 208.263 6.54162 208.085C6.05817 208.199 5.56762 208.306 5.06995 208.413C5.14104 208.534 5.21214 208.655 5.28323 208.777C5.61501 208.815 5.97049 208.777 6.34966 208.663V208.655ZM-24.335 204.229C-24.1431 203.951 -23.9369 203.666 -23.6952 203.324C-23.8374 203.011 -23.9653 202.733 -24.0862 202.483C-25.7072 202.291 -26.1977 204.272 -24.335 204.229ZM-22.9913 200.031C-23.5174 200.345 -23.5388 200.366 -23.7023 200.937C-23.8871 203.125 -20.4959 201.051 -22.9913 200.031ZM16.2177 205.348C16.175 205.363 16.1253 205.377 16.0826 205.391C16.1181 205.391 16.1537 205.405 16.1892 205.405C16.2035 205.384 16.2106 205.363 16.2248 205.341L16.2177 205.348ZM-29.7169 196.432C-28.2097 194.914 -30.3852 193.895 -31.0109 195.641C-30.8474 196.368 -30.2928 196.354 -29.7169 196.432ZM-24.3208 197.123C-23.7165 198.121 -22.9202 197.907 -22.6856 197.359C-22.9345 196.917 -23.1691 196.475 -23.4037 196.033C-23.6596 196.126 -23.9227 196.225 -24.1715 196.311C-24.2284 196.625 -24.2782 196.874 -24.3208 197.123ZM20.4052 208.869C20.7038 208.406 20.9526 207.957 21.1588 207.522C20.8602 207.394 20.5474 207.266 20.199 207.116C19.3316 207.629 19.744 208.641 20.4052 208.869ZM-4.20087 216.51C-3.90227 216.26 -3.67476 215.961 -3.23397 215.975C-2.18887 215.341 -4.5279 213.808 -4.93315 215.669C-4.61322 215.847 -4.7483 216.367 -4.20087 216.503V216.51ZM-19.1166 214.6C-18.7896 214.97 -18.4555 215.334 -18.1284 215.704C-18.0858 215.583 -18.0502 215.448 -18.0431 215.291C-18.2422 214.835 -18.7114 214.585 -19.1166 214.6ZM-32.2479 190.01C-31.9493 188.521 -33.2362 188.2 -33.812 189.405C-33.9329 190.331 -32.8096 190.802 -32.2479 190.01ZM-29.852 184.309C-29.8876 184.708 -29.5534 185.064 -29.8662 185.42C-29.9373 185.499 -29.7027 185.727 -29.5961 185.663C-29.134 185.442 -28.8211 185.741 -28.3306 185.527C-28.3946 184.993 -28.4159 184.515 -28.5368 184.081C-28.551 184.031 -28.5723 183.981 -28.5865 183.938C-29.1979 183.567 -29.4894 184.059 -29.852 184.309ZM10.8429 216.681C11.8098 216.552 12.1013 215.27 11.1841 214.906C9.91864 214.885 9.7409 216.089 10.8429 216.681ZM-18.7469 204.265C-19.8489 205.576 -17.3961 206.204 -17.2539 204.978C-17.5099 204.714 -17.7587 204.436 -18.0076 204.158C-18.2706 204.08 -18.4839 203.987 -18.7469 204.265ZM-29.6458 188.357C-29.6814 188.649 -29.7027 188.906 -29.7383 189.198C-29.4468 189.561 -28.2239 190.246 -28.2595 189.469C-28.3732 189.155 -28.0817 188.906 -27.9538 188.67C-28.231 188.065 -29.1482 188.058 -29.6387 188.35L-29.6458 188.357ZM20.327 204.743C21.0024 204.272 21.1517 203.93 20.9597 203.666C20.6185 203.795 20.0568 204.008 19.3103 204.279C19.3103 204.415 19.3103 204.543 19.3245 204.636C19.6658 204.671 19.9786 204.707 20.327 204.75V204.743ZM-10.5141 218.334C-10.6137 218.477 -10.7203 218.641 -10.8412 218.819C-10.5852 219.133 -10.2866 219.346 -9.95958 219.546C-7.40726 218.299 -11.2251 217.03 -10.5141 218.334ZM-22.7709 205.911C-21.7543 206.054 -21.5552 205.89 -21.3348 204.949C-21.5908 204.735 -21.8467 204.522 -22.1169 204.294C-23.0127 204.536 -23.3752 205.149 -22.7709 205.911ZM-31.8356 197.202C-31.9991 197.238 -32.1626 197.266 -32.2977 197.316C-32.0275 197.751 -31.7432 198.2 -31.4517 198.649C-30.8687 198.264 -30.6341 197.209 -31.8356 197.202ZM-16.2373 216.567C-16.5714 216.531 -16.9269 216.51 -17.2113 216.702C-16.8274 217.116 -16.4506 217.522 -16.0667 217.928C-15.5974 217.636 -15.3984 216.966 -16.2373 216.567ZM-32.0702 194.593C-31.0038 193.838 -31.6507 192.141 -32.8665 193.175C-33.6058 194.03 -32.9304 194.422 -32.0702 194.593ZM-33.8476 191.949C-34.0111 191.03 -34.6936 190.965 -35.4188 191.407C-35.2268 191.899 -34.9922 192.419 -34.7292 192.968C-34.722 192.968 -34.7078 192.968 -34.7007 192.968C-34.4306 192.619 -33.9542 192.469 -33.8476 191.942V191.949ZM-24.9109 195.256C-25.0531 194.992 -25.11 194.686 -25.1313 194.379C-25.3872 194.265 -25.6219 194.159 -25.9062 194.037C-26.084 194.579 -26.9656 194.764 -26.5816 195.548C-25.7996 195.855 -25.5223 195.812 -24.9109 195.256ZM2.89443 210.316C3.05084 210.558 3.20014 210.787 3.34233 211.007C3.67648 211.036 3.96086 211.057 4.21681 211.079C5.50363 209.753 3.74047 208.677 2.90155 210.316H2.89443ZM13.189 207.294C13.5161 207.422 13.8147 207.536 14.1488 207.672C15.393 207.38 14.8313 206.068 14.0706 206.033C13.9284 206.075 13.7791 206.118 13.6369 206.161C13.5161 206.239 13.4023 206.353 13.2957 206.524C13.2672 206.752 13.2317 207.002 13.189 207.294ZM16.6798 209.489C17.0708 209.254 17.1277 208.826 17.341 208.477C16.9784 207.914 16.3457 207.472 15.7769 208.028C15.7982 208.171 15.8338 208.328 15.8551 208.449C15.7271 208.648 15.6276 208.812 15.5352 208.955C15.8124 209.447 16.2746 209.411 16.6798 209.496V209.489ZM7.24546 216.973C7.71469 216.303 7.71469 215.455 6.70514 215.555C4.94198 215.64 6.40654 217.864 7.24546 216.973ZM10.8855 211.3C10.2172 209.033 8.45408 212.618 10.6865 212.412C11.1984 211.856 11.1984 211.863 10.8855 211.3ZM-6.65365 218.263C-6.26974 218.505 -5.93559 218.719 -5.58011 218.947C-4.38571 218.327 -5.24597 217.629 -5.91426 216.952C-6.19864 217.422 -6.63232 217.75 -6.65365 218.27V218.263ZM-1.30018 212.811C-1.55612 212.775 -1.94004 212.946 -2.07512 212.647C-2.51591 211.92 -3.07756 212.846 -3.01358 213.395C-2.53013 214.307 -0.58923 213.88 -1.29307 212.811H-1.30018ZM-15.313 210.003C-16.4861 210.459 -16.2088 211.941 -14.9078 211.521C-14.1329 211.129 -14.2751 209.938 -15.313 210.003ZM-2.53724 209.881C-2.43771 209.774 -2.33817 209.653 -2.24575 209.546C-2.55857 209.575 -2.86428 209.596 -3.16999 209.618C-3.00647 209.732 -2.8074 209.824 -2.53724 209.888V209.881ZM-11.7156 217.429C-11.609 217.094 -11.5095 216.773 -11.4241 216.503C-12.5901 214.806 -14.3604 217.614 -11.7156 217.429ZM-30.9042 190.602C-31.2739 191.025 -31.409 191.45 -31.3095 191.878C-30.6056 192.049 -29.8307 192.191 -29.5605 191.279C-30.0084 191.008 -30.3284 190.545 -30.9113 190.602H-30.9042ZM-31.9138 187.487C-31.7787 187.78 -31.6081 188.008 -31.2313 188.029C-29.1197 187.024 -30.8758 185.064 -31.9138 187.487ZM-15.7183 215.148C-15.3415 215.327 -14.986 215.491 -14.6163 215.669C-14.4599 215.59 -14.3106 215.512 -14.1969 215.455C-14.0476 214.892 -13.8983 214.372 -14.5026 213.987C-15.0998 214.243 -15.7965 214.329 -15.7183 215.156V215.148ZM-20.2328 211.492C-19.7707 211.834 -19.2802 211.827 -18.7683 211.613C-18.7185 211.364 -18.6759 211.143 -18.6261 210.865C-19.4366 209.953 -20.4959 210.081 -20.2328 211.485V211.492ZM-8.60877 215.391C-8.7083 215.626 -8.81495 215.883 -8.90737 216.103C-8.75807 216.446 -8.63721 216.731 -8.50924 217.03C-7.79829 216.902 -7.42148 216.453 -7.17265 215.847C-7.52338 215.586 -8.00209 215.434 -8.60877 215.391ZM21.7489 205.078C21.6778 205.177 21.6422 205.327 21.6849 205.534C21.7062 205.641 21.5711 205.776 21.5072 205.897C21.5711 205.954 21.6209 206.004 21.6707 206.047C21.7133 205.84 21.7489 205.633 21.756 205.441C21.756 205.327 21.756 205.206 21.7418 205.078H21.7489ZM-12.6683 211.991C-12.9598 211.991 -13.2726 211.984 -13.5712 211.977C-13.9765 212.561 -13.7347 212.982 -13.2868 213.402C-12.2986 213.645 -11.7227 212.526 -12.6683 211.991ZM3.43476 214.258C4.20259 215.227 5.29745 215.989 5.19081 214.136C4.9633 213.481 3.73336 213.787 3.43476 214.258ZM-9.61832 211.806C-9.39082 212.447 -8.87182 212.611 -8.52345 212.953C-7.6632 212.64 -7.585 211.321 -8.6301 211.278C-8.9287 211.442 -9.25574 211.613 -9.61832 211.806ZM-7.69875 210.01C-7.40726 210.202 -7.066 210.316 -6.69631 210.402C-6.47591 210.202 -6.26263 210.01 -6.00669 209.782C-6.02091 209.746 -6.04223 209.725 -6.05645 209.689C-6.60389 209.682 -7.15132 209.653 -7.67742 209.611C-7.69164 209.739 -7.69875 209.874 -7.69875 210.01ZM0.690484 215.676C1.62183 214.942 0.434542 214.699 -0.0417959 214.229C-0.262191 213.98 -0.383054 214.037 -0.759859 214.429C-0.496807 215.341 -0.375944 215.747 0.690484 215.683V215.676ZM12.5421 214.272C13.0208 214.091 13.2601 213.949 13.2601 213.844C13.189 213.737 13.1037 213.623 12.9971 213.466C13.1179 213.231 13.2103 213.032 13.3241 212.811C12.5136 212.333 11.9591 212.611 11.7458 213.509C12.087 213.716 12.3217 213.958 12.5421 214.272ZM-0.674546 210.266C-1.99692 211.478 0.263912 212.169 0.676265 210.765C0.327898 210.159 -0.226646 210.33 -0.674546 210.266ZM9.07972 214.749C9.49918 214.208 9.24324 212.925 8.39009 213.288C6.9753 213.766 8.10571 214.749 9.07972 214.749ZM-2.45903 217.6C-2.16754 218.014 -1.69832 217.721 -1.39261 217.907C-1.11533 217.707 -0.880721 217.543 -0.567902 217.315C-1.10823 216.296 -2.38794 216.353 -2.45903 217.607V217.6ZM-16.3297 212.226C-17.3961 211.97 -17.7303 212.568 -17.8938 213.409C-17.126 214.165 -16.1875 213.039 -16.3297 212.226ZM14.4616 215.633C14.8384 215.27 15.2152 214.906 15.5707 214.55C15.5707 214.535 15.5707 214.521 15.5707 214.507C14.3905 214.5 14.0066 214.885 14.4616 215.633ZM13.9924 211.428C15.2366 211.563 15.9333 211.428 14.9024 210.188C14.1061 209.974 13.5303 210.794 13.9924 211.428ZM2.92287 212.419C2.53896 211.97 2.0484 211.87 1.51519 211.891C1.15971 212.483 1.47253 212.882 1.74269 213.402C1.90621 213.381 2.10528 213.352 2.28302 213.331C2.51052 213.017 2.7167 212.711 2.92998 212.419H2.92287ZM-17.3464 208.456C-17.5952 208.442 -17.8156 208.192 -18.1284 208.413C-18.1711 208.627 -18.228 208.876 -18.2848 209.147C-18.1071 209.411 -17.8654 209.596 -17.5525 209.725C-17.3464 209.618 -17.1402 209.518 -16.9482 209.425C-16.8558 209.14 -16.7705 208.876 -16.6852 208.627C-16.8771 208.385 -17.1189 208.47 -17.3464 208.456ZM-33.0015 186.162C-32.3119 185.82 -33.1437 185.335 -32.8878 184.765C-33.0869 184.644 -33.2575 184.537 -33.4068 184.444C-33.6485 184.715 -33.8831 184.979 -34.0964 185.235C-33.8618 185.706 -33.5276 186.033 -33.0015 186.155V186.162ZM3.59117 216.838C3.15749 215.883 2.05551 216.011 1.99864 217.144C2.53896 217.55 3.75469 217.835 3.59117 216.838ZM16.3172 213.473C16.4096 213.488 16.5021 213.502 16.5874 213.516C16.9571 213.131 17.3197 212.747 17.6609 212.369C16.7438 211.734 16.1679 212.533 16.3172 213.473ZM-27.257 201.371C-27.3921 201.207 -27.4988 201.079 -27.6054 200.958C-28.5012 201.592 -27.5912 202.255 -27.0011 202.611C-26.1408 202.326 -26.1764 200.951 -27.257 201.371ZM-11.9147 210.473C-11.609 210.651 -11.2891 210.836 -10.9905 211.007C-10.5994 210.794 -10.6563 210.366 -10.3933 210.138C-10.5141 209.896 -10.6137 209.689 -10.7345 209.447C-11.5663 209.504 -11.7938 209.703 -11.9218 210.473H-11.9147ZM-5.87871 214.578C-5.22464 213.958 -6.10622 213.623 -6.37638 213.146C-7.96891 213.324 -7.15132 214.621 -5.87871 214.578ZM7.16015 211.941C6.69803 211.064 5.06284 211.749 5.66715 212.583C6.5274 213.139 6.79045 212.647 7.16015 211.941ZM-10.6776 213.302C-10.898 213.502 -11.0829 213.673 -11.2891 213.858C-11.2606 214.065 -11.2393 214.258 -11.1966 214.557C-9.26996 215.213 -9.34816 214.208 -10.6776 213.295V213.302ZM8.10571 210.459C8.35455 210.238 8.58916 210.038 8.84511 209.817C8.56783 209.511 8.43275 209.29 8.33322 208.898C7.77157 209.133 7.19569 209.09 7.20991 209.888C7.52273 210.088 7.75024 210.366 8.11282 210.466L8.10571 210.459ZM-13.8414 207.822C-13.8769 207.886 -13.9054 207.964 -13.9196 208.064C-14.0547 208.399 -14.2751 208.969 -13.7347 209.04C-13.2086 209.083 -12.7963 208.933 -12.647 208.463C-12.91 208.342 -13.1731 208.221 -13.4148 208.085C-13.557 208.007 -13.6992 207.907 -13.8343 207.822H-13.8414ZM-28.4088 192.576C-28.5083 192.94 -28.8354 193.31 -28.615 193.667C-28.359 193.831 -28.1315 193.973 -27.8969 194.123C-27.6836 193.895 -27.4845 193.688 -27.2926 193.474C-27.2073 192.683 -27.7618 192.605 -28.4088 192.576ZM-28.4159 192.576C-28.4159 192.569 -28.4159 192.555 -28.4088 192.548L-28.423 192.576H-28.4159ZM2.21192 208.955C1.94887 208.998 1.69293 209.04 1.42987 209.083C1.65738 209.226 1.8991 209.333 2.21903 209.411C2.21903 209.254 2.21903 209.104 2.21903 208.955H2.21192ZM-13.4575 219.396C-13.6352 219.026 -13.82 218.641 -14.0618 218.128C-14.4172 218.512 -14.6874 218.812 -14.9505 219.097C-14.7372 219.318 -14.5168 219.539 -14.3035 219.753C-13.9693 219.81 -13.6068 219.71 -13.4575 219.396ZM-21.3846 210.024C-21.0647 209.247 -21.1429 208.926 -21.8751 208.563C-22.2306 208.791 -22.4652 209.09 -22.6501 209.539C-22.1026 209.575 -21.8538 210.138 -21.3846 210.031V210.024ZM-4.87627 211.777C-4.57056 211.3 -4.04446 211.67 -3.74586 211.285C-3.88094 210.844 -4.23641 210.765 -4.55634 210.623C-4.98291 210.801 -5.70098 211.749 -4.87627 211.777ZM-28.4159 192.583L-28.4017 192.555C-28.4088 192.562 -28.423 192.569 -28.4301 192.576C-28.4301 192.576 -28.423 192.576 -28.4159 192.583ZM-28.7358 192.533C-28.6363 192.719 -28.551 192.669 -28.423 192.576C-28.5368 192.498 -28.615 192.384 -28.7358 192.533ZM-10.1444 215.205C-10.2297 215.163 -10.2297 215.205 -10.2511 215.277C-10.1942 215.277 -10.1515 215.27 -10.1444 215.205ZM-6.76029 220.358C-7.34327 220.437 -7.91915 220.508 -8.50213 220.587C-8.53057 221.292 -7.7343 221.442 -7.15843 221.328C-6.77451 221.15 -6.74607 220.672 -6.58256 220.33C-6.63943 220.337 -6.69631 220.344 -6.76029 220.351V220.358ZM-2.75764 219.831C-3.28374 219.902 -3.80273 219.966 -4.32884 220.038L-4.50658 220.059C-4.15821 221.071 -2.50169 220.979 -2.41638 219.781C-2.53013 219.795 -2.65099 219.81 -2.76474 219.824L-2.75764 219.831ZM0.44876 220.287C1.50808 220.323 1.72136 220.016 1.6005 219.261C1.0744 219.332 0.555403 219.396 0.0292983 219.468C0.0790649 219.788 0.15727 220.095 0.44876 220.287ZM-11.5095 221.898C-11.0971 221.67 -10.9976 221.342 -11.1184 220.929C-11.5805 220.993 -12.0498 221.05 -12.5119 221.114C-12.5688 221.121 -12.6256 221.128 -12.6825 221.135C-12.2773 221.378 -12.0142 221.841 -11.5023 221.898H-11.5095ZM8.21947 218.391C8.44697 218.762 8.8451 218.812 9.11527 219.197C9.42097 218.84 9.91864 218.705 9.9613 218.163C9.90442 218.17 9.84755 218.178 9.78356 218.185C9.25746 218.256 8.73846 218.32 8.21236 218.391H8.21947ZM5.23347 219.517C5.43253 219.225 5.60316 218.969 5.7809 218.712C5.2548 218.783 4.7358 218.847 4.2097 218.919C4.30212 219.389 4.87088 219.346 5.23347 219.517ZM2.31856 223.459C1.94176 222.917 0.90377 222.026 0.590951 223.045C0.733141 223.601 0.676264 223.751 0.534074 224.328C1.38722 224.884 2.1977 224.521 2.31856 223.459ZM-4.05868 225.882C-4.94026 225.105 -5.38816 225.868 -5.7223 226.688C-4.94737 227.878 -2.84295 227.165 -4.05868 225.882ZM-7.29351 225.618C-6.59677 225.483 -6.44748 224.842 -6.05645 224.485C-6.96647 222.946 -9.3055 224.656 -7.29351 225.618ZM-4.71986 221.634C-5.78629 221.142 -5.99247 221.919 -6.26974 222.775C-5.20331 223.53 -3.67476 222.974 -4.71986 221.634ZM-10.2937 223.003C-9.86005 224.065 -8.18931 223.915 -8.66565 222.618C-8.79362 221.428 -10.3008 221.934 -10.2937 223.003ZM3.9893 221.278C3.6433 220.912 3.2428 220.629 2.78779 220.43C1.35167 221.862 3.64093 223.252 3.9893 221.278ZM-3.1771 228.498C-2.56568 228.705 -2.03246 228.776 -1.60589 228.683C-1.5348 228.555 -1.47792 228.419 -1.44237 228.248C-1.96848 227.229 -3.13444 227.229 -3.1771 228.498ZM-1.13666 220.957C-1.44948 221.085 -1.70543 221.199 -1.95426 221.299C-1.96848 222.318 -1.79074 222.383 -0.866503 222.447C-0.61767 222.233 -0.31196 221.976 -0.0133598 221.72C-0.169769 221.028 -0.774077 221.164 -1.13666 220.957ZM-3.5539 223.616C-4.02313 224.663 -3.44726 224.842 -2.57279 224.984C-1.95426 224.97 -2.15333 224.264 -2.08223 223.794C-2.56568 223.416 -3.04912 223.388 -3.56101 223.616H-3.5539ZM-1.41393 225.868C-1.20776 226.16 -1.03002 226.41 -0.816734 226.716C0.711813 226.901 0.662045 225.034 -0.852284 225.148C-1.03002 225.376 -1.22198 225.626 -1.40683 225.868H-1.41393ZM6.2288 222.775C6.10794 222.318 5.62449 222.062 4.87088 222.504C4.87088 222.782 4.87088 223.01 4.87799 223.231C5.16948 223.323 5.11971 223.502 5.07706 223.694C5.46097 223.388 5.84489 223.074 6.2288 222.768V222.775ZM6.69803 220.309C6.46342 221.591 8.07727 221.691 8.27634 220.48C7.87821 220.059 6.92553 219.432 6.69803 220.309ZM3.66937 224.749C2.98686 224.927 2.7949 225.212 2.84467 225.462C3.13616 225.234 3.42054 225.013 3.71203 224.785C3.69781 224.77 3.68359 224.763 3.66937 224.749Z" fill="#3A2A79" style="fill:#3A2A79;fill:color(display-p3 0.2275 0.1647 0.4745);fill-opacity:1;"/>
</g>
</g>
<defs>
<linearGradient id="paint0_linear_7_1256" x1="7151.18" y1="15377.6" x2="21666.3" y2="2572.25" gradientUnits="userSpaceOnUse">
<stop stop-color="#EEEEEE" style="stop-color:#EEEEEE;stop-color:color(display-p3 0.9333 0.9333 0.9333);stop-opacity:1;"/>
<stop offset="1" stop-color="#D8D8D8" style="stop-color:#D8D8D8;stop-color:color(display-p3 0.8471 0.8471 0.8471);stop-opacity:1;"/>
</linearGradient>
<clipPath id="clip0_7_1256">
<rect width="299" height="224" fill="white" style="fill:white;fill-opacity:1;"/>
</clipPath>
<clipPath id="clip1_7_1256">
<rect width="326" height="288" fill="white" style="fill:white;fill-opacity:1;" transform="translate(-27 12)"/>
</clipPath>
</defs>
</svg>
