<svg width="300" height="225" xmlns="http://www.w3.org/2000/svg" xmlns:xlink="http://www.w3.org/1999/xlink"><defs><linearGradient x1="23.917%" y1="68.692%" x2="84%" y2="28.893%" id="b"><stop stop-color="#EEE" offset="0%"/><stop stop-color="#D8D8D8" offset="100%"/></linearGradient><path id="a" d="M0 0h300v225H0z"/></defs><g fill="none" fill-rule="evenodd"><mask id="c" fill="#fff"><use xlink:href="#a"/></mask><use fill="url(#b)" xlink:href="#a"/><g mask="url(#c)"><path fill="#4C251B" d="M150.848 149.6l-.128 2.142-.278 4.58-.64 10.586h-9.779l-.64-10.586-.28-4.58-.128-2.142z"/><path fill="#965C45" d="M150.848 149.6l-.128 2.142-.278 4.58h-11.06l-.279-4.58-.128-2.142z"/><path fill="#7C4431" d="M139.104 151.742h11.615l-.276 4.58h-11.061z"/><path fill="#352351" d="M146.6 149.6l-.134 2.142-.287 4.58-.664 10.586h4.248l.665-10.586.287-4.58.134-2.142z"/><path fill="#000" d="M138.275 149.6h13.404v-.668h-13.404z"/><path d="M138.372 146.524a6.203 6.203 0 00-.095 1.071c0 .024.003.045.003.069h13.627l.001-.069a6.21 6.21 0 00-.096-1.071h-13.44z" fill="#E5CE6C"/><path d="M152.595 148.083v.849h-15.41v-.85c0-.268.243-.487.545-.487h14.324c.299 0 .541.219.541.488" fill="#F4DC78"/><path fill="#E5CE6C" d="M136.246 148.932h16.962v-.486h-16.962z"/><path d="M145.808 147.058c0 .195-1.556.353-3.478.353-1.92 0-3.478-.158-3.478-.353 0-.195 1.558-.352 3.478-.352 1.922 0 3.478.157 3.478.352M141.442 147.964c0 .165-.87.3-1.946.3-1.075 0-1.946-.135-1.946-.3 0-.165.871-.3 1.946-.3s1.946.135 1.946.3" fill="#F4DC78"/><path fill="#464F7C" d="M248.973 215.53l-17.21 61.839 6.301 74.544H226.97l-15.234-78.832 15.234-90.273z"/><path d="M246.065 92.928s-1.956-17.872-6.53-17.872c-9.584 0-25.633 49.525-26.132 56.82-.84 12.282 7.421 13.016 15.521 14.013 7.926.977 9.397-16.817 9.397-16.817l7.744-36.144z" fill="#FF9739"/><path d="M226.969 180.405l11.91 37.3s14.043 50.377 16.58 80.756c2.54 30.38 0 51.145 0 51.145l14.012 2.307s8.086-63.066 5.077-84.216c-3.009-21.15.671-72.68.671-72.68l-5.748-14.612h-42.502z" fill="#5D69A5"/><path fill="#F9B406" d="M274.782 77.723l-13.877-5.572-12.24.645-9.13 2.26-13.506 57.828.456 52.788 48.734-.858-13.083-34.482z"/><path d="M226.29 131.766l-.261 1.118.167 19.274c4.679 3.061 10.883 6.096 17.087 6.096 10.102 0 18.572 6.277 24.972 8.206l-6.119-16.127 2.673-13.888-38.52-4.68z" fill="#BF6D00"/><path d="M256.637 135.904c-3.23 2.303-5.335 5.64-12.302 7.659 4.08 3.257 8.751 6.638 13.2 9.279 1.058-5.767 1.821-10.529 1.948-16.295-.153.065-2.685-.694-2.846-.643" fill="#FD5E5A"/><path d="M283.264 89.15c-2.07-6.692-8.482-11.426-8.482-11.426-7.034-.833-9.085 36.962-9.085 36.962L262.9 135.57c-.572.626-2.666.015-3.417.332-.128 5.766-2.22 11.885-3.277 17.651 6.953 4.126 14.698 5.723 17.473 2.886 6.317-6.448 11.664-60.586 9.584-67.289" fill="#FBCE5D"/><path d="M213.848 121.977c-.719.362-1.419.725-2.041 1.068.604-.59 1.093-1.882 1.945-2.5 1.743-1.264 4.38-1.97 4.773-1.567.47.49-2.167 1.744-4.677 2.999m9.728-6.37c-2.76-.608-11.367 2.45-11.367 2.45s-2.28 3.243-2.28 5.33c0 .353.19.529.507.49-.594.44-.88.804-.643 1.048 1.14 1.167 10.131-3.253 10.668-2.704.536.55-10.217 2.341-9.345 4.332.364.832 4.496-.49 7.093-1.412-2.262.902-5.569 2.36-5.569 3.244 0 1.352 9.374-.726 11.425-.726.766 0 2.012.831 3.43 1.741.633-.116 1.064.19 1.333.104 0 0 7.016-.159 15.947.977-9.755-5.968-20.453-14.708-21.199-14.874" fill="#FC7575"/><path d="M264.506 123.585c-.473 2.314-.396 9.233-1.468 10.963 0 0-1.165-.84-1.549-.431h-.008c-3.82 2.08-9.216 7.813-19.744 10.102-10.34 2.215-24.448 3.36-24.448-3.821 0-7.17 7.062-11.102 11.54-11.102 0 0 7.014.049 15.947 1.185h.018c8.922 1.147 18.782-7.622 19.712-6.896" fill="#FF8D8D"/><path d="M274.782 77.724c-6.527.369-6.727 30.683-11.881 57.845 1.087-14.037 3.794-59.525 11.881-57.845" fill="#FFF7CF"/><path d="M244.928 58.25l.863 2.797s3.007-.874 4.038-2.448c1.028-1.573 1.086-2.506 1.086-2.506l-5.987 2.156z" fill="#FFF"/><path d="M266.605 33.35c1.447-1.145 3.574-1.714 6.093-.976l-.319.889c-2.216-1.024-4.27-.775-5.774.087M273.387 37.945c-.38-1.315-1.23-2.681-2.423-3.468-1.187-.786-2.065-.763-3.02-.786-.354.017-.705.093-1.059.136.103-.017 1.37-.328 2.128-.206 2.208.11 4.04 1.977 4.804 4.188l-.43.136z" fill="#1B2B80"/><path d="M248.512 66.427c.495-4.87.89-8.477.89-8.477l10.865-7.146s.43 3.117.914 7.418c.555 4.907 1.179 11.351 1.318 16.47-6.053 4.136-12.213 3.726-14.836 2.755-.087-.54.558-8.15.85-11.02" fill="#FC7575"/><path d="M261.182 58.223c-.485-4.301-.915-7.418-.915-7.418L249.4 57.951s-.393 3.605-.888 8.475c3.376-1.582 8.646-4.653 12.669-8.203" fill="#FD5E5A"/><path d="M248.176 27.583s-2.015-.834-3.693 1.905c-1.68 2.739-3.248 11.91-1.793 20.364 1.456 8.456 2.575 11.672 6.046 11.672 3.47 0 9.852-1.55 14.553-12.982 4.702-11.432 3.135-24.532-15.113-20.959" fill="#FC7575"/><path d="M247.617 34.542c-.785 0-7.964 1.072-9.178-6.55-1.217-7.622 10.13-17.507 15.392-15.005 5.262 2.5-1.4 6.855-1.4 6.855s3.806-2.263 4.925.357c1.12 2.62-.56 3.81 0 4.407.56.595 4.17-4.754 8.19-.477 4.022 4.277 1.326 6.907 2.332 9.289 1.01 2.382 5.632 5.808 1.01 13.815-2.938 5.085-7.949 6.043-7.949 6.043s.784-2.709.784-6.282-2.688-.714-2.688-.714 1.232-.274 1.232-3.811c0-3.8 1.456-6.87 1.456-7.841 0-.972.335-3.472-3.471-1.805-3.807 1.666-10.635 1.72-10.635 1.72" fill="#1B2B80"/><path d="M249.158 49.95c.294.03.338-.444.043-.476l-2.913-.3.727-8.043c-.33 2.284-.948 6.54-1.228 8.47l3.371.348M256.199 41.002c-2.24-3.659-5.773-1.33-5.808-1.307-.25.169-.008.572.241.403.129-.089 3.19-2.104 5.191 1.164.067.11.205.142.31.07a.248.248 0 00.066-.33M242.984 37.598a.232.232 0 00-.224.238c0 .133.1.24.224.24 1.912 0 2.302 2.035 2.317 2.122.057.308.496.22.441-.09-.005-.024-.472-2.51-2.758-2.51" fill="#172866"/><path d="M251.332 53.093l-.007.008c-1.08 1.193-3.684 1.118-5.223.843l-.01-.002c-.348-.062-.45.492-.106.576 4.279 1.043 6.727-.67 5.98-1.437a.429.429 0 00-.634.012" fill="#FFF"/><path d="M258.098 48.235s-.224-5.36 3.694-6.43c3.919-1.073 3.41 3.636 1.232 5.953s-4.926.477-4.926.477" fill="#FC7575"/><path d="M261.792 43.394c-1.642-.477-2.345 1.962-2.416 2.204-.233.793-.122 1.528 1.26 1.805 1.38.278 2.798-3.532 1.156-4.009" fill="#FD5E5A"/><path d="M252.604 42.617c0 .69-.365 1.248-.815 1.248-.45 0-.815-.558-.815-1.248 0-.689.366-1.247.815-1.247.45 0 .815.558.815 1.247M244.709 42.232c0 .608-.258 1.1-.575 1.1-.318 0-.574-.492-.574-1.1 0-.608.256-1.1.574-1.1.317 0 .575.492.575 1.1" fill="#18287D"/><path d="M93.9 182.888c.05-.175.077-.277.077-.277s-.029.1-.077.277" fill="#E6000E"/><path d="M103.431 170.957c-2.92 2.611-5.437 3.99-5.437 3.99s-6.195 4.17-6.195 6.063c0 1.893-1.935 8.231-.775 8.231 1.02 0 2.522-5.102 2.876-6.353.047-.176.077-.277.077-.277l-.077.277c-.336 1.227-1.619 6.171-.795 7 .945.945 2.76-7.568 2.76-7.568s-1.017 6.921 0 6.921c1.015 0 1.422-7.107 2.544-8.231 1.123-1.125-.078 5.53 1.374 5.53 1.453 0 .477-5.253 1.479-6.257.252-.251 2.645-2.85 6.49-4.65-.752-2.711-1.38-3.19-4.32-4.676" fill="#FD5E5A"/><path d="M156.808 82.2c-17.7 2.534-12.879 60.267-25.685 66.902-8.953 4.64-21.573 15.42-28.362 21.49 2.94 1.485 4.473 3.689 5.226 6.402 11.51-5.383 33.935-15.777 36.22-19.703 3.048-5.238 16.874-67.152 16.874-67.152s-2.045-8.258-4.273-7.939" fill="#3F2344"/><path fill="#6D70A8" d="M171.355 188.14l-24.531 90.383 5.996 69.56h-10.56l-14.5-73.56 14.5-84.235z"/><path d="M150.014 187.268l.01 23.66s16.935 58.93 19.353 87.276c2.415 28.348 0 47.725 0 47.725l13.334 2.153s7.696-58.848 4.834-78.583c-2.865-19.735.637-67.819.637-67.819l-4.772-19.691-33.396 5.279z" fill="#7C8BDE"/><path d="M182.678 79.727s-12.106-4.685-25.87 2.473c-12.38 6.439-18.093 80.746-17.641 107.923 19.44 4.115 52.39 7.525 52.39 7.525l-4.864-51.304 3.167-25.35s6.915-35.746-7.182-41.267" fill="#542F5A"/><path d="M156.808 82.2c-13.044 7.604-17.388 92.637-17.642 107.923-.763-18.537 2.908-100.033 17.642-107.923" fill="#95719C"/><path fill="#FC7575" d="M178.807 196.968l-6.618 6.634 7.682 5.396 2.227-7.761z"/><path fill="#1B2E96" d="M169.099 201.091v4.075l14.741 9.894 1.016-3.346z"/><path d="M184.133 80.451s-7.748 13.685-5.762 25.91c1.985 12.223 14.179 34.34 16.793 41.326 2.612 6.985-19.744 50.785-19.744 50.785l6.968 7.754s33.874-48.972 33.874-60.618-21.38-62.788-32.129-65.157" fill="#76597B"/><path d="M184.133 80.451c-3.54 7.399-6.588 17.614-5.197 25.73 1.99 11.527 12.486 31.065 16.228 41.506-11.849-26.246-25.95-41.685-11.03-67.236" fill="#95719C"/><path d="M158.463 49.021s-2.112-3.613-4.103-3.216c-1.99.398-1.662 6.199.757 6.93 2.419.732 4.537-.936 3.346-3.714" fill="#FD5E5A"/><path d="M174.968 54.835s-.17 20.278-1.992 24.095c-1.823 3.818-9.571 5.52-12.599 3.428l-.531-17.271 15.122-10.252z" fill="#FC7575"/><path d="M160.002 70.165l-.156-5.078 15.122-10.252s-.035 4.084-.237 8.933c-1.858 2.523-3.973 4.6-5.865 5.905-3.166 2.182-6.438 2.164-8.864.492" fill="#FD5E5A"/><path d="M161.508 33.477s-4.572.875-5.79 4.408c-1.219 3.534-1.934 20.919-.182 24.961 1.75 4.04 6.509 5.23 11.289 2.12 4.78-3.112 11.156-10.521 11.624-17.417.47-6.896-8.482-17.756-16.941-14.072" fill="#FC7575"/><path d="M167.314 30.241c3.064.914 10.23-2.91 13.28 4.126 3.051 7.038-1.414 7.888-.312 10.431 1.103 2.545.688 3.626-.827 8.018-1.515 4.391-2.823 6.151-3.41 6.954-.757 1.039-1.215 1.307-1.215 1.307l.136-6.061s2.387-2.7 1.706-4.27c-.68-1.57-3.233.379-4.123-.586-1.415-1.538 1.953-11.204-5.333-13.439-6.37-1.955-11.12.594-12.218 5.309-1.923-.406-.323-15.56 12.316-11.789" fill="#111F59"/><path d="M173.096 51.424s1.793-3.568 3.763-3.012c1.971.559 2.079 6.518-.226 7.092-2.306.575-4.494-1.303-3.537-4.08" fill="#FC7575"/><path d="M173.893 51.168s2.932-2.431 3.69-.682c.758 1.75-.568 3.921-2.642 3.101-2.074-.82-1.048-2.419-1.048-2.419" fill="#FD5E5A"/><path d="M166.284 58.983c-2.349.607-4.972.697-7.28.008-.792-.213-1.534-.566-2.294-.926.648.524 1.36 1.016 2.164 1.303 1.6.756 4.838.963 7.41-.385M170.697 49.924c-.027-.1-.696-2.486-2.724-3.59-2.075-1.13-4.046.314-4.13.375-.269.201.033.612.304.41.072-.053 1.799-1.307 3.582-.336 1.835.999 2.47 3.253 2.476 3.275a.255.255 0 00.492-.134M160.066 46.489c-1.162-1.79-4.746-.506-5.2.234-.174.29.26.555.438.267 0 0 .366-.49 2.026-.838 1.642-.343 2.283.578 2.309.617.189.28.61-.002.427-.28" fill="#172866"/><path d="M167.92 50.742c-.516-.352-1.211-.674-2.004-.903a7.971 7.971 0 00-1.225-.254c.25-.692 1.129-1.043 2.01-.79.91.264 1.479 1.075 1.267 1.812-.014.046-.03.09-.048.135M159.172 49.287c-.611-.127-1.376-.158-2.195-.064-.436.05-.85.132-1.228.236-.036-.733.642-1.397 1.554-1.501.94-.108 1.775.423 1.861 1.185.006.049.008.096.008.144" fill="#1B2B80"/><path d="M159.964 54.239c.547-.712 1.429-1.414 1.457-1.44.041.053.692.776 1.076 1.467-.383-.29-.784-.694-1.107-1.052-.426.364-.938.758-1.426 1.025" fill="#18287D"/><path d="M170.898 39.506s-2.538-4.559-2.644-6.845c-.104-2.286 2.026-3.945 3.466-3.376 1.44.569 1.33 1.703 1.33 1.703s.296-2.342-1.024-3.635c-1.32-1.292-3.407-.452-4.466.008-1.058.461-1.262 1.103-1.262 1.103s-.639-1.865.531-2.79 2.727-.358 2.727-.358-1.785-1.574-4.108-.562c-2.321 1.01-2.21 2.366-2.463 3.009-.253.642.394 1.881.394 1.881s-1.719-.682-2.221-1.846c-.506-1.163 1.255-3.521 1.255-3.521s-6.53.216-4.084 5.86c0 0-1.267.344-2.162-.65-.896-.993-.389-2.53-.389-2.53s-8.174 12.15-.78 15.073c.285.112-.012-3.764 5.807-5.019 5.498-1.184 10.093 2.495 10.093 2.495" fill="#1B2B80"/><path d="M164.692 53.322c0 .835 1.346 1.513 3.008 1.513 1.66 0 3.007-.678 3.007-1.513 0-.835-1.347-1.512-3.007-1.512-1.662 0-3.008.677-3.008 1.512M158.755 52.798c0 .835-1.346 1.513-3.008 1.513-.443 0-.864-.048-1.245-.136-.014-.899-.017-1.82-.009-2.751a5.6 5.6 0 011.254-.139c1.662 0 3.008.679 3.008 1.513M92.762 111.682l-.194.943 2.477 31.132s12.449 18.768 16.867 23.197c4.37 4.38 10.776 0 10.776 0-8.258-12.174-29.926-55.272-29.926-55.272M99.08 330.534c.637-2.088 5.763-10.12 12.404-20.265 13.92-21.232 34.565-51.978 34.565-56.644 0-7.008-15.942-28.953-23.651-37.752-5.033-5.745-21.236-26.489-21.236-26.489l-10.15-5.659s12.15 42.946 12.15 45.821c0 2.876 28.008 17.97 26.573 22.283-1.434 4.313-7.388 10.781-12.138 15.543-2.998 3.005-9.015 20.357-13.904 33.61.227.114.445.241.658.377-.218-.126-.432-.264-.658-.376-2.857 7.747-5.329 14.097-6.584 15.355-1.278 1.28-2.328 1.955-3.228 2.382-1.498.713-1.73 6.43-1.464 8.408 1.825 2.65-2.224 14.07-2.224 14.07l7.453 9.82c2.42-2.425 1.639-7.48-.064-9.187-1.702-1.707-.473-4.828 1.498-11.297" fill="#FD5E5A"/><path d="M72.073 211.736l-8.64 10.131c-1.243-.06 4.482.216-12.054-.578-1.263-.05-2.261 1.362-2.078 2.962.16 1.415 1.193 2.395 2.304 2.189l12.51-2.316 8.266-12.005c.178-.26-.109-.616-.308-.383" fill="#000"/><path fill="#142060" d="M69.23 286.47H79.86v-74.561H69.23z"/><path d="M43.262 198.456v11.32c0 2.346 12.029 4.248 26.868 4.248 14.84 0 26.87-1.902 26.87-4.248l.005-10.312-53.743-1.008z" fill="#1B2B80"/><path d="M70.127 194.208c-14.837 0-26.865 1.901-26.865 4.248 0 2.346 12.028 4.248 26.865 4.248.206 0 .407-.002.612-.003 2.041 1.062 6.92 2.695 12.615 2.695 7.534 0 13.864-2.411 13.645-5.931-.203-3.259-12.033-5.257-26.872-5.257" fill="#A6BBEE"/><path d="M79.858 286.47h-7.42v-56.03c0-5.22 3.322-9.452 7.42-9.452v65.482z" fill="#7D8CB3"/><path d="M135.472 354.972c-3.407-1.079-3.407-17.071-5.557-26.954-2.144-9.845-4.67-71.043-5.737-78.166-1.076-7.188-25.952-52.585-25.952-52.585l2.936-7.883c-10.886 2.32-25.682 2.77-36.67 2.9 7.632 19.89 44.166 59.005 44.166 59.005s1.982 40.251 7.36 57.862c1.316 4.311 3.946 13.524 4.153 14.086 2.785 7.561 4.767 11.39 1.935 16.328-1.16 2.027 2.566 10.153 2.566 10.153 1.382 2.919 2.181 8.057 4.063 9.944 1.882 1.886 10.16 1.018 10.16 1.018s-.017-4.63-3.423-5.708" fill="#FC7575"/><path d="M152.192 249.19c-1.767-7.356-49.33-59.806-49.33-59.806s-10.294-8.26-2.61-38.525c5.818-22.906 2.826-26.595-1.84-34.002-4.058-6.439-6.66-7.962-6.66-7.962s-18.666-6.031-18.666-.64c0 5.39 6.095 28.75 2.51 42.767-3.695 14.441-16.72 29.866-11.64 43.102 0 0 30.764 45.666 36.408 51.323 5.642 5.656 3.81 15.873 3.81 15.873l48.018-12.13z" fill="#4247A2"/><path d="M102.86 189.384c-4.832-3.936-6.25-13.263-6.238-20.254.252-7.085.198-3.403.595-8.133 4.537-26.064 8.994-30.118.912-43.613-1.507-2.637-4.163-6.808-6.377-8.488 2.685 1.641 5.475 5.373 7.256 7.931 9.764 14.344 4.207 21.905.116 44.45-.116 1.291-1.83 10.104-.326 18.447.614 3.443 1.69 6.955 4.063 9.66" fill="#4F80FF"/><path d="M112.76 167.681c5.505 1.807 18.016 17.936 18.016 17.936s-.404 3.18-2.783 5.298c-2.38 2.117-3.682 3.197-3.03 3.476.65.279 3.91-2.27 3.91-2.27s-2.418 3.307-4.192 4.364c-1.775 1.059-1.04 2.636 2.94-1.434s3.121-2.223 2.703-1.248c-.417.977-4.624 4.758-5 6.62-.347 1.724 5.696-5.134 7.167-7.511-5.428 11.482-2.488 9.345 2.32-1.908 1.38-3.228.725-8.332.71-8.453-.021-.622-12.155-16.615-17.19-21.693-1.235-1.248-3.803 2.75-5.57 6.823" fill="#FD5E5A"/><path d="M44.859 100.809s.452-11.373 3.939-11.373c7.307 0 20.58 35.03 20.96 40.482.64 9.18-3.876 9.081-10.05 9.825-6.043.73-8.946-11.92-8.946-11.92l-5.903-27.014z" fill="#EF7374"/><path d="M17.129 183.044c2.41-9.485 12.946-26.743 12.946-26.743 1.752-9.02-7.46-45.165-7.46-45.165s.495-21.596 1.035-21.72c19.854-4.491 25.717.03 25.717.03s2.522 8.122 6.568 14.684c4.047 6.561 1.196 12.295-.232 18.617-1.429 6.323-2.246 35.783-2.246 35.783s2.204 34.056 3.87 42.17c1.667 8.111 11.187 65.61 11.187 65.61s-43.171 3.58-53.407 0c0 0-.388-73.783 2.022-83.266" fill="#4F80FF"/><path d="M49.367 89.446c4.75 16.187 9.468 15.726 7.815 24.783-1.224 6.92-2.038 4.015-3.295 17.543-3.816 45.185 2.875 72.089 12.067 121.164.837 4.46 1.679 8.921 2.56 13.375-10.404-77.744-9.995-48.906-14.08-107.844v.09c.161-6.314.84-29.16 1.902-35.433.847-4.253 2.668-8.851 2.108-13.292-.658-5.458-4.478-7.417-9.077-20.386" fill="#B9CCFF"/><path d="M16.5 97.986c1.579-5.002 6.467-8.54 6.467-8.54 5.362-.622 6.925 27.625 6.925 27.625l2.133 15.607c.435.47 2.623.568 2.628.73.199.018 2.027-.516 2.146-.48 2.463 1.722 4.067 4.216 9.379 5.724-4.529 3.545-18.319 13.686-22.372 9.624-4.815-4.818-8.891-45.28-7.306-50.29" fill="#EF7374"/><path d="M65.854 120.279c.299-.301 2.308.227 3.638 1.17.65.462 1.023 1.43 1.482 1.869a47.21 47.21 0 00-1.555-.798c-1.915-.938-3.924-1.875-3.565-2.241m-20.012 8.597c6.809-.85 12.156-.73 12.156-.73.206.064.534-.166 1.017-.077 1.082-.682 2.03-1.301 2.615-1.301 1.563 0 8.71 1.552 8.71.54 0-.658-2.522-1.75-4.246-2.423 1.98.688 5.13 1.677 5.408 1.054.663-1.486-7.535-2.826-7.125-3.237.409-.41 7.263 2.893 8.133 2.021.182-.182-.038-.454-.49-.783.241.03.386-.103.386-.366 0-1.56-1.739-3.984-1.739-3.984s-6.56-2.285-8.664-1.83c-.57.124-8.723 6.656-16.16 11.116" fill="#E05B59"/><path d="M30.8 123.722c.362 1.73.301 6.9 1.12 8.194 0 0 .887-.629 1.18-.323h.007c2.911 1.554 7.026 5.839 15.052 7.55 7.882 1.656 19.458 1.65 21.644-3.25.504-1.13.436-5.181-.045-5.975-2.144-3.543-8.971-1.929-11.76-1.929 0 0-5.348.037-12.156.887h-.015c-6.802.857-14.318-5.696-15.027-5.154" fill="#EE5A58"/><path d="M21.963 70.175s-.962 4.13 1.284 5.327c2.245 1.196 3.956-.563 3.956-.563s-.502 5.392 6.476 6.206c3.55.415 5.303-1.442 5.303-1.442s3.618 3.53 8.465 0c4.847-3.529 3.813-6.105 3.813-6.105s3.761-.925 4.736-4.866c.974-3.942-.385-7.582-.385-7.582s4.375-5.666 3.314-10.091c-1.062-4.427-2.534-6.299-2.534-6.299s1.07-4.307-2.673-6.82c-3.742-2.511-8.807-.836-8.807-.836s-3.794-5.503-11.232-3.469c-7.439 2.034-7.973 5.383-7.973 5.383s-6.98.718-8.14 4.426c-1.162 3.708 0 7.536 0 7.536s-2.979.296-2.338 3.078c.642 2.783 2.337 3.642 2.337 3.642s-3.598 1.692-2.429 4.074c1.171 2.383 3.648 1.83 3.648 1.83s-1.14 4.59-.296 5.53c.841.942 3.475 1.041 3.475 1.041" fill="#052F43"/><path d="M38.288 46.275s2.464-3.759 7.52-3.759c1.752 0 4.62 2.117 4.62 2.117s2.752-2.336 4.84 0 0 3.835 0 3.835 3.85.957 5.347 2.632c1.497 1.674.107 5.181-1.284 5.181 0 0 1.604 1.99-.107 4.923-1.71 2.933-5.239 2.4-5.239 2.4s1.278 2.196-.962 3.938-6.841.041-7.698-2.817c0 0-2.675.729-4.01-2.023-1.337-2.75.512-5.596.512-5.596s-3.065-3.135-3.065-5.887c0-2.751 4.21-3.642 4.21-3.642s-6.929-1.302-4.684-1.302" fill="#653870"/><path d="M33.364 70.274c-.452-1.388-1.31 12.239.81 18.733.349 1.07 7.285 8.287 10.522 4.64 0 0-2.195-3.956-2.607-9.651-.413-5.695 2.63-8.555 2.63-8.555s-10.918-3.83-11.355-5.167" fill="#EF7374"/><path d="M33.364 70.274C33.8 71.61 44.72 75.44 44.72 75.44s-1.516 1.424-2.262 4.263c-2.812-.101-7.288-1.015-9.652-3.144.01-3.982.334-6.974.558-6.286" fill="#EE5A58"/><path d="M45.673 47.24c1.795 1.138 4.989 4.359 4.725 7.074-.262 2.715 1.959 6.295 1.11 11.904-.848 5.61-3.844 9.1-5.259 9.677-1.415.577-10.593-.752-12.952-4.567-2.358-3.815-9.291-8.942-3.427-18.688 5.863-9.745 12.276-7.637 15.803-5.4" fill="#EF7374"/><path d="M45.771 60.918c.997.874 1.964.99 2.147 1.056-.313.622-.694 1.474-1.329 2.396.13-.67.32-1.31.528-1.94-1.5-.373-2.538-1.754-2.716-3.25.714 1.172.937 1.328 1.37 1.738M42.517 58.713c-.583-1.076-1.757-1.93-2.856-1.49-1.131.487-1.413 1.709-2.508 2.088 1.083.254 1.889-1.12 2.718-1.433.803-.343 1.767.228 2.646.835M46.22 59.3c.586-1.074 1.763-1.924 2.86-1.48 1.131.49 1.41 1.711 2.502 2.095-1.082.25-1.884-1.128-2.713-1.442-.802-.344-1.767.224-2.648.828M39.357 52.845c-1.11-.114-2.195.607-2.943 1.51 1.987-1.296 3.03-.996 4.174-.19 1.157.806 1.321 1.39 1.643.99.419-.523-1.458-2.11-2.874-2.31M48.432 54.845c.594-.068 1.276.409 1.997.736-1.292-1.91-2.783-2.065-4.037.165-.204.364.254.738.5.41 0 0 1.188-1.27 1.54-1.31M43.606 67.69s4.78-1.372 4.78-.656c0 .719-.468 2.52-.468 3.141 0 .62-.347 1.52-1.923 1.52-1.572 0-2.389-3.106-2.389-4.005" fill="#000"/><path d="M43.606 67.69c0 .23.055.609.162 1.042 1.04-.353 3.39-1.058 4.483-.623.074-.427.134-.819.134-1.075 0-.716-4.779.656-4.779.656" fill="#FFF"/><path d="M41.442 45.504s-7.185 3.212-5.028 4.141c2.157.93.78 4.712-.555 4.712-1.334 0 .093 2.613 1.37 3.695 1.277 1.081-1.132 3.613-2.407 3.613-1.275 0 3.177 1.215 1.037 4.032-2.139 2.815-5.614 1.259-5.614 1.259s.856 1.23 0 2.391c-.856 1.16-7.03 2.925-7.03-.561 0-3.487 1.771-3.517 1.771-3.517s-2.908-.826-3.471-3.142c-.564-2.315 2.86-2.315 2.86-2.315s-4.01-1.413-2.923-4.228c1.088-2.813 3.29-2.606 3.29-2.606s-5-5.122.49-8.065c3.095-1.66 5.219-.436 5.219-.436s.18-1.874 4.695-2.433c4.516-.559 6.296 3.46 6.296 3.46" fill="#422549"/><path d="M82.49 123.706c-.082.603-10.409 39.425-10.052 42.187.549 4.26 31.057 12.478 34.06 13.398 3.003.918 4.345 4.844 5.14 6.493.795 1.65 4.368 2.8 4.898 3.9.528 1.1-3.249 1.233-4.48-.374-1.23-1.607-2.356.802-2.166 2.149.192 1.347 1.293 6.195 3.92 7 2.628.803 4.41 2.696 3.594 3.09-.816.394-4.985-1.993-4.985-1.993s4.814 4.108 3.85 4.575c-.964.467-4.558-3.386-4.558-3.386s1.707 2.69 1.358 3.58c-.349.888-6.063-6.132-6.757-7.575-.696-1.443-1.445-10.4-1.597-13.376-.154-2.977-36.311-2.845-44.352-12.51 0 0 1.42-50.836 12.622-62.063 3.09.596 10.402 8.278 9.505 14.905" fill="#FC7575"/><path d="M72.985 108.801c3.585.796 10.462 8.217 9.844 14.8-1.002 4.892-8.536 33.417-9.859 41.46.083.514-1.039 1.43 4.402 3.99 7.881 3.766 20.91 7.612 29.126 10.24-7.639-1.97-25.563-6.717-32.297-10.9-3.094-1.953-2.025-3.06-2.194-3.445 2.667-14.785 9.102-36.865 10.16-41.423.712-5.985-5.544-13.713-9.182-14.722" fill="#FFB8B8"/><path d="M99.576 66.473s-1.71-4.395-12.045-4.395c-10.333 0-12.454 10.226-11.128 12.75 1.325 2.524-.929 7.63-3.313 8.33-2.385.701-8.354 3.975-5.128 7.209 3.227 3.234-2.557 3.055-2.557 5.976 0 2.922 1.768 4.844 5.83 5.367 4.061.522 28.34-35.237 28.34-35.237" fill="#330B3D"/><path d="M91.839 86.108c-2.626 9.446-9.792 6.228-10.78 14.343-.367 3.013.313 6.272 1.889 8.976 2.816 4.835 8.388 2.753 8.388 2.753s-4.067-2.333-3.276-3.319c0 0 3.575 4.4 6.47 3.04 2.897-1.357 3.855-3.068 3.855-3.068s-5.423-.026-2.427-3.155c2.09-2.179 5.374-4.358 7.678-7.88 1.717-2.627-1.17-8.259-1.79-12.823-3.071-3.032-6.428-5.818-9.883-8.517.035 3.22.753 6.498-.124 9.65" fill="#330B3D"/><path d="M97.906 96.776s-3.66 3.081-4.54 7.516c-.473 2.398-.84 5.476-.604 7.39.247 2.01-.687 3.384-2.692 3.618-1.226.142-2.598-.027-3.841-.937-1.982-1.447-4.91-3.928-5.257-6.657-.23-1.826 11.08-18.674 11.08-18.674l5.854 7.744z" fill="#FC7575"/><path d="M97.906 96.776l-5.854-7.744s-1.33 1.982-3.068 4.657c1.022 3.093 2.64 6.254 5.243 8.021 1.392-3 3.679-4.934 3.679-4.934" fill="#FD5E5A"/><path d="M101.397 68.745s2.621 1.468 3.664 4.706c1.043 3.239-.586 7.307-.149 10.102.44 2.797-2.659 16.931-9.602 14.8-6.943-2.132-8.006-12.35-8.361-14.623-.356-2.272 1.552-10.63 5.101-13.068 3.548-2.438 9.347-1.917 9.347-1.917" fill="#FC7575"/><path d="M105.061 73.451c-1.042-3.24-3.665-4.706-3.665-4.706s-5.797-.52-9.346 1.917C88.5 73.1 86.593 81.458 86.949 83.73c.271 1.736.955 8.11 4.36 11.972.358-3.958-2.457-9.826-1.295-15.467.344.207 1.853.365 2.613.325 3.211-.165-1.242-4.723 1.674-9.223 1.799-1.358 1.858-1.52 3.036-1.802.384 3.635 3.898 9.974 7.528 13.615-.243-2.774 1.19-6.612.196-9.699" fill="#FD5E5A"/><path d="M100.066 82.9c.217 1.76.664 3.871 1.116 5.6-.546.332-1.276.555-1.976.494 1.128.372 2.243-.328 2.314-.344-.313-1.438-.655-3.367-1.454-5.75M96.73 80.303s-1.404-.911-2.971-.97c-1.569-.055-3.563 1.906-3.563 1.906s2.24-1.532 3.285-1.453c1.046.079 2.115.68 2.115.68l1.133-.163zM100.465 80.047s1.075-1.11 2.371-1.399c1.296-.289 3.152 1.351 3.152 1.351s-2.015-1.18-2.877-.947c-.862.234-1.687.987-1.687.987l-.96.008z" fill="#510B5E"/><path d="M96.143 91.875c3.442.975 4.68.79 5.81.447-1.546 1.456-4.447.916-5.81-.447" fill="#FFF"/><path d="M95.92 82.673c-.09.548-.553.93-1.036.851-.483-.078-.801-.586-.713-1.136.089-.548.553-.93 1.035-.85.483.077.802.586.714 1.135" fill="#510B5E"/><path d="M91.924 83.158c3.277-3.377 4.57-.904 5.66-.73-.888.053-1.898-.906-2.871-.652-.795.2-1.99.93-2.789 1.382" fill="#42004A"/><path d="M103.363 82.466c-.082.549-.454.94-.831.872-.38-.068-.62-.569-.537-1.119.08-.548.452-.94.83-.87.379.067.619.568.538 1.117" fill="#510B5E"/><path d="M100.58 82.85c2.608-3.188 3.805-.69 4.729-.47-.743.014-1.637-.978-2.443-.77-.66.16-1.632.829-2.285 1.24" fill="#42004A"/><path d="M96.128 87.953c-.153.941-1.287 1.541-2.53 1.338-1.245-.202-2.13-1.13-1.976-2.071.151-.943 1.284-1.543 2.53-1.34 1.243.203 2.129 1.131 1.976 2.073" fill="#FD5E5A"/><path d="M94.3 71.337c2.314-1.746 4.128-2.309 5.405-2.446.554-.028.99-.022 1.322-.001.468.05.756.136.855.118.003-.03-.042-.161-.144-.358-.48-1.055-2.276-4.082-7.055-3.997a8.776 8.776 0 00-.475.008c-2.932.114-5.892.035-8.731.908-1.66.51-3.3 1.39-4.537 2.622-1.52 1.512-1.704 3.317-1.75 5.38-.083 3.775.748 7.63-.208 11.342-.916 3.554-3.038 6.876-6.282 8.704-2.823 1.59-4.248 4.073-4.626 7.297-.392 3.344.26 6.953 1.815 9.94 2.777 5.338 8.372 2.981 8.372 2.981s-4.051-2.552-3.252-3.652c0 0 3.54 4.85 6.45 3.32 2.908-1.533 3.883-3.439 3.883-3.439s-5.427.017-2.402-3.478c2.108-2.435 5.414-4.88 7.747-8.806 1.285-2.162.106-5.83-.86-9.855-.072-.468-.272-1.287-.494-2.245-.439-2.264-.663-4.568-.218-6.717.343.207.841.365 1.602.326 1.846-.094 1.838-1.211 1.912-2.882.234-1.612.706-3.58 1.671-5.07" fill="#510B5E"/><path d="M99.576 66.473s3.629-.556 6.723 1.704 3.413 11.249 1.787 13.113c-1.628 1.866 5.81 4.308 1.801 4.64-5.685.468-13.81-18.526-10.311-19.457" fill="#510B5E"/><path d="M82.65 80.629c1.216 2.276 2.301 5.335 2.58 7.813.834 7.922-8.13 5.129-10.415 5.655-1.413.28-2.42 1.784-1.62 3.474.643 1.396 1.657 1.686 2.24 2.196.885.789.661 1.903-.138 2.465-1.581 1.131-4.001-.487-4.328 1.95-.269 1.7.536 3.56 2.017 4.619-1.628-.848-2.675-2.746-2.567-4.676.12-1.984 1.459-2.102 3.306-2.254 1.141-.102 1.468-.713 1.322-1.048-.18-.672-1.792-.686-2.817-2.788-.786-1.496-.44-3.297.891-4.36 3.47-2.81 13.219 3.803 11.026-7.83-.32-1.774-.871-3.506-1.497-5.216M100.688 67.73c5.39-.177 8.778 4.183 7.352 8.698-.244.764-.65 1.534-1.393 1.811l-.312-1.087c.295-.034.664-.779.774-1.052 1.593-3.929-1.29-8.148-6.42-8.37" fill="#6F1884"/><path d="M192.12 50.281a.555.555 0 01-.465-.853c10.664-16.622-4.128-30.58-4.762-31.167a.555.555 0 01-.033-.783.555.555 0 01.781-.032c.162.15 16.115 15.168 4.944 32.58a.55.55 0 01-.465.255M281.612 46.457a.553.553 0 01-.508-.77c4.75-11.182 5.751-20.367 2.9-26.564-2.35-5.108-6.498-6.463-6.54-6.476a.553.553 0 01-.36-.694.55.55 0 01.69-.363c.19.06 4.66 1.52 7.213 7.069 3.028 6.58 2.057 15.82-2.887 27.462a.552.552 0 01-.508.336M293.397 102.263a.553.553 0 01-.553-.553c0-17.589-7.039-26.332-7.11-26.417a.553.553 0 11.851-.706c.3.36 7.364 9.102 7.364 27.123a.552.552 0 01-.552.553M8.096 102.263a.552.552 0 01-.552-.553c0-16.85 13.522-18.61 13.658-18.626.33-.03.577.183.612.486a.554.554 0 01-.484.615c-.517.061-12.681 1.683-12.681 17.525a.553.553 0 01-.553.553" fill="#411AC0"/></g></g></svg>