<svg id="Layer_1" data-name="Layer 1" xmlns="http://www.w3.org/2000/svg" viewBox="0 0 91.89 91.88"><defs><style>.cls-1{fill:#cbc5e2;}.cls-2{fill:#8172b3;}.cls-3{fill:#472f91;}</style></defs><title>alberick-medisch-centrum-primary-logo-centered</title><path class="cls-1" d="M73.33,45.94A27.38,27.38,0,1,1,45.94,18.56,27.38,27.38,0,0,1,73.33,45.94"/><path class="cls-2" d="M44.16,19.87c.72,4.5-1.12,8.53-4.1,9s-6-2.8-6.69-7.3,1.11-8.54,4.1-9,6,2.79,6.69,7.3"/><path class="cls-3" d="M43.38,16.32c-.09,0-.16-.06-.18-.16l0-.24.21.4"/><polygon class="cls-3" points="42.98 15.55 42.89 15.43 42.95 15.48 42.98 15.55"/><path class="cls-3" d="M42.74,15.25l-.25-.31a1,1,0,0,1,.25.31"/><path class="cls-3" d="M42.89,15.43Zm-.09.05-.06-.23.15.18-.09.05"/><path class="cls-3" d="M42.79,15.65v0Z"/><path class="cls-3" d="M42.94,17.22a1.11,1.11,0,0,0-.16-.44,8.48,8.48,0,0,0-1.11-1.26,6.94,6.94,0,0,0-1.35-1.23c-.11-.1-.11-.14,0-.14a2.61,2.61,0,0,1,.78.29c.14.07.12.39.23.47a4,4,0,0,0,.71.62c.13.08-.09.21,0,.25.27.36.71.52.8.82a2.36,2.36,0,0,1,.16.62"/><path class="cls-3" d="M43.94,18.55h0s0,0,0,0m0,.17c0-.06,0-.12,0-.18h.08l.06.17H44"/><path class="cls-3" d="M44.12,19.63A3.36,3.36,0,0,1,44,19c0,.21.09.42.13.63h0"/><path class="cls-3" d="M44.19,19.86l-.06-.14s0,0,0-.08l.07.21h0"/><path class="cls-3" d="M44.13,19.72l0-.08h0s0,.05,0,.08"/><path class="cls-3" d="M33.37,21.58v-.06l-.43.23c0,.06,0,.12,0,.19l.44-.23,0-.13"/><path class="cls-3" d="M44,18.54l0-.06a.13.13,0,0,0,0,.06h.08a3,3,0,0,0-.12-.32l-.09.18a.34.34,0,0,0,.07.15h0m-6.51-6h0l.17,0ZM44,19c0,.21.09.42.13.63.06,0,.14-.05.14-.17l-.13-.2a1.14,1.14,0,0,0,0-.55H44A2.46,2.46,0,0,0,44,19m1.76,1.72c-.24-.75-.56-1-.85-1a1.09,1.09,0,0,0-.7.38l0,0c-.78,1-.19,1.75-.93,3.43.07-.16.13-.22.18-.22.21,0,0,1.65-.9,2.28-1.11.8-2,1.91-3.16,1.91a2.08,2.08,0,0,1-1-.27,6.84,6.84,0,0,1-1.13-.84,10.62,10.62,0,0,1-2.44-8.51,13.26,13.26,0,0,1,.4-2.29,3.29,3.29,0,0,1,.9-1.1,5.16,5.16,0,0,1,1.23-.95,3.19,3.19,0,0,0-1.24.88c-.05.06-.08.08-.1.08s.1-.58.32-.73c0,0,.09-.05.15-.05h.07c.09,0,.18,0,.22-.06a4,4,0,0,0,.68-.41.06.06,0,0,1,.05,0s0,0,.07.06,0,.07.06.07h0c.3,0,.59-.3.83-.3l.11,0,.51.27.32.1.22.06a4.81,4.81,0,0,1,1.74.84v0a3,3,0,0,1-.73-.8s0,.06,0,.06a.39.39,0,0,1-.14-.05l-.07-.17a1,1,0,0,1,.78.67l.22.09c.06.09,0,.14,0,.2l.18.15a2,2,0,0,0-.22-.52l-.08-.14a5.54,5.54,0,0,0-2.55-1.37,1,1,0,0,1-.18,0h0l-.21-.08h-.42l-.15,0c-.06,0,0,0,0,.08a0,0,0,0,0,0,0h0l-.18-.06-.07,0a.92.92,0,0,1-.4.12l-.12,0a4.18,4.18,0,0,1,.68-.16h.14l.07,0h-.14a3.81,3.81,0,0,0-.8.17l-.18.08c-.21.07-.38.21-.54.21h0l-.14.09h0l-.06,0-.62.4a10,10,0,0,0-1,1.07,10,10,0,0,0-1.37,7.28l0,.19c.08.5.18,1,.3,1.52a11.41,11.41,0,0,0,2.45,4.65,5.26,5.26,0,0,0,3.85,1.79,4.23,4.23,0,0,0,1.26-.19A7.49,7.49,0,0,0,45,26c.87-1.28,1-4,.78-5.29m-11.49-6a.67.67,0,0,1,.52-.55,2.25,2.25,0,0,1-.52.55"/><path class="cls-3" d="M37,12.64l-.12,0a4.18,4.18,0,0,1,.68-.16h.09l-.19,0h0l0,0a1.07,1.07,0,0,1-.4.12"/><path class="cls-3" d="M56,84.45c-.07-.17-.15-.3-.06-.48l.26-.41-.2.89"/><path class="cls-3" d="M56.4,82.56l0-.13v.29Zm0-.62a1.79,1.79,0,0,0,.11-.8Zm-.22.42a.23.23,0,0,1,.12-.06s.06,0,.07.12h0l0-.49Z"/><path class="cls-3" d="M54.19,85.37a3.32,3.32,0,0,0,.29-.94c0-1.24.06-2.4,0-3.59,0-1.46.11-2.51.12-4.13,0-.23,0-.33.08-.33a3.82,3.82,0,0,1,.57,1.86c.08.31-.52.74-.45,1.05a14.46,14.46,0,0,0,.12,2c0,.32-.42.2-.4.36-.07,1,.4,1.84.16,2.44a9.43,9.43,0,0,1-.53,1.24"/><path class="cls-3" d="M53.52,90.93l-.18,0a6.4,6.4,0,0,1,1.08-2.15c-.06.07-.11.1-.15.1s-.08-.13,0-.36l.35-.24a3.3,3.3,0,0,1-.83,2s0,.34,0,.51a.31.31,0,0,1-.25.14"/><polygon class="cls-3" points="53.2 91.39 53.3 90.91 53.34 90.91 53.21 91.39 53.2 91.39"/><path class="cls-3" d="M56.22,76.24l0,0s0,0,0,0"/><path class="cls-3" d="M19.88,38.63l.33-.08-.33.08m34.51,30h0m2.18.92-.07-.28v-.06s0,0,0,0l0,.3m.09.32h0"/><path class="cls-3" d="M56.59,69.65l0-.1,0-.3s0,0,0,0,0-.22-.07-.32c0,.13,0,.26.07.38l-.1.46s.07-.09.11-.09.06,0,.1.09h0l0-.12Z"/><path class="cls-3" d="M56.14,78.4c0-.16-.11-.48-.11-.48a3,3,0,0,0,.19-2.15l-.25.31c0,.23.05.35.11.35s.09-.06.14-.19a8.21,8.21,0,0,0-.46,2.4c.14,0,.28,0,.38-.24"/><path class="cls-3" d="M55.74,62.72a1.57,1.57,0,0,0-.06-1.54,3.19,3.19,0,0,0,.06,1.54"/><path class="cls-3" d="M56.61,69.73c0-.07-.07-.09-.1-.09s-.07,0-.11.09l.1-.46c0-.12,0-.25-.07-.38,0,.1,0,.21.07.32s0,0,0,0l0,.3,0,.1v0l0,.12,0,.13L56.56,68l-.07-.4a1.6,1.6,0,0,1,0-1.22l0-.35,0,.08,0-.13-.16-1.45c-.12-.95-.2-1.91-.36-2.89A45,45,0,0,0,49.23,44,35.2,35.2,0,0,0,42,36.15C38.36,33.12,33.8,32,29.11,32a35,35,0,0,0-7,.77l-.24,0-.21.05c-2.84.53-7.2,3.11-9.31,4.44-2.48,2.42.11,3.32.29,3.35a4.49,4.49,0,0,0,.93.09c1.84,0,2.94-1.22,5.91-2l.2,0,.25,0-.24,0h-.19c-.25,0-.17-.2.12-.42a2.49,2.49,0,0,1,.24-.17l.53-.29a8.16,8.16,0,0,1,3.4-.88,3.71,3.71,0,0,1,.67.05,13.61,13.61,0,0,0,2.13.14c.72,0,1.46,0,2.21-.07s1.5-.08,2.26-.08a10.35,10.35,0,0,1,5.5,1.29,30.35,30.35,0,0,1,3,1.74A34.27,34.27,0,0,1,50.92,56.09c.61,1.84,1.53,3.36,2.1,4.95a19.46,19.46,0,0,1,.5,3.47c.28,1.53.54,2.85.87,4.12-.22-1.43-.4-2.47-.77-4,0-.24,0-.34,0-.34s.78,1.14,1,1.68c.16.29-.35.84-.21,1.12a10.94,10.94,0,0,0,.53,2c.14.3-.35.3-.28.45.17.85.67,1.53.7,2.11a1.48,1.48,0,0,1,0,.21h0c-.06.48-.13.91-.2,1.32l0,.81.1.53a28.63,28.63,0,0,1,.49,4.23l0,0a8.21,8.21,0,0,1,.46-2.4c0,.13-.1.19-.14.19s-.11-.11-.11-.35l.25-.31A3,3,0,0,1,56,77.92s.07.32.11.48-.24.21-.38.24l0,.48a6.93,6.93,0,0,0,.71-1.36c.09-2.09.25-4.05.2-6-.1-.14-.21-.25-.16-.45h0l.09-.24.08-.2V70l0-.29Zm-.87-7a3.19,3.19,0,0,1-.06-1.54,1.57,1.57,0,0,1,.06,1.54"/><path class="cls-3" d="M50.45,36.6a1.3,1.3,0,0,1,.1-.15l-.1.15"/><path class="cls-3" d="M60,13.76v.06l0-.1Zm-.27.45.19-.22a.31.31,0,0,0-.19.22m.8-.89-.25.21h.23c.09,0,0-.11,0-.22m-.54.5-.07.17h.21c-.08,0-.14-.07-.14-.16m1.45.45c-.26.06,0,.7-.19,1,0,0,0,0,0,0a.72.72,0,0,1-.14-.09.39.39,0,0,0-.16-.08s0,0,0,0c-.08.27-.09.58-.26.75,0,0,0,.05-.08.05l-.17,0-.16,0s-.09,0-.09.05c-.07.26,0,1,.11,1s0,0,.09-.06c.34-.48.49-.85.81-1.27l.49-1.33a1,1,0,0,1,.28-.21Z"/><path class="cls-3" d="M62.45,11.87c0,.08,0,.24,0,.24l-.14,0c-.3,0-.39.26-.47.51l.25.09c.08-.12,0-.22-.12-.22a.92.92,0,0,0,.8-.41c-.1-.08-.2-.19-.3-.19Zm.41,0-.1.15,0,0,.07-.18Z"/><path class="cls-3" d="M59.07,16h0a.14.14,0,0,1,.13.22L59,16.12c.07-.26.14-.53.47-.53h.11s0-.16,0-.24h0c.1,0,.2.11.3.18l.09-.16a1.29,1.29,0,0,0-.35,0,2.84,2.84,0,0,0-.39,0c-.5.56-1,1.07-1.49,1.54,0,.11.09.2,0,.22h-.23l-.23.21,0,.1c0,.08.07.12.15.14l-.21,0,0,0v0s0,0,0,0l.06-.17v-.07l-.52.46-.06.13c0,.14-.1.28-.26.28l-.11,0-.08.08,0,0h-.07l-.37.36-.75.72-.48.45-.14.14c-1.38,1.4-2.41,3-3.73,4.56-.84,1.06-1.6,2.12-2.32,3.24-1.46,2.31-1.16,4.79-2.51,7.23-.5,1-.28,2.76-.23,3.63a2,2,0,0,0,1.7.74,4.24,4.24,0,0,0,1.32-.21c1.73-.69.85-1.27,1.77-2.59a.38.38,0,0,1-.25.15c-.4,0-.53-1.26.5-1.92,1.91-1.15.64-3,1.54-4.33.22-.31.22-.71.44-1.09,1.26-1.74,1.94-3.85,3.61-6a5.41,5.41,0,0,0,.64-1.94,1.52,1.52,0,0,1,.31-.36l.15-.13a2.61,2.61,0,0,0,.46-.39,4.61,4.61,0,0,0,.67-1.4c-.3.43-.42.81-.73,1.31,0,.05-.06.07-.08.07s-.22-.72-.17-1c0,0,0-.07.1-.07l.14,0h.14c.06,0,.11,0,.11-.06.16-.17.14-.48.21-.76,0,0,0,0,0,0a.39.39,0,0,1,.16.08.44.44,0,0,0,.15.08h0c.15-.33-.13-.95.12-1l.48-.2.22-.19,0-.23a10.33,10.33,0,0,1,.47-1.62l0,0a.92.92,0,0,1-.81.44m-3.92,3.67h-.06c0-.23.15-.29.36-.29h.17c0,.18-.21.28-.47.28m1-.21c.07,0,0-.09,0-.19,0,.1.05.19,0,.19"/></svg>