<svg id="Layer_1" data-name="Layer 1" xmlns="http://www.w3.org/2000/svg" viewBox="0 0 63 80"><defs><style>.cls-1{fill:#cbc5e2;}.cls-2{fill:#8172b3;}.cls-3{fill:#472f91;}</style></defs><title>alberick-medisch-centrum-primary-logo</title><path class="cls-1" d="M62.1,34.07A27.38,27.38,0,1,1,34.71,6.69,27.38,27.38,0,0,1,62.1,34.07"/><path class="cls-2" d="M32.93,8c.72,4.51-1.12,8.54-4.1,9s-6-2.8-6.69-7.3,1.11-8.54,4.1-9,6,2.79,6.69,7.29"/><path class="cls-3" d="M32.15,4.45c-.09,0-.16-.06-.18-.16l0-.24.21.4"/><polygon class="cls-3" points="31.75 3.68 31.66 3.56 31.71 3.61 31.75 3.68"/><path class="cls-3" d="M31.51,3.37l-.25-.3a1.07,1.07,0,0,1,.25.3"/><path class="cls-3" d="M31.66,3.56Zm-.09,0-.06-.23.15.19-.09,0"/><path class="cls-3" d="M31.56,3.78v0Z"/><path class="cls-3" d="M31.71,5.35a1.11,1.11,0,0,0-.16-.44,8,8,0,0,0-1.11-1.26,6.64,6.64,0,0,0-1.35-1.23c-.11-.1-.11-.14,0-.14a2.61,2.61,0,0,1,.78.29c.14.06.12.39.23.47a4,4,0,0,0,.71.62c.13.08-.09.21,0,.25.27.36.71.52.8.82a2.36,2.36,0,0,1,.16.62"/><path class="cls-3" d="M32.71,6.68h0m0,.17c0-.06,0-.12,0-.18h.08l.06.18h-.15"/><path class="cls-3" d="M32.89,7.76a3.53,3.53,0,0,1-.13-.63c.05.21.09.41.13.63h0"/><path class="cls-3" d="M33,8l-.06-.14s0-.06,0-.08L33,8h0"/><path class="cls-3" d="M32.9,7.85l0-.09h0s0,.05,0,.08"/><path class="cls-3" d="M22.14,9.71V9.65l-.43.22c0,.07,0,.13,0,.2l.44-.23,0-.13"/><path class="cls-3" d="M32.73,6.67a.16.16,0,0,0,0-.06.13.13,0,0,0,0,.06h.08c0-.1-.08-.21-.12-.32l-.09.19a.24.24,0,0,0,.07.14h0M26.22.61l0,0h0l.17,0Zm6.54,6.52c.05.21.09.41.13.63.06,0,.14,0,.14-.17l-.13-.2a1.14,1.14,0,0,0,0-.55h-.15a2.46,2.46,0,0,0,0,.28m1.76,1.71c-.24-.75-.56-1-.85-1a1.14,1.14,0,0,0-.7.37l0,0c-.78,1-.19,1.76-.93,3.43.07-.15.13-.21.18-.21.21,0,0,1.65-.9,2.27-1.11.81-2,1.92-3.16,1.92a2.08,2.08,0,0,1-1-.27A7.46,7.46,0,0,1,26,14.57a10.64,10.64,0,0,1-2.44-8.51A13.26,13.26,0,0,1,24,3.77a3.44,3.44,0,0,1,.9-1.11,5.37,5.37,0,0,1,1.23-.94,3.19,3.19,0,0,0-1.24.88c-.05.06-.08.08-.1.08s.1-.58.32-.73c0-.05.09-.06.15-.06h.07c.09,0,.18,0,.22-.06a4,4,0,0,0,.68-.41s0,0,.05,0,0,0,.07.07,0,.07.06.07h0c.3,0,.59-.3.83-.3l.11,0,.51.27.32.09.22.07a4.78,4.78,0,0,1,1.74.83v0a3.13,3.13,0,0,1-.73-.8,0,0,0,0,1,0,.06.39.39,0,0,1-.14-.05l-.07-.18a1.08,1.08,0,0,1,.78.67,1.5,1.5,0,0,0,.22.09c.06.1,0,.15,0,.21l.18.15a1.88,1.88,0,0,0-.22-.52L30,2A5.66,5.66,0,0,0,27.46.61a.55.55,0,0,1-.18.06h0L27,.58l-.42,0-.15,0c-.06,0-.05.05,0,.08s0,0,0,0l-.05,0L26.23.62l-.07,0a.94.94,0,0,1-.4.13l-.12,0a3.38,3.38,0,0,1,.68-.17h.14l.07,0h-.14a3.81,3.81,0,0,0-.8.17l-.18.09C25.2.88,25,1,24.87,1h0l-.14.09h0l-.06,0-.62.4a9.15,9.15,0,0,0-1,1.07A10,10,0,0,0,21.7,9.87l0,.2c.08.5.18,1,.3,1.51a11.44,11.44,0,0,0,2.45,4.66A5.25,5.25,0,0,0,28.32,18a4.22,4.22,0,0,0,1.26-.18,7.49,7.49,0,0,0,4.16-3.7c.87-1.28,1-4,.78-5.3M23,2.85a.7.7,0,0,1,.52-.56,2.28,2.28,0,0,1-.52.56"/><path class="cls-3" d="M25.76.77l-.12,0a3.38,3.38,0,0,1,.68-.17h.08l-.18,0,0,0h0a.94.94,0,0,1-.4.13"/><path class="cls-3" d="M44.76,72.57c-.07-.16-.15-.29-.06-.48l.26-.41-.2.89"/><path class="cls-3" d="M45.17,70.69l0-.14v.3Zm0-.62a1.79,1.79,0,0,0,.11-.8Zm-.22.42a.17.17,0,0,1,.12-.06s.06,0,.07.12h0l0-.48Z"/><path class="cls-3" d="M43,73.5a3.32,3.32,0,0,0,.29-.94c0-1.24.06-2.4,0-3.6.05-1.45.11-2.5.12-4.12,0-.23,0-.33.08-.33a3.78,3.78,0,0,1,.57,1.85c.08.32-.52.74-.45,1.06a14.46,14.46,0,0,0,.12,2c.05.32-.42.2-.4.36-.07,1,.4,1.84.16,2.43A9.58,9.58,0,0,1,43,73.5"/><path class="cls-3" d="M42.29,79.05h-.18a6.4,6.4,0,0,1,1.08-2.15c-.06.07-.11.1-.15.1s-.08-.13,0-.37l.35-.23a3.3,3.3,0,0,1-.83,2s0,.34,0,.51a.3.3,0,0,1-.25.13"/><polygon class="cls-3" points="41.97 79.52 42.07 79.04 42.11 79.04 41.98 79.52 41.97 79.52"/><path class="cls-3" d="M45,64.37l0-.05,0,.05"/><path class="cls-3" d="M8.64,26.75,9,26.68l-.34.07m34.52,30h0m2.18.93-.07-.28v-.07a.09.09,0,0,1,0,.05l.06.3m.09.32h0"/><path class="cls-3" d="M45.36,57.78l0-.1-.05-.3,0-.05c0-.1-.05-.21-.07-.31,0,.13,0,.26.07.38l-.1.46c0-.06.07-.1.11-.1s.06,0,.1.1h0l0-.13Z"/><path class="cls-3" d="M44.91,66.53c0-.16-.11-.48-.11-.48A3,3,0,0,0,45,63.9l-.26.31c0,.23.06.35.11.35s.1-.06.15-.19a8.21,8.21,0,0,0-.46,2.4c.13,0,.28,0,.38-.24"/><path class="cls-3" d="M44.51,50.85a1.62,1.62,0,0,0-.06-1.55,3.22,3.22,0,0,0,.06,1.55"/><path class="cls-3" d="M45.38,57.86c0-.07-.07-.1-.1-.1s-.07,0-.11.1l.1-.46c0-.12-.05-.25-.07-.38,0,.1,0,.21.07.31a.09.09,0,0,1,0,.05l.06.3v.07l0,.12,0,.13-.1-1.92-.07-.39a1.6,1.6,0,0,1,0-1.22l0-.35,0,.08,0-.14-.16-1.45c-.12-.94-.2-1.91-.36-2.88A44.88,44.88,0,0,0,38,32.17a34.93,34.93,0,0,0-7.24-7.89c-3.62-3-8.18-4.19-12.87-4.19a34.22,34.22,0,0,0-7,.78l-.24.05-.21,0c-2.84.53-7.2,3.12-9.31,4.45-2.48,2.42.1,3.32.29,3.35a5.3,5.3,0,0,0,.93.09c1.84,0,2.94-1.22,5.91-2l.2-.05.24-.06-.23,0H8.22c-.25,0-.18-.2.12-.43l.24-.16a5.06,5.06,0,0,1,.53-.29,8.17,8.17,0,0,1,3.4-.89,3.71,3.71,0,0,1,.67.06,14.85,14.85,0,0,0,2.13.14c.72,0,1.46,0,2.21-.07s1.5-.08,2.26-.08a10.26,10.26,0,0,1,5.5,1.29,32.18,32.18,0,0,1,3,1.73A34.39,34.39,0,0,1,39.69,44.21c.6,1.84,1.52,3.36,2.1,4.95a20.71,20.71,0,0,1,.5,3.47c.28,1.54.54,2.85.87,4.12-.22-1.43-.4-2.46-.77-4,0-.24,0-.34,0-.34s.78,1.14,1,1.68c.16.29-.35.83-.21,1.12a10.94,10.94,0,0,0,.53,2c.14.3-.35.3-.28.45.17.85.67,1.53.7,2.11a1.27,1.27,0,0,1,0,.2h0c-.07.48-.13.91-.2,1.32l0,.81.1.53a28.34,28.34,0,0,1,.49,4.22h.05a8.21,8.21,0,0,1,.46-2.4c-.05.13-.1.19-.14.19s-.11-.12-.12-.35L45,63.9a3,3,0,0,1-.19,2.15s.07.32.11.48-.25.2-.38.24l0,.48a7.22,7.22,0,0,0,.71-1.36c.09-2.09.25-4.06.2-6-.1-.14-.21-.24-.16-.44v0l.09-.24.07-.2v-.84l0-.29Zm-.87-7a3.22,3.22,0,0,1-.06-1.55,1.62,1.62,0,0,1,.06,1.55"/><path class="cls-3" d="M39.22,24.73l.1-.15-.1.15"/><path class="cls-3" d="M48.78,1.89V2l0-.1Zm-.27.44.19-.21a.31.31,0,0,0-.19.21m.8-.88-.25.21h.23c.09,0,0-.12,0-.22m-.54.5-.07.17.21,0c-.08,0-.14-.06-.14-.15m1.45.45c-.26.06,0,.69-.19,1,0,0,0,0,0,0a.72.72,0,0,1-.14-.09.39.39,0,0,0-.16-.08s0,0,0,0c-.08.27-.09.58-.26.75,0,0,0,0-.08,0l-.17,0-.16,0c-.05,0-.09,0-.09.05-.07.25,0,1,.11,1s.05,0,.09-.06c.34-.48.49-.86.81-1.27l.49-1.33a.83.83,0,0,1,.28-.21Z"/><path class="cls-3" d="M51.22,0c0,.08,0,.24,0,.24l-.14,0c-.3,0-.39.25-.47.51l.25.09c.08-.12,0-.22-.12-.22a1,1,0,0,0,.8-.41c-.1-.08-.2-.19-.3-.19Zm.41,0-.1.15,0,0L51.64,0Z"/><path class="cls-3" d="M47.84,4.11h0c.14,0,.21.1.14.22l-.26-.09c.07-.26.14-.52.47-.52h.11s0-.16,0-.24h0c.1,0,.2.1.3.18l.08-.16a1.18,1.18,0,0,0-.34,0,2.84,2.84,0,0,0-.39,0c-.5.56-1,1.06-1.49,1.54,0,.1.09.2,0,.21h-.24l-.22.2,0,.11c0,.08.07.12.15.14l-.21,0,0,0v0h0L46,5.57V5.5L45.49,6l-.06.13c0,.14-.1.28-.26.28l-.11,0L45,6.43l.05,0H45l-.37.37-.75.72L43.36,8l-.14.14c-1.38,1.39-2.41,2.95-3.73,4.56-.84,1.06-1.6,2.12-2.32,3.24-1.46,2.31-1.16,4.79-2.51,7.23-.5,1-.28,2.75-.23,3.63a1.94,1.94,0,0,0,1.7.74,4.24,4.24,0,0,0,1.32-.21c1.73-.69.85-1.27,1.77-2.59a.36.36,0,0,1-.25.14c-.4,0-.53-1.25.5-1.91,1.91-1.15.64-3,1.54-4.33.22-.31.22-.71.43-1.09,1.27-1.74,2-3.85,3.61-6a5.19,5.19,0,0,0,.65-1.93A1.34,1.34,0,0,1,46,9.22l.15-.13a2.61,2.61,0,0,0,.46-.39,4.61,4.61,0,0,0,.67-1.4c-.3.43-.42.81-.73,1.31a.12.12,0,0,1-.09.06c-.15,0-.21-.71-.16-1,0,0,0-.07.1-.07l.14,0h.14c.06,0,.11,0,.11-.06.16-.17.14-.48.21-.76,0,0,0,0,0,0a.39.39,0,0,1,.16.08,1.32,1.32,0,0,0,.14.08h0c.15-.33-.13-1,.12-1l.48-.2.22-.19,0-.23a10.33,10.33,0,0,1,.47-1.62l0,0a.94.94,0,0,1-.81.44M43.91,7.78h0c0-.23.15-.29.36-.29h.17c0,.18-.21.28-.48.28m1-.21c.07,0,0-.1,0-.19,0,.09,0,.19,0,.19"/></svg>