<?xml version="1.0" encoding="UTF-8"?>
<svg width="319px" height="377px" viewBox="0 0 319 377" version="1.1" xmlns="http://www.w3.org/2000/svg" xmlns:xlink="http://www.w3.org/1999/xlink">
    <!-- Generator: Sketch 61.1 (89650) - https://sketch.com -->
    <title>illustration-woman-waving-hand</title>
    <desc>Created with Sketch.</desc>
    <defs>
        <polygon id="path-1" points="0.2627 0.31303285 318.979 0.31303285 318.979 363.0728 0.2627 363.0728"></polygon>
        <path d="M11.707,0.179 C4.608,3.806 0.1,9.202 0.1,15.233 L0.1,15.233 C0.1,21.671 5.235,27.39 13.18,31 L13.18,31 L52.98,31 C60.927,27.39 66.062,21.671 66.062,15.233 L66.062,15.233 C66.062,9.202 61.553,3.806 54.455,0.179 L54.455,0.179 L11.707,0.179 Z" id="path-3"></path>
        <linearGradient x1="-0.000592159122%" y1="49.9996765%" x2="99.9992544%" y2="49.9996765%" id="linearGradient-5">
            <stop stop-color="#F20000" offset="0%"></stop>
            <stop stop-color="#FFA52F" offset="100%"></stop>
        </linearGradient>
    </defs>
    <g id="Page---Desktop-HD" stroke="none" stroke-width="1" fill="none" fill-rule="evenodd">
        <g id="Home" transform="translate(-871.000000, -3604.000000)">
            <g id="extras-section" transform="translate(0.000000, 3554.000000)">
                <g id="illustration-woman-waving-hand" transform="translate(871.000000, 49.000000)">
                    <g id="Group-143" transform="translate(0.000000, 13.965000)">
                        <mask id="mask-2" fill="white">
                            <use xlink:href="#path-1"></use>
                        </mask>
                        <g id="Clip-5"></g>
                        <polygon id="Fill-4" fill="#4C505E" mask="url(#mask-2)" points="148.034 345.16 155.861 345.16 155.861 287.741 148.034 287.741"></polygon>
                        <path d="M131.7833,261.4122 L131.7833,267.4122 C131.7833,271.4302 135.5283,274.6882 140.1483,274.6882 L141.0773,274.6882 L141.0773,281.4542 C141.0773,283.1462 142.6543,284.5172 144.5993,284.5172 L158.3923,284.5172 C160.3383,284.5172 161.9143,283.1462 161.9143,281.4542 L161.9143,274.3582 C165.3163,273.4352 167.7843,270.6752 167.7843,267.4122 L167.7843,261.4122 L131.7833,261.4122 Z" id="Fill-6" fill="#303030" mask="url(#mask-2)"></path>
                        <polygon id="Fill-7" fill="#303030" mask="url(#mask-2)" points="147.071 296.337 157.174 296.337 157.174 284.518 147.071 284.518"></polygon>
                        <polygon id="Fill-8" fill="#001F26" mask="url(#mask-2)" points="157.2325 346.1192 147.0125 346.1192 147.0125 337.3902 147.0125 330.3622 157.2325 330.3622"></polygon>
                        <polygon id="Fill-9" fill="#001F26" mask="url(#mask-2)" points="109.3253 356.5518 147.0133 337.3898 147.0133 346.1188 119.9893 356.5518 119.9893 358.4678 109.3253 358.4678"></polygon>
                        <polygon id="Fill-10" fill="#001F26" mask="url(#mask-2)" points="194.92 356.5518 157.232 337.3898 157.232 346.1188 184.256 356.5518 184.256 358.4678 194.92 358.4678"></polygon>
                        <polygon id="Fill-11" fill="#001F26" mask="url(#mask-2)" points="148.6837 337.3897 148.6837 358.4677 146.1617 358.4677 146.1617 359.9587 157.2327 359.9587 157.2327 358.4677 154.8897 358.4677 155.6237 337.3897"></polygon>
                        <path d="M191.2549,137.545 L191.2549,236.778 L135.4249,236.778 L140.3949,136.44 C140.7919,128.177 145.6669,121.69 151.6899,121.151 C151.9469,121.138 152.2169,121.122 152.4839,121.122 L179.1329,121.122 C185.8219,121.122 191.2549,128.468 191.2549,137.545" id="Fill-12" fill="#0089A9" mask="url(#mask-2)"></path>
                        <path d="M188.6485,263.9014 L89.1295,263.9014 C89.1295,253.9654 97.1835,245.9124 107.1175,245.9124 L170.6605,245.9124 C180.5945,245.9124 188.6485,253.9654 188.6485,263.9014" id="Fill-13" fill="#004555" mask="url(#mask-2)"></path>
                        <path d="M183.8604,121.1172 L174.8294,121.1172 C183.9014,121.1172 191.2554,128.4712 191.2554,137.5422 L191.2554,236.7842 L200.2844,236.7842 L200.2844,137.5422 C200.2844,128.4712 192.9314,121.1172 183.8604,121.1172" id="Fill-14" fill="#004555" mask="url(#mask-2)"></path>
                        <path d="M167.9815,263.9014 L68.4625,263.9014 C68.4625,253.9654 76.5155,245.9124 86.4515,245.9124 L149.9935,245.9124 C159.9275,245.9124 167.9815,253.9654 167.9815,263.9014" id="Fill-15" fill="#0089A9" mask="url(#mask-2)"></path>
                        <path d="M101.0948,218.8926 C101.8108,214.5336 110.4878,204.6356 114.7638,203.0396 C119.0408,201.4446 137.9068,188.2206 143.8308,180.4926 C144.8238,179.1976 145.9388,176.5916 147.1368,173.1636 C150.0048,175.9616 152.9968,178.7456 155.7658,181.6866 C152.9448,188.5366 149.8838,193.6196 146.8658,195.1556 C134.2668,201.5686 120.2568,208.2226 118.7778,208.7746 C117.2968,209.3276 112.2788,215.3386 111.2818,217.5666 C110.2848,219.7926 109.6758,226.8256 109.7638,228.3136 C109.8698,230.1366 108.5798,231.4206 107.8778,227.7806 C107.1758,224.1406 107.9318,219.3866 107.9318,219.3866 C107.9318,219.3866 105.2798,223.3266 104.6158,224.8116 C103.9508,226.2966 106.0928,232.5386 105.0678,233.5876 C104.0428,234.6346 103.2368,231.4146 102.5208,229.4936 C101.8038,227.5726 103.0538,219.8736 103.0538,219.8736 C103.0538,219.8736 101.8128,227.0936 101.2448,226.8296 C100.6788,226.5656 100.3788,223.2506 101.0948,218.8926" id="Fill-16" fill="#FD5E5A" mask="url(#mask-2)"></path>
                        <path d="M166.4024,119.6104 C171.2574,120.4034 164.7174,159.9554 155.7654,181.6864 C152.9974,178.7454 150.0054,175.9624 147.1364,173.1644 C153.0864,156.1434 161.0874,118.7434 166.4024,119.6104" id="Fill-17" fill="#5492BA" mask="url(#mask-2)"></path>
                        <path d="M147.8946,166.1065 C147.8946,166.1065 145.1086,168.6295 145.0296,170.3995 C144.9516,172.1695 140.8266,174.4605 142.5026,175.2195 C144.1806,175.9785 155.2486,186.3035 155.2486,186.3035 C155.2486,186.3035 161.9556,185.2705 161.7456,181.7445 C161.5356,178.2165 163.8136,180.9635 162.2546,176.8285 C160.6956,172.6905 151.4276,163.9365 147.8946,166.1065" id="Fill-18" fill="#2A495D" mask="url(#mask-2)"></path>
                        <path d="M161.8633,180.2969 C158.6763,174.7239 154.0223,171.3259 149.2123,170.1029 C148.6143,169.9499 148.3843,170.8529 148.9813,171.0049 C149.2843,171.1269 156.4833,172.0109 161.8633,180.2969" id="Fill-19" fill="#5492BA" mask="url(#mask-2)"></path>
                        <path d="M143.7413,173.9336 C156.6483,175.6196 159.0533,183.5596 158.9773,183.4886 C159.1963,184.0636 160.0673,183.7346 159.8483,183.1586 C159.7713,183.0876 157.0833,175.0206 143.7413,173.9336" id="Fill-20" fill="#5492BA" mask="url(#mask-2)"></path>
                        <path d="M97.7457418,220.1104 C97.8742,222.6674 74.9242,256.9224 75.4912,268.0754 C76.0592,279.2294 69.4622,305.1954 63.9442,313.5144 C58.4272,321.8344 49.2082,329.9004 48.1332,339.2744 C47.9882,340.5354 50.4442,346.8184 49.1202,348.2844 C45.7012,352.0704 41.8032,349.9404 38.7152,353.3594 C35.6282,356.7794 31.8492,356.5524 27.9302,357.3354 C26.5772,357.6044 23.6222,356.9824 25.9922,355.0794 C31.7702,350.4404 36.8702,341.8924 37.8742,337.5064 C39.4452,330.6314 72.0052,217.9424 72.0052,217.9424 L97.7457418,220.1104 Z" id="Fill-21" fill="#FD5E5A" mask="url(#mask-2)"></path>
                        <path d="M26.584,354.8897 C26.584,354.8897 32.971,354.8487 39.392,349.4297 C45.813,344.0117 48.367,340.8187 48.367,340.8187 C48.367,340.8187 51.815,344.0597 50.242,348.7747 C49.91,349.7737 45.596,361.0027 45.596,361.0027 L43.144,360.8167 C43.144,360.8167 46.22,351.2027 45.561,351.1607 C44.901,351.1187 40.792,352.2227 39.649,354.4877 C38.507,356.7537 37.959,358.8697 34.964,359.7977 C31.968,360.7257 21.816,359.3687 21.816,359.3687 C21.167,357.8687 24.884,355.0697 26.584,354.8897" id="Fill-22" fill="#1A1722" mask="url(#mask-2)"></path>
                        <path d="M87.4483,240.2159 C87.0083,240.7039 73.8593,253.9559 74.1913,260.4619 C74.5223,266.9699 74.0443,285.0109 56.4303,311.2279 C41.0183,334.1659 38.3763,339.3289 38.1463,343.9989 C38.1283,344.4029 26.5243,355.3909 16.8393,358.4499 C10.5343,360.4439 3.9383,355.0659 5.7103,354.9759 C10.2033,354.7469 20.7663,341.3929 26.4273,335.1229 C32.0883,328.8549 32.1933,329.3929 37.2993,313.7559 C42.4043,298.1179 55.7173,254.5699 58.2553,243.4119 C60.7943,232.2549 71.2433,218.5589 73.2783,220.3979 C75.3133,222.2359 87.4483,240.2159 87.4483,240.2159" id="Fill-23" fill="#FC7575" mask="url(#mask-2)"></path>
                        <path d="M142.1026,196.7842 C142.1026,196.7842 123.6956,211.3502 107.7286,215.8182 C91.7626,220.2842 38.7676,218.6972 38.7676,218.6972 C38.7676,218.6972 39.8236,238.1722 50.8046,250.9622 C61.7866,263.7542 76.4056,283.6332 75.3046,290.0032 C75.3046,290.0032 99.5526,259.4732 107.4026,256.5462 C115.2496,253.6172 157.7486,254.0292 167.6066,237.1882 C171.9296,229.8052 168.5596,208.3542 168.5596,208.3542 L142.1026,196.7842 Z" id="Fill-24" fill="#990044" mask="url(#mask-2)"></path>
                        <path d="M107.4024,256.5459 C114.3214,254.6329 136.2084,255.2049 153.8234,248.4469 C169.4024,242.1929 171.2174,235.1659 170.1624,220.0379 C169.8064,216.1139 169.3374,212.2059 168.5594,208.3549 C169.2054,215.3839 169.7594,224.5219 168.5814,231.6849 C167.7304,235.8649 166.7164,237.9929 163.0854,241.1219 C149.5634,252.5439 115.7264,253.3009 107.4024,256.5459" id="Fill-25" fill="#2B001B" mask="url(#mask-2)"></path>
                        <path d="M142.1026,196.7842 C110.4416,218.9922 103.7946,217.8022 38.7676,218.6972 C55.0886,219.7772 90.9206,220.7442 106.7196,216.9462 C118.7656,213.9022 132.5796,204.6692 142.1026,196.7842" id="Fill-26" fill="#781051" mask="url(#mask-2)"></path>
                        <path d="M19.5577,361.4688 C16.1077,362.4418 0.5127,362.3148 0.2627,357.3948 C0.2627,357.3948 2.8917,354.4648 7.4937,354.2298 C7.9137,354.2078 9.2957,355.8138 13.0137,355.6238 C20.4757,355.2428 31.0767,344.6508 38.2917,342.6008 C38.7967,343.1048 39.0167,343.7028 39.0527,344.4068 C39.3437,350.1198 30.6907,363.0728 30.6907,363.0728 L28.4517,362.9288 C28.4517,362.9288 31.7387,353.8488 30.8307,351.6668 C29.9247,349.4858 23.0087,360.4968 19.5577,361.4688" id="Fill-27" fill="#332F44" mask="url(#mask-2)"></path>
                        <path d="M183.1788,111.1758 C183.1788,111.1758 172.4928,112.0148 167.7198,116.5288 C162.9468,121.0408 151.5158,136.4438 150.3608,143.3308 C149.2048,150.2198 154.9028,158.1698 153.2888,167.4248 C152.3698,172.6968 142.1248,191.1878 139.3248,197.3248 C136.5228,203.4618 165.5068,209.4928 168.5598,208.3548 C171.6118,207.2158 198.7888,140.3698 192.1128,126.4688 C185.4378,112.5688 183.1788,111.1758 183.1788,111.1758" id="Fill-28" fill="#8DCFF9" mask="url(#mask-2)"></path>
                        <path d="M186.126,80.9561 C186.126,80.9561 194.661,79.4931 195.398,84.0181 C196.136,88.5421 193.186,95.4971 189.814,97.7101 C187.206,99.4211 178.175,104.9801 175.67,99.6061 C173.166,94.2321 176.011,80.1121 186.126,80.9561" id="Fill-29" fill="#000086" mask="url(#mask-2)"></path>
                        <path d="M190.9727,82.6924 C192.7437,87.1694 192.6387,91.9174 188.1117,95.1254 L189.0857,96.5004 C193.5697,92.5414 193.5357,87.4964 190.9727,82.6924" id="Fill-30" fill="#000065" mask="url(#mask-2)"></path>
                        <path d="M170.0479,89.7842 C170.0479,89.7842 169.5329,97.4152 169.6069,103.6362 C169.6459,107.0012 169.3999,110.3502 168.5659,112.8742 C167.6929,115.5212 160.5979,124.8202 159.9589,127.0402 C159.4719,128.7382 173.4749,119.4482 175.4639,118.5502 C178.6329,117.1192 181.7719,114.4752 184.6099,113.0002 L180.1599,81.4532 L170.0479,89.7842 Z" id="Fill-31" fill="#FC7575" mask="url(#mask-2)"></path>
                        <path d="M180.1602,81.4532 L170.0482,89.7842 C170.0482,89.7842 169.7502,94.2112 169.6392,99.0692 C172.8692,97.7782 178.9872,92.8092 180.7592,85.7022 C179.6192,79.2292 180.1602,81.4532 180.1602,81.4532" id="Fill-32" fill="#FD5E5A" mask="url(#mask-2)"></path>
                        <path d="M166.0645,53.503 C166.0645,53.503 161.9885,54.792 159.6705,58.89 C157.3545,62.986 158.5815,68.911 157.2325,72.571 C155.8825,76.233 158.5895,94.631 166.8745,95.101 C177.2445,95.688 181.3835,80.539 182.4795,77.565 C183.5755,74.59 183.0805,62.798 178.7215,58.565 C174.3645,54.334 166.0645,53.503 166.0645,53.503" id="Fill-33" fill="#FC7575" mask="url(#mask-2)"></path>
                        <path d="M163.9249,74.296 C163.6599,76.727 163.0719,79.647 162.4719,82.041 C163.2599,82.478 164.3129,82.759 165.3129,82.65 C163.7069,83.203 162.0919,82.278 161.9899,82.258 C162.4019,80.271 162.8399,77.603 163.9249,74.296" id="Fill-34" fill="#4F005E" mask="url(#mask-2)"></path>
                        <path d="M169.6065,70.3487 C169.6065,70.3487 171.8215,69.4887 174.0435,69.8257 C176.2645,70.1647 178.5595,73.3397 178.5595,73.3397 C178.5595,73.3397 175.8075,70.6787 174.3155,70.5087 C172.8215,70.3387 171.1595,70.8697 171.1595,70.8697 L169.6065,70.3487 Z" id="Fill-35" fill="#4F005E" mask="url(#mask-2)"></path>
                        <path d="M164.4131,69.0128 C164.4131,69.0128 163.1911,67.2308 161.4421,66.4968 C159.6921,65.7628 156.6511,67.4878 156.6511,67.4878 C156.6511,67.4878 159.7971,66.4268 160.9481,66.9708 C162.1001,67.5138 163.0651,68.7498 163.0651,68.7498 L164.4131,69.0128 Z" id="Fill-36" fill="#4F005E" mask="url(#mask-2)"></path>
                        <path d="M169.2032,85.5626 C165.1412,87.6606 163.5292,87.7926 162.0072,87.7156 C164.3672,88.9606 167.8702,87.5196 169.2032,85.5626" id="Fill-37" fill="#FFFFFF" mask="url(#mask-2)"></path>
                        <path d="M170.1339,74.0206 C170.2379,74.7786 170.8839,75.3206 171.5779,75.2306 C172.2739,75.1396 172.7519,74.4526 172.6499,73.6946 C172.5459,72.9366 171.8979,72.3956 171.2029,72.4856 C170.5089,72.5756 170.0299,73.2626 170.1339,74.0206" id="Fill-38" fill="#4F005E" mask="url(#mask-2)"></path>
                        <path d="M175.8331,74.837 C171.2871,70.07 169.3281,73.422 167.7611,73.62 C169.0271,73.729 170.5181,72.447 171.8991,72.832 C173.0301,73.136 174.7071,74.184 175.8331,74.837" id="Fill-39" fill="#42004A" mask="url(#mask-2)"></path>
                        <path d="M159.7325,73.1241 C159.8565,73.8781 160.3955,74.4051 160.9365,74.3041 C161.4765,74.2001 161.8125,73.5061 161.6885,72.7521 C161.5635,71.9981 161.0245,71.4711 160.4855,71.5741 C159.9445,71.6761 159.6075,72.3701 159.7325,73.1241" id="Fill-40" fill="#4F005E" mask="url(#mask-2)"></path>
                        <path d="M163.7237,73.585 C159.9407,69.261 158.2627,72.728 156.9427,73.053 C158.0077,73.054 159.2717,71.668 160.4317,71.935 C161.3797,72.139 162.7807,73.034 163.7237,73.585" id="Fill-41" fill="#42004A" mask="url(#mask-2)"></path>
                        <path d="M170.3975,80.8301 C170.7845,82.0841 172.5005,82.6801 174.2305,82.1581 C175.9595,81.6381 177.0485,80.1981 176.6615,78.9431 C176.2745,77.6871 174.5585,77.0941 172.8285,77.6141 C171.0995,78.1351 170.0115,79.5741 170.3975,80.8301" id="Fill-42" fill="#FD5E5A" mask="url(#mask-2)"></path>
                        <path d="M175.376,58.8809 C169.915,53.0899 165.684,53.8709 165.313,53.7279 C165.315,53.6879 165.414,53.5239 165.608,53.2849 C166.561,51.9859 169.882,48.3729 176.59,49.7519 C183.475,51.0019 187.371,51.9909 191.253,57.4369 C192.996,59.8819 193.206,64.2259 192.729,67.0259 C191.857,72.1459 189.51,72.8209 189.884,78.0889 C190.243,83.1329 178.931,86.3009 178.931,86.3009 C179.157,85.6859 180.292,80.8019 180.857,79.5679 C182.068,76.6269 182.042,74.2149 181.089,71.7969 C180.551,71.9849 179.107,71.3419 178.336,70.5689 C175.833,68.0679 178.328,65.7939 175.376,58.8809" id="Fill-43" fill="#0000BF" mask="url(#mask-2)"></path>
                        <path d="M169.2247,50.9171 C169.2247,50.9171 164.2577,49.2051 159.3107,51.4391 C154.3627,53.6721 151.5547,65.7291 153.3577,68.6771 C155.1607,71.6261 144.0477,72.9561 149.6067,74.4651 C157.4877,76.6041 173.9037,53.1001 169.2247,50.9171" id="Fill-44" fill="#000086" mask="url(#mask-2)"></path>
                        <path d="M167.3272,52.3194 C159.7842,50.6534 153.8722,55.6454 154.6962,62.1214 C154.8412,63.2174 155.2072,64.3654 156.1832,64.9364 L156.9072,63.5484 C156.5022,63.4254 156.1762,62.3234 156.0952,61.9234 C154.8812,56.1964 160.0482,51.2624 167.3272,52.3194" id="Fill-45" fill="#0000FF" mask="url(#mask-2)"></path>
                        <path d="M183.3985,112.0274 C184.1085,109.8814 207.9435,90.6694 215.8085,82.2614 C218.9285,86.4664 222.4815,89.9574 226.5575,92.4284 C216.9145,107.8924 194.3775,135.1024 192.0185,135.132745 C185.2975,135.2204 181.2705,118.4724 183.3985,112.0274" id="Fill-46" fill="#70C3F8" mask="url(#mask-2)"></path>
                        <path d="M192.0186,135.1329 C184.9056,134.6829 181.1686,115.0119 184.0456,112.2249 C184.3036,111.9759 183.7486,112.5019 186.8506,109.6329 C193.3606,103.5979 207.9466,91.5199 215.8086,82.2619 C206.6776,90.6279 183.4906,108.7429 182.4886,112.0149 C180.9166,117.6329 183.3686,128.8649 187.9976,133.3729 C189.0516,134.4359 190.5146,135.2509 192.0186,135.1329" id="Fill-47" fill="#5492BA" mask="url(#mask-2)"></path>
                        <path d="M217.9366,79.6768 C227.5596,64.2338 229.7696,40.4848 226.2616,33.7958 C223.0346,27.6458 223.6536,22.3948 221.2796,17.8688 C220.1296,15.6788 220.2476,14.9378 220.3086,14.7628 C220.3916,14.5308 221.0596,14.5088 222.1746,14.9088 C224.1486,15.6188 224.2976,22.2998 226.1386,22.9608 C226.5416,23.1058 227.0866,22.9578 227.3276,22.2888 C228.2076,19.8428 225.8936,2.3438 227.3996,2.1218 C228.5206,1.9548 228.3276,5.1438 228.3466,5.2288 C228.9446,15.9798 229.2996,19.5368 230.9426,18.8488 C231.1826,18.7488 231.3576,18.5438 231.4666,18.2418 C232.1616,16.3118 230.9346,1.7178 232.8936,0.3348 C233.3906,-0.0142 233.7446,3.9478 233.7626,4.0328 C233.8966,5.7808 232.6376,17.3668 234.0366,18.3528 C236.6556,20.1968 236.0406,3.4608 238.4716,4.3358 C239.8656,4.8358 238.1786,9.7058 237.8656,12.1688 C237.2226,17.2198 237.1416,18.4528 237.8196,18.9698 C239.1236,19.9598 240.5476,16.8048 241.6536,14.7528 C242.5196,13.1488 244.0846,10.2428 244.8476,9.7238 C245.6426,11.5148 242.3756,17.3398 241.4456,19.0758 C239.6716,22.3798 239.8586,21.4918 237.1916,32.6908 C236.1986,36.8638 236.2066,35.5978 236.7186,38.4398 C239.3716,53.1328 235.5286,70.9818 230.4766,85.0338 C229.8176,86.8658 228.4286,89.4268 226.5576,92.4288 C222.4816,89.9568 218.9286,86.4668 215.8086,82.2618 C216.7836,81.2198 217.5276,80.3338 217.9366,79.6768" id="Fill-48" fill="#FC7575" mask="url(#mask-2)"></path>
                        <path d="M215.4083,78.2208 C215.4083,78.2208 212.6223,80.7418 212.5453,82.5118 C212.4653,84.2828 208.3403,86.5748 210.0163,87.3328 C211.6943,88.0918 222.7623,98.4168 222.7623,98.4168 C222.7623,98.4168 229.4693,97.3838 229.2593,93.8588 C229.0503,90.3308 231.3273,93.0768 229.7683,88.9418 C228.2093,84.8038 218.9413,76.0488 215.4083,78.2208" id="Fill-49" fill="#C6E7FC" mask="url(#mask-2)"></path>
                        <path d="M229.377,92.4092 C226.19,86.8362 221.536,83.4382 216.726,82.2152 C216.128,82.0622 215.898,82.9662 216.495,83.1182 C216.798,83.2412 223.997,84.1232 229.377,92.4092" id="Fill-50" fill="#5492BA" mask="url(#mask-2)"></path>
                        <path d="M211.2549,86.0469 C224.1619,87.7329 226.5669,95.6729 226.4909,95.6009 C226.7099,96.1779 227.5809,95.8489 227.3619,95.2729 C227.2849,95.2009 224.5969,87.1329 211.2549,86.0469" id="Fill-51" fill="#5492BA" mask="url(#mask-2)"></path>
                        <path d="M180.1046,72.4756 C180.1046,72.4756 182.3996,68.8496 183.4096,71.0536 C184.4186,73.2556 183.4476,80.1876 180.8576,79.5686 C178.2686,78.9486 180.1046,72.4756 180.1046,72.4756" id="Fill-52" fill="#FC7575" mask="url(#mask-2)"></path>
                        <path d="M181.2696,72.2911 C180.6396,73.3271 179.8006,76.5831 180.7586,77.1111 C182.8296,78.2541 183.2156,69.0911 181.2696,72.2911" id="Fill-53" fill="#FD5E5A" mask="url(#mask-2)"></path>
                        <path d="M188.8585,256.7413 L155.5455,256.7413 L144.5905,229.4843 C143.7545,226.9333 144.1425,224.2003 145.6605,221.9853 C147.1775,219.7723 149.5865,218.4223 152.2655,218.2823 L206.5845,215.4513 L188.8585,256.7413 Z M210.3045,206.5163 L152.4165,209.5353 C146.9695,209.8193 141.7725,212.3753 138.6205,216.8263 C135.4225,221.3423 134.5765,226.9653 136.2965,232.2063 L148.0345,263.9013 L193.6515,264.0143 L215.2115,212.0873 C215.7535,209.0823 213.3535,206.3573 210.3045,206.5163 L210.3045,206.5163 Z" id="Fill-54" fill="#1E1E1E" mask="url(#mask-2)"></path>
                        <path d="M175.7921,290.3614 C174.3251,291.8934 171.6621,292.8664 168.6471,292.7574 C165.6361,292.6474 163.0501,291.4854 161.6971,289.8534 C163.1631,288.3214 165.8271,287.3484 168.8401,287.4584 C171.8541,287.5664 174.4391,288.7284 175.7921,290.3614" id="Fill-55" fill="#7B54E2" mask="url(#mask-2)"></path>
                        <path d="M208.6866,353.6016 C206.6816,339.8876 205.7576,326.0326 205.9906,312.2056 C206.0456,305.2906 206.4256,298.3856 206.9756,291.5006 C207.5006,284.6116 208.3406,277.7526 209.2996,270.9176 C211.2586,257.2496 214.0276,243.7106 217.4576,230.3506 C219.1806,223.6726 221.0826,217.0416 223.1666,210.4676 C225.2566,203.8946 227.4916,197.3756 230.0696,190.9606 L230.8816,191.2926 C228.4056,197.6866 226.2496,204.2326 224.2506,210.8046 C222.2566,217.3816 220.4426,224.0156 218.8086,230.6906 C215.5576,244.0446 212.9686,257.5606 211.1906,271.1766 C210.3216,277.9886 209.5716,284.8146 209.1346,291.6636 C208.6746,298.5076 208.3836,305.3656 208.4136,312.2206 C208.3536,325.9336 209.4436,339.6326 211.5896,353.1406 L208.6866,353.6016 Z" id="Fill-56" fill="#7B54E2" mask="url(#mask-2)"></path>
                        <path d="M234.0948,163.4776 C230.1888,165.8326 227.0748,170.8226 226.2098,176.9226 C225.3438,183.0246 226.9478,188.6826 230.0438,192.0306 C233.9498,189.6756 237.0638,184.6866 237.9288,178.5846 C238.7928,172.4836 237.1918,166.8256 234.0948,163.4776" id="Fill-57" fill="#7B54E2" mask="url(#mask-2)"></path>
                        <path d="M211.0811,184.5059 C210.6031,188.0369 212.1161,192.3739 215.4101,195.8879 C218.7001,199.4009 222.9311,201.1929 226.4841,200.9449 C226.9631,197.4149 225.4481,193.0779 222.1561,189.5659 C218.8641,186.0529 214.6361,184.2589 211.0811,184.5059" id="Fill-58" fill="#7B54E2" mask="url(#mask-2)"></path>
                        <path d="M226.9014,201.6973 C229.8934,203.6323 234.4634,204.1073 239.0444,202.6253 C243.6234,201.1423 247.0474,198.0793 248.3354,194.7573 C245.3434,192.8213 240.7754,192.3453 236.1944,193.8283 C231.6144,195.3113 228.1914,198.3753 226.9014,201.6973" id="Fill-59" fill="#7B54E2" mask="url(#mask-2)"></path>
                        <path d="M222.6729,215.9053 C225.6639,217.8423 230.2339,218.3173 234.8139,216.8343 C239.3939,215.3503 242.8169,212.2873 244.1069,208.9663 C241.1139,207.0303 236.5449,206.5553 231.9659,208.0383 C227.3859,209.5213 223.9619,212.5853 222.6729,215.9053" id="Fill-60" fill="#7B54E2" mask="url(#mask-2)"></path>
                        <path d="M217.9952,231.417 C220.9872,233.353 225.5562,233.827 230.1352,232.345 C234.7162,230.862 238.1402,227.799 239.4282,224.478 C236.4372,222.541 231.8682,222.065 227.2882,223.548 C222.7072,225.032 219.2842,228.096 217.9952,231.417" id="Fill-61" fill="#7B54E2" mask="url(#mask-2)"></path>
                        <path d="M214.8575,245.8614 C217.8495,247.7984 222.4195,248.2734 226.9985,246.7894 C231.5795,245.3064 235.0035,242.2434 236.2915,238.9224 C233.2995,236.9864 228.7315,236.5094 224.1505,237.9944 C219.5705,239.4764 216.1475,242.5404 214.8575,245.8614" id="Fill-62" fill="#7B54E2" mask="url(#mask-2)"></path>
                        <path d="M216.1631,242.9375 C213.1721,244.8725 208.6021,245.3485 204.0221,243.8665 C199.4411,242.3825 196.0181,239.3195 194.7291,235.9975 C197.7201,234.0625 202.2901,233.5855 206.8701,235.0695 C211.4501,236.5515 214.8741,239.6155 216.1631,242.9375" id="Fill-63" fill="#7B54E2" mask="url(#mask-2)"></path>
                        <path d="M206.8809,198.2491 C206.4029,201.7791 207.9179,206.1171 211.2099,209.6301 C214.5019,213.1441 218.7319,214.9361 222.2859,214.6891 C222.7629,211.1591 221.2479,206.8211 217.9559,203.3081 C214.6659,199.7951 210.4359,198.0011 206.8809,198.2491" id="Fill-64" fill="#7B54E2" mask="url(#mask-2)"></path>
                        <path d="M202.0714,213.8633 C201.5934,217.3933 203.1084,221.7313 206.4004,225.2443 C209.6924,228.7573 213.9214,230.5503 217.4754,230.3013 C217.9534,226.7713 216.4384,222.4343 213.1464,218.9223 C209.8544,215.4093 205.6264,213.6153 202.0714,213.8633" id="Fill-65" fill="#7B54E2" mask="url(#mask-2)"></path>
                        <path d="M296.878,227.1397 C290.889,230.4417 285.274,234.3377 279.824,238.4467 C274.386,242.5697 269.194,247.0167 264.225,251.6987 C259.258,256.3867 254.533,261.3317 250.062,266.5007 C245.609,271.6887 241.44,277.1177 237.535,282.7337 C229.726,293.9727 223.216,306.1077 217.977,318.7707 C212.858,331.4867 209.06,344.7407 206.656,358.2517 L209.555,358.7367 C211.718,345.3887 215.259,332.2627 220.118,319.6257 C225.101,307.0397 231.352,294.9337 238.919,283.6757 C242.702,278.0487 246.756,272.5977 251.097,267.3787 C255.458,262.1777 260.077,257.1897 264.944,252.4517 C269.816,247.7177 274.915,243.2087 280.268,239.0197 C285.626,234.8467 291.177,230.8687 297.07,227.5007 L296.878,227.1397 Z" id="Fill-66" fill="#7B54E2" mask="url(#mask-2)"></path>
                        <path d="M318.9796,211.7139 C318.6596,216.2629 315.6316,221.3039 310.5916,224.8509 C305.5516,228.3969 299.7846,229.5429 295.3946,228.3079 C295.7136,223.7589 298.7426,218.7179 303.7806,215.1709 C308.8226,211.6249 314.5896,210.4789 318.9796,211.7139" id="Fill-67" fill="#7B54E2" mask="url(#mask-2)"></path>
                        <path d="M285.0401,207.8565 C288.4051,210.9345 290.4751,216.4385 290.1221,222.5905 C289.7691,228.7445 287.0831,233.9745 283.3871,236.6475 C280.0211,233.5695 277.9521,228.0655 278.3051,221.9135 C278.6581,215.7605 281.3451,210.5295 285.0401,207.8565" id="Fill-68" fill="#7B54E2" mask="url(#mask-2)"></path>
                        <path d="M265.0049,217.9141 C269.0689,219.9841 272.5279,224.7401 273.8259,230.7651 C275.1239,236.7881 273.9289,242.5471 271.0769,246.1061 C267.0139,244.0361 263.5549,239.2801 262.2569,233.2561 C260.9579,227.2311 262.1539,221.4741 265.0049,217.9141" id="Fill-69" fill="#7B54E2" mask="url(#mask-2)"></path>
                        <path d="M251.4913,230.3477 C255.5543,232.4177 259.0143,237.1727 260.3113,243.1987 C261.6093,249.2217 260.4153,254.9807 257.5633,258.5397 C253.5003,256.4697 250.0403,251.7137 248.7413,245.6907 C247.4443,239.6647 248.6393,233.9077 251.4913,230.3477" id="Fill-70" fill="#7B54E2" mask="url(#mask-2)"></path>
                        <path d="M235.9327,243.127 C240.3917,244.089 244.9527,247.8 247.7487,253.292 C250.5437,258.784 250.8617,264.655 249.0157,268.827 C244.5567,267.865 239.9947,264.154 237.2007,258.662 C234.4047,253.169 234.0867,247.297 235.9327,243.127" id="Fill-71" fill="#7B54E2" mask="url(#mask-2)"></path>
                        <path d="M224.9776,259.127 C229.0456,258.954 233.8246,261.134 237.4786,265.251 C241.1316,269.367 242.7276,274.37 242.0726,278.391 C238.0036,278.564 233.2256,276.384 229.5716,272.267 C225.9176,268.15 224.3226,263.147 224.9776,259.127" id="Fill-72" fill="#7B54E2" mask="url(#mask-2)"></path>
                        <path d="M217.0274,269.1866 C221.0954,269.0126 225.8754,271.1936 229.5284,275.3096 C233.1804,279.4266 234.7784,284.4296 234.1234,288.4506 C230.0524,288.6236 225.2754,286.4436 221.6224,282.3266 C217.9674,278.2086 216.3714,273.2066 217.0274,269.1866" id="Fill-73" fill="#7B54E2" mask="url(#mask-2)"></path>
                        <path d="M212.4864,284.0225 C215.9744,283.8745 220.0704,285.7425 223.2024,289.2715 C226.3334,292.7995 227.7014,297.0895 227.1404,300.5355 C223.6514,300.6835 219.5554,298.8145 216.4254,295.2855 C213.2944,291.7575 211.9244,287.4685 212.4864,284.0225" id="Fill-74" fill="#7B54E2" mask="url(#mask-2)"></path>
                        <path d="M208.0811,299.4942 C210.6201,298.0592 214.3931,297.8902 218.0931,299.3162 C221.7921,300.7432 224.4731,303.4012 225.3931,306.1692 C222.8531,307.6032 219.0801,307.7742 215.3811,306.3472 C211.6821,304.9212 208.9991,302.2622 208.0811,299.4942" id="Fill-75" fill="#7B54E2" mask="url(#mask-2)"></path>
                        <path d="M206.3008,312.2461 C207.8628,310.5091 210.6848,309.4141 213.8588,309.5531 C217.0318,309.6891 219.7488,311.0221 221.1548,312.8901 C219.5928,314.6281 216.7708,315.7231 213.5968,315.5841 C210.4228,315.4471 207.7058,314.1141 206.3008,312.2461" id="Fill-76" fill="#7B54E2" mask="url(#mask-2)"></path>
                        <path d="M310.6006,245.5938 C306.7236,247.9938 300.8636,248.4878 295.0386,246.4718 C289.2156,244.4568 284.9116,240.4488 283.3476,236.1658 C287.2246,233.7658 293.0846,233.2728 298.9086,235.2868 C304.7326,237.3008 309.0356,241.3108 310.6006,245.5938" id="Fill-77" fill="#7B54E2" mask="url(#mask-2)"></path>
                        <path d="M298.2999,255.7168 C294.4219,258.1168 288.5629,258.6108 282.7379,256.5958 C276.9129,254.5818 272.6119,250.5718 271.0459,246.2888 C274.9229,243.8888 280.7829,243.3958 286.6079,245.4108 C292.4309,247.4258 296.7349,251.4338 298.2999,255.7168" id="Fill-78" fill="#7B54E2" mask="url(#mask-2)"></path>
                        <path d="M285.1856,268.1993 C281.3086,270.5993 275.4486,271.0923 269.6246,269.0773 C263.8006,267.0633 259.4986,263.0553 257.9326,258.7713 C261.8096,256.3703 267.6696,255.8783 273.4936,257.8923 C279.3186,259.9073 283.6206,263.9153 285.1856,268.1993" id="Fill-79" fill="#7B54E2" mask="url(#mask-2)"></path>
                        <path d="M270.3858,276.503 C267.2328,278.455 262.4658,278.856 257.7298,277.218 C252.9928,275.579 249.4928,272.318 248.2198,268.835 C251.3728,266.882 256.1388,266.482 260.8768,268.12 C265.6138,269.758 269.1138,273.018 270.3858,276.503" id="Fill-80" fill="#7B54E2" mask="url(#mask-2)"></path>
                        <path d="M259.3028,284.4327 C256.7248,286.0997 252.8538,286.4827 249.0278,285.1607 C245.1998,283.8357 242.3958,281.1427 241.3978,278.2397 C243.9758,276.5727 247.8468,276.1897 251.6728,277.5117 C255.4988,278.8357 258.3048,281.5297 259.3028,284.4327" id="Fill-81" fill="#7B54E2" mask="url(#mask-2)"></path>
                        <path d="M252.6817,294.6309 C250.1037,296.2959 246.2327,296.6809 242.4057,295.3569 C238.5787,294.0339 235.7737,291.3399 234.7757,288.4369 C237.3537,286.7699 241.2247,286.3859 245.0507,287.7089 C248.8767,289.0329 251.6847,291.7259 252.6817,294.6309" id="Fill-82" fill="#7B54E2" mask="url(#mask-2)"></path>
                        <path d="M245.4239,303.8604 C243.3349,305.6384 239.8329,306.4984 236.0759,305.8884 C232.3209,305.2804 229.2699,303.3594 227.8489,301.0104 C229.9389,299.2324 233.4399,298.3734 237.1959,298.9824 C240.9509,299.5904 244.0039,301.5114 245.4239,303.8604" id="Fill-83" fill="#7B54E2" mask="url(#mask-2)"></path>
                        <path d="M238.4102,315.4815 C236.0562,316.1515 232.9282,315.5465 230.1592,313.6575 C227.3912,311.7675 225.6902,309.0725 225.4572,306.6375 C227.8102,305.9675 230.9382,306.5715 233.7082,308.4615 C236.4752,310.3505 238.1772,313.0455 238.4102,315.4815" id="Fill-84" fill="#7B54E2" mask="url(#mask-2)"></path>
                        <path d="M230.5987,322.4209 C228.7357,322.5889 226.4687,321.6909 224.6577,319.8759 C222.8447,318.0639 221.9487,315.7959 222.1197,313.9329 C223.9837,313.7639 226.2487,314.6619 228.0607,316.4769 C229.8717,318.2889 230.7687,320.5569 230.5987,322.4209" id="Fill-85" fill="#7B54E2" mask="url(#mask-2)"></path>
                        <path d="M225.4161,324.2383 C224.1921,324.4263 222.7491,323.9333 221.6411,322.8253 C220.5341,321.7163 220.0421,320.2723 220.2311,319.0493 C221.4571,318.8603 222.9001,319.3523 224.0071,320.4623 C225.1151,321.5713 225.6051,323.0143 225.4161,324.2383" id="Fill-86" fill="#7B54E2" mask="url(#mask-2)"></path>
                        <path d="M223.7471,327.67 C222.5211,327.858 221.0791,327.365 219.9721,326.257 C218.8631,325.148 218.3731,323.704 218.5621,322.481 C219.7861,322.292 221.2291,322.783 222.3371,323.894 C223.4441,325.003 223.9361,326.445 223.7471,327.67" id="Fill-87" fill="#7B54E2" mask="url(#mask-2)"></path>
                        <path d="M163.669,215.6368 C167.946,220.3228 171.717,225.4178 175.277,230.6518 C178.824,235.8948 182.06,241.3498 185.028,246.9438 C187.993,252.5418 190.669,258.2938 193.056,264.1678 C195.42,270.0508 197.464,276.0638 199.218,282.1598 C202.728,294.3608 204.827,306.9588 205.653,319.6458 C206.358,332.3388 205.743,345.1138 203.825,357.6988 L201.136,357.2588 C203.216,344.8918 204.017,332.3068 203.517,319.7568 C202.894,307.2178 201.014,294.7208 197.722,282.5748 C196.076,276.5038 194.142,270.5078 191.884,264.6298 C189.605,258.7608 187.033,253.0028 184.172,247.3888 C181.304,241.7808 178.169,236.2998 174.716,231.0238 C171.254,225.7608 167.565,220.6138 163.394,215.8968 L163.669,215.6368 Z" id="Fill-88" fill="#B098EE" mask="url(#mask-2)"></path>
                        <path d="M148.8565,195.4971 C147.7805,199.5881 148.9355,204.9191 152.3055,209.5361 C155.6755,214.1551 160.3995,216.8811 164.6245,217.1051 C165.6995,213.0141 164.5445,207.6831 161.1735,203.0651 C157.8035,198.4471 153.0805,195.7221 148.8565,195.4971" id="Fill-89" fill="#B098EE" mask="url(#mask-2)"></path>
                        <path d="M179.8165,202.2286 C175.9425,203.9276 172.4835,208.1466 170.9605,213.6566 C169.4345,219.1646 170.2355,224.5616 172.6835,228.0086 C176.5585,226.3096 180.0165,222.0916 181.5415,216.5826 C183.0645,211.0736 182.2665,205.6766 179.8165,202.2286" id="Fill-90" fill="#B098EE" mask="url(#mask-2)"></path>
                        <path d="M194.4141,217.0352 C190.2281,217.6422 185.7711,220.7872 182.8361,225.6922 C179.8991,230.5982 179.2331,236.0112 180.6771,239.9872 C184.8631,239.3812 189.3191,236.2352 192.2561,231.3302 C195.1911,226.4262 195.8571,221.0132 194.4141,217.0352" id="Fill-91" fill="#B098EE" mask="url(#mask-2)"></path>
                        <path d="M202.5792,231.9854 C198.3922,232.5924 193.9342,235.7384 190.9992,240.6424 C188.0622,245.5484 187.3962,250.9614 188.8402,254.9374 C193.0262,254.3304 197.4822,251.1854 200.4192,246.2814 C203.3542,241.3764 204.0202,235.9634 202.5792,231.9854" id="Fill-92" fill="#B098EE" mask="url(#mask-2)"></path>
                        <path d="M212.4346,247.8487 C208.2316,247.3647 203.1186,249.2647 199.0256,253.2547 C194.9326,257.2447 192.9036,262.3087 193.2806,266.5217 C197.4826,267.0067 202.5966,265.1067 206.6896,261.1167 C210.7826,257.1257 212.8116,252.0617 212.4346,247.8487" id="Fill-93" fill="#B098EE" mask="url(#mask-2)"></path>
                        <path d="M217.2872,265.169 C213.7652,263.804 208.9172,264.294 204.4802,266.82 C200.0452,269.348 197.1502,273.266 196.5262,276.993 C200.0512,278.357 204.8962,277.867 209.3342,275.341 C213.7692,272.814 216.6642,268.896 217.2872,265.169" id="Fill-94" fill="#B098EE" mask="url(#mask-2)"></path>
                        <path d="M221.2715,276.375 C217.7485,275.01 212.9015,275.5 208.4655,278.026 C204.0285,280.554 201.1335,284.472 200.5115,288.199 C204.0355,289.563 208.8815,289.073 213.3175,286.548 C217.7525,284.02 220.6475,280.102 221.2715,276.375" id="Fill-95" fill="#B098EE" mask="url(#mask-2)"></path>
                        <path d="M220.836,290.7608 C217.815,289.5908 213.662,290.0108 209.858,292.1768 C206.056,294.3428 203.575,297.6998 203.041,300.8958 C206.062,302.0648 210.216,301.6448 214.019,299.4788 C217.82,297.3138 220.302,293.9548 220.836,290.7608" id="Fill-96" fill="#B098EE" mask="url(#mask-2)"></path>
                        <path d="M220.0928,305.6631 C218.2898,303.6461 215.0268,302.3721 211.3528,302.5211 C207.6768,302.6721 204.5288,304.2091 202.8978,306.3661 C204.6998,308.3821 207.9628,309.6561 211.6378,309.5071 C215.3128,309.3551 218.4608,307.8191 220.0928,305.6631" id="Fill-97" fill="#B098EE" mask="url(#mask-2)"></path>
                        <path d="M217.8536,317.3956 C217.0006,315.4026 214.8486,313.6006 212.0206,312.7746 C209.1906,311.9496 206.4066,312.3116 204.6166,313.5316 C205.4696,315.5246 207.6216,317.3266 210.4506,318.1516 C213.2796,318.9776 216.0626,318.6166 217.8536,317.3956" id="Fill-98" fill="#B098EE" mask="url(#mask-2)"></path>
                        <path d="M146.1143,227.754 C148.8033,231.02 153.8033,233.199 159.5203,233.165 C165.2363,233.132 170.2113,230.895 172.8623,227.6 C170.1733,224.334 165.1733,222.154 159.4563,222.188 C153.7403,222.22 148.7653,224.458 146.1143,227.754" id="Fill-99" fill="#B098EE" mask="url(#mask-2)"></path>
                        <path d="M153.8995,240.3135 C156.5895,243.5775 161.5905,245.7585 167.3075,245.7245 C173.0225,245.6915 177.9985,243.4545 180.6505,240.1595 C177.9605,236.8935 172.9595,234.7135 167.2425,234.7475 C161.5275,234.7795 156.5515,237.0165 153.8995,240.3135" id="Fill-100" fill="#B098EE" mask="url(#mask-2)"></path>
                        <path d="M161.6973,255.1866 C164.3873,258.4516 169.3863,260.6306 175.1033,260.5986 C180.8203,260.5656 185.7943,258.3276 188.4463,255.0316 C185.7563,251.7656 180.7573,249.5856 175.0403,249.6206 C169.3233,249.6536 164.3493,251.8906 161.6973,255.1866" id="Fill-101" fill="#B098EE" mask="url(#mask-2)"></path>
                        <path d="M172.2217,266.8926 C174.4097,269.5476 178.4757,271.3206 183.1257,271.2936 C187.7747,271.2676 191.8207,269.4466 193.9777,266.7666 C191.7887,264.1116 187.7227,262.3386 183.0737,262.3656 C178.4247,262.3916 174.3787,264.2106 172.2217,266.8926" id="Fill-102" fill="#B098EE" mask="url(#mask-2)"></path>
                        <path d="M179.5909,277.1631 C181.3599,279.3941 184.6459,280.8871 188.4009,280.8651 C192.1569,280.8441 195.4249,279.3131 197.1669,277.0611 C195.3989,274.8281 192.1119,273.3381 188.3579,273.3591 C184.6029,273.3811 181.3339,274.9091 179.5909,277.1631" id="Fill-103" fill="#B098EE" mask="url(#mask-2)"></path>
                        <path d="M182.3682,288.0938 C184.1362,290.3268 187.4222,291.8178 191.1772,291.7958 C194.9322,291.7748 198.2002,290.2438 199.9422,287.9918 C198.1752,285.7588 194.8892,284.2688 191.1342,284.2898 C187.3772,284.3118 184.1092,285.8398 182.3682,288.0938" id="Fill-104" fill="#B098EE" mask="url(#mask-2)"></path>
                        <path d="M185.9913,298.3643 C187.2963,300.5503 190.1163,302.3473 193.5953,302.9333 C197.0763,303.5183 200.3293,302.7413 202.2763,301.1023 C200.9723,298.9163 198.1513,297.1193 194.6723,296.5333 C191.1923,295.9483 187.9383,296.7253 185.9913,298.3643" id="Fill-105" fill="#B098EE" mask="url(#mask-2)"></path>
                        <path d="M188.6866,310.6631 C190.5536,311.9531 193.4826,312.3551 196.4776,311.5211 C199.4716,310.6861 201.7706,308.8261 202.7006,306.7571 C200.8326,305.4671 197.9056,305.0641 194.9116,305.9001 C191.9156,306.7341 189.6186,308.5941 188.6866,310.6631" id="Fill-106" fill="#B098EE" mask="url(#mask-2)"></path>
                        <path d="M193.4786,319.0879 C195.0656,319.7909 197.3246,319.6789 199.4576,318.6249 C201.5886,317.5719 203.0506,315.8489 203.4576,314.1589 C201.8706,313.4559 199.6126,313.5689 197.4806,314.6229 C195.3476,315.6759 193.8846,317.3999 193.4786,319.0879" id="Fill-107" fill="#B098EE" mask="url(#mask-2)"></path>
                        <path d="M197.4883,322.2286 C198.5093,322.7596 199.9223,322.7566 201.2253,322.1136 C202.5293,321.4696 203.3913,320.3486 203.5893,319.2156 C202.5693,318.6856 201.1553,318.6886 199.8513,319.3326 C198.5483,319.9756 197.6873,321.0976 197.4883,322.2286" id="Fill-108" fill="#B098EE" mask="url(#mask-2)"></path>
                        <path d="M197.9327,325.7413 C198.9527,326.2703 200.3667,326.2683 201.6697,325.6253 C202.9737,324.9813 203.8357,323.8603 204.0337,322.7273 C203.0147,322.1983 201.5997,322.1993 200.2957,322.8453 C198.9927,323.4883 198.1317,324.6093 197.9327,325.7413" id="Fill-109" fill="#B098EE" mask="url(#mask-2)"></path>
                        <path d="M254.3135,201.7178 C249.9545,206.9888 246.1605,212.6718 242.6005,218.4938 C239.0555,224.3258 235.8595,230.3688 232.9555,236.5498 C230.0565,242.7328 227.4765,249.0678 225.2145,255.5178 C222.9775,261.9758 221.0905,268.5568 219.5215,275.2138 C216.3815,288.5348 214.7825,302.2118 214.5565,315.9148 C214.4635,329.6208 215.7955,343.3438 218.5205,356.7958 L221.3945,356.1828 C218.5055,342.9718 216.9825,329.4628 216.8635,315.9248 C216.8775,302.3888 218.2475,288.8338 221.1545,275.5818 C222.6085,268.9588 224.3775,262.4028 226.5015,255.9528 C228.6475,249.5138 231.1145,243.1788 233.9015,236.9838 C236.6945,230.7928 239.7835,224.7278 243.2235,218.8648 C246.6755,213.0168 250.3785,207.2798 254.6245,201.9828 L254.3135,201.7178 Z" id="Fill-110" fill="#5D3FAA" mask="url(#mask-2)"></path>
                        <path d="M269.209,179.254 C270.581,183.604 269.616,189.404 266.23,194.554 C262.844,199.702 257.899,202.887 253.362,203.349 C251.99,198.999 252.955,193.198 256.341,188.05 C259.728,182.901 264.672,179.718 269.209,179.254" id="Fill-111" fill="#5D3FAA" mask="url(#mask-2)"></path>
                        <path d="M236.2227,188.126 C240.4837,189.753 244.4287,194.114 246.3587,199.967 C248.2887,205.819 247.7117,211.672 245.2537,215.514 C240.9937,213.887 237.0487,209.526 235.1187,203.674 C233.1887,197.821 233.7657,191.969 236.2227,188.126" id="Fill-112" fill="#5D3FAA" mask="url(#mask-2)"></path>
                        <path d="M221.2794,204.837 C225.8204,205.271 230.7844,208.423 234.2014,213.551 C237.6204,218.679 238.6224,224.473 237.2764,228.831 C232.7364,228.397 227.7724,225.244 224.3534,220.116 C220.9344,214.987 219.9344,209.193 221.2794,204.837" id="Fill-113" fill="#5D3FAA" mask="url(#mask-2)"></path>
                        <path d="M213.2735,221.3624 C217.8135,221.7964 222.7775,224.9504 226.1965,230.0774 C229.6135,235.2054 230.6155,240.9994 229.2695,245.3574 C224.7295,244.9234 219.7655,241.7694 216.3475,236.6414 C212.9285,231.5144 211.9275,225.7204 213.2735,221.3624" id="Fill-114" fill="#5D3FAA" mask="url(#mask-2)"></path>
                        <path d="M203.4913,238.96 C207.9923,238.219 213.5963,239.996 218.2143,244.079 C222.8303,248.162 225.2803,253.507 225.0953,258.064 C220.5953,258.806 214.9893,257.027 210.3743,252.945 C205.7573,248.862 203.3053,243.518 203.4913,238.96" id="Fill-115" fill="#5D3FAA" mask="url(#mask-2)"></path>
                        <path d="M199.1739,257.8653 C202.8969,256.2113 208.1409,256.4833 213.0499,258.9713 C217.9599,261.4603 221.2809,265.5293 222.1489,269.5093 C218.4269,271.1633 213.1809,270.8883 208.2719,268.4023 C203.3619,265.9143 200.0399,261.8443 199.1739,257.8653" id="Fill-116" fill="#5D3FAA" mask="url(#mask-2)"></path>
                        <path d="M195.4717,270.1416 C199.1927,268.4856 204.4387,268.7596 209.3477,271.2476 C214.2567,273.7366 217.5787,277.8036 218.4457,281.7846 C214.7227,283.4396 209.4787,283.1646 204.5697,280.6766 C199.6597,278.1886 196.3377,274.1206 195.4717,270.1416" id="Fill-117" fill="#5D3FAA" mask="url(#mask-2)"></path>
                        <path d="M196.6944,285.6084 C199.8844,284.1894 204.3804,284.4244 208.5894,286.5574 C212.7974,288.6904 215.6444,292.1764 216.3874,295.5884 C213.1974,297.0064 208.7004,296.7724 204.4934,294.6394 C200.2844,292.5064 197.4374,289.0204 196.6944,285.6084" id="Fill-118" fill="#5D3FAA" mask="url(#mask-2)"></path>
                        <path d="M198.2764,301.6163 C200.1104,299.3503 203.5574,297.8063 207.5234,297.7763 C211.4884,297.7463 214.9594,299.2333 216.8294,301.4713 C214.9934,303.7383 211.5474,305.2803 207.5824,305.3123 C203.6174,305.3433 200.1464,303.8533 198.2764,301.6163" id="Fill-119" fill="#5D3FAA" mask="url(#mask-2)"></path>
                        <path d="M201.3018,314.1329 C202.1148,311.9439 204.3398,309.8889 207.3418,308.8519 C210.3448,307.8149 213.3608,308.0569 215.3548,309.2789 C214.5398,311.4679 212.3168,313.5219 209.3138,314.5589 C206.3118,315.5969 203.2948,315.3529 201.3018,314.1329" id="Fill-120" fill="#5D3FAA" mask="url(#mask-2)"></path>
                        <path d="M273.8526,213.8448 C271.1266,217.5008 265.8576,220.1118 259.7006,220.3758 C253.5426,220.6398 248.0686,218.4908 245.0406,215.0798 C247.7666,211.4238 253.0366,208.8138 259.1926,208.5498 C265.3496,208.2868 270.8236,210.4358 273.8526,213.8448" id="Fill-121" fill="#5D3FAA" mask="url(#mask-2)"></path>
                        <path d="M266.126,227.7774 C263.4,231.4344 258.131,234.0434 251.974,234.3074 C245.816,234.5714 240.344,232.4234 237.314,229.0134 C240.04,225.3564 245.31,222.7474 251.467,222.4834 C257.623,222.2184 263.098,224.3674 266.126,227.7774" id="Fill-122" fill="#5D3FAA" mask="url(#mask-2)"></path>
                        <path d="M258.5108,244.2022 C255.7848,247.8582 250.5148,250.4692 244.3578,250.7322 C238.1998,250.9972 232.7278,248.8482 229.6988,245.4372 C232.4238,241.7802 237.6948,239.1712 243.8518,238.9072 C250.0068,238.6422 255.4818,240.7922 258.5108,244.2022" id="Fill-123" fill="#5D3FAA" mask="url(#mask-2)"></path>
                        <path d="M247.7921,257.3584 C245.5751,260.3334 241.2881,262.4554 236.2811,262.6704 C231.2721,262.8844 226.8211,261.1374 224.3571,258.3644 C226.5741,255.3894 230.8611,253.2664 235.8681,253.0514 C240.8771,252.8374 245.3271,254.5844 247.7921,257.3584" id="Fill-124" fill="#5D3FAA" mask="url(#mask-2)"></path>
                        <path d="M240.3926,268.8047 C238.6066,271.2997 235.1476,273.0787 231.1016,273.2517 C227.0566,273.4257 223.4566,271.9507 221.4626,269.6157 C223.2506,267.1177 226.7096,265.3407 230.7546,265.1667 C234.8006,264.9937 238.3996,266.4697 240.3926,268.8047" id="Fill-125" fill="#5D3FAA" mask="url(#mask-2)"></path>
                        <path d="M237.9776,280.7198 C236.1906,283.2158 232.7316,284.9948 228.6856,285.1688 C224.6406,285.3408 221.0416,283.8658 219.0466,281.5318 C220.8346,279.0348 224.2936,277.2568 228.3386,277.0838 C232.3846,276.9098 235.9836,278.3858 237.9776,280.7198" id="Fill-126" fill="#5D3FAA" mask="url(#mask-2)"></path>
                        <path d="M234.6143,291.9698 C233.3243,294.3918 230.3823,296.4758 226.6643,297.2888 C222.9483,298.1018 219.4033,297.4348 217.2193,295.7718 C218.5113,293.3498 221.4533,291.2648 225.1703,290.4518 C228.8873,289.6398 232.4303,290.3068 234.6143,291.9698" id="Fill-127" fill="#5D3FAA" mask="url(#mask-2)"></path>
                        <path d="M232.3565,305.3555 C230.4135,306.8405 227.2815,307.4285 224.0125,306.6855 C220.7435,305.9445 218.1725,304.0635 217.0605,301.8835 C219.0035,300.3965 222.1355,299.8085 225.4055,300.5515 C228.6735,301.2935 231.2465,303.1745 232.3565,305.3555" id="Fill-128" fill="#5D3FAA" mask="url(#mask-2)"></path>
                        <path d="M227.6368,314.6768 C225.9648,315.5188 223.5288,315.5148 221.1758,314.4918 C218.8248,313.4708 217.1588,311.6908 216.6348,309.8938 C218.3068,309.0528 220.7428,309.0558 223.0958,310.0778 C225.4468,311.1018 227.1128,312.8798 227.6368,314.6768" id="Fill-129" fill="#5D3FAA" mask="url(#mask-2)"></path>
                        <path d="M223.4854,318.2706 C222.4154,318.8936 220.8914,318.9656 219.4544,318.3416 C218.0164,317.7156 217.0304,316.5536 216.7564,315.3456 C217.8274,314.7206 219.3494,314.6496 220.7884,315.2746 C222.2244,315.8996 223.2114,317.0616 223.4854,318.2706" id="Fill-130" fill="#5D3FAA" mask="url(#mask-2)"></path>
                        <path d="M223.1905,322.0752 C222.1205,322.7002 220.5985,322.7702 219.1605,322.1462 C217.7225,321.5212 216.7365,320.3582 216.4615,319.1502 C217.5325,318.5252 219.0555,318.4542 220.4935,319.0792 C221.9315,319.7042 222.9185,320.8662 223.1905,322.0752" id="Fill-131" fill="#5D3FAA" mask="url(#mask-2)"></path>
                        <path d="M190.961,311.5684 C184.521,302.1334 177.737,292.9174 170.499,284.0664 L170.617,283.9664 C178.04,292.6754 185.016,301.7594 191.659,311.0844 C198.285,320.4204 204.54,330.0364 210.164,340.0364 C211.521,342.4634 212.841,344.9114 214.116,347.3844 C213.617,347.6644 213.118,347.9444 212.622,348.2324 C211.395,345.7264 210.118,343.2424 208.807,340.7804 C203.421,330.7284 197.383,321.0164 190.961,311.5684" id="Fill-132" fill="#7B54E2" mask="url(#mask-2)"></path>
                        <path d="M163.4229,272.0332 C165.7979,272.2512 168.2619,273.8342 169.8159,276.4192 C171.3679,279.0032 171.6099,281.9232 170.6869,284.1212 C168.3119,283.9042 165.8479,282.3212 164.2949,279.7362 C162.7409,277.1512 162.5009,274.2332 163.4229,272.0332" id="Fill-133" fill="#7B54E2" mask="url(#mask-2)"></path>
                        <path d="M181.0518,277.544 C182.0188,279.431 182.0688,282.266 180.9818,285.077 C179.8948,287.89 177.9518,289.955 175.9668,290.698 C174.9978,288.814 174.9498,285.979 176.0358,283.167 C177.1228,280.354 179.0658,278.289 181.0518,277.544" id="Fill-134" fill="#7B54E2" mask="url(#mask-2)"></path>
                        <path d="M181.6475,298.3018 C180.0345,299.6778 177.2875,300.3778 174.2995,299.9658 C171.3125,299.5548 168.8565,298.1378 167.6755,296.3768 C169.2895,295.0008 172.0365,294.3028 175.0235,294.7138 C178.0105,295.1258 180.4675,296.5408 181.6475,298.3018" id="Fill-135" fill="#7B54E2" mask="url(#mask-2)"></path>
                        <path d="M188.7725,307.501 C187.1605,308.877 184.4125,309.577 181.4255,309.164 C178.4385,308.753 175.9825,307.337 174.8015,305.576 C176.4155,304.2 179.1625,303.501 182.1495,303.912 C185.1355,304.323 187.5915,305.74 188.7725,307.501" id="Fill-136" fill="#7B54E2" mask="url(#mask-2)"></path>
                        <path d="M193.6124,314.8272 C192.0004,316.2042 189.2534,316.9032 186.2654,316.4922 C183.2784,316.0792 180.8214,314.6642 179.6404,312.9032 C181.2554,311.5262 184.0024,310.8272 186.9894,311.2382 C189.9754,311.6492 192.4314,313.0662 193.6124,314.8272" id="Fill-137" fill="#7B54E2" mask="url(#mask-2)"></path>
                        <path d="M198.9786,322.9161 C197.3666,324.2901 194.6196,324.9901 191.6316,324.5791 C188.6446,324.1671 186.1876,322.7511 185.0066,320.9891 C186.6216,319.6131 189.3686,318.9151 192.3556,319.3271 C195.3426,319.7381 197.7976,321.1551 198.9786,322.9161" id="Fill-138" fill="#7B54E2" mask="url(#mask-2)"></path>
                        <path d="M187.253,285.4356 C188.222,287.3216 188.272,290.1566 187.185,292.9686 C186.098,295.7826 184.155,297.8466 182.17,298.5916 C181.201,296.7056 181.151,293.8706 182.238,291.0576 C183.325,288.2456 185.269,286.1806 187.253,285.4356" id="Fill-139" fill="#7B54E2" mask="url(#mask-2)"></path>
                        <path d="M193.1817,293.5586 C194.1507,295.4446 194.2007,298.2796 193.1137,301.0906 C192.0267,303.9046 190.0837,305.9686 188.0987,306.7136 C187.1297,304.8276 187.0797,301.9926 188.1667,299.1806 C189.2537,296.3686 191.1977,294.3026 193.1817,293.5586" id="Fill-140" fill="#7B54E2" mask="url(#mask-2)"></path>
                        <path d="M198.8233,301.7471 C199.7923,303.6331 199.8423,306.4681 198.7553,309.2811 C197.6683,312.0931 195.7243,314.1571 193.7403,314.9021 C192.7713,313.0161 192.7213,310.1831 193.8083,307.3691 C194.8953,304.5571 196.8383,302.4911 198.8233,301.7471" id="Fill-141" fill="#7B54E2" mask="url(#mask-2)"></path>
                        <path d="M204.2901,309.7696 C205.2591,311.6556 205.3091,314.4896 204.2221,317.3026 C203.1351,320.1156 201.1921,322.1806 199.2071,322.9246 C198.2381,321.0396 198.1901,318.2046 199.2761,315.3916 C200.3631,312.5796 202.3061,310.5136 204.2901,309.7696" id="Fill-142" fill="#7B54E2" mask="url(#mask-2)"></path>
                    </g>
                    <g id="Group-146" transform="translate(175.000000, 346.965000)">
                        <mask id="mask-4" fill="white">
                            <use xlink:href="#path-3"></use>
                        </mask>
                        <g id="Clip-145"></g>
                        <path d="M11.707,0.179 C4.608,3.806 0.1,9.202 0.1,15.233 L0.1,15.233 C0.1,21.671 5.235,27.39 13.18,31 L13.18,31 L52.98,31 C60.927,27.39 66.062,21.671 66.062,15.233 L66.062,15.233 C66.062,9.202 61.553,3.806 54.455,0.179 L54.455,0.179 L11.707,0.179 Z" id="Fill-144" fill="url(#linearGradient-5)" mask="url(#mask-4)"></path>
                    </g>
                    <g id="Group-153" transform="translate(179.000000, 0.965000)">
                        <path d="M11.7276,349.5577 C7.5136,349.0657 1.8686,352.2437 0.4106,358.6297 C-1.5784,371.2357 11.0446,374.9377 17.9326,371.7367 C11.9296,370.2297 5.3666,367.4767 5.1726,361.2707 C4.8406,358.0247 6.7676,354.8937 6.8006,354.7987 C7.0686,354.4167 7.6066,353.4697 8.6116,352.3737 C9.4986,351.3137 10.5776,350.4207 11.7276,349.5577" id="Fill-147" fill="#F8E74A"></path>
                        <polygon id="Fill-149" fill="#1179C5" points="5.711 347.296 52.933 347.296 52.933 344.33 5.711 344.33"></polygon>
                        <path d="M79.5108,56.503 C79.4358,56.503 79.3608,56.49 79.2868,56.464 C78.9488,56.34 78.7768,55.966 78.8998,55.63 C94.1118,14.196 69.1868,1.392 68.9328,1.268 C68.6118,1.108 68.4788,0.719 68.6358,0.397 C68.7938,0.074 69.1848,-0.055 69.5068,0.1 C69.7708,0.23 95.7298,13.558 80.1208,56.077 C80.0248,56.341 79.7758,56.503 79.5108,56.503" id="Fill-151" fill="#3C4875"></path>
                        <path d="M66.4239,57.2589 C66.2579,57.2589 66.0919,57.1959 65.9649,57.0689 C65.7109,56.8149 65.7109,56.4039 65.9649,56.1499 C76.8659,45.2469 72.1319,19.7609 72.0819,19.5039 C72.0149,19.1529 72.2459,18.8109 72.5989,18.7429 C72.9449,18.6789 73.2909,18.9059 73.3599,19.2609 C73.5659,20.3329 78.2679,45.6849 66.8839,57.0689 C66.7569,57.1959 66.5909,57.2589 66.4239,57.2589" id="Fill-152" fill="#3C4875"></path>
                    </g>
                </g>
            </g>
        </g>
    </g>
</svg>