<?xml version="1.0" encoding="UTF-8"?>
<svg width="299px" height="224px" viewBox="0 0 299 224" version="1.1" xmlns="http://www.w3.org/2000/svg" xmlns:xlink="http://www.w3.org/1999/xlink">
    <!-- Generator: Sketch 61.1 (89650) - https://sketch.com -->
    <title>mi-afspraak-maken</title>
    <desc>Created with Sketch.</desc>
    <defs>
        <rect id="path-1" x="0" y="0" width="299" height="224"></rect>
        <polygon id="path-3" points="0 208 383 208 383 0 0 0"></polygon>
    </defs>
    <g id="Symbols" stroke="none" stroke-width="1" fill="none" fill-rule="evenodd">
        <g id="Afspraak-maken">
            <g id="Menu-Section-2-Copy-2">
                <g id="mi-afspraak-maken">
                    <mask id="mask-2" fill="white">
                        <use xlink:href="#path-1"></use>
                    </mask>
                    <use id="Mask" fill="#D8D8D8" xlink:href="#path-1"></use>
                    <g id="Group-76" mask="url(#mask-2)">
                        <g transform="translate(0.000000, 8.000000)">
                            <path d="M383,200.49981 C383,203.537416 297.262752,206 191.500377,206 C85.7372484,206 0,203.537416 0,200.49981 C0,197.462584 85.7372484,195 191.500377,195 C297.262752,195 383,197.462584 383,200.49981" id="Fill-1" stroke="none" fill="#C2D6FF" fill-rule="evenodd"></path>
                            <path d="M254.588316,46 C254.588316,46 249.79003,73.6532519 244.034607,74.591798 C238.278812,75.5307223 232,80.182597 232,80.182597 L236.756429,83.9352681 C236.756429,83.9352681 250.828288,85.7336752 253.44338,84.6559171 C256.058101,83.5781591 254.588316,46 254.588316,46" id="Fill-3" stroke="none" fill="#4B9296" fill-rule="evenodd"></path>
                            <path d="M91.9499319,68.5711847 C86.0323362,58.1932199 81.7025596,55 81.7025596,55 C81.7025596,55 78.8462614,71.411345 84.6521066,76.0412844 C90.4583218,80.6712238 92.5308864,90.9921941 92.5308864,90.9921941 C92.5308864,90.9921941 89.0266574,93.63077 89.5987311,96.1128979 C89.629814,96.2486901 91.3563961,98.5567746 93.1573553,97.8739886 C94.5183431,97.3587433 96.061758,95.88186 98,92.630498 C98,92.630498 97.8675276,78.948767 91.9499319,68.5711847" id="Fill-5" stroke="none" fill="#EA7373" fill-rule="evenodd"></path>
                            <path d="M281.436873,46.3999807 C277.015259,38.2723002 266.640826,35.5924626 257.520758,40.3572911 L256,51.5382913 L257.610675,105.698106 C266.137887,106.421609 277.453279,109.030685 285.980117,112 C286.126,104.971575 285.552544,53.9657353 281.436873,46.3999807" id="Fill-7" stroke="none" fill="#FFFFFF" fill-rule="evenodd"></path>
                            <mask id="mask-4" fill="white">
                                <use xlink:href="#path-3"></use>
                            </mask>
                            <g id="Clip-10" stroke="none" fill="none"></g>
                            <polygon id="Fill-9" stroke="none" fill="#542360" fill-rule="evenodd" mask="url(#mask-4)" points="275 184 278 184 278 132 275 132"></polygon>
                            <polygon id="Fill-11" stroke="none" fill="#542360" fill-rule="evenodd" mask="url(#mask-4)" points="252.489033 199 275.707409 186.003052 275.707409 199 277.370007 199 277.370007 186.159357 301.442129 199 304 199 277.754604 185 277.213998 185.393949 275.707409 185.393949 275.707409 185.502276 274.995829 185.008246 250 199"></polygon>
                            <path d="M279,185 L274,185 L274,181.772899 C274,180.241407 275.102993,179 276.463292,179 L276.536708,179 C277.89736,179 279,180.241407 279,181.772899 L279,185 Z" id="Fill-12" stroke="none" fill="#542360" fill-rule="evenodd" mask="url(#mask-4)"></path>
                            <path d="M254,189.533683 C254,189.919209 253.645979,200 253.645979,200 L235,200 C235,200 248.224684,193.221565 248.888702,191.68065 C249.552719,190.139736 248.660207,187.698865 248.660207,187.698865 L254,187 L254,189.533683 Z" id="Fill-13" stroke="none" fill="#432C47" fill-rule="evenodd" mask="url(#mask-4)"></path>
                            <path d="M251,57.0752649 C251,65.6920876 253.896201,104.925716 254.18405,108.807571 C255.122575,108.844297 256.061476,108.920427 257,109 L256.789011,49.6072753 L256.962323,40 C255.552465,41.4254254 251,49.3968663 251,57.0752649" id="Fill-14" stroke="none" fill="#7FD3D3" fill-rule="evenodd" mask="url(#mask-4)"></path>
                            <path d="M279,117.137314 L257.912841,106 L218.411045,122.153164 C215.341939,123.243303 214.064431,126.698683 215.746056,129.363258 L250.280563,190 L257.820945,189.056697 L225.020037,132.395114 L279,117.137314 Z" id="Fill-15" stroke="none" fill="#432C47" fill-rule="evenodd" mask="url(#mask-4)"></path>
                            <path d="M244.62468,124 C244.62468,124 243.410541,127.262423 244.367615,129.262315 C245.32397,131.261827 258.539646,138 258.539646,138 L263,131.99843 L244.62468,124 Z" id="Fill-16" stroke="none" fill="#1B2B80" fill-rule="evenodd" mask="url(#mask-4)"></path>
                            <path d="M301.022315,109.836218 C294.476748,116.238801 290.042213,118.510673 282.652462,115.412361 C275.26195,112.314793 285.397107,88.3577139 285.397107,88.3577139 C291.520391,85.259774 287.297568,87.9443082 293.301503,89.5968154 C299.305058,91.2489509 301.86726,87.1186123 304.822856,90.0098493 C307.779213,92.9010863 307.568262,103.434007 301.022315,109.836218 M316.858474,90.2165521 C314.747062,83.4013076 311.579754,76.5856912 301.444597,78.6508605 C291.30944,80.7160298 287.508519,75.5525489 282.230179,77.4113872 C276.95108,79.2702254 277.373362,103.020974 271.250078,109.01015 C265.126793,114.999699 236.304026,118.613652 244.433817,126.565019 C244.433817,126.565019 257.736282,134 260.059025,134 C262.381388,134 290.464875,130.282324 293.632183,130.282324 C296.799491,130.282324 318.970266,97.0317967 316.858474,90.2165521" id="Fill-17" stroke="none" fill="#757AD8" fill-rule="evenodd" mask="url(#mask-4)"></path>
                            <path d="M314.053397,85 C314.053397,85 314.577046,93.3075418 307.725129,106.29065 C300.873211,119.273757 295.474878,128.135556 287.584633,128.135556 C279.694014,128.135556 259.137888,132.463506 258.099934,135.76085 C257.061606,139.058565 264.329154,134.730615 269.935302,134.730615 C275.54145,134.730615 287.169003,133.905908 293.606038,131.020732 C300.042699,128.135556 325.572557,92.9758782 314.053397,85" id="Fill-18" stroke="none" fill="#1B2B80" fill-rule="evenodd" mask="url(#mask-4)"></path>
                            <path d="M256.922099,105 C256.937778,105.197253 259.03687,109.050534 259.03687,109.050534 L218,127.460908 C218,127.460908 244.074392,189.514003 241.236852,192.277064 C238.399312,195.040124 226.781077,200 226.781077,200 L246.325685,200 L246.608674,191.173896 L248.02515,191.173896 L235.562154,132.150038 L280.693188,122.220766 L285.981644,112.015416 C285.981644,112.015416 285.989292,111.71611 286,111.201654 C276.307621,107.960313 266.615243,105.367469 256.922099,105" id="Fill-19" stroke="none" fill="#18287D" fill-rule="evenodd" mask="url(#mask-4)"></path>
                            <polygon id="Fill-20" stroke="none" fill="#542360" fill-rule="evenodd" mask="url(#mask-4)" points="166 100 228 100 228 97 166 97"></polygon>
                            <polygon id="Fill-21" stroke="none" fill="#1E3340" fill-rule="evenodd" mask="url(#mask-4)" points="159 67.224464 168.119093 97 209 97 198.266234 66"></polygon>
                            <path d="M266.29626,21 C266.29626,21 270.503286,33.6413525 269.949814,39.8585089 C269.949814,39.8585089 266.654483,42.7514675 263.269497,44.5279045 C260.794213,45.8272178 257.729197,44.2958709 257.342683,41.7487244 C257.321564,41.6047293 257.34069,41.4581229 257.336706,41.307786 L257,29.7042428 L266.29626,21 Z" id="Fill-22" stroke="none" fill="#FC7575" fill-rule="evenodd" mask="url(#mask-4)"></path>
                            <polygon id="Fill-23" stroke="none" fill="#FFFFFF" fill-rule="evenodd" mask="url(#mask-4)" points="256.607509 42 259 45.2366852 258.413261 51 256 50.4188131"></polygon>
                            <polygon id="Fill-24" stroke="none" fill="#E3E4FF" fill-rule="evenodd" mask="url(#mask-4)" points="270 38 259.574972 45.6474477 259 52 269.178836 47.2505748"></polygon>
                            <path d="M265.732377,21 L257,29.8536449 L257.218216,38 C261.263631,37.8243159 265.043668,32.0411589 265.482346,25.1720236 C265.55758,23.9911834 265.747723,22.9101379 266,21.9030847 C265.833437,21.3274631 265.732377,21 265.732377,21" id="Fill-25" stroke="none" fill="#FD5E5A" fill-rule="evenodd" mask="url(#mask-4)"></path>
                            <path d="M249.115261,9.99466238 C248.982888,10.1269273 248.841516,10.3625243 248.704268,10.6875504 C248.076904,12.1751554 247.554914,15.5328816 248.580145,19.3877286 C249.830373,24.0846375 252.017709,34 255.871891,34 C259.725323,34 264.880731,29.0934211 265.298099,23.2493392 C265.715091,17.4048816 268.370794,14.482277 266.078835,9.99466238 C263.787626,5.50667202 249.115261,9.99466238 249.115261,9.99466238" id="Fill-26" stroke="none" fill="#FC7575" fill-rule="evenodd" mask="url(#mask-4)"></path>
                            <path d="M266.079066,9.98448946 C263.787828,5.51938818 249.1149,9.98448946 249.1149,9.98448946 C248.982901,10.1160798 248.841152,10.3504752 248.704277,10.6738437 C248.076905,12.1538618 247.554908,15.4944633 248.580153,19.3296504 C248.747027,19.9532094 248.930401,20.6687321 249.13215,21.4407042 C250.879267,20.2425587 252.152385,18.0186063 253.275505,15.3546485 C253.466004,15.1299729 253.555628,13.3695775 256.913362,12.0921788 C257.609733,13.6163095 258.418604,13.514626 260.24972,16.9385931 C260.373095,23.8736311 263.608204,24.8882229 265.008822,25 C265.153946,24.4041049 265.253696,23.7932563 265.297945,23.1715664 C265.714943,17.356916 268.37068,14.4492169 266.079066,9.98448946" id="Fill-27" stroke="none" fill="#FD5E5A" fill-rule="evenodd" mask="url(#mask-4)"></path>
                            <path d="M262.772457,16.0479725 C262.772457,16.0479725 261.403703,13.2972648 260.03457,11.9219109 C258.666195,10.5469379 259.086942,9.38297189 259.086942,9.38297189 C259.086942,9.38297189 254.171028,10.2292849 252.733665,13.6145369 C251.296303,17.0001698 249.594743,21.9729253 244.181134,19.7508775 C238.767146,17.5292107 239.714774,10.4406727 240.977772,10.4406727 C242.241529,10.4406727 243.399909,9.38297189 243.399909,9.38297189 C243.399909,9.38297189 247.926917,2.92974001 250.348675,2.92974001 C252.770054,2.92974001 250.664425,0.708073153 254.770687,0.0731479603 C258.876948,-0.561396354 262.140958,3.14112782 262.140958,3.14112782 C262.140958,3.14112782 263.930458,1.13122966 267.089471,3.14112782 C270.247725,5.15140687 268.78762,12.9799926 267.675105,15.7307003 C266.56259,18.481408 266.487538,22.9769221 266.487538,22.9769221 C266.487538,22.9769221 262.772457,23.7706739 262.772457,16.0479725" id="Fill-28" stroke="none" fill="#0F1D5B" fill-rule="evenodd" mask="url(#mask-4)"></path>
                            <path d="M264.732033,14.1579397 C264.267355,12.7540746 262.36601,12.5896003 261.610278,13.8685102 C260.985152,14.9272428 260.615812,16.2340041 261.63857,17.227248 C263.683697,19.213736 265.514119,17.018362 264.868065,14.6137254 C264.824271,14.4518857 264.778927,14.3002081 264.732033,14.1579397" id="Fill-29" stroke="none" fill="#FC7575" fill-rule="evenodd" mask="url(#mask-4)"></path>
                            <path d="M284.750014,48.1317387 C280.827239,42.4357464 273.906775,37.4017699 268.298466,38.0577158 L260.020221,62.7909331 C260.087901,73.719317 255.789085,126.498487 256.008094,130.939115 C263.384066,131.378056 279.855385,129.441328 287.134781,125.204046 C287.248848,116.946489 290.112698,55.9184873 284.750014,48.1317387" id="Fill-30" stroke="none" fill="#B4D2D9" fill-rule="evenodd" mask="url(#mask-4)"></path>
                            <polygon id="Fill-31" stroke="none" fill="#432C47" fill-rule="evenodd" mask="url(#mask-4)" points="122.332548 198 136 102.479868 132.735721 102 119 198"></polygon>
                            <polygon id="Fill-32" stroke="none" fill="#432C47" fill-rule="evenodd" mask="url(#mask-4)" points="267 198 253.263979 102 250 102.479868 263.667751 198"></polygon>
                            <polygon id="Fill-33" stroke="none" fill="#0F1D5B" fill-rule="evenodd" mask="url(#mask-4)" points="125 104 258 104 258 100 125 100"></polygon>
                            <path d="M261.005102,15.6482016 C261.05965,15.1183384 261.787396,13.5800034 262.83897,14.109174 C263.89141,14.6379983 264.73821,16.537887 263.007378,16.9226439 C261.27568,17.3074008 260.953151,16.1579785 261.005102,15.6482016" id="Fill-34" stroke="none" fill="#FD5E5A" fill-rule="evenodd" mask="url(#mask-4)"></path>
                            <path d="M254.738926,26 L252,26 L252,20.2248025 C252,20.1004523 252.117389,20 252.261074,20 C252.404289,20 252.521678,20.1004523 252.521678,20.2248025 L252.521678,25.5499899 L254.738926,25.5499899 C254.882611,25.5499899 255,25.6500371 255,25.7747924 C255,25.8995477 254.882611,26 254.738926,26" id="Fill-35" stroke="none" fill="#18287D" fill-rule="evenodd" mask="url(#mask-4)"></path>
                            <path d="M255,19.4997428 C255,20.3283045 254.552632,21 254,21 C253.447786,21 253,20.3283045 253,19.4997428 C253,18.6722098 253.447786,18 254,18 C254.552632,18 255,18.6722098 255,19.4997428" id="Fill-36" stroke="none" fill="#18287D" fill-rule="evenodd" mask="url(#mask-4)"></path>
                            <path d="M251,20.0001862 C251,20.5520387 250.552283,21 250,21 C249.447717,21 249,20.5520387 249,20.0001862 C249,19.4479613 249.447717,19 250,19 C250.552283,19 251,19.4479613 251,20.0001862" id="Fill-37" stroke="none" fill="#18287D" fill-rule="evenodd" mask="url(#mask-4)"></path>
                            <path d="M254.835303,29 C254.412347,29 254.141075,28.8827233 254.133642,28.8801627 C254.034998,28.8335593 253.978581,28.6758247 254.007634,28.5267963 C254.038038,28.3757193 254.145466,28.2953157 254.240733,28.3332129 C254.319446,28.3757193 256.137278,29.1290556 257.663568,26.1105894 C257.726065,25.9835823 257.842277,25.9661701 257.926733,26.0573284 C258.009162,26.1525837 258.024026,26.3328517 257.961191,26.4572982 C256.871708,28.6133454 255.603516,29 254.835303,29" id="Fill-38" stroke="none" fill="#FFFFFF" fill-rule="evenodd" mask="url(#mask-4)"></path>
                            <path d="M254,17.1998272 C254,17.1998272 254.911853,16 256.024708,16 C257.137563,16 258,17.6798445 258,17.6798445 C258,17.6798445 257.165609,16.3197235 256.208681,16.5599482 C255.252087,16.7993087 254,18 254,18 L254,17.1998272 Z" id="Fill-39" stroke="none" fill="#18287D" fill-rule="evenodd" mask="url(#mask-4)"></path>
                            <path d="M78.41874,129.079608 C77.4397842,129.085238 60.6661434,133.654362 61.593535,123.737703 C62.5205446,113.819918 61.4079039,103.931032 55.9207099,101.9182 C44.0697307,97.5705136 29,101.972997 29,101.972997 L45.0009418,130.446892 L55.7209464,146.718816 L71.2024267,145.44461 L102,149 C102,149 99.1521288,128.954627 78.41874,129.079608" id="Fill-40" stroke="none" fill="#749CFE" fill-rule="evenodd" mask="url(#mask-4)"></path>
                            <polygon id="Fill-41" stroke="none" fill="#18287D" fill-rule="evenodd" mask="url(#mask-4)" points="58 144 53.3495686 144.028453 47 206 47.8591358 205.994689"></polygon>
                            <polygon id="Fill-42" stroke="none" fill="#18287D" fill-rule="evenodd" mask="url(#mask-4)" points="88 144.028122 92.7430151 144 100 205.99468 99.1233697 206"></polygon>
                            <path d="M29,102.37628 C29.0235478,106.118466 43.9676667,140.712212 46.0463299,145.036755 C51.2640671,155.893669 72.7495376,147.852971 78.461019,149.06603 C84.1721206,150.279088 95.8051147,154.991127 101.096914,152.048845 C106.388712,149.106564 100.241217,141.035372 87.6545367,141.110491 C75.0678567,141.185981 65.5435303,147.310404 58.0203873,139.455272 C50.498004,131.600139 51.505622,115.962762 47.1207934,106.633886 C42.7355849,97.3042657 29,102.37628 29,102.37628" id="Fill-43" stroke="none" fill="#6265A8" fill-rule="evenodd" mask="url(#mask-4)"></path>
                            <path d="M98.9847658,125 L122.64492,132.03178 C124.760194,132.6601 126.147942,134.658957 125.987398,136.853016 C125.621192,141.861211 124.641383,150.824034 122.112154,157.224498 C118.452724,166.484432 111.1192,185.443788 110.984223,190.551645 C110.849245,195.660251 112.481006,204 112.481006,204 L104.397399,203.787188 C104.397399,203.787188 105.125299,198.655352 105.223807,194.922529 C105.322314,191.189331 105.841545,186.484617 105.919373,183.537474 C105.990809,180.859717 110.368365,153.265374 109.908915,141.568595 C109.862669,140.392136 94,134.132547 94,134.132547 L98.9847658,125 Z" id="Fill-44" stroke="none" fill="#EA7373" fill-rule="evenodd" mask="url(#mask-4)"></path>
                            <path d="M80.8513521,120 L106.935808,139.120438 C109.84321,141.593917 110.772574,148.675169 109.331441,152.226394 C107.095642,157.736641 103.594677,165.745731 100.365355,170.52991 C95.077702,178.362972 86.1678955,190.811756 86.1678955,190.811756 C86.1678955,190.811756 83.3918119,199.575306 85.213394,201.513129 C87.0353513,203.450953 89.3514433,205 89.3514433,205 C89.3514433,205 81.4539187,204.82965 80.1133393,203.402876 C78.7723847,201.977238 79.6582252,196.145975 79.7100024,194.160832 C79.7621548,192.176068 80.6404913,190.763679 80.6404913,190.763679 C80.6404913,190.763679 81.4325324,187.580788 82.7506,183.470059 C84.6618542,177.510087 85.5893415,168.175676 88.0573883,162.583661 C92.2280797,153.134926 94.3501948,153.438906 94.3501948,153.438906 L69,136.521658 L80.8513521,120 Z" id="Fill-45" stroke="none" fill="#F98A8A" fill-rule="evenodd" mask="url(#mask-4)"></path>
                            <path d="M77.1766169,53.3873126 C77.1766169,53.3873126 82.4470854,53.5617603 85.2643614,58.2661732 C95.8965093,76.0197311 83.3219498,108.327755 88.2435367,113.546808 C93.8659272,119.509061 122.701106,127.910555 125,133.531102 C125,133.531102 111.609103,131.336694 104.552042,138.002035 C97.49536,144.667755 95.180884,153 95.180884,153 C95.180884,153 67.4447964,137.264511 60.372913,134.459346 C51.2598063,130.84438 58.8755345,91.7718702 61.0440731,77.6563612 C63.2126117,63.5412307 59.9655044,56.2322109 65.2910795,54.1747871 C70.6166546,52.1181201 77.1766169,53.3873126 77.1766169,53.3873126" id="Fill-46" stroke="none" fill="#480736" fill-rule="evenodd" mask="url(#mask-4)"></path>
                            <path d="M111,204.723836 C111,204.723836 108.394977,208.044573 106.658791,207.999546 C104.922977,207.954519 103,204.517946 103,204.517946 L103.539163,200 C103.539163,200 104.778977,204.564062 106.750326,204.614173 C108.721674,204.665373 110.225302,200.172482 110.225302,200.172482 L111,204.723836 Z" id="Fill-47" stroke="none" fill="#0F1D5B" fill-rule="evenodd" mask="url(#mask-4)"></path>
                            <path d="M82.4316062,200.366358 L86.6854853,200.571102 L91,204 C91,204 83.4139026,203.956445 81.637867,203.252499 C79.8614402,202.548553 79.8113669,198.956233 80.3246178,197.297437 C80.8382598,195.638641 79.5500472,193.945597 79.0504883,193.444533 C78.5513205,192.944214 81.9179642,190 81.9179642,190 L82.4316062,200.366358 Z" id="Fill-48" stroke="none" fill="#0F1D5B" fill-rule="evenodd" mask="url(#mask-4)"></path>
                            <path d="M79,51.4268563 C79,51.4268563 82.6632198,54.3723185 87.4953008,52.2024832 C92.3273817,50.0326479 98.5972654,45.259471 94.8668102,37.0247714 C91.136355,28.7900717 84.2281047,24 84.2281047,24 L79,51.4268563 Z" id="Fill-49" stroke="none" fill="#C5C6FE" fill-rule="evenodd" mask="url(#mask-4)"></path>
                            <path d="M79.7917443,44.710679 C79.7917443,44.710679 78.5153139,51.3492735 79.86096,55.5346926 C81.2058326,59.7201117 72.3972648,62.0152695 70.5431347,57.6379986 C68.689778,53.259984 72.1741505,43 72.1741505,43 L79.7917443,44.710679 Z" id="Fill-50" stroke="none" fill="#F98A8A" fill-rule="evenodd" mask="url(#mask-4)"></path>
                            <path d="M72.8833092,42 L80,43.724924 C80,43.724924 79.6943642,45.4445982 79.5559971,47.6896243 C79.3692197,47.7526216 79.1781069,47.8073691 78.9822977,47.8542421 C76.5263728,48.4388413 73.8392341,47.2017708 72,45.2724808 C72.4598988,43.3454407 72.8833092,42 72.8833092,42" id="Fill-51" stroke="none" fill="#EA7373" fill-rule="evenodd" mask="url(#mask-4)"></path>
                            <path d="M83.3084158,23 C83.3084158,23 86.4365318,26.4008713 85.8788918,30.6307649 C85.3212518,34.8602749 85.990716,37.2709996 86,38.7805798 C86.0088597,40.2893928 83.8264359,44.9320712 79.4615885,45.8654406 C75.096741,46.7984264 70.0224392,42.7051047 70.0005928,38.9823687 C69.978376,35.2596327 70.5715628,28.7655606 73.3223646,25.8806703 C76.0727961,22.9953965 83.3084158,23 83.3084158,23" id="Fill-52" stroke="none" fill="#F98A8A" fill-rule="evenodd" mask="url(#mask-4)"></path>
                            <path d="M83,23.3932575 C83,23.3932575 73.1860181,30.4777812 70.9222459,34.7180461 C68.6584737,38.9583109 74.1366277,45.0617965 73.6537302,47.4309472 C73.170453,49.8000979 65.2231435,55.0984556 62.1678293,52.1094842 C59.1121355,49.1212646 61.4229826,44.4243096 61.4229826,44.4243096 C61.4229826,44.4243096 55.6479528,44.459642 56.0169595,39.7250993 C56.3859661,34.9905567 60.3474725,28.5792281 65.6874388,25.5684559 C77.1471448,19.1078875 83,23.3932575 83,23.3932575" id="Fill-53" stroke="none" fill="#E3E4FF" fill-rule="evenodd" mask="url(#mask-4)"></path>
                            <path d="M56.5584163,36.8441167 C60.6610737,23.9292144 76.3392853,19.1968095 83,23.6122592 C76.1562741,20.1071732 61.5556296,25.2605748 57.5703828,37.1584708 C57.083968,38.8060433 56.651972,40.6494369 57.4544632,42.0038351 C58.2528544,43.3808995 60.1381311,43.9720786 61.8135599,44.0731475 L62.3201023,44.1032453 C62.2969929,44.3373388 59.647989,48.7539032 62.5467231,52 C60.5164538,50.2227471 60.4366892,47.1999681 61.3401907,44.7126316 C59.6241342,44.6074753 57.7753852,44.1025021 56.6653903,42.4984041 C55.5826048,40.9002514 56.0265283,38.715007 56.5584163,36.8441167" id="Fill-54" stroke="none" fill="#C5C6FE" fill-rule="evenodd" mask="url(#mask-4)"></path>
                            <path d="M74,33.7254858 C74,33.7254858 73.8801229,31.4517751 71.442087,32.1244331 C69.0032493,32.7974634 70.0620969,36.5363551 71.650168,36.9651886 C73.2382391,37.3936498 74,33.7254858 74,33.7254858" id="Fill-55" stroke="none" fill="#F98A8A" fill-rule="evenodd" mask="url(#mask-4)"></path>
                            <path d="M77.4439057,41.2861717 C75.7358646,40.8040329 75.0187228,39.8892404 75.2468541,40.0526773 C75.1096074,39.8887864 74.9087047,40.1448375 75.0459514,40.3091824 C75.2751866,40.4217722 76.0191889,41.8314153 79.8514267,41.9998461 C80.0423947,42.0084719 80.0530653,41.6516348 79.8613615,41.6430089 C79.8613615,41.6430089 78.3928583,41.5413149 77.4439057,41.2861717" id="Fill-56" stroke="none" fill="#18287D" fill-rule="evenodd" mask="url(#mask-4)"></path>
                            <path d="M78.8383958,41.9999448 C78.919283,42.0022489 78.9897589,41.9322026 78.9993693,41.8372714 C79.0069775,41.7372711 78.9449106,41.6487915 78.8588178,41.6377315 C78.5148472,41.5976392 77.5566147,41.4151501 77.2638993,41.060771 C77.020437,40.7533967 76.3657316,41.6967179 78.8263829,41.9994839 C78.8307876,41.9994839 78.8331902,41.9999448 78.8383958,41.9999448" id="Fill-57" stroke="none" fill="#18287D" fill-rule="evenodd" mask="url(#mask-4)"></path>
                            <path d="M81,38 C80.8855148,37.2186821 80.4494966,35.8399219 79.8064307,36.0152449 C79.158493,36.2938071 78.5519649,36.5436577 78,37.028087 C78.6596297,36.9340112 79.2642092,36.5803106 79.8804807,36.4856239 C80.1625528,36.2327189 80.4645989,37.0842881 81,38" id="Fill-58" stroke="none" fill="#18287D" fill-rule="evenodd" mask="url(#mask-4)"></path>
                            <path d="M82.0002658,35.9704122 C81.9876735,36.5225142 82.4240256,36.9831075 82.9758988,36.9995791 C83.5283195,37.0154405 83.9865714,36.5810797 83.9997112,36.0295878 C84.0128511,35.4768758 83.5759514,35.0168925 83.0235307,35.0004209 C82.4716575,34.9845595 82.0128582,35.4189203 82.0002658,35.9704122" id="Fill-59" stroke="none" fill="#18287D" fill-rule="evenodd" mask="url(#mask-4)"></path>
                            <path d="M76.9821591,35.2296803 C76.8793605,35.7673182 76.3554724,36.0998527 75.8128936,35.9730284 C75.2708646,35.8462041 74.914093,35.3073526 75.017991,34.7697147 C75.1207896,34.2326836 75.644128,33.9001491 76.1872565,34.0269734 C76.7292855,34.1544045 77.0855074,34.6926492 76.9821591,35.2296803" id="Fill-60" stroke="none" fill="#18287D" fill-rule="evenodd" mask="url(#mask-4)"></path>
                            <path d="M84.2505041,32.048928 C85.1082238,32.2621785 84.9950682,33 84.9950682,33 C84.9950682,33 84.6258575,32.8314028 84.1538368,32.4917044 L82,32.4036499 C82.2062666,32.3168474 83.4487155,31.8498665 84.2505041,32.048928" id="Fill-61" stroke="none" fill="#C5C6FE" fill-rule="evenodd" mask="url(#mask-4)"></path>
                            <path d="M75.9323406,31.0121304 C75.0631272,30.907067 75,31.5190276 75,31.5190276 C75,31.5190276 75.3920363,31.5040185 75.9219812,31.3880394 L78,32 C77.8232438,31.8673062 76.7449013,31.1107127 75.9323406,31.0121304" id="Fill-62" stroke="none" fill="#C5C6FE" fill-rule="evenodd" mask="url(#mask-4)"></path>
                            <path d="M96,107 L94.748056,107 C94.748056,100.063786 91.9451435,94.420941 88.5,94.420941 C85.0548565,94.420941 82.251944,100.063786 82.251944,107 L81,107 C81,99.1495215 84.2945709,93 88.5,93 C92.7054291,93 96,99.1495215 96,107" id="Fill-63" stroke="none" fill="#5B6D7E" fill-rule="evenodd" mask="url(#mask-4)"></path>
                            <polygon id="Fill-64" stroke="none" fill="#75B8BF" fill-rule="evenodd" mask="url(#mask-4)" points="75.392604 104 99.7385203 104.06306 102 125 71 125"></polygon>
                            <polygon id="Fill-65" stroke="none" fill="#5B6D7E" fill-rule="evenodd" mask="url(#mask-4)" points="77.1494303 104 78 125 70 125 74.1504421 104"></polygon>
                            <polygon id="Fill-66" stroke="none" fill="#5B6D7E" fill-rule="evenodd" mask="url(#mask-4)" points="81 107 82.9659255 122.575084 100 123 85.5692784 120.876141"></polygon>
                            <polygon id="Fill-67" stroke="none" fill="#1E3340" fill-rule="evenodd" mask="url(#mask-4)" points="237.130179 80.549356 213 64.1626601 238.053697 62 257 81"></polygon>
                            <path d="M250.052423,73 C250.052423,73 252.606981,73.6174769 253.55104,74.710342 C254.75619,76.1044352 257.617294,78.371359 258.819439,78.371359 C260.021208,78.371359 265.140467,78.912108 265.140467,78.912108 L266,85 C266,85 246.898671,80.2725058 245.999317,79.2316046 C245.099587,78.1907033 250.478809,80.0045671 250.478809,79.540546 C250.478809,79.0769309 244,78.5560743 244.333971,77.3868872 C244.667942,76.2177002 250.311636,78.9612301 250.81278,78.3815082 C251.313548,77.8017863 244,76.8355831 244,75.5990054 C244,74.3620217 251.280489,77.3868872 251.280489,77.3868872 C251.280489,77.3868872 251.413852,76.7584492 249.443462,75.7536791 C247.473071,74.748909 245.563164,73.9394093 245.999317,73.4347914 C246.43547,72.9301736 251.472832,76.132041 252.137017,75.3631381 L250.052423,73 Z" id="Fill-68" stroke="none" fill="#F98A8A" fill-rule="evenodd" mask="url(#mask-4)"></path>
                            <path d="M273.776787,43.1230587 C273.776787,43.1230587 272.615577,47.8309905 273.177514,55.155276 C273.739451,62.4799377 274.698744,73.7116373 273.121892,77.37378 C271.545802,81.0359228 260,77.37378 260,77.37378 L260,86.0414155 C260,86.0414155 276.741146,92.7555319 281.590947,90.5582463 C286.439986,88.3605844 288.413051,69.4261591 287.928833,60.1603925 C287.20841,46.3762904 276.869535,36.4664982 273.776787,43.1230587" id="Fill-69" stroke="none" fill="#CAE9EF" fill-rule="evenodd" mask="url(#mask-4)"></path>
                            <path d="M232.763539,75.7627147 C232.763539,75.7627147 232.252085,76.2938092 231.298868,77.9062702 C230.375736,79.468244 231.859449,81.0161283 232.145833,81.3425342 C232.692324,81.9644276 233.723611,82.8023593 234.385493,83.2207382 C235.046995,83.6387257 235.483807,83.8481108 236.170443,83.991745 C237.177738,84.2026956 240.241133,80.3038275 239.984835,79.9433721 C239.812319,79.7015029 239.583821,79.5148175 239.324856,79.5973974 C239.052182,79.6846738 236.051624,81.8442757 236.051624,81.8442757 C236.051624,81.8442757 238.967638,78.7645535 238.865956,77.8706552 C238.764275,76.9767569 238.236064,77.0996484 237.989286,77.3329073 C237.742508,77.5653835 234.219832,80.4764235 234.219832,80.4764235 C234.219832,80.4764235 236.907349,76.8147281 236.840703,76.2315808 C236.774439,75.6488248 236.033344,75.2558853 234.838681,76.7333223 C234.16842,77.5618611 232.557891,78.9238427 232.557891,78.9238427 C232.557891,78.9238427 234.197363,76.1705264 234.097586,75.2961968 C233.997809,74.4214759 232.763539,75.7627147 232.763539,75.7627147" id="Fill-70" stroke="none" fill="#FC7575" fill-rule="evenodd" mask="url(#mask-4)"></path>
                            <path d="M63.8168088,55 C63.8168088,55 57.4738705,56.7380648 49.3595212,67.38823 C43.2925407,75.3507204 37.1400207,86.9651802 37.0005542,92.3228327 C36.8610876,97.6804852 63.0845165,100.798158 71.9252075,97.2320374 C71.9252075,97.2320374 75.8380808,100.891161 79.684754,100.993577 C83.531799,101.096746 82.7545055,99.9648957 83.8066411,97.0290874 C84.8591486,94.0932791 81.4044694,92.122895 78.5307148,91.3159902 C77.6678818,91.0742576 77.8017697,90.9684525 73.940592,91.6559972 C70.0794143,92.3431654 53.1210268,93.4215487 50.4153759,90.5339363 C47.7093531,87.6459474 57.8945016,76.1516008 60.0359638,74.0949912 C62.177798,72.0380051 68.3120943,63.2746343 63.8168088,55" id="Fill-71" stroke="none" fill="#F98A8A" fill-rule="evenodd" mask="url(#mask-4)"></path>
                            <path d="M91.0968742,92 C91.0968742,92 88.6076677,92.3006052 87.7897703,93.3675368 C87.213296,94.1201337 86.6526058,95.9692891 87.2674638,97.1334116 C87.8816044,98.2978954 89.4596443,97.8950411 89.9833857,98.4229067 C90.5078445,98.9511336 90.8016419,99.1195014 91.761954,99.3131605 C92.7226248,99.5064583 93.0587519,100 93.6205184,100 C94.1826435,100 94.7203752,98.7068919 94.950678,97.1334116 C95.1813394,95.5599314 94.5280976,94.2827206 94.5280976,94.2827206 C94.5280976,94.2827206 93.3134481,92 91.0968742,92" id="Fill-72" stroke="none" fill="#F98A8A" fill-rule="evenodd" mask="url(#mask-4)"></path>
                            <path d="M269.425828,37 L261,63 C261,63 267.139401,60.6685039 268.96815,57.1047105 C270.796507,53.5412952 268.96815,52.4073094 268.96815,52.4073094 C268.96815,52.4073094 275,41.7170635 275,39.9353558 C275,38.1536481 269.425828,37 269.425828,37" id="Fill-73" stroke="none" fill="#4B9296" fill-rule="evenodd" mask="url(#mask-4)"></path>
                            <path d="M256.864026,63 C256.864026,63 253.21875,54.193734 254.153222,53.0359335 C255.087693,51.8785166 255.299243,51.9602302 255.299243,51.9602302 C255.299243,51.9602302 254.179239,45.7150895 254.534196,43.4144501 C254.888843,41.1138107 256.935575,39 256.935575,39 L257,41.6113811 L256.864026,63 Z" id="Fill-74" stroke="none" fill="#4B9296" fill-rule="evenodd" mask="url(#mask-4)"></path>
                            <path d="M73,34.6757435 C73,34.6757435 71.0053847,32.0284649 70.271826,33.388565 C69.5382673,34.7494018 70.3889979,36.2708135 71.6356886,35.9588707 C72.8823792,35.6472962 73,34.6757435 73,34.6757435" id="Fill-75" stroke="none" fill="#EA7373" fill-rule="evenodd" mask="url(#mask-4)"></path>
                        </g>
                    </g>
                </g>
            </g>
        </g>
    </g>
</svg>