<?xml version="1.0" encoding="UTF-8"?>
<svg width="299px" height="224px" viewBox="0 0 299 224" version="1.1" xmlns="http://www.w3.org/2000/svg" xmlns:xlink="http://www.w3.org/1999/xlink">
    <!-- Generator: Sketch 61.1 (89650) - https://sketch.com -->
    <title>mi-afwezigheid-huisartsen</title>
    <desc>Created with Sketch.</desc>
    <defs>
        <linearGradient x1="23.9173266%" y1="68.6503384%" x2="83.9996625%" y2="28.9398055%" id="linearGradient-1">
            <stop stop-color="#EEEEEE" offset="0%"></stop>
            <stop stop-color="#D8D8D8" offset="100%"></stop>
        </linearGradient>
        <rect id="path-2" x="0" y="0" width="299" height="224"></rect>
        <polygon id="path-4" points="0 191 342.828217 191 342.828217 0.27431454 0 0.27431454"></polygon>
        <path d="M0.0584937136,6.32912 C0.0374843206,10.04136 72.8996202,13.44896 162.800652,13.94064 L162.800652,13.94064 C170.044213,13.9804 177.170209,13.99944 184.163307,14 L184.163307,14 L184.693767,14 C264.237767,13.99328 325.600735,11.51416 325.62005,8.1088 L325.62005,8.1088 C325.640491,4.396 252.778355,0.98896 162.876756,0.49728 L162.876756,0.49728 C155.557091,0.45752 148.359533,0.43792 141.295443,0.43792 L141.295443,0.43792 C61.5975296,0.43792 0.0772404181,2.91928 0.0584937136,6.32912" id="path-6"></path>
        <linearGradient x1="0.000238753382%" y1="49.9975615%" x2="99.9996765%" y2="50.0024374%" id="linearGradient-8">
            <stop stop-color="#181D66" offset="0%"></stop>
            <stop stop-color="#2D31BA" offset="100%"></stop>
        </linearGradient>
        <polygon id="path-9" points="5.66942149e-05 0.274900302 342.828217 0.274900302 342.828217 187.575154 5.66942149e-05 187.575154"></polygon>
    </defs>
    <g id="Symbols" stroke="none" stroke-width="1" fill="none" fill-rule="evenodd">
        <g id="Afwezigheid-huisartsen">
            <g id="Menu-Section-2-Copy-11">
                <g id="mi-afwezigheid-huisartsen">
                    <mask id="mask-3" fill="white">
                        <use xlink:href="#path-2"></use>
                    </mask>
                    <use id="Mask" fill="url(#linearGradient-1)" xlink:href="#path-2"></use>
                    <g id="group" mask="url(#mask-3)">
                        <g transform="translate(-5.000000, 34.000000)">
                            <polygon id="Fill-1" fill="#FFDFBB" points="188 179 261 179 261 148 188 148"></polygon>
                            <polygon id="Fill-2" fill="#C19549" points="188 179 206 179 206 148 188 148"></polygon>
                            <polygon id="Fill-3" fill="#DCB874" points="195 152 231 152 206.276361 154"></polygon>
                            <polygon id="Fill-4" fill="#FFF7CF" points="187 155 197 155 187 156"></polygon>
                            <polygon id="Fill-5" fill="#FFF7CF" points="193.694897 158.750705 187.701064 158 185 160 198 160"></polygon>
                            <polygon id="Fill-6" fill="#FFF7CF" points="196 167 205 167 205 171"></polygon>
                            <polygon id="Fill-7" fill="#FFF7CF" points="193 174 221 174 205.923033 176"></polygon>
                            <polygon id="Fill-8" fill="#DCB874" points="206 159 249 159.211062 206 161"></polygon>
                            <polygon id="Fill-9" fill="#DCB874" points="206 167 233 167 206 168"></polygon>
                            <polygon id="Fill-10" fill="#DCB874" points="206 164 206 166 222 164.2227"></polygon>
                            <polygon id="Fill-11" fill="#FFF7CF" points="243 162 260.616688 162 265 164"></polygon>
                            <polygon id="Fill-12" fill="#FFF7CF" points="235 175 255 175 244.13803 177"></polygon>
                            <polygon id="Fill-13" fill="#DCB874" points="262 170 242 171.444842 262 172"></polygon>
                            <g id="Group-33" stroke-width="1" fill="none" transform="translate(0.000000, 1.000000)">
                                <path d="M233.554086,154.172593 C234.317757,154.172593 260.848949,153.293539 260.848949,153.293539 L260.848949,154.875949 L233.554086,154.172593 Z" id="Fill-14" fill="#DCB874"></path>
                                <path d="M219.313576,147.490937 C219.313576,147.490937 201.263839,148.150652 205.58734,163.711201 L179.902593,160.546382 C179.902593,160.546382 188.04048,148.941857 192.109424,147.359447 L219.313576,147.490937 Z" id="Fill-16" fill="#FFEBFB"></path>
                                <mask id="mask-5" fill="white">
                                    <use xlink:href="#path-4"></use>
                                </mask>
                                <g id="Clip-19"></g>
                                <polygon id="Fill-18" fill="#F2C86C" mask="url(#mask-5)" points="165.22962 149.359166 238.213783 149.359166 238.213783 119.615875 165.22962 119.615875"></polygon>
                                <polygon id="Fill-20" fill="#936F33" mask="url(#mask-5)" points="165.229053 149.359166 183.539017 149.359166 183.539017 119.615875 165.229053 119.615875"></polygon>
                                <polygon id="Fill-21" fill="#936F33" mask="url(#mask-5)" points="172.095686 123.427771 208.630005 123.427771 183.539413 124.784041"></polygon>
                                <polygon id="Fill-22" fill="#FFF7CF" mask="url(#mask-5)" points="165.22928 126.733147 174.384261 126.733147 165.22928 127.834373"></polygon>
                                <polygon id="Fill-23" fill="#FFF7CF" mask="url(#mask-5)" points="171.248618 130.461388 165.229393 129.953566 162.517142 131.309269 175.570985 131.309269"></polygon>
                                <polygon id="Fill-24" fill="#FFF7CF" mask="url(#mask-5)" points="172.773919 138.511783 181.84386 138.511783 181.84386 142.240534"></polygon>
                                <polygon id="Fill-25" fill="#FFF7CF" mask="url(#mask-5)" points="170.824488 143.850148 198.373341 143.850148 183.5393 145.630359"></polygon>
                                <polygon id="Fill-26" fill="#936F33" mask="url(#mask-5)" points="183.539187 130.461388 226.515669 130.630851 183.539187 132.072136"></polygon>
                                <polygon id="Fill-27" fill="#936F33" mask="url(#mask-5)" points="183.539187 137.240471 210.495018 137.240471 183.539187 138.342264"></polygon>
                                <polygon id="Fill-28" fill="#936F33" mask="url(#mask-5)" points="183.539187 134.910271 183.539187 136.435437 199.560405 135.079734"></polygon>
                                <polygon id="Fill-29" fill="#FFF7CF" mask="url(#mask-5)" points="220.497295 132.580128 238.21367 132.580128 242.621078 134.486727"></polygon>
                                <polygon id="Fill-30" fill="#FFF7CF" mask="url(#mask-5)" points="212.783763 145.12146 232.449853 145.12146 221.768663 147.325045"></polygon>
                                <polygon id="Fill-31" fill="#936F33" mask="url(#mask-5)" points="238.21367 140.715198 218.802138 141.816423 238.21367 142.240364"></polygon>
                                <path d="M210.919034,126.055126 C211.682138,126.055126 238.213897,125.207811 238.213897,125.207811 L238.213897,126.732977 L210.919034,126.055126 Z" id="Fill-32" fill="#936F33" mask="url(#mask-5)"></path>
                            </g>
                            <g id="Group-36" stroke-width="1" fill="none" transform="translate(3.000000, 178.000000)">
                                <mask id="mask-7" fill="white">
                                    <use xlink:href="#path-6"></use>
                                </mask>
                                <g id="Clip-35"></g>
                                <path d="M0.0584937136,6.32912 C0.0374843206,10.04136 72.8996202,13.44896 162.800652,13.94064 L162.800652,13.94064 C170.044213,13.9804 177.170209,13.99944 184.163307,14 L184.163307,14 L184.693767,14 C264.237767,13.99328 325.600735,11.51416 325.62005,8.1088 L325.62005,8.1088 C325.640491,4.396 252.778355,0.98896 162.876756,0.49728 L162.876756,0.49728 C155.557091,0.45752 148.359533,0.43792 141.295443,0.43792 L141.295443,0.43792 C61.5975296,0.43792 0.0772404181,2.91928 0.0584937136,6.32912" id="Fill-34" fill="url(#linearGradient-8)" mask="url(#mask-7)"></path>
                            </g>
                            <g id="Group-151" stroke-width="1" fill="none">
                                <mask id="mask-10" fill="white">
                                    <use xlink:href="#path-9"></use>
                                </mask>
                                <g id="Clip-38"></g>
                                <polygon id="Fill-37" fill="#EDD7B2" mask="url(#mask-10)" points="259.305732 133.347662 339.835329 133.347662 339.835329 87.8652931 259.305732 87.8652931"></polygon>
                                <polygon id="Fill-40" fill="#DCCAA8" mask="url(#mask-10)" points="332.259054 93.6961897 291.9472 93.6961897 319.632686 95.7687335"></polygon>
                                <polygon id="Fill-44" fill="#FFF7CF" mask="url(#mask-10)" points="333.662009 124.924921 303.265406 124.924921 319.633026 127.645525"></polygon>
                                <polygon id="Fill-45" fill="#DCCAA8" mask="url(#mask-10)" points="319.632969 104.451153 272.212794 104.71015 319.632969 106.913328"></polygon>
                                <polygon id="Fill-46" fill="#DCCAA8" mask="url(#mask-10)" points="319.632969 114.817791 289.89005 114.817791 319.632969 116.501839"></polygon>
                                <polygon id="Fill-47" fill="#DCCAA8" mask="url(#mask-10)" points="319.632969 111.253515 319.632969 113.586192 301.955146 111.51308"></polygon>
                                <polygon id="Fill-48" fill="#FFF7CF" mask="url(#mask-10)" points="278.853557 107.690376 259.305959 107.690376 254.442162 110.606364"></polygon>
                                <polygon id="Fill-49" fill="#FFF7CF" mask="url(#mask-10)" points="287.36489 126.868421 265.666313 126.868421 277.450772 130.237653"></polygon>
                                <polygon id="Fill-50" fill="#DCCAA8" mask="url(#mask-10)" points="259.305676 120.130353 280.724183 121.814969 259.305676 122.461894"></polygon>
                                <path d="M289.422833,97.7130852 C288.580924,97.7130852 259.305732,96.4169644 259.305732,96.4169644 L259.305732,98.7496411 L289.422833,97.7130852 Z" id="Fill-51" fill="#DCCAA8" mask="url(#mask-10)"></path>
                                <polygon id="Fill-52" fill="#FFEFDD" mask="url(#mask-10)" points="242.13759 87.8652931 322.667187 87.8652931 322.667187 37.2336556 242.13759 37.2336556"></polygon>
                                <polygon id="Fill-53" fill="#C1AB85" mask="url(#mask-10)" points="302.46477 87.8652931 322.667187 87.8652931 322.667187 37.2336556 302.46477 37.2336556"></polygon>
                                <polygon id="Fill-54" fill="#DCCAA8" mask="url(#mask-10)" points="315.091366 43.7254489 274.779511 43.7254489 302.464997 46.0331347"></polygon>
                                <polygon id="Fill-58" fill="#FFF7CF" mask="url(#mask-10)" points="316.494321 78.4884097 286.096583 78.4884097 302.46477 81.5179927"></polygon>
                                <polygon id="Fill-59" fill="#DCCAA8" mask="url(#mask-10)" points="302.464714 55.6978683 255.043971 55.9864 302.464714 58.4383517"></polygon>
                                <polygon id="Fill-60" fill="#DCCAA8" mask="url(#mask-10)" points="302.464714 67.2376036 272.721795 67.2376036 302.464714 69.1124918"></polygon>
                                <polygon id="Fill-61" fill="#DCCAA8" mask="url(#mask-10)" points="302.464714 63.27069 302.464714 65.8669076 284.78689 63.5592218"></polygon>
                                <polygon id="Fill-62" fill="#FFF7CF" mask="url(#mask-10)" points="261.685302 59.3037196 242.137703 59.3037196 237.273907 62.5497015"></polygon>
                                <polygon id="Fill-63" fill="#FFF7CF" mask="url(#mask-10)" points="270.196634 80.6527384 248.498057 80.6527384 260.282517 84.4036508"></polygon>
                                <polygon id="Fill-64" fill="#DCCAA8" mask="url(#mask-10)" points="242.13742 73.1514816 263.55536 75.0275057 242.13742 75.7482671"></polygon>
                                <path d="M272.254011,48.1971227 C271.412668,48.1971227 242.137477,46.754464 242.137477,46.754464 L242.137477,49.3506816 L272.254011,48.1971227 Z" id="Fill-65" fill="#DCCAA8" mask="url(#mask-10)"></path>
                                <polygon id="Fill-66" fill="#542360" mask="url(#mask-10)" points="207.697329 163.532851 203.74234 163.5107 204.08534 101.551352 208.039762 101.573503"></polygon>
                                <polygon id="Fill-67" fill="#542360" mask="url(#mask-10)" points="175.562707 178.959131 204.867947 163.777137 204.783473 179.121004 206.876056 179.1335 206.959397 163.973089 237.17061 179.301053 240.390274 179.319228 207.452069 162.607107 206.768337 163.068303 204.871916 163.05808 204.871349 163.185874 203.979549 162.597451 172.430919 178.941524"></polygon>
                                <path d="M209.245931,164.471317 L202.57529,164.434399 L202.5957,160.940779 C202.604771,159.180054 204.037434,157.760683 205.795521,157.770289 L206.099969,157.771474 C207.858057,157.781698 209.274845,159.216973 209.264695,160.978266 L209.245931,164.471317 Z" id="Fill-68" fill="#542360" mask="url(#mask-10)"></path>
                                <path d="M166.050325,91.1197946 C166.050325,91.1197946 164.437375,95.1728701 165.67671,97.6691239 C166.915479,100.165946 184.1766,108.649801 184.1766,108.649801 L190.059191,101.211589 L166.050325,91.1197946 Z" id="Fill-69" fill="#1B2B80" mask="url(#mask-10)"></path>
                                <path d="M246.753803,47.6036447 C248.324233,38.7057353 251.185023,-2.16182961 238.615916,0.388949849 C226.046241,2.93972931 217.738838,4.38068399 211.187254,6.70256918 C204.635104,9.02502236 208.429648,66.5922127 200.802575,74.1485631 C193.174935,81.7054816 157.446241,86.0930949 167.460707,96.2377112 C167.460707,96.2377112 183.887289,105.762666 186.763954,105.779176 C189.641185,105.794473 224.455401,101.271113 228.379208,101.292696 C232.302448,101.314847 244.810325,58.618968 246.753803,47.6036447" id="Fill-70" fill="#3A0027" mask="url(#mask-10)"></path>
                                <path d="M242.638483,1.32025982 C242.638483,1.32025982 235.739364,93.7833172 221.316356,96.8810574 C211.597834,98.9689366 184.949285,102.886266 183.618105,107.071112 C182.287492,111.257094 191.472521,105.804526 198.53492,105.844284 C205.596184,105.883474 220.019193,104.343692 228.379321,101.293094 C247.818067,94.1990755 257.092674,11.5421208 242.638483,1.32025982" id="Fill-71" fill="#1E3340" mask="url(#mask-10)"></path>
                                <path d="M173.943237,92.3378187 C173.917158,87.4611782 174.075902,62.8513535 179.73285,57.246568 C185.325735,51.7053958 209.972411,47.1712447 212.764601,46.671994 L213.614447,51.4475347 C203.640801,53.2292749 186.545794,57.316429 183.136204,60.6941813 C180.035598,63.7663625 178.72426,81.0333958 178.783789,92.3111239 L173.943237,92.3378187 Z" id="Fill-72" fill="#09133F" mask="url(#mask-10)"></path>
                                <path d="M199.81774,104.130531 C199.79166,99.2521861 199.950404,74.6417934 205.607353,69.0375758 C211.200237,63.4964036 235.846913,58.9622526 238.639103,58.4630018 L239.48895,63.2385426 C229.515303,65.0202828 212.420297,69.1068689 209.010707,72.4851891 C205.912368,75.5556665 204.600464,92.8244036 204.658292,104.103268 L199.81774,104.130531 Z" id="Fill-73" fill="#1E3340" mask="url(#mask-10)"></path>
                                <polygon id="Fill-74" fill="#542360" mask="url(#mask-10)" points="36.2933686 187.575154 116.910274 187.575154 116.910274 67.1614381 36.2933686 67.1614381"></polygon>
                                <polygon id="Fill-75" fill="#2A1230" mask="url(#mask-10)" points="36.2933686 73.060435 116.910274 73.060435 116.910274 67.1614381 36.2933686 67.1614381"></polygon>
                                <polygon id="Fill-76" fill="#542360" mask="url(#mask-10)" points="216.2272 187.575154 223.848036 187.575154 223.848036 67.1614381 216.2272 67.1614381"></polygon>
                                <polygon id="Fill-77" fill="#2A1230" mask="url(#mask-10)" points="215.972643 74.4497039 223.848036 74.4497039 223.848036 67.1614381 215.972643 67.1614381"></polygon>
                                <polygon id="Fill-78" fill="#FFEFDD" mask="url(#mask-10)" points="27.968957 183.317039 108.498554 183.317039 108.498554 150.428399 27.968957 150.428399"></polygon>
                                <polygon id="Fill-79" fill="#C1AB85" mask="url(#mask-10)" points="27.968957 183.317039 48.1719405 183.317039 48.1719405 150.428399 27.968957 150.428399"></polygon>
                                <polygon id="Fill-80" fill="#DCCAA8" mask="url(#mask-10)" points="35.5446081 154.644881 75.8564626 154.644881 48.1715436 156.143769"></polygon>
                                <polygon id="Fill-81" fill="#FFF7CF" mask="url(#mask-10)" points="27.9689003 158.29901 38.0701086 158.29901 27.9689003 159.517318"></polygon>
                                <polygon id="Fill-82" fill="#FFF7CF" mask="url(#mask-10)" points="34.609437 162.421265 27.9688436 161.860105 24.975956 163.358425 39.3791213 163.358425"></polygon>
                                <polygon id="Fill-83" fill="#FFF7CF" mask="url(#mask-10)" points="36.2931418 171.323662 46.3008046 171.323662 46.3008046 175.446598"></polygon>
                                <polygon id="Fill-84" fill="#FFF7CF" mask="url(#mask-10)" points="34.1421633 177.22635 64.5393336 177.22635 48.1717137 179.194387"></polygon>
                                <polygon id="Fill-85" fill="#DCCAA8" mask="url(#mask-10)" points="48.1717704 162.421265 95.5913787 162.608697 48.1717704 164.202437"></polygon>
                                <polygon id="Fill-86" fill="#DCCAA8" mask="url(#mask-10)" points="48.1717704 169.918149 77.9141225 169.918149 48.1717704 171.136457"></polygon>
                                <polygon id="Fill-87" fill="#DCCAA8" mask="url(#mask-10)" points="48.1717704 167.341129 48.1717704 169.028017 65.8490266 167.528561"></polygon>
                                <polygon id="Fill-88" fill="#FFF7CF" mask="url(#mask-10)" points="88.9506152 164.764166 108.498214 164.764166 113.36201 166.87306"></polygon>
                                <polygon id="Fill-89" fill="#FFF7CF" mask="url(#mask-10)" points="80.4393395 178.631863 102.138483 178.631863 90.3528899 181.067912"></polygon>
                                <polygon id="Fill-90" fill="#DCCAA8" mask="url(#mask-10)" points="108.498497 173.75971 87.0799896 174.978018 108.498497 175.446598"></polygon>
                                <path d="M78.3819064,157.54968 C79.2232486,157.54968 108.49844,156.61252 108.49844,156.61252 L108.49844,158.29884 L78.3819064,157.54968 Z" id="Fill-91" fill="#DCCAA8" mask="url(#mask-10)"></path>
                                <path d="M62.6686512,150.428342 C62.6686512,150.428342 42.7531074,151.130928 47.5227917,167.715822 L19.1836215,164.342614 C19.1836215,164.342614 28.1622843,151.974372 32.6518992,150.287484 L62.6686512,150.428342 Z" id="Fill-92" fill="#FFF5FD" mask="url(#mask-10)"></path>
                                <polygon id="Fill-93" fill="#FFEFDD" mask="url(#mask-10)" points="2.9928876 152.498671 83.5224843 152.498671 83.5224843 119.609462 2.9928876 119.609462"></polygon>
                                <polygon id="Fill-94" fill="#E1CFAD" mask="url(#mask-10)" points="2.9928876 152.498671 23.1958711 152.498671 23.1958711 119.609462 2.9928876 119.609462"></polygon>
                                <polygon id="Fill-95" fill="#DCCAA8" mask="url(#mask-10)" points="10.569219 123.826683 50.8810736 123.826683 23.1955876 125.325571"></polygon>
                                <polygon id="Fill-96" fill="#FFF7CF" mask="url(#mask-10)" points="2.99300099 127.480812 13.0942093 127.480812 2.99300099 128.69912"></polygon>
                                <polygon id="Fill-97" fill="#FFF7CF" mask="url(#mask-10)" points="9.63353769 131.603067 2.9929443 131.041907 5.66942149e-05 132.540227 14.4037889 132.540227"></polygon>
                                <polygon id="Fill-98" fill="#FFF7CF" mask="url(#mask-10)" points="11.3172425 140.504839 21.3243383 140.504839 21.3243383 144.628343"></polygon>
                                <polygon id="Fill-99" fill="#FFF7CF" mask="url(#mask-10)" points="9.16626397 146.408152 39.5628673 146.408152 23.1958144 148.376189"></polygon>
                                <polygon id="Fill-100" fill="#DCCAA8" mask="url(#mask-10)" points="23.1958711 131.603067 70.6160463 131.790499 23.1958711 133.383671"></polygon>
                                <polygon id="Fill-101" fill="#DCCAA8" mask="url(#mask-10)" points="23.1958711 139.099326 52.9382231 139.099326 23.1958711 140.317634"></polygon>
                                <polygon id="Fill-102" fill="#DCCAA8" mask="url(#mask-10)" points="23.1958711 136.522931 23.1958711 138.209251 40.8731273 136.710363"></polygon>
                                <polygon id="Fill-103" fill="#FFF7CF" mask="url(#mask-10)" points="63.9747159 133.945967 83.5223142 133.945967 88.3866779 136.054294"></polygon>
                                <polygon id="Fill-104" fill="#FFF7CF" mask="url(#mask-10)" points="55.4639504 147.813665 77.1625273 147.813665 65.3775008 150.249714"></polygon>
                                <polygon id="Fill-105" fill="#DCCAA8" mask="url(#mask-10)" points="83.5225977 142.940944 62.1040902 144.15982 83.5225977 144.6284"></polygon>
                                <path d="M53.4060071,126.730857 C54.2473493,126.730857 83.522541,125.794265 83.522541,125.794265 L83.522541,127.480585 L53.4060071,126.730857 Z" id="Fill-106" fill="#DCCAA8" mask="url(#mask-10)"></path>
                                <polygon id="Fill-107" fill="#FFEFDD" mask="url(#mask-10)" points="19.354838 119.609462 99.8844347 119.609462 99.8844347 86.7208218 19.354838 86.7208218"></polygon>
                                <polygon id="Fill-108" fill="#C1AB85" mask="url(#mask-10)" points="19.3542711 119.609462 39.5572545 119.609462 39.5572545 86.7208218 19.3542711 86.7208218"></polygon>
                                <polygon id="Fill-109" fill="#DCCAA8" mask="url(#mask-10)" points="26.9308293 90.9373039 67.2426838 90.9373039 39.5571979 92.4361921"></polygon>
                                <polygon id="Fill-110" fill="#FFF7CF" mask="url(#mask-10)" points="19.3546112 94.5914332 29.4558195 94.5914332 19.3546112 95.8097414"></polygon>
                                <polygon id="Fill-111" fill="#FFF7CF" mask="url(#mask-10)" points="25.9951479 98.7148242 19.3545545 98.1525281 16.3616669 99.6508483 30.7653992 99.6508483"></polygon>
                                <polygon id="Fill-112" fill="#FFF7CF" mask="url(#mask-10)" points="27.678796 107.616028 37.6864588 107.616028 37.6864588 111.738964"></polygon>
                                <polygon id="Fill-113" fill="#FFF7CF" mask="url(#mask-10)" points="25.5278742 113.518773 55.9250445 113.518773 39.5574246 115.48681"></polygon>
                                <polygon id="Fill-114" fill="#DCCAA8" mask="url(#mask-10)" points="39.5574813 98.7148242 86.9770896 98.9016882 39.5574813 100.49486"></polygon>
                                <polygon id="Fill-115" fill="#DCCAA8" mask="url(#mask-10)" points="39.5574813 106.210515 69.2998334 106.210515 39.5574813 107.428823"></polygon>
                                <polygon id="Fill-116" fill="#DCCAA8" mask="url(#mask-10)" points="39.5574813 103.633552 39.5574813 105.32044 57.2347375 103.820984"></polygon>
                                <polygon id="Fill-117" fill="#FFF7CF" mask="url(#mask-10)" points="80.3363261 101.057156 99.8839245 101.057156 104.747721 103.165483"></polygon>
                                <polygon id="Fill-118" fill="#FFF7CF" mask="url(#mask-10)" points="71.8249937 114.924286 93.5241375 114.924286 81.7391111 117.360903"></polygon>
                                <polygon id="Fill-119" fill="#DCCAA8" mask="url(#mask-10)" points="99.8842079 110.052133 78.4657005 111.270441 99.8842079 111.739021"></polygon>
                                <path d="M69.7676174,93.8421027 C70.6089595,93.8421027 99.8841512,92.9049426 99.8841512,92.9049426 L99.8841512,94.5912628 L69.7676174,93.8421027 Z" id="Fill-120" fill="#DCCAA8" mask="url(#mask-10)"></path>
                                <polygon id="Fill-121" fill="#FFEFDD" mask="url(#mask-10)" points="63.5474116 62.4773414 144.077008 62.4773414 144.077008 29.5887009 63.5474116 29.5887009"></polygon>
                                <polygon id="Fill-122" fill="#C1AB85" mask="url(#mask-10)" points="63.5474116 62.4773414 83.750395 62.4773414 83.750395 29.5887009 63.5474116 29.5887009"></polygon>
                                <polygon id="Fill-123" fill="#DCCAA8" mask="url(#mask-10)" points="71.1237997 33.8052967 111.435654 33.8052967 83.7501683 35.3041849"></polygon>
                                <polygon id="Fill-124" fill="#FFF7CF" mask="url(#mask-10)" points="63.5475817 37.459426 73.6487899 37.459426 63.5475817 38.6777341"></polygon>
                                <polygon id="Fill-125" fill="#FFF7CF" mask="url(#mask-10)" points="70.1881183 41.5827601 63.547525 41.020464 60.5546374 42.5187843 74.9583696 42.5187843"></polygon>
                                <polygon id="Fill-126" fill="#FFF7CF" mask="url(#mask-10)" points="71.8717664 50.4840205 81.8794293 50.4840205 81.8794293 54.6069571"></polygon>
                                <polygon id="Fill-127" fill="#FFF7CF" mask="url(#mask-10)" points="69.7208446 56.3867662 100.118015 56.3867662 83.750395 58.3548024"></polygon>
                                <polygon id="Fill-128" fill="#DCCAA8" mask="url(#mask-10)" points="83.7504517 41.5827601 131.169493 41.7696242 83.7504517 43.3627964"></polygon>
                                <polygon id="Fill-129" fill="#DCCAA8" mask="url(#mask-10)" points="83.7504517 49.0785076 113.492804 49.0785076 83.7504517 50.2968157"></polygon>
                                <polygon id="Fill-130" fill="#DCCAA8" mask="url(#mask-10)" points="83.7504517 46.5015444 83.7504517 48.1884326 101.427708 46.6889764"></polygon>
                                <polygon id="Fill-131" fill="#FFF7CF" mask="url(#mask-10)" points="124.529013 43.9250924 144.076611 43.9250924 148.940408 46.0334187"></polygon>
                                <polygon id="Fill-132" fill="#FFF7CF" mask="url(#mask-10)" points="116.017964 57.7922792 137.717108 57.7922792 125.932081 60.2288955"></polygon>
                                <polygon id="Fill-133" fill="#DCCAA8" mask="url(#mask-10)" points="144.076895 52.9200689 122.658387 54.138377 144.076895 54.6069571"></polygon>
                                <path d="M113.960588,36.7100387 C114.80193,36.7100387 144.077122,35.7728785 144.077122,35.7728785 L144.077122,37.4591988 L113.960588,36.7100387 Z" id="Fill-134" fill="#DCCAA8" mask="url(#mask-10)"></path>
                                <polygon id="Fill-135" fill="#F78500" mask="url(#mask-10)" points="30.0847851 67.1614381 257.97115 67.1614381 257.97115 62.3262598 30.0847851 62.3262598"></polygon>
                                <polygon id="Fill-136" fill="#FFEFDD" mask="url(#mask-10)" points="240.176537 183.978163 320.706134 183.978163 320.706134 133.346526 240.176537 133.346526"></polygon>
                                <polygon id="Fill-137" fill="#C1AB85" mask="url(#mask-10)" points="300.50315 183.978163 320.706134 183.978163 320.706134 133.346526 300.50315 133.346526"></polygon>
                                <polygon id="Fill-138" fill="#DCCAA8" mask="url(#mask-10)" points="313.130313 139.838149 272.818458 139.838149 300.503377 142.145834"></polygon>
                                <polygon id="Fill-141" fill="#FFF7CF" mask="url(#mask-10)" points="312.381779 165.514064 302.374116 165.514064 302.374116 171.861194"></polygon>
                                <polygon id="Fill-142" fill="#FFF7CF" mask="url(#mask-10)" points="314.532701 174.601677 284.135531 174.601677 300.50315 177.63126"></polygon>
                                <polygon id="Fill-143" fill="#DCCAA8" mask="url(#mask-10)" points="300.503094 151.810568 253.083485 152.0991 300.503094 154.551619"></polygon>
                                <polygon id="Fill-144" fill="#DCCAA8" mask="url(#mask-10)" points="300.503094 163.350928 270.760742 163.350928 300.503094 165.225816"></polygon>
                                <polygon id="Fill-145" fill="#DCCAA8" mask="url(#mask-10)" points="300.503094 159.383958 300.503094 161.980175 282.825838 159.672489"></polygon>
                                <polygon id="Fill-146" fill="#FFF7CF" mask="url(#mask-10)" points="259.724249 155.416987 240.176651 155.416987 235.312287 158.662969"></polygon>
                                <polygon id="Fill-147" fill="#FFF7CF" mask="url(#mask-10)" points="268.235581 176.766006 246.536438 176.766006 258.321464 180.51635"></polygon>
                                <polygon id="Fill-148" fill="#DCCAA8" mask="url(#mask-10)" points="240.176367 169.264749 261.594875 171.140205 240.176367 171.860967"></polygon>
                                <path d="M270.292958,144.309822 C269.451616,144.309822 240.176424,142.867732 240.176424,142.867732 L240.176424,145.463949 L270.292958,144.309822 Z" id="Fill-149" fill="#DCCAA8" mask="url(#mask-10)"></path>
                                <path d="M286.006213,133.346923 C286.006213,133.346923 305.921757,134.428917 301.151505,159.960567 L329.491243,154.768132 C329.491243,154.768132 320.51258,135.72731 316.022965,133.131092 L286.006213,133.346923 Z" id="Fill-150" fill="#FFF5FD" mask="url(#mask-10)"></path>
                            </g>
                        </g>
                    </g>
                </g>
            </g>
        </g>
    </g>
</svg>