<svg width="299" height="224" xmlns="http://www.w3.org/2000/svg" xmlns:xlink="http://www.w3.org/1999/xlink"><defs><path id="a" d="M0 0h299v224H0z"/><path id="c" d="M0 208h383V0H0z"/></defs><g fill="none" fill-rule="evenodd"><mask id="b" fill="#fff"><use xlink:href="#a"/></mask><use fill="#D8D8D8" xlink:href="#a"/><g mask="url(#b)"><g transform="translate(0 8)"><path d="M383 200.5c0 3.037-85.737 5.5-191.5 5.5S0 203.537 0 200.5s85.737-5.5 191.5-5.5 191.5 2.463 191.5 5.5" fill="#C2D6FF"/><path d="M254.588 46s-4.798 27.653-10.553 28.592c-5.756.939-12.035 5.59-12.035 5.59l4.756 3.753s14.072 1.799 16.687.72C256.058 83.579 254.588 46 254.588 46" fill="#4B9296"/><path d="M91.95 68.571C86.032 58.193 81.703 55 81.703 55s-2.857 16.411 2.95 21.041c5.805 4.63 7.878 14.951 7.878 14.951s-3.504 2.639-2.932 5.12c.03.137 1.757 2.445 3.558 1.762 1.361-.515 2.905-1.992 4.843-5.244 0 0-.132-13.681-6.05-24.059" fill="#EA7373"/><path d="M281.437 46.4c-4.422-8.128-14.796-10.808-23.916-6.043L256 51.538l1.61 54.16c8.528.724 19.843 3.333 28.37 6.302.146-7.028-.427-58.034-4.543-65.6" fill="#FFF"/><mask id="d" fill="#fff"><use xlink:href="#c"/></mask><path fill="#542360" mask="url(#d)" d="M275 184h3v-52h-3zM252.489 199l23.218-12.997V199h1.663v-12.84L301.442 199H304l-26.245-14-.541.394h-1.507v.108l-.711-.494L250 199z"/><path d="M279 185h-5v-3.227c0-1.532 1.103-2.773 2.463-2.773h.074c1.36 0 2.463 1.241 2.463 2.773V185z" fill="#542360" mask="url(#d)"/><path d="M254 189.534c0 .385-.354 10.466-.354 10.466H235s13.225-6.778 13.889-8.32c.664-1.54-.229-3.981-.229-3.981L254 187v2.534z" fill="#432C47" mask="url(#d)"/><path d="M251 57.075c0 8.617 2.896 47.85 3.184 51.733A62.13 62.13 0 01257 109l-.211-59.393.173-9.607c-1.41 1.425-5.962 9.397-5.962 17.075" fill="#7FD3D3" mask="url(#d)"/><path d="M279 117.137L257.913 106l-39.502 16.153c-3.07 1.09-4.347 4.546-2.665 7.21L250.281 190l7.54-.943-32.801-56.662L279 117.137z" fill="#432C47" mask="url(#d)"/><path d="M244.625 124s-1.214 3.262-.257 5.262c.956 2 14.172 8.738 14.172 8.738l4.46-6.002L244.625 124z" fill="#1B2B80" mask="url(#d)"/><path d="M301.022 109.836c-6.545 6.403-10.98 8.675-18.37 5.576-7.39-3.097 2.745-27.054 2.745-27.054 6.123-3.098 1.9-.414 7.905 1.239 6.003 1.652 8.565-2.478 11.52.413 2.957 2.891 2.746 13.424-3.8 19.826m15.836-19.62c-2.11-6.815-5.278-13.63-15.413-11.565-10.136 2.065-13.936-3.098-19.215-1.24-5.279 1.86-4.857 25.61-10.98 31.6-6.123 5.989-34.946 9.603-26.816 17.554 0 0 13.302 7.435 15.625 7.435 2.322 0 30.406-3.718 33.573-3.718 3.167 0 25.338-33.25 23.226-40.065" fill="#757AD8" mask="url(#d)"/><path d="M314.053 85s.524 8.308-6.328 21.29c-6.852 12.984-12.25 21.846-20.14 21.846-7.891 0-28.447 4.328-29.485 7.625-1.038 3.298 6.23-1.03 11.835-1.03 5.606 0 17.234-.825 23.671-3.71 6.437-2.885 31.967-38.045 20.447-46.021" fill="#1B2B80" mask="url(#d)"/><path d="M256.922 105c.016.197 2.115 4.05 2.115 4.05L218 127.46s26.074 62.054 23.237 64.817C238.399 195.04 226.78 200 226.78 200h19.545l.283-8.826h1.416l-12.463-59.024 45.131-9.93 5.289-10.205.018-.813c-9.692-3.242-19.385-5.835-29.078-6.202" fill="#18287D" mask="url(#d)"/><path fill="#542360" mask="url(#d)" d="M166 100h62v-3h-62z"/><path fill="#1E3340" mask="url(#d)" d="M159 67.224L168.12 97H209l-10.734-31z"/><path d="M266.296 21s4.207 12.641 3.654 18.859c0 0-3.296 2.892-6.68 4.669-2.476 1.3-5.54-.232-5.927-2.78-.021-.143-.002-.29-.006-.44L257 29.704 266.296 21z" fill="#FC7575" mask="url(#d)"/><path fill="#FFF" mask="url(#d)" d="M256.608 42L259 45.237 258.413 51 256 50.419z"/><path fill="#E3E4FF" mask="url(#d)" d="M270 38l-10.425 7.647L259 52l10.179-4.75z"/><path d="M265.732 21L257 29.854l.218 8.146c4.046-.176 7.826-5.959 8.264-12.828a18.09 18.09 0 01.518-3.269 59.282 59.282 0 00-.268-.903" fill="#FD5E5A" mask="url(#d)"/><path d="M249.115 9.995c-.132.132-.273.368-.41.693-.628 1.487-1.15 4.845-.125 8.7C249.83 24.085 252.018 34 255.872 34c3.853 0 9.009-4.907 9.426-10.75.417-5.845 3.073-8.768.78-13.255-2.29-4.488-16.963 0-16.963 0" fill="#FC7575" mask="url(#d)"/><path d="M266.08 9.984c-2.292-4.465-16.965 0-16.965 0-.132.132-.274.366-.41.69-.628 1.48-1.15 4.82-.125 8.656.167.623.35 1.339.552 2.11 1.747-1.197 3.02-3.421 4.144-6.085.19-.225.28-1.985 3.637-3.263.697 1.524 1.506 1.423 3.337 4.847.123 6.935 3.358 7.95 4.759 8.061.145-.596.245-1.207.289-1.828.417-5.815 3.073-8.723.781-13.188" fill="#FD5E5A" mask="url(#d)"/><path d="M262.772 16.048s-1.368-2.75-2.737-4.126c-1.369-1.375-.948-2.539-.948-2.539s-4.916.846-6.353 4.232c-1.438 3.385-3.14 8.358-8.553 6.136-5.414-2.222-4.466-9.31-3.203-9.31 1.264 0 2.422-1.058 2.422-1.058s4.527-6.453 6.949-6.453c2.421 0 .315-2.222 4.422-2.857 4.106-.634 7.37 3.068 7.37 3.068s1.79-2.01 4.948 0c3.159 2.01 1.699 9.839.586 12.59-1.112 2.75-1.187 7.246-1.187 7.246s-3.716.794-3.716-6.929" fill="#0F1D5B" mask="url(#d)"/><path d="M264.732 14.158c-.465-1.404-2.366-1.568-3.122-.29-.625 1.06-.994 2.366.029 3.36 2.045 1.986 3.875-.21 3.23-2.614a8.797 8.797 0 00-.137-.456" fill="#FC7575" mask="url(#d)"/><path d="M284.75 48.132c-3.923-5.696-10.843-10.73-16.452-10.074L260.02 62.79c.068 10.928-4.23 63.707-4.012 68.148 7.376.44 23.847-1.498 31.127-5.735.114-8.258 2.978-69.286-2.385-77.072" fill="#B4D2D9" mask="url(#d)"/><path fill="#432C47" mask="url(#d)" d="M122.333 198L136 102.48l-3.264-.48L119 198zM267 198l-13.736-96-3.264.48L263.668 198z"/><path fill="#0F1D5B" mask="url(#d)" d="M125 104h133v-4H125z"/><path d="M261.005 15.648c.055-.53.782-2.068 1.834-1.539 1.052.529 1.9 2.429.168 2.814-1.731.384-2.054-.765-2.002-1.275" fill="#FD5E5A" mask="url(#d)"/><path d="M254.739 26H252v-5.775c0-.125.117-.225.261-.225.143 0 .26.1.26.225v5.325h2.218c.144 0 .261.1.261.225s-.117.225-.261.225M255 19.5c0 .828-.447 1.5-1 1.5-.552 0-1-.672-1-1.5s.448-1.5 1-1.5c.553 0 1 .672 1 1.5M251 20a1 1 0 11-2 0 1 1 0 012 0" fill="#18287D" mask="url(#d)"/><path d="M254.835 29c-.423 0-.694-.117-.701-.12-.099-.046-.155-.204-.126-.353.03-.151.137-.232.233-.194.078.043 1.896.796 3.423-2.222.062-.127.178-.145.263-.054.082.096.097.276.034.4-1.09 2.156-2.357 2.543-3.126 2.543" fill="#FFF" mask="url(#d)"/><path d="M254 17.2s.912-1.2 2.025-1.2S258 17.68 258 17.68s-.834-1.36-1.791-1.12S254 18 254 18v-.8z" fill="#18287D" mask="url(#d)"/><path d="M78.419 129.08c-.98.005-17.753 4.574-16.825-5.342.927-9.918-.186-19.807-5.673-21.82-11.851-4.347-26.921.055-26.921.055l16 28.474 10.72 16.272 15.482-1.274L102 149s-2.848-20.045-23.581-19.92" fill="#749CFE" mask="url(#d)"/><path fill="#18287D" mask="url(#d)" d="M58 144l-4.65.028L47 206l.86-.005zM88 144.028l4.743-.028L100 205.995l-.877.005z"/><path d="M29 102.376c.024 3.742 14.968 38.336 17.046 42.66 5.218 10.858 26.704 2.817 32.415 4.03 5.711 1.213 17.344 5.925 22.636 2.983 5.292-2.942-.856-11.014-13.442-10.939-12.587.076-22.111 6.2-29.635-1.655-7.522-7.855-6.514-23.492-10.9-32.821-4.384-9.33-18.12-4.258-18.12-4.258" fill="#6265A8" mask="url(#d)"/><path d="M98.985 125l23.66 7.032a4.67 4.67 0 013.342 4.821c-.366 5.008-1.346 13.971-3.875 20.371-3.66 9.26-10.993 28.22-11.128 33.328-.135 5.108 1.497 13.448 1.497 13.448l-8.084-.213s.728-5.132.827-8.864c.098-3.734.618-8.438.695-11.386.072-2.677 4.45-30.272 3.99-41.968-.046-1.177-15.909-7.436-15.909-7.436L98.985 125z" fill="#EA7373" mask="url(#d)"/><path d="M80.851 120l26.085 19.12c2.907 2.474 3.837 9.555 2.395 13.106-2.235 5.51-5.736 13.52-8.966 18.304-5.287 7.833-14.197 20.282-14.197 20.282s-2.776 8.763-.955 10.701c1.822 1.938 4.138 3.487 4.138 3.487s-7.897-.17-9.238-1.597c-1.34-1.426-.455-7.257-.403-9.242.052-1.985.93-3.397.93-3.397s.793-3.183 2.11-7.294c1.912-5.96 2.84-15.294 5.307-20.886 4.171-9.45 6.293-9.145 6.293-9.145L69 136.522 80.851 120z" fill="#F98A8A" mask="url(#d)"/><path d="M77.177 53.387s5.27.175 8.087 4.88c10.633 17.753-1.942 50.06 2.98 55.28C93.866 119.509 122.7 127.91 125 133.53c0 0-13.39-2.194-20.448 4.471C97.495 144.668 95.181 153 95.181 153s-27.736-15.735-34.808-18.54c-9.113-3.616-1.497-42.688.671-56.804 2.169-14.115-1.078-21.424 4.247-23.481 5.326-2.057 11.886-.788 11.886-.788" fill="#480736" mask="url(#d)"/><path d="M111 204.724s-2.605 3.32-4.341 3.276c-1.736-.045-3.659-3.482-3.659-3.482l.54-4.518s1.239 4.564 3.21 4.614c1.972.051 3.475-4.442 3.475-4.442l.775 4.552zM82.432 200.366l4.253.205L91 204s-7.586-.044-9.362-.748c-1.777-.703-1.827-4.296-1.313-5.955.513-1.658-.775-3.351-1.275-3.852-.499-.5 2.868-3.445 2.868-3.445l.514 10.366z" fill="#0F1D5B" mask="url(#d)"/><path d="M79 51.427s3.663 2.945 8.495.775c4.832-2.17 11.102-6.943 7.372-15.177C91.137 28.79 84.228 24 84.228 24L79 51.427z" fill="#C5C6FE" mask="url(#d)"/><path d="M79.792 44.71s-1.277 6.64.069 10.825c1.345 4.185-7.464 6.48-9.318 2.103C68.69 53.26 72.174 43 72.174 43l7.618 1.71z" fill="#F98A8A" mask="url(#d)"/><path d="M72.883 42L80 43.725s-.306 1.72-.444 3.965a6.604 6.604 0 01-.574.164c-2.456.585-5.143-.652-6.982-2.582.46-1.927.883-3.272.883-3.272" fill="#EA7373" mask="url(#d)"/><path d="M83.308 23s3.129 3.4 2.57 7.63c-.557 4.23.113 6.641.122 8.15.009 1.51-2.174 6.152-6.538 7.085-4.365.933-9.44-3.16-9.461-6.883-.023-3.722.57-10.216 3.321-13.101C76.072 22.995 83.308 23 83.308 23" fill="#F98A8A" mask="url(#d)"/><path d="M83 23.393s-9.814 7.085-12.078 11.325c-2.264 4.24 3.215 10.344 2.732 12.713-.484 2.37-8.43 7.667-11.486 4.678-3.056-2.988-.745-7.685-.745-7.685s-5.775.036-5.406-4.699c.369-4.734 4.33-11.146 9.67-14.157C77.147 19.108 83 23.393 83 23.393" fill="#E3E4FF" mask="url(#d)"/><path d="M56.558 36.844C60.661 23.93 76.34 19.197 83 23.612c-6.844-3.505-21.444 1.649-25.43 13.546-.486 1.648-.918 3.491-.116 4.846.799 1.377 2.684 1.968 4.36 2.07l.506.03c-.023.233-2.672 4.65.227 7.896-2.03-1.777-2.11-4.8-1.207-7.287-1.716-.106-3.565-.61-4.675-2.215-1.082-1.598-.638-3.783-.107-5.654" fill="#C5C6FE" mask="url(#d)"/><path d="M74 33.725s-.12-2.273-2.558-1.6c-2.439.672-1.38 4.411.208 4.84 1.588.429 2.35-3.24 2.35-3.24" fill="#F98A8A" mask="url(#d)"/><path d="M77.444 41.286c-1.708-.482-2.425-1.397-2.197-1.233-.137-.164-.338.092-.201.256.23.113.973 1.522 4.805 1.69.191.01.202-.347.01-.356 0 0-1.468-.102-2.417-.357" fill="#18287D" mask="url(#d)"/><path d="M78.838 42c.081.002.152-.068.161-.163.008-.1-.054-.188-.14-.2-.344-.04-1.302-.222-1.595-.576-.244-.308-.898.636 1.562.938h.012M81 38c-.114-.781-.55-2.16-1.194-1.985-.648.279-1.254.529-1.806 1.013.66-.094 1.264-.448 1.88-.542.283-.253.585.598 1.12 1.514M82 35.97a1.007 1.007 0 00.976 1.03.994.994 0 001.024-.97 1.007 1.007 0 00-.976-1.03.993.993 0 00-1.024.97M76.982 35.23a.953.953 0 01-1.17.743 1.05 1.05 0 01-.794-1.203.952.952 0 011.17-.743c.541.127.898.666.794 1.203" fill="#18287D" mask="url(#d)"/><path d="M84.25 32.049c.858.213.745.951.745.951s-.37-.169-.841-.508L82 32.404c.206-.087 1.449-.554 2.25-.355M75.932 31.012c-.869-.105-.932.507-.932.507s.392-.015.922-.131L78 32c-.177-.133-1.255-.89-2.068-.988" fill="#C5C6FE" mask="url(#d)"/><path d="M96 107h-1.252c0-6.936-2.803-12.58-6.248-12.58-3.445 0-6.248 5.644-6.248 12.58H81c0-7.85 3.295-14 7.5-14s7.5 6.15 7.5 14" fill="#5B6D7E" mask="url(#d)"/><path fill="#75B8BF" mask="url(#d)" d="M75.393 104l24.346.063L102 125H71z"/><path fill="#5B6D7E" mask="url(#d)" d="M77.15 104l.85 21h-8l4.15-21zM81 107l1.966 15.575L100 123l-14.43-2.124z"/><path fill="#1E3340" mask="url(#d)" d="M237.13 80.55L213 64.162 238.054 62 257 81z"/><path d="M250.052 73s2.555.617 3.499 1.71c1.205 1.394 4.066 3.661 5.268 3.661s6.321.541 6.321.541L266 85s-19.101-4.727-20-5.768c-.9-1.041 4.479.773 4.479.309s-6.479-.985-6.145-2.154c.334-1.17 5.978 1.574 6.479.995.5-.58-6.813-1.546-6.813-2.783 0-1.237 7.28 1.788 7.28 1.788s.134-.629-1.837-1.633c-1.97-1.005-3.88-1.815-3.444-2.32.436-.504 5.474 2.698 6.138 1.93L250.052 73z" fill="#F98A8A" mask="url(#d)"/><path d="M273.777 43.123s-1.161 4.708-.6 12.032c.562 7.325 1.522 18.557-.055 22.219-1.576 3.662-13.122 0-13.122 0v8.667s16.741 6.715 21.59 4.517c4.85-2.197 6.823-21.132 6.339-30.398-.72-13.784-11.06-23.694-14.152-17.037" fill="#CAE9EF" mask="url(#d)"/><path d="M232.764 75.763s-.512.53-1.465 2.143c-.923 1.562.56 3.11.847 3.437.546.621 1.578 1.46 2.24 1.878.661.418 1.098.627 1.784.77 1.008.212 4.071-3.687 3.815-4.048-.173-.241-.401-.428-.66-.346-.273.088-3.273 2.247-3.273 2.247s2.916-3.08 2.814-3.973c-.102-.894-.63-.771-.877-.538-.246.232-3.77 3.143-3.77 3.143s2.688-3.661 2.622-4.244c-.067-.583-.808-.976-2.002.501-.67.829-2.281 2.19-2.281 2.19s1.64-2.752 1.54-3.627c-.1-.875-1.334.467-1.334.467" fill="#FC7575" mask="url(#d)"/><path d="M63.817 55s-6.343 1.738-14.457 12.388C43.293 75.351 37.14 86.965 37 92.323c-.139 5.357 26.085 8.475 34.925 4.909 0 0 3.913 3.66 7.76 3.762 3.847.103 3.07-1.03 4.122-3.965 1.052-2.936-2.403-4.906-5.276-5.713-.863-.242-.73-.348-4.59.34-3.862.687-20.82 1.766-23.526-1.122-2.706-2.888 7.48-14.382 9.621-16.439 2.142-2.057 8.276-10.82 3.78-19.095M91.097 92s-2.49.3-3.307 1.368c-.577.752-1.137 2.601-.523 3.765.615 1.165 2.193.762 2.716 1.29.525.528.819.697 1.779.89.96.193 1.297.687 1.859.687s1.1-1.293 1.33-2.867c.23-1.573-.423-2.85-.423-2.85S93.313 92 91.097 92" fill="#F98A8A" mask="url(#d)"/><path d="M269.426 37L261 63s6.14-2.331 7.968-5.895c1.829-3.564 0-4.698 0-4.698S275 41.717 275 39.935c0-1.781-5.574-2.935-5.574-2.935M256.864 63s-3.645-8.806-2.71-9.964c.934-1.157 1.145-1.076 1.145-1.076s-1.12-6.245-.765-8.546c.355-2.3 2.402-4.414 2.402-4.414l.064 2.611L256.864 63z" fill="#4B9296" mask="url(#d)"/><path d="M73 34.676s-1.995-2.648-2.728-1.287c-.734 1.36.117 2.882 1.364 2.57C72.882 35.647 73 34.676 73 34.676" fill="#EA7373" mask="url(#d)"/></g></g></g></svg>