<?xml version="1.0" encoding="UTF-8"?>
<svg width="299px" height="224px" viewBox="0 0 299 224" version="1.1" xmlns="http://www.w3.org/2000/svg" xmlns:xlink="http://www.w3.org/1999/xlink">
    <!-- Generator: Sketch 60.1 (88133) - https://sketch.com -->
    <title>mi-contact</title>
    <desc>Created with Sketch.</desc>
    <defs>
        <linearGradient x1="23.9173266%" y1="68.6503384%" x2="83.9996625%" y2="28.9398055%" id="linearGradient-1">
            <stop stop-color="#EEEEEE" offset="0%"></stop>
            <stop stop-color="#D8D8D8" offset="100%"></stop>
        </linearGradient>
        <rect id="path-2" x="0" y="0" width="299" height="224"></rect>
        <path d="M13.7664658,0.505812081 C6.4889589,0.505812081 0.588739726,6.39841611 0.588739726,13.6665302 L0.588739726,13.6665302 L0.588739726,158.574221 L155.727534,158.574221 L155.727534,13.6665302 C155.727534,6.39841611 149.827315,0.505812081 142.549808,0.505812081 L142.549808,0.505812081 L13.7664658,0.505812081 Z" id="path-4"></path>
        <linearGradient x1="49.9999966%" y1="100.000068%" x2="49.9999966%" y2="0.675877565%" id="linearGradient-6">
            <stop stop-color="#F7EEEE" offset="0%"></stop>
            <stop stop-color="#FAF7F4" offset="100%"></stop>
        </linearGradient>
        <polygon id="path-7" points="0.044065625 0.550826667 200.861362 0.550826667 200.861362 118.4 0.044065625 118.4"></polygon>
        <path d="M20.3726161,0.6464 C20.6297545,0.6528 20.8559509,0.6752 21.0437366,0.754133333 C21.2336562,0.814933333 21.3958348,0.8544 21.5035982,0.946133333 C21.7276607,1.09333333 21.8460937,1.17333333 21.8460937,1.17333333 C21.8460937,1.17333333 21.718058,1.11253333 21.4779911,0.9984 C21.3670268,0.9248 21.2016473,0.909866667 21.0159955,0.877866667 C20.8324777,0.830933333 20.6158839,0.836266667 20.373683,0.8544 C19.8914152,0.866133333 19.3184554,1.0432 18.6910804,1.28746667 C18.0722411,1.56693333 17.3979196,1.92853333 16.6937232,2.38293333 C15.9916607,2.84053333 15.2522545,3.37386667 14.5213839,4.00213333 C13.7777098,4.6144 13.0404375,5.3184 12.2818259,6.04693333 C11.5253482,6.77866667 10.7944777,7.58613333 10.0476027,8.4032 C9.321,9.2224 8.60613393,10.0906667 7.89980357,10.9909333 C7.22014732,11.8645333 6.54369196,12.7776 5.92165179,13.6885333 C5.30921429,14.6090667 4.70637946,15.5157333 4.17716518,16.4266667 C3.65648661,17.3408 3.1518125,18.2250667 2.73889732,19.0954667 C2.30677679,19.9584 1.96854911,20.8042667 1.69540625,21.5957333 C1.42546429,22.3904 1.23874554,23.1317333 1.11817857,23.8005333 C1.03388839,24.4672 1.00187946,25.0666667 1.10750893,25.5370667 C1.14912054,25.7781333 1.19713393,25.9872 1.28569196,26.1504 C1.35824554,26.3210667 1.41479464,26.4778667 1.51508929,26.5717333 C1.68580357,26.7776 1.77649554,26.8885333 1.77649554,26.8885333 C1.77649554,26.8885333 1.67086607,26.7914667 1.47347768,26.6112 C1.36144643,26.5333333 1.28249107,26.3861333 1.17686161,26.2154667 C1.05202679,26.0490667 0.975205357,25.8336 0.906919643,25.5861333 C0.743674107,25.0965333 0.70953125,24.4704 0.725535714,23.76 C0.773549107,23.0538667 0.885580357,22.2581333 1.12244643,21.424 C1.35184375,20.5877333 1.64419196,19.6928 2.03043304,18.7797333 C2.39960268,17.8602667 2.84452679,16.9152 3.36200446,15.968 C3.87734821,15.0197333 4.44390625,14.0597333 5.06701339,13.1146667 C5.69865625,12.1706667 6.36230804,11.2501333 7.06970536,10.3210667 C7.77603571,9.43786667 8.51544196,8.55893333 9.28365625,7.71306667 C10.0465357,6.8768 10.8424911,6.096 11.6352455,5.36426667 C12.4301339,4.63466667 13.2367589,3.97013333 14.04125,3.38986667 C14.8329375,2.79466667 15.6299598,2.29226667 16.3853705,1.86773333 C17.1375804,1.4336 17.8823214,1.13173333 18.5566429,0.913066667" id="path-9"></path>
        <path d="M24.7204955,0.4576 C24.9722991,0.512 25.1899598,0.576 25.3596071,0.688 C25.5356562,0.782933333 25.6871652,0.852266667 25.7757232,0.9632 C25.9667098,1.14986667 26.0702054,1.24906667 26.0702054,1.24906667 C26.0702054,1.24906667 25.9560402,1.16586667 25.7405134,1.00906667 C25.6455536,0.916266667 25.484442,0.8704 25.3083929,0.805333333 C25.1376786,0.724266667 24.9242857,0.689066667 24.6820848,0.661333333 C24.2062187,0.583466667 23.6097857,0.650666667 22.9482679,0.7744 C22.2888839,0.933333333 21.5590804,1.16266667 20.7812634,1.4784 C20.0055804,1.79626667 19.180817,2.18346667 18.3453839,2.66453333 C17.5003482,3.12746667 16.6457098,3.68213333 15.7643973,4.256 C14.8852187,4.8352 14.0156429,5.4912 13.1300625,6.15466667 C12.2668884,6.82133333 11.3919777,7.54986667 10.5437411,8.2912 C9.69977232,9.03466667 8.87500893,9.7984 8.09079018,10.5792 C7.31724107,11.3696 6.55542857,12.1482667 5.86723661,12.9450667 C5.18544643,13.7450667 4.52392857,14.5194667 3.95523661,15.2981333 C3.37054018,16.0650667 2.88080357,16.8330667 2.46575446,17.5605333 C2.05177232,18.2901333 1.72954911,18.9845333 1.48734821,19.6192 C1.28035714,20.2581333 1.13631696,20.8416 1.15338839,21.3237333 C1.14912054,21.5669333 1.15658929,21.7813333 1.21313839,21.9584 C1.25368304,22.1397333 1.27822321,22.3050667 1.36037946,22.416 C1.48841518,22.6496 1.55670089,22.7754667 1.55670089,22.7754667 C1.55670089,22.7754667 1.47134375,22.6613333 1.31236607,22.4469333 C1.21633929,22.3488 1.16619196,22.1898667 1.09470536,22.0021333 C1.00294643,21.8154667 0.967736607,21.5893333 0.946397321,21.3344 C0.877044643,20.8224 0.961334821,20.2016 1.10857589,19.5072 C1.28782589,18.8213333 1.54496429,18.0597333 1.93440625,17.2842667 C2.3153125,16.5056 2.76983929,15.6810667 3.31932589,14.8565333 C3.85280804,14.0213333 4.46737946,13.1754667 5.15130357,12.3413333 C5.83416071,11.5061333 6.57036607,10.6677333 7.35885268,9.856 C8.15160714,9.04853333 8.98597321,8.2592 9.84061161,7.49013333 C10.7123214,6.7424 11.5936339,6.0256 12.5069554,5.3344 C13.413875,4.656 14.341067,4.03626667 15.2565223,3.4656 C16.1730446,2.896 17.089567,2.3936 17.9879509,1.97333333 C18.8767321,1.536 19.7527098,1.19146667 20.5753393,0.914133333 C21.3947679,0.628266667 22.1832545,0.469333333 22.8863839,0.381866667" id="path-11"></path>
        <polygon id="path-13" points="0.729551247 0.219733333 31.1017955 0.219733333 31.1017955 35.2104068 0.729551247 35.2104068"></polygon>
    </defs>
    <g id="Symbols" stroke="none" stroke-width="1" fill="none" fill-rule="evenodd">
        <g id="Contact">
            <g id="spreekuren">
                <g id="mi-contact">
                    <mask id="mask-3" fill="white">
                        <use xlink:href="#path-2"></use>
                    </mask>
                    <use id="Mask" fill="url(#linearGradient-1)" xlink:href="#path-2"></use>
                    <g id="Group-43" mask="url(#mask-3)">
                        <g transform="translate(149.500000, 112.500000) rotate(-360.000000) translate(-149.500000, -112.500000) translate(29.000000, 16.000000)">
                            <path d="M7.17192937,119 C-0.641385084,124.210424 -5.06853926,150.000373 10.03706,150.521522 C20.4512609,150.880678 24.5491755,141.495733 20.638789,138.575593 C10.8180718,131.243272 -0.641385084,157.034286 10.8180718,162.243645 C16.2244208,164.702318 21.7096169,160.78251 27.6210131,156.011172 C36.668177,148.708691 46.7137148,139.40794 59,147.916843" id="Stroke-1" stroke="#D8171C" stroke-width="2"></path>
                            <g id="Group-5" stroke="none" stroke-width="1" fill-rule="evenodd" transform="translate(62.000000, 5.000000)">
                                <mask id="mask-5" fill="white">
                                    <use xlink:href="#path-4"></use>
                                </mask>
                                <g id="Clip-4"></g>
                                <path d="M13.7664658,0.505812081 C6.4889589,0.505812081 0.588739726,6.39841611 0.588739726,13.6665302 L0.588739726,13.6665302 L0.588739726,158.574221 L155.727534,158.574221 L155.727534,13.6665302 C155.727534,6.39841611 149.827315,0.505812081 142.549808,0.505812081 L142.549808,0.505812081 L13.7664658,0.505812081 Z" id="Fill-3" fill="url(#linearGradient-6)" mask="url(#mask-5)"></path>
                            </g>
                            <g id="Group-42" stroke="none" stroke-width="1" fill-rule="evenodd" transform="translate(2.000000, -0.000000)">
                                <g id="Group-15" transform="translate(79.955357, 28.800000)" fill="#E1E3E6">
                                    <polygon id="Fill-6" points="0.0349553571 1.28426667 115.648004 1.28426667 115.648004 0.3776 0.0349553571 0.3776"></polygon>
                                    <polygon id="Fill-8" points="0.0349553571 14.0576 115.648004 14.0576 115.648004 13.1509333 0.0349553571 13.1509333"></polygon>
                                    <polygon id="Fill-9" points="0.0349553571 26.8309333 115.648004 26.8309333 115.648004 25.9242667 0.0349553571 25.9242667"></polygon>
                                    <polygon id="Fill-10" points="0.0349553571 39.6042667 115.648004 39.6042667 115.648004 38.6976 0.0349553571 38.6976"></polygon>
                                    <polygon id="Fill-11" points="0.0349553571 52.3776 115.648004 52.3776 115.648004 51.4709333 0.0349553571 51.4709333"></polygon>
                                    <polygon id="Fill-12" points="0.0349553571 65.1509333 115.648004 65.1509333 115.648004 64.2442667 0.0349553571 64.2442667"></polygon>
                                    <polygon id="Fill-13" points="0.0349553571 77.9242667 115.648004 77.9242667 115.648004 77.0176 0.0349553571 77.0176"></polygon>
                                    <polygon id="Fill-14" points="0.0349553571 90.6976 115.648004 90.6976 115.648004 89.7898667 0.0349553571 89.7898667"></polygon>
                                </g>
                                <g id="Group-18" transform="translate(37.343750, 73.600000)">
                                    <mask id="mask-8" fill="white">
                                        <use xlink:href="#path-7"></use>
                                    </mask>
                                    <g id="Clip-17"></g>
                                    <path d="M184.012182,6.44949333 L99.4798022,90.9518933 C99.2973513,91.13536 98.9996683,91.13536 98.8161504,90.9518933 L14.2912397,6.44949333 C10.5120522,2.67242667 5.38742277,0.550826667 0.044065625,0.550826667 L0.044065625,106.928427 C0.044065625,113.26336 5.18149866,118.400427 11.5192665,118.400427 L189.385414,118.400427 C195.724249,118.400427 200.861682,113.26336 200.861682,106.928427 L200.861682,0.550826667 L198.259356,0.550826667 C192.915999,0.550826667 187.791369,2.67242667 184.012182,6.44949333" id="Fill-16" fill="#FFB700" mask="url(#mask-8)"></path>
                                </g>
                                <path d="M59.9296768,40.1104 C41.9491946,41.5205333 24.4755205,59.4202667 21.085775,63.0704 C17.6021366,66.6309333 0.559516071,84.9424 0.0174982143,102.9648 C-0.298323214,113.4864 6.95916786,123.737067 11.3785339,127.154667 L31.6978018,101.642133 C31.6978018,101.642133 28.4190205,98.376 21.2479536,96.3717333 C21.2479536,96.3717333 23.0223152,87.2133333 34.0131143,75.6826667 C44.3840071,64.8026667 54.365458,61.6272 54.365458,61.6272 C56.7138464,68.6917333 60.133467,71.8085333 60.133467,71.8085333 L84.6459045,50.2885333 C81.0192929,46.0410667 70.4264714,39.2869333 59.9296768,40.1104" id="Fill-19" fill="#D8171C"></path>
                                <path d="M31.448879,101.439573 L27.8222674,98.7195733 C25.4322674,96.8561067 19.0027406,101.102507 13.4609281,108.203307 C7.91804866,115.304107 5.36160223,122.572373 7.75160223,124.43584 L11.3782138,127.154773 L31.448879,101.439573 Z" id="Fill-21" fill="#A60006"></path>
                                <path d="M25.7399799,117.671893 C20.1981674,124.772693 13.7675737,129.019093 11.3786406,127.155627 C8.98970759,125.291093 11.5450871,118.023893 17.0879665,110.923093 C22.629779,103.822293 29.0593058,99.5758933 31.4493058,101.43936 C33.8382388,103.302827 31.2817924,110.571093 25.7399799,117.671893" id="Fill-23" fill="#A60006"></path>
                                <g id="Group-27" transform="translate(9.602679, 100.266667)">
                                    <mask id="mask-10" fill="white">
                                        <use xlink:href="#path-9"></use>
                                    </mask>
                                    <g id="Clip-26"></g>
                                    <path d="M1.77649554,26.8885333 C1.77649554,26.8885333 1.67086607,26.7914667 1.47347768,26.6112 C1.36144643,26.5333333 1.28249107,26.3861333 1.17686161,26.2154667 C1.05202679,26.0490667 0.975205357,25.8336 0.906919643,25.5861333 C0.743674107,25.0965333 0.70953125,24.4704 0.725535714,23.76 C0.773549107,23.0538667 0.885580357,22.2581333 1.12244643,21.424 C1.35184375,20.5877333 1.64419196,19.6928 2.03043304,18.7797333 C2.39960268,17.8602667 2.84452679,16.9152 3.36200446,15.968 C3.87734821,15.0197333 4.44390625,14.0597333 5.06701339,13.1146667 C5.69865625,12.1706667 6.36230804,11.2501333 7.06970536,10.3210667 C7.77603571,9.43786667 8.51544196,8.55893333 9.28365625,7.71306667 C10.0465357,6.8768 10.8424911,6.096 11.6352455,5.36426667 C12.4301339,4.63466667 13.2367589,3.97013333 14.04125,3.38986667 C14.8329375,2.79466667 15.6299598,2.29226667 16.3853705,1.86773333 C17.1375804,1.4336 17.8823214,1.13173333 18.5566429,0.913066667 C19.2427009,0.7264 19.8583393,0.605866667 20.3726161,0.6464 C20.6297545,0.6528 20.8559509,0.6752 21.0437366,0.754133333 C21.2336562,0.814933333 21.3958348,0.8544 21.5035982,0.946133333 C21.7276607,1.09333333 21.8460937,1.17333333 21.8460937,1.17333333 C21.8460937,1.17333333 21.718058,1.11253333 21.4779911,0.9984 C21.3670268,0.9248 21.2016473,0.909866667 21.0159955,0.877866667 C20.8324777,0.830933333 20.6158839,0.836266667 20.373683,0.8544 C19.8914152,0.866133333 19.3184554,1.0432 18.6910804,1.28746667 C18.0722411,1.56693333 17.3979196,1.92853333 16.6937232,2.38293333 C15.9916607,2.84053333 15.2522545,3.37386667 14.5213839,4.00213333 C13.7777098,4.6144 13.0404375,5.3184 12.2818259,6.04693333 C11.5253482,6.77866667 10.7944777,7.58613333 10.0476027,8.4032 C9.321,9.2224 8.60613393,10.0906667 7.89980357,10.9909333 C7.22014732,11.8645333 6.54369196,12.7776 5.92165179,13.6885333 C5.30921429,14.6090667 4.70637946,15.5157333 4.17716518,16.4266667 C3.65648661,17.3408 3.1518125,18.2250667 2.73889732,19.0954667 C2.30677679,19.9584 1.96854911,20.8042667 1.69540625,21.5957333 C1.42546429,22.3904 1.23874554,23.1317333 1.11817857,23.8005333 C1.03388839,24.4672 1.00187946,25.0666667 1.10750893,25.5370667 C1.14912054,25.7781333 1.19713393,25.9872 1.28569196,26.1504 C1.35824554,26.3210667 1.41479464,26.4778667 1.51508929,26.5717333 C1.68580357,26.7776 1.77649554,26.8885333 1.77649554,26.8885333" id="Fill-25" mask="url(#mask-10)"></path>
                                </g>
                                <path d="M84.7533478,50.31616 L81.6964951,46.96896 C79.697004,44.6926933 72.5888879,47.6654933 65.8189996,53.60896 C59.0501781,59.5534933 55.1834996,66.2180267 57.1840576,68.4942933 L60.2398433,71.8414933 L84.7533478,50.31616 Z" id="Fill-28" fill="#A60006"></path>
                                <path d="M76.1175522,65.2 C69.3487308,71.1445333 62.2395478,74.1173333 60.2400567,71.8421333 C58.2405656,69.5648 62.1061772,62.9013333 68.8760656,56.9568 C75.6448871,51.0133333 82.7540701,48.0405333 84.7535612,50.3157333 C86.7530522,52.5930667 82.8874406,59.2565333 76.1175522,65.2" id="Fill-30" fill="#A60006"></path>
                                <g id="Group-34" transform="translate(58.683036, 49.066667)">
                                    <mask id="mask-12" fill="white">
                                        <use xlink:href="#path-11"></use>
                                    </mask>
                                    <g id="Clip-33"></g>
                                    <path d="M1.55670089,22.7754667 C1.55670089,22.7754667 1.47134375,22.6613333 1.31236607,22.4469333 C1.21633929,22.3488 1.16619196,22.1898667 1.09470536,22.0021333 C1.00294643,21.8154667 0.967736607,21.5893333 0.946397321,21.3344 C0.877044643,20.8224 0.961334821,20.2016 1.10857589,19.5072 C1.28782589,18.8213333 1.54496429,18.0597333 1.93440625,17.2842667 C2.3153125,16.5056 2.76983929,15.6810667 3.31932589,14.8565333 C3.85280804,14.0213333 4.46737946,13.1754667 5.15130357,12.3413333 C5.83416071,11.5061333 6.57036607,10.6677333 7.35885268,9.856 C8.15160714,9.04853333 8.98597321,8.2592 9.84061161,7.49013333 C10.7123214,6.7424 11.5936339,6.0256 12.5069554,5.3344 C13.413875,4.656 14.341067,4.03626667 15.2565223,3.4656 C16.1730446,2.896 17.089567,2.3936 17.9879509,1.97333333 C18.8767321,1.536 19.7527098,1.19146667 20.5753393,0.914133333 C21.3947679,0.628266667 22.1832545,0.469333333 22.8863839,0.381866667 C23.5948482,0.325333333 24.2222232,0.322133333 24.7204955,0.4576 C24.9722991,0.512 25.1899598,0.576 25.3596071,0.688 C25.5356562,0.782933333 25.6871652,0.852266667 25.7757232,0.9632 C25.9667098,1.14986667 26.0702054,1.24906667 26.0702054,1.24906667 C26.0702054,1.24906667 25.9560402,1.16586667 25.7405134,1.00906667 C25.6455536,0.916266667 25.484442,0.8704 25.3083929,0.805333333 C25.1376786,0.724266667 24.9242857,0.689066667 24.6820848,0.661333333 C24.2062187,0.583466667 23.6097857,0.650666667 22.9482679,0.7744 C22.2888839,0.933333333 21.5590804,1.16266667 20.7812634,1.4784 C20.0055804,1.79626667 19.180817,2.18346667 18.3453839,2.66453333 C17.5003482,3.12746667 16.6457098,3.68213333 15.7643973,4.256 C14.8852187,4.8352 14.0156429,5.4912 13.1300625,6.15466667 C12.2668884,6.82133333 11.3919777,7.54986667 10.5437411,8.2912 C9.69977232,9.03466667 8.87500893,9.7984 8.09079018,10.5792 C7.31724107,11.3696 6.55542857,12.1482667 5.86723661,12.9450667 C5.18544643,13.7450667 4.52392857,14.5194667 3.95523661,15.2981333 C3.37054018,16.0650667 2.88080357,16.8330667 2.46575446,17.5605333 C2.05177232,18.2901333 1.72954911,18.9845333 1.48734821,19.6192 C1.28035714,20.2581333 1.13631696,20.8416 1.15338839,21.3237333 C1.14912054,21.5669333 1.15658929,21.7813333 1.21313839,21.9584 C1.25368304,22.1397333 1.27822321,22.3050667 1.36037946,22.416 C1.48841518,22.6496 1.55670089,22.7754667 1.55670089,22.7754667" id="Fill-32" mask="url(#mask-12)"></path>
                                </g>
                                <path d="M2.61683661,93.8416 C2.61683661,93.8416 14.7066089,60.3013333 48.5603188,44.4368 C48.5603188,44.4368 21.5074393,56.8261333 2.61683661,93.8416" id="Fill-35" fill="#FFA1A1"></path>
                                <path d="M54.1500477,60.5776 C54.1500477,60.5776 44.507775,61.704 30.4249134,74.5029333 C20.4498643,83.5674667 15.7648241,96.2597333 15.7648241,96.2597333 C17.0249089,95.9226667 18.5784089,95.9962667 19.710458,96.1264 C30.4249134,68.7621333 54.2107482,60.9392 54.1500477,60.5776 C53.9269357,59.2453333 54.1500477,60.5776 54.1500477,60.5776" id="Fill-37" fill="#A60006"></path>
                                <g id="Group-41" transform="translate(18.138393, 0.000000)">
                                    <mask id="mask-14" fill="white">
                                        <use xlink:href="#path-13"></use>
                                    </mask>
                                    <g id="Clip-40"></g>
                                    <path d="M15.9018223,12.6046933 C15.6254786,12.7038933 15.3587375,12.8222933 15.1015991,12.9588267 C14.5147687,13.2692267 14.0218312,13.7460267 13.6249205,14.3870933 C13.2280098,15.02816 12.952733,15.7502933 12.7990902,16.5534933 C12.6443804,17.3566933 12.6230411,18.20256 12.7340054,19.09216 C12.8449696,19.98176 13.1117107,20.8244267 13.5331616,21.6190933 C14.1306616,22.7444267 14.8081839,23.1060267 15.5667955,22.7038933 C15.7983268,22.58016 16.0127866,22.4126933 16.2048402,22.2014933 C16.3990277,21.9892267 16.5526705,21.7182933 16.6689696,21.38976 C16.7852687,21.06336 16.8524875,20.6708267 16.868492,20.2142933 C16.8855634,19.7588267 16.8407509,19.22336 16.7329875,18.60576 L15.9018223,12.6046933 Z M20.690358,15.78016 C20.8450679,16.5758933 21.0093804,17.2094933 21.1811616,17.6820267 C21.3540098,18.15456 21.5449964,18.50016 21.7541214,18.71776 C21.9653804,18.9374933 22.1894429,19.0494933 22.4273759,19.0548267 C22.6663759,19.0622933 22.9267152,18.9918933 23.2083937,18.8414933 C23.6853268,18.5886933 24.0256884,18.1460267 24.2316125,17.5124267 C24.4364696,16.87776 24.5100902,16.1246933 24.456742,15.2532267 C24.4012598,14.38176 24.215608,13.4260267 23.8997866,12.38496 C23.5839652,11.3470933 23.1390411,10.28896 22.5692821,9.21162667 C21.9002955,7.95189333 21.140617,6.92469333 20.2881125,6.13002667 C19.435608,5.33642667 18.511617,4.77642667 17.5150723,4.44896 C16.5185277,4.12362667 15.4611661,4.03722667 14.3440545,4.18976 C13.2258759,4.34442667 12.0735545,4.73589333 10.8870902,5.36522667 C9.28344286,6.21536 7.99028214,7.33856 7.00760804,8.73696 C6.02493393,10.1374933 5.36661696,11.6958933 5.03159018,13.4164267 C4.69869732,15.1380267 4.68696071,16.95776 4.99958125,18.8766933 C5.31220179,20.7956267 5.96838482,22.6974933 6.96706339,24.5812267 C7.82490268,26.19616 8.79263929,27.5060267 9.87347411,28.5086933 C10.953242,29.51136 12.1076973,30.2196267 13.3400411,30.63136 C14.5702509,31.0462933 15.8559429,31.1710933 17.19605,31.0100267 C18.5372241,30.8478933 19.8986705,30.3998933 21.2814562,29.6670933 C22.1755723,29.1934933 22.9661929,28.71136 23.6554518,28.22176 C24.3425768,27.7300267 24.9390098,27.2574933 25.442617,26.8030933 C25.9462241,26.3476267 26.3623402,25.9198933 26.6898982,25.5188267 C27.0185232,25.11776 27.2617911,24.7732267 27.4229027,24.48416 C27.6747062,24.1310933 27.9169071,23.8772267 28.1495054,23.7236267 C28.3799696,23.56896 28.5997643,23.48256 28.8120902,23.46656 C29.0222821,23.4484267 29.2186036,23.48896 29.4042554,23.5860267 C29.5899071,23.68416 29.7574205,23.8036267 29.9099964,23.9412267 L31.1017955,25.21376 C30.7048848,25.9422933 30.2396884,26.66656 29.7051393,27.38976 C29.1705902,28.1108267 28.5581527,28.82016 27.8678268,29.51456 C27.1785679,30.20896 26.4028848,30.87456 25.5407777,31.5124267 C24.6797375,32.14816 23.7290723,32.74336 22.6887821,33.2948267 C20.7554429,34.3188267 18.8455768,34.93216 16.9591839,35.1316267 C15.074925,35.33216 13.281358,35.14976 11.57955,34.5854933 C9.87774196,34.02336 8.30183571,33.0910933 6.85183125,31.78976 C5.40075982,30.49056 4.15027768,28.84896 3.09931786,26.8670933 C2.29482679,25.3492267 1.69732679,23.7812267 1.30895179,22.16096 C0.920576786,20.54176 0.726389286,18.9278933 0.729551247,17.3204267 C0.730657143,15.71296 0.925911607,14.1364267 1.31321964,12.58976 C1.70052768,11.04416 2.26601875,9.59776 3.00862589,8.24842667 C3.75016607,6.89802667 4.66988929,5.66709333 5.76459464,4.55349333 C6.8593,3.43989333 8.11618393,2.50656 9.53631339,1.75456 C11.0535366,0.950293333 12.6177062,0.462826667 14.2277554,0.291093333 C15.8378045,0.118293333 17.3977062,0.259093333 18.9085277,0.713493333 C20.4182821,1.16682667 21.8234741,1.93056 23.1230366,3.00576 C24.4204652,4.07989333 25.5226393,5.46762667 26.4242241,7.16896 C27.235117,8.69749333 27.7771348,10.2516267 28.0502777,11.83136 C28.3244875,13.4110933 28.338358,14.90336 28.0972241,16.3092267 C27.8550232,17.71616 27.3674205,18.9844267 26.635483,20.11616 C25.9035455,21.24896 24.9379429,22.1332267 23.738675,22.76896 C23.3951125,22.9502933 23.0376795,23.0900267 22.6653089,23.18496 C22.2929384,23.28096 21.9205679,23.30976 21.5481973,23.27136 C21.1747598,23.2340267 20.810925,23.13056 20.453492,22.9588267 C20.0960589,22.78816 19.7546304,22.5300267 19.4313402,22.1844267 C19.0867107,23.4004267 18.6140455,24.38496 18.0090768,25.1358933 C17.404108,25.8878933 16.6796393,26.48736 15.8356705,26.93536 C15.1858893,27.2788267 14.5585143,27.4622933 13.9524786,27.48576 C13.3453759,27.5102933 12.775617,27.4046933 12.2432018,27.16896 C11.7107866,26.9342933 11.2189161,26.58336 10.7675902,26.1172267 C10.3173312,25.6510933 9.92042054,25.0932267 9.57579107,24.44576 C9.17994732,23.6980267 8.87052768,22.8798933 8.64859911,21.9860267 C8.42560357,21.0932267 8.31250536,20.1780267 8.3082375,19.23936 C8.30503661,18.3006933 8.41600089,17.3524267 8.64433125,16.3924267 C8.87266161,15.4324267 9.24289821,14.5044267 9.75397411,13.6062933 C10.266117,12.70816 10.9265679,11.8644267 11.7385277,11.07296 C12.5494205,10.2836267 13.5299607,9.58282667 14.6812152,8.97269333 C15.195492,8.70069333 15.6638893,8.47456 16.0874741,8.29749333 C16.509992,8.12042667 16.9154384,7.97536 17.3027464,7.86442667 C17.6911214,7.75349333 18.062425,7.67029333 18.4177241,7.61589333 C18.7719562,7.56042667 19.1475277,7.52202667 19.5444384,7.49962667 L20.690358,15.78016 Z" id="Fill-39" fill="#547EFD" mask="url(#mask-14)"></path>
                                </g>
                            </g>
                        </g>
                    </g>
                </g>
            </g>
        </g>
    </g>
</svg>