<svg width="299" height="224" xmlns="http://www.w3.org/2000/svg" xmlns:xlink="http://www.w3.org/1999/xlink"><defs><path id="a" d="M0 0h299v224H0z"/><path d="M13.766.506C6.49.506.59 6.398.59 13.666v144.908h155.139V13.667c0-7.269-5.9-13.161-13.178-13.161H13.766z" id="d"/><path id="g" d="M.044.55h200.817V118.4H.044z"/><path d="M20.373.646c.257.007.483.03.67.108.19.06.353.1.46.192.225.147.343.227.343.227l-.368-.175c-.111-.073-.276-.088-.462-.12-.184-.047-.4-.042-.642-.024-.483.012-1.056.19-1.683.433-.619.28-1.293.642-1.997 1.096-.702.458-1.442.99-2.173 1.62-.743.611-1.48 1.315-2.24 2.044-.756.732-1.487 1.54-2.233 2.356a55.96 55.96 0 00-4.126 5.286c-.613.92-1.216 1.827-1.745 2.738-.52.914-1.025 1.798-1.438 2.668-.432.863-.77 1.71-1.044 2.5-.27.795-.456 1.537-.577 2.206-.084.666-.116 1.266-.01 1.736.041.241.09.45.178.613.072.171.129.328.23.422l.26.317s-.105-.098-.303-.278c-.112-.078-.19-.225-.296-.396-.125-.166-.202-.381-.27-.629-.163-.49-.197-1.116-.181-1.826.048-.706.16-1.502.396-2.336.23-.836.522-1.731.908-2.644.37-.92.815-1.865 1.332-2.812a39.13 39.13 0 011.705-2.853A56.057 56.057 0 017.07 10.32a54.697 54.697 0 012.214-2.608 38.744 38.744 0 012.351-2.349 26.58 26.58 0 012.406-1.974 21.105 21.105 0 012.344-1.522 11.307 11.307 0 012.172-.955" id="i"/><path d="M24.72.458c.252.054.47.118.64.23.176.095.327.164.416.275.19.187.294.286.294.286l-.33-.24c-.094-.093-.256-.139-.432-.204-.17-.08-.384-.116-.626-.144-.476-.078-1.072-.01-1.734.113-.66.16-1.389.389-2.167.704-.775.318-1.6.705-2.436 1.187-.845.462-1.7 1.017-2.58 1.591-.88.58-1.75 1.235-2.635 1.899a55.933 55.933 0 00-5.04 4.424c-.773.79-1.535 1.57-2.223 2.366-.682.8-1.343 1.574-1.912 2.353a20.38 20.38 0 00-1.49 2.263c-.413.73-.735 1.424-.978 2.058-.207.64-.35 1.223-.334 1.705-.004.243.004.457.06.634.04.182.065.347.147.458l.197.36-.245-.33c-.096-.097-.146-.256-.217-.444-.092-.187-.127-.413-.149-.668-.069-.512.015-1.132.163-1.827.179-.686.436-1.447.825-2.223a21.05 21.05 0 011.385-2.427 26.415 26.415 0 011.832-2.516A38.966 38.966 0 017.36 9.856 55.603 55.603 0 019.84 7.49a55.898 55.898 0 012.666-2.156 39.247 39.247 0 012.75-1.868 26.403 26.403 0 012.731-1.493A21.181 21.181 0 0120.575.914c.82-.286 1.608-.445 2.311-.532" id="k"/><path id="m" d="M.73.22h30.372v34.99H.73z"/><linearGradient x1="23.917%" y1="68.65%" x2="84%" y2="28.94%" id="b"><stop stop-color="#EEE" offset="0%"/><stop stop-color="#D8D8D8" offset="100%"/></linearGradient><linearGradient x1="50%" y1="100%" x2="50%" y2=".676%" id="e"><stop stop-color="#F7EEEE" offset="0%"/><stop stop-color="#FAF7F4" offset="100%"/></linearGradient></defs><g fill="none" fill-rule="evenodd"><mask id="c" fill="#fff"><use xlink:href="#a"/></mask><use fill="url(#b)" xlink:href="#a"/><g mask="url(#c)"><path d="M36.172 135c-7.813 5.21-12.24 31 2.865 31.522 10.414.359 14.512-9.026 10.602-11.946-9.82-7.333-21.28 18.458-9.82 23.668 5.405 2.458 10.89-1.461 16.802-6.233 9.047-7.302 19.093-16.603 31.379-8.094" stroke="#D8171C" stroke-width="2"/><g transform="translate(91 21)"><mask id="f" fill="#fff"><use xlink:href="#d"/></mask><path d="M13.766.506C6.49.506.59 6.398.59 13.666v144.908h155.139V13.667c0-7.269-5.9-13.161-13.178-13.161H13.766z" fill="url(#e)" mask="url(#f)"/></g><g fill="#E1E3E6"><path d="M110.99 46.084h115.613v-.906H110.99zM110.99 58.858h115.613v-.907H110.99zM110.99 71.63h115.613v-.906H110.99zM110.99 84.404h115.613v-.906H110.99zM110.99 97.178h115.613v-.907H110.99zM110.99 109.95h115.613v-.906H110.99zM110.99 122.724h115.613v-.906H110.99zM110.99 135.498h115.613v-.908H110.99z"/></g><g transform="translate(68.344 89.6)"><mask id="h" fill="#fff"><use xlink:href="#g"/></mask><path d="M184.012 6.45L99.48 90.951a.469.469 0 01-.664 0L14.291 6.449A20.154 20.154 0 00.044.551v106.377c0 6.335 5.137 11.472 11.475 11.472h177.866c6.34 0 11.477-5.137 11.477-11.472V.551h-2.603a20.154 20.154 0 00-14.247 5.898" fill="#FFB700" mask="url(#h)"/></g><path d="M90.93 56.11c-17.98 1.41-35.454 19.31-38.844 22.96-3.484 3.56-20.526 21.872-21.069 39.895-.315 10.521 6.942 20.772 11.362 24.19l20.319-25.513s-3.279-3.266-10.45-5.27c0 0 1.774-9.159 12.765-20.69 10.371-10.88 20.352-14.055 20.352-14.055 2.349 7.065 5.768 10.182 5.768 10.182l24.513-21.52c-3.627-4.248-14.22-11.002-24.716-10.179" fill="#D8171C"/><path d="M62.449 117.44l-3.627-2.72c-2.39-1.864-8.82 2.383-14.361 9.483-5.543 7.101-8.1 14.37-5.71 16.233l3.627 2.719 20.07-25.715z" fill="#A60006"/><path d="M56.74 133.672c-5.542 7.1-11.972 11.347-14.361 9.484-2.39-1.865.166-9.132 5.709-16.233 5.542-7.1 11.971-11.347 14.361-9.484 2.39 1.864-.167 9.132-5.709 16.233" fill="#A60006"/><g transform="translate(40.603 116.267)"><mask id="j" fill="#fff"><use xlink:href="#i"/></mask><path d="M1.776 26.889s-.105-.098-.303-.278c-.112-.078-.19-.225-.296-.396-.125-.166-.202-.381-.27-.629-.163-.49-.197-1.116-.181-1.826.048-.706.16-1.502.396-2.336.23-.836.522-1.731.908-2.644.37-.92.815-1.865 1.332-2.812a39.13 39.13 0 011.705-2.853A56.057 56.057 0 017.07 10.32a54.697 54.697 0 012.214-2.608 38.744 38.744 0 012.351-2.349 26.58 26.58 0 012.406-1.974 21.105 21.105 0 012.344-1.522 11.307 11.307 0 012.172-.955c.686-.187 1.301-.307 1.816-.267.257.007.483.03.67.108.19.06.353.1.46.192.225.147.343.227.343.227l-.368-.175c-.111-.073-.276-.088-.462-.12-.184-.047-.4-.042-.642-.024-.483.012-1.056.19-1.683.433-.619.28-1.293.642-1.997 1.096-.702.458-1.442.99-2.173 1.62-.743.611-1.48 1.315-2.24 2.044-.756.732-1.487 1.54-2.233 2.356a55.96 55.96 0 00-4.126 5.286c-.613.92-1.216 1.827-1.745 2.738-.52.914-1.025 1.798-1.438 2.668-.432.863-.77 1.71-1.044 2.5-.27.795-.456 1.537-.577 2.206-.084.666-.116 1.266-.01 1.736.041.241.09.45.178.613.072.171.129.328.23.422l.26.317" mask="url(#j)"/></g><path d="M115.753 66.316l-3.057-3.347c-1.999-2.276-9.107.696-15.877 6.64-6.769 5.944-10.636 12.609-8.635 14.885l3.056 3.347 24.513-21.525z" fill="#A60006"/><path d="M107.118 81.2c-6.77 5.945-13.878 8.917-15.878 6.642-2-2.277 1.866-8.94 8.636-14.885 6.769-5.944 13.878-8.916 15.878-6.641 2 2.277-1.867 8.94-8.636 14.884" fill="#A60006"/><g transform="translate(89.683 65.067)"><mask id="l" fill="#fff"><use xlink:href="#k"/></mask><path d="M1.557 22.775l-.245-.328c-.096-.098-.146-.257-.217-.445-.092-.187-.127-.413-.149-.668-.069-.512.015-1.132.163-1.827.179-.686.436-1.447.825-2.223a21.05 21.05 0 011.385-2.427 26.415 26.415 0 011.832-2.516A38.966 38.966 0 017.36 9.856 55.603 55.603 0 019.84 7.49a55.898 55.898 0 012.666-2.156 39.247 39.247 0 012.75-1.868 26.403 26.403 0 012.731-1.493A21.181 21.181 0 0120.575.914c.82-.286 1.608-.445 2.311-.532.709-.057 1.336-.06 1.834.076.252.054.47.118.64.23.176.095.327.164.416.275.19.187.294.286.294.286l-.33-.24c-.094-.093-.256-.139-.432-.204-.17-.08-.384-.116-.626-.144-.476-.078-1.072-.01-1.734.113-.66.16-1.389.389-2.167.704-.775.318-1.6.705-2.436 1.187-.845.462-1.7 1.017-2.58 1.591-.88.58-1.75 1.235-2.635 1.899a55.933 55.933 0 00-5.04 4.424c-.773.79-1.535 1.57-2.223 2.366-.682.8-1.343 1.574-1.912 2.353a20.38 20.38 0 00-1.49 2.263c-.413.73-.735 1.424-.978 2.058-.207.64-.35 1.223-.334 1.705-.004.243.004.457.06.634.04.182.065.347.147.458l.197.36" mask="url(#l)"/></g><path d="M33.617 109.842s12.09-33.54 45.943-49.405c0 0-27.053 12.39-45.943 49.405" fill="#FFA1A1"/><path d="M85.15 76.578s-9.642 1.126-23.725 13.925c-9.975 9.064-14.66 21.757-14.66 21.757 1.26-.337 2.813-.264 3.945-.134 10.715-27.364 34.5-35.187 34.44-35.548-.223-1.333 0 0 0 0" fill="#A60006"/><g transform="translate(49.138 16)"><mask id="n" fill="#fff"><use xlink:href="#m"/></mask><path d="M15.902 12.605c-.277.099-.543.217-.8.354-.587.31-1.08.787-1.477 1.428a6.336 6.336 0 00-.826 2.166 8.073 8.073 0 00-.065 2.54c.111.889.378 1.731.8 2.526.597 1.125 1.274 1.487 2.033 1.085.231-.124.446-.291.638-.503.194-.212.348-.483.464-.811a3.93 3.93 0 00.2-1.176c.017-.455-.028-.99-.136-1.608l-.831-6.001zm4.788 3.175c.155.796.32 1.43.491 1.902.173.473.364.818.573 1.036.211.22.435.331.673.337.24.007.5-.063.781-.214.477-.252.818-.695 1.024-1.329.204-.634.278-1.387.225-2.259-.056-.871-.241-1.827-.557-2.868a18.053 18.053 0 00-1.33-3.173c-.67-1.26-1.43-2.287-2.282-3.082-.852-.794-1.776-1.354-2.773-1.681-.996-.325-2.054-.412-3.17-.26-1.12.155-2.271.547-3.458 1.176-1.604.85-2.897 1.974-3.88 3.372a12.062 12.062 0 00-1.975 4.68c-.333 1.721-.345 3.54-.032 5.46.312 1.919.968 3.82 1.967 5.704.858 1.615 1.826 2.925 2.906 3.928 1.08 1.002 2.235 1.71 3.467 2.122 1.23.415 2.516.54 3.856.379 1.341-.162 2.703-.61 4.085-1.343a21.402 21.402 0 002.374-1.445 20.406 20.406 0 001.788-1.419c.503-.455.92-.883 1.247-1.284.329-.401.572-.746.733-1.035.252-.353.494-.607.727-.76.23-.155.45-.241.662-.257.21-.019.407.022.592.119.186.098.353.218.506.355l1.192 1.273a18.787 18.787 0 01-1.397 2.176 19.46 19.46 0 01-1.837 2.125c-.69.694-1.465 1.36-2.327 1.997a22.668 22.668 0 01-2.852 1.783c-1.934 1.024-3.843 1.637-5.73 1.837-1.884.2-3.678.018-5.38-.547-1.701-.562-3.277-1.494-4.727-2.795-1.451-1.3-2.702-2.941-3.753-4.923a19.948 19.948 0 01-1.79-4.706 20.522 20.522 0 01-.58-4.84c.002-1.608.197-3.185.584-4.731A18.07 18.07 0 013.01 8.248a16.757 16.757 0 012.756-3.695 15.273 15.273 0 013.771-2.798C11.054.95 12.618.463 14.228.29c1.61-.173 3.17-.032 4.68.422 1.51.454 2.915 1.218 4.215 2.293 1.297 1.074 2.4 2.462 3.301 4.163.811 1.528 1.353 3.083 1.626 4.662.274 1.58.288 3.072.047 4.478-.242 1.407-.73 2.675-1.462 3.807a7.667 7.667 0 01-2.896 2.653 4.873 4.873 0 01-1.074.416 3.148 3.148 0 01-1.117.086 3.257 3.257 0 01-1.095-.312 3.448 3.448 0 01-1.022-.775c-.344 1.216-.817 2.201-1.422 2.952a6.938 6.938 0 01-2.173 1.8c-.65.343-1.277.526-1.884.55a3.788 3.788 0 01-1.709-.317 4.687 4.687 0 01-1.475-1.052 7.372 7.372 0 01-1.192-1.671 10.784 10.784 0 01-.927-2.46 11.506 11.506 0 01-.34-2.747c-.004-.938.107-1.887.335-2.847a10.55 10.55 0 011.11-2.786 11.489 11.489 0 011.985-2.533c.81-.79 1.791-1.49 2.942-2.1.514-.272.983-.498 1.406-.676a10.99 10.99 0 011.216-.433c.388-.11.76-.194 1.115-.248.354-.056.73-.094 1.126-.116l1.146 8.28z" fill="#547EFD" mask="url(#n)"/></g></g></g></svg>