<?xml version="1.0" encoding="UTF-8"?>
<svg width="299px" height="224px" viewBox="0 0 299 224" version="1.1" xmlns="http://www.w3.org/2000/svg" xmlns:xlink="http://www.w3.org/1999/xlink">
    <!-- Generator: Sketch 61.1 (89650) - https://sketch.com -->
    <title>mi-huisbezoek</title>
    <desc>Created with Sketch.</desc>
    <defs>
        <linearGradient x1="23.9173266%" y1="68.6503384%" x2="83.9996625%" y2="28.9398055%" id="linearGradient-1">
            <stop stop-color="#EEEEEE" offset="0%"></stop>
            <stop stop-color="#D8D8D8" offset="100%"></stop>
        </linearGradient>
        <rect id="path-2" x="0" y="0" width="299" height="224"></rect>
        <path d="M48.8906036,16.5563351 C52.4201179,23.6357838 53.372675,49.9516378 53.4704571,52.9387946 L53.4704571,52.9387946 C53.2641321,53.1758108 53.45455,50.4233189 52.7649286,93.8034 L52.7649286,93.8034 C52.5955643,94.3141135 52.5993071,95.0251622 52.7321786,95.8829351 L52.7321786,95.8829351 C52.7092536,97.3379514 52.8051643,95.5203568 51.9536643,102.327989 L51.9536643,102.327989 C51.13585,99.7885297 50.595475,97.9060378 50.595475,97.9060378 L50.595475,97.9060378 C50.595475,97.9060378 50.1285536,98.419573 49.4674714,99.2684108 L49.4674714,99.2684108 C49.0959929,97.0040595 48.3001679,95.2494811 46.9583536,94.7147838 L46.9583536,94.7147838 C46.9583536,94.7147838 46.3033536,95.4056108 45.3391,96.3527351 L45.3391,96.3527351 C45.1299679,89.0898811 44.3767179,62.3780595 41.8549679,55.640027 L41.8549679,55.640027 C42.728925,55.6245081 43.8873393,55.3573946 45.4261214,54.6106054 L45.4261214,54.6106054 C50.52015,52.1365135 44.4922786,34.2610703 43.6903714,37.7368378 L43.6903714,37.7368378 C42.8894,41.2126054 38.1401821,46.9644811 37.5240143,45.6025784 L37.5240143,45.6025784 C36.9083143,44.2406757 42.2334643,38.8871189 41.9171929,34.6123622 L41.9171929,34.6123622 C41.6013893,30.3366649 36.113425,27.7967351 36.113425,27.7967351 L36.113425,27.7967351 C36.113425,27.7967351 34.6696179,42.3934541 33.2842929,41.6819351 L33.2842929,41.6819351 C31.8989679,40.9704162 36.2729643,26.8336216 35.8794964,23.7025622 L35.8794964,23.7025622 C35.4855607,20.5724432 29.18025,17.5439027 29.18025,17.5439027 L29.18025,17.5439027 C29.18025,17.5439027 29.930225,40.0994757 28.3652429,40.2146919 L28.3652429,40.2146919 C26.8007286,40.3303784 28.7123929,18.7675459 26.8938321,16.4392378 L26.8938321,16.4392378 C25.0752714,14.1114 20.0018286,13.8061946 20.0018286,13.8061946 L20.0018286,13.8061946 C20.0018286,13.8061946 23.6665536,35.2796757 22.1516321,35.1291892 L22.1516321,35.1291892 C20.6367107,34.979173 20.1618357,16.6080649 18.8275071,14.5981297 L18.8275071,14.5981297 C17.4941143,12.5881946 13.1706464,16.0159946 12.33365,16.4223081 L12.33365,16.4223081 C11.4961857,16.8290919 15.5899357,29.1802703 15.2306214,30.7387459 L15.2306214,30.7387459 C14.871775,32.2976919 11.6234429,18.4280108 11.2126643,17.5203892 L11.2126643,17.5203892 C10.8023536,16.6122973 9.51340714,16.0197568 8.3185,17.7075568 L8.3185,17.7075568 C7.12452857,19.3948865 2.18957143,22.7874162 2.18957143,22.7874162 L2.18957143,22.7874162 C2.682225,23.8765622 1.92663571,30.1118757 1.66791071,31.2344108 L1.66791071,31.2344108 C1.40965357,32.3564757 8.38774286,32.7326919 8.92156786,33.9130703 L8.92156786,33.9130703 C9.21397857,34.561573 7.19985357,34.1928811 5.12724643,33.8241892 L5.12724643,33.8241892 C3.42565,33.5213351 1.68522143,33.2189514 1.15092857,33.4785405 L1.15092857,33.4785405 C-0.0355571429,34.0541514 0.231589286,37.4683135 1.29783571,39.8290703 L1.29783571,39.8290703 C1.91634286,41.198027 6.80357857,41.0160324 10.895925,40.8340378 L10.895925,40.8340378 C13.8612036,40.7018919 16.4091536,40.5702162 16.6164143,41.0277892 L16.6164143,41.0277892 C17.1095357,42.1174054 2.49648571,43.2333568 2.26676786,44.2303297 L2.26676786,44.2303297 C2.03751786,45.227773 2.14325357,47.7225568 4.60184286,51.8440054 L4.60184286,51.8440054 C5.99465357,54.178427 10.7873821,52.1971784 15.0247643,50.2164 L15.0247643,50.2164 C18.2684179,48.6997784 21.1864429,47.183627 22.0033214,47.6026378 L22.0033214,47.6026378 C23.8873821,48.5699838 6.99914286,54.8875946 6.58087857,55.0907514 L6.58087857,55.0907514 C6.16167857,55.2943784 9.74078571,60.1992973 12.0688429,61.3951946 L12.0688429,61.3951946 C13.25065,62.0018432 16.9780679,59.7450162 20.5786964,57.4891297 L20.5786964,57.4891297 C24.0693786,55.3014324 27.4407571,53.1137351 28.2590393,53.5341568 L28.2590393,53.5341568 C29.9213357,54.3876973 16.3169857,62.321627 14.8516571,63.0331459 L14.8516571,63.0331459 C13.3863286,63.7446649 14.0263571,65.5378054 20.9880714,68.1369892 L20.9880714,68.1369892 C22.9081571,68.8536811 24.4502143,68.3979892 25.6984571,67.3770324 L25.6984571,67.3770324 C31.5560286,73.5634378 39.8899679,68.1600324 41.5026714,63.6515514 L41.5026714,63.6515514 C42.3087893,70.5160865 42.846825,80.1373459 43.1958464,90.937573 L43.1958464,90.937573 C41.7019786,88.2899514 38.6501464,85.3042054 37.1768643,86.8292919 L37.1768643,86.8292919 C35.1842607,88.8951892 33.1013607,97.8119838 30.8369321,95.4658054 L30.8369321,95.4658054 C28.5729714,93.1186865 36.4521536,87.0178703 35.54685,83.4508703 L35.54685,83.4508703 C34.6410786,79.8838703 31.5794214,76.8111243 30.4266214,78.0065514 L30.4266214,78.0065514 C29.2728857,79.2019784 29.5690393,91.3354216 28.1196179,89.8338486 L28.1196179,89.8338486 C26.6701964,88.3313351 30.270825,76.2453892 29.20645,75.1426054 L29.20645,75.1426054 C28.1430107,74.0402919 22.7458107,68.8075946 20.753675,70.8725514 L20.753675,70.8725514 C18.7606036,72.9379784 23.1079321,84.0763297 21.9612143,82.8874865 L21.9612143,82.8874865 C20.8135607,81.6986432 17.9755393,69.2458865 16.4054107,67.6187514 L16.4054107,67.6187514 C15.6128607,66.7976595 14.5882536,66.9109946 13.5739393,67.0248 L13.5739393,67.0248 C12.5788071,67.1362541 11.5944357,67.2477081 10.8510107,66.4764649 L10.8510107,66.4764649 C10.8510107,66.4764649 10.5492429,69.9343622 9.76417857,70.7479297 L9.76417857,70.7479297 C8.97911429,71.5614973 17.3720036,78.8826649 16.2851714,78.8826649 L16.2851714,78.8826649 C15.1983393,78.8826649 8.315225,72.2495027 8.315225,72.2495027 L8.315225,72.2495027 C8.315225,72.2495027 8.858875,79.3204865 10.3681821,80.8850757 L10.3681821,80.8850757 C11.8779571,82.4496649 19.9077893,83.7640703 19.9077893,85.1400811 L19.9077893,85.1400811 C19.9077893,86.5170324 9.52323214,83.3883243 9.52323214,83.3883243 L9.52323214,83.3883243 C9.52323214,83.3883243 11.5752536,91.5235297 15.1983393,92.5242649 L15.1983393,92.5242649 C18.821425,93.5259405 24.497,92.7749189 24.497,94.1514 L24.497,94.1514 C24.497,95.5278811 17.3720036,94.6517676 17.3720036,94.6517676 L17.3720036,94.6517676 C17.3720036,94.6517676 19.0628393,104.664292 23.7727571,104.664292 L23.7727571,104.664292 C28.4822071,104.664292 29.0188393,103.788649 29.0188393,105.539935 L29.0188393,105.539935 C29.0188393,106.306005 28.3170536,106.163984 27.5268429,106.021962 L27.5268429,106.021962 C26.5083179,105.838557 25.3424179,105.655622 25.3424179,107.417724 L25.3424179,107.417724 C25.3424179,110.546432 28.7582429,116.821719 30.5351643,114.980141 L30.5351643,114.980141 C31.4881893,113.992573 32.1291536,112.556838 32.5202821,111.435243 L32.5202821,111.435243 C34.9947786,121.043805 38.0297679,135.020238 40.0789821,151.835692 L40.0789821,151.835692 L31.2589393,151.835692 C14.9920143,157.441314 15.6619857,168.739557 32.6536214,173.919584 L32.6536214,173.919584 L65.234725,173.919584 C82.2230857,168.740968 82.9019464,157.442724 66.629875,151.835692 L66.629875,151.835692 L55.8331357,151.835692 C56.1391143,145.49927 56.7543464,139.179778 57.8369679,133.939557 L57.8369679,133.939557 C57.9932321,135.188124 58.3740679,136.716032 59.1553893,138.580654 L59.1553893,138.580654 C61.9330571,145.214286 73.7670357,142.335762 73.7670357,142.335762 L73.7670357,142.335762 C66.5213321,142.335762 64.4688429,129.694897 66.642975,128.693692 L66.642975,128.693692 C68.8161714,127.692486 67.6086321,139.206584 74.7331607,140.958811 L74.7331607,140.958811 C81.8581571,142.711038 84.0322893,136.828897 84.0322893,136.828897 L84.0322893,136.828897 C78.4769536,135.7026 68.516275,126.25487 70.3891071,124.313124 L70.3891071,124.313124 C72.2624071,122.372319 81.4955679,135.577508 85.2393607,135.577508 L85.2393607,135.577508 C88.9826857,135.577508 93.0890679,125.31433 93.0890679,125.31433 L93.0890679,125.31433 C88.500325,128.068232 73.5256214,120.80867 72.1309393,118.306362 L72.1309393,118.306362 C71.3893857,116.976438 75.6155393,118.933232 80.627225,120.890027 L80.627225,120.890027 C85.0461357,122.615449 90.0751321,124.3404 92.8476536,123.812757 L92.8476536,123.812757 C98.7651107,122.686459 98.4025214,111.922914 98.4025214,111.922914 L98.4025214,111.922914 C96.530625,113.863249 80.2884964,112.048476 78.5976607,110.296249 L78.5976607,110.296249 C77.7522429,109.420605 81.7678607,109.639281 86.4164893,109.858427 L86.4164893,109.858427 C91.0660536,110.077573 96.3490964,110.296249 98.0404,109.420135 L98.0404,109.420135 C101.421604,107.667908 100.334771,98.7069081 100.334771,98.7069081 L100.334771,98.7069081 C100.334771,98.7069081 88.0170286,101.410492 84.8772393,100.534378 L84.8772393,100.534378 C81.73745,99.6577946 97.7985179,98.0316 99.2474714,94.2769622 L99.2474714,94.2769622 C100.696425,90.5218541 97.1182536,81.8124486 97.1182536,81.8124486 L97.1182536,81.8124486 C95.4587643,83.5317568 90.2356071,82.1073081 88.0633464,81.8528919 L88.0633464,81.8528919 C93.9770607,78.9169946 100.883568,75.5334 103.848846,74.2519135 L103.848846,74.2519135 C108.818425,72.1051297 122.261832,71.4857838 128.612525,73.4548054 L128.612525,73.4548054 C129.998786,74.0092541 130.826425,74.4400216 130.826425,74.4400216 L130.826425,74.4400216 C130.826425,74.4400216 128.147007,70.0726216 123.8474,65.6168108 L123.8474,65.6168108 C122.920575,64.6555784 122.220661,63.8641135 121.640518,63.2245459 L121.640518,63.2245459 C119.459836,65.4714973 116.633043,68.0368216 116.026232,66.9401514 L116.026232,66.9401514 C115.347371,65.7108649 117.058325,62.7796703 118.268204,60.9696 L118.268204,60.9696 C117.462554,60.8981189 116.425782,61.0236811 114.886064,61.2987892 L114.886064,61.2987892 C114.657282,61.340173 114.432711,61.3745027 114.213286,61.4022486 L114.213286,61.4022486 C112.187464,64.6080811 108.170443,70.5908595 106.677511,70.1403405 L106.677511,70.1403405 C105.073696,69.6569027 107.940257,63.5786595 109.221718,61.0344973 L109.221718,61.0344973 C107.504682,60.5266054 106.423464,59.7967459 105.829286,59.7967459 L105.829286,59.7967459 C105.280957,59.7967459 103.149868,67.5072973 102.273571,69.8003351 L102.273571,69.8003351 C100.462029,70.4836378 96.5151857,72.319573 100.105521,62.853973 L100.105521,62.853973 C98.8848821,61.5480324 96.2405536,63.3943135 94.4173143,64.1147676 L94.4173143,64.1147676 C92.6637857,64.8074757 92.1758107,70.8763135 91.113775,73.9537622 L91.113775,73.9537622 C89.8884571,74.6394162 88.4558786,75.0899351 87.118275,76.0610432 L87.118275,76.0610432 C87.0995607,73.2568216 90.2515143,63.9266595 90.2515143,63.9266595 L90.2515143,63.9266595 C90.2515143,63.9266595 79.0201357,67.6812973 79.0201357,69.7462541 L79.0201357,69.7462541 C79.0201357,71.8116811 86.4469,75.3782108 83.1864036,75.3782108 L83.1864036,75.3782108 C79.926375,75.3782108 76.3032893,69.9343622 76.3032893,69.9343622 L76.3032893,69.9343622 C76.3032893,69.9343622 70.4602214,73.1256162 71.5695107,76.6921459 L71.5695107,76.6921459 C72.6806714,80.2596162 69.0711536,81.5453351 67.8837321,82.7760324 L67.8837321,82.7760324 C67.880925,82.7783838 67.880925,82.7816757 67.8785857,82.7844973 L67.8785857,82.7844973 C65.12665,83.7960486 61.6266107,85.8332595 60.1215143,87.3931459 L60.1215143,87.3931459 C57.5852607,90.0210162 64.7701429,105.477389 62.8991821,107.417724 L62.8991821,107.417724 C61.0268179,109.357589 57.2231393,92.399173 57.2231393,90.7729784 L57.2231393,90.7729784 C57.2231393,89.8347892 56.4123429,89.7571946 55.3629393,90.5063351 L55.3629393,90.5063351 C58.4049464,73.0658919 63.1204786,57.9946703 70.4653679,50.3546595 L70.4653679,50.3546595 C73.2996464,47.298373 76.5638857,45.5513189 79.5810964,43.6768216 L79.5810964,43.6768216 C79.03885,44.5835027 78.56725,46.1974703 78.56725,49.0966865 L78.56725,49.0966865 C78.56725,55.9485243 95.5836821,58.2124054 93.0586571,55.5953514 L93.0586571,55.5953514 C90.5336321,52.9782973 87.7152607,44.8727189 89.07345,44.8727189 L89.07345,44.8727189 C90.4321071,44.8727189 92.6970036,53.4137676 96.3191536,55.1975027 L96.3191536,55.1975027 C99.9422393,56.9812378 104.198336,52.1938865 104.198336,52.1938865 L104.198336,52.1938865 C104.198336,52.1938865 92.8322143,43.3236486 93.9648964,42.1503243 L93.9648964,42.1503243 C95.0966429,40.977 104.923514,52.8508541 107.640361,53.9776216 L107.640361,53.9776216 C110.358143,55.1034486 115.339418,49.6596 115.339418,49.6596 L115.339418,49.6596 C115.339418,49.6596 96.5909786,39.2402919 97.1182536,37.4574973 L97.1182536,37.4574973 C97.3905464,36.5362378 102.025607,39.5219838 106.806171,42.5077297 L106.806171,42.5077297 C111.279821,45.3025459 115.880261,48.0968919 117.150025,47.688227 L117.150025,47.688227 C119.777511,46.8436216 122.041471,41.3993027 122.041471,41.3993027 L122.041471,41.3993027 C122.041471,41.3993027 103.021675,34.7351027 103.746386,33.1394757 L103.746386,33.1394757 C104.129561,32.2948703 108.569993,34.3151514 112.988904,36.3354324 L112.988904,36.3354324 C116.921243,38.1332757 120.836739,39.9311189 121.860411,39.7096216 L121.860411,39.7096216 C124.034543,39.2402919 122.947243,32.7632595 122.947243,31.6379027 L122.947243,31.6379027 C122.947243,30.5111351 111.218064,28.8684811 110.086318,27.6946865 L110.086318,27.6946865 C108.954104,26.5218324 121.588118,29.8536973 122.493889,29.8536973 L122.493889,29.8536973 C123.399661,29.8536973 124.396196,28.7274 123.489957,26.5688595 L123.489957,26.5688595 C122.585121,24.4098486 121.769646,17.2758486 121.769646,17.2758486 L121.769646,17.2758486 C120.682814,17.2758486 115.8826,13.333573 115.067593,12.4889676 L115.067593,12.4889676 C114.252586,11.6438919 111.17315,19.1531676 109.995554,19.1531676 L109.995554,19.1531676 C108.818425,19.1531676 113.437579,12.3949135 113.437579,10.7992865 L113.437579,10.7992865 C113.437579,9.20365946 110.539204,7.79567027 108.184479,7.79567027 L108.184479,7.79567027 C105.829286,7.79567027 102.206668,24.093827 101.119836,24.093827 L101.119836,24.093827 C100.033004,24.093827 104.923514,7.42039459 104.198336,6.66937297 L104.198336,6.66937297 C103.474561,5.91788108 101.391661,4.79205405 97.0438643,5.44949189 L97.0438643,5.44949189 C92.6970036,6.10598919 95.1415571,25.1608703 93.6018393,26.756027 L93.6018393,26.756027 C92.0630571,28.3521243 93.6018393,6.57531892 93.6018393,6.01240541 L93.6018393,6.01240541 C93.6018393,5.44949189 88.1681464,6.95059459 86.2663071,8.92243784 L86.2663071,8.92243784 C84.364,10.8933405 87.6244964,29.2907838 86.2663071,30.698773 L86.2663071,30.698773 C84.90765,32.1072324 83.82035,13.1459351 83.82035,11.1745622 L83.82035,11.1745622 C83.82035,9.20365946 82.1000393,9.01555135 77.2090607,15.3985297 L77.2090607,15.3985297 C75.8592929,17.1601622 75.61975,19.0892108 75.96035,20.9768757 L75.96035,20.9768757 C68.2584857,24.4996703 69.793525,37.2806757 73.1330893,40.7418649 L73.1330893,40.7418649 C74.8286036,42.4997351 76.8703321,42.9337946 78.47555,42.9347351 L78.47555,42.9347351 C71.1021214,47.4408649 66.5910429,50.5065568 61.5695321,62.4222649 L61.5695321,62.4222649 C61.5657893,58.3887568 61.1372321,49.6483135 59.0342143,47.4690811 L59.0342143,47.4690811 C56.9213714,45.2795027 61.57,46.4678757 61.57,44.2152811 L61.57,44.2152811 C61.57,41.9626865 61.3290536,33.3266432 60.3629286,32.3259081 L60.3629286,32.3259081 C59.896475,31.8424703 59.0632214,33.4319838 58.1499643,35.021027 L58.1499643,35.021027 C57.1726107,36.7219946 56.1021536,38.4234324 55.2904214,37.5821189 L55.2904214,37.5821189 C53.7207607,35.9549838 59.758925,31.0740486 59.758925,30.4481189 L59.758925,30.4481189 C59.758925,29.8221892 56.2570143,18.0579081 55.4120643,18.0579081 L55.4120643,18.0579081 C54.5661786,18.0579081 55.1701821,23.1894973 52.7551036,24.4413568 L52.7551036,24.4413568 C50.3395571,25.6922757 54.0828821,17.1822649 54.0828821,14.5539243 L54.0828821,14.5539243 C54.0828821,11.9260541 51.6079179,11.3626703 48.7698964,8.42112973 L48.7698964,8.42112973 C45.931875,5.48005946 42.7322,0.286394595 42.7322,0.286394595 L42.7322,0.286394595 C42.7322,0.286394595 45.1468107,9.04705946 48.8906036,16.5563351 M76.7566429,24.9732324 C76.8324357,24.5311784 76.8497464,24.1370919 76.847875,23.7651081 L76.847875,23.7651081 C78.5302893,27.5648919 81.6448143,30.7011243 81.1942679,31.1681027 L81.1942679,31.1681027 C81.1311071,31.2334703 81.0459571,31.2640378 80.9425607,31.2640378 L80.9425607,31.2640378 C79.7818071,31.2645081 76.34025,27.3866595 76.7566429,24.9732324 M53.8545679,53.4852486 C55.2483143,55.0517189 54.3729536,63.0383189 56.4988964,65.2410649 L56.4988964,65.2410649 C57.728425,66.5159676 59.0941,66.7741459 60.0999929,66.1312865 L60.0999929,66.1312865 C56.9377464,74.5514757 55.1439821,82.0414703 53.7708214,89.9669351 L53.7708214,89.9669351 C53.9238107,71.7270324 53.9935214,56.7898378 53.8545679,53.4852486 M30.9066429,58.4489514 C31.8489071,58.9328595 30.4710679,64.6400595 28.3119071,65.1343135 L28.3119071,65.1343135 C27.94885,65.2180216 27.64755,65.3417027 27.37245,65.4785514 L27.37245,65.4785514 C29.4342964,62.4203838 30.3545714,58.1663189 30.9066429,58.4489514 M84.2732357,83.7405568 C85.0685929,83.3427081 85.9088643,82.9241676 86.7856286,82.4877568 L86.7856286,82.4877568 C85.5341107,84.6801568 84.596525,91.6222865 82.4621607,92.1489892 L82.4621607,92.1489892 C82.3896429,92.1668595 82.3227393,92.1757946 82.2623857,92.1757946 L82.2623857,92.1757946 C80.7273464,92.1762649 83.0217179,86.5645297 84.2732357,83.7405568 M71.6434321,84.9665514 C72.348025,85.2040378 73.0849,85.434 73.8025929,85.647973 L73.8025929,85.647973 C73.78575,90.9587351 75.6431429,100.409286 72.8013786,100.409286 L72.8013786,100.409286 C69.6601857,100.409286 71.306575,89.9053297 71.6434321,84.9665514 M36.9958036,101.848314 C35.6600714,100.464308 41.248625,97.3167892 43.3142143,94.8826703 L43.3142143,94.8826703 C43.344625,95.9755784 43.3722286,97.0807135 43.3993643,98.1919622 L43.3993643,98.1919622 C41.3094464,100.092324 38.8363536,102.063227 37.5670571,102.063227 L37.5670571,102.063227 C37.3321929,102.063227 37.1385,101.995978 36.9958036,101.848314 M53.6131536,107.189643 C53.6749107,100.893195 53.6089429,102.1032 53.8831071,100.092795 L53.8831071,100.092795 C56.0913929,106.471541 60.2852643,114.907249 58.5513857,115.678022 L58.5513857,115.678022 C58.4779321,115.71047 58.4021393,115.726459 58.324475,115.726459 L58.324475,115.726459 C57.0519036,115.72693 55.1907679,111.51707 53.6131536,107.189643 M33.6917964,110.177741 C35.2783,111.194465 39.3935714,113.699595 42.7247143,114.624146 L42.7247143,114.624146 C42.5137107,116.594108 42.6667,120.552373 43.7591464,124.089746 L43.7591464,124.089746 C43.8143536,133.9626 43.7909648,143.543416 43.7404321,151.835692 L43.7404321,151.835692 L41.5396321,151.835692 C39.4179,134.344459 36.2294536,119.898227 33.6917964,110.177741 M45.7437964,116.304892 C45.7367786,115.827568 45.7311643,115.350243 45.7241464,114.872449 L45.7241464,114.872449 C46.0680214,114.793443 46.4451143,114.777454 47.0860786,113.962946 L47.0860786,113.962946 C48.2211,115.574092 49.4632607,116.908249 50.2979179,117.964005 L50.2979179,117.964005 C50.2193179,118.845762 50.143525,119.7294 50.0686679,120.614919 L50.0686679,120.614919 C48.7862714,120.444211 47.1440929,118.231119 45.7437964,116.304892 M45.8584214,128.347573 C46.901275,129.684551 47.8776929,130.2912 49.2868786,130.792038 L49.2868786,130.792038 C48.7867393,138.032319 48.4073071,145.172903 48.1247214,151.835692 L48.1247214,151.835692 L45.8850893,151.835692 C45.9112893,144.746368 45.912225,136.71227 45.8584214,128.347573 M53.3609786,131.306043 C55.2604786,131.138157 56.8058107,130.4652 57.7003536,129.973768 L57.7003536,129.973768 C55.9033143,136.245762 54.9488857,144.098335 54.5091,151.835692 L54.5091,151.835692 L53.1261143,151.835692 C53.1981643,145.774849 53.2786357,138.762178 53.3609786,131.306043 M50.9627429,131.219514 C51.3538714,131.28253 51.7393857,131.328616 52.1127357,131.343665 L52.1127357,131.343665 C51.9517929,139.753508 51.8133071,146.459562 51.7010214,151.835692 L51.7010214,151.835692 L50.0733464,151.835692 C50.2590857,145.386876 50.5341857,138.422643 50.9627429,131.219514" id="path-4"></path>
        <linearGradient x1="48.1299361%" y1="116.575558%" x2="50.7036678%" y2="-0.495110639%" id="linearGradient-6">
            <stop stop-color="#82ACF4" offset="0%"></stop>
            <stop stop-color="#F7BCEB" offset="100%"></stop>
        </linearGradient>
        <polygon id="path-7" points="0 0 21 0 21 17 0 17"></polygon>
    </defs>
    <g id="Symbols" stroke="none" stroke-width="1" fill="none" fill-rule="evenodd">
        <g id="Huisbezoek">
            <g id="mi-huisbezoek">
                <mask id="mask-3" fill="white">
                    <use xlink:href="#path-2"></use>
                </mask>
                <use id="Mask" fill="url(#linearGradient-1)" xlink:href="#path-2"></use>
                <g id="Group-64" mask="url(#mask-3)">
                    <g transform="translate(-6.000000, 8.000000)">
                        <g id="Group-3" transform="translate(167.000000, 31.000000)">
                            <mask id="mask-5" fill="white">
                                <use xlink:href="#path-4"></use>
                            </mask>
                            <g id="Clip-2"></g>
                            <path d="M48.8906036,16.5563351 C52.4201179,23.6357838 53.372675,49.9516378 53.4704571,52.9387946 L53.4704571,52.9387946 C53.2641321,53.1758108 53.45455,50.4233189 52.7649286,93.8034 L52.7649286,93.8034 C52.5955643,94.3141135 52.5993071,95.0251622 52.7321786,95.8829351 L52.7321786,95.8829351 C52.7092536,97.3379514 52.8051643,95.5203568 51.9536643,102.327989 L51.9536643,102.327989 C51.13585,99.7885297 50.595475,97.9060378 50.595475,97.9060378 L50.595475,97.9060378 C50.595475,97.9060378 50.1285536,98.419573 49.4674714,99.2684108 L49.4674714,99.2684108 C49.0959929,97.0040595 48.3001679,95.2494811 46.9583536,94.7147838 L46.9583536,94.7147838 C46.9583536,94.7147838 46.3033536,95.4056108 45.3391,96.3527351 L45.3391,96.3527351 C45.1299679,89.0898811 44.3767179,62.3780595 41.8549679,55.640027 L41.8549679,55.640027 C42.728925,55.6245081 43.8873393,55.3573946 45.4261214,54.6106054 L45.4261214,54.6106054 C50.52015,52.1365135 44.4922786,34.2610703 43.6903714,37.7368378 L43.6903714,37.7368378 C42.8894,41.2126054 38.1401821,46.9644811 37.5240143,45.6025784 L37.5240143,45.6025784 C36.9083143,44.2406757 42.2334643,38.8871189 41.9171929,34.6123622 L41.9171929,34.6123622 C41.6013893,30.3366649 36.113425,27.7967351 36.113425,27.7967351 L36.113425,27.7967351 C36.113425,27.7967351 34.6696179,42.3934541 33.2842929,41.6819351 L33.2842929,41.6819351 C31.8989679,40.9704162 36.2729643,26.8336216 35.8794964,23.7025622 L35.8794964,23.7025622 C35.4855607,20.5724432 29.18025,17.5439027 29.18025,17.5439027 L29.18025,17.5439027 C29.18025,17.5439027 29.930225,40.0994757 28.3652429,40.2146919 L28.3652429,40.2146919 C26.8007286,40.3303784 28.7123929,18.7675459 26.8938321,16.4392378 L26.8938321,16.4392378 C25.0752714,14.1114 20.0018286,13.8061946 20.0018286,13.8061946 L20.0018286,13.8061946 C20.0018286,13.8061946 23.6665536,35.2796757 22.1516321,35.1291892 L22.1516321,35.1291892 C20.6367107,34.979173 20.1618357,16.6080649 18.8275071,14.5981297 L18.8275071,14.5981297 C17.4941143,12.5881946 13.1706464,16.0159946 12.33365,16.4223081 L12.33365,16.4223081 C11.4961857,16.8290919 15.5899357,29.1802703 15.2306214,30.7387459 L15.2306214,30.7387459 C14.871775,32.2976919 11.6234429,18.4280108 11.2126643,17.5203892 L11.2126643,17.5203892 C10.8023536,16.6122973 9.51340714,16.0197568 8.3185,17.7075568 L8.3185,17.7075568 C7.12452857,19.3948865 2.18957143,22.7874162 2.18957143,22.7874162 L2.18957143,22.7874162 C2.682225,23.8765622 1.92663571,30.1118757 1.66791071,31.2344108 L1.66791071,31.2344108 C1.40965357,32.3564757 8.38774286,32.7326919 8.92156786,33.9130703 L8.92156786,33.9130703 C9.21397857,34.561573 7.19985357,34.1928811 5.12724643,33.8241892 L5.12724643,33.8241892 C3.42565,33.5213351 1.68522143,33.2189514 1.15092857,33.4785405 L1.15092857,33.4785405 C-0.0355571429,34.0541514 0.231589286,37.4683135 1.29783571,39.8290703 L1.29783571,39.8290703 C1.91634286,41.198027 6.80357857,41.0160324 10.895925,40.8340378 L10.895925,40.8340378 C13.8612036,40.7018919 16.4091536,40.5702162 16.6164143,41.0277892 L16.6164143,41.0277892 C17.1095357,42.1174054 2.49648571,43.2333568 2.26676786,44.2303297 L2.26676786,44.2303297 C2.03751786,45.227773 2.14325357,47.7225568 4.60184286,51.8440054 L4.60184286,51.8440054 C5.99465357,54.178427 10.7873821,52.1971784 15.0247643,50.2164 L15.0247643,50.2164 C18.2684179,48.6997784 21.1864429,47.183627 22.0033214,47.6026378 L22.0033214,47.6026378 C23.8873821,48.5699838 6.99914286,54.8875946 6.58087857,55.0907514 L6.58087857,55.0907514 C6.16167857,55.2943784 9.74078571,60.1992973 12.0688429,61.3951946 L12.0688429,61.3951946 C13.25065,62.0018432 16.9780679,59.7450162 20.5786964,57.4891297 L20.5786964,57.4891297 C24.0693786,55.3014324 27.4407571,53.1137351 28.2590393,53.5341568 L28.2590393,53.5341568 C29.9213357,54.3876973 16.3169857,62.321627 14.8516571,63.0331459 L14.8516571,63.0331459 C13.3863286,63.7446649 14.0263571,65.5378054 20.9880714,68.1369892 L20.9880714,68.1369892 C22.9081571,68.8536811 24.4502143,68.3979892 25.6984571,67.3770324 L25.6984571,67.3770324 C31.5560286,73.5634378 39.8899679,68.1600324 41.5026714,63.6515514 L41.5026714,63.6515514 C42.3087893,70.5160865 42.846825,80.1373459 43.1958464,90.937573 L43.1958464,90.937573 C41.7019786,88.2899514 38.6501464,85.3042054 37.1768643,86.8292919 L37.1768643,86.8292919 C35.1842607,88.8951892 33.1013607,97.8119838 30.8369321,95.4658054 L30.8369321,95.4658054 C28.5729714,93.1186865 36.4521536,87.0178703 35.54685,83.4508703 L35.54685,83.4508703 C34.6410786,79.8838703 31.5794214,76.8111243 30.4266214,78.0065514 L30.4266214,78.0065514 C29.2728857,79.2019784 29.5690393,91.3354216 28.1196179,89.8338486 L28.1196179,89.8338486 C26.6701964,88.3313351 30.270825,76.2453892 29.20645,75.1426054 L29.20645,75.1426054 C28.1430107,74.0402919 22.7458107,68.8075946 20.753675,70.8725514 L20.753675,70.8725514 C18.7606036,72.9379784 23.1079321,84.0763297 21.9612143,82.8874865 L21.9612143,82.8874865 C20.8135607,81.6986432 17.9755393,69.2458865 16.4054107,67.6187514 L16.4054107,67.6187514 C15.6128607,66.7976595 14.5882536,66.9109946 13.5739393,67.0248 L13.5739393,67.0248 C12.5788071,67.1362541 11.5944357,67.2477081 10.8510107,66.4764649 L10.8510107,66.4764649 C10.8510107,66.4764649 10.5492429,69.9343622 9.76417857,70.7479297 L9.76417857,70.7479297 C8.97911429,71.5614973 17.3720036,78.8826649 16.2851714,78.8826649 L16.2851714,78.8826649 C15.1983393,78.8826649 8.315225,72.2495027 8.315225,72.2495027 L8.315225,72.2495027 C8.315225,72.2495027 8.858875,79.3204865 10.3681821,80.8850757 L10.3681821,80.8850757 C11.8779571,82.4496649 19.9077893,83.7640703 19.9077893,85.1400811 L19.9077893,85.1400811 C19.9077893,86.5170324 9.52323214,83.3883243 9.52323214,83.3883243 L9.52323214,83.3883243 C9.52323214,83.3883243 11.5752536,91.5235297 15.1983393,92.5242649 L15.1983393,92.5242649 C18.821425,93.5259405 24.497,92.7749189 24.497,94.1514 L24.497,94.1514 C24.497,95.5278811 17.3720036,94.6517676 17.3720036,94.6517676 L17.3720036,94.6517676 C17.3720036,94.6517676 19.0628393,104.664292 23.7727571,104.664292 L23.7727571,104.664292 C28.4822071,104.664292 29.0188393,103.788649 29.0188393,105.539935 L29.0188393,105.539935 C29.0188393,106.306005 28.3170536,106.163984 27.5268429,106.021962 L27.5268429,106.021962 C26.5083179,105.838557 25.3424179,105.655622 25.3424179,107.417724 L25.3424179,107.417724 C25.3424179,110.546432 28.7582429,116.821719 30.5351643,114.980141 L30.5351643,114.980141 C31.4881893,113.992573 32.1291536,112.556838 32.5202821,111.435243 L32.5202821,111.435243 C34.9947786,121.043805 38.0297679,135.020238 40.0789821,151.835692 L40.0789821,151.835692 L31.2589393,151.835692 C14.9920143,157.441314 15.6619857,168.739557 32.6536214,173.919584 L32.6536214,173.919584 L65.234725,173.919584 C82.2230857,168.740968 82.9019464,157.442724 66.629875,151.835692 L66.629875,151.835692 L55.8331357,151.835692 C56.1391143,145.49927 56.7543464,139.179778 57.8369679,133.939557 L57.8369679,133.939557 C57.9932321,135.188124 58.3740679,136.716032 59.1553893,138.580654 L59.1553893,138.580654 C61.9330571,145.214286 73.7670357,142.335762 73.7670357,142.335762 L73.7670357,142.335762 C66.5213321,142.335762 64.4688429,129.694897 66.642975,128.693692 L66.642975,128.693692 C68.8161714,127.692486 67.6086321,139.206584 74.7331607,140.958811 L74.7331607,140.958811 C81.8581571,142.711038 84.0322893,136.828897 84.0322893,136.828897 L84.0322893,136.828897 C78.4769536,135.7026 68.516275,126.25487 70.3891071,124.313124 L70.3891071,124.313124 C72.2624071,122.372319 81.4955679,135.577508 85.2393607,135.577508 L85.2393607,135.577508 C88.9826857,135.577508 93.0890679,125.31433 93.0890679,125.31433 L93.0890679,125.31433 C88.500325,128.068232 73.5256214,120.80867 72.1309393,118.306362 L72.1309393,118.306362 C71.3893857,116.976438 75.6155393,118.933232 80.627225,120.890027 L80.627225,120.890027 C85.0461357,122.615449 90.0751321,124.3404 92.8476536,123.812757 L92.8476536,123.812757 C98.7651107,122.686459 98.4025214,111.922914 98.4025214,111.922914 L98.4025214,111.922914 C96.530625,113.863249 80.2884964,112.048476 78.5976607,110.296249 L78.5976607,110.296249 C77.7522429,109.420605 81.7678607,109.639281 86.4164893,109.858427 L86.4164893,109.858427 C91.0660536,110.077573 96.3490964,110.296249 98.0404,109.420135 L98.0404,109.420135 C101.421604,107.667908 100.334771,98.7069081 100.334771,98.7069081 L100.334771,98.7069081 C100.334771,98.7069081 88.0170286,101.410492 84.8772393,100.534378 L84.8772393,100.534378 C81.73745,99.6577946 97.7985179,98.0316 99.2474714,94.2769622 L99.2474714,94.2769622 C100.696425,90.5218541 97.1182536,81.8124486 97.1182536,81.8124486 L97.1182536,81.8124486 C95.4587643,83.5317568 90.2356071,82.1073081 88.0633464,81.8528919 L88.0633464,81.8528919 C93.9770607,78.9169946 100.883568,75.5334 103.848846,74.2519135 L103.848846,74.2519135 C108.818425,72.1051297 122.261832,71.4857838 128.612525,73.4548054 L128.612525,73.4548054 C129.998786,74.0092541 130.826425,74.4400216 130.826425,74.4400216 L130.826425,74.4400216 C130.826425,74.4400216 128.147007,70.0726216 123.8474,65.6168108 L123.8474,65.6168108 C122.920575,64.6555784 122.220661,63.8641135 121.640518,63.2245459 L121.640518,63.2245459 C119.459836,65.4714973 116.633043,68.0368216 116.026232,66.9401514 L116.026232,66.9401514 C115.347371,65.7108649 117.058325,62.7796703 118.268204,60.9696 L118.268204,60.9696 C117.462554,60.8981189 116.425782,61.0236811 114.886064,61.2987892 L114.886064,61.2987892 C114.657282,61.340173 114.432711,61.3745027 114.213286,61.4022486 L114.213286,61.4022486 C112.187464,64.6080811 108.170443,70.5908595 106.677511,70.1403405 L106.677511,70.1403405 C105.073696,69.6569027 107.940257,63.5786595 109.221718,61.0344973 L109.221718,61.0344973 C107.504682,60.5266054 106.423464,59.7967459 105.829286,59.7967459 L105.829286,59.7967459 C105.280957,59.7967459 103.149868,67.5072973 102.273571,69.8003351 L102.273571,69.8003351 C100.462029,70.4836378 96.5151857,72.319573 100.105521,62.853973 L100.105521,62.853973 C98.8848821,61.5480324 96.2405536,63.3943135 94.4173143,64.1147676 L94.4173143,64.1147676 C92.6637857,64.8074757 92.1758107,70.8763135 91.113775,73.9537622 L91.113775,73.9537622 C89.8884571,74.6394162 88.4558786,75.0899351 87.118275,76.0610432 L87.118275,76.0610432 C87.0995607,73.2568216 90.2515143,63.9266595 90.2515143,63.9266595 L90.2515143,63.9266595 C90.2515143,63.9266595 79.0201357,67.6812973 79.0201357,69.7462541 L79.0201357,69.7462541 C79.0201357,71.8116811 86.4469,75.3782108 83.1864036,75.3782108 L83.1864036,75.3782108 C79.926375,75.3782108 76.3032893,69.9343622 76.3032893,69.9343622 L76.3032893,69.9343622 C76.3032893,69.9343622 70.4602214,73.1256162 71.5695107,76.6921459 L71.5695107,76.6921459 C72.6806714,80.2596162 69.0711536,81.5453351 67.8837321,82.7760324 L67.8837321,82.7760324 C67.880925,82.7783838 67.880925,82.7816757 67.8785857,82.7844973 L67.8785857,82.7844973 C65.12665,83.7960486 61.6266107,85.8332595 60.1215143,87.3931459 L60.1215143,87.3931459 C57.5852607,90.0210162 64.7701429,105.477389 62.8991821,107.417724 L62.8991821,107.417724 C61.0268179,109.357589 57.2231393,92.399173 57.2231393,90.7729784 L57.2231393,90.7729784 C57.2231393,89.8347892 56.4123429,89.7571946 55.3629393,90.5063351 L55.3629393,90.5063351 C58.4049464,73.0658919 63.1204786,57.9946703 70.4653679,50.3546595 L70.4653679,50.3546595 C73.2996464,47.298373 76.5638857,45.5513189 79.5810964,43.6768216 L79.5810964,43.6768216 C79.03885,44.5835027 78.56725,46.1974703 78.56725,49.0966865 L78.56725,49.0966865 C78.56725,55.9485243 95.5836821,58.2124054 93.0586571,55.5953514 L93.0586571,55.5953514 C90.5336321,52.9782973 87.7152607,44.8727189 89.07345,44.8727189 L89.07345,44.8727189 C90.4321071,44.8727189 92.6970036,53.4137676 96.3191536,55.1975027 L96.3191536,55.1975027 C99.9422393,56.9812378 104.198336,52.1938865 104.198336,52.1938865 L104.198336,52.1938865 C104.198336,52.1938865 92.8322143,43.3236486 93.9648964,42.1503243 L93.9648964,42.1503243 C95.0966429,40.977 104.923514,52.8508541 107.640361,53.9776216 L107.640361,53.9776216 C110.358143,55.1034486 115.339418,49.6596 115.339418,49.6596 L115.339418,49.6596 C115.339418,49.6596 96.5909786,39.2402919 97.1182536,37.4574973 L97.1182536,37.4574973 C97.3905464,36.5362378 102.025607,39.5219838 106.806171,42.5077297 L106.806171,42.5077297 C111.279821,45.3025459 115.880261,48.0968919 117.150025,47.688227 L117.150025,47.688227 C119.777511,46.8436216 122.041471,41.3993027 122.041471,41.3993027 L122.041471,41.3993027 C122.041471,41.3993027 103.021675,34.7351027 103.746386,33.1394757 L103.746386,33.1394757 C104.129561,32.2948703 108.569993,34.3151514 112.988904,36.3354324 L112.988904,36.3354324 C116.921243,38.1332757 120.836739,39.9311189 121.860411,39.7096216 L121.860411,39.7096216 C124.034543,39.2402919 122.947243,32.7632595 122.947243,31.6379027 L122.947243,31.6379027 C122.947243,30.5111351 111.218064,28.8684811 110.086318,27.6946865 L110.086318,27.6946865 C108.954104,26.5218324 121.588118,29.8536973 122.493889,29.8536973 L122.493889,29.8536973 C123.399661,29.8536973 124.396196,28.7274 123.489957,26.5688595 L123.489957,26.5688595 C122.585121,24.4098486 121.769646,17.2758486 121.769646,17.2758486 L121.769646,17.2758486 C120.682814,17.2758486 115.8826,13.333573 115.067593,12.4889676 L115.067593,12.4889676 C114.252586,11.6438919 111.17315,19.1531676 109.995554,19.1531676 L109.995554,19.1531676 C108.818425,19.1531676 113.437579,12.3949135 113.437579,10.7992865 L113.437579,10.7992865 C113.437579,9.20365946 110.539204,7.79567027 108.184479,7.79567027 L108.184479,7.79567027 C105.829286,7.79567027 102.206668,24.093827 101.119836,24.093827 L101.119836,24.093827 C100.033004,24.093827 104.923514,7.42039459 104.198336,6.66937297 L104.198336,6.66937297 C103.474561,5.91788108 101.391661,4.79205405 97.0438643,5.44949189 L97.0438643,5.44949189 C92.6970036,6.10598919 95.1415571,25.1608703 93.6018393,26.756027 L93.6018393,26.756027 C92.0630571,28.3521243 93.6018393,6.57531892 93.6018393,6.01240541 L93.6018393,6.01240541 C93.6018393,5.44949189 88.1681464,6.95059459 86.2663071,8.92243784 L86.2663071,8.92243784 C84.364,10.8933405 87.6244964,29.2907838 86.2663071,30.698773 L86.2663071,30.698773 C84.90765,32.1072324 83.82035,13.1459351 83.82035,11.1745622 L83.82035,11.1745622 C83.82035,9.20365946 82.1000393,9.01555135 77.2090607,15.3985297 L77.2090607,15.3985297 C75.8592929,17.1601622 75.61975,19.0892108 75.96035,20.9768757 L75.96035,20.9768757 C68.2584857,24.4996703 69.793525,37.2806757 73.1330893,40.7418649 L73.1330893,40.7418649 C74.8286036,42.4997351 76.8703321,42.9337946 78.47555,42.9347351 L78.47555,42.9347351 C71.1021214,47.4408649 66.5910429,50.5065568 61.5695321,62.4222649 L61.5695321,62.4222649 C61.5657893,58.3887568 61.1372321,49.6483135 59.0342143,47.4690811 L59.0342143,47.4690811 C56.9213714,45.2795027 61.57,46.4678757 61.57,44.2152811 L61.57,44.2152811 C61.57,41.9626865 61.3290536,33.3266432 60.3629286,32.3259081 L60.3629286,32.3259081 C59.896475,31.8424703 59.0632214,33.4319838 58.1499643,35.021027 L58.1499643,35.021027 C57.1726107,36.7219946 56.1021536,38.4234324 55.2904214,37.5821189 L55.2904214,37.5821189 C53.7207607,35.9549838 59.758925,31.0740486 59.758925,30.4481189 L59.758925,30.4481189 C59.758925,29.8221892 56.2570143,18.0579081 55.4120643,18.0579081 L55.4120643,18.0579081 C54.5661786,18.0579081 55.1701821,23.1894973 52.7551036,24.4413568 L52.7551036,24.4413568 C50.3395571,25.6922757 54.0828821,17.1822649 54.0828821,14.5539243 L54.0828821,14.5539243 C54.0828821,11.9260541 51.6079179,11.3626703 48.7698964,8.42112973 L48.7698964,8.42112973 C45.931875,5.48005946 42.7322,0.286394595 42.7322,0.286394595 L42.7322,0.286394595 C42.7322,0.286394595 45.1468107,9.04705946 48.8906036,16.5563351 M76.7566429,24.9732324 C76.8324357,24.5311784 76.8497464,24.1370919 76.847875,23.7651081 L76.847875,23.7651081 C78.5302893,27.5648919 81.6448143,30.7011243 81.1942679,31.1681027 L81.1942679,31.1681027 C81.1311071,31.2334703 81.0459571,31.2640378 80.9425607,31.2640378 L80.9425607,31.2640378 C79.7818071,31.2645081 76.34025,27.3866595 76.7566429,24.9732324 M53.8545679,53.4852486 C55.2483143,55.0517189 54.3729536,63.0383189 56.4988964,65.2410649 L56.4988964,65.2410649 C57.728425,66.5159676 59.0941,66.7741459 60.0999929,66.1312865 L60.0999929,66.1312865 C56.9377464,74.5514757 55.1439821,82.0414703 53.7708214,89.9669351 L53.7708214,89.9669351 C53.9238107,71.7270324 53.9935214,56.7898378 53.8545679,53.4852486 M30.9066429,58.4489514 C31.8489071,58.9328595 30.4710679,64.6400595 28.3119071,65.1343135 L28.3119071,65.1343135 C27.94885,65.2180216 27.64755,65.3417027 27.37245,65.4785514 L27.37245,65.4785514 C29.4342964,62.4203838 30.3545714,58.1663189 30.9066429,58.4489514 M84.2732357,83.7405568 C85.0685929,83.3427081 85.9088643,82.9241676 86.7856286,82.4877568 L86.7856286,82.4877568 C85.5341107,84.6801568 84.596525,91.6222865 82.4621607,92.1489892 L82.4621607,92.1489892 C82.3896429,92.1668595 82.3227393,92.1757946 82.2623857,92.1757946 L82.2623857,92.1757946 C80.7273464,92.1762649 83.0217179,86.5645297 84.2732357,83.7405568 M71.6434321,84.9665514 C72.348025,85.2040378 73.0849,85.434 73.8025929,85.647973 L73.8025929,85.647973 C73.78575,90.9587351 75.6431429,100.409286 72.8013786,100.409286 L72.8013786,100.409286 C69.6601857,100.409286 71.306575,89.9053297 71.6434321,84.9665514 M36.9958036,101.848314 C35.6600714,100.464308 41.248625,97.3167892 43.3142143,94.8826703 L43.3142143,94.8826703 C43.344625,95.9755784 43.3722286,97.0807135 43.3993643,98.1919622 L43.3993643,98.1919622 C41.3094464,100.092324 38.8363536,102.063227 37.5670571,102.063227 L37.5670571,102.063227 C37.3321929,102.063227 37.1385,101.995978 36.9958036,101.848314 M53.6131536,107.189643 C53.6749107,100.893195 53.6089429,102.1032 53.8831071,100.092795 L53.8831071,100.092795 C56.0913929,106.471541 60.2852643,114.907249 58.5513857,115.678022 L58.5513857,115.678022 C58.4779321,115.71047 58.4021393,115.726459 58.324475,115.726459 L58.324475,115.726459 C57.0519036,115.72693 55.1907679,111.51707 53.6131536,107.189643 M33.6917964,110.177741 C35.2783,111.194465 39.3935714,113.699595 42.7247143,114.624146 L42.7247143,114.624146 C42.5137107,116.594108 42.6667,120.552373 43.7591464,124.089746 L43.7591464,124.089746 C43.8143536,133.9626 43.7909648,143.543416 43.7404321,151.835692 L43.7404321,151.835692 L41.5396321,151.835692 C39.4179,134.344459 36.2294536,119.898227 33.6917964,110.177741 M45.7437964,116.304892 C45.7367786,115.827568 45.7311643,115.350243 45.7241464,114.872449 L45.7241464,114.872449 C46.0680214,114.793443 46.4451143,114.777454 47.0860786,113.962946 L47.0860786,113.962946 C48.2211,115.574092 49.4632607,116.908249 50.2979179,117.964005 L50.2979179,117.964005 C50.2193179,118.845762 50.143525,119.7294 50.0686679,120.614919 L50.0686679,120.614919 C48.7862714,120.444211 47.1440929,118.231119 45.7437964,116.304892 M45.8584214,128.347573 C46.901275,129.684551 47.8776929,130.2912 49.2868786,130.792038 L49.2868786,130.792038 C48.7867393,138.032319 48.4073071,145.172903 48.1247214,151.835692 L48.1247214,151.835692 L45.8850893,151.835692 C45.9112893,144.746368 45.912225,136.71227 45.8584214,128.347573 M53.3609786,131.306043 C55.2604786,131.138157 56.8058107,130.4652 57.7003536,129.973768 L57.7003536,129.973768 C55.9033143,136.245762 54.9488857,144.098335 54.5091,151.835692 L54.5091,151.835692 L53.1261143,151.835692 C53.1981643,145.774849 53.2786357,138.762178 53.3609786,131.306043 M50.9627429,131.219514 C51.3538714,131.28253 51.7393857,131.328616 52.1127357,131.343665 L52.1127357,131.343665 C51.9517929,139.753508 51.8133071,146.459562 51.7010214,151.835692 L51.7010214,151.835692 L50.0733464,151.835692 C50.2590857,145.386876 50.5341857,138.422643 50.9627429,131.219514" id="Fill-1" fill="url(#linearGradient-6)" mask="url(#mask-5)"></path>
                        </g>
                        <g id="Group-63">
                            <g id="Group" transform="translate(0.000047, 89.091160)">
                                <path d="M167.604873,1.20711626 L128.496519,1.20711626 C122.435658,1.20711626 106.227601,43.7767377 96.4377017,71.1344414 L167.604873,71.1344414 L167.604873,1.20711626 Z" id="Fill-4" fill="#70A3FF"></path>
                                <path d="M130.368513,78.4970996 L30.0117019,78.4970996 C24.2291547,78.4970996 19.5420006,73.8169428 19.5420006,68.0446555 L19.5420006,11.659842 C19.5420006,5.88661602 24.2291547,1.20692853 30.0117019,1.20692853 L130.368513,1.20692853 C136.15059,1.20692853 140.838685,5.88661602 140.838685,11.659842 L140.838685,68.0446555 C140.838685,73.8169428 136.15059,78.4970996 130.368513,78.4970996" id="Fill-6" fill="#99BEFF"></path>
                                <polygon id="Fill-8" fill="#D6E5FF" points="26.7209624 82.6388413 147.573378 82.6388413 147.573378 48.1459166 26.7209624 48.1459166"></polygon>
                                <polygon id="Fill-10" fill="#8FB7FF" points="26.7209624 86.585905 147.573378 86.585905 147.573378 55.5660208 26.7209624 55.5660208"></polygon>
                                <path d="M172.966329,86.5857172 L147.573425,86.5857172 L147.573425,5.23584332 C147.573425,2.34430238 149.921703,1.84741111e-13 152.818618,1.84741111e-13 L167.721605,1.84741111e-13 C170.61805,1.84741111e-13 172.966329,2.34430238 172.966329,5.23584332 L172.966329,86.5857172 Z" id="Fill-11" fill="#8FB7FF"></path>
                                <path d="M33.3775204,86.5857172 L1.31450406e-13,86.5857172 L1.31450406e-13,6.77853039 C1.31450406e-13,3.47867252 2.67971698,0.803961958 5.98470126,0.803961958 L27.3923491,0.803961958 C30.6978035,0.803961958 33.3775204,3.47867252 33.3775204,6.77853039 L33.3775204,86.5857172 Z" id="Fill-12" fill="#BFD7FF"></path>
                                <polygon id="Fill-13" fill="#99BEFF" points="3.14274387 99.2357512 6.95499387 99.2357512 6.95499387 86.585905 3.14274387 86.585905"></polygon>
                                <polygon id="Fill-14" fill="#99BEFF" points="31.3780285 100.61605 35.7732344 100.61605 35.7732344 86.5854357 31.3780285 86.5854357"></polygon>
                                <polygon id="Fill-15" fill="#99BEFF" points="164.486623 98.0370829 169.414011 98.0370829 169.414011 86.585905 164.486623 86.585905"></polygon>
                                <polygon id="Fill-16" fill="#99BEFF" points="147.573378 98.0370829 152.910716 98.0370829 152.910716 86.585905 147.573378 86.585905"></polygon>
                            </g>
                            <path d="M170.455673,135.194111 C170.944604,136.748062 172.421739,141.561978 173.279249,144.360123 C173.62056,145.474781 173.257153,146.684244 172.361093,147.431886 C172.318312,147.467555 172.280232,147.501816 172.248733,147.533261 C171.86417,147.916704 171.032518,149.17263 170.647485,149.17263 C170.263392,149.17263 169.302925,149.988795 168.76228,149.988795 C168.221636,149.988795 167.893958,150.09017 167.061365,150.400866 C166.229243,150.711093 164.756339,149.642899 164.756339,149.17263 C164.756339,148.702362 164.371776,145.679409 163.923276,143.12203 C163.475246,140.564183 163.500162,134.883415 163.500162,134.883415 C163.235952,134.619652 162.850919,134.183644 162.377972,133.620449 C164.421139,132.54099 166.468067,131.471857 168.656502,130.826998 C169.646117,133.150649 170.318867,134.760451 170.455673,135.194111" id="Fill-17" fill="#FC7575"></path>
                            <path d="M135.812339,74.7143014 L144.079971,53.2457481 C144.079971,53.2457481 154.862776,93.0993579 154.862776,96.3597921 C154.862776,98.9889776 164.537025,121.15871 168.656267,130.827373 C166.467831,131.472232 163.405432,133.555118 161.362736,134.635046 C156.476718,128.820988 142.667714,107.703493 142.667714,107.703493 L135.812339,74.7143014 Z" id="Fill-18" fill="#210D61"></path>
                            <path d="M117.953107,255.799481 C125.846989,255.799481 126.847887,245.647408 126.847887,245.647408 L120.012258,195.371391 L116.643336,133.21476 L114.718171,117.501598 L147.126763,120.6447 L152.391701,136.338619 L159.871873,194.225288 L147.67822,244.501305 C147.67822,244.501305 148.678178,254.653847 156.57206,254.653847 C164.466412,254.653847 164.274545,257.779114 164.274545,257.779114 L141.170269,257.779114 C141.170269,257.779114 142.517179,246.526932 142.517179,245.48502 C142.517179,244.443108 143.961406,190.161831 143.961406,190.161831 L135.201082,140.673349 L131.774805,192.618303 C131.774805,192.618303 132.007987,245.589211 132.007987,246.631123 C132.007987,247.673036 133.355838,258.925218 133.355838,258.925218 L123.729072,258.925218 L110.251091,258.925218 C110.251091,258.925218 110.059225,255.799481 117.953107,255.799481" id="Fill-20" fill="#1E3340"></path>
                            <path d="M113.332617,49.373214 C117.747568,43.3066569 135.228255,37.9473799 143.442763,47.8549321 C150.582563,56.4676033 152.124106,81.5293457 152.593761,103.356467 C153.017815,123.034058 156.127227,140.083402 156.127227,140.083402 L114.162859,140.673349 L113.332617,83.967514 C113.332617,83.967514 108.917665,55.4397711 113.332617,49.373214" id="Fill-21" fill="#574591"></path>
                            <path d="M137.068468,33.8083603 C137.068468,33.8083603 137.183179,42.765989 138.070306,47.328344 C138.413498,49.0934934 137.574794,50.8994745 136.020088,51.549027 C134.8711,52.0277434 133.353064,52.3098106 131.449995,51.9610985 C126.501921,51.0534147 126.334556,45.6983616 126.334556,45.6983616 L128.003033,29.3642764 L137.068468,33.8083603 Z" id="Fill-22" fill="#FC7575"></path>
                            <path d="M128.002939,29.3643702 L137.068374,33.8084542 C137.068374,33.8084542 137.110686,37.115352 137.342928,40.7338848 C134.977255,40.8460546 132.00512,39.5539897 128.850576,35.6562056 C128.38139,35.0770526 127.944173,34.502593 127.536574,33.9342346 L128.002939,29.3643702 Z" id="Fill-23" fill="#FD5E5A"></path>
                            <path d="M122.979833,16.4733823 C124.070055,13.4776502 133.965732,9.30296155 136.481845,10.846118 C136.481845,10.846118 139.584206,13.3870695 140.926415,17.6532775 C142.268154,21.9190161 143.442528,25.0048595 143.442528,25.0048595 L142.016636,25.9120741 C142.016636,25.9120741 142.240886,27.0896225 142.412482,28.57599 C140.923594,28.7721699 138.615276,28.9237634 136.928465,28.3263066 C136.928465,28.3263066 138.900172,29.9511264 142.540827,29.9196813 C142.655067,31.4487578 142.645665,33.0313379 142.268154,33.8991287 C140.926415,36.9854415 135.2661,39.4808681 128.850294,32.5380723 C122.434957,25.5948071 121.889611,19.4681758 122.979833,16.4733823" id="Fill-24" fill="#FC7575"></path>
                            <path d="M126.837732,17.5623683 C126.837732,17.5623683 129.688575,15.0209474 133.797944,16.1102619 C137.907784,17.1995763 139.291364,15.519845 138.494501,14.6581554 C138.494501,14.6581554 142.100366,14.7487361 143.442575,11.5718426 C144.784314,8.3954185 144.448644,-1.22490386 138.074679,0.589994499 C131.701653,2.40489286 132.988858,6.76168145 132.988858,6.76168145 C132.988858,6.76168145 130.946631,4.67410247 129.018175,5.76294762 C127.089249,6.85273143 127.340767,8.3954185 127.340767,8.3954185 C127.340767,8.3954185 125.579675,11.9351039 123.147245,12.3889458 C120.715754,12.8423184 120.967742,18.1067908 120.967742,18.1067908 C120.967742,18.1067908 119.54138,19.195636 120.547919,23.008002 C121.554458,26.8198987 127.474753,32.7193744 127.474753,34.5342727 C127.474753,34.5342727 128.934023,32.1749518 127.760119,28.4536358 C126.586215,24.7323197 126.586215,22.5541601 127.844271,22.5541601 C129.101858,22.5541601 126.837732,17.5623683 126.837732,17.5623683" id="Fill-25" fill="#0B1742"></path>
                            <path d="M128.651195,25.015748 C128.651195,25.015748 128.242656,21.8848489 127.330142,21.8848489 C126.418098,21.8848489 125.569051,22.2255823 125.789069,23.9949557 C126.009558,25.7647984 126.952631,27.7392689 128.148161,26.9221657 C129.34322,26.1050625 128.651195,25.015748 128.651195,25.015748" id="Fill-26" fill="#FC7575"></path>
                            <path d="M120.108587,11.5985944 C120.211074,11.2742875 120.471054,10.9293301 120.790269,10.7814912 C121.830657,10.3027748 123.220349,11.3348311 124.136154,12.0486817 L124.291296,11.8482779 C123.674491,11.1588324 123.020546,10.4703256 122.104741,10.0300942 C120.759241,9.4157415 119.556189,10.0427661 119.047043,11.2099893 L120.108587,11.5985944 Z" id="Fill-27" fill="#0B1742"></path>
                            <path d="M120.944188,16.649381 C120.844522,16.0965105 120.845462,15.4493047 120.980388,14.874845 C121.644206,12.0034853 124.87585,12.253638 125.032872,12.16822 L125.032872,11.9898747 C124.941668,12.0246051 120.358882,11.0629483 119.703056,15.6999268 C119.64429,16.1021424 119.616083,16.4424066 119.651812,16.9323869 L120.944188,16.649381 Z" id="Fill-28" fill="#0B1742"></path>
                            <path d="M137.211246,20.3733253 C137.211246,21.1439648 137.52576,21.7691121 137.913614,21.7691121 C138.301467,21.7691121 138.615511,21.1439648 138.615511,20.3733253 C138.615511,19.6026857 138.301467,18.9775384 137.913614,18.9775384 C137.52576,18.9775384 137.211246,19.6026857 137.211246,20.3733253" id="Fill-29" fill="#2846A6"></path>
                            <path d="M135.465292,18.1215278 C136.750616,17.2790808 138.55731,17.5869612 138.575175,17.5907158 L138.657447,17.0538025 C138.576115,17.0378453 136.65142,16.7064984 135.204373,17.6559526 L135.465292,18.1215278 Z" id="Fill-30" fill="#2846A6"></path>
                            <path d="M128.04793,23.7525937 C128.04793,23.7525937 127.516218,22.6914391 127.04045,22.8435019 C126.564213,22.9946261 126.456554,25.1263221 127.30231,26.02415 C128.148067,26.9219779 128.860307,25.450629 128.04793,23.7525937" id="Fill-31" fill="#FD5E5A"></path>
                            <path d="M227.227969,74.2009485 C227.227969,74.2009485 208.014869,80.2844014 206.86118,91.1967887 L211.985551,92.8539923 L229.708823,81.8378831 L227.227969,74.2009485 Z" id="Fill-32" fill="#2E98A0"></path>
                            <path d="M248.345926,148.65388 C248.345926,148.65388 237.264591,243.685187 234.493669,253.829751 L234.493669,260.236103 L213.244454,260.236103 C213.244454,260.236103 214.528367,258.100183 216.9293,258.100183 C219.330232,258.100183 225.400496,255.786856 227.063331,254.185034 C228.725696,252.58368 226.016831,121.247366 226.016831,121.247366 L252.409223,121.247366 L248.345926,148.65388 Z" id="Fill-33" fill="#0F1D5B"></path>
                            <polygon id="Fill-34" fill="#D3C4BA" points="251.468313 40.6104041 251.976519 48.5509951 233.126356 46.4122592 237.530964 41.0248223"></polygon>
                            <path d="M236.003337,129.483776 L239.069028,144.857143 C239.069028,144.857143 263.59737,228.13033 262.524073,257.229248 C262.524073,257.229248 260.459281,260.678352 253.172331,262.720406 C252.780246,262.830229 252.406496,264.184246 252.406496,264.184246 L271.415562,264.184246 L270.342735,258.327479 C270.342735,258.327479 269.729221,159.315317 269.729221,147.785291 C269.729221,136.255266 266.663531,121.247507 266.663531,121.247507 L234.776779,121.247507 L236.003337,129.483776 Z" id="Fill-35" fill="#1A2A63"></path>
                            <path d="M223.253902,101.534388 C223.253902,74.5953263 231.137441,47.7984717 237.032819,44.3897293 C237.032819,44.3897293 243.887253,43.9185222 247.412256,43.8007204 C252.671553,43.6247217 260.766649,46.2769045 265.134588,61.1358861 C267.888114,70.503709 266.587276,93.1141418 266.292507,112.818015 C266.161812,121.553651 267.491798,129.718581 267.304218,135.904348 C252.446833,135.904348 241.578465,135.411083 227.162058,135.411083 C226.936867,130.709806 223.253902,110.002506 223.253902,101.534388" id="Fill-36" fill="#D24307"></path>
                            <path d="M244.183244,76.2831301 C244.141403,76.6834685 252.947799,44.590227 252.947799,44.590227 C252.947799,44.590227 255.901129,45.5898995 259.825269,48.1806 C263.748939,50.7722392 269.17419,68.6621528 269.17419,68.6621528 C269.17419,68.6621528 267.843264,110.982091 267.843264,114.201224 C267.843264,115.933051 270.664959,141.849443 273.273687,165.436551 L241.128837,168.478747 C241.612596,135.578258 244.183244,76.2831301 244.183244,76.2831301" id="Fill-37" fill="#5CD4ED"></path>
                            <path d="M237.032631,44.3898232 C237.032631,44.3898232 225.694607,48.798238 223.253714,78.4091942 C220.813761,108.02062 220.813761,168.478747 220.813761,168.478747 L231.922833,168.478747 C231.922833,168.478747 233.126356,82.1107983 233.126356,76.1883255 C233.126356,70.266322 237.032631,44.3898232 237.032631,44.3898232" id="Fill-38" fill="#42AEBC"></path>
                            <polygon id="Fill-39" fill="#9DE5F4" points="237.530776 41.0247285 233.143092 75.4378672 231.586035 58.2312978 233.126638 56.3652425 233.126638 46.4121653"></polygon>
                            <path d="M257.196608,151.378199 L255.105018,151.378199 C251.03749,151.378199 247.740968,148.086789 247.740968,144.026617 L247.740968,131.591254 L264.561128,131.591254 L264.561128,144.026147 C264.561128,148.086789 261.263666,151.378199 257.196608,151.378199" id="Fill-40" fill="#9DE5F4"></path>
                            <polygon id="Fill-41" fill="#9DE5F4" points="264.561363 117.392526 268.947167 117.392526 268.947167 107.778305 264.561363 107.778305"></polygon>
                            <path d="M256.760472,78.309884 C256.768464,78.3023747 256.775516,78.2925188 256.783508,78.2850095 C256.582294,78.2709296 256.595928,78.2812549 256.760472,78.309884" id="Fill-42" fill="#FC7575"></path>
                            <polygon id="Fill-43" fill="#1E3340" points="211.006796 95.8103007 182.993881 75.8332775 212.079153 73.1961133 234.073988 96.3598859"></polygon>
                            <path d="M223.010612,86.6931938 C223.010612,86.6931938 226.433598,87.4572627 227.700117,88.8103405 C229.314999,90.5365356 233.148875,93.3431278 234.759996,93.3431278 C236.371587,93.3431278 243.232603,94.0128614 243.232603,94.0128614 L244.383941,101.550298 C244.383941,101.550298 218.784181,95.6972861 217.578308,94.4080371 C216.372906,93.1192575 223.582285,95.3654699 223.582285,94.7910102 C223.582285,94.2165506 214.899062,93.5712221 215.346151,92.123809 C215.794181,90.6759265 223.358505,94.073405 224.029845,93.3557997 C224.701184,92.6377251 214.899062,91.4414034 214.899062,89.9104496 C214.899062,88.3799651 224.656052,92.123809 224.656052,92.123809 C224.656052,92.123809 224.83517,91.3461295 222.194944,90.1024055 C219.553777,88.8582122 216.993472,87.8566624 217.578308,87.2310457 C218.163145,86.6058984 224.915092,90.5707966 225.804569,89.6185265 L223.010612,86.6931938 Z" id="Fill-44" fill="#FC7575"></path>
                            <path d="M257.177333,51.0374106 C257.177333,51.0374106 253.934875,56.9584754 254.581768,65.4890139 C255.229131,74.0200218 256.333927,87.1002435 254.518301,91.3655128 C252.701735,95.6312514 239.401877,91.3655128 239.401877,91.3655128 L239.401877,101.460328 C239.401877,101.460328 258.687377,109.280301 264.273411,106.721045 C269.859916,104.16179 269.327733,82.1239396 269.327733,71.3185595 C269.327733,60.51271 260.740416,43.2845515 257.177333,51.0374106" id="Fill-45" fill="#9DE5F4"></path>
                            <path d="M246.173052,13.1647011 C246.188989,9.12846473 242.148728,6.80152755 238.317202,6.9549984 C234.559957,7.1047146 230.894386,7.15164758 229.595899,9.5752667 C226.463921,15.4203001 231.304336,26.3608472 231.304336,26.3608472 C231.304336,26.3608472 233.866992,31.4572996 238.992303,31.4572996 C242.500382,31.4572996 246.141506,20.7134017 246.173052,13.1647011" id="Fill-46" fill="#F98A8A"></path>
                            <path d="M249.811872,24.4437288 C249.811872,24.4437288 251.196392,42.9963361 250.698529,46.8931814 C250.199726,50.7900268 239.988123,51.7648248 237.99573,48.7672153 C236.002397,45.7696059 237.99573,32.9554942 237.99573,32.9554942 L249.811872,24.4437288 Z" id="Fill-47" fill="#EA7373"></path>
                            <path d="M237.186926,40.7282059 C237.401773,36.7731636 237.996012,32.9551657 237.996012,32.9551657 L249.811684,24.4438696 C249.811684,24.4438696 250.243259,29.6679797 250.502769,35.3365451 C250.269586,35.21405 249.966825,35.0624565 249.811684,34.8841112 C248.459602,33.3245282 246.893143,27.9070543 246.893143,27.9070543 C246.893143,27.9070543 246.17291,33.4061916 246.17291,36.4436941 C246.17291,38.3787409 242.851472,39.6590726 239.59444,40.3320915 C239.0726,39.5877345 238.675814,38.6476669 238.430879,37.8479289 C238.515501,38.7213516 238.69838,39.6313821 239.010074,40.4470773 C238.384336,40.5630018 237.768001,40.6568678 237.186926,40.7282059" id="Fill-48" fill="#D86666"></path>
                            <path d="M232.621534,33.7799189 C232.315012,34.5050335 231.74569,35.5089299 231.068709,36.1481571 C229.905618,34.6913574 229.224876,32.6995217 229.224876,31.0822112 C229.224876,28.1596945 230.949767,26.5742984 230.949767,25.4948399 C230.949767,25.4948399 231.553879,27.9719626 234.827835,28.4966733 C238.102261,29.021384 240.735906,26.3982997 241.981739,25.0869923 C243.227572,23.7756848 244.829291,22.5150649 244.829291,20.3660037 C244.829291,18.2164732 245.058712,9.81781635 245.058712,9.81781635 C245.058712,9.81781635 245.398613,8.37603518 248.957465,10.2495998 C252.516317,12.122695 252.089443,13.547111 252.658766,16.3945349 C253.228558,19.2419589 252.445328,21.3403324 254.652099,22.0898521 C256.858869,22.8389025 259.279077,26.2861299 257.57017,29.957697 C255.862673,33.6302027 251.163766,34.0798207 249.811684,32.6554047 C248.459132,31.2319274 246.893143,26.8878107 246.893143,26.8878107 C246.893143,26.8878107 246.17291,31.3065508 246.17291,34.0798207 C246.17291,35.8463781 242.851472,37.0150093 239.59444,37.6298313 C239.0726,36.9502418 238.675814,36.0923069 238.430879,35.3620297 C238.515501,36.1589517 238.69838,36.9901348 239.010074,37.7349612 C237.362283,38.0137431 235.784071,38.1507874 234.721116,38.1507874 C233.719748,38.1507874 232.817107,37.7626517 232.046571,37.141259 C232.496951,36.1462798 232.656324,34.9523048 232.621534,33.7799189" id="Fill-49" fill="#E3E4FF"></path>
                            <path d="M249.301832,10.1108659 C252.576258,11.6624702 252.591303,13.3942972 253.070361,15.9141289 C253.849359,19.5664535 252.91851,20.8946568 255.041598,21.6070995 C259.854746,23.7162676 260.024931,31.5141823 254.197722,33.3290807 C252.738452,33.7115845 250.948213,33.8021652 249.811919,32.6555924 C251.074207,33.5534204 252.711185,33.2943503 254.021425,32.7710476 C258.804955,30.847734 258.632889,24.327335 254.634469,22.7255124 C251.860727,21.9680141 252.700372,19.2867329 252.104722,16.1065541 C251.674557,13.7467639 252.098611,12.4199685 249.044674,10.629006 C247.970436,9.96443498 245.756144,8.72024166 245.058947,9.81800408 C245.616046,8.52593912 248.073394,9.53687552 249.301832,10.1108659" id="Fill-50" fill="#C5C6FE"></path>
                            <path d="M243.262691,17.8181061 C243.262691,17.8181061 244.312952,16.319536 246.172769,16.769154 C248.032587,17.2187719 246.602934,22.2396622 244.971598,22.2396622 C243.338851,22.2396622 243.262691,17.8181061 243.262691,17.8181061" id="Fill-51" fill="#F98A8A"></path>
                            <path d="M232.656888,16.6851439 C232.678514,22.5278307 232.937553,21.9238032 233.250657,24.7688805 C233.852888,24.6360602 234.466402,24.5431329 235.076625,24.443635 C233.032518,25.2931219 233.271812,25.146691 232.942724,25.2705941 C232.857632,24.2502711 231.554443,21.4601054 232.656888,16.6851439" id="Fill-52" fill="#18287D"></path>
                            <path d="M238.173532,15.7574666 C238.173532,15.7574666 237.319313,15.3829415 235.860043,15.7574666 C234.401243,16.1319918 233.938169,16.3568008 233.938169,16.3568008 C233.938169,16.3568008 233.759991,14.783138 234.685669,14.783138 C235.611346,14.783138 235.895772,15.4951113 236.571813,14.783138 C237.248324,14.0711646 238.173532,15.7574666 238.173532,15.7574666" id="Fill-53" fill="#E3E4FF"></path>
                            <path d="M228.274704,15.5984108 C228.274704,15.5984108 228.919247,15.2468827 229.987373,15.6603623 C231.055498,16.0738419 231.390698,16.3113227 231.390698,16.3113227 C231.390698,16.3113227 231.574047,14.7432919 230.889074,14.7179481 C230.204101,14.6930736 229.969508,15.3970683 229.49233,14.6677298 C229.014682,13.9383912 228.274704,15.5984108 228.274704,15.5984108" id="Fill-54" fill="#E3E4FF"></path>
                            <path d="M235.717783,17.1769077 C235.717783,17.6556241 236.029006,18.0432905 236.413569,18.0432905 C236.798602,18.0432905 237.109825,17.6556241 237.109825,17.1769077 C237.109825,16.6986606 236.798602,16.3109942 236.413569,16.3109942 C236.029006,16.3109942 235.717783,16.6986606 235.717783,17.1769077" id="Fill-55" fill="#18287D"></path>
                            <path d="M229.453686,17.5509166 C229.453686,18.029633 229.765379,18.4172994 230.149472,18.4172994 C230.534505,18.4172994 230.845728,18.029633 230.845728,17.5509166 C230.845728,17.0726696 230.534505,16.6850031 230.149472,16.6850031 C229.765379,16.6850031 229.453686,17.0726696 229.453686,17.5509166" id="Fill-56" fill="#18287D"></path>
                            <path d="M244.786932,18.1604822 C244.786932,18.1604822 245.923697,17.1359352 246.172863,18.0431497 C246.42203,18.9503642 245.832492,20.8610059 245.028577,20.977869 C244.224662,21.0942628 244.786932,18.1604822 244.786932,18.1604822" id="Fill-57" fill="#D86666"></path>
                            <path d="M233.368987,27.1479133 C234.530198,28.3245231 236.776459,28.1837242 238.726541,26.0529669 C238.969126,25.7877955 238.625934,25.3822946 238.34856,25.6075729 C237.8648,25.7863875 236.459594,27.9917683 233.368987,27.1479133" id="Fill-58" fill="#18287D"></path>
                            <polygon id="Fill-59" fill="#9DE5F4" points="244.183244 76.2831301 251.468313 40.6103103 258.998788 46.4534663 252.409035 58.6682439 252.899846 62.4928125"></polygon>
                            <path d="M213.666392,96.5995257 C213.666392,96.5995257 213.208019,97.0604076 211.811746,97.9244438 C210.459194,98.7612588 209.09865,97.4485433 208.812343,97.1946359 C208.266527,96.7112262 207.527489,95.7965024 207.158441,95.2079628 C206.788922,94.6198926 206.603222,94.2317569 206.472057,93.6192815 C206.280246,92.7209842 209.651518,89.9533463 209.967442,90.1800326 C210.179469,90.3320955 210.344013,90.534846 210.273964,90.7657562 C210.200625,91.0107464 208.344098,93.7089234 208.344098,93.7089234 C208.344098,93.7089234 211.002189,91.0792685 211.781658,91.1632786 C212.561126,91.2472886 212.458169,91.7203731 212.257425,91.9423661 C212.056681,92.1643591 209.5495,95.3351512 209.5495,95.3351512 C209.5495,95.3351512 212.717208,92.9049615 213.225414,92.9594037 C213.73409,93.0143153 214.081513,93.6737237 212.804651,94.7527129 C212.08865,95.3576791 210.914746,96.8074388 210.914746,96.8074388 C210.914746,96.8074388 213.300164,95.3215407 214.062708,95.4036734 C214.824782,95.4858061 213.666392,96.5995257 213.666392,96.5995257" id="Fill-60" fill="#FC7575"></path>
                            <path d="M118.122023,45.5131641 C118.122023,45.5131641 124.291484,49.065052 124.291484,59.4386487 C124.291484,69.8117761 86.5008926,110.974816 86.5008926,110.974816 L86.5008926,94.1216521 C86.5008926,94.1216521 106.446919,51.0808236 118.122023,45.5131641" id="Fill-61" fill="#210D61"></path>
                            <path d="M87.5092184,112.907375 C87.5092184,112.907375 86.6371351,112.676465 84.6306382,111.598884 C82.6871382,110.554625 83.3274495,108.013674 83.4346382,107.495064 C83.6386728,106.505248 84.2291508,104.986496 84.6814118,104.13654 C85.1341429,103.286114 85.4731036,102.794257 86.1195266,102.214165 C87.0687105,101.361862 92.732786,103.49262 92.6791917,104.028125 C92.6425219,104.388101 92.512297,104.725549 92.1850895,104.80158 C91.8400171,104.882305 87.3070643,104.52139 87.3070643,104.52139 C87.3070643,104.52139 92.3120234,105.891833 92.7497105,106.885405 C93.1878678,107.878507 92.5480266,108.082196 92.1413678,107.9949 C91.734709,107.907605 86.1839338,107.092848 86.1839338,107.092848 C86.1839338,107.092848 91.2998426,109.212811 91.5856791,109.860486 C91.8710454,110.508161 91.3186476,111.381584 89.1358536,110.595926 C87.9116461,110.155225 86.0410156,109.867057 86.0410156,109.867057 C86.0410156,109.867057 88.7940722,111.583865 89.2228269,112.555378 C89.6511115,113.526421 87.5092184,112.907375 87.5092184,112.907375" id="Fill-62" fill="#FC7575"></path>
                        </g>
                        <g id="Group-3" transform="translate(78.000000, 106.000000)">
                            <mask id="mask-8" fill="white">
                                <use xlink:href="#path-7"></use>
                            </mask>
                            <g id="Clip-2"></g>
                            <path d="M20.6082471,17 C0.235894203,17 0,0.570540709 0,0.405842138 C0,0.18147918 0.176318881,0 0.392354644,0 C0.608992177,0 0.784709287,0.18147918 0.784709287,0.405842138 C0.785912829,1.05034183 1.03685131,16.1895587 20.6082471,16.1895587 C20.8242829,16.1895587 21,16.3716594 21,16.5954009 C21,16.8185208 20.8242829,17 20.6082471,17" id="Fill-1" fill="#411AC0" mask="url(#mask-8)"></path>
                        </g>
                    </g>
                </g>
            </g>
        </g>
    </g>
</svg>