<?xml version="1.0" encoding="UTF-8"?>
<svg width="299px" height="224px" viewBox="0 0 299 224" version="1.1" xmlns="http://www.w3.org/2000/svg" xmlns:xlink="http://www.w3.org/1999/xlink">
    <!-- Generator: Sketch 61.1 (89650) - https://sketch.com -->
    <title>mi-herhaal-recepten</title>
    <desc>Created with Sketch.</desc>
    <defs>
        <linearGradient x1="23.9173266%" y1="68.6503384%" x2="83.9996625%" y2="28.9398055%" id="linearGradient-1">
            <stop stop-color="#EEEEEE" offset="0%"></stop>
            <stop stop-color="#D8D8D8" offset="100%"></stop>
        </linearGradient>
        <polygon id="path-2" points="0 0.0378836099 49.961934 0.0378836099 49.961934 50 0 50"></polygon>
        <path d="M0.443741935,18.9503548 C0.443741935,29.2262903 8.77370968,37.5562581 19.0496452,37.5562581 L19.0496452,37.5562581 C29.3249677,37.5562581 37.6549355,29.2262903 37.6549355,18.9503548 L37.6549355,18.9503548 C37.6549355,8.67441935 29.3249677,0.345064516 19.0496452,0.345064516 L19.0496452,0.345064516 C8.77370968,0.345064516 0.443741935,8.67441935 0.443741935,18.9503548" id="path-4"></path>
        <linearGradient x1="39.8045639%" y1="27.1887512%" x2="89.2145633%" y2="137.73314%" id="linearGradient-6">
            <stop stop-color="#FFFFFF" offset="0%"></stop>
            <stop stop-color="#CFCFCF" offset="100%"></stop>
        </linearGradient>
        <polygon id="path-7" points="0 0.0378836099 49.961934 0.0378836099 49.961934 50 0 50"></polygon>
        <path d="M0.443741935,18.9503548 C0.443741935,29.2262903 8.77370968,37.5562581 19.0496452,37.5562581 L19.0496452,37.5562581 C29.3249677,37.5562581 37.6549355,29.2262903 37.6549355,18.9503548 L37.6549355,18.9503548 C37.6549355,8.67441935 29.3249677,0.345064516 19.0496452,0.345064516 L19.0496452,0.345064516 C8.77370968,0.345064516 0.443741935,8.67441935 0.443741935,18.9503548" id="path-9"></path>
        <polygon id="path-11" points="0.799485973 0.295714286 32.9563982 0.295714286 32.9563982 11.6657143 0.799485973 11.6657143"></polygon>
        <polygon id="path-13" points="0.655142222 0.295714286 16.9440889 0.295714286 16.9440889 11.6657143 0.655142222 11.6657143"></polygon>
        <polygon id="path-15" points="0 0.629357143 32.5004625 0.629357143 32.5004625 11.9993571 0 11.9993571"></polygon>
        <polygon id="path-17" points="0.799485973 0.295714286 32.9563982 0.295714286 32.9563982 11.6657143 0.799485973 11.6657143"></polygon>
        <polygon id="path-19" points="0.655142222 0.295714286 16.9440889 0.295714286 16.9440889 11.6657143 0.655142222 11.6657143"></polygon>
        <polygon id="path-21" points="0 0.629357143 32.5004625 0.629357143 32.5004625 11.9993571 0 11.9993571"></polygon>
    </defs>
    <g id="Symbols" stroke="none" stroke-width="1" fill="none" fill-rule="evenodd">
        <g id="Herhaal-recepten">
            <g id="mi-herhaal-recepten">
                <rect id="Rectangle" fill="url(#linearGradient-1)" x="0" y="0" width="299" height="224"></rect>
                <g id="img" transform="translate(67.000000, 29.000000)">
                    <g id="Group-9">
                        <g id="Group-3">
                            <mask id="mask-3" fill="white">
                                <use xlink:href="#path-2"></use>
                            </mask>
                            <g id="Clip-2"></g>
                            <path d="M49.961934,25.0189418 C49.961934,38.8153501 38.777284,50 24.9808758,50 C11.1844675,50 -0.000182427824,38.8153501 -0.000182427824,25.0189418 C-0.000182427824,11.2225335 11.1844675,0.0378836099 24.9808758,0.0378836099 C38.777284,0.0378836099 49.961934,11.2225335 49.961934,25.0189418" id="Fill-1" fill="#B0B0D9" mask="url(#mask-3)"></path>
                        </g>
                        <g id="Group-6" transform="translate(6.000000, 6.000000)">
                            <mask id="mask-5" fill="white">
                                <use xlink:href="#path-4"></use>
                            </mask>
                            <g id="Clip-5"></g>
                            <path d="M0.443741935,18.9503548 C0.443741935,29.2262903 8.77370968,37.5562581 19.0496452,37.5562581 L19.0496452,37.5562581 C29.3249677,37.5562581 37.6549355,29.2262903 37.6549355,18.9503548 L37.6549355,18.9503548 C37.6549355,8.67441935 29.3249677,0.345064516 19.0496452,0.345064516 L19.0496452,0.345064516 C8.77370968,0.345064516 0.443741935,8.67441935 0.443741935,18.9503548" id="Fill-4" fill="url(#linearGradient-6)" mask="url(#mask-5)"></path>
                        </g>
                        <path d="M38.4566886,31 C38.3861283,31 38.3136779,30.9864281 38.2443775,30.9574337 L24,25.0160395 L24,11.5317705 C24,11.2381246 24.2425513,11 24.543063,11 C24.8429446,11 25.0854959,11.2381246 25.0854959,11.5317705 L25.0854959,24.3133868 L38.6696298,29.9790253 C38.9455713,30.0937693 39.074092,30.4065392 38.9562814,30.6767428 C38.8687109,30.879087 38.6677398,31 38.4566886,31" id="Fill-7" fill="#7A7AB5"></path>
                        <path d="M161.730145,24 L73.2698548,24 C71.4640225,24 70,22.4513713 70,20.5416788 L70,15.4583212 C70,13.5486287 71.4640225,12 73.2698548,12 L161.730145,12 C163.535977,12 165,13.5486287 165,15.4583212 L165,20.5416788 C165,22.4513713 163.535977,24 161.730145,24" id="Fill-4" fill="#8D8DBD"></path>
                        <path d="M145.235979,43 L72.7644894,43 C71.2372998,43 70,41.6801498 70,40.0521848 L70,33.9478152 C70,32.3198502 71.2372998,31 72.7644894,31 L145.235979,31 C146.7627,31 148,32.3198502 148,33.9478152 L148,40.0521848 C148,41.6801498 146.7627,43 145.235979,43" id="Fill-6" fill="#8D8DBD"></path>
                    </g>
                    <g id="Group-9-Copy" transform="translate(0.000000, 64.000000)">
                        <g id="Group-3">
                            <mask id="mask-8" fill="white">
                                <use xlink:href="#path-7"></use>
                            </mask>
                            <g id="Clip-2"></g>
                            <path d="M49.961934,25.0189418 C49.961934,38.8153501 38.777284,50 24.9808758,50 C11.1844675,50 -0.000182427824,38.8153501 -0.000182427824,25.0189418 C-0.000182427824,11.2225335 11.1844675,0.0378836099 24.9808758,0.0378836099 C38.777284,0.0378836099 49.961934,11.2225335 49.961934,25.0189418" id="Fill-1" fill="#B0B0D9" mask="url(#mask-8)"></path>
                        </g>
                        <g id="Group-6" transform="translate(6.000000, 6.000000)">
                            <mask id="mask-10" fill="white">
                                <use xlink:href="#path-9"></use>
                            </mask>
                            <g id="Clip-5"></g>
                            <path d="M0.443741935,18.9503548 C0.443741935,29.2262903 8.77370968,37.5562581 19.0496452,37.5562581 L19.0496452,37.5562581 C29.3249677,37.5562581 37.6549355,29.2262903 37.6549355,18.9503548 L37.6549355,18.9503548 C37.6549355,8.67441935 29.3249677,0.345064516 19.0496452,0.345064516 L19.0496452,0.345064516 C8.77370968,0.345064516 0.443741935,8.67441935 0.443741935,18.9503548" id="Fill-4" fill="url(#linearGradient-6)" mask="url(#mask-10)"></path>
                        </g>
                        <path d="M38.4566886,31 C38.3861283,31 38.3136779,30.9864281 38.2443775,30.9574337 L24,25.0160395 L24,11.5317705 C24,11.2381246 24.2425513,11 24.543063,11 C24.8429446,11 25.0854959,11.2381246 25.0854959,11.5317705 L25.0854959,24.3133868 L38.6696298,29.9790253 C38.9455713,30.0937693 39.074092,30.4065392 38.9562814,30.6767428 C38.8687109,30.879087 38.6677398,31 38.4566886,31" id="Fill-7" fill="#7A7AB5"></path>
                        <path d="M161.730145,24 L73.2698548,24 C71.4640225,24 70,22.4513713 70,20.5416788 L70,15.4583212 C70,13.5486287 71.4640225,12 73.2698548,12 L161.730145,12 C163.535977,12 165,13.5486287 165,15.4583212 L165,20.5416788 C165,22.4513713 163.535977,24 161.730145,24" id="Fill-4" fill="#8D8DBD"></path>
                        <path d="M145.235979,43 L72.7644894,43 C71.2372998,43 70,41.6801498 70,40.0521848 L70,33.9478152 C70,32.3198502 71.2372998,31 72.7644894,31 L145.235979,31 C146.7627,31 148,32.3198502 148,33.9478152 L148,40.0521848 C148,41.6801498 146.7627,43 145.235979,43" id="Fill-6" fill="#8D8DBD"></path>
                    </g>
                    <g id="pills" transform="translate(16.000000, 32.000000)">
                        <g id="Group-20" transform="translate(0.000000, 64.000000)">
                            <g id="Group-3" transform="translate(13.000000, 0.000000)">
                                <mask id="mask-12" fill="white">
                                    <use xlink:href="#path-11"></use>
                                </mask>
                                <g id="Clip-2"></g>
                                <path d="M32.9572145,5.97857143 C32.9572145,9.12 30.5307937,11.6657143 27.541133,11.6657143 L6.2135267,11.6657143 C3.22386606,11.6657143 0.799485973,9.12 0.799485973,5.97857143 C0.799485973,2.83928571 3.22386606,0.295714286 6.2135267,0.295714286 L27.541133,0.295714286 C30.5307937,0.295714286 32.9572145,2.83928571 32.9572145,5.97857143" id="Fill-1" fill="#FFFFFF" mask="url(#mask-12)"></path>
                            </g>
                            <g id="Group-6" transform="translate(29.000000, 0.000000)">
                                <mask id="mask-14" fill="white">
                                    <use xlink:href="#path-13"></use>
                                </mask>
                                <g id="Clip-5"></g>
                                <path d="M16.94492,5.97857143 C16.94492,2.83928571 14.4744422,0.295714286 11.4304978,0.295714286 L0.655142222,0.295714286 L0.655142222,11.6657143 L11.4304978,11.6657143 C14.4744422,11.6657143 16.94492,9.12 16.94492,5.97857143" id="Fill-4" fill="#A338C6" mask="url(#mask-14)"></path>
                            </g>
                            <path d="M19.358929,11 L30,11 L30,6 L14,6 C14.0222278,8.76660342 16.4066684,11 19.358929,11" id="Fill-7" fill="#CDE3E8"></path>
                            <path d="M40.5863741,11 C43.5606022,11 45.9775453,8.76660342 46,6 L30,6 L30,11 L40.5863741,11 Z" id="Fill-9" fill="#5D3FAA"></path>
                            <g id="Group-13" transform="translate(0.000000, 9.000000)">
                                <mask id="mask-16" fill="white">
                                    <use xlink:href="#path-15"></use>
                                </mask>
                                <g id="Clip-12"></g>
                                <path d="M32.5004625,6.31435714 C32.5004625,9.45364286 30.04815,11.9993571 27.0307125,11.9993571 L5.4714,11.9993571 C2.4498375,11.9993571 -0.0004125,9.45364286 -0.0004125,6.31435714 C-0.0004125,3.17292857 2.4498375,0.629357143 5.4714,0.629357143 L27.0307125,0.629357143 C30.04815,0.629357143 32.5004625,3.17292857 32.5004625,6.31435714" id="Fill-11" fill="#FFFFFF" mask="url(#mask-16)"></path>
                            </g>
                            <path d="M32,15.5 C32,12.4607991 29.5734694,10 26.5877551,10 L16,10 L16,21 L26.5877551,21 C29.5734694,21 32,18.5371278 32,15.5" id="Fill-14" fill="#757AD8"></path>
                            <path d="M5.35892902,20 L16,20 L16,15 L0,15 C0.0181864107,17.7638573 2.40666835,20 5.35892902,20" id="Fill-16" fill="#CDE3E8"></path>
                            <path d="M26.5890761,20 C29.568147,20 31.9816233,17.7638573 32,15 L16,15 L16,20 L26.5890761,20 Z" id="Fill-18" fill="#5D3FAA"></path>
                        </g>
                        <g id="Group-20-Copy">
                            <g id="Group-3" transform="translate(13.000000, 0.000000)">
                                <mask id="mask-18" fill="white">
                                    <use xlink:href="#path-17"></use>
                                </mask>
                                <g id="Clip-2"></g>
                                <path d="M32.9572145,5.97857143 C32.9572145,9.12 30.5307937,11.6657143 27.541133,11.6657143 L6.2135267,11.6657143 C3.22386606,11.6657143 0.799485973,9.12 0.799485973,5.97857143 C0.799485973,2.83928571 3.22386606,0.295714286 6.2135267,0.295714286 L27.541133,0.295714286 C30.5307937,0.295714286 32.9572145,2.83928571 32.9572145,5.97857143" id="Fill-1" fill="#FFFFFF" mask="url(#mask-18)"></path>
                            </g>
                            <g id="Group-6" transform="translate(29.000000, 0.000000)">
                                <mask id="mask-20" fill="white">
                                    <use xlink:href="#path-19"></use>
                                </mask>
                                <g id="Clip-5"></g>
                                <path d="M16.94492,5.97857143 C16.94492,2.83928571 14.4744422,0.295714286 11.4304978,0.295714286 L0.655142222,0.295714286 L0.655142222,11.6657143 L11.4304978,11.6657143 C14.4744422,11.6657143 16.94492,9.12 16.94492,5.97857143" id="Fill-4" fill="#A338C6" mask="url(#mask-20)"></path>
                            </g>
                            <path d="M19.358929,11 L30,11 L30,6 L14,6 C14.0222278,8.76660342 16.4066684,11 19.358929,11" id="Fill-7" fill="#CDE3E8"></path>
                            <path d="M40.5863741,11 C43.5606022,11 45.9775453,8.76660342 46,6 L30,6 L30,11 L40.5863741,11 Z" id="Fill-9" fill="#5D3FAA"></path>
                            <g id="Group-13" transform="translate(0.000000, 9.000000)">
                                <mask id="mask-22" fill="white">
                                    <use xlink:href="#path-21"></use>
                                </mask>
                                <g id="Clip-12"></g>
                                <path d="M32.5004625,6.31435714 C32.5004625,9.45364286 30.04815,11.9993571 27.0307125,11.9993571 L5.4714,11.9993571 C2.4498375,11.9993571 -0.0004125,9.45364286 -0.0004125,6.31435714 C-0.0004125,3.17292857 2.4498375,0.629357143 5.4714,0.629357143 L27.0307125,0.629357143 C30.04815,0.629357143 32.5004625,3.17292857 32.5004625,6.31435714" id="Fill-11" fill="#FFFFFF" mask="url(#mask-22)"></path>
                            </g>
                            <path d="M32,15.5 C32,12.4607991 29.5734694,10 26.5877551,10 L16,10 L16,21 L26.5877551,21 C29.5734694,21 32,18.5371278 32,15.5" id="Fill-14" fill="#757AD8"></path>
                            <path d="M5.35892902,20 L16,20 L16,15 L0,15 C0.0181864107,17.7638573 2.40666835,20 5.35892902,20" id="Fill-16" fill="#CDE3E8"></path>
                            <path d="M26.5890761,20 C29.568147,20 31.9816233,17.7638573 32,15 L16,15 L16,20 L26.5890761,20 Z" id="Fill-18" fill="#5D3FAA"></path>
                        </g>
                    </g>
                </g>
            </g>
        </g>
    </g>
</svg>