<?xml version="1.0" encoding="UTF-8"?>
<svg width="299px" height="224px" viewBox="0 0 299 224" version="1.1" xmlns="http://www.w3.org/2000/svg" xmlns:xlink="http://www.w3.org/1999/xlink">
    <!-- Generator: Sketch 61.1 (89650) - https://sketch.com -->
    <title>mi-inschrijving</title>
    <desc>Created with Sketch.</desc>
    <defs>
        <linearGradient x1="23.9173266%" y1="68.6503384%" x2="83.9996625%" y2="28.9398055%" id="linearGradient-1">
            <stop stop-color="#EEEEEE" offset="0%"></stop>
            <stop stop-color="#D8D8D8" offset="100%"></stop>
        </linearGradient>
        <rect id="path-2" x="0" y="0" width="299" height="224"></rect>
        <polygon id="path-4" points="0 245 281.907366 245 281.907366 0.0688294314 0 0.0688294314"></polygon>
    </defs>
    <g id="Symbols" stroke="none" stroke-width="1" fill="none" fill-rule="evenodd">
        <g id="Inschrijving">
            <g id="Menu-Section-2-Copy-8">
                <g id="mi-inschrijving">
                    <mask id="mask-3" fill="white">
                        <use xlink:href="#path-2"></use>
                    </mask>
                    <use id="Mask" fill="url(#linearGradient-1)" xlink:href="#path-2"></use>
                    <g id="Group" mask="url(#mask-3)">
                        <g transform="translate(17.000000, -108.000000)">
                            <g id="Group-95" transform="translate(0.000000, 108.000000)">
                                <polygon id="Fill-1" fill="#EDD7B2" points="162 155 278 155 278 89 162 89"></polygon>
                                <polygon id="Fill-2" fill="#E1CFAD" points="248 155 277 155 277 89 248 89"></polygon>
                                <polygon id="Fill-3" fill="#DCCAA8" points="267 98 209 98 248.833399 101"></polygon>
                                <polygon id="Fill-4" fill="#FFF7CF" points="277 105 263 105 277 108"></polygon>
                                <polygon id="Fill-5" fill="#FFF7CF" points="267.954814 113.125719 261 115 282 115 277.636503 112"></polygon>
                                <polygon id="Fill-6" fill="#FFF7CF" points="265 131 251 131 251 139"></polygon>
                                <polygon id="Fill-7" fill="#FFF7CF" points="269 143 225 143 248.692623 147"></polygon>
                                <polygon id="Fill-8" fill="#DCCAA8" points="248 113 179 113.420761 248 117"></polygon>
                                <polygon id="Fill-9" fill="#DCCAA8" points="248 128 205 128 248 131"></polygon>
                                <polygon id="Fill-10" fill="#DCCAA8" points="248 123 248 127 222 123.445094"></polygon>
                                <polygon id="Fill-11" fill="#FFF7CF" points="189 118 160.172744 118 153 122"></polygon>
                                <polygon id="Fill-12" fill="#FFF7CF" points="202 146 171 146 187.836046 150"></polygon>
                                <polygon id="Fill-13" fill="#DCCAA8" points="161 135 192 137.890134 161 139"></polygon>
                                <g id="Group-94">
                                    <path d="M204.685519,103.661057 C203.468165,103.661057 161.137833,101.791191 161.137833,101.791191 L161.137833,105.156458 L204.685519,103.661057 Z" id="Fill-14" fill="#DCCAA8"></path>
                                    <mask id="mask-5" fill="white">
                                        <use xlink:href="#path-4"></use>
                                    </mask>
                                    <g id="Clip-17"></g>
                                    <polygon id="Fill-16" fill="#FFEFDD" mask="url(#mask-5)" points="136.31339 89.4536789 252.754797 89.4536789 252.754797 16.4092642 136.31339 16.4092642"></polygon>
                                    <polygon id="Fill-18" fill="#C1AB85" mask="url(#mask-5)" points="223.543203 89.4536789 252.754797 89.4536789 252.754797 16.4092642 223.543203 16.4092642"></polygon>
                                    <polygon id="Fill-19" fill="#DCCAA8" mask="url(#mask-5)" points="241.800818 25.7749833 183.512074 25.7749833 223.543777 29.1041973"></polygon>
                                    <polygon id="Fill-20" fill="#FFF7CF" mask="url(#mask-5)" points="252.754797 33.8905468 238.149 33.8905468 252.754797 36.596199"></polygon>
                                    <polygon id="Fill-21" fill="#FFF7CF" mask="url(#mask-5)" points="243.152205 43.0471555 252.75496 41.798393 257.082513 45.127607 236.255501 45.127607"></polygon>
                                    <polygon id="Fill-22" fill="#FFF7CF" mask="url(#mask-5)" points="240.718479 62.8159515 226.247944 62.8159515 226.247944 71.9735435"></polygon>
                                    <polygon id="Fill-23" fill="#FFF7CF" mask="url(#mask-5)" points="243.829415 75.9263194 199.875944 75.9263194 223.543449 80.2969883"></polygon>
                                    <polygon id="Fill-24" fill="#DCCAA8" mask="url(#mask-5)" points="223.543449 43.0471555 154.975641 43.4634097 223.543449 47.0007508"></polygon>
                                    <polygon id="Fill-25" fill="#DCCAA8" mask="url(#mask-5)" points="223.543449 59.6951923 180.53681 59.6951923 223.543449 62.4000251"></polygon>
                                    <polygon id="Fill-26" fill="#DCCAA8" mask="url(#mask-5)" points="223.543449 53.972189 223.543449 57.7176572 197.982281 54.3884431"></polygon>
                                    <polygon id="Fill-27" fill="#FFF7CF" mask="url(#mask-5)" points="164.578561 48.2492676 136.313799 48.2492676 129.281015 52.9321271"></polygon>
                                    <polygon id="Fill-28" fill="#FFF7CF" mask="url(#mask-5)" points="176.885484 79.0487174 145.510524 79.0487174 162.55021 84.4600217"></polygon>
                                    <polygon id="Fill-29" fill="#DCCAA8" mask="url(#mask-5)" points="136.313472 68.2268462 167.282646 70.9333177 136.313472 71.9731338"></polygon>
                                    <path d="M179.860338,32.2261856 C178.643803,32.2261856 136.313472,30.1449147 136.313472,30.1449147 L136.313472,33.8903829 L179.860338,32.2261856 Z" id="Fill-30" fill="#DCCAA8" mask="url(#mask-5)"></path>
                                    <polygon id="Fill-31" fill="#FFEFDD" mask="url(#mask-5)" points="35.9254884 220.737625 152.366895 220.737625 152.366895 147.69403 35.9254884 147.69403"></polygon>
                                    <polygon id="Fill-32" fill="#C1AB85" mask="url(#mask-5)" points="123.154483 220.737625 152.366895 220.737625 152.366895 147.69403 123.154483 147.69403"></polygon>
                                    <polygon id="Fill-33" fill="#DCCAA8" mask="url(#mask-5)" points="141.412999 157.058766 83.1242547 157.058766 123.155138 160.38798"></polygon>
                                    <polygon id="Fill-34" fill="#FFF7CF" mask="url(#mask-5)" points="152.366977 165.175067 137.761181 165.175067 152.366977 167.8799"></polygon>
                                    <polygon id="Fill-35" fill="#FFF7CF" mask="url(#mask-5)" points="142.765123 174.330938 152.367059 173.082995 156.693792 176.412209 135.86842 176.412209"></polygon>
                                    <polygon id="Fill-36" fill="#FFF7CF" mask="url(#mask-5)" points="140.330578 194.100472 125.860043 194.100472 125.860043 203.257244"></polygon>
                                    <polygon id="Fill-37" fill="#FFF7CF" mask="url(#mask-5)" points="143.440776 207.210839 99.4881244 207.210839 123.15481 211.581508"></polygon>
                                    <polygon id="Fill-38" fill="#DCCAA8" mask="url(#mask-5)" points="123.154728 174.330938 54.5885599 174.747192 123.154728 178.285353"></polygon>
                                    <polygon id="Fill-39" fill="#DCCAA8" mask="url(#mask-5)" points="123.154728 190.979712 80.1489087 190.979712 123.154728 193.684545"></polygon>
                                    <polygon id="Fill-40" fill="#DCCAA8" mask="url(#mask-5)" points="123.154728 185.256791 123.154728 189.002259 97.5943797 185.673045"></polygon>
                                    <polygon id="Fill-41" fill="#FFF7CF" mask="url(#mask-5)" points="64.1907419 179.533788 35.9259802 179.533788 28.8923756 184.216647"></polygon>
                                    <polygon id="Fill-42" fill="#FFF7CF" mask="url(#mask-5)" points="76.4976645 210.333237 45.1218855 210.333237 62.1623913 215.743722"></polygon>
                                    <polygon id="Fill-43" fill="#DCCAA8" mask="url(#mask-5)" points="35.9255703 199.511366 66.8955645 202.217018 35.9255703 203.256834"></polygon>
                                    <path d="M79.4725186,163.509886 C78.2559837,163.509886 35.9256523,161.429435 35.9256523,161.429435 L35.9256523,165.174903 L79.4725186,163.509886 Z" id="Fill-44" fill="#DCCAA8" mask="url(#mask-5)"></path>
                                    <path d="M102.193029,147.694112 C102.193029,147.694112 130.98982,149.255065 124.092297,186.088644 L165.070012,178.597707 C165.070012,178.597707 152.087355,151.128209 145.595616,147.382741 L102.193029,147.694112 Z" id="Fill-45" fill="#FFF5FD" mask="url(#mask-5)"></path>
                                    <polygon id="Fill-46" fill="#F2C86C" mask="url(#mask-5)" points="13.6319128 245 119.163035 245 119.163035 201.997993 13.6319128 201.997993"></polygon>
                                    <polygon id="Fill-47" fill="#936F33" mask="url(#mask-5)" points="13.6319128 245 40.1071221 245 40.1071221 201.997993 13.6319128 201.997993"></polygon>
                                    <polygon id="Fill-48" fill="#936F33" mask="url(#mask-5)" points="23.5601983 207.510166 76.386832 207.510166 40.1072041 209.470985"></polygon>
                                    <polygon id="Fill-49" fill="#FFF7CF" mask="url(#mask-5)" points="13.6317488 212.288895 26.8693535 212.288895 13.6317488 213.880985"></polygon>
                                    <polygon id="Fill-50" fill="#FFF7CF" mask="url(#mask-5)" points="22.3353017 217.678977 13.6318308 216.944796 9.71006337 218.904796 28.5852087 218.904796"></polygon>
                                    <polygon id="Fill-53" fill="#936F33" mask="url(#mask-5)" points="40.1068762 217.678977 102.248527 217.923977 40.1068762 220.007706"></polygon>
                                    <polygon id="Fill-56" fill="#FFF7CF" mask="url(#mask-5)" points="93.5462041 220.742542 119.163117 220.742542 125.535989 223.498997"></polygon>
                                    <path d="M79.696643,211.308649 C80.80005,211.308649 119.163527,210.083649 119.163527,210.083649 L119.163527,212.288649 L79.696643,211.308649 Z" id="Fill-59" fill="#936F33" mask="url(#mask-5)"></path>
                                    <polygon id="Fill-60" fill="#FFEFDD" mask="url(#mask-5)" points="133.477814 228.112207 249.919221 228.112207 249.919221 155.068612 133.477814 155.068612"></polygon>
                                    <polygon id="Fill-61" fill="#C1AB85" mask="url(#mask-5)" points="220.706808 228.112207 249.919221 228.112207 249.919221 155.068612 220.706808 155.068612"></polygon>
                                    <polygon id="Fill-62" fill="#DCCAA8" mask="url(#mask-5)" points="238.965324 164.433348 180.67658 164.433348 220.707464 167.762562"></polygon>
                                    <polygon id="Fill-63" fill="#FFF7CF" mask="url(#mask-5)" points="249.919303 172.549649 235.313506 172.549649 249.919303 175.254482"></polygon>
                                    <polygon id="Fill-64" fill="#FFF7CF" mask="url(#mask-5)" points="240.317449 181.70552 249.919385 180.457577 254.246117 183.786791 233.420745 183.786791"></polygon>
                                    <polygon id="Fill-65" fill="#FFF7CF" mask="url(#mask-5)" points="237.882903 201.475054 223.412369 201.475054 223.412369 210.631826"></polygon>
                                    <polygon id="Fill-66" fill="#FFF7CF" mask="url(#mask-5)" points="240.993101 214.585421 197.04045 214.585421 220.707136 218.95609"></polygon>
                                    <polygon id="Fill-67" fill="#DCCAA8" mask="url(#mask-5)" points="220.707054 181.70552 152.140885 182.121774 220.707054 185.659935"></polygon>
                                    <polygon id="Fill-68" fill="#DCCAA8" mask="url(#mask-5)" points="220.707054 198.354294 177.701234 198.354294 220.707054 201.059127"></polygon>
                                    <polygon id="Fill-69" fill="#DCCAA8" mask="url(#mask-5)" points="220.707054 192.631373 220.707054 196.376841 195.146705 193.047627"></polygon>
                                    <polygon id="Fill-70" fill="#FFF7CF" mask="url(#mask-5)" points="161.743067 186.90837 133.478306 186.90837 126.444701 191.591229"></polygon>
                                    <polygon id="Fill-71" fill="#FFF7CF" mask="url(#mask-5)" points="174.04999 217.707819 142.674211 217.707819 159.714717 223.117485"></polygon>
                                    <polygon id="Fill-72" fill="#DCCAA8" mask="url(#mask-5)" points="133.477896 206.885948 164.44789 209.5916 133.477896 210.631416"></polygon>
                                    <path d="M177.024844,170.884468 C175.808309,170.884468 133.477978,168.804017 133.477978,168.804017 L133.477978,172.549485 L177.024844,170.884468 Z" id="Fill-73" fill="#DCCAA8" mask="url(#mask-5)"></path>
                                    <path d="M199.745355,155.068694 C199.745355,155.068694 228.542145,156.629647 221.644622,193.463226 L262.622337,185.972289 C262.622337,185.972289 249.63968,158.502791 243.147942,154.757323 L199.745355,155.068694 Z" id="Fill-74" fill="#FFF5FD" mask="url(#mask-5)"></path>
                                    <path d="M122.097966,0.605698997 L6.3541814,41.1675385 C1.40688488,42.9005652 -1.19669651,48.3143278 0.537111628,53.2585753 L59.0496523,220.075716 C60.7834605,225.019963 66.199664,227.623191 71.1461407,225.890164 L186.890745,185.328324 C191.837222,183.594478 194.441623,178.180716 192.707815,173.236468 L134.195274,6.41932776 C132.461466,1.47508027 127.044443,-1.12814716 122.097966,0.605698997" id="Fill-75" fill="#FF787F" mask="url(#mask-5)"></path>
                                    <polygon id="Fill-76" fill="#FFFFFF" mask="url(#mask-5)" points="185.190466 174.784639 65.8880703 216.592783 8.05429709 51.7110602 127.356692 9.90209699"></polygon>
                                    <polygon id="Fill-77" fill="#FAFDFE" mask="url(#mask-5)" points="8.05421512 51.7108963 65.8879884 216.593438 127.35661 9.90275251"></polygon>
                                    <path d="M24.6097465,37.2701538 C23.3128744,37.7241003 22.6283686,39.148214 23.0825198,40.4436823 L27.756014,53.767913 C28.2109849,55.0642007 29.6349209,55.748398 30.931793,55.2944515 L110.932078,27.2587492 C112.22813,26.8048027 112.913456,25.380689 112.458485,24.0852207 L107.784991,10.76099 C107.33002,9.46470234 105.906084,8.78050502 104.610031,9.23445151 L24.6097465,37.2701538 Z M111.792014,29.710388 L31.7917291,57.7460903 C29.1422407,58.6744682 26.2320663,57.2757559 25.3032698,54.6282809 L20.6297756,41.3032308 C19.7009791,38.6557559 21.1003221,35.7460736 23.7489907,34.8176957 L103.749276,6.78281271 C106.398764,5.85443478 109.308938,7.25314716 110.237735,9.90144147 L114.911229,23.2248528 C115.840026,25.8731472 114.440683,28.7828294 111.792014,29.710388 L111.792014,29.710388 Z" id="Fill-78" fill="#C2C2C2" mask="url(#mask-5)"></path>
                                    <polygon id="Fill-79" fill="#4675AB" mask="url(#mask-5)" points="105.015734 12.8275117 27.3312924 40.0511906 23.751368 29.8431304 101.43499 2.61945151"></polygon>
                                    <polygon id="Fill-80" fill="#3D699A" mask="url(#mask-5)" points="27.3316203 40.0508629 105.016062 12.8271839 103.22487 7.72315385 25.5412483 34.9468328"></polygon>
                                    <path d="M86.3524169,164.678184 L71.2834517,137.075943 L71.8130215,151.199087 L60.5838471,155.133836 C59.9067192,155.371462 59.1648297,155.015023 58.9279169,154.337381 C58.6901843,153.661378 59.0467831,152.919003 59.7247308,152.682197 L69.143039,149.381662 L68.2724459,126.134522 L83.3815797,153.810508 L82.6191959,131.436846 L89.3003006,139.826662 L90.4528936,118.955776 L107.87869,145.319906 L107.42044,135.164288 L115.487772,132.337365 C116.164899,132.099739 116.905969,132.456177 117.144522,133.133 C117.382254,133.810642 117.024835,134.552197 116.347708,134.789003 L110.104359,136.976796 L110.897894,154.605324 L92.6154401,126.941629 L91.5202308,146.784171 L85.4842831,139.208017 L86.3524169,164.678184 Z" id="Fill-81" fill="#FF787F" mask="url(#mask-5)"></path>
                                    <path d="M34.5894314,78.2096538 C32.5752628,78.9159749 31.5103849,81.1283495 32.2170244,83.1416104 L40.8237628,107.680122 C41.5304023,109.693383 43.7437744,110.757781 45.757943,110.05146 L63.3271988,103.894503 C65.3413674,103.189002 66.4062453,100.975808 65.6996058,98.9625468 L57.0928674,74.4240351 C56.3862279,72.4107742 54.1728558,71.3471957 52.1586872,72.0526973 L34.5894314,78.2096538 Z M63.8510302,105.388266 L46.2825942,111.545222 C43.4437395,112.539972 40.3245244,111.041293 39.3293267,108.203717 L30.7225884,83.6652057 C29.7265709,80.8276304 31.2259256,77.7106405 34.0656,76.7158913 L51.6348558,70.5589348 C54.4737105,69.5641856 57.5921058,71.0628645 58.5873035,73.9004398 L67.1940419,98.4389515 C68.1892395,101.276527 66.6898849,104.393517 63.8510302,105.388266 L63.8510302,105.388266 Z" id="Fill-82" fill="#E8E8E8" mask="url(#mask-5)"></path>
                                    <path d="M53.414489,103.756681 C61.7170936,100.846998 62.6204773,95.1423495 62.6204773,95.1423495 C62.0884483,94.8031187 61.4613262,94.5556605 60.6841866,94.3655602 C58.0051866,93.7092224 56.0385645,93.7018478 55.0876343,93.3609783 C54.1367041,93.0201087 53.414489,92.3072324 53.414489,92.3072324 L53.0529715,92.748888 C53.0529715,92.748888 52.4356866,91.8868813 52.0905645,90.3906605 C52.0905645,90.3906605 52.6840762,89.9965301 52.4028959,87.6350251 C53.2234831,87.515393 53.4571169,85.2423829 52.779989,84.6679849 C52.3414134,84.2959783 52.0200645,84.4549415 51.8290587,84.6491388 C51.725768,83.5781856 50.8887855,77.7825836 45.024989,79.8376338 C39.1595529,81.8926839 42.127111,86.9418144 42.7148843,87.8431522 C42.4451808,87.8103763 42.0943203,87.8865803 41.9852913,88.4503261 C41.8155994,89.3221656 43.417425,90.9519482 44.133082,90.5332358 C45.3889657,92.5530518 46.0980645,92.4899582 46.0980645,92.4899582 C46.7637157,93.8739214 46.8202797,94.9325836 46.8202797,94.9325836 L46.2611983,94.8137709 C46.2611983,94.8137709 46.1431517,95.8216304 45.6127622,96.6811789 C45.0831924,97.5407274 43.5526866,98.7739214 41.8688843,100.958436 C41.3803029,101.592651 41.0458378,102.177701 40.8417157,102.775042 C40.8417157,102.775042 45.1118843,106.666363 53.414489,103.756681" id="Fill-83" fill="#4675AB" mask="url(#mask-5)"></path>
                                    <polygon id="Fill-84" fill="#E8E8E8" mask="url(#mask-5)" points="97.7002936 62.8456137 67.7172994 73.3527542 66.6761948 70.3873528 96.659189 59.879393"></polygon>
                                    <polygon id="Fill-85" fill="#E8E8E8" mask="url(#mask-5)" points="148.56588 109.388813 128.708653 116.34714 127.669188 113.381739 147.524775 106.423411"></polygon>
                                    <polygon id="Fill-86" fill="#E8E8E8" mask="url(#mask-5)" points="151.60402 118.050915 131.747613 125.009242 130.707328 122.043841 150.563735 115.085513"></polygon>
                                    <polygon id="Fill-87" fill="#E8E8E8" mask="url(#mask-5)" points="154.642078 126.713017 134.785671 133.671344 133.746206 130.705943 153.601793 123.747615"></polygon>
                                    <polygon id="Fill-88" fill="#E8E8E8" mask="url(#mask-5)" points="100.804015 70.3862057 70.411957 81.0367408 69.3716721 78.0713395 99.7637302 67.4199849"></polygon>
                                    <polygon id="Fill-89" fill="#E8E8E8" mask="url(#mask-5)" points="134.969299 68.7482291 73.6400372 90.2402191 72.5997523 87.2748177 133.929014 65.7828278"></polygon>
                                    <polygon id="Fill-90" fill="#E8E8E8" mask="url(#mask-5)" points="164.03981 155.278296 70.4043331 188.091908 69.364868 185.126507 162.999525 152.312895"></polygon>
                                    <polygon id="Fill-91" fill="#E8E8E8" mask="url(#mask-5)" points="140.464282 88.0632425 46.8288052 120.876855 45.7885203 117.911453 139.423177 85.0978411"></polygon>
                                    <polygon id="Fill-92" fill="#E8E8E8" mask="url(#mask-5)" points="167.230837 164.374105 73.5953599 197.187717 72.555075 194.222316 166.189732 161.408704"></polygon>
                                    <polygon id="Fill-93" fill="#E8E8E8" mask="url(#mask-5)" points="138.124256 77.7419415 76.7949942 99.2339314 75.7547093 96.2685301 137.083971 74.7765401"></polygon>
                                </g>
                            </g>
                            <g id="Group-7" transform="translate(95.000000, 0.000000)">
                                <polygon id="Fill-1" fill="#082036" points="85 17 91.4675421 29.735333 96 185 90.0748266 171.042995"></polygon>
                                <polygon id="Fill-2" fill="#D9CEFA" points="60 231 126 231 126 185 60 185"></polygon>
                                <polygon id="Fill-3" fill="#487065" points="69 198 112 198 112 195 69 195"></polygon>
                                <polygon id="Fill-4" fill="#487065" points="77 208 104 208 104 205 77 205"></polygon>
                                <polygon id="Fill-5" fill="#0F3F6B" points="104 227 121 227 121 211 104 211"></polygon>
                                <polygon id="Fill-6" fill="#0F3F6B" points="23.2694897 0 0 2.15334279 87.212509 185 96 185"></polygon>
                            </g>
                        </g>
                    </g>
                </g>
            </g>
        </g>
    </g>
</svg>