<svg width="299" height="224" xmlns="http://www.w3.org/2000/svg" xmlns:xlink="http://www.w3.org/1999/xlink"><defs><path id="a" d="M0 0h299v224H0z"/><path id="d" d="M.334.506h7.304v41.868H.334z"/><path id="f" d="M0 0h10.396v6.798H0z"/><linearGradient x1="23.917%" y1="68.65%" x2="84%" y2="28.94%" id="b"><stop stop-color="#EEE" offset="0%"/><stop stop-color="#D8D8D8" offset="100%"/></linearGradient></defs><g fill="none" fill-rule="evenodd"><mask id="c" fill="#fff"><use xlink:href="#a"/></mask><use fill="url(#b)" xlink:href="#a"/><g mask="url(#c)"><path d="M125.025 65.34s6.546-6.227 11.75-6.035c3.76.139 10.732-.637 10.491.669-.242 1.305-12.896 3.03-12.896 3.03s-5.489 3.576.594 1.666c3.492-1.096 16.42-1.838 12.615.604-3.805 2.442-9.095 2.34-9.095 2.34s-8.117 1.246-6.31 1.812c3.677 1.152 12.548.634 12.548.634s1.458-.204.076 1.248c-2.536 2.667-12.543.984-23.756 10.63-7.292 6.27-17.79 13.922-27.08 18.753-2.656-5.777-5.033-8.628-3.862-14.676 24.46-10.607 25.42-12.61 34.925-20.675" fill="#EA5C5C"/><path fill="#F2A97E" d="M116.406 71.058l6.318 14.706-13.493 9.912-7.785-17.205z"/><path d="M108.732 72.866l10.302 17.1s-21.099 15.196-16.474 29.378c4.626 14.182 43.091-4.385 43.091-4.385l-10.73 39.33s-40.694 9.896-52.257-18.11c-11.562-28.005 6.187-60.44 26.068-63.313M235.799 118.872c0 9.177-37.921-2.758-37.921-2.758s1.194 39.587 19.155 37.261c17.96-2.325 36.779-3.875 45.34-17.322L235.8 118.872z" fill="#40457A"/><path fill="#260101" d="M160.58 107.762h24.261l-.784 84.532-32.212 2.302z"/><path d="M210.726 130.244c-7.644-9.098-25.335-23.614-44.837-20.11l-28.816 11.201-2.935 44.972.02 88.744 72.658.883 6.91-86.384s4.643-30.208-3-39.306" fill="#F2A97E"/><path d="M158.155 110.978l-5.416 172.25h-33.705l9.936-78.238 1.251-48.662s1.508-33.743 8.373-39.457c6.865-5.716 19.561-5.893 19.561-5.893M185.21 110.037l-3.549 173.19h36.099s1.358-137.266-2.638-151.617c-3.996-14.35-29.912-21.573-29.912-21.573" fill="#555CA2"/><path fill="#777DB5" d="M144.013 112.142l16.567-4.38-4.635 85.627-8.896-48.569 3.006-2.19zM183.751 193.39l1.09-85.628 13.835 6.663-7.535 28.144 1.912 1.583z"/><path d="M147.53 57.154s2.224-1.525 3.777-1.569l-.87-1.362s-2.952 1.347-2.907 2.931" fill="#2F499F"/><path d="M158.772 89.732l3.313 26.113c.681 5.366 4.664 9.201 9.124 8.837a36.051 36.051 0 003.498-.45c5.948-1.078 11.396-6.297 9.983-13.409-1.813-9.124-5.792-24.27-5.954-32.319-.266-13.17-20.154 4.51-19.965 11.228" fill="#FC7575"/><path d="M178.736 78.505c-.266-13.171-20.154 4.509-19.965 11.228l1.938 15.264c2.043-.4 6.413-1.387 10.366-3.16 5.385-2.414 5.541-9.262 8.704-11.282a3.7 3.7 0 00.492-.39c-.848-4.437-1.473-8.571-1.535-11.66" fill="#FD5E5A"/><path d="M131.364 47.112c6.01 3.543 17.717 8.585 21.863 3.036-3.655 6.318-16.554 2.59-23.308-.309l1.445-2.727z" fill="#5C2C55"/><path d="M149.528 64.397s-6.357-4.607-5.16-.488c1.196 4.12 4.63 12.953 7.746 9.385 3.117-3.567-2.586-8.897-2.586-8.897" fill="#FD5E5A"/><path d="M163.043 40.013c-.952.999-11.747.536-14.962 11.698-3.214 11.163 1.55 36.37 8.597 42.97 7.048 6.602 14.762 2.11 20.511-9.512 5.75-11.622 17.146-26.675 8.162-37.33-4.774-5.661-22.308-7.826-22.308-7.826" fill="#FC7575"/><path d="M151.665 86.105s3.398 7.297.35 10.524c-3.053 3.23 9.197 4.027 13.263 2.817 4.067-1.21 9.341-2.387 10.884-3.73 3.294-2.868 1.994-27.548-.157-21.502-2.15 6.045-7.335 16.653-9.637 16.717-2.303.066-5.23.74-7.586.808-2.354.065-7.117-5.634-7.117-5.634" fill="#5C2C55"/><path d="M161.502 44.978c-.815 5.85-6.419 14.008-20.572 5.666-14.155-8.34-11.725-19.48-11.725-19.48s7.31 8.921 11.565 6.86c4.254-2.063.813-12.843.813-12.843s15.639-1.607 18.576-1.69c2.939-.082 6.184 8.956 6.184 8.956s-2.123-4.02 13.313-5.815c15.437-1.795 7.016 21.455 9.003 29.363 1.989 7.908-8.135 22.281-8.004 26.938.132 4.658 2.76 7.498 2.76 7.498s-3.308.87-6.475-7.198c-3.169-8.069 1.862-20.243 1.687-26.454-.213-7.547-3.854-10.155-7.085-12.397-2.408-1.669-9.225-5.255-10.04.596" fill="#5C2C55"/><path d="M177.433 64.85s-3.64 10.157-.885 9.297c2.753-.862 8.082-6.192 6.673-13.319-1.41-7.127-5.788 4.022-5.788 4.022" fill="#FC7575"/><path d="M177.433 64.85s2.332-3.268 3.172-2.17c1.956 2.563-4.015 10.206-4.07 8.215-.057-1.992.898-6.045.898-6.045" fill="#FD5E5A"/><path d="M164.237 62.538c.045 1.581-.865 2.891-2.032 2.923-1.167.033-2.15-1.223-2.194-2.804-.045-1.582.865-2.89 2.033-2.924 1.167-.032 2.15 1.223 2.193 2.805M151.923 62.885c.043 1.582-.867 2.892-2.033 2.924-1.167.033-2.15-1.223-2.195-2.804-.044-1.582.866-2.891 2.033-2.924 1.168-.033 2.15 1.223 2.195 2.804M161.846 52.727l-.593 1.846s3.097-1.123 5.305 1.374c0 0-2.157-3.719-4.712-3.22" fill="#2F499F"/><path d="M151.04 66.767c.034 1.225-.868 2.247-2.012 2.28l-6.608.186c-1.144.032-2.103-.938-2.137-2.163l-.139-4.917c-.035-1.226.87-2.248 2.012-2.281l6.61-.186c1.141-.032 2.1.938 2.135 2.163l.14 4.918zm-2.329-8.985l-6.609.187c-2.126.06-3.799 1.955-3.736 4.233l.14 4.919c.064 2.278 1.841 4.076 3.968 4.016l6.608-.186c2.128-.06 3.8-1.955 3.735-4.234l-.138-4.92c-.065-2.276-1.84-4.075-3.968-4.015zM171.53 66.248c.035 1.255-1.02 2.306-2.353 2.344l-7.698.217c-1.332.037-2.444-.954-2.48-2.207l-.142-5.038c-.035-1.253 1.02-2.304 2.353-2.342l7.697-.217c1.332-.038 2.445.952 2.48 2.206l.143 5.037zm-2.678-9.193l-7.697.216c-2.479.071-4.435 2.018-4.368 4.352l.141 5.037c.067 2.333 2.13 4.168 4.607 4.098l7.697-.217c2.48-.07 4.434-2.018 4.368-4.352l-.14-5.037c-.067-2.333-2.129-4.168-4.608-4.097z" fill="#0F1D5B"/><path d="M153.679 79.325c0-.1-3.063-8.03.148-20.68.16-.627 1.167-.406 1.008.222-.028.113-2.782 11.204-.44 19.29 3.026-.542 4.13-1.333 4.344-.505.217.842-1.144.596-5.06 1.673" fill="#2F499F"/><path fill="#0F1D5B" d="M157.32 63.647l-5.345.151-.05-1.787 5.343-.15z"/><path d="M153.894 15c4.646.042 9.426 1.807 11.71 5.649 2.038 3.417 1.74 6.541 1.696 8.943l-.445 2.921-1.025-.131c-.002-.779.255-3.252-.176-5.604-1.104-6.223-5.647-8.86-11.661-8.284l-.1-3.494z" fill="#5C2C55"/><path d="M201.438 65.046s-6.784-6.591-11.938-7.393c-3.723-.58-10.461-2.67-10.436-1.338.025 1.332 12.2 5.438 12.2 5.438s4.823 4.565-.853 1.526c-3.26-1.743-15.867-4.935-12.517-1.806 3.348 3.129 8.572 4.037 8.572 4.037s7.788 2.769 5.916 2.982c-3.806.436-12.454-1.765-12.454-1.765s-1.403-.48-.278 1.215c2.063 3.108 12.187 3.357 21.657 14.986 6.158 7.562 13.989 21.623 22.347 28.146 3.553-5.18 7.745-9.911 7.576-16.087-20.094-16.362-21.746-20.191-29.792-29.941" fill="#FC7575"/><path fill="#F2A97E" d="M206.404 68.343l-8.582 13.976 7.425 9.23 9.131-14.996z"/><path d="M214.214 69.878l-12.551 21.67s34.332 38.966 46.47 45.27c12.138 6.307 16.553.352 16.553-12.485s-50.472-54.455-50.472-54.455" fill="#777DB5"/><path d="M248.413 168.612a.531.531 0 01-.217-1.015c26.73-11.95 32.312-53.393 32.364-53.81a.532.532 0 011.054.134c-.054.422-5.718 42.456-32.985 54.645a.535.535 0 01-.216.046" fill="#464A7F"/><g transform="translate(285 99.124)"><mask id="e" fill="#fff"><use xlink:href="#d"/></mask><path d="M.865 42.374a.532.532 0 01-.494-.727C12.317 11.483 3.23 1.501 3.136 1.403A.532.532 0 113.903.67c.4.416 9.65 10.577-2.545 41.369a.53.53 0 01-.493.335" fill="#464A7F" mask="url(#e)"/></g></g><g mask="url(#c)"><g transform="translate(156 81)"><mask id="g" fill="#fff"><use xlink:href="#f"/></mask><path d="M9.894.006c.571-.088.708.78.134.861-.081.01-7.861 1.27-9.171 5.621-.168.553-1.002.301-.835-.252C1.123 2.581 6.217.602 9.894.006" fill="#2F499F" mask="url(#g)"/></g></g></g></svg>