<?xml version="1.0" encoding="UTF-8"?>
<svg width="299px" height="224px" viewBox="0 0 299 224" version="1.1" xmlns="http://www.w3.org/2000/svg" xmlns:xlink="http://www.w3.org/1999/xlink">
    <!-- Generator: Sketch 61.1 (89650) - https://sketch.com -->
    <title>mi-klachtenregeling</title>
    <desc>Created with Sketch.</desc>
    <defs>
        <linearGradient x1="23.9173266%" y1="68.6503384%" x2="83.9996625%" y2="28.9398055%" id="linearGradient-1">
            <stop stop-color="#EEEEEE" offset="0%"></stop>
            <stop stop-color="#D8D8D8" offset="100%"></stop>
        </linearGradient>
        <rect id="path-2" x="0" y="0" width="299" height="224"></rect>
        <polygon id="path-4" points="0.333803651 0.506096959 7.638 0.506096959 7.638 42.374 0.333803651 42.374"></polygon>
        <polygon id="path-6" points="1.89652093e-05 5e-05 10.396 5e-05 10.396 6.79783909 1.89652093e-05 6.79783909"></polygon>
    </defs>
    <g id="Symbols" stroke="none" stroke-width="1" fill="none" fill-rule="evenodd">
        <g id="Klachtenregeling">
            <g id="klachtenregeling">
                <g id="mi-klachtenregeling">
                    <mask id="mask-3" fill="white">
                        <use xlink:href="#path-2"></use>
                    </mask>
                    <use id="Mask" fill="url(#linearGradient-1)" xlink:href="#path-2"></use>
                    <g id="Group-77" mask="url(#mask-3)">
                        <g transform="translate(79.000000, 15.000000)">
                            <path d="M46.0254,50.3398 C46.0254,50.3398 52.5714,44.1128 57.7744,44.3048 C61.5354,44.4438 68.5074,43.6678 68.2664,44.9738 C68.0244,46.2788 55.3704,48.0048 55.3704,48.0048 C55.3704,48.0048 49.8814,51.5798 55.9644,49.6698 C59.4564,48.5738 72.3844,47.8318 68.5794,50.2738 C64.7744,52.7158 59.4844,52.6148 59.4844,52.6148 C59.4844,52.6148 51.3674,53.8598 53.1744,54.4258 C56.8514,55.5778 65.7224,55.0598 65.7224,55.0598 C65.7224,55.0598 67.1804,54.8558 65.7984,56.3078 C63.2624,58.9748 53.2554,57.2918 42.0424,66.9378 C34.7504,73.2088 24.2514,80.8598 14.9624,85.6908 C12.3064,79.9138 9.9294,77.0628 11.1004,71.0148 C35.5604,60.4078 36.5194,58.4058 46.0254,50.3398" id="Fill-1" fill="#EA5C5C"></path>
                            <polygon id="Fill-3" fill="#F2A97E" points="37.4063 56.0576 43.7243 70.7636 30.2313 80.6756 22.4463 63.4706"></polygon>
                            <path d="M29.7324,57.8662 L40.0344,74.9652 C40.0344,74.9652 18.9354,90.1622 23.5604,104.3442 C28.1864,118.5262 66.6514,99.9592 66.6514,99.9592 L55.9204,139.2882 C55.9204,139.2882 15.2274,149.1852 3.6644,121.1792 C-7.8976,93.1742 9.8514,60.7382 29.7324,57.8662" id="Fill-5" fill="#40457A"></path>
                            <path d="M156.7988,103.872 C156.7988,113.049 118.8778,101.114 118.8778,101.114 C118.8778,101.114 120.0718,140.701 138.0328,138.375 C155.9938,136.05 174.8118,134.5 183.3738,121.053 L156.7988,103.872 Z" id="Fill-7" fill="#40457A"></path>
                            <polygon id="Fill-9" fill="#260101" points="81.5801 92.7617 105.8411 92.7617 105.0571 177.2937 72.8451 179.5957"></polygon>
                            <path d="M131.7256,115.2441 C124.0816,106.1461 106.3906,91.6301 86.8886,95.1331 L58.0726,106.3351 L55.1376,151.3071 L55.1586,240.0511 L127.8156,240.9341 L134.7256,154.5501 C134.7256,154.5501 139.3686,124.3421 131.7256,115.2441" id="Fill-13" fill="#F2A97E"></path>
                            <path d="M79.1553,95.9775 L73.7393,268.2275 L40.0343,268.2275 L49.9703,189.9905 L51.2213,141.3285 C51.2213,141.3285 52.7293,107.5855 59.5943,101.8705 C66.4593,96.1545 79.1553,95.9775 79.1553,95.9775" id="Fill-15" fill="#555CA2"></path>
                            <path d="M106.21,95.0371 L102.661,268.2271 L138.76,268.2271 C138.76,268.2271 140.118,130.9611 136.122,116.6101 C132.126,102.2601 106.21,95.0371 106.21,95.0371" id="Fill-17" fill="#555CA2"></path>
                            <polygon id="Fill-19" fill="#777DB5" points="65.0127 97.1425 81.5797 92.7615 76.9447 178.3895 68.0487 129.8205 71.0547 127.6295"></polygon>
                            <polygon id="Fill-21" fill="#777DB5" points="104.751 178.3896 105.841 92.7616 119.676 99.4246 112.141 127.5686 114.053 129.1516"></polygon>
                            <path d="M68.5303,42.1542 C68.5303,42.1542 70.7543,40.6292 72.3073,40.5852 L71.4373,39.2232 C71.4373,39.2232 68.4853,40.5702 68.5303,42.1542" id="Fill-28" fill="#2F499F"></path>
                            <path d="M79.7715,74.7324 L83.0845,100.8454 C83.7665,106.2114 87.7495,110.0464 92.2095,109.6824 C93.3365,109.5904 94.5185,109.4474 95.7075,109.2314 C101.6555,108.1544 107.1035,102.9354 105.6905,95.8234 C103.8775,86.6994 99.8985,71.5534 99.7365,63.5044 C99.4705,50.3344 79.5825,68.0134 79.7715,74.7324" id="Fill-30" fill="#FC7575"></path>
                            <path d="M99.7364,63.5048 C99.4704,50.3338 79.5824,68.0138 79.7714,74.7328 L81.7094,89.9968 C83.7524,89.5978 88.1224,88.6098 92.0754,86.8378 C97.4604,84.4228 97.6164,77.5748 100.7794,75.5548 C100.9374,75.4528 101.1024,75.3208 101.2714,75.1648 C100.4234,70.7278 99.7984,66.5938 99.7364,63.5048" id="Fill-32" fill="#FD5E5A"></path>
                            <path d="M52.3643,32.1123 C58.3733,35.6553 70.0813,40.6973 74.2273,35.1483 C70.5723,41.4663 57.6733,37.7383 50.9193,34.8393 L52.3643,32.1123 Z" id="Fill-34" fill="#5C2C55"></path>
                            <path d="M70.5284,49.3974 C70.5284,49.3974 64.1714,44.7904 65.3684,48.9094 C66.5644,53.0284 69.9974,61.8624 73.1144,58.2944 C76.2314,54.7274 70.5284,49.3974 70.5284,49.3974" id="Fill-36" fill="#FD5E5A"></path>
                            <path d="M84.043,25.0126 C83.091,26.0116 72.296,25.5486 69.081,36.7106 C65.867,47.8736 70.631,73.0816 77.678,79.6816 C84.726,86.2826 92.44,81.7906 98.189,70.1686 C103.939,58.5466 115.335,43.4936 106.351,32.8386 C101.577,27.1776 84.043,25.0126 84.043,25.0126" id="Fill-38" fill="#FC7575"></path>
                            <path d="M72.6651,71.1054 C72.6651,71.1054 76.0631,78.4024 73.0141,81.6294 C69.9621,84.8584 82.2121,85.6564 86.2781,84.4464 C90.3451,83.2364 95.6191,82.0594 97.1621,80.7164 C100.4561,77.8484 99.1561,53.1684 97.0051,59.2144 C94.8541,65.2594 89.6701,75.8674 87.3681,75.9314 C85.0651,75.9974 82.1371,76.6714 79.7821,76.7394 C77.4281,76.8044 72.6651,71.1054 72.6651,71.1054" id="Fill-40" fill="#5C2C55"></path>
                            <path d="M82.502,29.9785 C81.687,35.8285 76.083,43.9865 61.93,35.6445 C47.775,27.3035 50.205,16.1635 50.205,16.1635 C50.205,16.1635 57.515,25.0855 61.77,23.0235 C66.024,20.9615 62.583,10.1815 62.583,10.1815 C62.583,10.1815 78.222,8.5745 81.159,8.49193181 C84.098,8.4095 87.343,17.4475 87.343,17.4475 C87.343,17.4475 85.22,13.4275 100.656,11.6325 C116.093,9.8375 107.672,33.0875 109.659,40.9955 C111.648,48.9035 101.524,63.2765 101.655,67.9335 C101.787,72.5915 104.415,75.4315 104.415,75.4315 C104.415,75.4315 101.107,76.3015 97.94,68.2335 C94.771,60.1645 99.802,47.9905 99.627,41.7795 C99.414,34.2325 95.773,31.6245 92.542,29.3825 C90.134,27.7135 83.317,24.1275 82.502,29.9785" id="Fill-42" fill="#5C2C55"></path>
                            <path d="M98.4326,49.8505 C98.4326,49.8505 94.7936,60.0065 97.5476,59.1465 C100.3006,58.2855 105.6296,52.9555 104.2206,45.8285 C102.8116,38.7015 98.4326,49.8505 98.4326,49.8505" id="Fill-44" fill="#FC7575"></path>
                            <path d="M98.4326,49.8505 C98.4326,49.8505 100.7646,46.5815 101.6046,47.6795 C103.5606,50.2425 97.5896,57.8865 97.5346,55.8945 C97.4776,53.9025 98.4326,49.8505 98.4326,49.8505" id="Fill-46" fill="#FD5E5A"></path>
                            <path d="M85.2373,47.538 C85.2823,49.119 84.3723,50.429 83.2053,50.461 C82.0383,50.494 81.0553,49.238 81.0113,47.657 C80.9663,46.075 81.8763,44.767 83.0443,44.733 C84.2113,44.701 85.1933,45.956 85.2373,47.538" id="Fill-48" fill="#2F499F"></path>
                            <path d="M72.9229,47.8847 C72.9659,49.4667 72.0559,50.7767 70.8899,50.8087 C69.7229,50.8417 68.7399,49.5857 68.6949,48.0047 C68.6509,46.4227 69.5609,45.1137 70.7279,45.0807 C71.8959,45.0477 72.8779,46.3037 72.9229,47.8847" id="Fill-50" fill="#2F499F"></path>
                            <path d="M82.8457,37.7265 L82.2527,39.5725 C82.2527,39.5725 85.3497,38.4495 87.5577,40.9475 C87.5577,40.9475 85.4007,37.2285 82.8457,37.7265" id="Fill-52" fill="#2F499F"></path>
                            <path d="M72.0401,51.7665 C72.0741,52.9915 71.1721,54.0135 70.0281,54.0465 L63.4201,54.2325 C62.2761,54.2645 61.3171,53.2945 61.2831,52.0695 L61.1441,47.1525 C61.1091,45.9265 62.0131,44.9045 63.1561,44.8715 L69.7651,44.6855 C70.9071,44.6535 71.8661,45.6235 71.9011,46.8485 L72.0401,51.7665 Z M69.7111,42.7815 L63.1021,42.9685 C60.9761,43.0285 59.3031,44.9235 59.3661,47.2015 L59.5061,52.1205 C59.5701,54.3985 61.3471,56.1965 63.4741,56.1365 L70.0821,55.9505 C72.2101,55.8905 73.8821,53.9955 73.8171,51.7165 L73.6791,46.7975 C73.6141,44.5205 71.8391,42.7215 69.7111,42.7815 L69.7111,42.7815 Z" id="Fill-54" fill="#0F1D5B"></path>
                            <path d="M92.5303,51.248 C92.5653,52.503 91.5093,53.554 90.1773,53.592 L82.4793,53.809 C81.1473,53.846 80.0353,52.855 79.9993,51.602 L79.8573,46.564 C79.8223,45.311 80.8773,44.26 82.2103,44.222 L89.9073,44.005 C91.2393,43.967 92.3523,44.957 92.3873,46.211 L92.5303,51.248 Z M89.8523,42.055 L82.1553,42.271 C79.6763,42.342 77.7203,44.289 77.7873,46.623 L77.9283,51.66 C77.9953,53.993 80.0573,55.828 82.5353,55.758 L90.2323,55.541 C92.7113,55.471 94.6663,53.523 94.6003,51.189 L94.4593,46.152 C94.3933,43.819 92.3313,41.984 89.8523,42.055 L89.8523,42.055 Z" id="Fill-56" fill="#0F1D5B"></path>
                            <path d="M74.6787,64.3251 C74.6787,64.2241 71.6157,56.2941 74.8267,43.6441 C74.9877,43.0181 75.9937,43.2391 75.8347,43.8671 C75.8067,43.9801 73.0527,55.0711 75.3947,63.1561 C78.4207,62.6151 79.5257,61.8241 79.7387,62.6521 C79.9557,63.4941 78.5947,63.2481 74.6787,64.3251" id="Fill-58" fill="#2F499F"></path>
                            <polygon id="Fill-60" fill="#0F1D5B" points="78.3194 48.6474 72.9754 48.7984 72.9244 47.0114 78.2684 46.8604"></polygon>
                            <path d="M74.8936,0 C79.5396,0.042 84.3196,1.807 86.6046,5.649 C88.6416,9.066 88.3446,12.19 88.2996,14.592 L87.8546,17.513 L86.8296,17.382 C86.8276,16.603 87.0846,14.13 86.6536,11.778 C85.5496,5.555 81.0066,2.918 74.9926,3.494 L74.8936,0 Z" id="Fill-62" fill="#5C2C55"></path>
                            <path d="M122.4375,50.0458 C122.4375,50.0458 115.6535,43.4548 110.4995,42.6528 C106.7765,42.0738 100.0385,39.9828 100.0635,41.3148 C100.0885,42.6468 112.2645,46.7528 112.2645,46.7528 C112.2645,46.7528 117.0865,51.3178 111.4105,48.2788 C108.1515,46.5358 95.5435,43.3438 98.8935,46.4728 C102.2415,49.6018 107.4655,50.5098 107.4655,50.5098 C107.4655,50.5098 115.2535,53.2788 113.3815,53.4918 C109.5755,53.9278 100.9275,51.7268 100.9275,51.7268 C100.9275,51.7268 99.5245,51.2478 100.6495,52.9418 C102.7125,56.0498 112.8365,56.2988 122.3065,67.9278 C128.4645,75.4898 136.2955,89.5508 144.6535,96.0738 C148.2065,90.8948 152.3985,86.1628 152.2295,79.9868 C132.1355,63.6248 130.4835,59.7958 122.4375,50.0458" id="Fill-66" fill="#FC7575"></path>
                            <polygon id="Fill-68" fill="#F2A97E" points="127.4043 53.3427 118.8223 67.3187 126.2473 76.5487 135.3783 61.5527"></polygon>
                            <path d="M135.2139,54.8779 L122.6629,76.5489 C122.6629,76.5489 156.9949,115.5139 169.1329,121.8189 C181.2709,128.1249 185.6859,122.1699 185.6859,109.3329 C185.6859,96.4959 135.2139,54.8779 135.2139,54.8779" id="Fill-70" fill="#777DB5"></path>
                            <path d="M169.4131,153.6123 C169.2101,153.6123 169.0171,153.4963 168.9281,153.2993 C168.8081,153.0313 168.9281,152.7163 169.1961,152.5973 C195.9251,140.6473 201.5081,99.2043 201.5601,98.7873 C201.5971,98.4953 201.8621,98.2893 202.1551,98.3273 C202.4441,98.3643 202.6511,98.6303 202.6141,98.9213 C202.5601,99.3433 196.8961,141.3773 169.6291,153.5663 C169.5591,153.5973 169.4851,153.6123 169.4131,153.6123" id="Fill-72" fill="#464A7F"></path>
                            <g id="Group-76" stroke-width="1" fill="none" transform="translate(206.000000, 84.124000)">
                                <mask id="mask-5" fill="white">
                                    <use xlink:href="#path-4"></use>
                                </mask>
                                <g id="Clip-75"></g>
                                <path d="M0.8652,42.374 C0.8002,42.374 0.7332,42.362 0.6692,42.337 C0.3972,42.229 0.2632,41.92 0.3712,41.647 C12.3172,11.483 3.2292,1.501 3.1362,1.403 C2.9342,1.192 2.9402,0.856 3.1512,0.653 C3.3642,0.45 3.7002,0.459 3.9032,0.67 C4.3022,1.086 13.5532,11.247 1.3582,42.039 C1.2752,42.248 1.0762,42.374 0.8652,42.374" id="Fill-74" fill="#464A7F" mask="url(#mask-5)"></path>
                            </g>
                        </g>
                    </g>
                    <g id="mouth" mask="url(#mask-3)">
                        <g transform="translate(156.000000, 81.000000)">
                            <mask id="mask-7" fill="white">
                                <use xlink:href="#path-6"></use>
                            </mask>
                            <g id="Clip-2" stroke="none" fill="none"></g>
                            <path d="M9.894,0.00625 C10.465,-0.08175 10.602,0.78625 10.028,0.86725 C9.947,0.87725 2.167,2.13625 0.857,6.48825 C0.689,7.04125 -0.145,6.78925 0.022,6.23625 C1.123,2.58125 6.217,0.60225 9.894,0.00625" id="Fill-1" stroke="none" fill="#2F499F" fill-rule="evenodd" mask="url(#mask-7)"></path>
                        </g>
                    </g>
                </g>
            </g>
        </g>
    </g>
</svg>