<?xml version="1.0" encoding="UTF-8"?>
<svg width="299px" height="224px" viewBox="0 0 299 224" version="1.1" xmlns="http://www.w3.org/2000/svg" xmlns:xlink="http://www.w3.org/1999/xlink">
    <!-- Generator: Sketch 61.1 (89650) - https://sketch.com -->
    <title>mi-links</title>
    <desc>Created with Sketch.</desc>
    <defs>
        <linearGradient x1="23.9173266%" y1="68.6503384%" x2="83.9996625%" y2="28.9398055%" id="linearGradient-1">
            <stop stop-color="#EEEEEE" offset="0%"></stop>
            <stop stop-color="#D8D8D8" offset="100%"></stop>
        </linearGradient>
        <rect id="path-2" x="0" y="0" width="299" height="224"></rect>
        <path d="M9.55461818,0.685853659 C4.20981818,4.97707317 0.817854545,11.3629268 0.817854545,18.4976585 L0.817854545,18.4976585 C0.817854545,26.117122 4.68365455,32.8839024 10.6645636,37.1565854 L10.6645636,37.1565854 L40.6228909,37.1565854 C46.6038,32.8839024 50.4705273,26.117122 50.4705273,18.4976585 L50.4705273,18.4976585 C50.4705273,11.3629268 47.0776364,4.97707317 41.7328364,0.685853659 L41.7328364,0.685853659 L9.55461818,0.685853659 Z" id="path-4"></path>
        <linearGradient x1="61.1482927%" y1="113.037481%" x2="43.6884177%" y2="13.3384024%" id="linearGradient-6">
            <stop stop-color="#F20000" offset="0%"></stop>
            <stop stop-color="#FF9000" offset="100%"></stop>
        </linearGradient>
        <polygon id="path-7" points="0 369.833333 659.259375 369.833333 659.259375 0.696597468 0 0.696597468"></polygon>
        <linearGradient x1="-0.00054479445%" y1="49.9999565%" x2="100.000209%" y2="49.9999565%" id="linearGradient-9">
            <stop stop-color="#D34149" offset="0%"></stop>
            <stop stop-color="#AC4491" offset="100%"></stop>
        </linearGradient>
        <path d="M311.469394,0.148766234 L311.469394,7.57954545 L285.029578,7.57954545 L285.029578,0.159123377 L255.70569,0.159123377 L255.70569,7.57954545 L66.8308601,7.57954545 L66.8308601,0.148766234 L40.0352163,0.148766234 L40.0352163,7.57954545 L0.543104326,7.57954545 L0.543104326,144.47461 L367.194707,144.47461 L367.194707,7.57954545 L339.605944,7.57954545 L339.605944,0.148766234 L311.469394,0.148766234 Z M161.560427,137.299935 L359.538809,137.299935 L359.538809,14.7551623 L161.560427,14.7551623 L161.560427,137.299935 Z M8.19900254,137.299935 L155.388702,137.299935 L155.388702,14.7551623 L8.19900254,14.7551623 L8.19900254,137.299935 Z" id="path-10"></path>
        <linearGradient x1="-0.136154102%" y1="51.302248%" x2="207.600186%" y2="46.4297539%" id="linearGradient-12">
            <stop stop-color="#690252" offset="0%"></stop>
            <stop stop-color="#B8004B" offset="100%"></stop>
        </linearGradient>
        <linearGradient x1="-4.22368437e-05%" y1="50.0021237%" x2="99.9999953%" y2="50.0021237%" id="linearGradient-13">
            <stop stop-color="#690252" offset="0%"></stop>
            <stop stop-color="#B8004B" offset="100%"></stop>
        </linearGradient>
    </defs>
    <g id="Symbols" stroke="none" stroke-width="1" fill="none" fill-rule="evenodd">
        <g id="Interessante-links">
            <g id="Menu-Section-2-Copy-10">
                <g id="mi-links">
                    <mask id="mask-3" fill="white">
                        <use xlink:href="#path-2"></use>
                    </mask>
                    <use id="Mask" fill="url(#linearGradient-1)" xlink:href="#path-2"></use>
                    <g mask="url(#mask-3)">
                        <g transform="translate(-99.000000, -28.000000)">
                            <g id="Group-177" stroke-width="1" fill="none" transform="translate(84.000000, 10.000000)">
                                <path d="M112.800374,118.129594 C114.148744,119.542406 116.597102,120.439594 119.367612,120.339281 C122.138122,120.238031 124.514579,119.165531 125.758367,117.658969 C124.409996,116.245219 121.961638,115.348031 119.192062,115.449281 C116.421552,115.548656 114.043228,116.621156 112.800374,118.129594" id="Fill-1" fill="#F66D75"></path>
                                <path d="M82.8657,176.047687 C84.7089715,163.389562 85.5587066,150.59925 85.3448722,137.837062 C85.2935146,131.456437 84.9442828,125.082375 84.4400444,118.726125 C83.956349,112.367063 83.1831834,106.037063 82.3026338,99.7276875 C80.5013821,87.11175 77.9559119,74.614875 74.8016205,62.283 C73.2188722,56.1189375 71.4689781,49.998 69.553806,43.9305 C67.6320974,37.8639375 65.5777927,31.8470625 63.2078722,25.9239375 L62.4608523,26.232375 C64.7373954,32.133 66.7179318,38.1751875 68.5565344,44.2408125 C70.3904682,50.3139375 72.0581901,56.4358125 73.5597,62.5970625 C76.5487132,74.9233125 78.9289053,87.398625 80.563945,99.968625 C81.3632563,106.253625 82.0523821,112.5555 82.4539053,118.877062 C82.8759715,125.195812 83.1439649,131.524875 83.1168854,137.853 C83.1719781,150.50925 82.1709715,163.15425 80.1969715,175.622062 L82.8657,176.047687 Z" id="Fill-3" fill="#AC4492"></path>
                                <path d="M59.5072291,0.55753125 C63.0975934,2.73065625 65.9596132,7.33565625 66.7551894,12.9681562 C67.5507656,18.5997187 66.0782026,23.8225312 63.2301894,26.9134687 C59.6398252,24.7403438 56.7778053,20.1344062 55.9822291,14.5019063 C55.186653,8.87034375 56.6601497,3.64753125 59.5072291,0.55753125" id="Fill-5" fill="#AC4492"></path>
                                <path d="M80.6644192,19.967625 C81.1042272,23.226375 79.7110351,27.2295 76.6856046,30.4723125 C73.6592404,33.715125 69.771002,35.3698125 66.5027901,35.1410625 C66.0629821,31.8823125 67.4561742,27.8791875 70.4825384,24.636375 C73.5079689,21.3945 77.3962073,19.738875 80.6644192,19.967625" id="Fill-7" fill="#AC4492"></path>
                                <path d="M65.7385887,35.2258125 C62.9886219,37.01175 58.7875689,37.4514375 54.5762444,36.0826875 C50.3658536,34.7139375 47.2190325,31.8855 46.0331384,28.819875 C48.7831053,27.0339375 52.9841583,26.59425 57.194549,27.963 C61.4058735,29.33175 64.5526947,32.15925 65.7385887,35.2258125" id="Fill-9" fill="#AC4492"></path>
                                <path d="M70.0071536,48.9495937 C67.2581205,50.7374062 63.0561338,51.1761562 58.845743,49.8074063 C54.6353523,48.4386562 51.4875974,45.6111563 50.3026371,42.5455312 C53.052604,40.7586562 57.253657,40.3199062 61.4640477,41.6886562 C65.6744384,43.0574062 68.8212596,45.8849062 70.0071536,48.9495937" id="Fill-11" fill="#AC4492"></path>
                                <path d="M74.3076536,63.2675625 C71.5576868,65.0535 67.3575675,65.4931875 63.146243,64.1244375 C58.9349185,62.7556875 55.7880974,59.92725 54.6022033,56.8625625 C57.353104,55.0756875 61.554157,54.636 65.7645477,56.0056875 C69.9749384,57.3735 73.1226934,60.201 74.3076536,63.2675625" id="Fill-13" fill="#AC4492"></path>
                                <path d="M77.1919907,76.6003125 C74.4420238,78.38625 70.2419046,78.8259375 66.0296464,77.4571875 C61.8192556,76.0884375 58.6724344,73.26 57.4865404,70.194375 C60.2374411,68.4084375 64.4375603,67.96875 68.6488848,69.3375 C72.8592755,70.70625 76.0070305,73.53375 77.1919907,76.6003125" id="Fill-15" fill="#AC4492"></path>
                                <path d="M75.9928371,73.9004062 C78.742804,75.6872812 82.943857,76.1279062 87.1542477,74.7591562 C91.3646384,73.3885312 94.5123934,70.5600937 95.6973536,67.4963437 C92.9473868,65.7085312 88.7463338,65.2697812 84.5350093,66.6385312 C80.3246185,68.0082187 77.1777974,70.8347812 75.9928371,73.9004062" id="Fill-17" fill="#AC4492"></path>
                                <path d="M84.5249245,32.6522812 C84.9647325,35.9129062 83.5724742,39.9150938 80.5461099,43.1569687 C77.5197457,46.3997812 73.6305735,48.0563437 70.3632954,47.8275937 C69.9244212,44.5688437 71.3166795,40.5647812 74.3430437,37.3219687 C77.3684742,34.0791562 81.2567126,32.4244688 84.5249245,32.6522812" id="Fill-19" fill="#AC4492"></path>
                                <path d="M88.9480291,47.0644687 C89.3869033,50.3250937 87.994645,54.3263437 84.9682808,57.5700937 C81.9419166,60.8119687 78.0536781,62.4675937 74.7854662,62.2397812 C74.3465921,58.9810312 75.7388503,54.9760312 78.7652146,51.7341562 C81.7915788,48.4913437 85.6798172,46.8357187 88.9480291,47.0644687" id="Fill-21" fill="#AC4492"></path>
                                <path d="M14.7170384,87.7258125 C18.6258199,89.8895625 22.2899523,92.4414375 25.8448331,95.133 C29.395045,97.834875 32.7827801,100.749562 36.0257801,103.817062 C39.2669126,106.887375 42.3502371,110.128312 45.2682834,113.5155 C48.173257,116.913 50.8952106,120.470812 53.4425483,124.1505 C58.5390914,131.513625 62.7868331,139.463625 66.2063166,147.761437 C69.5464291,156.091125 72.0246675,164.775187 73.5934093,173.628937 L71.7015815,173.945812 C70.2906477,165.20175 67.979555,156.601125 64.8084556,148.322062 C61.5570517,140.074875 57.4783232,132.143625 52.5386543,124.767375 C50.0706874,121.081125 47.4253033,117.50925 44.5922305,114.08925 C41.7470185,110.682375 38.7318596,107.41425 35.5551576,104.30925 C32.3765881,101.208937 29.0495483,98.254875 25.5562967,95.509875 C22.0593099,92.776125 18.4371974,90.1689375 14.5919126,87.963 L14.7170384,87.7258125 Z" id="Fill-23" fill="#AC4492"></path>
                                <path d="M0.294139073,77.6192813 C0.503304636,80.5995937 2.47823841,83.9033437 5.76699338,86.2264687 C9.05668212,88.5495937 12.8207285,89.3005312 15.6846159,88.4914687 C15.4763841,85.5111562 13.5005166,82.2074063 10.2126954,79.8833438 C6.92300662,77.5611562 3.15896026,76.8102188 0.294139073,77.6192813" id="Fill-25" fill="#AC4492"></path>
                                <path d="M22.4421576,75.0924375 C20.2459192,77.1080625 18.8956808,80.714625 19.1253894,84.745875 C19.3560318,88.777125 21.1087272,92.204625 23.5206675,93.9549375 C25.7178397,91.9393125 27.0680781,88.33275 26.8374358,84.3015 C26.6067934,80.27025 24.854098,76.84275 22.4421576,75.0924375" id="Fill-27" fill="#AC4492"></path>
                                <path d="M35.5158457,81.680625 C32.8648589,83.0371875 30.6060576,86.1534375 29.7600576,90.1003125 C28.9131238,94.048125 29.6937596,97.8196875 31.5538391,100.152187 C34.2057596,98.795625 36.4636272,95.68125 37.3096272,91.7334375 C38.1574947,87.7865625 37.3768589,84.013125 35.5158457,81.680625" id="Fill-29" fill="#AC4492"></path>
                                <path d="M44.3356291,89.827875 C41.6827748,91.1844375 39.4258411,94.29975 38.5789073,98.246625 C37.7319735,102.1935 38.5116755,105.966937 40.3726887,108.2985 C43.0246093,106.941937 45.2824768,103.827562 46.1294106,99.8806875 C46.9763444,95.932875 46.1957086,92.160375 44.3356291,89.827875" id="Fill-31" fill="#AC4492"></path>
                                <path d="M54.4877225,98.2004062 C51.5790139,98.8304063 48.6021397,101.262281 46.7775437,104.860406 C44.9529477,108.458531 44.7465834,112.306031 45.9502192,115.038844 C48.8598616,114.408844 51.8367358,111.976969 53.6613318,108.377906 C55.484994,104.780719 55.6922921,100.933219 54.4877225,98.2004062" id="Fill-33" fill="#AC4492"></path>
                                <path d="M61.6378232,108.683156 C58.9821675,108.569719 55.8642934,109.997531 53.4803662,112.694719 C51.0955053,115.392844 50.0534126,118.670344 50.4820152,121.304719 C53.1376709,121.418156 56.255545,119.990344 58.6394722,117.293156 C61.0233993,114.595969 62.0654921,111.316594 61.6378232,108.683156" id="Fill-35" fill="#AC4492"></path>
                                <path d="M66.8260629,115.274062 C64.1704073,115.160625 61.0525331,116.588437 58.6676722,119.285625 C56.283745,121.982812 55.2416523,125.260312 55.6693212,127.895625 C58.3249768,128.009062 61.4437848,126.58125 63.8277119,123.883125 C66.2116391,121.185938 67.2537318,117.908437 66.8260629,115.274062" id="Fill-37" fill="#AC4492"></path>
                                <path d="M69.7892106,124.994156 C67.5126675,124.897594 64.840204,126.121031 62.7961709,128.433844 C60.7521377,130.745719 59.859449,133.555406 60.2264225,135.812906 C62.5029656,135.911344 65.1754291,134.686031 67.2185285,132.374156 C69.2625616,130.061344 70.1552503,127.251656 69.7892106,124.994156" id="Fill-39" fill="#AC4492"></path>
                                <path d="M72.6639298,135.130875 C71.0074132,134.190563 68.545049,134.079938 66.1303073,135.014625 C63.7164993,135.948375 61.9656715,137.69025 61.3671219,139.50525 C63.0236384,140.443688 65.4860026,140.556188 67.8998106,139.6215 C70.3145523,138.685875 72.0644464,136.944 72.6639298,135.130875" id="Fill-41" fill="#AC4492"></path>
                                <path d="M73.8252656,143.485969 C72.8065172,142.346906 70.9651132,141.630656 68.8940007,141.720656 C66.8219543,141.810656 65.0496497,142.685344 64.1326828,143.906906 C65.1514311,145.045969 66.9928351,145.763156 69.0639477,145.674094 C71.1350603,145.583156 72.9082987,144.709406 73.8252656,143.485969" id="Fill-43" fill="#AC4492"></path>
                                <path d="M5.76139073,99.8153437 C8.29192053,101.389406 12.1157285,101.710969 15.9161921,100.391906 C19.7175894,99.0719062 22.5254503,96.4459687 23.547,93.6400312 C21.0164702,92.0659687 17.1926623,91.7444062 13.3912649,93.0644062 C9.59080132,94.3834688 6.7829404,97.0094062 5.76139073,99.8153437" id="Fill-45" fill="#AC4492"></path>
                                <path d="M13.7892397,106.448344 C16.3197695,108.022406 20.1435775,108.343969 23.9440411,107.024906 C27.7454384,105.704906 30.5532993,103.078969 31.5739152,100.273031 C29.0433854,98.6989687 25.2205113,98.3774063 21.4191139,99.6964687 C17.6195841,101.016469 14.8107894,103.642406 13.7892397,106.448344" id="Fill-47" fill="#AC4492"></path>
                                <path d="M22.3463523,114.626812 C24.8768821,116.199937 28.7016238,116.522437 32.5011536,115.202437 C36.302551,113.882437 39.1104119,111.2565 40.1319616,108.450562 C37.6014318,106.8765 33.7776238,106.554937 29.9762265,107.874937 C26.1766967,109.194 23.367902,111.819937 22.3463523,114.626812" id="Fill-49" fill="#AC4492"></path>
                                <path d="M32.0051325,120.066844 C34.0631722,121.346531 37.1735762,121.609969 40.2643709,120.535594 C43.3551656,119.462156 45.6401126,117.326531 46.4702384,115.044656 C44.4121987,113.764031 41.3017947,113.501531 38.211,114.575906 C35.1202053,115.648406 32.8352583,117.784031 32.0051325,120.066844" id="Fill-51" fill="#AC4492"></path>
                                <path d="M39.2377788,125.263312 C40.9204411,126.3555 43.446302,126.607687 45.9432159,125.739562 C48.4401298,124.872375 50.2712623,123.108 50.9230371,121.204875 C49.2394411,120.113625 46.7145139,119.861437 44.2176,120.728625 C41.7197523,121.595812 39.8886199,123.361125 39.2377788,125.263312" id="Fill-53" fill="#AC4492"></path>
                                <path d="M43.5587285,131.944875 C45.2413907,133.036125 47.7672517,133.287375 50.2641656,132.421125 C52.7610795,131.553 54.5922119,129.787688 55.2439868,127.886437 C53.5603907,126.79425 51.0354636,126.542063 48.5385497,127.410188 C46.040702,128.276437 44.2095695,130.04175 43.5587285,131.944875" id="Fill-55" fill="#AC4492"></path>
                                <path d="M48.2946477,137.991 C49.6579589,139.15725 51.942906,139.71975 54.3940649,139.320375 C56.8452238,138.921938 58.8369656,137.662875 59.764204,136.125375 C58.4008927,134.960063 56.1150119,134.396625 53.663853,134.796 C51.212694,135.194438 49.2218861,136.452563 48.2946477,137.991" id="Fill-57" fill="#AC4492"></path>
                                <path d="M52.8714517,145.605469 C54.4075113,146.045156 56.4496768,145.648594 58.2555974,144.411094 C60.0624517,143.171719 61.1727099,141.406406 61.3249152,139.810781 C59.7897894,139.372969 57.7476238,139.767656 55.9407695,141.007031 C54.134849,142.244531 53.023657,144.009844 52.8714517,145.605469" id="Fill-59" fill="#AC4492"></path>
                                <path d="M57.969302,150.151969 C59.1860106,150.262594 60.6651099,149.673844 61.8472689,148.486031 C63.0294278,147.297281 63.6139709,145.811344 63.5028517,144.589781 C62.286143,144.480094 60.8079775,145.068844 59.6258185,146.256656 C58.4427258,147.445406 57.8581828,148.931344 57.969302,150.151969" id="Fill-61" fill="#AC4492"></path>
                                <path d="M61.3510609,151.344 C62.1494384,151.466813 63.0916172,151.143375 63.8143589,150.416813 C64.5380344,149.69025 64.8573854,148.746188 64.7341272,147.941813 C63.9348159,147.819 62.9935709,148.142438 62.2698954,148.869 C61.5480874,149.595562 61.2268689,150.540563 61.3510609,151.344" id="Fill-63" fill="#AC4492"></path>
                                <path d="M62.441243,153.591562 C63.2396205,153.714375 64.1808656,153.391875 64.9045411,152.665312 C65.6272828,151.93875 65.9475675,150.992812 65.8243093,150.190312 C65.0259318,150.0675 64.083753,150.39 63.3600775,151.115625 C62.6373358,151.844062 62.317051,152.789062 62.441243,153.591562" id="Fill-65" fill="#AC4492"></path>
                                <path d="M124.253215,48.702375 C120.322023,53.0270625 116.854917,57.7305 113.582036,62.5605 C110.320361,67.4008125 107.346288,72.4351875 104.61593,77.598 C101.890242,82.7664375 99.4306788,88.0755 97.2363079,93.4970625 C95.0634139,98.928 93.1846589,104.478 91.571096,110.104875 C88.3439702,121.367062 86.4147914,132.995812 85.6546987,144.70425 C85.0066589,156.422062 85.5715927,168.213 87.3345596,179.829562 L89.8081291,179.424562 C87.8957583,168.007687 87.1580762,156.391125 87.6184272,144.808312 C88.1917649,133.233937 89.9201821,121.698 92.9474801,110.488312 C94.4592616,104.884875 96.2390364,99.349875 98.3138841,93.9245625 C100.409275,88.50675 102.772659,83.191125 105.404036,78.0105 C108.040083,72.83175 110.922646,67.774875 114.096546,62.9045625 C117.279785,58.0464375 120.671255,53.29425 124.507202,48.9414375 L124.253215,48.702375 Z" id="Fill-67" fill="#F66D75"></path>
                                <path d="M137.872321,30.1125937 C138.861189,33.8888437 137.797619,38.8088437 134.701222,43.0707187 C131.602957,47.3335313 127.259036,49.8507187 123.375467,50.0560313 C122.386599,46.2797812 123.449235,41.3597812 126.5475,37.0979063 C129.644831,32.8350937 133.987818,30.3188438 137.872321,30.1125937" id="Fill-69" fill="#F66D75"></path>
                                <path d="M109.408063,36.3254062 C112.96948,37.8938437 116.148983,41.7882187 117.550579,46.8732187 C118.952175,51.9591562 118.217295,56.9391562 115.96503,60.1238437 C112.403613,58.5535312 109.224109,54.6600938 107.822513,49.5750937 C106.421851,44.4900937 107.155798,39.5091563 109.408063,36.3254062" id="Fill-71" fill="#F66D75"></path>
                                <path d="M95.9864503,49.9933125 C99.8354702,50.553 103.932874,53.4564375 106.631483,57.9826875 C109.331026,62.5108125 109.944517,67.508625 108.616689,71.1789375 C104.767669,70.6183125 100.671199,67.714875 97.9716556,63.1876875 C95.2721126,58.6605 94.6604901,53.663625 95.9864503,49.9933125" id="Fill-73" fill="#F66D75"></path>
                                <path d="M88.4816086,63.7920937 C92.3306285,64.3536562 96.4280325,67.2552188 99.1266417,71.7833437 C101.826185,76.3114687 102.438741,81.3074062 101.111847,84.9777187 C97.2628272,84.4180312 93.1654232,81.5155312 90.4658801,76.9874062 C87.7672709,72.4602187 87.1547146,67.4633437 88.4816086,63.7920937" id="Fill-75" fill="#F66D75"></path>
                                <path d="M79.4206311,78.4341562 C83.2845914,77.9869688 87.9842801,79.7410312 91.7483265,83.4244687 C95.5114391,87.1079062 97.3761874,91.7804062 97.0288232,95.6710312 C93.1657967,96.1172812 88.4651742,94.3632187 84.7020616,90.6807187 C80.938949,86.9982187 79.0732669,82.3229063 79.4206311,78.4341562" id="Fill-77" fill="#F66D75"></path>
                                <path d="M74.9583079,94.422 C78.1975728,93.1610625 82.6535464,93.613875 86.7322748,95.946375 C90.8110033,98.2779375 93.4713278,101.89575 94.0437318,105.335437 C90.8054007,106.5945 86.3494272,106.142625 82.2706987,103.810125 C78.1919702,101.478562 75.5316457,97.8616875 74.9583079,94.422" id="Fill-79" fill="#F66D75"></path>
                                <path d="M71.2956695,104.764687 C74.5349344,103.504687 78.9909079,103.9575 83.0687026,106.289062 C87.1483649,108.621562 89.8096232,112.239375 90.3810934,115.679062 C87.1427623,116.939062 82.6867887,116.487187 78.6080603,114.154687 C74.5293318,111.822187 71.8680735,108.205312 71.2956695,104.764687" id="Fill-81" fill="#F66D75"></path>
                                <path d="M71.6964457,118.043531 C74.4725583,116.963531 78.2916974,117.350719 81.7886841,119.350406 C85.2838033,121.349156 87.5650152,124.449469 88.0561808,127.398844 C85.2791344,128.477906 81.4599954,128.089781 77.9639424,126.091969 C74.4678894,124.092281 72.1876113,120.991969 71.6964457,118.043531" id="Fill-83" fill="#F66D75"></path>
                                <path d="M72.379502,131.798344 C74.0360185,129.937406 77.0362371,128.760844 80.4146344,128.900531 C83.7939656,129.038344 86.6877338,130.455844 88.1883099,132.447094 C86.5317934,134.308969 83.5306411,135.484594 80.1522437,135.345844 C76.7747801,135.208969 73.8791444,133.789594 72.379502,131.798344" id="Fill-85" fill="#F66D75"></path>
                                <path d="M74.4380086,142.628156 C75.2223795,140.788781 77.2001146,139.126594 79.8016113,138.363469 C82.4021742,137.602219 84.961651,137.935031 86.607896,139.061906 C85.8235252,140.900344 83.8448563,142.564406 81.2442934,143.326594 C78.6427967,144.088781 76.0842536,143.755031 74.4380086,142.628156" id="Fill-87" fill="#F66D75"></path>
                                <path d="M140.393233,59.8864687 C137.919664,62.8995937 133.32269,64.9124062 128.067405,64.8814687 C122.812121,64.8505313 118.238491,62.7861563 115.801339,59.7439688 C118.273975,56.7299062 122.870948,54.7170937 128.126233,54.7489687 C133.381518,54.7789688 137.955147,56.8442812 140.393233,59.8864687" id="Fill-89" fill="#F66D75"></path>
                                <path d="M133.233981,71.4788437 C130.761346,74.4919687 126.164372,76.5047812 120.909087,76.4738437 C115.653803,76.4438437 111.080174,74.3785313 108.642087,71.3363438 C111.115657,68.3222812 115.711697,66.3104063 120.966981,66.3413437 C126.2232,66.3713438 130.795895,68.4366562 133.233981,71.4788437" id="Fill-91" fill="#F66D75"></path>
                                <path d="M126.066513,85.2072188 C123.592943,88.2212812 118.99597,90.2331562 113.740685,90.2022187 C108.4854,90.1722187 103.911771,88.1069063 101.474619,85.0647188 C103.947254,82.0515938 108.544228,80.0378437 113.799513,80.0697187 C119.054797,80.1006563 123.627493,82.1659687 126.066513,85.2072188" id="Fill-93" fill="#F66D75"></path>
                                <path d="M116.390458,96.0132187 C114.379107,98.4638437 110.640272,100.099781 106.366385,100.075406 C102.091564,100.051031 98.3723384,98.3710312 96.3890007,95.8969687 C98.4003517,93.4454062 102.139186,91.8085312 106.414007,91.8329062 C110.687895,91.8582187 114.40712,93.5372812 116.390458,96.0132187" id="Fill-95" fill="#F66D75"></path>
                                <path d="M109.614614,105.491625 C107.988912,107.553188 104.96815,108.929438 101.515985,108.90975 C98.0628854,108.890063 95.057998,107.478188 93.4565742,105.398813 C95.0822762,103.33725 98.1030377,101.961 101.556137,101.981625 C105.008303,102.000375 108.01319,103.41225 109.614614,105.491625" id="Fill-97" fill="#F66D75"></path>
                                <path d="M107.062234,115.582594 C105.436532,117.642281 102.416704,119.019469 98.9636046,118.999781 C95.5114391,118.979156 92.5065517,117.567281 90.9051278,115.487906 C92.529896,113.426344 95.5506576,112.050094 99.003757,112.071656 C102.455923,112.091344 105.46081,113.501344 107.062234,115.582594" id="Fill-99" fill="#F66D75"></path>
                                <path d="M103.731552,125.061937 C102.531652,127.079437 99.9394927,128.73975 96.7403801,129.278812 C93.5394,129.818813 90.549453,129.1035 88.7584728,127.589437 C89.9583735,125.571 92.5505325,123.911625 95.749645,123.371625 C98.9496914,122.831625 101.940572,123.54975 103.731552,125.061937" id="Fill-101" fill="#F66D75"></path>
                                <path d="M101.253501,136.415438 C99.5362887,137.606063 96.8442159,137.976375 94.0905139,137.206688 C91.3368119,136.435125 89.2246132,134.718563 88.3683417,132.808875 C90.0864874,131.619188 92.7776265,131.246062 95.5313285,132.017625 C98.2840967,132.787313 100.397229,134.503875 101.253501,136.415438" id="Fill-103" fill="#F66D75"></path>
                                <path d="M96.8468305,144.190969 C95.3882742,144.838781 93.3124927,144.734719 91.3515656,143.763469 C89.3915722,142.791281 88.0460026,141.200344 87.6734265,139.641281 C89.1319828,138.991594 91.208698,139.096594 93.1686914,140.069719 C95.1286848,141.040969 96.4742543,142.631906 96.8468305,144.190969" id="Fill-105" fill="#F66D75"></path>
                                <path d="M93.1609411,147.089531 C92.2234311,147.578906 90.9236166,147.577969 89.7246497,146.983594 C88.5266166,146.389219 87.7347755,145.353281 87.5517556,144.307969 C88.4892656,143.819531 89.7890801,143.822344 90.9871132,144.414844 C92.1870139,145.010156 92.978855,146.045156 93.1609411,147.089531" id="Fill-107" fill="#F66D75"></path>
                                <path d="M92.7524146,150.332344 C91.8158384,150.820781 90.5150901,150.818906 89.3161232,150.225469 C88.1180901,149.630156 87.326249,148.595156 87.1432291,147.550781 C88.0807391,147.061406 89.3805536,147.063281 90.5785868,147.657656 C91.7784874,148.251094 92.5703285,149.287031 92.7524146,150.332344" id="Fill-109" fill="#F66D75"></path>
                                <path d="M40.9179199,35.8538438 C44.9256815,40.7175937 48.4133305,45.9657188 51.6862113,51.3404063 C54.9450854,56.7225937 57.8836748,62.2997813 60.5533371,68.0044687 C63.2192642,73.7119688 65.5910523,79.5582187 67.6705689,85.5122813 C69.7276748,91.4747813 71.4607609,97.5488438 72.903443,103.694156 C75.7906748,115.989469 77.2613702,128.612906 77.4686682,141.263531 C77.5536417,153.913219 76.3294629,166.579781 73.8250788,178.996969 L71.182496,178.429781 C73.8381517,166.236656 75.2388139,153.766969 75.3480656,141.271031 C75.3349927,128.776031 74.0753305,116.264156 71.4019331,104.034469 C70.0666351,97.9210312 68.4399993,91.8675937 66.4884099,85.9154063 C64.5153437,79.9725938 62.2472046,74.1225937 59.6839927,68.4057187 C57.1161119,62.6916563 54.2774364,57.0929062 51.1128735,51.6825938 C47.9399066,46.2835313 44.5353636,40.9885312 40.6321848,36.0994687 L40.9179199,35.8538438 Z" id="Fill-111" fill="#F794AC"></path>
                                <path d="M27.2241119,15.1199062 C25.9616483,19.1342812 26.8496682,24.4892812 29.9628735,29.2414687 C33.0760788,33.9936562 37.6216947,36.9327187 41.7928669,37.3602187 C43.0543967,33.3449062 42.1673106,27.9908437 39.0541053,23.2377187 C35.9409,18.4855312 31.3952841,15.5474062 27.2241119,15.1199062" id="Fill-113" fill="#F794AC"></path>
                                <path d="M57.5498503,23.3084063 C53.6326649,24.8102812 50.0058834,28.8359063 48.2317113,34.2377813 C46.4566053,39.6396563 46.9869894,45.0424687 49.2457907,48.5880937 C53.1639099,47.0852813 56.7906914,43.0615313 58.5648636,37.6596562 C60.3390358,32.2577812 59.8077179,26.8549688 57.5498503,23.3084063" id="Fill-115" fill="#F794AC"></path>
                                <path d="M71.2883861,38.7323438 C67.1144126,39.1335938 62.551055,42.0426563 59.4079689,46.7760937 C56.2648828,51.5095313 55.3441808,56.8589062 56.5814325,60.8798438 C60.755406,60.4785938 65.3187636,57.5695313 68.4618497,52.8370313 C71.6049358,48.1035937 72.5256377,42.7551563 71.2883861,38.7323438" id="Fill-117" fill="#F794AC"></path>
                                <path d="M78.6491464,53.9867812 C74.4751728,54.3880312 69.9118152,57.2970937 66.7687291,62.0305312 C63.625643,66.7630312 62.7058748,72.1114688 63.9421927,76.1342813 C68.1161662,75.7330313 72.6795238,72.8239688 75.8226099,68.0914688 C78.9647623,63.3580312 79.886398,58.0095937 78.6491464,53.9867812" id="Fill-119" fill="#F794AC"></path>
                                <path d="M87.6413046,70.2300937 C83.5037483,69.5466563 78.3511788,71.1872813 74.1062384,74.9550938 C69.8622318,78.7238438 67.6099669,83.6560313 67.7799139,87.8644688 C71.9174702,88.5479062 77.0709735,86.9072812 81.3149801,83.1394687 C85.5599205,79.3707188 87.8121854,74.4357187 87.6413046,70.2300937" id="Fill-121" fill="#F794AC"></path>
                                <path d="M91.6116219,87.679125 C88.1893371,86.1519375 83.3682576,86.4050625 78.8534563,88.7019375 C74.3395887,90.9988125 71.286145,94.7544375 70.4896351,98.426625 C73.9109861,99.9556875 78.7329993,99.701625 83.2468669,97.4056875 C87.7607344,95.1088125 90.8151119,91.354125 91.6116219,87.679125" id="Fill-123" fill="#F794AC"></path>
                                <path d="M95.0148576,99.0115313 C91.5935066,97.4824688 86.7714934,97.7365312 82.2576258,100.032469 C77.7437583,102.329344 74.6893808,106.084969 73.8938046,109.759031 C77.3151556,111.286219 82.1371689,111.033094 86.6510364,108.736219 C91.164904,106.439344 94.2192815,102.684656 95.0148576,99.0115313" id="Fill-125" fill="#F794AC"></path>
                                <path d="M93.8904993,113.287312 C90.9575126,111.978562 86.8246252,112.195125 82.955996,114.163875 C79.0864331,116.131687 76.4690623,119.350125 75.7864728,122.499187 C78.7194596,123.808875 82.852347,123.592312 86.7219099,121.623562 C90.5905391,119.654812 93.2088437,116.436375 93.8904993,113.287312" id="Fill-127" fill="#F794AC"></path>
                                <path d="M92.4373589,128.063906 C90.7500278,125.973281 87.580796,124.547344 83.9362728,124.519219 C80.2908159,124.490156 77.0991735,125.865469 75.3791603,127.929844 C77.0664914,130.021406 80.236657,131.445469 83.8811801,131.474531 C87.5266371,131.503594 90.7182795,130.128281 92.4373589,128.063906" id="Fill-129" fill="#F794AC"></path>
                                <path d="M89.6551768,139.617 C88.9062894,137.594812 86.8622563,135.700125 84.1020179,134.742 C81.3408457,133.784812 78.5675344,134.008875 76.736402,135.13575 C77.4843556,137.157937 79.5283887,139.052625 82.2895609,140.009812 C85.0497993,140.967 87.8240444,140.742937 89.6551768,139.617" id="Fill-131" fill="#F794AC"></path>
                                <path d="M22.9546132,47.0480625 C25.4608649,50.4230625 30.3062225,52.8324375 35.9667656,53.0761875 C41.6273086,53.3199375 46.6594212,51.3361875 49.4439377,48.189 C46.9376861,44.814 42.0932623,42.404625 36.4327192,42.160875 C30.7721762,41.9161875 25.7391298,43.900875 22.9546132,47.0480625" id="Fill-133" fill="#F794AC"></path>
                                <path d="M30.0582119,59.9075625 C32.5644636,63.2835 37.4088874,65.6919375 43.0694305,65.936625 C48.7299735,66.1794375 53.7620861,64.1956875 56.5466026,61.0494375 C54.0412848,57.6735 49.1959272,55.2650625 43.5353841,55.020375 C37.8748411,54.776625 32.8427285,56.7613125 30.0582119,59.9075625" id="Fill-135" fill="#F794AC"></path>
                                <path d="M37.0596556,75.068625 C39.5659073,78.443625 44.4103311,80.853 50.0708742,81.0958125 C55.7314172,81.338625 60.7635298,79.35675 63.5480464,76.208625 C61.0427285,72.8326875 56.1973709,70.4251875 50.5368278,70.1814375 C44.8762848,69.93675 39.8432384,71.9205 37.0596556,75.068625" id="Fill-137" fill="#F794AC"></path>
                                <path d="M46.9140616,87.2130937 C48.9524921,89.9580937 52.8930219,91.9165312 57.4965318,92.1152812 C62.1000417,92.3121562 66.1937106,90.7005937 68.4581146,88.1402812 C66.4206179,85.3943437 62.4791543,83.4359062 57.8756444,83.2380937 C53.2721344,83.0393437 49.1784656,84.6527812 46.9140616,87.2130937" id="Fill-139" fill="#F794AC"></path>
                                <path d="M53.7162377,97.7774062 C55.3587477,100.080844 58.5391848,101.722406 62.2574762,101.883656 C65.9776351,102.043031 69.2859993,100.681781 71.1189993,98.5274062 C69.4755556,96.2211562 66.2960523,94.5805312 62.5768272,94.4211562 C58.857602,94.2599062 55.548304,95.6211562 53.7162377,97.7774062" id="Fill-141" fill="#F794AC"></path>
                                <path d="M55.9372212,108.775594 C57.5797311,111.080906 60.7601682,112.720594 64.4793934,112.881844 C68.1986185,113.041219 71.5069828,111.679969 73.3399828,109.525594 C71.6974728,107.220281 68.5170358,105.579656 64.7978106,105.419344 C61.0785854,105.258094 57.7702212,106.620281 55.9372212,108.775594" id="Fill-143" fill="#F794AC"></path>
                                <path d="M59.0289497,119.158594 C60.2148437,121.395469 62.9199894,123.318281 66.3376053,124.068281 C69.7542874,124.819219 73.0122278,124.204219 75.0198437,122.668594 C73.8330159,120.432656 71.1278702,118.510781 67.7111881,117.758906 C64.294506,117.008906 61.0365656,117.623906 59.0289497,119.158594" id="Fill-145" fill="#F794AC"></path>
                                <path d="M61.1043576,131.513625 C62.8906689,132.886125 65.7713642,133.428937 68.7762517,132.743625 C71.7811391,132.05925 74.145457,130.322062 75.1670066,128.310187 C73.3797616,126.937687 70.5009338,126.395812 67.4960464,127.080187 C64.4902252,127.764562 62.1259073,129.50175 61.1043576,131.513625" id="Fill-147" fill="#F794AC"></path>
                                <path d="M65.4431424,140.118656 C66.9801358,140.894906 69.2211954,140.891156 71.3828841,139.947094 C73.5445728,139.005844 75.0750298,137.363344 75.5587252,135.704906 C74.0217318,134.927719 71.7806722,134.931469 69.6189834,135.875531 C67.4572947,136.818656 65.9268377,138.461156 65.4431424,140.118656" id="Fill-149" fill="#F794AC"></path>
                                <path d="M69.2603205,143.434781 C70.245453,144.012281 71.6442477,144.077906 72.9664728,143.501344 C74.2877642,142.923844 75.1944596,141.852281 75.4465788,140.735719 C74.4623801,140.160094 73.0617179,140.093531 71.7404265,140.670094 C70.4182013,141.247594 69.5124397,142.320094 69.2603205,143.434781" id="Fill-151" fill="#F794AC"></path>
                                <path d="M69.5312086,146.946656 C70.5154073,147.524156 71.9151358,147.589781 73.2373609,147.013219 C74.5586523,146.436656 75.4653477,145.363219 75.7165331,144.247594 C74.7323344,143.671969 73.332606,143.605406 72.0113146,144.182906 C70.6890894,144.759469 69.7833278,145.831969 69.5312086,146.946656" id="Fill-153" fill="#F794AC"></path>
                                <path d="M99.1625921,137.250375 C105.082725,128.541 111.319407,120.034125 117.97442,111.865688 L117.865168,111.771938 C111.041142,119.810063 104.627976,128.196 98.520155,136.801313 C92.4282079,145.418813 86.6780225,154.296 81.5077113,163.527563 C80.2611219,165.765375 79.0472146,168.026625 77.8734596,170.309438 C78.3328768,170.56725 78.792294,170.825063 79.2470424,171.093188 C80.3759762,168.7785 81.5487974,166.48725 82.7552344,164.213813 C87.7070424,154.935375 93.2583338,145.971 99.1625921,137.250375" id="Fill-155" fill="#F66D75"></path>
                                <path d="M124.552303,100.757437 C122.369138,100.958062 120.1038,102.419625 118.676058,104.804625 C117.247383,107.1915 117.026078,109.885875 117.873946,111.914625 C120.058045,111.714937 122.323383,110.254312 123.752058,107.867438 C125.1798,105.482438 125.401105,102.788062 124.552303,100.757437" id="Fill-157" fill="#F66D75"></path>
                                <path d="M108.273246,105.844125 C107.382425,107.585063 107.337604,110.200688 108.336743,112.797562 C109.334948,115.394438 111.122193,117.300375 112.946789,117.987562 C113.836677,116.246625 113.882432,113.631 112.883293,111.033188 C111.884154,108.438187 110.098776,106.531313 108.273246,105.844125" id="Fill-159" fill="#F66D75"></path>
                                <path d="M107.724747,125.005219 C109.207581,126.274594 111.733442,126.919594 114.479674,126.540844 C117.225906,126.160219 119.483774,124.854281 120.56882,123.227719 C119.085985,121.958344 116.560125,121.313344 113.814826,121.693031 C111.067661,122.071781 108.810727,123.379594 107.724747,125.005219" id="Fill-161" fill="#F66D75"></path>
                                <path d="M101.174223,133.495781 C102.656124,134.765156 105.182919,135.411094 107.92915,135.031406 C110.674448,134.650781 112.93325,133.344844 114.018296,131.718281 C112.535462,130.448906 110.009601,129.802969 107.263369,130.183594 C104.518071,130.563281 102.25927,131.870156 101.174223,133.495781" id="Fill-163" fill="#F66D75"></path>
                                <path d="M96.7245993,140.257875 C98.2074338,141.528188 100.733295,142.173188 103.478593,141.794438 C106.225758,141.413813 108.483626,140.106938 109.568672,138.481313 C108.085838,137.211 105.559977,136.566 102.813745,136.946625 C100.068447,137.325375 97.8096457,138.633188 96.7245993,140.257875" id="Fill-165" fill="#F66D75"></path>
                                <path d="M91.7904397,147.723094 C93.2732742,148.992469 95.8000689,149.639344 98.5463007,149.258719 C101.292532,148.878094 103.549466,147.572156 104.635446,145.945594 C103.152612,144.676219 100.626751,144.031219 97.8805192,144.410906 C95.1342874,144.790594 92.8764199,146.097469 91.7904397,147.723094" id="Fill-167" fill="#F66D75"></path>
                                <path d="M102.570777,113.128031 C101.679956,114.868969 101.635134,117.484594 102.634274,120.082406 C103.633413,122.678344 105.41879,124.584281 107.24432,125.271469 C108.134207,123.530531 108.179962,120.914906 107.180823,118.318031 C106.181684,115.722094 104.395373,113.815219 102.570777,113.128031" id="Fill-169" fill="#F66D75"></path>
                                <path d="M97.1204265,120.62625 C96.2296053,122.36625 96.1847841,124.982812 97.1839232,127.579687 C98.1830623,130.175625 99.9693735,132.0825 101.793036,132.76875 C102.683857,131.02875 102.729612,128.41125 101.730473,125.815312 C100.731334,123.220312 98.9459563,121.3125 97.1204265,120.62625" id="Fill-171" fill="#F66D75"></path>
                                <path d="M91.9335874,128.183906 C91.0427662,129.924844 90.997945,132.540469 91.9970841,135.138281 C92.9962232,137.734219 94.7825344,139.639219 96.6071305,140.327344 C97.4970179,138.586406 97.5427728,135.970781 96.5436338,133.373906 C95.5444947,130.777969 93.7581834,128.871094 91.9335874,128.183906" id="Fill-173" fill="#F66D75"></path>
                                <path d="M86.9072642,135.589594 C86.016443,137.329594 85.9716219,139.946156 86.9707609,142.542094 C87.9699,145.139906 89.7562113,147.044906 91.5808073,147.732094 C92.4706947,145.992094 92.5164497,143.375531 91.5173106,140.778656 C90.5181715,138.182719 88.7318603,136.276781 86.9072642,135.589594" id="Fill-175" fill="#F66D75"></path>
                            </g>
                            <g id="Group-180" stroke-width="1" fill="none" transform="translate(137.000000, 180.000000)">
                                <mask id="mask-5" fill="white">
                                    <use xlink:href="#path-4"></use>
                                </mask>
                                <g id="Clip-179"></g>
                                <path d="M9.55461818,0.685853659 C4.20981818,4.97707317 0.817854545,11.3629268 0.817854545,18.4976585 L0.817854545,18.4976585 C0.817854545,26.117122 4.68365455,32.8839024 10.6645636,37.1565854 L10.6645636,37.1565854 L40.6228909,37.1565854 C46.6038,32.8839024 50.4705273,26.117122 50.4705273,18.4976585 L50.4705273,18.4976585 C50.4705273,11.3629268 47.0776364,4.97707317 41.7328364,0.685853659 L41.7328364,0.685853659 L9.55461818,0.685853659 Z" id="Fill-178" fill="url(#linearGradient-6)" mask="url(#mask-5)"></path>
                            </g>
                            <g id="Group-186" stroke-width="1" fill="none">
                                <path d="M149.594906,183.561579 C146.387719,182.974527 142.091156,186.772106 140.981156,194.40659 C139.468031,209.474255 149.075531,213.899147 154.317094,210.074415 C149.748656,208.273936 144.752719,204.981951 144.606469,197.563749 C144.353344,193.681904 145.820531,189.940501 145.845844,189.825338 C146.049281,189.369366 146.458031,188.237395 147.223031,186.928466 C147.898031,185.660734 148.719281,184.594303 149.594906,183.561579" id="Fill-181" fill="#F8E000"></path>
                                <mask id="mask-8" fill="white">
                                    <use xlink:href="#path-7"></use>
                                </mask>
                                <g id="Clip-184"></g>
                                <polygon id="Fill-183" fill="#0072C5" mask="url(#mask-8)" points="145.017188 180.857863 180.954375 180.857863 180.954375 177.313081 145.017188 177.313081"></polygon>
                            </g>
                            <polygon id="Fill-187" fill="url(#linearGradient-9)" points="128 328 215 328 215 218 128 218"></polygon>
                            <g id="Group-202" stroke-width="1" fill="none" transform="translate(127.000000, 87.000000)">
                                <polygon id="Fill-189" fill="#901019" points="88.0252727 239.478911 104.942182 239.478911 104.942182 129.708327 88.0252727 129.708327"></polygon>
                                <polygon id="Fill-191" fill="#901019" points="12.7901114 162.097214 83.9362023 162.097214 83.9362023 134.680249 82.0262591 160.851455"></polygon>
                                <path d="M51.3886955,141.816 C51.3886955,143.164482 48.7657068,144.258023 45.52965,144.258023 C42.2935932,144.258023 39.6706045,143.164482 39.6706045,141.816 C39.6706045,140.468451 42.2935932,139.374911 45.52965,139.374911 C48.7657068,139.374911 51.3886955,140.468451 51.3886955,141.816" id="Fill-193" fill="#901019"></path>
                                <polygon id="Fill-197" fill="#A6393F" points="0.474420455 135.603735 88.0252727 135.603735 88.0252727 129.709261 0.474420455 129.709261"></polygon>
                                <polygon id="Fill-198" fill="#350042" points="88.0818636 135.603735 104.942182 135.603735 104.942182 129.709261 88.0818636 129.709261"></polygon>
                                <path d="M165.126425,60.1613696 L127.445368,60.1613696 C129.359084,64.9763113 133.032777,75.607284 130.366402,80.7826926 C130.023084,81.4233152 129.71655,81.9995019 129.42322,82.5374008 C135.367152,83.6645603 139.461505,86.0085292 139.461505,88.7232374 C139.461505,88.7615253 139.4483,88.8128872 139.436039,88.864249 L103.439505,88.864249 C103.439505,88.8128872 103.4263,88.7615253 103.4263,88.7232374 C103.4263,84.9065837 111.487675,81.8192685 121.438243,81.8192685 C122.777561,81.8192685 124.078209,81.8706304 125.327925,81.9733541 C125.774993,81.2430817 126.309777,80.2821479 126.960573,79.0018366 C128.746959,75.5559222 125.774993,65.938179 123.300084,60.1613696 L77.7613795,60.1613696 L77.7613795,0.806661479 L165.126425,0.806661479 L165.126425,60.1613696 Z" id="Fill-199" fill="#51427B"></path>
                                <polygon id="Fill-200" fill="#C5C5E0" points="117.15167 0.807128405 89.1269091 60.1618366 79.2036932 60.1618366 107.227511 0.807128405"></polygon>
                                <polygon id="Fill-201" fill="#C5C5E0" points="101.602564 0.807128405 77.7617568 51.2977121 77.7617568 30.291642 91.6916091 0.807128405"></polygon>
                            </g>
                            <g id="Group-205" stroke-width="1" fill="none" transform="translate(177.000000, 183.000000)">
                                <mask id="mask-11" fill="white">
                                    <use xlink:href="#path-10"></use>
                                </mask>
                                <g id="Clip-204"></g>
                                <path d="M311.469394,0.148766234 L311.469394,7.57954545 L285.029578,7.57954545 L285.029578,0.159123377 L255.70569,0.159123377 L255.70569,7.57954545 L66.8308601,7.57954545 L66.8308601,0.148766234 L40.0352163,0.148766234 L40.0352163,7.57954545 L0.543104326,7.57954545 L0.543104326,144.47461 L367.194707,144.47461 L367.194707,7.57954545 L339.605944,7.57954545 L339.605944,0.148766234 L311.469394,0.148766234 Z M161.560427,137.299935 L359.538809,137.299935 L359.538809,14.7551623 L161.560427,14.7551623 L161.560427,137.299935 Z M8.19900254,137.299935 L155.388702,137.299935 L155.388702,14.7551623 L8.19900254,14.7551623 L8.19900254,137.299935 Z" id="Fill-203" fill="url(#linearGradient-12)" mask="url(#mask-11)"></path>
                            </g>
                            <polygon id="Fill-206" fill="url(#linearGradient-13)" points="161 184 545 184 545 176 161 176"></polygon>
                            <g id="Group-258" stroke-width="1" fill="none" transform="translate(302.000000, 51.000000)">
                                <path d="M65.6382523,54.5981563 L65.8512831,55.6294063 L63.13256,89.6737813 C63.13256,89.6737813 49.4723138,110.199406 44.6242215,115.043469 C39.8296215,119.832219 32.7996062,115.043469 32.7996062,115.043469 C41.8623292,101.729094 65.6382523,54.5981563 65.6382523,54.5981563" id="Fill-214" fill="#FD5E5A"></path>
                                <path d="M65.6382523,54.5981563 L63.4516369,91.0612813 L47.2556677,117.170656 C47.2556677,117.170656 38.3796985,105.197844 38.3796985,104.161906 C38.3796985,103.248781 54.8431292,63.9956563 60.3462677,59.8125313 C65.8512831,55.6294063 65.6382523,54.5981563 65.6382523,54.5981563" id="Fill-215" fill="#7D7DA2"></path>
                                <path d="M58.7048046,293.933469 C58.0065892,291.648781 52.3823892,282.865344 45.0942969,271.771906 C29.8198969,248.552844 7.16637385,214.929406 7.16637385,209.826594 C7.16637385,202.162531 24.6592969,178.164406 33.1185892,168.540031 C38.6404969,162.258781 56.4205892,139.573156 56.4205892,139.573156 L67.5573123,133.383781 C67.5573123,133.383781 54.2255277,180.350656 54.2255277,183.494094 C54.2255277,186.638469 23.4927892,203.145031 25.0675277,207.861594 C26.6403892,212.579094 33.17302,219.653469 38.3861738,224.859406 C41.6754815,228.146281 48.2784969,247.122219 53.6418046,261.615969 C53.3940508,261.739719 53.1547431,261.880344 52.9201277,262.029406 C53.1603738,261.889719 53.3949892,261.739719 53.6418046,261.615969 C56.7772046,270.089094 59.4893585,277.032219 60.8688969,278.408469 C62.27002,279.810031 63.4224508,280.546906 64.4097123,281.014719 C66.0538969,281.792844 66.3091585,288.045969 66.0163585,290.208781 C64.0127431,293.106594 68.4572969,305.595969 68.4572969,305.595969 L61.0143585,314.835969 C58.3585123,312.182844 60.2485738,307.607844 60.8510662,306.287844 C61.9481277,303.886906 60.8688969,301.007844 58.7048046,293.933469" id="Fill-217" fill="#FD5E5A"></path>
                                <path d="M18.7725154,320.659531 C22.5094692,319.479219 22.5094692,301.991094 24.8706385,291.183594 C27.2205462,280.416406 29.9955769,213.489219 31.1649,205.700469 C32.3454846,197.838594 59.6415769,148.193281 59.6415769,148.193281 L56.4207769,139.572969 C68.3655154,142.109844 84.6009,142.600156 96.6591923,142.743594 C88.2834231,164.496406 48.1961,207.272656 48.1961,207.272656 C48.1961,207.272656 46.0207462,251.290156 40.1197,270.549219 C38.6744692,275.265781 35.7887,285.339219 35.5615923,285.954219 C32.5050231,294.222969 30.3306077,298.409844 33.4378538,303.810781 C34.7122846,306.027031 30.6224692,314.914531 30.6224692,314.914531 C29.1059154,318.104844 28.2303308,323.724219 26.1638385,325.787656 C24.0982846,327.851094 15.0177308,326.901406 15.0177308,326.901406 C15.0177308,326.901406 15.0346231,321.838906 18.7725154,320.659531" id="Fill-219" fill="#FC7575"></path>
                                <path d="M0.42578,204.975313 C2.36464154,196.9325 54.5562415,139.5725 54.5562415,139.5725 C54.5562415,139.5725 65.8506262,130.540625 57.4176108,97.4421875 C51.0341954,72.39125 54.3169338,68.3571875 59.4381185,60.2571875 C63.89018,53.2146875 66.74498,51.550625 66.74498,51.550625 C66.74498,51.550625 87.22878,44.954375 87.22878,50.849375 C87.22878,56.7453125 80.5403646,82.29125 84.4743954,97.619375 C88.5276108,113.413438 110.991565,143.775313 94.8941338,159.857188 C83.5697185,171.169063 84.4865954,163.83875 59.7797185,204.864688 C55.2657185,212.360938 53.1157031,218.240938 53.1157031,218.240938 L0.42578,204.975313 Z" id="Fill-223" fill="#4239A0"></path>
                                <path d="M54.5564292,139.572781 C59.8587369,135.268719 61.4156446,125.066844 61.4015677,117.423406 C61.12566,109.674969 61.1847831,113.701531 60.7493369,108.529344 C55.76986,80.0237188 50.8795369,75.5921563 59.7489369,60.8321563 C61.4025062,57.9502813 64.3164292,53.3874688 66.7451677,51.5499688 C63.8002754,53.3452813 60.7390138,57.4271563 58.7841985,60.2237188 C48.0697831,75.9109063 54.1669677,84.1787188 58.6575062,108.834969 C58.78326,110.247781 60.6648754,119.884344 59.0141215,129.007156 C58.3412446,132.773094 57.1597215,136.614031 54.5564292,139.572781" id="Fill-224" fill="#A6A6D8"></path>
                                <path d="M82.0026754,46.0177813 C82.0026754,46.0177813 73.8934292,63.3699688 72.0634292,78.9671563 C70.2324908,94.5643438 80.2045831,150.317469 90.1635369,153.939969 C100.122491,157.562469 110.898845,153.064344 111.916137,150.220906 C112.932491,147.376531 97.4647677,114.974656 91.8799831,106.293406 C86.2961369,97.6112188 89.5235062,57.7299688 89.5235062,54.5977813 C89.5235062,51.4655938 82.0026754,46.0177813 82.0026754,46.0177813" id="Fill-225" fill="#A6A6D8"></path>
                                <path d="M82.0026754,46.0177813 C75.8444908,58.1480938 70.4530292,73.0637188 70.7627215,86.6649688 C71.3304908,103.522156 79.0193062,147.409344 89.5235062,153.637156 C81.5278138,147.757156 75.6380292,110.303094 74.4001985,100.464031 C72.1535215,83.8684063 71.43466,73.4837188 82.0026754,46.0177813" id="Fill-226" fill="#7D7DA2"></path>
                                <path d="M77.76402,114.821562 C77.76402,115.68875 78.4678662,116.392812 79.3359431,116.392812 C80.20402,116.392812 80.9078662,115.68875 80.9078662,114.821562 C80.9078662,113.954375 80.20402,113.25125 79.3359431,113.25125 C78.4678662,113.25125 77.76402,113.954375 77.76402,114.821562" id="Fill-227" fill="#7D7DA2"></path>
                                <path d="M80.4264354,124.875875 C80.4264354,125.744 81.1302815,126.447125 81.9983585,126.447125 C82.8664354,126.447125 83.5702815,125.744 83.5702815,124.875875 C83.5702815,124.009625 82.8664354,123.305563 81.9983585,123.305563 C81.1302815,123.305563 80.4264354,124.009625 80.4264354,124.875875" id="Fill-228" fill="#7D7DA2"></path>
                                <path d="M83.9337477,134.449531 C83.9337477,135.316719 84.6375938,136.019844 85.5056708,136.019844 C86.3737477,136.019844 87.0775938,135.316719 87.0775938,134.449531 C87.0775938,133.582344 86.3737477,132.880156 85.5056708,132.880156 C84.6375938,132.880156 83.9337477,133.582344 83.9337477,134.449531" id="Fill-229" fill="#7D7DA2"></path>
                                <path d="M42.5410246,149.496219 C45.4249169,148.616844 46.6317785,143.315281 46.8419938,141.842469 C47.0531477,140.367781 45.8171938,137.733406 44.4658092,139.491219 C43.1144246,141.248094 38.9701785,141.101844 39.5510862,139.899969 C40.1329323,138.697156 44.0528862,137.439031 44.9247169,135.635281 C45.7965477,133.832469 47.2689938,129.539656 50.5648708,128.534656 C53.8607477,127.529656 87.3366092,118.541844 87.94004,113.881531 C87.9822708,113.552469 87.8799785,112.736844 87.6744554,111.583719 C91.8872092,110.285281 96.3749323,109.577469 100.712502,109.806219 C101.083194,115.568094 101.188302,119.319969 101.188302,119.319969 C92.3658246,129.889344 52.6895477,129.745906 52.5215631,132.999031 C52.3545169,136.254031 51.5333631,146.050906 50.7703938,147.627781 C50.0074246,149.205594 43.7375631,156.883719 43.3546708,155.911531 C42.97084,154.939344 44.8449477,151.996531 44.8449477,151.996531 C44.8449477,151.996531 40.9015323,156.209656 39.8429477,155.699656 C38.7853015,155.188719 44.0679015,150.695281 44.0679015,150.695281 C44.0679015,150.695281 39.49384,153.307156 38.5985477,152.874969 C37.7032554,152.443719 39.6571323,150.374656 42.5410246,149.496219" id="Fill-230" fill="#FC7575"></path>
                                <path d="M87.6747369,111.583344 C85.9939523,102.108031 76.9884754,68.3345937 76.9087062,67.7467812 C75.9251985,60.4989687 83.9490446,52.0989687 87.3387677,51.4464687 C96.4390292,60.5383437 101.937475,94.0492812 102.995122,110.484594 C98.6575523,110.255844 91.8874908,110.284906 87.6747369,111.583344" id="Fill-231" fill="#B8B8E0"></path>
                                <path d="M87.6747369,111.583344 C86.8929985,106.157094 85.6711215,100.810531 84.4689523,95.4724062 C78.0536292,67.3333437 76.6065215,68.6102187 77.6547831,63.7980312 C79.0868754,57.9902187 84.2765677,52.4092812 87.3387677,51.4464687 C84.1001369,52.1280312 78.5397523,57.4155312 76.7454138,63.5674062 C75.8416754,66.9339687 76.5351985,68.4395937 77.38826,71.8680312 C77.1968138,71.3420937 79.6781062,80.9083437 85.6542292,103.629594 C86.3637062,106.271469 87.0497215,108.917094 87.6747369,111.583344" id="Fill-232" fill="#E3E3F3"></path>
                                <path d="M58.1613415,5.157875 C58.1613415,5.157875 60.0354492,0.350375 71.3767569,0.350375 C82.7171262,0.350375 85.0435723,11.53475 83.5889569,14.2938125 C82.13528,17.052875 84.6062492,22.6385 87.2236185,23.4044375 C89.8409877,24.170375 96.3905108,27.751625 92.8506338,31.2869375 C89.3098185,34.8250625 95.6566338,34.6281875 95.6566338,37.824125 C95.6566338,41.0181875 93.7158954,43.1200625 89.2591415,43.6919375 C84.8023877,44.2638125 58.1613415,5.157875 58.1613415,5.157875" id="Fill-233" fill="#31003D"></path>
                                <path d="M66.6501015,26.6297188 C69.5311785,36.9600313 77.3945477,33.4415938 78.4794092,42.3159688 C78.8820092,45.6094063 78.1368708,49.1747188 76.4072862,52.1315938 C73.3169323,57.4190938 67.2019169,55.1409688 67.2019169,55.1409688 C67.2019169,55.1409688 71.66524,52.5900313 70.7971631,51.5128438 C70.7971631,51.5128438 66.8743938,56.3250313 63.6967631,54.8381563 C60.5191323,53.3531563 59.4671169,51.4809688 59.4671169,51.4809688 C59.4671169,51.4809688 65.4179015,51.4537813 62.1295323,48.0328438 C59.8387477,45.6487813 56.23224,43.2647188 53.7059015,39.4153438 C51.8214708,36.5400313 54.98784,30.3825313 55.6691631,25.3903438 C59.0401169,22.0753438 62.7235785,19.0294063 66.5159015,16.0753438 C66.4755477,19.5965938 65.6891169,23.1815938 66.6501015,26.6297188" id="Fill-234" fill="#31003D"></path>
                                <path d="M59.9933123,38.29625 C59.9933123,38.29625 64.0099277,41.665625 64.9737277,46.514375 C65.4945738,49.1384375 65.8971738,52.5040625 65.6381585,54.5984375 C65.3669431,56.795 66.3917431,58.2996875 68.5924354,58.5528125 C69.9381892,58.7084375 71.4425431,58.5228125 72.8070662,57.5309375 C74.9814815,55.9465625 78.1947738,53.234375 78.5739123,50.249375 C78.8291738,48.2515625 66.4170815,29.8278125 66.4170815,29.8278125 L59.9933123,38.29625 Z" id="Fill-235" fill="#FC7575"></path>
                                <path d="M59.9933123,38.29625 L66.4170815,29.8278125 C66.4170815,29.8278125 67.8763892,31.9934375 69.7842815,34.92125 C68.66282,38.3028125 66.8863123,41.759375 64.0305738,43.6915625 C62.5027585,40.4103125 59.9933123,38.29625 59.9933123,38.29625" id="Fill-236" fill="#FD5E5A"></path>
                                <path d="M56.1629815,7.6416875 C56.1629815,7.6416875 53.2856585,9.247625 52.1416738,12.787625 C50.9976892,16.3304375 52.78452,20.7779375 52.3049662,23.835125 C51.8244738,26.8941875 55.2226431,42.35075 62.8420123,40.0191875 C70.4604431,37.6895 71.6269508,26.5135625 72.0173508,24.0291875 C72.4077508,21.543875 70.3131046,12.40325 66.4194277,9.737 C62.5257508,7.0716875 56.1629815,7.6416875 56.1629815,7.6416875" id="Fill-237" fill="#FC7575"></path>
                                <path d="M52.1419554,12.7878125 C53.28594,9.2478125 56.1632631,7.641875 56.1632631,7.641875 C56.1632631,7.641875 62.5250938,7.0709375 66.4197092,9.7371875 C70.3133862,12.4034375 72.4070938,21.5440625 72.0166938,24.029375 C71.7192015,25.9278125 70.9684323,32.898125 67.2314785,37.1225 C66.8382631,32.7940625 69.9286169,26.3759375 68.6523092,20.2071875 C68.2750477,20.433125 66.62054,20.6065625 65.7853092,20.5634375 C62.2632631,20.3815625 67.1488938,15.396875 63.9496785,10.4759375 C61.9751554,8.9909375 61.9104015,8.81375 60.61814,8.504375 C60.1958323,12.479375 56.3406323,19.4121875 52.3568631,23.395625 C52.6233862,20.3609375 51.0514631,16.16375 52.1419554,12.7878125" id="Fill-238" fill="#FD5E5A"></path>
                                <path d="M57.6233215,23.1195312 C57.3849523,25.0470312 56.8941369,27.3560937 56.3986292,29.2460937 C56.9973677,29.6089062 57.7988138,29.8526562 58.5655369,29.7842187 C57.3286446,30.1929687 56.1048908,29.4279687 56.0279369,29.4092187 C56.3714138,27.8360937 56.7449215,25.7257812 57.6233215,23.1195312" id="Fill-239" fill="#4F005E"></path>
                                <path d="M61.2841662,20.2814375 C61.2841662,20.2814375 62.8241815,19.2839375 64.5443815,19.2220625 C66.2645815,19.1601875 68.4530738,21.30425 68.4530738,21.30425 C68.4530738,21.30425 65.9961815,19.629875 64.8484431,19.7151875 C63.7007046,19.8014375 62.5276277,20.4595625 62.5276277,20.4595625 L61.2841662,20.2814375 Z" id="Fill-240" fill="#4F005E"></path>
                                <path d="M57.1843092,20.0013125 C57.1843092,20.0013125 56.00654,18.78725 54.5838323,18.4713125 C53.1611246,18.1544375 51.1246631,19.9488125 51.1246631,19.9488125 C51.1246631,19.9488125 53.3356785,18.657875 54.2807092,18.9138125 C55.22574,19.16975 56.1332323,19.992875 56.1332323,19.992875 L57.1843092,20.0013125 Z" id="Fill-241" fill="#4F005E"></path>
                                <path d="M61.9266369,32.9358125 C58.1512062,34.0045625 56.7932523,33.801125 55.5535446,33.42425 C57.2493446,35.018 60.4316677,34.4255 61.9266369,32.9358125" id="Fill-242" fill="#FFFFFF"></path>
                                <path d="M62.1735462,22.87325 C62.2711462,23.47325 62.7797923,23.8904375 63.3081462,23.8041875 C63.8383769,23.7179375 64.1884231,23.162 64.0908231,22.562 C63.9941615,21.962 63.4845769,21.5448125 62.9552846,21.6310625 C62.4259923,21.7173125 62.0759462,22.2723125 62.1735462,22.87325" id="Fill-243" fill="#4F005E"></path>
                                <path d="M66.5574754,23.4043437 C62.9603523,19.7115312 61.5423369,22.4143437 60.3467369,22.6037187 C61.3199215,22.6627812 62.4291831,21.6155937 63.4962138,21.8930937 C64.3699215,22.1105937 65.6781369,22.9093437 66.5574754,23.4043437" id="Fill-244" fill="#42004A"></path>
                                <path d="M54.0055523,22.6462813 C54.0947062,23.2481563 54.5029369,23.6747188 54.9177369,23.5997188 C55.3325369,23.5256563 55.5962446,22.9781563 55.5070908,22.3772188 C55.4179369,21.7772188 55.0097062,21.3497188 54.5949062,21.4237813 C54.1801062,21.4987813 53.9163985,22.0462813 54.0055523,22.6462813" id="Fill-245" fill="#4F005E"></path>
                                <path d="M57.0583677,23.0664687 C54.1979369,19.5789687 52.8831523,22.3117812 51.8696138,22.5536562 C52.6851369,22.5677187 53.6658292,21.4839687 54.5507985,21.7108437 C55.2762292,21.8870937 56.3413831,22.6164687 57.0583677,23.0664687" id="Fill-246" fill="#42004A"></path>
                                <path d="M61.9439985,28.6475 C62.1119831,29.6778125 63.3545062,30.3321875 64.7199677,30.111875 C66.0863677,29.8896875 67.0567369,28.874375 66.8896908,27.845 C66.7226446,26.8146875 65.4791831,26.1584375 64.1137215,26.380625 C62.7473215,26.601875 61.7769523,27.6171875 61.9439985,28.6475" id="Fill-247" fill="#FD5E5A"></path>
                                <path d="M63.9492092,10.476125 C61.4106708,8.567375 59.4211323,7.9514375 58.0190708,7.8005 C57.4100092,7.7695625 56.9323323,7.7770625 56.5700862,7.7995625 C56.0548708,7.854875 55.7395477,7.948625 55.6303883,7.928 C55.6259938,7.8951875 55.6766708,7.753625 55.7883477,7.538 C56.3148246,6.3839375 58.2855938,3.073625 63.5306554,3.1655 C63.7042708,3.16362529 63.8778862,3.167375 64.0515015,3.174875 C67.2685477,3.3005 70.5165631,3.2133125 73.6313169,4.1676875 C75.4528708,4.7255 77.2519015,5.687375 78.6107938,7.0355 C80.2775015,8.68925 80.4802092,10.6636253 80.5308862,12.91925 C80.6228554,17.0489375 79.7087938,21.2620625 80.7598708,25.3214375 C81.7640246,29.20925 84.0914092,32.8420625 87.6519323,34.8408125 C90.7497938,36.579875 92.3132708,39.2958125 92.7280708,42.8208125 C93.1588246,46.478 92.44184,50.424875 90.7357169,53.691125 C87.6875938,59.5289375 81.5500554,56.95175 81.5500554,56.95175 C81.5500554,56.95175 85.9946092,54.159875 85.1180862,52.9570625 C85.1180862,52.9570625 81.2328554,58.2633125 78.0411477,56.588 C74.8485015,54.91175 73.7805323,52.828625 73.7805323,52.828625 C73.7805323,52.828625 79.7341323,52.8464375 76.4157323,49.02425 C74.1024246,46.3608125 70.4743323,43.688 67.9142092,39.3951875 C66.5037015,37.029875 67.79784,33.017375 68.8573631,28.6176875 C68.9380708,28.104875 69.1557938,27.2095625 69.4007323,26.1614375 C69.8821631,23.6855 70.1261631,21.1655 69.64004,18.816125 C69.2627785,19.043 68.7165938,19.2155 67.8804246,19.1733125 C65.8552246,19.0683125 65.8636708,17.848625 65.7820246,16.0214375 C65.5277015,14.258 65.0087323,12.1055 63.9492092,10.476125" id="Fill-248" fill="#4F005E"></path>
                                <path d="M58.1613415,5.157875 C58.1613415,5.157875 54.1775723,4.5485 50.7831569,7.01975 C47.3887415,9.4919375 47.0368185,19.3225625 48.8227108,21.361625 C50.6086031,23.4006875 42.4468031,26.071625 46.8463108,26.4335 C53.0842646,26.94725 61.9987108,6.1750625 58.1613415,5.157875" id="Fill-249" fill="#4F005E"></path>
                                <path d="M76.7330262,20.6375938 C75.3994723,23.1266563 74.2095031,26.4725938 73.9016877,29.1829063 C72.9876262,37.8444688 82.8227031,34.7910313 85.3312108,35.3666563 C86.8806108,35.6741563 87.9861185,37.3185313 87.1105338,39.1663438 C86.4038723,40.6925938 85.2917954,41.0094688 84.6508262,41.5672813 C83.67858,42.4297813 83.9263338,43.6485313 84.8028569,44.2635313 C86.5380723,45.5010313 89.1920415,43.7300938 89.5514723,46.3954063 C89.8452108,48.2554063 88.9621185,50.2897813 87.33858,51.4475938 C89.1235338,50.5194688 90.2731492,48.4429063 90.1558415,46.3335313 C90.0235185,44.1641563 88.5538877,44.0338438 86.5268108,43.8679063 C85.2749031,43.7563438 84.9154723,43.0888438 85.0768877,42.7222813 C85.2730262,41.9863438 87.0429646,41.9713438 88.16818,39.6744688 C89.0306262,38.0366563 88.6514877,36.0669688 87.1893646,34.9044688 C83.3839031,31.8313438 72.6854415,39.0641563 75.0907185,26.3422813 C75.4426415,24.4016563 76.0460723,22.5079063 76.7330262,20.6375938" id="Fill-250" fill="#6A0084"></path>
                                <path d="M56.9396523,6.531125 C51.0245292,6.3370625 47.3072831,11.106125 48.8726369,16.043 C49.1400985,16.87925 49.5849292,17.7220625 50.4023292,18.024875 L50.7429908,16.83425 C50.42016,16.7976875 50.0147446,15.9839375 49.8946215,15.6839375 C48.1472062,11.387375 51.3116985,6.7739375 56.9396523,6.531125" id="Fill-251" fill="#6A0084"></path>
                                <path d="M24.6878262,88.0139375 C24.6878262,88.0139375 44.5710108,114.608937 42.7860569,116.392062 C41.0011031,118.175187 33.7158262,120.006125 27.88798,112.540812 C22.0610723,105.0755 22.0601338,94.862375 19.1124262,89.9901875 C16.1647185,85.1189375 12.5075338,86.5908125 10.80798,84.8939375 C9.10936462,83.196125 8.82594923,75.9783125 8.82594923,73.9983125 C8.82594923,72.0183125 15.7649338,71.4839375 18.2809492,73.9983125 C20.7969646,76.5108125 24.6878262,88.0139375 24.6878262,88.0139375" id="Fill-252" fill="#FD5E5A"></path>
                                <path d="M2.01037231,64.5755937 L2.01037231,87.9371562 C2.01037231,88.3927812 5.06131077,88.7640312 8.82548,88.7640312 C12.5896492,88.7640312 15.6415262,88.3927812 15.6415262,87.9371562 L15.6415262,64.5755937 L2.01037231,64.5755937 Z" id="Fill-253" fill="#FF0000"></path>
                                <path d="M15.6414323,64.5764375 C15.6414323,65.0714375 12.5895554,65.473625 8.82538615,65.473625 C5.06215538,65.473625 2.01027846,65.0714375 2.01027846,64.5764375 C2.01027846,64.0795625 5.06215538,63.6764375 8.82538615,63.6764375 C12.5895554,63.6764375 15.6414323,64.0795625 15.6414323,64.5764375" id="Fill-254" fill="#720000"></path>
                                <path d="M15.0992831,64.5764375 C15.0992831,65.0320625 12.2904677,65.402375 8.82566769,65.402375 C5.36180615,65.402375 2.55205231,65.0320625 2.55205231,64.5764375 C2.55205231,64.119875 5.36180615,63.748625 8.82566769,63.748625 C12.2904677,63.748625 15.0992831,64.119875 15.0992831,64.5764375" id="Fill-255" fill="#5DB9F4"></path>
                                <polygon id="Fill-256" fill="#FF9999" points="6.48767846 67.4475312 3.84403231 67.4475312 5.16538615 86.3372187"></polygon>
                            </g>
                        </g>
                    </g>
                </g>
            </g>
        </g>
    </g>
</svg>