<svg width="299" height="224" xmlns="http://www.w3.org/2000/svg" xmlns:xlink="http://www.w3.org/1999/xlink"><defs><path id="a" d="M0 0h299v224H0z"/><path id="d" d="M.205.111h60.728v99.33H.205z"/><linearGradient x1="23.917%" y1="68.65%" x2="84%" y2="28.94%" id="b"><stop stop-color="#EEE" offset="0%"/><stop stop-color="#D8D8D8" offset="100%"/></linearGradient></defs><g fill="none" fill-rule="evenodd"><mask id="c" fill="#fff"><use xlink:href="#a"/></mask><use fill="url(#b)" xlink:href="#a"/><g mask="url(#c)"><path d="M93.201 153.2s9.737 27.897 24.55 32.878c14.81 4.982 35.006 8.39 37.147 6.292 2.143-2.1 5.918-28.107-8.41-38.878C132.156 142.72 92 148.604 92 148.604l1.201 4.595z" fill="#596268"/><path fill="#542360" d="M211.44 275l-6.44-.036.558-101.964 6.442.036z"/><path d="M141.423 153s-2.726 6.936-.632 11.209C142.886 168.48 172.058 183 172.058 183L182 170.27 141.423 153z" fill="#1B2B80"/><path d="M275.635 82.505c2.59-14.758 7.306-82.546-13.42-78.315-20.723 4.23-34.42 6.621-45.222 10.473-10.804 3.852-4.547 99.338-17.123 111.873-12.576 12.535-71.485 19.812-54.973 36.639 0 0 27.083 15.8 31.827 15.825 4.744.027 62.145-7.477 68.615-7.44 6.468.036 27.092-70.784 30.296-89.055" fill="#5B6D7E"/><path d="M268.395 5s-11.36 153.341-35.108 158.478c-16.003 3.462-59.88 9.959-62.073 16.9-2.192 6.94 12.933-2.1 24.561-2.036 11.628.065 35.376-2.488 49.142-7.548C276.923 159.03 292.196 21.951 268.395 5" fill="#1E3340"/><path d="M155.003 156c-.043-8.009.221-48.428 9.632-57.632C173.94 89.267 214.942 81.82 219.586 81L221 88.842c-16.593 2.928-45.03 9.64-50.704 15.188-5.158 5.046-7.34 33.403-7.24 51.926l-8.053.044z" fill="#09133F"/><path d="M99.905 69.151s-8.86-2.018-13.537.743c-3.378 1.994-10.121 4.817-9.3 5.804.823.989 13.204-3.865 13.204-3.865s6.672.295.224 1.711c-3.702.812-15.884 6.636-11.276 6.81 4.608.173 9.407-2.554 9.407-2.554s8.006-2.996 6.61-1.613c-2.836 2.814-11.199 6.801-11.199 6.801s-.872 1.39 1.061 1.934c3.55.996 11.778-7.94 26.09-3.674 9.487 2.827 18.083 2.934 28.811 2.398-.225-6.228-.823-12.097-4.677-16.646-26.783 7.02-23 4.25-35.418 2.151" fill="#EA7373"/><path d="M151.821 59c-5.996 6.502-11.388 6.263-17.821 7.65 4.641 4.526 5.998 13.16 6.275 19.35 24.045-.974 27.143-6.67 32.725-13.19-5.145-6.767-12.025-12.083-21.179-13.81" fill="#533571"/><path d="M193-18c-12.846 5.05-21.938 16.52-24.162 30.109-2.533 15.473-9.144 35.397-18.838 46.06 9.06 1.736 17.455 10.034 22.548 16.831 8.66-10.262 17.778-28.136 17.778-28.136L193-18z" fill="#E8C8B3"/><path d="M148.907 131l-51.376 13.578a10.103 10.103 0 00-7.522 10.196c.442 10.854 1.933 30.304 6.932 44.317 7.234 20.276 21.7 61.779 21.64 72.834-.061 11.056-4.145 28.978-4.145 28.978l17.4.097s-1.211-11.149-1.166-19.228c.044-8.078-.747-18.288-.712-24.666.032-5.796-10.945-70.642-9.151-95.903.18-2.54 38.193-10.112 38.193-10.112L148.907 131z" fill="#EA7373"/><path d="M185.687 121l-57.28 39.267c-6.407 5.112-6.447 16.372-3.595 24.1 4.425 11.992 13.05 33.347 19.656 43.848 10.815 17.19 25.001 44.524 25.001 44.524s5.364 19.018 1.323 23.055c-4.043 4.036-9.118 7.204-9.118 7.204s16.961.179 19.936-2.792c2.974-2.97 1.469-15.557 1.492-19.824.023-4.269-1.766-7.363-1.766-7.363s-1.484-6.891-4.034-15.813c-3.697-12.934-5.053-33.05-9.97-45.232-8.31-20.585-12.885-20.079-12.885-20.079L210 157.31 185.687 121z" fill="#F98A8A"/><path d="M199.336-21.458s-11.239.015-17.561 9.915c-23.858 37.359.72 107.522-10.12 118.384C159.272 119.246 97.28 135.304 92 147.203c0 0 28.671-3.793 43.247 10.985C149.824 172.968 154.185 191 154.185 191s60.153-31.864 75.408-37.4c19.658-7.132 6.104-91.47 2.45-121.897-3.658-30.427 3.759-45.885-7.445-50.66-11.203-4.777-25.262-2.501-25.262-2.501" fill="#FBE9DC"/><path d="M224.565-18.445A33.221 33.221 0 00219.976-20c-2.876 17.537-9.588 59.521-9.644 69.693-.071 12.948 15.583 1.373 15.548 7.786-.035 6.414-20.462 14.172-17.96 20.788 2.504 6.617 25.164 2.186 22.974 13.166-2.189 10.98-16.923 25.044-13.685 39.605C220.447 145.6 184.349 174.861 154 192c0 0 60.283-31.938 75.57-37.486 19.701-7.15 6.118-91.683 2.455-122.181-3.357-27.943 2.708-43.29-4.908-49.348-.695-.553-1.612-1.03-2.552-1.43" fill="#E8D5C8"/><path d="M116 148.368c6.825 1.55 13.813 4.459 18.997 9.762 1.56 1.594 3 3.227 4.33 4.87L164 132l-48 16.368z" fill="#533571"/><path d="M191.543 82.969c-1.57.234-3.028-.871-3.259-2.468L182 36.847l5.685-.847 6.284 43.653c.23 1.597-.855 3.081-2.426 3.316M189 35.379l-7.896.621-.104-.379 7.897-.621z" fill="#93B0AE"/><path d="M229.061 64.652c-10.869-.356-23.997-1.79-28.117-2.612-8.404-1.676-17.828-5.399-17.839-3.526-.01 1.874-.666 3.633 1.435 9.765 2.101 6.132-1.338 9.677 7.09 9.72 8.427.046 17.371-4.186 17.371-4.186 5.905 2.457 15.105 3.693 24.999 3.905-.186-4.988.13-9.197-4.939-13.066" fill="#F98A8A"/><path d="M249.449 59c-4.987 1.24-14.674 3.043-20.449 3.983 0 0 1.672 10.867 1.855 16.01 7.086.159 19.317-2.517 26.145-3.399-1.348-5.332-3.452-13.272-7.551-16.594" fill="#533571"/><g transform="translate(222 -18)"><mask id="e" fill="#fff"><use xlink:href="#d"/></mask><path d="M60.934 83.162c.065-11.661-12.755-37.353-25.637-55.097C18.064 4.333 4.247.111 4.247.111c-10.536 17.68 2.328 37.167 6.929 41.79 4.6 4.624 27.46 27.257 21.263 33.347-.913.898-6.528 1.743-8.611 2.258 4.205 3.395 9.256 16.488 10.639 21.936 14.57-1.873 26.436-10.837 26.467-16.28" fill="#FFF4F0" mask="url(#e)"/></g><path d="M226.99-16c-6.256 13.376-1.851 28.023 6.114 38.453C234.825 24.8 243.68 33.337 249 42c-17.106-17.788-17.825-16.197-22.577-25.265-5.474-10.68-6.505-22.533.567-32.735" fill="#FFF"/><path fill="#542360" d="M39.97 106l-99.97-.457.03-4.543 99.97.457z"/><path fill="#0F1D5B" d="M217 310l-28.06-199-6.94.957 27.922 198.004z"/><path fill="#1A2A63" d="M199.955 114L-76 112.567l.044-7.567L200 106.433z"/><path d="M198.003 176c-.044-8.011.221-48.43 9.632-57.633 9.304-9.101 50.307-16.548 54.951-17.367l1.414 7.843c-16.593 2.926-45.03 9.638-50.704 15.186-5.154 5.043-7.336 33.402-7.24 51.927l-8.053.044z" fill="#1E3340"/><path d="M67.34 102c-1.854-.01-3.35-1.323-3.34-2.935L64.28 55l6.72.032-.282 44.065c-.009 1.612-1.521 2.912-3.377 2.903M69.996 55L62 54.941l.005-.941 7.995.059zM77.341 102c-1.855-.01-3.35-1.323-3.341-2.935L74.28 55l6.72.032-.282 44.065c-.01 1.613-1.522 2.912-3.377 2.903M81.996 55L74 54.94l.004-.94 7.996.058zM89.341 102c-1.855-.01-3.35-1.323-3.341-2.935L86.282 55l6.718.032-.282 44.065c-.009 1.612-1.522 2.912-3.377 2.903M94.997 55L87 54.941l.005-.941 7.995.06zM100.34 102c-1.855-.009-3.352-1.323-3.34-2.934L97.28 55l6.72.033-.282 44.065c-.01 1.612-1.523 2.911-3.378 2.902" fill="#93B0AE"/><path fill="#93B0AE" d="M103.995 56L96 55.941l.004-.941 7.996.06zM111.34 102c-1.855-.009-3.35-1.322-3.34-2.935L108.28 55l6.72.033-.282 44.065c-.01 1.612-1.523 2.912-3.377 2.902"/><path fill="#93B0AE" d="M115.995 56L108 55.941l.004-.941 7.996.059zM123.34 102c-1.855-.01-3.35-1.323-3.34-2.934L120.28 55l6.72.033-.282 44.064c-.01 1.612-1.522 2.912-3.377 2.903"/><path d="M66.446 102c-1.356-.008-2.453-1.05-2.446-2.328L64.08 86l4.92.025-.08 13.672c-.008 1.278-1.118 2.31-2.474 2.303M78.433 103c-1.349-.008-2.44-1.1-2.433-2.438L76.11 81l4.89.027-.11 19.562c-.007 1.338-1.11 2.418-2.457 2.411M89.453 102c-1.36-.01-2.46-1.147-2.453-2.542L87.068 87l4.932.027-.067 12.459c-.008 1.395-1.12 2.521-2.48 2.514M99.454 102c-1.36-.008-2.461-1.147-2.454-2.542L97.068 87l4.932.027-.067 12.46c-.008 1.394-1.12 2.521-2.48 2.513M112.438 102c-1.35-.008-2.446-1.074-2.438-2.38l.095-16.62 4.905.026-.095 16.62c-.008 1.307-1.114 2.362-2.467 2.354M122.44 102c-1.353-.008-2.447-1.074-2.44-2.38l.095-16.62 4.905.027-.095 16.619c-.008 1.306-1.114 2.36-2.466 2.354" fill="#FF0013"/><path fill="#93B0AE" d="M126.995 56L119 55.941l.004-.941 7.996.059z"/><path fill="#090A0C" d="M62.201 75L62 104.988l2.8.012.2-29.808z"/><path fill="#090A0C" d="M130.99 76.104l.01-1.716L61.064 74l-.01 1.716 64.345.357-.157 28.185-65.233-.362L60 105.61l69.936.389.01-1.716-2.4-.014.156-28.184z"/></g></g></svg>