<?xml version="1.0" encoding="UTF-8"?>
<svg width="299px" height="224px" viewBox="0 0 299 224" version="1.1" xmlns="http://www.w3.org/2000/svg" xmlns:xlink="http://www.w3.org/1999/xlink">
    <!-- Generator: Sketch 61.1 (89650) - https://sketch.com -->
    <title>mi-lab</title>
    <desc>Created with Sketch.</desc>
    <defs>
        <linearGradient x1="23.9173266%" y1="68.6503384%" x2="83.9996625%" y2="28.9398055%" id="linearGradient-1">
            <stop stop-color="#EEEEEE" offset="0%"></stop>
            <stop stop-color="#D8D8D8" offset="100%"></stop>
        </linearGradient>
        <rect id="path-2" x="0" y="0" width="299" height="224"></rect>
        <polygon id="path-4" points="0.205250762 0.111023622 60.9334545 0.111023622 60.9334545 99.4417323 0.205250762 99.4417323"></polygon>
    </defs>
    <g id="Symbols" stroke="none" stroke-width="1" fill="none" fill-rule="evenodd">
        <g id="Labonderzoeken-n-verrichtingen">
            <g id="Menu-Section-2-Copy-7">
                <g id="mi-lab">
                    <mask id="mask-3" fill="white">
                        <use xlink:href="#path-2"></use>
                    </mask>
                    <use id="Mask" fill="url(#linearGradient-1)" xlink:href="#path-2"></use>
                    <g id="Group-138" mask="url(#mask-3)">
                        <g transform="translate(-153.000000, -89.000000)">
                            <path d="M246.20142,242.199226 C246.20142,242.199226 255.937957,270.096628 270.750217,275.077554 C285.560902,280.060041 305.756718,283.468536 307.898173,281.369621 C310.041204,279.270705 313.816306,253.263186 299.487449,242.491717 C285.157017,231.720249 245,237.603608 245,237.603608 L246.20142,242.199226 Z" id="Fill-8" fill="#596268"></path>
                            <polygon id="Fill-13" fill="#542360" points="364.44089 364 358 363.964292 358.557576 262 365 262.035708"></polygon>
                            <path d="M294.423092,242 C294.423092,242 291.696744,248.935931 293.791241,253.208729 C295.885739,257.48072 325.057504,272 325.057504,272 L335,259.270403 L294.423092,242 Z" id="Fill-19" fill="#1B2B80"></path>
                            <path d="M428.635244,171.505491 C431.224302,156.7468 435.940501,88.9591621 415.215618,93.1896791 C394.491512,97.4201961 380.795513,99.8112558 369.992893,103.663084 C359.189497,107.514912 365.445933,203.000818 352.870178,215.535886 C340.294422,228.070954 281.385014,235.348194 297.896758,252.174807 C297.896758,252.174807 324.979777,267.97411 329.723924,268 C334.468072,268.026532 391.869072,260.523173 398.338999,260.559164 C404.807374,260.595938 425.430557,189.77566 428.635244,171.505491" id="Fill-21" fill="#5B6D7E"></path>
                            <path d="M421.395204,94 C421.395204,94 410.035777,247.340953 386.28735,252.47816 C370.283987,255.939731 326.406147,262.436533 324.213651,269.377668 C322.021929,276.318802 337.146899,267.277257 348.775348,267.342185 C360.403022,267.407114 384.151449,264.853766 397.916575,259.794005 C429.923302,248.030139 445.195575,110.951138 421.395204,94" id="Fill-23" fill="#1E3340"></path>
                            <path d="M308.003152,245 C307.96007,236.991096 308.224042,196.571619 317.635378,187.368119 C326.940186,178.266881 367.941966,170.819638 372.586145,170 L374,177.842342 C357.407379,180.769954 328.969713,187.482001 323.296279,193.030441 C318.138256,198.076097 315.956769,226.433411 316.055464,244.955842 L308.003152,245 Z" id="Fill-25" fill="#09133F"></path>
                            <path d="M252.904964,158.151185 C252.904964,158.151185 244.045394,156.13328 239.36843,158.893967 C235.989543,160.888489 229.246538,163.71075 230.068913,164.698269 C230.89051,165.686566 243.271989,160.833151 243.271989,160.833151 C243.271989,160.833151 249.94426,161.12777 243.495849,162.543966 C239.794386,163.356116 227.611894,169.179903 232.220456,169.353713 C236.828241,169.526743 241.62724,166.80035 241.62724,166.80035 C241.62724,166.80035 249.632566,163.80428 248.237328,165.186962 C245.400991,168.000649 237.03811,171.988135 237.03811,171.988135 C237.03811,171.988135 236.165988,173.378611 238.099113,173.921863 C241.649781,174.917955 249.876636,165.982744 264.188907,170.248481 C273.675752,173.074639 282.271821,173.182198 293,172.645961 C292.775363,166.418437 292.176848,160.548664 288.323036,156 C261.539897,163.019409 265.322199,160.250928 252.904964,158.151185" id="Fill-27" fill="#EA7373"></path>
                            <path d="M304.821182,148 C298.825064,154.501636 293.432973,154.262958 287,155.650852 C291.641393,160.176425 292.998484,168.80911 293.275264,175 C317.320454,174.025917 320.41787,168.32943 326,161.809971 C320.854725,155.04331 313.974645,149.727312 304.821182,148" id="Fill-29" fill="#533571"></path>
                            <path d="M346,71 C333.153776,76.0499146 324.06175,87.5196344 321.83811,101.108793 C319.305393,116.582329 312.69379,136.505674 303,147.169805 C312.060806,148.90474 320.455067,157.203475 325.547819,164 C334.20823,153.738275 343.326012,135.863538 343.326012,135.863538 L346,71 Z" id="Fill-31" fill="#E8C8B3"></path>
                            <path d="M301.907129,220 L250.531391,233.577906 C245.937925,234.791652 242.814182,239.01795 243.00859,243.773996 C243.451062,254.628375 244.94178,274.077913 249.941169,288.091304 C257.174691,308.367405 271.641736,349.870038 271.581081,360.925409 C271.519648,371.980781 267.43553,389.90262 267.43553,389.90262 L284.836576,390 C284.836576,390 283.625027,378.851144 283.67013,370.772488 C283.714455,362.693832 282.922827,352.484499 282.95782,346.105711 C282.990481,340.310425 272.013443,275.463827 273.80666,250.202642 C273.98707,247.662189 312,240.09069 312,240.09069 L301.907129,220 Z" id="Fill-33" fill="#EA7373"></path>
                            <path d="M338.687091,210 L281.407236,249.266628 C275.000137,254.379421 274.959874,265.639452 277.811518,273.367674 C282.237255,285.358774 290.861095,306.713815 297.467956,317.214627 C308.282985,334.40531 322.469193,361.739481 322.469193,361.739481 C322.469193,361.739481 327.833348,380.756664 323.791649,384.793573 C319.749176,388.829701 314.673825,391.997928 314.673825,391.997928 C314.673825,391.997928 331.635023,392.176982 334.609775,389.205791 C337.583753,386.235383 336.078569,373.649263 336.101797,369.381695 C336.125025,365.113346 334.336457,362.019398 334.336457,362.019398 C334.336457,362.019398 332.852178,355.1278 330.301727,346.205628 C326.605353,333.271566 325.248829,313.155825 320.331429,300.973944 C312.021944,280.389067 307.446771,280.894951 307.446771,280.894951 L363,246.309512 L338.687091,210 Z" id="Fill-35" fill="#F98A8A"></path>
                            <path d="M352.335532,67.5416364 C352.335532,67.5416364 341.097358,67.5572472 334.774621,77.4568388 C310.916659,114.815835 335.494617,184.978595 324.654193,195.840593 C312.272587,208.246499 250.279715,224.303772 245,236.203108 C245,236.203108 273.671431,232.409682 288.247275,247.188431 C302.823897,261.96796 307.185131,280 307.185131,280 C307.185131,280 367.337925,248.136007 382.592512,242.600416 C402.251142,235.467839 388.697304,151.130469 385.042057,120.702669 C381.385253,90.2764313 388.801607,74.8178323 377.59846,70.0424872 C366.394535,65.2663617 352.335532,67.5416364 352.335532,67.5416364" id="Fill-37" fill="#FBE9DC"></path>
                            <path d="M377.565372,70.5553145 C376.073126,69.9184805 374.529397,69.4083874 372.976306,69 C370.100242,86.5371875 363.387865,128.52129 363.332481,138.693422 C363.260716,151.641336 378.914868,140.065666 378.879766,146.479382 C378.844663,152.893098 358.418132,160.650894 360.92055,167.267239 C363.423748,173.883585 386.083577,169.453129 383.893962,180.432648 C381.705126,191.412166 366.97066,205.477279 370.20867,220.038402 C373.44746,234.600307 337.348836,263.861029 307,281 C307,281 367.282682,249.062071 382.569428,243.513636 C402.271287,236.364509 388.688182,151.830665 385.025042,121.333045 C381.667684,93.3898029 387.732614,78.0424167 380.116934,71.9854527 C379.421904,71.4315479 378.504559,70.9558783 377.565372,70.5553145" id="Fill-39" fill="#E8D5C8"></path>
                            <path d="M269,237.368019 C275.824666,238.917746 282.812706,241.826992 287.997479,247.130208 C289.557227,248.724369 290.996757,250.356728 292.327629,252 L317,221 L269,237.368019 Z" id="Fill-41" fill="#533571"></path>
                            <path d="M344.542805,171.968687 L344.542805,171.968687 C342.973622,172.202893 341.514557,171.098004 341.284379,169.500583 L335,125.847341 L340.684847,125 L346.969226,168.653241 C347.199404,170.249884 346.113517,171.734482 344.542805,171.968687" id="Fill-43" fill="#93B0AE"></path>
                            <polygon id="Fill-45" fill="#93B0AE" points="342 124.378586 334.103759 125 334 124.621414 341.896992 124"></polygon>
                            <path d="M382.061126,153.651869 C371.192316,153.296008 358.064259,151.862846 353.944225,151.040479 C345.539763,149.363598 336.116057,145.641266 336.105097,147.51402 C336.094138,149.387522 335.438909,151.146639 337.540024,157.279255 C339.64114,163.411123 336.202168,166.955525 344.630115,166.999634 C353.057279,167.045238 362.00111,162.813038 362.00111,162.813038 C367.905996,165.27042 377.105813,166.506214 387,166.717786 C386.814469,161.729756 387.12995,157.520732 382.061126,153.651869" id="Fill-47" fill="#F98A8A"></path>
                            <path d="M402.448822,148 C397.461568,149.239555 387.775203,151.042614 382,151.983073 C382,151.983073 383.671688,162.849994 383.85477,167.993222 C390.940904,168.152021 403.171881,165.476339 410,164.594467 C408.651989,159.261605 406.548474,151.322439 402.448822,148" id="Fill-49" fill="#533571"></path>
                            <g id="Group-53" stroke-width="1" fill="none" transform="translate(375.000000, 71.000000)">
                                <mask id="mask-5" fill="white">
                                    <use xlink:href="#path-4"></use>
                                </mask>
                                <g id="Clip-52"></g>
                                <path d="M60.9337064,83.1622047 C60.9992078,71.5007874 48.1789091,45.8094488 35.2968182,28.0653543 C18.0639221,4.33307087 4.24702597,0.111023622 4.24702597,0.111023622 C-6.28854545,17.7913386 6.57532468,37.2779528 11.1756753,41.9015748 C15.776026,46.5251969 38.635974,69.1582677 32.4393247,75.2480315 C31.5259091,76.1464567 25.9107403,76.9905512 23.828026,77.5055118 C28.0330649,80.9007874 33.0841818,93.9937008 34.4665844,99.4417323 C49.0368701,97.5685039 60.9033506,88.6047244 60.9337064,83.1622047" id="Fill-51" fill="#FFF4F0" mask="url(#mask-5)"></path>
                            </g>
                            <path d="M379.990268,73 C373.733611,86.3764296 378.138529,101.022847 386.103822,111.45306 C387.824969,113.799625 396.68016,122.336896 402,131 C384.894092,113.212401 384.174666,114.803187 379.422547,105.734619 C373.948657,95.0542922 372.918001,83.2018481 379.990268,73" id="Fill-54" fill="#FFFFFF"></path>
                            <polygon id="Fill-78" fill="#542360" points="192.96948 195 93 194.542931 93.0305198 190 193 190.457069"></polygon>
                            <polygon id="Fill-82" fill="#0F1D5B" points="370 399 341.939159 200 335 200.956525 362.922136 398.961022"></polygon>
                            <polygon id="Fill-84" fill="#1A2A63" points="352.954807 203 77 201.566888 77.043635 194 353 195.433112"></polygon>
                            <path d="M351.003245,265 C350.95938,256.98902 351.224135,216.570796 360.634675,207.366806 C369.939469,198.26585 410.941975,190.818838 415.586147,190 L417,197.842874 C400.407403,200.768845 371.969777,207.480685 366.296351,213.028952 C361.142252,218.072128 358.959984,246.430888 359.05633,264.955843 L351.003245,265 Z" id="Fill-86" fill="#1E3340"></path>
                            <path d="M220.340812,191 L220.340812,191 C218.485727,190.990625 216.990209,189.6765 217,188.064736 L217.280905,144 L224,144.031862 L223.718249,188.097375 C223.709304,189.70914 222.196792,191.009276 220.340812,191" id="Fill-96" fill="#93B0AE"></path>
                            <polygon id="Fill-98" fill="#93B0AE" points="222.996233 144 215 143.941352 215.00452 143 223 143.058648"></polygon>
                            <path d="M230.34128,191 L230.34128,191 C228.485537,190.990624 226.990211,189.677256 227,188.064688 L227.280869,144 L234,144.031863 L233.718285,188.097327 C233.708447,189.709896 232.196128,191.009276 230.34128,191" id="Fill-100" fill="#93B0AE"></path>
                            <polygon id="Fill-102" fill="#93B0AE" points="234.996233 144 227 143.940358 227.003767 143 235 143.057654"></polygon>
                            <path d="M242.34128,191 L242.34128,191 C240.486431,190.990625 238.990211,189.6765 239,188.064736 L239.281763,144 L246,144.031862 L245.718285,188.097375 C245.709341,189.70914 244.196128,191.009276 242.34128,191" id="Fill-104" fill="#93B0AE"></path>
                            <polygon id="Fill-106" fill="#93B0AE" points="247.996987 144 240 143.94141 240.00452 143 248 143.059583"></polygon>
                            <path d="M253.339928,191 L253.339928,191 C251.484847,190.991402 249.98844,189.677278 250,188.065513 L250.280029,144 L257,144.032639 L256.71825,188.098153 C256.708411,189.709917 255.195008,191.009276 253.339928,191" id="Fill-108" fill="#93B0AE"></path>
                            <polygon id="Fill-110" fill="#93B0AE" points="256.995479 145 249 144.94141 249.003767 144 257 144.059583"></polygon>
                            <path d="M264.340817,191 L264.340817,191 C262.48484,190.991393 260.989324,189.678024 261,188.065457 L261.280914,144 L268,144.03264 L267.718249,188.098097 C267.70841,189.709887 266.195006,191.010044 264.340817,191" id="Fill-112" fill="#93B0AE"></path>
                            <polygon id="Fill-114" fill="#93B0AE" points="268.99548 145 261 144.941352 261.003767 144 269 144.058648"></polygon>
                            <path d="M276.340817,191 L276.340817,191 C274.48484,190.990625 272.989324,189.677278 273,188.065513 L273.280019,144 L280,144.032639 L279.718249,188.097375 C279.70841,189.70914 278.1959,191.009276 276.340817,191" id="Fill-116" fill="#93B0AE"></path>
                            <path d="M219.446349,191 C218.090223,190.992423 216.992826,189.949193 217,188.672123 L217.080938,175 L222,175.024893 L221.919097,188.697015 C221.911888,189.97484 220.802476,191.006756 219.446349,191" id="Fill-118" fill="#FF0013"></path>
                            <path d="M231.432709,192 C230.084144,191.992066 228.992866,190.899611 229,189.562283 L229.109959,170 L234,170.026857 L233.890872,189.58914 C233.882907,190.927258 232.77968,192.007074 231.432709,192" id="Fill-120" fill="#FF0013"></path>
                            <path d="M242.45303,191 C241.0932,190.990904 239.992807,189.852709 240,188.458379 L240.067505,176 L245,176.027178 L244.933334,188.485557 C244.925302,189.880711 243.81286,191.007376 242.45303,191" id="Fill-122" fill="#FF0013"></path>
                            <path d="M252.453818,191 C251.093552,190.991719 249.992804,189.852638 250,188.458232 L250.067527,176 L255,176.02718 L254.933312,188.486235 C254.925278,189.881465 253.812478,191.008191 252.453818,191" id="Fill-124" fill="#FF0013"></path>
                            <path d="M265.438111,191 C264.087268,190.992246 262.992055,189.925725 263,188.620143 L263.095106,172 L268,172.02622 L267.904938,188.646363 C267.896949,189.952716 266.790552,191.00767 265.438111,191" id="Fill-126" fill="#FF0013"></path>
                            <path d="M275.439315,191 C274.087088,190.992255 272.992847,189.925777 273,188.620247 L273.095082,172 L278,172.02699 L277.904953,188.645694 C277.896966,189.951995 276.790743,191.006906 275.439315,191" id="Fill-128" fill="#FF0013"></path>
                            <polygon id="Fill-130" fill="#93B0AE" points="279.99548 145 272 144.94141 272.003767 144 280 144.05859"></polygon>
                            <polygon id="Fill-132" fill="#090A0C" points="215.20145 164 215 193.9875 217.800441 194 218 164.192193"></polygon>
                            <polygon id="Fill-134" fill="#090A0C" points="283.989885 165.104095 284 163.387945 214.064381 163 214.054267 164.71615 278.39877 165.072934 278.242381 193.258143 213.009337 192.895905 213 194.611276 282.936397 195 282.945733 193.28385 280.546207 193.269828 280.701818 165.086178"></polygon>
                        </g>
                    </g>
                </g>
            </g>
        </g>
    </g>
</svg>