<?xml version="1.0" encoding="UTF-8"?>
<svg width="299px" height="224px" viewBox="0 0 299 224" version="1.1" xmlns="http://www.w3.org/2000/svg" xmlns:xlink="http://www.w3.org/1999/xlink">
    <!-- Generator: Sketch 61.1 (89650) - https://sketch.com -->
    <title>mi-online-services</title>
    <desc>Created with Sketch.</desc>
    <defs>
        <linearGradient x1="23.9173266%" y1="68.6503384%" x2="83.9996625%" y2="28.9398055%" id="linearGradient-1">
            <stop stop-color="#EEEEEE" offset="0%"></stop>
            <stop stop-color="#D8D8D8" offset="100%"></stop>
        </linearGradient>
        <rect id="path-2" x="0" y="0" width="299" height="224"></rect>
        <polygon id="path-4" points="0.446510529 0.22526971 11.4769159 0.22526971 11.4769159 26.1258946 0.446510529 26.1258946"></polygon>
        <path d="M11.0152771,0.57525 C4.54266265,3.9495 0.432879518,8.97 0.432879518,14.57925 L0.432879518,14.57925 C0.432879518,20.57025 5.11371084,25.89 12.358747,29.2485 L12.358747,29.2485 L48.641988,29.2485 C55.8848193,25.89 60.5671205,20.57025 60.5671205,14.57925 L60.5671205,14.57925 C60.5671205,8.97 56.4580723,3.9495 49.9847229,0.57525 L49.9847229,0.57525 L11.0152771,0.57525 Z" id="path-6"></path>
        <linearGradient x1="57.4794212%" y1="78.0437868%" x2="45.7507108%" y2="33.655257%" id="linearGradient-8">
            <stop stop-color="#F20000" offset="0%"></stop>
            <stop stop-color="#FFA52F" offset="100%"></stop>
        </linearGradient>
        <polygon id="path-9" points="0 275.262032 415.456397 275.262032 415.456397 0.225080214 0 0.225080214"></polygon>
    </defs>
    <g id="Symbols" stroke="none" stroke-width="1" fill="none" fill-rule="evenodd">
        <g id="Online-services">
            <g id="Menu-Section-2-Copy-5">
                <g id="mi-online-services">
                    <mask id="mask-3" fill="white">
                        <use xlink:href="#path-2"></use>
                    </mask>
                    <use id="Mask" fill="url(#linearGradient-1)" xlink:href="#path-2"></use>
                    <g id="Group-264" mask="url(#mask-3)">
                        <g transform="translate(12.000000, -20.000000)">
                            <g id="Group-178" transform="translate(181.000000, 0.000000)">
                                <path d="M27.6393709,115.77024 C26.3126103,117.159526 23.9023286,118.041402 21.1736244,117.941692 C18.4449202,117.844198 16.104662,116.790232 14.8810939,115.308622 C16.2078545,113.919335 18.6188732,113.03746 21.3475775,113.135692 C24.0740704,113.234663 26.4150657,114.28863 27.6393709,115.77024" id="Fill-1" fill="#7B54E2"></path>
                                <path d="M57.0286653,172.690651 C55.2139516,160.251332 54.3766183,147.682021 54.5866887,135.139299 C54.6390221,128.867938 54.9825056,122.603963 55.4785667,116.357714 C55.9554634,110.109249 56.7146653,103.888112 57.5836934,97.686917 C59.356393,85.2882199 61.8639704,73.0062199 64.9678531,60.8874481 C66.529008,54.8295394 68.2515854,48.8137303 70.1377967,42.850361 C72.0299047,36.8877303 74.0524775,30.9753237 76.3861019,25.1545021 L77.122454,25.4573237 C74.8794915,31.2574647 72.9298906,37.1935062 71.1188624,43.1561369 C69.3129939,49.1231992 67.6707592,55.1397469 66.1928953,61.1954398 C63.2482239,73.3090415 60.9057545,85.5696224 59.2952146,97.922527 C58.5094775,104.100826 57.8298812,110.293158 57.4340643,116.50617 C57.018346,122.714751 56.7544681,128.935149 56.7817404,135.154809 C56.7271958,147.59339 57.712684,160.020154 59.6571254,172.273349 L57.0286653,172.690651 Z" id="Fill-3" fill="#7B54E2"></path>
                                <g id="Group-7" transform="translate(72.234742, 0.000000)">
                                    <mask id="mask-5" fill="white">
                                        <use xlink:href="#path-4"></use>
                                    </mask>
                                    <g id="Clip-6"></g>
                                    <path d="M7.79552911,0.225048133 C4.25823803,2.36178672 1.4410831,6.88786141 0.657557277,12.4213718 C-0.125968545,17.9563593 1.32536009,23.0888158 4.12851033,26.1258946 C7.66432723,23.9906332 10.4829563,19.4645585 11.2657451,13.929571 C12.0492709,8.3945834 10.5994164,3.26212697 7.79552911,0.225048133" id="Fill-5" fill="#7B54E2" mask="url(#mask-5)"></path>
                                </g>
                                <path d="M59.1967394,19.299927 C58.763331,22.5031884 60.1343169,26.4376531 63.1143685,29.623927 C66.0951573,32.8109394 69.9235986,34.4373129 73.14173,34.2120432 C73.5736643,31.0102589 72.2026784,27.0757942 69.2226268,23.8887817 C66.2433122,20.7025079 62.4141338,19.0753959 59.1967394,19.299927" id="Fill-8" fill="#7B54E2"></path>
                                <path d="M73.7311803,34.052951 C76.439246,35.8093162 80.5750535,36.2406523 84.7226545,34.8964199 C88.867307,33.5507104 91.9667671,30.7713992 93.1343164,27.7586938 C90.4262507,26.0030672 86.2897061,25.5717311 82.1435793,26.9159635 C77.9967155,28.2609344 74.8987296,31.0402456 73.7311803,34.052951" id="Fill-10" fill="#7B54E2"></path>
                                <path d="M69.6901624,47.7832506 C72.3982282,49.5396158 76.5340357,49.9709519 80.6808995,48.6267195 C84.8270263,47.2802714 87.9264864,44.5016988 89.0932986,41.4889934 C86.3852329,39.7333668 82.2494254,39.3020307 78.1025615,40.6470017 C73.9556977,41.991234 70.8569746,44.7705452 69.6901624,47.7832506" id="Fill-12" fill="#7B54E2"></path>
                                <path d="M65.4547742,61.853966 C68.163577,63.6103311 72.3001216,64.0416672 76.4462484,62.6959577 C80.5931122,61.3509867 83.6910981,58.5724141 84.8586474,55.5597087 C82.1505817,53.8033436 78.0147742,53.3720075 73.8679103,54.7169784 C69.7217836,56.0619494 66.6230606,58.8412606 65.4547742,61.853966" id="Fill-14" fill="#7B54E2"></path>
                                <path d="M62.6158014,74.9581635 C65.3238671,76.7130515 69.4596746,77.1443876 73.6065385,75.8001552 C77.7526653,74.4537071 80.8521254,71.6751344 82.0189376,68.662429 C79.3108718,66.9068025 75.1735901,66.4754664 71.0282005,67.8204373 C66.8813366,69.1646697 63.7826136,71.9439809 62.6158014,74.9581635" id="Fill-16" fill="#7B54E2"></path>
                                <path d="M63.7970606,72.3045602 C61.0889948,74.0601867 56.9531873,74.4915228 52.8055864,73.1472905 C48.6601967,71.8015809 45.5607366,69.0230083 44.3931873,66.0103029 C47.1012531,64.2539378 51.2385347,63.8226017 55.3846615,65.1675726 C59.5307883,66.5125436 62.6287742,69.2918548 63.7970606,72.3045602" id="Fill-18" fill="#7B54E2"></path>
                                <path d="M55.3946859,31.767239 C54.9612775,34.9705004 56.3330005,38.903488 59.312315,42.091239 C62.2931038,45.2782515 66.1215451,46.9038863 69.3396765,46.6793552 C69.773085,43.4768324 68.401362,39.5431062 65.4220474,36.3560938 C62.4412587,33.1690813 58.6128174,31.5419693 55.3946859,31.767239" id="Fill-20" fill="#7B54E2"></path>
                                <path d="M51.0398155,45.930278 C50.6071441,49.1335394 51.97813,53.0680041 54.9574446,56.2550166 C57.9382333,59.4412905 61.7674117,61.0684025 64.9855432,60.8431328 C65.4174775,57.64061 64.0464915,53.7061452 61.067177,50.5198714 C58.0871254,47.3321203 54.2579469,45.7064855 51.0398155,45.930278" id="Fill-22" fill="#7B54E2"></path>
                                <path d="M136.867514,57.9748954 C131.444749,60.9698747 126.361782,64.5032855 121.429918,68.2302066 C116.505425,71.9704224 111.805007,76.0053353 107.306552,80.2529618 C102.810308,84.5050199 98.5322418,88.9904722 94.4841479,93.6805137 C90.4544812,98.385327 86.6798474,103.310978 83.1455047,108.405028 C76.074608,118.600514 70.1823169,129.60697 65.4384108,141.095725 C60.8065423,152.629534 57.3665469,164.653028 55.1906596,176.909916 L57.8154343,177.349377 C59.7731432,165.240945 62.9794812,153.334149 67.3784296,141.871244 C71.8879413,130.454132 77.5473122,119.472788 84.3985563,109.259576 C87.8238099,104.155186 91.4915657,99.2110697 95.4217254,94.4759743 C99.3710493,89.7578664 103.551819,85.2332689 107.958876,80.9354183 C112.36888,76.640522 116.984533,72.5516921 121.830894,68.7516506 C126.680941,64.9649037 131.704941,61.357634 137.039993,58.3020905 L136.867514,57.9748954 Z" id="Fill-24" fill="#7B54E2"></path>
                                <path d="M108.013052,49.6052025 C111.692601,51.4834349 114.823756,55.7967959 115.999413,61.262356 C117.173596,66.7271776 116.090812,71.9497419 113.510263,75.1788539 C109.831451,73.3013602 106.699559,68.9879992 105.523901,63.5231776 C104.349718,58.0568788 105.432502,52.8343145 108.013052,49.6052025" id="Fill-30" fill="#7B54E2"></path>
                                <path d="M95.7790662,60.8845676 C99.4578784,62.7628 102.58977,67.076161 103.764691,72.540244 C104.939611,78.0065427 103.856827,83.2291071 101.27554,86.4582191 C97.5967282,84.5799867 94.4655732,80.2666257 93.289916,74.8018041 C92.1157329,69.336244 93.1985169,64.1136797 95.7790662,60.8845676" id="Fill-32" fill="#7B54E2"></path>
                                <path d="M81.6944709,72.4769469 C85.7315085,73.3492207 89.859208,76.7157104 92.3911094,81.6974946 C94.9222737,86.6800174 95.2082643,92.0059842 93.5380202,95.7897768 C89.5024568,94.9167643 85.372546,91.5502747 82.8413817,86.5684905 C80.3109545,81.5859676 80.0234897,76.2600008 81.6944709,72.4769469" id="Fill-34" fill="#7B54E2"></path>
                                <path d="M71.7761986,86.9897817 C75.4601704,86.8332008 79.7854099,88.8111427 83.0934662,92.5454498 C86.4015225,96.2804954 87.8462174,100.819126 87.2528606,104.464802 C83.5688887,104.622861 79.2429122,102.644919 75.935593,98.9106116 C72.6282737,95.175566 71.1828418,90.6369353 71.7761986,86.9897817" id="Fill-36" fill="#7B54E2"></path>
                                <path d="M64.5794808,96.1154207 C68.2634526,95.9588398 72.5894291,97.9360432 75.8967484,101.67035 C79.2033305,105.404657 80.6494995,109.944027 80.0554056,113.590441 C76.3714338,113.747761 72.0454573,111.770558 68.7388751,108.036251 C65.4308188,104.301205 63.9861239,99.7625743 64.5794808,96.1154207" id="Fill-38" fill="#7B54E2"></path>
                                <path d="M60.4685869,109.574437 C63.626277,109.439275 67.3338357,111.134337 70.1694178,114.335383 C73.005,117.537167 74.2433099,121.427316 73.7347183,124.553764 C70.5777653,124.687449 66.8694695,122.992387 64.0346244,119.791341 C61.1990423,116.591034 59.9607324,112.700146 60.4685869,109.574437" id="Fill-40" fill="#7B54E2"></path>
                                <path d="M56.4801235,123.60837 C58.7791047,122.307715 62.1947761,122.153349 65.5433723,123.447358 C68.8934427,124.742105 71.3206775,127.153598 72.151377,129.664802 C69.8531329,130.965457 66.4381986,131.119822 63.0888653,129.825076 C59.7395319,128.531067 57.3122972,126.118835 56.4801235,123.60837" id="Fill-42" fill="#7B54E2"></path>
                                <path d="M54.8698784,135.176967 C56.2828784,133.600079 58.8376296,132.607415 61.7100662,132.732237 C64.583977,132.857058 67.0436437,134.066867 68.3143854,135.760452 C66.9013854,137.338079 64.3466343,138.330004 61.4741977,138.205183 C58.6010239,138.080361 56.1420944,136.870552 54.8698784,135.176967" id="Fill-44" fill="#7B54E2"></path>
                                <path d="M126.283355,95.2195859 C122.771862,97.3976855 117.468506,97.8452705 112.195369,96.0180008 C106.922233,94.1899925 103.027454,90.5546564 101.610769,86.6682 C105.12005,84.4901004 110.425618,84.0439925 115.698017,85.8712622 C120.969679,87.698532 124.86667,91.333868 126.283355,95.2195859" id="Fill-50" fill="#7B54E2"></path>
                                <path d="M112.884769,102.751866 C110.029285,104.523742 105.715102,104.887128 101.426717,103.401086 C97.1383324,101.914306 93.9695859,98.956995 92.8175155,95.7973104 C95.672262,94.0261734 99.9864451,93.662049 104.275567,95.148829 C108.563952,96.6348705 111.732699,99.5921817 112.884769,102.751866" id="Fill-52" fill="#7B54E2"></path>
                                <path d="M102.850553,109.946612 C100.516191,111.458504 97.0128061,111.806379 93.5484869,110.606172 C90.0841676,109.405226 87.5441582,106.961973 86.6404869,104.328163 C88.9748484,102.816271 92.4797075,102.467657 95.9432897,103.669342 C99.4068718,104.869549 101.947618,107.312802 102.850553,109.946612" id="Fill-54" fill="#7B54E2"></path>
                                <path d="M96.857354,119.197072 C94.5222554,120.708226 91.0181333,121.056101 87.5538141,119.855894 C84.0902319,118.654948 81.5494854,116.212433 80.6465512,113.578624 C82.9809127,112.066732 86.4857718,111.718118 89.949354,112.919064 C93.4129362,114.119271 95.9529455,116.563263 96.857354,119.197072" id="Fill-56" fill="#7B54E2"></path>
                                <path d="M90.2862038,127.568907 C88.3948329,129.183463 85.2253493,129.961936 81.8251568,129.409471 C78.4242272,128.857007 75.662354,127.115413 74.3753962,124.986061 C76.2667671,123.370766 79.4369878,122.593032 82.8379174,123.144758 C86.2388469,123.696484 89.0007202,125.438816 90.2862038,127.568907" id="Fill-58" fill="#7B54E2"></path>
                                <path d="M83.9366962,138.112563 C81.8065085,138.718945 78.9731376,138.170912 76.4670343,136.457385 C73.9616681,134.742381 72.4211516,132.297651 72.2103441,130.08853 C74.3405319,129.480671 77.1731657,130.030182 79.6800061,131.743709 C82.1853723,133.458713 83.7258887,135.901966 83.9366962,138.112563" id="Fill-60" fill="#7B54E2"></path>
                                <path d="M76.8659469,144.405713 C75.1780127,144.558601 73.1266934,143.743937 71.4859329,142.099099 C69.8459094,140.453522 69.0343742,138.39729 69.1891629,136.706659 C70.8770972,136.553032 72.9276793,137.369173 74.5677028,139.013273 C76.2084634,140.65885 77.0192615,142.715082 76.8659469,144.405713" id="Fill-62" fill="#7B54E2"></path>
                                <path d="M72.1734897,146.055278 C71.0656446,146.225154 69.7595225,145.779784 68.7563441,144.773826 C67.7531657,143.767129 67.309438,142.458349 67.4804427,141.346772 C68.5904991,141.176896 69.8951469,141.623004 70.8990624,142.628963 C71.9015038,143.634921 72.3459685,144.945178 72.1734897,146.055278" id="Fill-64" fill="#7B54E2"></path>
                                <path d="M70.6618671,149.168358 C69.553285,149.338233 68.2479,148.891387 67.2439845,147.885428 C66.2408061,146.878731 65.7970784,145.57069 65.9688202,144.459851 C67.0781394,144.289976 68.3827873,144.736084 69.3867028,145.742042 C70.3891441,146.748001 70.8336089,148.056781 70.6618671,149.168358" id="Fill-66" fill="#7B54E2"></path>
                                <path d="M16.2756667,47.5394423 C20.1468592,51.7900232 23.5603192,56.4128531 26.7843474,61.159766 C29.995108,65.9162805 32.9228263,70.8640896 35.6109906,75.9381975 C38.2947324,81.0167369 40.7175446,86.2356083 42.8779531,91.5637909 C45.017723,96.9000979 46.8692911,102.353841 48.4562441,107.884397 C51.6345728,118.952156 53.5347887,130.380347 54.2829343,141.888305 C54.9205164,153.40365 54.3647512,164.990637 52.6274319,176.408488 L50.1935634,176.00965 C52.0753521,164.789741 52.8021221,153.373368 52.3488122,141.990231 C51.7842019,130.615957 50.0815258,119.278612 47.1022113,108.261077 C45.6132911,102.754895 43.860493,97.3159237 41.8172817,91.9833095 C39.754169,86.6588199 37.4271784,81.435517 34.8355728,76.3429444 C32.2395446,71.2540647 29.4024883,66.2833593 26.2757559,61.4973012 C23.1416526,56.7237992 19.8019014,52.0536996 16.0243192,47.7757909 L16.2756667,47.5394423 Z" id="Fill-68" fill="#B098EE"></path>
                                <path d="M2.86410751,29.2702166 C1.89114977,32.9816274 2.93781643,37.817171 5.98789155,42.006449 C9.03870376,46.1949884 13.3145582,48.6685237 17.1400512,48.8708971 C18.1130089,45.1602249 17.0678164,40.3246813 14.0170042,36.1361419 C10.966192,31.9476025 6.68886338,29.4733286 2.86410751,29.2702166" id="Fill-70" fill="#B098EE"></path>
                                <path d="M30.8928826,35.3765029 C27.3858122,36.9186772 24.2546573,40.7445693 22.8740892,45.7418639 C21.4949953,50.7398971 22.2188169,55.6345278 24.4359812,58.7631917 C27.9430516,57.221756 31.0742066,53.3951253 32.4547746,48.3978307 C33.8338685,43.3997975 33.110784,38.5051668 30.8928826,35.3765029" id="Fill-72" fill="#B098EE"></path>
                                <path d="M44.1086709,48.8081909 C40.3185582,49.359917 36.2837319,52.21161 33.6257883,56.66161 C30.9685817,61.1101328 30.3649056,66.0224896 31.6717648,69.6290207 C35.4626146,69.0787718 39.4959667,66.2256017 42.1546474,61.7763402 C44.811854,57.3270788 45.414793,52.4169378 44.1086709,48.8081909" id="Fill-74" fill="#B098EE"></path>
                                <path d="M51.4990221,62.3703876 C47.7089094,62.9206365 43.6748202,65.7738066 41.0168765,70.2238066 C38.35967,74.6723295 37.7552568,79.5839477 39.062116,83.1904788 C42.8522286,82.6402299 46.8855808,79.7877983 49.5449986,75.3385369 C52.2022052,70.8885369 52.8051441,65.9776573 51.4990221,62.3703876" id="Fill-76" fill="#B098EE"></path>
                                <path d="M60.4203812,76.759878 C56.6170009,76.321156 51.9880808,78.0442846 48.2819962,81.6641104 C44.5773859,85.2846747 42.7405596,89.8772224 43.082569,93.6994216 C46.8859493,94.1381436 51.5148695,92.4150149 55.2202169,88.7951892 C58.9255643,85.1761021 60.7631277,80.5820772 60.4203812,76.759878" id="Fill-78" fill="#B098EE"></path>
                                <path d="M64.8148333,92.471517 C61.6261854,91.2329029 57.2375563,91.6775336 53.2211573,93.9693759 C49.2047582,96.2619568 46.5851432,99.8160481 46.02127,103.19731 C49.2099178,104.435924 53.599284,103.990554 57.6142089,101.698712 C61.630608,99.4068697 64.250223,95.8513012 64.8148333,92.471517" id="Fill-80" fill="#B098EE"></path>
                                <path d="M68.4218531,102.636499 C65.2324681,101.397885 60.843839,101.843993 56.8274399,104.135096 C52.8117779,106.427677 50.1921629,109.982507 49.6275526,113.362291 C52.8169376,114.600905 57.2055667,114.156275 61.2212286,111.864432 C65.2383648,109.571851 67.8579798,106.017022 68.4218531,102.636499" id="Fill-82" fill="#B098EE"></path>
                                <path d="M68.0266995,115.685819 C65.2935728,114.624466 61.5322066,115.006317 58.09,116.970226 C54.6477934,118.934873 52.4018826,121.982292 51.9183521,124.879778 C54.6514789,125.941869 58.4128451,125.55928 61.8550516,123.595371 C65.2979953,121.630724 67.5439061,118.583305 68.0266995,115.685819" id="Fill-84" fill="#B098EE"></path>
                                <path d="M67.3550638,129.204808 C65.7224113,127.374584 62.7681577,126.220169 59.4424113,126.35607 C56.1151906,126.49197 53.2648667,127.884949 51.7877399,129.842211 C53.4196554,131.671696 56.3739089,132.827588 59.7003925,132.691688 C63.0268761,132.55431 65.8779371,131.161331 67.3550638,129.204808" id="Fill-86" fill="#B098EE"></path>
                                <path d="M65.3280685,139.847953 C64.554862,138.039886 62.6067352,136.406127 60.0460873,135.656459 C57.4847023,134.907529 54.9653315,135.235463 53.3437352,136.342608 C54.1154676,138.149936 56.0643315,139.785173 58.6257164,140.534102 C61.1863643,141.282293 63.7072094,140.955098 65.3280685,139.847953" id="Fill-88" fill="#B098EE"></path>
                                <path d="M0.382180751,58.5309793 C2.81752347,61.4934606 7.34398826,63.4699253 12.5198286,63.4403817 C17.6934577,63.4100996 22.1970728,61.3804564 24.5985094,58.3913859 C22.1631667,55.4296432 17.6359648,53.4517012 12.4615986,53.4812448 C7.28649531,53.511527 2.78361737,55.5419087 0.382180751,58.5309793" id="Fill-90" fill="#B098EE"></path>
                                <path d="M7.43133333,69.9243087 C9.86741315,72.88679 14.3924038,74.8632548 19.5682441,74.8329726 C24.7426103,74.8026905 29.2469624,72.7737859 31.647662,69.7839768 C29.2115822,66.8214954 24.6858545,64.8450307 19.5114883,64.8738357 C14.3356479,64.9048564 9.83276995,66.933761 7.43133333,69.9243087" id="Fill-92" fill="#B098EE"></path>
                                <path d="M14.4897732,83.416561 C16.925116,86.3775651 21.4515808,88.3555071 26.626684,88.3252249 C31.8010502,88.2949427 36.3046653,86.2660382 38.7061019,83.276229 C36.2707592,80.3137477 31.7435573,78.3358058 26.5691911,78.366088 C21.3940878,78.3971087 16.8912099,80.4260133 14.4897732,83.416561" id="Fill-94" fill="#B098EE"></path>
                                <path d="M24.0179779,94.0352581 C25.9985366,96.4445361 29.6795601,98.0524448 33.8883394,98.0280714 C38.0978559,98.0036979 41.759715,96.352951 43.7130014,93.9215154 C41.7317056,91.5122373 38.0506822,89.9043286 33.8411657,89.9279635 C29.6323864,89.9530755 25.9697901,91.6030838 24.0179779,94.0352581" id="Fill-96" fill="#B098EE"></path>
                                <path d="M30.689962,103.351232 C32.2901826,105.376443 35.2650746,106.729539 38.66453,106.709597 C42.0654596,106.690393 45.0226615,105.302584 46.6000324,103.258908 C44.9990746,101.233696 42.0249197,99.8813394 38.6254643,99.9012813 C35.2245347,99.9197461 32.2665958,101.307555 30.689962,103.351232" id="Fill-98" fill="#B098EE"></path>
                                <path d="M33.2035099,113.266718 C34.8037305,115.291929 37.7771484,116.645025 41.1773408,116.625822 C44.5775333,116.60588 47.5354723,115.218809 49.1128432,113.175133 C47.5118854,111.149921 44.5369934,109.796826 41.1390122,109.816029 C37.7373455,109.835971 34.7794066,111.22378 33.2035099,113.266718" id="Fill-100" fill="#B098EE"></path>
                                <path d="M36.4823038,122.58343 C37.6631207,124.56728 40.2163977,126.198824 43.367454,126.729131 C46.5177732,127.259438 49.4631817,126.554824 51.2262991,125.068044 C50.0447451,123.085671 47.4929423,121.454127 44.3418859,120.923081 C41.1915667,120.392036 38.2461582,121.097388 36.4823038,122.58343" id="Fill-102" fill="#B098EE"></path>
                                <path d="M38.9224376,133.740928 C40.6133202,134.910853 43.26463,135.276455 45.9763812,134.519401 C48.6873953,133.761608 50.767461,132.074671 51.609954,130.197177 C49.9198085,129.027251 47.2684986,128.662388 44.5582216,129.418704 C41.8464704,130.177235 39.7664047,131.863434 38.9224376,133.740928" id="Fill-104" fill="#B098EE"></path>
                                <path d="M43.2614606,141.382815 C44.6980474,142.020956 46.7419958,141.918292 48.6731695,140.963296 C50.602869,140.007562 51.9281554,138.443968 52.2944887,136.912873 C50.858639,136.274732 48.8132164,136.376657 46.884254,137.332392 C44.9530803,138.288126 43.6292681,139.85172 43.2614606,141.382815" id="Fill-106" fill="#B098EE"></path>
                                <path d="M46.8914775,144.232588 C47.8143131,144.713409 49.0939,144.711193 50.275454,144.126969 C51.4540596,143.542745 52.2346371,142.525708 52.4144869,141.499069 C51.4916512,141.017509 50.2120643,141.019724 49.0305103,141.603949 C47.8511676,142.188173 47.0713272,143.20521 46.8914775,144.232588" id="Fill-108" fill="#B098EE"></path>
                                <path d="M47.2938545,147.418492 C48.2166901,147.899314 49.496277,147.896359 50.6770939,147.312874 C51.8564366,146.72865 52.6370141,145.711612 52.8168638,144.684973 C51.8940282,144.204152 50.6137042,144.205629 49.4328873,144.789853 C48.2535446,145.374077 47.4737042,146.391115 47.2938545,147.418492" id="Fill-110" fill="#B098EE"></path>
                                <path d="M98.33367,34.9134813 C94.3872944,39.6943693 90.9531958,44.8504606 87.7313789,50.1313734 C84.5220925,55.421888 81.6275432,60.9036971 78.998346,66.5095892 C76.3743085,72.1184357 74.0384728,77.8646598 71.990839,83.7157635 C69.9653178,89.5749917 68.2582192,95.5450083 66.8385854,101.585191 C63.9948953,113.667033 62.546515,126.074593 62.3430784,138.50505 C62.2590502,150.938461 63.463454,163.386643 65.9304915,175.588876 L68.5338906,175.031979 C65.917961,163.049108 64.5388671,150.794436 64.4312521,138.513913 C64.4437826,126.234867 65.6843038,113.938095 68.3164493,101.917556 C69.6328906,95.9098714 71.2338484,89.9612739 73.1547028,84.1116473 C75.0991441,78.2708838 77.3317873,72.5239212 79.8548437,66.9039959 C82.3837967,61.2877635 85.1795761,55.786751 88.2952521,50.4681701 C91.4205103,45.1628838 94.772792,39.9595228 98.6159751,35.1542614 L98.33367,34.9134813 Z" id="Fill-112" fill="#5D3FAA"></path>
                                <path d="M111.81798,14.5366174 C113.061449,18.4814224 112.186524,23.7438705 109.121708,28.4139701 C106.056154,33.0855469 101.580548,35.9734307 97.4727498,36.3929494 C96.2307545,32.4466672 97.1042052,27.1856963 100.169759,22.5148581 C103.235313,17.8440199 107.711656,14.9553975 111.81798,14.5366174" id="Fill-114" fill="#5D3FAA"></path>
                                <path d="M81.9572432,22.5839162 C85.8129568,24.0596174 89.3863653,28.0155012 91.1332667,33.3244805 C92.8801681,38.6334598 92.3568347,43.942439 90.1330366,47.4285801 C86.2758488,45.9521402 82.7053887,41.9962564 80.9570131,36.6872772 C79.2101117,31.3775593 79.732708,26.0700573 81.9572432,22.5839162" id="Fill-116" fill="#5D3FAA"></path>
                                <path d="M68.4290765,37.7423519 C72.5390859,38.1360199 77.0323817,40.9958373 80.1274192,45.6474722 C83.2209826,50.2983685 84.1290765,55.5549079 82.9106681,59.5078373 C78.8006587,59.1141693 74.3073629,56.2543519 71.2115883,51.602717 C68.1172878,46.9518207 67.2106681,41.6952813 68.4290765,37.7423519" id="Fill-118" fill="#5D3FAA"></path>
                                <path d="M61.1805413,52.7333494 C65.2905507,53.1270174 69.7838465,55.9868349 72.8796211,60.6384697 C75.9739216,65.2908432 76.8812784,70.546644 75.6621329,74.500312 C71.5521235,74.1059054 67.0595648,71.2453494 63.9630531,66.5951917 C60.8687526,61.9435568 59.96287,56.6870174 61.1805413,52.7333494" id="Fill-120" fill="#5D3FAA"></path>
                                <path d="M52.3267732,68.6966996 C56.3991911,68.0245834 61.4740502,69.6369237 65.653346,73.34021 C69.8326418,77.0434963 72.0512803,81.8923344 71.883961,86.0262183 C67.8093319,86.699073 62.7359469,85.0859942 58.5559141,81.3841851 C54.3766183,77.6794216 52.1579798,72.831322 52.3267732,68.6966996" id="Fill-122" fill="#5D3FAA"></path>
                                <path d="M48.4168099,85.8458548 C51.7860446,84.3450415 56.5351103,84.5932075 60.978284,86.8495975 C65.4229319,89.1074647 68.4302559,92.7974564 69.2152559,96.4076805 C65.8460211,97.9092324 61.0984296,97.6603278 56.6537817,95.4031992 C52.2091338,93.1468091 49.2010728,89.4568174 48.4168099,85.8458548" id="Fill-124" fill="#5D3FAA"></path>
                                <path d="M45.065339,96.9816382 C48.4345737,95.4808249 53.1829023,95.7289909 57.6275502,97.9853809 C62.071461,100.24251 65.078785,103.93324 65.8630479,107.543464 C62.4945502,109.045016 57.7462216,108.796111 53.3015737,106.538983 C48.8569258,104.282593 45.8488648,100.592601 45.065339,96.9816382" id="Fill-126" fill="#5D3FAA"></path>
                                <path d="M46.1731103,111.012691 C49.0602887,109.726807 53.1312324,109.939521 56.9390352,111.873886 C60.7497864,113.808251 63.3266502,116.971629 64.0003498,120.066318 C61.1116972,121.352202 57.0414906,121.139488 53.2322136,119.205123 C49.4214624,117.270758 46.8445986,114.106641 46.1731103,111.012691" id="Fill-128" fill="#5D3FAA"></path>
                                <path d="M47.6048324,125.534168 C49.2647573,123.477935 52.38633,122.079047 55.9759545,122.050981 C59.5648418,122.022915 62.706316,123.373056 64.3994099,125.402699 C62.7387479,127.458193 59.6179122,128.858558 56.0282878,128.886624 C52.4394005,128.91469 49.2964521,127.563072 47.6048324,125.534168" id="Fill-130" fill="#5D3FAA"></path>
                                <path d="M50.3437085,136.887835 C51.0800606,134.90103 53.0937883,133.038308 55.8114362,132.097345 C58.5298211,131.156383 61.2614737,131.377221 63.0643939,132.484366 C62.3280418,134.47191 60.3150512,136.333154 57.5966662,137.274856 C54.8782812,138.21508 52.1466286,137.99498 50.3437085,136.887835" id="Fill-132" fill="#5D3FAA"></path>
                                <path d="M116.021673,45.9143983 C113.554636,49.2306639 108.784931,51.5985809 103.210326,51.8378838 C97.6364573,52.0779253 92.6810066,50.1287884 89.9390347,47.0355768 C92.4068094,43.7170954 97.1772507,41.3506556 102.750382,41.1120913 C108.324988,40.8720498 113.279701,42.8219253 116.021673,45.9143983" id="Fill-134" fill="#5D3FAA"></path>
                                <path d="M109.02795,58.5526199 C106.560912,61.8696241 101.789734,64.2360639 96.2151282,64.476844 C90.6419967,64.7161469 85.6858089,62.76701 82.9445742,59.6745369 C85.4130859,56.3560556 90.1835272,53.9896158 95.7566587,53.7495743 C101.330527,53.51101 106.285978,55.4594083 109.02795,58.5526199" id="Fill-136" fill="#5D3FAA"></path>
                                <path d="M102.132849,73.4521062 C99.6658113,76.7691104 94.896107,79.1355502 89.3215014,79.3755917 C83.7476329,79.6156332 78.7914451,77.6657577 76.0502103,74.5725461 C78.517985,71.2548033 83.2891634,68.8883635 88.8622948,68.6490606 C94.4361634,68.4090191 99.390877,70.3588946 102.132849,73.4521062" id="Fill-138" fill="#5D3FAA"></path>
                                <path d="M92.4290695,85.3863784 C90.4227127,88.0837062 86.5434122,90.0106855 82.0095765,90.2041959 C77.4757408,90.3991834 73.4453371,88.8149095 71.2156423,86.2977975 C73.221262,83.6004697 77.1027737,81.6757062 81.6358723,81.4799801 C86.1689709,81.2849925 90.2008488,82.8707436 92.4290695,85.3863784" id="Fill-140" fill="#5D3FAA"></path>
                                <path d="M85.7319507,95.7691701 C84.1155141,98.0336846 80.9836221,99.6467635 77.3202887,99.804083 C73.6591667,99.9614025 70.4004953,98.6230788 68.5953638,96.5055436 C70.2125376,94.241029 73.3451667,92.6279502 77.0070258,92.4706307 C80.668885,92.3125726 83.9268192,93.6508963 85.7319507,95.7691701" id="Fill-142" fill="#5D3FAA"></path>
                                <path d="M83.5451545,106.578276 C81.9287178,108.84279 78.7953516,110.455869 75.1334925,110.613188 C71.4723704,110.771246 68.2136991,109.432923 66.4085676,107.314649 C68.0264784,105.050873 71.1576333,103.437794 74.8202296,103.279736 C78.4820887,103.122417 81.740023,104.46074 83.5451545,106.578276" id="Fill-144" fill="#5D3FAA"></path>
                                <path d="M80.5003127,116.78292 C79.3327634,118.980222 76.6696601,120.870272 73.3041108,121.607384 C69.9392986,122.345235 66.7314864,121.741069 64.7553502,120.232131 C65.9228995,118.034828 68.5860028,116.144778 71.950815,115.407666 C75.3163643,114.669816 78.5234394,115.27472 80.5003127,116.78292" id="Fill-146" fill="#5D3FAA"></path>
                                <path d="M78.4567329,128.924883 C76.6973009,130.274285 73.8624559,130.806808 70.9030427,130.133954 C67.9436296,129.46036 65.6159019,127.752742 64.609038,125.7748 C66.36847,124.426875 69.203315,123.894352 72.1634653,124.567945 C75.1236155,125.2408 77.4513432,126.946941 78.4567329,128.924883" id="Fill-148" fill="#5D3FAA"></path>
                                <path d="M74.1846376,137.381877 C72.6706563,138.144101 70.4638113,138.141147 68.3350977,137.213479 C66.2078582,136.286549 64.6990366,134.671993 64.2236141,133.041927 C65.7375953,132.280441 67.9437033,132.282657 70.0724169,133.210325 C72.2011305,134.137255 73.7084779,135.751811 74.1846376,137.381877" id="Fill-150" fill="#5D3FAA"></path>
                                <path d="M70.4257775,140.641345 C69.4565052,141.207843 68.0774113,141.2721 66.7764488,140.705602 C65.4754864,140.138366 64.5821343,139.085138 64.3344723,137.987594 C65.3037446,137.421096 66.6821014,137.356839 67.9838009,137.923337 C69.2847634,138.489835 70.1781155,139.545279 70.4257775,140.641345" id="Fill-152" fill="#5D3FAA"></path>
                                <path d="M70.1594671,144.092699 C69.1909319,144.659197 67.8111009,144.723454 66.5108756,144.157695 C65.2091761,143.58972 64.3150869,142.536491 64.068162,141.439686 C65.0381714,140.873188 66.415054,140.808193 67.7174906,141.375429 C69.0184531,141.941927 69.9110681,142.996632 70.1594671,144.092699" id="Fill-154" fill="#5D3FAA"></path>
                                <path d="M40.9825282,134.562461 C35.1528897,126.00295 29.0114624,117.64212 22.4587394,109.614394 L22.5656174,109.522809 C29.2856596,117.422759 35.5995657,125.663938 41.6142136,134.121523 C47.6126455,142.590187 53.2757019,151.315141 58.3660399,160.386494 C59.5932934,162.586012 60.7895892,164.808427 61.9438709,167.052261 C61.4920352,167.305598 61.0401995,167.559672 60.5920493,167.821133 C59.4805188,165.547017 58.3255,163.293581 57.1380493,161.061564 C52.26073,151.942203 46.7952136,143.13305 40.9825282,134.562461" id="Fill-156" fill="#7B54E2"></path>
                                <path d="M16.0229925,98.6982672 C18.1730817,98.8969477 20.4035136,100.332027 21.8106169,102.677047 C23.2169831,105.021329 23.4344244,107.669172 22.5993023,109.66484 C20.4492131,109.466159 18.2180441,108.03108 16.812415,105.68606 C15.4060488,103.341778 15.1878704,100.692458 16.0229925,98.6982672" id="Fill-158" fill="#7B54E2"></path>
                                <path d="M32.0100887,103.697482 C32.8864878,105.408055 32.9321873,107.979822 31.9474362,110.53091 C30.9641592,113.081997 29.2054643,114.955798 27.4091779,115.630868 C26.5313047,113.921034 26.4863423,111.348528 27.4710934,108.796702 C28.4551075,106.245615 30.2130653,104.373291 32.0100887,103.697482" id="Fill-160" fill="#7B54E2"></path>
                                <path d="M32.5499329,122.528627 C31.0904962,123.776104 28.6035573,124.410552 25.899177,124.036826 C23.1947967,123.663838 20.9709986,122.379432 19.9022192,120.781863 C21.3616559,119.532909 23.8493319,118.899199 26.5537122,119.272925 C29.2580925,119.645913 31.4818906,120.93032 32.5499329,122.528627" id="Fill-162" fill="#7B54E2"></path>
                                <path d="M39.0016009,130.872395 C37.5421643,132.119872 35.0544883,132.75432 32.350108,132.381333 C29.6457277,132.007607 27.4219296,130.723939 26.3538873,129.125632 C27.8133239,127.877416 30.3002629,127.243706 33.0046432,127.617432 C35.7090235,127.99042 37.9328216,129.274827 39.0016009,130.872395" id="Fill-164" fill="#7B54E2"></path>
                                <path d="M43.3824169,137.518959 C41.9229803,138.766437 39.4360413,139.400885 36.731661,139.027159 C34.0272808,138.654171 31.8034826,137.369764 30.7347033,135.772196 C32.1941399,134.523241 34.681816,133.888793 37.3861962,134.263258 C40.0905765,134.636246 42.3143746,135.920652 43.3824169,137.518959" id="Fill-166" fill="#7B54E2"></path>
                                <path d="M48.2411615,144.855071 C46.7802507,146.102548 44.2933117,146.737734 41.5889315,146.364008 C38.8852883,145.990282 36.6622272,144.705876 35.5927108,143.109046 C37.0528845,141.860091 39.5398235,141.226382 42.2442038,141.599369 C44.9478469,141.973095 47.1716451,143.257502 48.2411615,144.855071" id="Fill-168" fill="#7B54E2"></path>
                                <path d="M37.625308,110.856184 C38.5024441,112.566018 38.5466695,115.138524 37.5626554,117.69035 C36.5793784,120.241437 34.8199465,122.113761 33.0236601,122.78957 C32.1465239,121.078998 32.1022986,118.50723 33.0855756,115.956143 C34.0695897,113.404317 35.8282845,111.531255 37.625308,110.856184" id="Fill-170" fill="#7B54E2"></path>
                                <path d="M42.9930127,118.224055 C43.8686746,119.935366 43.9136371,122.507134 42.929623,125.058221 C41.9470831,127.609308 40.1876512,129.483109 38.3913648,130.158179 C37.5127545,128.446868 37.4685291,125.8751 38.4532803,123.324013 C39.4372944,120.772926 41.1959892,118.899125 42.9930127,118.224055" id="Fill-172" fill="#7B54E2"></path>
                                <path d="M48.0993455,125.65249 C48.9764817,127.363801 49.0214441,129.93483 48.036693,132.486656 C47.053416,135.037743 45.2947211,136.910805 43.4984347,137.585876 C42.6205615,135.875303 42.5763362,133.303535 43.5603502,130.752448 C44.5451014,128.200622 46.3023221,126.32756 48.0993455,125.65249" id="Fill-174" fill="#7B54E2"></path>
                                <path d="M53.0487521,132.92944 C53.9258883,134.640751 53.9708507,137.212519 52.9868366,139.763606 C52.0028225,142.314693 50.2441277,144.188494 48.4471042,144.863564 C47.5707052,143.152992 47.5257427,140.580485 48.5097568,138.029398 C49.4930338,135.478311 51.2517286,133.605988 53.0487521,132.92944" id="Fill-176" fill="#7B54E2"></path>
                            </g>
                            <g id="Group-181" transform="translate(210.000000, 161.000000)">
                                <mask id="mask-7" fill="white">
                                    <use xlink:href="#path-6"></use>
                                </mask>
                                <g id="Clip-180"></g>
                                <path d="M11.0152771,0.57525 C4.54266265,3.9495 0.432879518,8.97 0.432879518,14.57925 L0.432879518,14.57925 C0.432879518,20.57025 5.11371084,25.89 12.358747,29.2485 L12.358747,29.2485 L48.641988,29.2485 C55.8848193,25.89 60.5671205,20.57025 60.5671205,14.57925 L60.5671205,14.57925 C60.5671205,8.97 56.4580723,3.9495 49.9847229,0.57525 L49.9847229,0.57525 L11.0152771,0.57525 Z" id="Fill-179" fill="url(#linearGradient-8)" mask="url(#mask-7)"></path>
                            </g>
                            <g id="Group-263">
                                <path d="M224.208142,165.273818 C220.352766,164.823658 215.187433,167.731251 213.852397,173.578909 C212.034241,185.117037 223.583404,188.505048 229.885362,185.576053 C224.392539,184.197529 218.387092,181.677369 218.210071,175.996492 C217.906922,173.023957 219.670496,170.158428 219.700738,170.07061 C219.945617,169.720813 220.437589,168.855176 221.355887,167.85154 C222.167234,166.881112 223.154128,166.063444 224.208142,165.273818" id="Fill-182" fill="#F8E74A"></path>
                                <mask id="mask-10" fill="white">
                                    <use xlink:href="#path-9"></use>
                                </mask>
                                <g id="Clip-185"></g>
                                <polygon id="Fill-184" fill="#1179C5" mask="url(#mask-10)" points="218.704624 163.202342 261.908142 163.202342 261.908142 160.487358 218.704624 160.487358"></polygon>
                                <polygon id="Fill-186" fill="#4C505E" mask="url(#mask-10)" points="43.8319433 250.767401 49.6035745 250.767401 49.6035745 213.801112 43.8319433 213.801112"></polygon>
                                <path d="M61.5914553,194.371672 L61.5914553,198.799479 C61.5914553,201.764634 58.8291858,204.168934 55.4230014,204.168934 L54.7363064,204.168934 L54.7363064,209.162025 C54.7363064,210.410666 53.5731291,211.42242 52.1392567,211.42242 L41.9649589,211.42242 C40.5303489,211.42242 39.3671716,210.410666 39.3671716,209.162025 L39.3671716,203.925404 C36.857895,203.24426 35.0375262,201.20673 35.0375262,198.799479 L35.0375262,194.371672 L61.5914553,194.371672 Z" id="Fill-187" fill="#303030" mask="url(#mask-10)"></path>
                                <polygon id="Fill-188" fill="#303030" mask="url(#mask-10)" points="42.8634894 220.144684 50.3153475 220.144684 50.3153475 211.422642 42.8634894 211.422642"></polygon>
                                <path d="M17.7251404,102.961652 L17.7251404,176.191684 L58.2748142,176.191684 L54.6650553,102.146198 C54.3766582,96.048369 50.8362326,91.2611711 46.4615943,90.8634064 C46.2742468,90.8538128 46.0787858,90.8420053 45.8848,90.8420053 L26.5304738,90.8420053 C21.6719773,90.8420053 17.7251404,96.2638556 17.7251404,102.961652" id="Fill-193" fill="#0089A9" mask="url(#mask-10)"></path>
                                <path d="M34.1984454,92.4239872 C34.3931688,92.4239872 34.5878922,92.4343187 34.7752397,92.4453882 C39.149878,92.842415 42.6910411,97.6303508 42.9794383,103.726704 L46.5117504,176.192201 L58.2748142,176.192201 L54.6650553,102.145976 C54.3766582,96.0481476 50.8362326,91.2609497 46.4615943,90.863923 C46.2742468,90.8535914 46.0787858,90.841784 45.8848,90.841784 L26.5304738,90.841784 C24.9490837,90.841784 23.4635801,91.4173989 22.1809135,92.4239872 L34.1984454,92.4239872 Z" id="Fill-194" fill="#75E0F9" mask="url(#mask-10)"></path>
                                <path d="M23.1799773,90.8385369 L29.8404028,90.8385369 C23.1497362,90.8385369 17.7262468,96.2655529 17.7262468,102.95966 L17.7262468,176.197072 L11.0658213,176.197072 L11.0658213,102.95966 C11.0658213,96.2655529 16.4893106,90.8385369 23.1799773,90.8385369" id="Fill-195" fill="#004555" mask="url(#mask-10)"></path>
                                <path d="M65.8030865,61.4523594 C65.8030865,61.4523594 65.8296397,61.4796642 65.8576681,61.5084449 C65.8407035,61.4922096 65.8266894,61.4767123 65.8030865,61.4523594" id="Fill-196" fill="#31003D" mask="url(#mask-10)"></path>
                                <path d="M38.0008624,65.8830449 C37.9735716,65.8830449 37.9462809,65.880831 37.9175149,65.8756652 C37.6571461,65.8299112 37.4830752,65.581216 37.5280681,65.3207134 C43.7304511,29.9255583 75.1000965,30.3307027 75.4061957,30.3277467 C75.6709901,30.3343925 75.8797277,30.554307 75.873949,30.8192374 C75.8657135,31.0841679 75.6488624,31.3085102 75.3818553,31.2871091 C75.0683801,31.2944888 44.5299972,30.9159112 38.4729191,65.4860182 C38.4316142,65.7184781 38.2295149,65.8830449 38.0008624,65.8830449" id="Fill-197" fill="#3C4875" mask="url(#mask-10)"></path>
                                <polygon id="Fill-198" fill="#DD7C82" mask="url(#mask-10)" points="196.708255 274.785305 263.642213 274.785305 263.642213 189.98246 196.708255 189.98246"></polygon>
                                <polygon id="Fill-199" fill="#903B41" mask="url(#mask-10)" points="263.642213 274.785305 276.574355 274.785305 276.574355 189.98246 263.642213 189.98246"></polygon>
                                <polygon id="Fill-200" fill="#903B41" mask="url(#mask-10)" points="206.123574 215.003041 260.516312 215.003041 260.516312 193.822624 259.055887 214.04073"></polygon>
                                <polygon id="Fill-201" fill="#903B41" mask="url(#mask-10)" points="204.998457 241.812013 259.391194 241.812013 259.391194 220.63012 257.930769 240.849703"></polygon>
                                <path d="M235.632874,199.334949 C235.632874,200.376959 233.62737,201.221195 231.153498,201.221195 C228.678888,201.221195 226.674122,200.376959 226.674122,199.334949 C226.674122,198.293676 228.678888,197.448703 231.153498,197.448703 C233.62737,197.448703 235.632874,198.293676 235.632874,199.334949" id="Fill-202" fill="#903B41" mask="url(#mask-10)"></path>
                                <path d="M237.079211,230.367016 C237.079211,231.481348 234.827353,232.383144 232.050332,232.383144 C229.274048,232.383144 227.022928,231.481348 227.022928,230.367016 C227.022928,229.252684 229.274048,228.350888 232.050332,228.350888 C234.827353,228.350888 237.079211,229.252684 237.079211,230.367016" id="Fill-203" fill="#903B41" mask="url(#mask-10)"></path>
                                <polygon id="Fill-206" fill="#A65E62" mask="url(#mask-10)" points="196.708255 194.535722 263.642213 194.535722 263.642213 189.981722 196.708255 189.981722"></polygon>
                                <polygon id="Fill-207" fill="#360442" mask="url(#mask-10)" points="263.684255 194.535722 276.575092 194.535722 276.575092 189.981722 263.684255 189.981722"></polygon>
                                <path d="M101.699313,187.91733 L107.470945,170.324913 C108.718945,166.519951 108.13625,162.444154 105.874065,159.14101 C103.612618,155.839341 100.023512,153.825427 96.0279943,153.61732 L48.4822922,151.136272 L48.147427,157.569138 L95.6916539,160.04871 C97.6691291,160.152026 99.4452426,161.14902 100.564165,162.781405 C101.683824,164.416742 101.971484,166.434347 101.354122,168.315427 L95.5824908,185.908582 L101.699313,187.91733 Z" id="Fill-208" fill="#1E1E1E" mask="url(#mask-10)"></path>
                                <path d="M19.6490667,196.208621 L93.0524142,196.208621 C93.0524142,188.876172 87.1118752,182.933317 79.7839319,182.933317 L32.9153362,182.933317 C25.5896057,182.933317 19.6490667,188.876172 19.6490667,196.208621" id="Fill-209" fill="#004555" mask="url(#mask-10)"></path>
                                <path d="M34.8920738,196.208621 L108.296896,196.208621 C108.296896,188.876172 102.356357,182.933317 95.0284142,182.933317 L48.1598184,182.933317 C40.8326128,182.933317 34.8920738,188.876172 34.8920738,196.208621" id="Fill-210" fill="#0089A9" mask="url(#mask-10)"></path>
                                <path d="M106.690281,145.188693 L100.024692,142.244939 L100.024692,142.245677 C97.4239546,140.946853 94.5672738,140.833944 93.1311887,140.595581 L93.1297135,140.595581 C91.5638128,140.337292 89.6180539,140.045795 87.1663092,139.693046 C87.2791603,141.901046 87.5505929,144.109784 88.1981957,146.317784 C88.7808908,146.241773 89.3554723,146.167976 89.9160397,146.102297 C92.7977986,145.765046 99.2030184,146.23218 101.19377,149.161912 C103.18526,152.091645 103.16387,154.100394 103.794508,153.897452 C104.428096,153.693773 103.838763,150.574383 102.87326,149.056383 C101.907018,147.538383 101.358252,146.243249 101.358252,146.243249 C101.358252,146.243249 103.939075,149.236447 104.33221,150.851859 C104.725345,152.466533 105.553657,154.117367 105.948267,153.989698 C106.343614,153.862768 105.479898,151.002404 105.14282,149.284415 C104.914905,148.11326 104.55865,147.112575 104.115359,146.249153 L106.049316,147.181944 C106.049316,147.181944 108.8256,151.423784 109.085231,150.401698 C109.3456,149.380351 106.690281,145.188693 106.690281,145.188693" id="Fill-211" fill="#FD5E5A" mask="url(#mask-10)"></path>
                                <path d="M82.5983489,138.267366 C69.4102638,136.402521 66.191427,138.589858 66.191427,132.666927 C66.191427,124.631195 75.0874837,105.550296 71.0639376,100.197815 C70.4067461,99.324061 65.3409872,95.8061679 63.0640511,98.1455262 C55.296505,106.128125 51.6771574,135.662339 57.6921929,145.298724 C61.3823489,151.210585 76.8060652,147.819622 88.198122,146.317858 C87.5505191,144.109858 88.3102355,140.476842 88.198122,138.267366 C86.7885901,138.064425 84.3700369,138.519013 82.5983489,138.267366" id="Fill-212" fill="#B54300" mask="url(#mask-10)"></path>
                                <path d="M88.9319489,140.50791 L96.5881191,143.450926 C96.5881191,143.450926 99.6373106,147.641846 99.3378496,148.66467 C99.0398638,149.686755 95.8527433,145.44344 95.8527433,145.44344 L91.2236369,143.502584 L88.9319489,140.50791 Z" id="Fill-213" fill="#D80000" mask="url(#mask-10)"></path>
                                <path d="M84.7391262,141.917576 C84.7391262,141.917576 88.352573,145.75132 88.352573,146.56825 C88.352573,147.385919 88.6726865,149.32825 89.3888851,149.32825 C90.1028709,149.32825 90.120573,145.949095 90.120573,144.904871 C90.120573,143.859908 88.3156936,140.947149 88.0095943,140.947149 C87.7020199,140.947149 84.7391262,141.917576 84.7391262,141.917576" id="Fill-214" fill="#D80000" mask="url(#mask-10)"></path>
                                <path d="M97.9983887,248.535196 C97.310956,249.196415 94.1673532,247.779517 94.1673532,250.518853 C94.1673532,251.441313 96.0622184,251.568244 96.4760057,254.748148 C96.7548142,256.886779 95.3659348,261.918244 96.0341901,263.819249 C97.3220199,267.488426 100.161736,269.258811 100.161736,269.258811 C100.161736,267.020554 99.0804312,265.82726 99.0804312,263.464287 C99.0804312,261.102051 106.499835,253.258928 107.145226,245.508789 C107.184318,245.031324 107.332573,244.398886 107.573765,243.632875 C105.3728,242.271324 103.174048,240.953313 101.33524,239.388083 C99.4787291,244.732447 98.1724596,248.367677 97.9983887,248.535196" id="Fill-215" fill="#FD5E5A" mask="url(#mask-10)"></path>
                                <path d="M125.768896,183.551512 C121.799194,172.770539 69.1892085,161.396978 69.1892085,161.396978 L62.9115915,163.621951 L57.287478,171.137416 L109.786088,188.091491 C109.786088,188.091491 104.373662,224.115395 98.1875064,242.399288 C100.250542,244.202881 103.779904,243.580036 106.250088,245.150432 C110.36067,231.724582 127.97945,189.557095 125.768896,183.551512" id="Fill-217" fill="#6D175B" mask="url(#mask-10)"></path>
                                <path d="M112.274786,239.679581 C109.662247,239.838244 107.040119,240.064062 104.403977,240.377698 C105.148942,245.581848 105.498559,249.751367 104.858332,250.881934 C104.361935,251.756426 103.808006,252.629442 103.272516,253.464083 C101.764885,255.817463 100.406984,257.87418 100.916658,258.882244 C101.227183,259.494019 104.550757,258.841656 105.772942,261.817142 C107.274672,265.477463 106.687552,272.820244 106.687552,272.820244 L117.930616,274.65926 C117.930616,274.65926 119.488403,273.956714 117.184913,271.683035 C114.882162,269.409356 112.986559,268.672864 112.240857,266.199196 C111.495155,263.723313 112.172999,251.081923 112.172999,242.988629 C112.172999,242.157677 112.210616,241.033752 112.274786,239.679581" id="Fill-218" fill="#FC7575" mask="url(#mask-10)"></path>
                                <path d="M103.101765,175.471354 L62.7468142,166.399514 L35.6190411,170.647258 C35.6190411,170.647258 32.0896794,182.081333 38.1371688,186.666327 C40.5217929,188.475825 91.6234099,191.315525 91.6234099,191.315525 C91.6234099,191.315525 99.4241475,228.975504 101.204687,241.434616 C104.424999,241.052349 109.63385,240.146124 112.824658,239.953514 C113.414729,227.312124 106.201112,176.359867 103.101765,175.471354" id="Fill-220" fill="#7F71A4" mask="url(#mask-10)"></path>
                                <path d="M70.0341163,88.2520332 C72.2697475,88.6416802 77.5162156,97.6566963 78.7324993,100.807819 C78.9744284,101.437306 82.432244,113.026354 79.1632511,116.915445 C75.8935206,120.805274 71.2481872,131.941948 68.7012936,137.277456 C67.4975489,139.802044 60.0633929,150.299637 69.4632227,155.964279 C71.8249816,157.387819 75.7961589,156.890429 74.5702865,158.927958 C73.3451518,160.964012 46.8841589,176.242899 35.9523574,173.187712 C25.0198184,170.131787 33.8074496,166.427926 34.8290099,163.649477 C35.8498326,160.871766 30.2308823,160.223092 32.5801021,157.075659 C34.9307972,153.927488 43.665322,146.241552 48.6211801,129.312568 C49.1079887,127.646236 50.371478,96.0449743 52.2331518,91.0504075 C53.4796766,87.703723 65.0163007,87.3760652 70.0341163,88.2520332" id="Fill-221" fill="#F15900" mask="url(#mask-10)"></path>
                                <path d="M83.8984965,52.8540738 C82.9683972,53.2319134 76.7527376,49.789293 68.9217589,53.6865016 C61.2788652,57.4899882 58.6663262,70.5918706 58.0762553,77.2933572 C57.8682553,79.6733037 58.3410496,81.4045765 58.3410496,81.4045765 C58.3410496,81.4045765 61.5724255,81.5388866 64.621617,82.8273786 C67.6693333,84.1151326 72.3279433,86.4876995 75.8735319,87.2588759 C79.4914043,88.0448118 88.6087376,69.4502342 88.2244539,63.4704802 C87.842383,57.4892503 83.8984965,52.8540738 83.8984965,52.8540738" id="Fill-222" fill="#2E0A29" mask="url(#mask-10)"></path>
                                <path d="M83.8984965,52.8540738 C83.8984965,52.8540738 90.168,56.0170043 90.2005424,61.4484481 C90.2299574,66.8821059 82.871773,81.3234 86.9299858,83.4878599 C86.9299858,83.4878599 84.5593759,83.969015 82.963234,83.2945123 C82.963234,83.2945123 81.195234,84.7652824 82.7072908,88.4927583 C82.7072908,88.4927583 79.1203972,88.4809508 75.8735319,87.2588759 C75.649305,87.1747476 73.0153759,86.9437636 73.556766,84.8464588 C74.1955177,82.3624588 78.091461,77.7973893 78.7147234,75.3960417 C81.3545532,65.223892 83.8984965,52.8540738 83.8984965,52.8540738" id="Fill-223" fill="#450F3D" mask="url(#mask-10)"></path>
                                <path d="M83.7054695,53.7800759 C84.4098667,54.0376267 85.036817,54.3593807 85.5494411,54.7313166 C85.5494411,54.7313166 90.851966,59.7435947 89.3915404,64.4894663 C87.9311149,69.233862 86.6100936,70.7917123 85.9868312,73.9841615 C85.0051007,79.0001294 78.7186326,86.6476909 73.6292709,84.5968781 C74.4465191,82.0686 78.1115972,77.7190171 78.7142071,75.3958941 C80.9225475,66.8856481 83.0652426,56.836739 83.7054695,53.7800759" id="Fill-224" fill="#340B2E" mask="url(#mask-10)"></path>
                                <path d="M69.3383489,76.9921925 L63.6854695,87.8779572 C63.6854695,87.8779572 68.1087887,103.390043 76.3771574,101.767989 C76.5195121,101.739947 73.6635688,99.0338182 73.1302922,94.6820214 C72.7098667,91.2541604 74.3052709,86.9038396 76.0046752,81.3661283 C76.8425759,78.6312193 69.3383489,76.9921925 69.3383489,76.9921925" id="Fill-225" fill="#FC7575" mask="url(#mask-10)"></path>
                                <path d="M69.3383489,76.9921925 L65.9070865,83.6029091 C70.033895,86.4396578 74.8592,84.0796364 75.3843631,83.3579037 C76.2576681,81.1786845 75.5414695,82.2561176 76.0046752,81.3661283 C77.3227461,78.8275187 69.3383489,76.9921925 69.3383489,76.9921925" id="Fill-226" fill="#FD5E5A" mask="url(#mask-10)"></path>
                                <path d="M84.9292766,54.4618845 C84.9292766,54.4618845 89.9301277,59.2276813 88.5257589,63.7683979 C87.1236028,68.3098524 85.8652766,69.8027615 85.2597163,72.8564727 C84.6556312,75.908708 80.5273475,83.1216064 75.294156,83.3629219 C70.060227,83.6034995 66.8694184,73.9117668 67.0766809,70.1776492 C67.2846809,66.4442695 68.7178156,61.5301412 71.8230638,56.7392535 C74.9290496,51.9468898 81.9649078,52.2959487 84.9292766,54.4618845" id="Fill-227" fill="#FC7575" mask="url(#mask-10)"></path>
                                <path d="M68.4322213,76.6542032 C67.4740936,74.2240749 66.9917106,71.7039144 67.0765333,70.1777968 C67.2845333,66.4444171 68.7176681,61.5302888 71.8236539,56.7386631 C74.9296397,51.9470374 81.9654979,52.2960963 84.9291291,54.4620321 C84.9291291,54.4620321 89.9299801,59.2278289 88.5256113,63.7685455 C88.0557674,65.2902353 87.6021504,66.469508 87.1839376,67.4790481 L87.1832,67.4797861 L81.6527603,65.1765882 C81.6527603,65.1765882 83.792505,60.5487914 83.1323631,58.9223102 L80.7927319,64.5714545 L76.9417816,63.1516043 C76.9417816,63.1516043 76.4859518,60.1045348 77.3931858,57.9563102 C77.3931858,57.9563102 76.1134695,60.9613155 76.2735262,62.9125027 C76.2735262,62.9125027 73.6654128,61.7450374 72.9912567,63.342 C72.4410156,64.6474652 69.3092142,72.9606738 68.7176681,75.2498503 C68.592278,75.7339572 68.4986043,76.2025668 68.4322213,76.6542032" id="Fill-228" fill="#FD5E5A" mask="url(#mask-10)"></path>
                                <path d="M90.0744,59.5029433 C89.5455489,56.5296706 86.7205844,54.0877348 83.8963574,52.8516385 C80.0756482,49.2879914 71.4134071,47.5795957 63.4304851,55.1467187 C58.8345702,59.5029433 50.7985418,77.7868364 52.4529532,77.703446 C52.6189106,77.6945904 58.3411234,81.405093 58.3411234,81.405093 L58.4569248,78.2724193 C58.7881021,79.0893497 60.1179745,79.842815 61.8055773,80.4959166 C61.1963291,76.4784193 62.9886695,73.815831 62.9886695,73.815831 C62.227478,77.0038524 62.8204993,79.4420984 63.6820028,81.1423765 C67.2880738,82.2633497 71.4104567,82.9585155 71.4104567,82.9585155 C71.395705,82.8847187 68.2078468,76.851093 69.3252936,72.5354567 C69.9183149,70.2470182 71.9784,64.4753711 72.5293787,63.1699059 C73.2050099,61.5729433 76.0211234,62.2917241 76.0211234,62.2917241 C75.8618043,60.3427508 78.0509674,56.773938 78.0509674,56.773938 C77.1452085,58.9221626 77.1105418,62.7514781 77.1105418,62.7514781 L80.8486411,64.3314674 L83.6064851,57.7967615 C84.2673645,59.4232428 82.4079035,64.9912107 82.4079035,64.9912107 L87.7355064,67.0641626 C87.7355064,67.0641626 90.8968113,64.1292642 90.0744,59.5029433" id="Fill-229" fill="#464A7F" mask="url(#mask-10)"></path>
                                <path d="M83.742939,53.2194417 C77.1393078,50.3133241 71.8021163,50.0351102 67.0313929,55.4975487 C62.4185135,60.7378588 55.3833929,72.6752278 55.1982582,79.6578802 L58.3411234,81.4046503 C58.1486128,75.7127037 63.0262865,62.9001048 66.3616624,58.2420513 C70.5334638,52.4054631 74.121095,49.671292 83.742939,53.2194417" id="Fill-230" fill="#3B4999" mask="url(#mask-10)"></path>
                                <path d="M84.776522,54.0129048 C86.8174298,55.5655893 88.9173447,57.6806053 89.1275574,60.2273326 C89.327444,62.5784984 88.0189617,64.7163914 86.7842383,66.6948834 L86.216295,66.473493 C89.0051177,62.3644877 90.8933447,59.022969 84.776522,54.0129048" id="Fill-231" fill="#363A68" mask="url(#mask-10)"></path>
                                <path d="M84.4668085,54.0900225 C88.4505248,57.9053166 86.8816738,61.5117658 84.0109787,65.6148674 L83.4489362,65.3956909 C86.6205674,61.5014342 88.3428369,58.0174877 84.4668085,54.0900225" id="Fill-232" fill="#363A68" mask="url(#mask-10)"></path>
                                <path d="M83.6882099,53.5516749 C80.7998128,56.6430225 79.9899404,59.7675786 79.5237844,63.7725305 L78.9860823,63.5444984 C79.678678,59.619985 80.7149901,56.4555786 83.6882099,53.5516749" id="Fill-233" fill="#363A68" mask="url(#mask-10)"></path>
                                <path d="M79.6011574,74.7574043 C79.2013844,73.5633722 79.7472,71.6107091 80.3380085,70.4683348 C80.1661504,71.6926235 79.7368738,73.8467519 80.0473986,74.7810193 L80.113044,74.9773187 C80.0407603,74.9869123 78.9424908,75.5330086 77.9873135,75.0931797 C78.3118525,75.1138428 79.094434,74.9869123 79.6011574,74.7574043" id="Fill-234" fill="#450F3D" mask="url(#mask-10)"></path>
                                <path d="M80.0499064,66.2290043 C80.0499064,66.2290043 79.7578213,65.4969401 78.8181333,64.8866406 C77.879183,64.2756032 75.2445163,64.6379455 75.2445163,64.6379455 C75.2445163,64.6379455 77.6446298,64.8829508 78.2435518,65.1353358 C78.8417362,65.3869829 79.5734241,66.3382235 79.5734241,66.3382235 L80.0499064,66.2290043 Z" id="Fill-235" fill="#5C1451" mask="url(#mask-10)"></path>
                                <path d="M82.7791319,67.5247283 C82.7791319,67.5247283 83.374366,67.1985465 84.3457702,67.278985 C85.3171745,67.3594235 86.9243801,68.9312952 86.9243801,68.9312952 C86.9243801,68.9312952 85.1504794,67.8723112 84.6046638,67.7320973 C84.0588482,67.5926214 83.046139,67.8383647 83.046139,67.8383647 L82.7791319,67.5247283 Z" id="Fill-236" fill="#5C1451" mask="url(#mask-10)"></path>
                                <path d="M77.8155291,68.8212642 C77.6694865,69.2123872 77.3132312,69.4411572 77.0196709,69.331938 C76.7261106,69.2227187 76.6073589,68.8160984 76.754139,68.4242374 C76.9001816,68.0323765 77.2556993,67.8036064 77.5499972,67.9135636 C77.8428199,68.0227829 77.9615716,68.4286652 77.8155291,68.8212642" id="Fill-237" fill="#464A7F" mask="url(#mask-10)"></path>
                                <path d="M84.3119887,71.2975155 C84.1666837,71.6886385 83.8104284,71.9181465 83.5161305,71.8081893 C83.2240454,71.6989701 83.1038184,71.2923497 83.2505986,70.9012267 C83.3966411,70.5086278 83.7521589,70.2798578 84.0464567,70.389815 C84.3392794,70.4990342 84.4587688,70.9056545 84.3119887,71.2975155" id="Fill-238" fill="#464A7F" mask="url(#mask-10)"></path>
                                <path d="M74.7161078,79.1145882 C75.0944908,79.5027594 75.5178667,79.8614118 76.0717957,79.9617754 C75.5429447,80.0798503 74.8975546,79.6274759 74.7161078,79.1145882" id="Fill-239" fill="#2E0A29" mask="url(#mask-10)"></path>
                                <path d="M74.6281872,74.8078813 C76.461095,76.723646 79.7691801,78.1353786 79.7691801,78.1353786 C79.7691801,78.1353786 79.3435915,78.493293 78.7321305,78.8135711 C77.7835915,78.355293 75.9580596,77.3878171 74.6267121,76.1738599 C74.5632794,75.4085872 74.6281872,74.8078813 74.6281872,74.8078813" id="Fill-240" fill="#FFFFFF" mask="url(#mask-10)"></path>
                                <path d="M74.6267858,76.1735647 C75.9581333,77.3882599 77.7836652,78.3549979 78.7322043,78.8132759 C76.3556936,80.0419925 74.8657645,78.881169 74.6267858,76.1735647" id="Fill-241" fill="#2E0A29" mask="url(#mask-10)"></path>
                                <path d="M79.0934014,69.0662695 C78.8005787,68.3157561 77.7627915,67.6766759 77.0443801,67.5534353 C76.011756,67.3800128 75.1731177,67.9622695 74.5292028,67.8560021 C75.3457135,68.4161198 76.0331461,67.5217027 78.0652028,68.4094781 C78.4236709,68.5895422 78.7873021,68.7732963 79.0934014,69.0662695" id="Fill-242" fill="#2E0A29" mask="url(#mask-10)"></path>
                                <path d="M81.8758809,70.4824299 C82.5574128,70.0551465 83.7707461,70.1614139 84.4227745,70.4920235 C85.3536113,70.9694888 85.6811007,71.9362267 86.2608454,72.2358417 C85.271739,72.1982053 85.2532993,71.0705904 83.0906894,70.5687722 C82.6975546,70.4994032 82.2955688,70.4300342 81.8758809,70.4824299" id="Fill-243" fill="#2E0A29" mask="url(#mask-10)"></path>
                                <path d="M75.7403972,72.013123 C75.4667518,72.7474011 74.282922,72.9835508 73.0983546,72.541508 C71.9137872,72.0987273 71.1747234,71.1452727 71.4483688,70.4109947 C71.7227518,69.6767166 72.9051064,69.4405668 74.0911489,69.8826096 C75.2749787,70.3246524 76.0140426,71.2788449 75.7403972,72.013123" id="Fill-244" fill="#FD5E5A" mask="url(#mask-10)"></path>
                                <path d="M84.437305,75.3433508 C84.2300426,75.9012545 83.422383,76.1145273 82.6346383,75.8200781 C81.846156,75.5263668 81.3770496,74.8363668 81.5843121,74.2784631 C81.7923121,73.7212973 82.5999716,73.5072866 83.3869787,73.8017358 C84.175461,74.096185 84.645305,74.786185 84.437305,75.3433508" id="Fill-245" fill="#FD5E5A" mask="url(#mask-10)"></path>
                                <path d="M94.8117844,147.546722 C92.9604369,139.311738 84.1101106,139.30362 81.0144511,138.858626 C79.7767773,138.679299 78.3215149,138.485952 76.6280113,138.267513 C75.8926355,140.311684 75.0156426,142.39792 74.8696,144.636176 C75.7060255,144.537289 76.5254865,144.446519 77.3206071,144.364604 C80.6316426,144.028091 87.9883518,144.493749 90.2756142,147.423481 C92.5614014,150.353214 92.5377986,152.362701 93.2628482,152.159759 C93.9886355,151.956818 93.3130043,148.83669 92.2029333,147.31869 C91.0936,145.801428 90.4636993,144.505556 90.4636993,144.505556 C90.4636993,144.505556 93.4280681,147.498754 93.8802099,149.114166 C94.3316142,150.72884 95.2808908,152.378936 95.735983,152.251267 C96.1896,152.125075 95.1975433,149.264711 94.8117844,147.546722" id="Fill-246" fill="#FC7575" mask="url(#mask-10)"></path>
                                <polygon id="Fill-248" fill="#004555" mask="url(#mask-10)" points="155.492834 273.860336 155.492834 176.684721 293.889543 176.684721 293.889543 273.860336 298.308437 273.860336 298.308437 171.786828 150.339302 171.786828 150.339302 273.860336"></polygon>
                                <path d="M174.735711,157.388188 L155.043569,157.388188 C155.043569,155.673889 156.433186,154.283557 158.146604,154.283557 L174.735711,154.283557 L174.735711,157.388188 Z" id="Fill-249" fill="#603E6B" mask="url(#mask-10)"></path>
                                <polygon id="Fill-250" fill="#A338C6" mask="url(#mask-10)" points="137.866383 90.2396021 136.532823 90.2396021 117.157844 143.59173 175.371291 142.791773"></polygon>
                                <polygon id="Fill-251" fill="#603E6B" mask="url(#mask-10)" points="137.866383 90.2396021 119.468709 142.791773 175.99234 142.791773 192.523915 97.7093134"></polygon>
                                <path d="M155.46333,125.985661 L155.996607,123.050763 L161.772664,130.876912 L166.928409,150.794666 L166.928409,155.329479 L165.327841,155.86303 C165.327841,155.86303 164.616806,150.171083 163.283983,146.971255 C161.950423,143.76995 155.46333,125.985661 155.46333,125.985661" id="Fill-252" fill="#A338C6" mask="url(#mask-10)"></path>
                                <path d="M155.996386,123.051058 C155.996386,123.051058 168.394513,152.794855 165.32762,155.863325 L173.46101,155.863325 L162.394967,123.051058 L155.996386,123.051058 Z" id="Fill-253" fill="#3A0051" mask="url(#mask-10)"></path>
                                <polygon id="Fill-254" fill="#603E6B" mask="url(#mask-10)" points="100.868936 157.387893 152.973674 157.387893 152.973674 153.654513 100.868936 153.654513"></polygon>
                                <polygon id="Fill-255" fill="#004555" mask="url(#mask-10)" points="152.973674 173.589979 164.727887 173.589979 164.727887 165.829508 152.973674 165.829508"></polygon>
                                <polygon id="Fill-256" fill="#004555" mask="url(#mask-10)" points="192.523177 173.589979 215.524879 173.589979 215.524879 165.829508 192.523177 165.829508"></polygon>
                                <polygon id="Fill-257" fill="#004555" mask="url(#mask-10)" points="234.234553 173.589979 257.23773 173.589979 257.23773 165.829508 234.234553 165.829508"></polygon>
                                <polygon id="Fill-258" fill="#004555" mask="url(#mask-10)" points="279.085844 173.589979 295.337135 173.589979 295.337135 165.829508 279.085844 165.829508"></polygon>
                                <path d="M6.4193078,160.453928 L46.4836482,162.543116 C48.4603858,162.646431 50.2364993,163.642688 51.3554213,165.275811 C52.4743433,166.91041 52.7620028,168.927276 52.1453787,170.809832 L44.0643574,190.924624 L19.4938043,190.924624 L6.4193078,160.453928 Z M0.0568680851,157.971404 L15.9585418,196.291864 L49.6036482,196.208474 L58.2614638,172.818581 C59.5315915,168.950891 58.9075915,164.801297 56.5495206,161.468634 C54.2246411,158.183939 50.3899177,156.297693 46.3737475,156.08811 L3.67474043,153.859447 C1.42657021,153.742848 -0.343642553,155.754549 0.0568680851,157.971404 L0.0568680851,157.971404 Z" id="Fill-259" fill="#1E1E1E" mask="url(#mask-10)"></path>
                                <polygon id="Fill-260" fill="#1C0F00" mask="url(#mask-10)" points="83.9021844 166.486299 364.745702 166.486299 364.745702 156.307508 83.9021844 156.307508"></polygon>
                                <polygon id="Fill-261" fill="#00C9F7" mask="url(#mask-10)" points="83.9021844 159.036513 364.745702 159.036513 364.745702 155.740749 83.9021844 155.740749"></polygon>
                                <path d="M68.7015887,135.630385 C53.5544681,133.76554 50.0715745,136.853198 50.0715745,130.929529 C50.0715745,122.893797 61.4879716,100.197594 58.2742979,92.2031872 C57.8236312,91.0785241 55.4058156,87.8993583 52.7918014,90.2387166 C43.8714043,98.2220535 33.4020709,133.924203 40.3110638,143.561326 C44.4983546,149.401604 61.8368511,146.162663 74.869305,144.635807 C75.0160851,142.398289 77.6300993,138.574139 78.3654752,136.529968 C76.1770496,136.248802 71.8437163,136.01708 68.7015887,135.630385" id="Fill-262" fill="#F47A33" mask="url(#mask-10)"></path>
                            </g>
                        </g>
                    </g>
                </g>
            </g>
        </g>
    </g>
</svg>