<svg width="299" height="224" xmlns="http://www.w3.org/2000/svg" xmlns:xlink="http://www.w3.org/1999/xlink"><defs><path id="a" d="M0 0h299v224H0z"/><path id="d" d="M.447.225h11.03v25.9H.447z"/><path d="M11.015.575C4.543 3.95.433 8.97.433 14.58c0 5.991 4.68 11.311 11.926 14.67h36.283c7.243-3.359 11.925-8.679 11.925-14.67 0-5.609-4.109-10.63-10.582-14.004h-38.97z" id="f"/><path id="i" d="M0 275.262h415.456V.225H0z"/><linearGradient x1="23.917%" y1="68.65%" x2="84%" y2="28.94%" id="b"><stop stop-color="#EEE" offset="0%"/><stop stop-color="#D8D8D8" offset="100%"/></linearGradient><linearGradient x1="57.479%" y1="78.044%" x2="45.751%" y2="33.655%" id="g"><stop stop-color="#F20000" offset="0%"/><stop stop-color="#FFA52F" offset="100%"/></linearGradient></defs><g fill="none" fill-rule="evenodd"><mask id="c" fill="#fff"><use xlink:href="#a"/></mask><use fill="url(#b)" xlink:href="#a"/><g mask="url(#c)"><path d="M220.64 95.77c-1.327 1.39-3.738 2.271-6.466 2.172-2.73-.098-5.07-1.152-6.293-2.633 1.327-1.39 3.738-2.272 6.467-2.173 2.726.099 5.067 1.153 6.291 2.634M250.029 152.69c-1.815-12.439-2.652-25.008-2.442-37.55.052-6.272.396-12.536.892-18.782.476-6.249 1.236-12.47 2.105-18.671 1.772-12.399 4.28-24.68 7.384-36.8a346.731 346.731 0 015.17-18.037c1.892-5.962 3.914-11.875 6.248-17.695l.736.302c-2.243 5.8-4.192 11.737-6.003 17.7a343.124 343.124 0 00-4.926 18.038c-2.945 12.114-5.287 24.375-6.898 36.728-.786 6.178-1.465 12.37-1.86 18.583-.417 6.209-.68 12.43-.653 18.649-.055 12.438.93 24.865 2.875 37.118l-2.628.418z" fill="#7B54E2"/><g transform="translate(265.235 -20)"><mask id="e" fill="#fff"><use xlink:href="#d"/></mask><path d="M7.796.225C4.258 2.362 1.44 6.888.658 12.421c-.784 5.535.667 10.668 3.47 13.705 3.536-2.135 6.355-6.661 7.138-12.196.783-5.535-.667-10.668-3.47-13.705" fill="#7B54E2" mask="url(#e)"/></g><path d="M252.197-.7c-.434 3.203.937 7.138 3.917 10.324 2.981 3.187 6.81 4.813 10.028 4.588.432-3.202-.94-7.136-3.92-10.323-2.979-3.186-6.808-4.814-10.025-4.59M266.731 14.053c2.708 1.756 6.844 2.188 10.992.843 4.144-1.345 7.244-4.125 8.411-7.137-2.708-1.756-6.844-2.187-10.99-.843-4.147 1.345-7.245 4.124-8.413 7.137M262.69 27.783c2.708 1.757 6.844 2.188 10.99.844 4.147-1.347 7.246-4.125 8.413-7.138-2.708-1.756-6.844-2.187-10.99-.842-4.147 1.344-7.246 4.124-8.413 7.136M258.455 41.854c2.709 1.756 6.845 2.188 10.991.842 4.147-1.345 7.245-4.124 8.413-7.136-2.708-1.757-6.844-2.188-10.991-.843-4.146 1.345-7.245 4.124-8.413 7.137M255.616 54.958c2.708 1.755 6.844 2.186 10.99.842 4.147-1.346 7.246-4.125 8.413-7.138-2.708-1.755-6.845-2.187-10.99-.842-4.148 1.345-7.246 4.124-8.413 7.138M256.797 52.305c-2.708 1.755-6.844 2.187-10.991.842-4.146-1.345-7.245-4.124-8.413-7.137 2.708-1.756 6.846-2.187 10.992-.842 4.146 1.345 7.244 4.124 8.412 7.137M248.395 11.767c-.434 3.204.938 7.136 3.917 10.324 2.981 3.187 6.81 4.813 10.028 4.588.433-3.202-.939-7.136-3.918-10.323-2.98-3.187-6.81-4.814-10.027-4.589M244.04 25.93c-.433 3.204.938 7.138 3.917 10.325 2.981 3.186 6.81 4.813 10.029 4.588.431-3.202-.94-7.137-3.919-10.323-2.98-3.188-6.81-4.814-10.027-4.59M329.868 37.975c-5.423 2.995-10.506 6.528-15.438 10.255-4.925 3.74-9.625 7.775-14.123 12.023a183.498 183.498 0 00-12.823 13.428 182.877 182.877 0 00-11.338 14.724c-7.071 10.196-12.964 21.202-17.708 32.69a181.157 181.157 0 00-10.247 35.815l2.624.44a178.703 178.703 0 019.563-35.479c4.51-11.417 10.17-22.398 17.02-32.611a181.335 181.335 0 0111.024-14.784c3.949-4.718 8.13-9.243 12.537-13.54 4.41-4.295 9.026-8.384 13.872-12.184 4.85-3.787 9.874-7.394 15.209-10.45l-.172-.327z" fill="#7B54E2"/><path d="M301.013 29.605c3.68 1.878 6.81 6.192 7.986 11.657 1.175 5.465.092 10.688-2.489 13.917-3.679-1.878-6.81-6.191-7.986-11.656-1.174-5.466-.091-10.689 2.49-13.918M288.78 40.885c3.678 1.878 6.81 6.191 7.985 11.655 1.175 5.467.092 10.69-2.49 13.918-3.678-1.878-6.81-6.191-7.985-11.656-1.174-5.466-.091-10.688 2.49-13.917M274.694 52.477c4.038.872 8.165 4.239 10.697 9.22 2.531 4.983 2.817 10.309 1.147 14.093-4.036-.873-8.165-4.24-10.697-9.222-2.53-4.982-2.818-10.308-1.147-14.091M264.776 66.99c3.684-.157 8.01 1.821 11.317 5.555 3.309 3.735 4.753 8.274 4.16 11.92-3.684.158-8.01-1.82-11.317-5.554-3.308-3.735-4.753-8.274-4.16-11.921M257.58 76.115c3.683-.156 8.01 1.821 11.317 5.555 3.306 3.735 4.752 8.274 4.158 11.92-3.684.158-8.01-1.82-11.316-5.554-3.308-3.735-4.753-8.273-4.16-11.92M253.469 89.574c3.157-.135 6.865 1.56 9.7 4.761 2.836 3.202 4.074 7.092 3.566 10.219-3.157.133-6.866-1.562-9.7-4.763-2.836-3.2-4.074-7.09-3.566-10.217M249.48 103.608c2.3-1.3 5.715-1.455 9.063-.16 3.35 1.294 5.778 3.706 6.608 6.217-2.298 1.3-5.713 1.455-9.062.16-3.35-1.294-5.777-3.706-6.609-6.217M247.87 115.177c1.413-1.577 3.968-2.57 6.84-2.445 2.874.125 5.334 1.335 6.604 3.028-1.413 1.578-3.967 2.57-6.84 2.445-2.873-.125-5.332-1.334-6.604-3.028M319.283 75.22c-3.511 2.178-8.814 2.625-14.088.798-5.273-1.828-9.168-5.463-10.584-9.35 3.51-2.178 8.815-2.624 14.087-.797 5.272 1.828 9.169 5.463 10.585 9.349" fill="#7B54E2"/><path d="M305.885 82.752c-2.856 1.772-7.17 2.135-11.458.65-4.289-1.488-7.457-4.445-8.61-7.605 2.855-1.77 7.17-2.135 11.459-.648 4.288 1.486 7.457 4.443 8.609 7.603M295.85 89.947c-2.334 1.512-5.837 1.86-9.302.66-3.464-1.202-6.004-3.645-6.908-6.279 2.335-1.512 5.84-1.86 9.303-.659 3.464 1.2 6.005 3.644 6.908 6.278M289.857 99.197c-2.335 1.511-5.839 1.86-9.303.659-3.464-1.201-6.005-3.644-6.907-6.277 2.334-1.512 5.839-1.86 9.302-.66 3.464 1.2 6.004 3.644 6.908 6.278M283.286 107.569c-1.891 1.614-5.06 2.393-8.46 1.84-3.402-.552-6.164-2.294-7.45-4.423 1.89-1.615 5.061-2.393 8.462-1.841 3.4.551 6.163 2.294 7.448 4.424M276.937 118.113c-2.13.606-4.964.058-7.47-1.656-2.505-1.715-4.046-4.16-4.257-6.368 2.13-.608 4.963-.059 7.47 1.655 2.505 1.715 4.046 4.158 4.257 6.369M269.866 124.406c-1.688.153-3.74-.662-5.38-2.307-1.64-1.645-2.452-3.702-2.297-5.392 1.688-.154 3.739.662 5.379 2.306 1.64 1.646 2.451 3.702 2.298 5.393M265.173 126.055c-1.107.17-2.413-.275-3.417-1.281-1.003-1.007-1.447-2.316-1.276-3.427 1.11-.17 2.415.276 3.42 1.282 1.002 1.006 1.446 2.316 1.273 3.426M263.662 129.168c-1.109.17-2.414-.277-3.418-1.283-1.003-1.006-1.447-2.314-1.275-3.425 1.11-.17 2.414.276 3.418 1.282 1.002 1.006 1.447 2.315 1.275 3.426" fill="#7B54E2"/><path d="M209.276 27.54c3.87 4.25 7.284 8.873 10.508 13.62 3.211 4.756 6.139 9.704 8.827 14.778a170.839 170.839 0 017.267 15.626 169.345 169.345 0 015.578 16.32c3.179 11.068 5.079 22.496 5.827 34.004a167.948 167.948 0 01-1.656 34.52l-2.433-.398a165.908 165.908 0 002.155-34.02c-.565-11.374-2.267-22.711-5.247-33.729a168.208 168.208 0 00-5.285-16.278 169.548 169.548 0 00-6.981-15.64c-2.596-5.089-5.434-10.06-8.56-14.846-3.134-4.773-6.474-9.443-10.252-13.721l.252-.237z" fill="#B098EE"/><path d="M195.864 9.27c-.973 3.712.074 8.547 3.124 12.736 3.05 4.189 7.327 6.663 11.152 6.865.973-3.71-.072-8.546-3.123-12.735-3.05-4.188-7.328-6.663-11.153-6.866M223.893 15.377c-3.507 1.542-6.638 5.368-8.019 10.365-1.379 4.998-.655 9.893 1.562 13.021 3.507-1.541 6.638-5.368 8.019-10.365 1.379-4.998.656-9.893-1.562-13.021M237.109 28.808c-3.79.552-7.825 3.404-10.483 7.854-2.657 4.448-3.261 9.36-1.954 12.967 3.79-.55 7.824-3.403 10.483-7.853 2.657-4.449 3.26-9.36 1.954-12.968M244.499 42.37c-3.79.55-7.824 3.404-10.482 7.854-2.657 4.448-3.262 9.36-1.955 12.966 3.79-.55 7.824-3.402 10.483-7.851 2.657-4.45 3.26-9.361 1.954-12.969M253.42 56.76c-3.803-.439-8.432 1.284-12.138 4.904-3.705 3.62-5.541 8.213-5.2 12.035 3.804.44 8.433-1.284 12.138-4.904 3.706-3.619 5.543-8.213 5.2-12.035M257.815 72.472c-3.189-1.24-7.577-.794-11.594 1.497-4.016 2.293-6.636 5.847-7.2 9.228 3.189 1.239 7.578.794 11.593-1.498 4.017-2.292 6.636-5.848 7.2-9.227M261.422 82.636c-3.19-1.238-7.578-.792-11.595 1.5-4.015 2.292-6.635 5.847-7.2 9.226 3.19 1.239 7.579.794 11.594-1.498 4.017-2.292 6.637-5.847 7.2-9.228M261.027 95.686c-2.733-1.062-6.495-.68-9.937 1.284-3.442 1.965-5.688 5.012-6.172 7.91 2.733 1.062 6.495.68 9.937-1.285 3.443-1.964 5.689-5.012 6.172-7.91M260.355 109.205c-1.633-1.83-4.587-2.985-7.913-2.849-3.327.136-6.177 1.529-7.654 3.486 1.632 1.83 4.586 2.986 7.912 2.85 3.327-.138 6.178-1.53 7.655-3.487M258.328 119.848c-.773-1.808-2.721-3.442-5.282-4.192-2.561-.748-5.08-.42-6.702.687.771 1.807 2.72 3.442 5.282 4.191 2.56.748 5.081.421 6.702-.686" fill="#B098EE"/><path d="M193.382 38.531c2.436 2.962 6.962 4.939 12.138 4.91 5.173-.03 9.677-2.06 12.079-5.05-2.436-2.961-6.963-4.94-12.137-4.91-5.176.03-9.678 2.06-12.08 5.05M200.431 49.924c2.436 2.963 6.961 4.94 12.137 4.909 5.175-.03 9.679-2.06 12.08-5.049-2.436-2.963-6.962-4.939-12.137-4.91-5.175.03-9.678 2.06-12.08 5.05M207.49 63.417c2.435 2.96 6.962 4.939 12.137 4.908 5.174-.03 9.678-2.059 12.08-5.049-2.436-2.962-6.963-4.94-12.138-4.91-5.175.031-9.678 2.06-12.08 5.05M217.018 74.035c1.98 2.41 5.662 4.017 9.87 3.993 4.21-.024 7.872-1.675 9.825-4.106-1.981-2.41-5.662-4.018-9.872-3.994-4.209.025-7.871 1.675-9.823 4.107M223.69 83.351c1.6 2.025 4.575 3.379 7.975 3.359 3.4-.02 6.358-1.407 7.935-3.451-1.6-2.025-4.575-3.378-7.975-3.358-3.4.019-6.358 1.407-7.935 3.45M226.204 93.267c1.6 2.025 4.573 3.378 7.973 3.359 3.4-.02 6.358-1.407 7.936-3.45-1.601-2.026-4.576-3.38-7.974-3.36-3.402.02-6.36 1.408-7.935 3.45M229.482 102.583c1.181 1.984 3.734 3.616 6.885 4.146 3.15.53 6.096-.174 7.86-1.661-1.182-1.982-3.734-3.614-6.885-4.145-3.15-.531-6.096.174-7.86 1.66M231.922 113.74c1.691 1.17 4.343 1.536 7.054.78 2.711-.758 4.791-2.445 5.634-4.323-1.69-1.17-4.342-1.535-7.052-.778-2.712.758-4.792 2.444-5.636 4.322M236.261 121.383c1.437.638 3.481.535 5.412-.42 1.93-.955 3.255-2.519 3.621-4.05-1.435-.638-3.48-.536-5.41.42-1.93.955-3.255 2.519-3.623 4.05M239.891 124.233c.923.48 2.203.478 3.384-.106 1.18-.584 1.96-1.601 2.14-2.628-.923-.481-2.203-.48-3.384.105-1.18.584-1.96 1.601-2.14 2.629M240.294 127.418c.923.481 2.202.478 3.383-.105 1.18-.584 1.96-1.601 2.14-2.628-.923-.48-2.203-.48-3.384.105-1.18.584-1.96 1.601-2.14 2.628" fill="#B098EE"/><path d="M291.334 14.913c-3.947 4.781-7.38 9.937-10.603 15.218-3.209 5.29-6.103 10.773-8.733 16.379a184.14 184.14 0 00-7.007 17.206 182.448 182.448 0 00-5.152 17.87c-2.844 12.081-4.292 24.489-4.496 36.92a181.116 181.116 0 003.587 37.083l2.604-.557a178.683 178.683 0 01-4.103-36.518c.013-12.28 1.253-24.576 3.885-36.596a181.78 181.78 0 014.839-17.806 183.65 183.65 0 016.7-17.208c2.529-5.616 5.325-11.117 8.44-16.436 3.126-5.305 6.478-10.508 10.321-15.314l-.282-.24z" fill="#5D3FAA"/><path d="M304.818-5.463c1.243 3.944.369 9.207-2.696 13.877-3.066 4.672-7.541 7.56-11.65 7.979-1.241-3.946-.368-9.207 2.698-13.878 3.065-4.671 7.542-7.56 11.648-7.978M274.957 2.584c3.856 1.476 7.43 5.432 9.176 10.74 1.747 5.31 1.224 10.618-1 14.105-3.857-1.477-7.428-5.433-9.176-10.742-1.747-5.31-1.224-10.617 1-14.103M261.43 17.742c4.11.394 8.602 3.254 11.697 7.905 3.094 4.651 4.002 9.908 2.784 13.86-4.11-.393-8.604-3.253-11.7-7.904-3.094-4.651-4-9.908-2.782-13.86M254.18 32.733c4.11.394 8.604 3.254 11.7 7.905 3.094 4.653 4.001 9.909 2.782 13.862-4.11-.394-8.602-3.255-11.699-7.905-3.094-4.651-4-9.908-2.782-13.862M245.327 48.697c4.072-.672 9.147.94 13.326 4.643 4.18 3.703 6.398 8.552 6.231 12.686-4.075.673-9.148-.94-13.328-4.642-4.18-3.705-6.398-8.553-6.23-12.687M241.417 65.846c3.369-1.501 8.118-1.253 12.561 1.004 4.445 2.257 7.452 5.947 8.237 9.558-3.369 1.501-8.117 1.252-12.561-1.005-4.445-2.256-7.453-5.946-8.237-9.557M238.065 76.982c3.37-1.501 8.118-1.253 12.563 1.003 4.443 2.258 7.45 5.948 8.235 9.558-3.368 1.502-8.117 1.253-12.561-1.004-4.445-2.256-7.453-5.946-8.237-9.557M239.173 91.013c2.887-1.286 6.958-1.073 10.766.86 3.81 1.935 6.388 5.099 7.061 8.193-2.888 1.286-6.959 1.073-10.768-.86-3.81-1.935-6.387-5.1-7.059-8.193M240.605 105.534c1.66-2.056 4.781-3.455 8.371-3.483 3.589-.028 6.73 1.322 8.423 3.352-1.66 2.055-4.781 3.456-8.37 3.484-3.59.028-6.733-1.324-8.424-3.353M243.344 116.888c.736-1.987 2.75-3.85 5.467-4.79 2.719-.942 5.45-.72 7.253.386-.736 1.988-2.749 3.85-5.467 4.79-2.719.941-5.45.721-7.253-.386" fill="#5D3FAA"/><path d="M309.022 25.914c-2.467 3.317-7.237 5.685-12.812 5.924-5.574.24-10.529-1.71-13.271-4.802 2.468-3.319 7.238-5.685 12.811-5.924 5.575-.24 10.53 1.71 13.272 4.802M302.028 38.553c-2.467 3.317-7.238 5.683-12.813 5.924-5.573.24-10.53-1.71-13.27-4.802 2.468-3.319 7.239-5.685 12.812-5.925 5.574-.239 10.529 1.71 13.27 4.803M295.133 53.452c-2.467 3.317-7.237 5.684-12.811 5.924-5.574.24-10.53-1.71-13.272-4.803 2.468-3.318 7.24-5.685 12.812-5.924 5.574-.24 10.529 1.71 13.27 4.803M285.43 65.386c-2.007 2.698-5.887 4.625-10.42 4.818-4.534.195-8.565-1.39-10.794-3.906 2.005-2.698 5.887-4.622 10.42-4.818 4.533-.195 8.565 1.39 10.793 3.906M278.732 75.77c-1.616 2.264-4.748 3.877-8.412 4.034-3.66.157-6.92-1.18-8.725-3.298 1.618-2.265 4.75-3.878 8.412-4.035 3.662-.158 6.92 1.18 8.725 3.298M276.545 86.578c-1.616 2.265-4.75 3.878-8.412 4.035-3.66.158-6.92-1.18-8.724-3.298 1.617-2.264 4.749-3.877 8.411-4.035 3.662-.158 6.92 1.18 8.725 3.298M273.5 96.783c-1.167 2.197-3.83 4.087-7.196 4.824-3.365.738-6.573.134-8.549-1.375 1.168-2.197 3.831-4.087 7.196-4.824 3.365-.738 6.572-.133 8.55 1.375M271.457 108.925c-1.76 1.35-4.595 1.882-7.554 1.209-2.96-.674-5.287-2.381-6.294-4.36 1.76-1.347 4.594-1.88 7.554-1.206 2.96.673 5.288 2.379 6.294 4.357M267.185 117.382c-1.514.762-3.721.76-5.85-.169-2.127-.926-3.636-2.541-4.111-4.171 1.514-.762 3.72-.76 5.848.168 2.13.927 3.636 2.542 4.113 4.172M263.426 120.641c-.97.567-2.349.631-3.65.065-1.3-.568-2.194-1.62-2.442-2.718.97-.567 2.348-.631 3.65-.065 1.3.567 2.194 1.622 2.442 2.718M263.16 124.093c-.97.566-2.349.63-3.65.065-1.3-.568-2.195-1.622-2.442-2.718.97-.567 2.347-.632 3.65-.065 1.3.567 2.193 1.622 2.441 2.718" fill="#5D3FAA"/><path d="M233.983 114.562c-5.83-8.559-11.972-16.92-18.524-24.948l.107-.091c6.72 7.9 13.034 16.14 19.048 24.599 5.999 8.468 11.662 17.193 16.752 26.264 1.227 2.2 2.424 4.422 3.578 6.666a90.75 90.75 0 00-1.352.77 221.397 221.397 0 00-3.454-6.76c-4.877-9.12-10.343-17.929-16.155-26.5" fill="#7B54E2"/><path d="M209.023 78.698c2.15.199 4.38 1.634 5.788 3.979 1.406 2.344 1.623 4.992.788 6.988-2.15-.199-4.381-1.634-5.787-3.979-1.406-2.344-1.624-4.994-.789-6.988M225.01 83.697c.876 1.711.922 4.283-.063 6.834-.983 2.551-2.742 4.425-4.538 5.1-.878-1.71-.923-4.282.062-6.834.984-2.551 2.742-4.424 4.54-5.1M225.55 102.529c-1.46 1.247-3.946 1.882-6.65 1.508-2.705-.373-4.929-1.658-5.998-3.255 1.46-1.25 3.947-1.883 6.652-1.51 2.704.374 4.928 1.658 5.996 3.257M232.002 110.872c-1.46 1.248-3.948 1.882-6.652 1.51-2.704-.374-4.928-1.658-5.996-3.256 1.46-1.249 3.946-1.882 6.65-1.509 2.705.373 4.929 1.658 5.998 3.255M236.382 117.519c-1.459 1.247-3.946 1.882-6.65 1.508-2.705-.373-4.929-1.657-5.997-3.255 1.46-1.249 3.947-1.883 6.651-1.509 2.705.373 4.928 1.658 5.996 3.256M241.241 124.855c-1.46 1.248-3.948 1.883-6.652 1.509-2.704-.374-4.927-1.658-5.996-3.255 1.46-1.249 3.947-1.883 6.651-1.51 2.704.374 4.928 1.659 5.997 3.256M230.625 90.856c.877 1.71.922 4.283-.062 6.834-.984 2.551-2.743 4.424-4.54 5.1-.876-1.711-.92-4.283.063-6.834.984-2.552 2.742-4.425 4.54-5.1" fill="#7B54E2"/><path d="M235.993 98.224c.876 1.711.92 4.283-.063 6.834-.983 2.551-2.742 4.425-4.539 5.1-.878-1.711-.922-4.283.062-6.834.984-2.551 2.743-4.425 4.54-5.1M241.1 105.652c.876 1.712.921 4.283-.063 6.835-.984 2.55-2.742 4.424-4.539 5.099-.877-1.71-.922-4.282.062-6.834.985-2.551 2.742-4.424 4.54-5.1M246.049 112.93c.877 1.71.922 4.283-.062 6.834-.984 2.55-2.743 4.424-4.54 5.1-.876-1.711-.921-4.284.063-6.835.983-2.55 2.742-4.423 4.539-5.1" fill="#7B54E2"/><g transform="translate(222 141)"><mask id="h" fill="#fff"><use xlink:href="#f"/></mask><path d="M11.015.575C4.543 3.95.433 8.97.433 14.58c0 5.991 4.68 11.311 11.926 14.67h36.283c7.243-3.359 11.925-8.679 11.925-14.67 0-5.609-4.109-10.63-10.582-14.004h-38.97z" fill="url(#g)" mask="url(#h)"/></g><g transform="translate(12 -20)"><path d="M224.208 165.274c-3.855-.45-9.02 2.457-10.356 8.305-1.818 11.538 9.731 14.926 16.033 11.997-5.492-1.378-11.498-3.899-11.675-9.58-.303-2.972 1.46-5.838 1.49-5.925.246-.35.738-1.216 1.656-2.22.811-.97 1.798-1.788 2.852-2.577" fill="#F8E74A"/><mask id="j" fill="#fff"><use xlink:href="#i"/></mask><path fill="#1179C5" mask="url(#j)" d="M218.705 163.202h43.203v-2.715h-43.203z"/><path fill="#4C505E" mask="url(#j)" d="M43.832 250.767h5.772v-36.966h-5.772z"/><path d="M61.591 194.372v4.427c0 2.966-2.762 5.37-6.168 5.37h-.687v4.993c0 1.249-1.163 2.26-2.597 2.26H41.965c-1.435 0-2.598-1.011-2.598-2.26v-5.237c-2.51-.68-4.33-2.718-4.33-5.126v-4.427h26.554zM42.863 220.145h7.452v-8.722h-7.452z" fill="#303030" mask="url(#j)"/><path d="M17.725 102.962v73.23h40.55l-3.61-74.046c-.288-6.098-3.829-10.885-8.203-11.283-.188-.01-.383-.021-.577-.021H26.53c-4.858 0-8.805 5.422-8.805 12.12" fill="#0089A9" mask="url(#j)"/><path d="M34.198 92.424c.195 0 .39.01.577.021 4.375.397 7.916 5.185 8.204 11.282l3.533 72.465h11.763l-3.61-74.046c-.288-6.098-3.829-10.885-8.203-11.282-.188-.01-.383-.022-.577-.022H26.53c-1.58 0-3.066.575-4.35 1.582h12.018z" fill="#75E0F9" mask="url(#j)"/><path d="M23.18 90.839h6.66c-6.69 0-12.114 5.427-12.114 12.12v73.238h-6.66V102.96c0-6.694 5.423-12.121 12.114-12.121" fill="#004555" mask="url(#j)"/><path d="M65.803 61.452l.055.056-.055-.056" fill="#31003D" mask="url(#j)"/><path d="M38 65.883a.48.48 0 01-.473-.562c6.203-35.395 37.573-34.99 37.88-34.993a.48.48 0 01.467.491c-.008.265-.225.49-.492.468-.314.007-30.852-.371-36.91 34.199a.48.48 0 01-.471.397" fill="#3C4875" mask="url(#j)"/><path fill="#DD7C82" mask="url(#j)" d="M196.708 274.785h66.934v-84.803h-66.934z"/><path fill="#903B41" mask="url(#j)" d="M263.642 274.785h12.932v-84.803h-12.932zM206.124 215.003h54.392v-21.18l-1.46 20.218zM204.998 241.812h54.393V220.63l-1.46 20.22zM235.633 199.335c0 1.042-2.006 1.886-4.48 1.886-2.474 0-4.479-.844-4.479-1.886 0-1.041 2.005-1.886 4.48-1.886 2.473 0 4.479.845 4.479 1.886"/><path d="M237.08 230.367c0 1.114-2.253 2.016-5.03 2.016-2.776 0-5.027-.902-5.027-2.016 0-1.114 2.251-2.016 5.027-2.016 2.777 0 5.03.902 5.03 2.016" fill="#903B41" mask="url(#j)"/><path fill="#A65E62" mask="url(#j)" d="M196.708 194.536h66.934v-4.554h-66.934z"/><path fill="#360442" mask="url(#j)" d="M263.684 194.536h12.891v-4.554h-12.89z"/><path d="M101.7 187.917l5.77-17.592a12.663 12.663 0 00-1.596-11.184 12.645 12.645 0 00-9.846-5.524l-47.546-2.48-.335 6.432 47.545 2.48a6.261 6.261 0 014.872 2.732 6.267 6.267 0 01.79 5.534l-5.772 17.594 6.117 2.008z" fill="#1E1E1E" mask="url(#j)"/><path d="M19.65 196.209h73.402c0-7.333-5.94-13.276-13.268-13.276H32.915c-7.325 0-13.266 5.943-13.266 13.276" fill="#004555" mask="url(#j)"/><path d="M34.892 196.209h73.405c0-7.333-5.94-13.276-13.269-13.276H48.16c-7.327 0-13.268 5.943-13.268 13.276" fill="#0089A9" mask="url(#j)"/><path d="M106.69 145.189l-6.665-2.944c-2.601-1.298-5.458-1.411-6.894-1.65h-.001c-1.566-.258-3.512-.55-5.964-.902.113 2.208.385 4.417 1.032 6.625.583-.076 1.157-.15 1.718-.216 2.882-.337 9.287.13 11.278 3.06 1.991 2.93 1.97 4.938 2.6 4.735.634-.203.045-3.323-.92-4.84-.967-1.519-1.516-2.814-1.516-2.814s2.581 2.993 2.974 4.609c.393 1.615 1.222 3.265 1.616 3.138.396-.127-.468-2.988-.805-4.706a11.335 11.335 0 00-1.028-3.035l1.934.933s2.777 4.242 3.036 3.22c.26-1.022-2.395-5.213-2.395-5.213" fill="#FD5E5A" mask="url(#j)"/><path d="M82.598 138.267c-13.188-1.864-16.407.323-16.407-5.6 0-8.036 8.896-27.117 4.873-32.47-.657-.873-5.723-4.39-8-2.051-7.767 7.982-11.387 37.516-5.372 47.153 3.69 5.912 19.114 2.52 30.506 1.019-.647-2.208.112-5.841 0-8.05-1.41-.204-3.828.251-5.6 0" fill="#B54300" mask="url(#j)"/><path d="M88.932 140.508l7.656 2.943s3.05 4.19 2.75 5.214c-.298 1.022-3.485-3.222-3.485-3.222l-4.63-1.94-2.291-2.995zM84.74 141.918s3.613 3.833 3.613 4.65c0 .818.32 2.76 1.036 2.76.714 0 .732-3.379.732-4.423 0-1.045-1.805-3.958-2.111-3.958-.308 0-3.27.97-3.27.97" fill="#D80000" mask="url(#j)"/><path d="M97.998 248.535c-.687.661-3.83-.755-3.83 1.984 0 .922 1.894 1.05 2.308 4.23.279 2.138-1.11 7.17-.442 9.07 1.288 3.67 4.128 5.44 4.128 5.44 0-2.238-1.082-3.432-1.082-5.795 0-2.362 7.42-10.205 8.065-17.955.04-.478.188-1.11.429-1.876-2.201-1.362-4.4-2.68-6.239-4.245-1.856 5.344-3.163 8.98-3.337 9.147" fill="#FD5E5A" mask="url(#j)"/><path d="M125.769 183.552c-3.97-10.781-56.58-22.155-56.58-22.155l-6.277 2.225-5.625 7.515 52.5 16.954s-5.413 36.024-11.6 54.308c2.064 1.804 5.593 1.181 8.063 2.751 4.11-13.425 21.73-55.593 19.519-61.598" fill="#6D175B" mask="url(#j)"/><path d="M112.275 239.68c-2.613.158-5.235.384-7.871.698.745 5.204 1.095 9.373.454 10.504a56.515 56.515 0 01-1.585 2.582c-1.508 2.353-2.866 4.41-2.356 5.418.31.612 3.634-.04 4.856 2.935 1.502 3.66.915 11.003.915 11.003l11.243 1.84s1.557-.703-.746-2.977-4.198-3.01-4.944-5.484c-.746-2.476-.068-15.117-.068-23.21 0-.831.038-1.955.102-3.31" fill="#FC7575" mask="url(#j)"/><path d="M103.102 175.471L62.747 166.4l-27.128 4.247s-3.53 11.434 2.518 16.02c2.385 1.809 53.486 4.649 53.486 4.649s7.801 37.66 9.582 50.119c3.22-.383 8.429-1.289 11.62-1.481.59-12.642-6.624-63.594-9.723-64.483" fill="#7F71A4" mask="url(#j)"/><path d="M70.034 88.252c2.236.39 7.482 9.405 8.698 12.556.242.63 3.7 12.218.431 16.107-3.27 3.89-7.915 15.027-10.462 20.362-1.203 2.525-8.638 13.023.762 18.687 2.362 1.424 6.333.926 5.107 2.964-1.225 2.036-27.686 17.315-38.618 14.26-10.932-3.056-2.145-6.76-1.123-9.539 1.02-2.777-4.598-3.426-2.249-6.573 2.35-3.149 11.085-10.834 16.041-27.763.487-1.667 1.75-33.268 3.612-38.263 1.247-3.346 12.783-3.674 17.801-2.798" fill="#F15900" mask="url(#j)"/><path d="M83.898 52.854c-.93.378-7.145-3.065-14.976.833-7.643 3.803-10.256 16.905-10.846 23.606-.208 2.38.265 4.112.265 4.112s3.231.134 6.28 1.422c3.048 1.288 7.707 3.66 11.253 4.432 3.617.786 12.735-17.809 12.35-23.789-.382-5.98-4.326-10.616-4.326-10.616" fill="#2E0A29" mask="url(#j)"/><path d="M83.898 52.854s6.27 3.163 6.303 8.594c.029 5.434-7.33 19.875-3.271 22.04 0 0-2.37.481-3.967-.193 0 0-1.768 1.47-.256 5.198 0 0-3.587-.012-6.833-1.234-.225-.084-2.859-.315-2.317-2.413.639-2.484 4.534-7.049 5.158-9.45 2.64-10.172 5.183-22.542 5.183-22.542" fill="#450F3D" mask="url(#j)"/><path d="M83.705 53.78c.705.258 1.332.58 1.844.951 0 0 5.303 5.013 3.843 9.758-1.46 4.745-2.782 6.303-3.405 9.495-.982 5.016-7.268 12.664-12.358 10.613.818-2.528 4.483-6.878 5.085-9.201 2.209-8.51 4.351-18.56 4.991-21.616" fill="#340B2E" mask="url(#j)"/><path d="M69.338 76.992l-5.653 10.886s4.424 15.512 12.692 13.89c.143-.028-2.713-2.734-3.247-7.086-.42-3.428 1.175-7.778 2.875-13.316.838-2.735-6.667-4.374-6.667-4.374" fill="#FC7575" mask="url(#j)"/><path d="M69.338 76.992l-3.43 6.61c4.126 2.838 8.951.478 9.476-.244.874-2.18.157-1.102.62-1.992 1.319-2.538-6.666-4.374-6.666-4.374" fill="#FD5E5A" mask="url(#j)"/><path d="M84.93 54.462s5 4.766 3.596 9.306c-1.402 4.542-2.66 6.035-3.266 9.088-.604 3.053-4.733 10.266-9.966 10.507-5.234.24-8.425-9.451-8.217-13.185.208-3.734 1.64-8.648 4.746-13.439 3.106-4.792 10.142-4.443 13.106-2.277" fill="#FC7575" mask="url(#j)"/><path d="M68.432 76.654c-.958-2.43-1.44-4.95-1.355-6.476.208-3.734 1.64-8.648 4.747-13.44 3.106-4.791 10.141-4.442 13.105-2.276 0 0 5.001 4.766 3.597 9.307a40.969 40.969 0 01-1.342 3.71l-5.531-2.302s2.14-4.628 1.48-6.255l-2.34 5.65-3.851-1.42s-.456-3.047.451-5.196c0 0-1.28 3.005-1.12 4.957 0 0-2.608-1.168-3.282.429-.55 1.305-3.682 9.619-4.273 11.908-.126.484-.22.953-.286 1.404" fill="#FD5E5A" mask="url(#j)"/><path d="M90.074 59.503c-.528-2.973-3.353-5.415-6.178-6.651-3.82-3.564-12.483-5.272-20.466 2.295-4.595 4.356-12.631 22.64-10.977 22.556.166-.008 5.888 3.702 5.888 3.702l.116-3.133c.331.817 1.661 1.57 3.349 2.224-.61-4.018 1.183-6.68 1.183-6.68-.762 3.188-.169 5.626.693 7.326 3.606 1.121 7.728 1.817 7.728 1.817-.014-.074-3.202-6.108-2.085-10.424.593-2.288 2.653-8.06 3.204-9.365.676-1.597 3.492-.878 3.492-.878-.16-1.95 2.03-5.518 2.03-5.518-.906 2.148-.94 5.977-.94 5.977l3.738 1.58 2.757-6.534c.661 1.626-1.198 7.194-1.198 7.194l5.328 2.073s3.16-2.935 2.338-7.561" fill="#464A7F" mask="url(#j)"/><path d="M83.743 53.22c-6.604-2.907-11.94-3.185-16.712 2.278-4.612 5.24-11.648 17.177-11.833 24.16l3.143 1.747c-.192-5.692 4.685-18.505 8.02-23.163 4.172-5.837 7.76-8.57 17.382-5.023" fill="#3B4999" mask="url(#j)"/><path d="M84.777 54.013c2.04 1.553 4.14 3.668 4.35 6.214.2 2.351-1.108 4.49-2.343 6.468l-.568-.222c2.79-4.109 4.677-7.45-1.44-12.46" fill="#363A68" mask="url(#j)"/><path d="M84.467 54.09c3.984 3.815 2.415 7.422-.456 11.525l-.562-.22c3.172-3.894 4.894-7.378 1.018-11.305M83.688 53.552c-2.888 3.091-3.698 6.216-4.164 10.22l-.538-.228c.693-3.924 1.729-7.088 4.702-9.992" fill="#363A68" mask="url(#j)"/><path d="M79.601 74.757c-.4-1.194.146-3.146.737-4.289-.172 1.225-.601 3.379-.29 4.313l.065.196c-.072.01-1.17.556-2.126.116.325.02 1.107-.106 1.614-.336" fill="#450F3D" mask="url(#j)"/><path d="M80.05 66.229s-.292-.732-1.232-1.342c-.939-.611-3.573-.25-3.573-.25s2.4.246 2.999.498c.598.252 1.33 1.203 1.33 1.203l.476-.109zM82.78 67.525s.594-.326 1.566-.246c.971.08 2.578 1.652 2.578 1.652s-1.774-1.059-2.32-1.199c-.545-.14-1.558.106-1.558.106l-.267-.313z" fill="#5C1451" mask="url(#j)"/><path d="M77.816 68.821c-.147.391-.503.62-.796.51-.294-.108-.413-.515-.266-.907.146-.392.502-.62.796-.51.293.109.412.515.266.907M84.312 71.298c-.145.39-.502.62-.796.51-.292-.109-.412-.516-.265-.907.146-.392.501-.621.795-.511.293.109.413.516.266.908" fill="#464A7F" mask="url(#j)"/><path d="M74.716 79.115c.378.388.802.746 1.356.847-.53.118-1.174-.335-1.356-.847" fill="#2E0A29" mask="url(#j)"/><path d="M74.628 74.808c1.833 1.916 5.141 3.327 5.141 3.327s-.425.358-1.037.679c-.948-.459-2.774-1.426-4.105-2.64-.064-.765.001-1.366.001-1.366" fill="#FFF" mask="url(#j)"/><path d="M74.627 76.174c1.331 1.214 3.157 2.181 4.105 2.64-2.376 1.228-3.866.067-4.105-2.64M79.093 69.066c-.292-.75-1.33-1.39-2.049-1.513-1.032-.173-1.87.41-2.515.303.817.56 1.504-.334 3.536.553.359.18.722.364 1.028.657M81.876 70.482c.681-.427 1.895-.32 2.547.01.93.477 1.258 1.444 1.838 1.744-.99-.038-1.008-1.165-3.17-1.667-.393-.07-.795-.139-1.215-.087" fill="#2E0A29" mask="url(#j)"/><path d="M75.74 72.013c-.273.734-1.457.97-2.642.529-1.184-.443-1.923-1.397-1.65-2.131.275-.734 1.457-.97 2.643-.528 1.184.442 1.923 1.396 1.65 2.13M84.437 75.343c-.207.558-1.015.772-1.802.477-.789-.294-1.258-.984-1.05-1.542.207-.557 1.015-.77 1.802-.476.788.294 1.258.984 1.05 1.541" fill="#FD5E5A" mask="url(#j)"/><path d="M94.812 147.547c-1.852-8.235-10.702-8.243-13.798-8.688-1.237-.18-2.692-.373-4.386-.591-.735 2.044-1.612 4.13-1.758 6.368.836-.099 1.655-.19 2.45-.271 3.312-.337 10.668.129 12.956 3.058 2.285 2.93 2.262 4.94 2.987 4.737.726-.203.05-3.323-1.06-4.841-1.11-1.518-1.74-2.813-1.74-2.813s2.965 2.993 3.417 4.608c.452 1.615 1.4 3.265 1.856 3.137.454-.126-.538-2.986-.924-4.704" fill="#FC7575" mask="url(#j)"/><path fill="#004555" mask="url(#j)" d="M155.493 273.86v-97.175H293.89v97.175h4.418V171.787H150.34V273.86z"/><path d="M174.736 157.388h-19.692a3.104 3.104 0 013.103-3.104h16.589v3.104z" fill="#603E6B" mask="url(#j)"/><path fill="#A338C6" mask="url(#j)" d="M137.866 90.24h-1.333l-19.375 53.352 58.213-.8z"/><path fill="#603E6B" mask="url(#j)" d="M137.866 90.24l-18.397 52.552h56.523l16.532-45.083z"/><path d="M155.463 125.986l.534-2.935 5.776 7.826 5.155 19.918v4.534l-1.6.534s-.711-5.692-2.044-8.892c-1.334-3.201-7.82-20.985-7.82-20.985" fill="#A338C6" mask="url(#j)"/><path d="M155.996 123.051s12.399 29.744 9.332 32.812h8.133l-11.066-32.812h-6.399z" fill="#3A0051" mask="url(#j)"/><path fill="#603E6B" mask="url(#j)" d="M100.869 157.388h52.105v-3.733h-52.105z"/><path fill="#004555" mask="url(#j)" d="M152.974 173.59h11.754v-7.76h-11.754zM192.523 173.59h23.002v-7.76h-23.002zM234.235 173.59h23.003v-7.76h-23.003zM279.086 173.59h16.251v-7.76h-16.251z"/><path d="M6.42 160.454l40.064 2.09a6.259 6.259 0 014.871 2.732 6.27 6.27 0 01.79 5.534l-8.08 20.115H19.493L6.419 160.454zM.056 157.97l15.902 38.32 33.645-.083 8.657-23.39c1.27-3.867.647-8.017-1.711-11.35-2.325-3.284-6.16-5.17-10.176-5.38l-42.7-2.229a3.495 3.495 0 00-3.617 4.112z" fill="#1E1E1E" mask="url(#j)"/><path fill="#1C0F00" mask="url(#j)" d="M83.902 166.486h280.844v-10.178H83.902z"/><path fill="#00C9F7" mask="url(#j)" d="M83.902 159.037h280.844v-3.296H83.902z"/><path d="M68.702 135.63c-15.148-1.864-18.63 1.223-18.63-4.7 0-8.036 11.416-30.732 8.202-38.727-.45-1.124-2.868-4.304-5.482-1.964-8.92 7.983-19.39 43.685-12.48 53.322 4.186 5.84 21.525 2.602 34.557 1.075.147-2.238 2.761-6.062 3.496-8.106-2.188-.281-6.521-.513-9.663-.9" fill="#F47A33" mask="url(#j)"/></g></g></g></svg>