<svg width="620" height="224" xmlns="http://www.w3.org/2000/svg" xmlns:xlink="http://www.w3.org/1999/xlink"><defs><path id="a" d="M0 0h620v224H0z"/><path id="d" d="M0 .084h59.278v83.408H0z"/><linearGradient x1="23.917%" y1="54.338%" x2="84%" y2="45.102%" id="b"><stop stop-color="#EEE" offset="0%"/><stop stop-color="#D8D8D8" offset="100%"/></linearGradient></defs><g fill="none" fill-rule="evenodd"><mask id="c" fill="#fff"><use xlink:href="#a"/></mask><use fill="url(#b)" xlink:href="#a"/><g mask="url(#c)"><path d="M335.844 197c-47.94.004-85.961-32.162-123.186-63.647-28.223-23.871-57.507-48.28-91.307-60.318-103.16-36.743-155.937 30.35-156.408 30.94v-20.41c.558-.697 9.972-12.892 37.208-24.535 24.796-10.602 66.399-19.058 123.784.854 36.356 12.615 66.55 38.153 95.75 62.85 59.232 50.098 110.388 93.364 199.227 25.594C488.2 96.998 551.628 48.084 614.038 30.214c61.041-17.477 124.68-4.682 184.25 54.743l-.44 18.534C671.31-23.297 563.568 57.032 429.39 159.387c-35.542 27.112-66.165 37.61-93.546 37.613" fill="#B4D2D9"/><path d="M725.175 201c-64.905.005-121.323-28.014-180.14-57.217-72.615-36.054-147.7-73.334-247.74-63.126-63.88 6.518-103.979 32.495-139.355 55.413-32.031 20.749-62.316 38.997-103.332 40.556-66.285 2.518-89.28-25.71-89.665-27.432V131.08c.084.314 14.555 31.995 89.595 31.62 36.955-.185 64.23-17.855 95.81-38.313 36.702-23.776 78.299-50.723 145.53-57.584 104.05-10.618 180.976 27.575 255.366 64.51 77.842 38.648 152.12 74.891 246.042 43.447v14.892C770.513 198.615 749.1 201 725.175 201" fill="#CAE9EF"/></g><g mask="url(#c)"><path d="M292.472 224.117S295.928 253 308.5 253c12.57 0 9.741-42.848 9.741-42.848s-24.492-2.627-25.77 13.965" fill="#94C2E7"/><path d="M233.924 149.934s-5.219-7.997.723-13.898c7.667-7.607 3.727-13.036 3.727-13.036l-40.054 12.099s8.59 20.082 10.26 23.537c1.962 4.06 26.527-1.565 25.344-8.702M349.685 81.382s1.224 16.447-.096 24.408c-1.32 7.96 49.054-8.142 49.054-8.142L388.838 29l-39.153 52.382z" fill="#F98A8A"/><path d="M261.195 212.996l-3.727 8.355s-22.654-72.707-25.595-75.054c-2.944-2.347-23.537 9.977-23.537 9.977s23.537 122.049 34.127 131.145c10.592 9.094 26.185-1.174 32.657-8.215 6.474-7.041 22.36-56.038 22.36-56.038l-36.285-10.17zM475.641 202s1.863 48.154-8.735 53.963C456.307 261.772 430.695 267 430.695 267l14.72-65h30.226z" fill="#FF8D8D"/><g transform="translate(180.29 49)"><mask id="e" fill="#fff"><use xlink:href="#d"/></mask><path d="M22.226 81.237L.155 12.493c-.58-1.807.525-3.717 2.39-4.136L39.028.165c1.749-.393 3.489.686 3.899 2.416L59.19 71.267c.403 1.697-.625 3.404-2.322 3.861l-30.679 8.25c-1.687.454-3.434-.49-3.964-2.14" fill="#514E58" mask="url(#e)"/></g><path fill="#FF0013" d="M204.531 127l-20.234-62.888 36.2-8.112 14.883 62.721z"/><path d="M198.09 134.915s-10.377-18.92-11.038-21.263c-.661-2.344-4.042-13.04-4.728-18.656-.687-5.617 10.512 1.789 11.57 7.809 1.056 6.02 3.45 8.862 5.293 11.073 1.844 2.211 15.647 10.826 16.15 16.478.503 5.653-17.247 4.559-17.247 4.559M236.732 115.734s-3.443 1.404-3.354-2.238c.088-3.643 4.083-10.063 7.206-6.406 3.125 3.656-3.852 8.644-3.852 8.644" fill="#F98A8A"/><path d="M237.224 104.523s-3.37 4.784-4.534 1.055c-1.165-3.73.988-13.799 5.021-11.135 4.035 2.663-.487 10.08-.487 10.08" fill="#F98A8A"/><path d="M234.096 94.226s-3.441 6.124-5.364 2.77c-1.448-2.528 1.617-15.255 5.88-12.645 4.263 2.609-.516 9.875-.516 9.875M347.37-25.146s-38.437-7.135-33.411 40.333c5.026 47.469 17.001 72.222 37.106 65.816 20.105-6.408 48.046-46.159 37.106-80.23C377.233-33.3 347.37-25.146 347.37-25.146" fill="#F98A8A"/><path d="M314.37 9.12s-.957 26.549 19.327 34.727c29.074 11.724 57.158-6.88 66.397 57.475 9.242 64.355 23.369 25.122 25.71-5.67 2.56-33.686 1.492-115.271-30.206-129.048-27.43-11.92-50.118-5.548-62.634 2.236-12.518 7.782-22.519 18.685-18.593 40.28" fill="#450F3D"/><path d="M432.66 291.329c-5.853 25.382 6.437 58.934 5.852 62.434-.584 3.501-2.46 10.93-41.746 32.813-33.934 18.902-105.227 24.436-105.85 21.81-.626-2.624 24.103-86.715 22.932-107.136-1.17-20.424-16.387-78.483-16.387-78.483l-38.043-10.21s11.998-46.39 20.485-62.727c8.487-16.337 54.724-38.803 61.454-44.055 1.478-1.152 2.502-2.954 3.204-5.06h.003s9.084-6.609 30.885-9.09c21.802-2.479 23.254 3.213 23.254 3.213.532 3.711 1.047 6.594 1.475 7.73 1.755 4.665 51.386 20.783 58.118 28.076 6.73 7.294 21.478 71.29 21.478 71.29-6.437 5.542-26.044 7.412-26.044 7.412-3.512 9.63-15.218 56.6-21.07 81.983" fill="#574591"/><path fill="#EA7373" d="M257.415 220.484L249.402 245l2.432-43z"/><path d="M204.228 99.669c-.428.525-.64.786-1.061 1.31-.732-.68-1.102-1.02-1.842-1.698a376.16 376.16 0 012.311-2.619l2.501-.662 2.199 8.305-2.626.695-1.482-5.331M212.3 97.664c-.454.523-.682.784-1.133 1.308a228.994 228.994 0 00-1.83-1.704 399.267 399.267 0 012.464-2.613c1.035-.263 1.553-.394 2.588-.655.784 3.324 1.178 4.987 1.96 8.311l-2.716.689c-.532-2.134-.798-3.202-1.332-5.336M222.073 96.12c.11-.144.193-.29.252-.444a.805.805 0 00.048-.442.647.647 0 00-.23-.394c-.119-.098-.284-.118-.491-.063a.748.748 0 00-.498.431c-.108.23-.138.505-.09.83l-2.679.375c-.067-.58-.031-1.103.107-1.574.137-.47.346-.883.63-1.245.28-.36.617-.658 1.008-.899.39-.238.808-.415 1.252-.533a4.74 4.74 0 011.24-.162c.422 0 .81.074 1.162.217.352.143.66.37.92.683.259.311.435.723.527 1.234.065.363.078.697.04.996a3.046 3.046 0 01-.222.832c-.11.254-.24.493-.395.716-.154.223-.319.44-.495.65-.405.493-.609.74-1.01 1.23 1.108-.294 1.662-.443 2.772-.739l.444 2.465L219.92 102c-.191-.91-.288-1.363-.48-2.273a315.133 315.133 0 012.633-3.608M211.85 79.038l6.502 1.852-1.158 3.885-6.502-1.85 1.525 6.113-4.015.962-1.525-6.113-4.892 4.602-2.862-2.947 4.897-4.58-6.502-1.85 1.159-3.887 6.501 1.85-1.525-6.113L207.47 70l1.525 6.113 4.897-4.58 2.857 2.925z" fill="#FFF"/></g></g></svg>