<?xml version="1.0" encoding="UTF-8"?>
<svg width="299px" height="224px" viewBox="0 0 299 224" version="1.1" xmlns="http://www.w3.org/2000/svg" xmlns:xlink="http://www.w3.org/1999/xlink">
    <!-- Generator: Sketch 61.1 (89650) - https://sketch.com -->
    <title>mi-speciale-onderzoeken</title>
    <desc>Created with Sketch.</desc>
    <defs>
        <linearGradient x1="23.9173266%" y1="68.6503384%" x2="83.9996625%" y2="28.9398055%" id="linearGradient-1">
            <stop stop-color="#EEEEEE" offset="0%"></stop>
            <stop stop-color="#D8D8D8" offset="100%"></stop>
        </linearGradient>
        <rect id="path-2" x="0" y="0" width="299" height="224"></rect>
        <polygon id="path-4" points="0 472.226 519.918 472.226 519.918 0 0 0"></polygon>
        <polygon id="path-6" points="107.956 0.069 472.327 2.156 385.288 119.946 0.431 122.604"></polygon>
        <polygon id="path-8" points="138.812 -0.001 92.61 57.999 0.242 57.482 38.611 19.813 90.557 14.891"></polygon>
    </defs>
    <g id="Symbols" stroke="none" stroke-width="1" fill="none" fill-rule="evenodd">
        <g id="Speciale-onderzoeken">
            <g id="Menu-Section-2-Copy-6">
                <g id="mi-speciale-onderzoeken">
                    <mask id="mask-3" fill="white">
                        <use xlink:href="#path-2"></use>
                    </mask>
                    <use id="Mask" fill="url(#linearGradient-1)" xlink:href="#path-2"></use>
                    <g id="Group-151" mask="url(#mask-3)">
                        <g transform="translate(-110.000000, -47.000000)">
                            <path d="M202.647,235.8837 C200.628,251.1467 185.117,262.2027 168.038,260.5677 L100.905,254.1197 C84.099,252.5107 72.222,238.9807 74.304,223.9167 L72.023,106.9207 C74.088,92.1067 89.217,81.1977 105.854,82.5067 L189.212,82.0907 C206.133,83.4217 218.322,96.6517 216.32,111.6637 L202.647,235.8837 Z" id="Fill-1" stroke="none" fill="#212121" fill-rule="evenodd"></path>
                            <path d="M197.3858,248.9823 C197.3858,264.3613 196.2538,280.4713 194.7128,285.0793 C193.1708,289.7003 176.7398,302.5403 165.9788,304.0733 C155.2168,305.6263 11.5008,300.4663 9.9658,292.7803 C9.4988,290.4573 6.3198,277.3883 12.2738,271.2263 C26.0218,256.9513 57.8838,245.3553 65.3858,244.2783 C76.1638,242.7493 197.3858,248.9823 197.3858,248.9823" id="Fill-10" stroke="none" fill="#000000" fill-rule="evenodd"></path>
                            <path d="M132.9175,83.2977 L147.9175,83.2977 C147.9175,83.2977 150.9085,86.9887 171.9135,87.1437 L191.9175,99.2977 L175.9175,112.2977 L128.9175,114.2977 L132.9175,83.2977 Z" id="Fill-12" stroke="none" fill="#A80000" fill-rule="evenodd"></path>
                            <path d="M333.8863,83.0917 C333.8863,83.0917 343.1423,89.2367 346.3833,99.2637 C348.1363,104.6887 349.8283,111.7157 349.8173,116.2107 C349.8043,120.9257 352.3293,123.8597 356.9963,123.855704 C359.8513,123.8537 362.9513,123.0917 365.5563,120.6517 C369.7043,116.7657 375.7423,110.2327 375.782318,103.8197 C375.8093,99.5297 345.1863,63.5857 345.1863,63.5857 L333.8863,83.0917 Z" id="Fill-14" stroke="none" fill="#FC7575" fill-rule="evenodd"></path>
                            <path d="M333.8863,83.0917 L345.1863,63.5857 C345.1863,63.5857 348.7883,67.8117 353.5173,73.5377 C352.0253,80.9717 349.1833,88.7257 343.6963,93.5197 C339.6723,86.9487 333.8863,83.0917 333.8863,83.0917" id="Fill-16" stroke="none" fill="#FD5E5A" fill-rule="evenodd"></path>
                            <path d="M310.8765,22.1131 C310.8765,22.1131 305.4565,26.4731 304.3145,34.3111 C303.1735,42.1491 308.4395,50.8931 308.5105,57.4881 C308.5795,64.0831 321.0405,95.4291 336.0645,87.9251 C351.0875,80.4201 352.6875,55.7661 352.6305,50.4081 C352.5725,45.0501 341.9545,27.2981 332.9285,23.0201 C323.9025,18.7421 310.8765,22.1131 310.8765,22.1131" id="Fill-18" stroke="none" fill="#FC7575" fill-rule="evenodd"></path>
                            <path d="M319.316,54.1673 C319.495,58.3003 319.278,63.3233 318.909,67.4683 C320.28,68.0273 322.032,68.2663 323.602,67.8623 C321.174,69.1413 318.362,67.9493 318.196,67.9383 C318.36,64.5133 318.401,59.9483 319.316,54.1673" id="Fill-20" stroke="none" fill="#510B5E" fill-rule="evenodd"></path>
                            <path d="M317.3145,47.7582 C317.3145,47.7582 314.4425,45.6082 311.3745,45.4282 C308.3075,45.2492 304.7015,49.7162 304.7015,49.7162 C304.7015,49.7162 308.8465,46.2472 310.9005,46.4632 C312.9545,46.6772 315.1265,48.1002 315.1265,48.1002 L317.3145,47.7582 Z" id="Fill-24" stroke="none" fill="#510B5E" fill-rule="evenodd"></path>
                            <path d="M331.6895,73.3402 C324.2115,76.8772 321.3195,76.9132 318.6115,76.5462 C322.6915,79.3162 329.1005,76.9842 331.6895,73.3402" id="Fill-26" stroke="none" fill="#FFFFFF" fill-rule="evenodd"></path>
                            <path d="M328.688,52.0936 C329.102,53.3216 330.303,54.0246 331.375,53.6636 C332.445,53.3016 332.979,52.0126 332.566,50.7836 C332.154,49.5556 330.951,48.8526 329.881,49.2146 C328.81,49.5756 328.276,50.8646 328.688,52.0936" id="Fill-28" stroke="none" fill="#510B5E" fill-rule="evenodd"></path>
                            <path d="M337.9864,51.7137 C329.2204,45.1737 327.2154,51.3437 324.7974,52.1517 C326.8404,51.9427 328.7804,49.3607 331.0964,49.5797 C332.9874,49.7387 335.9864,50.9717 337.9864,51.7137" id="Fill-30" stroke="none" fill="#42004A" fill-rule="evenodd"></path>
                            <path d="M311.6304,54.4066 C312.0264,55.6396 313.0244,56.3986 313.8604,56.1006 C314.6954,55.8026 315.0544,54.5616 314.6584,53.3286 C314.2624,52.0946 313.2644,51.3376 312.4284,51.6356 C311.5924,51.9326 311.2354,53.1746 311.6304,54.4066" id="Fill-32" stroke="none" fill="#510B5E" fill-rule="evenodd"></path>
                            <path d="M318.1236,54.2479 C310.9586,47.8919 309.1816,54.0869 307.1576,54.9389 C308.8596,54.6919 310.5186,52.0779 312.4386,52.2509 C314.0056,52.3729 316.4746,53.5459 318.1236,54.2479" id="Fill-34" stroke="none" fill="#42004A" fill-rule="evenodd"></path>
                            <path d="M330.2286,64.3153 C330.9356,66.4243 333.7486,67.3783 336.5096,66.4453 C339.2716,65.5133 340.9366,63.0463 340.2286,60.9383 C339.5206,58.8293 336.7076,57.8743 333.9456,58.8073 C331.1846,59.7393 329.5196,62.2063 330.2286,64.3153" id="Fill-36" stroke="none" fill="#FD5E5A" fill-rule="evenodd"></path>
                            <path d="M306.3463,44.1966 C310.6953,43.0916 315.2523,46.2046 316.5073,51.1356 C317.7633,56.0686 315.2463,60.9806 310.8973,62.0866 C306.5493,63.1936 301.9913,60.0806 300.7363,55.1476 C299.4813,50.2156 301.9983,45.3026 306.3463,44.1966 M329.7333,42.8886 C334.3923,41.7026 339.2773,45.0376 340.6223,50.3236 C341.9663,55.6086 339.2683,60.8726 334.6103,62.0586 C329.9513,63.2426 325.0653,59.9076 323.7213,54.6236 C322.3763,49.3376 325.0733,44.0726 329.7333,42.8886 M311.4723,64.3446 C316.2453,63.1306 319.3293,58.4456 319.1513,53.2576 L320.9393,53.1476 C321.0053,53.8416 321.1253,54.5396 321.3023,55.2376 C322.9873,61.8566 329.2313,66.0016 335.2243,64.4766 C341.2183,62.9516 344.7243,56.3276 343.0413,49.7076 C341.3563,43.0906 335.1113,38.9456 329.1173,40.4696 C324.4763,41.6506 321.3273,45.8886 320.9253,50.8156 L318.8563,50.9426 C318.8273,50.8156 318.7963,50.6886 318.7643,50.5616 C317.1943,44.3846 311.3653,40.5176 305.7733,41.9406 C300.1803,43.3636 296.9083,49.5456 298.4793,55.7216 C300.0503,61.8986 305.8783,65.7666 311.4723,64.3446" id="Fill-38" stroke="none" fill="#2B374D" fill-rule="evenodd"></path>
                            <path d="M310.0616,22.0228 C310.7536,19.4168 313.6926,11.7838 324.6296,10.1848 C324.9896,10.1238 325.3526,10.0698 325.7166,10.0258 C332.4466,9.1898 339.1676,7.8988 345.9766,8.8428 C349.9576,9.3948 354.0326,10.8038 357.3266,13.1728 C361.3706,16.0818 365.2786,19.4788 366.1706,24.2088 C367.8026,32.8568 364.5786,42.7178 368.1786,50.8968 C368.2046,50.9558 368.2306,51.0158 368.2566,51.0748 C372.2246,59.9668 368.7676,70.3918 360.1516,74.9258 C355.2036,77.5308 351.0716,78.5938 347.9036,74.2118 C347.9136,69.4398 359.0436,52.1048 346.3686,42.2898 C345.6636,42.8938 346.7286,47.3978 344.9776,47.5928 C340.7296,48.0648 337.1946,39.0488 336.3856,35.2358 C335.2406,31.6128 332.7806,28.2838 328.0516,25.4158 C322.1086,22.2698 317.7566,21.6528 314.7906,21.8168 C313.5146,21.9588 312.5236,22.1358 311.7776,22.3058 C310.7266,22.5988 310.1036,22.9048 309.8706,22.8988 C309.8496,22.8318 309.9056,22.5148 310.0616,22.0228" id="Fill-40" stroke="none" fill="#510B5E" fill-rule="evenodd"></path>
                            <path d="M314.1641,16.2064 C314.1641,16.2064 305.6701,16.2884 299.4761,22.6454 C293.2841,29.0014 295.9861,49.7964 300.4091,53.4744 C304.8321,57.1524 288.8001,65.5574 298.0721,64.8164 C311.2181,63.7664 322.4971,17.0374 314.1641,16.2064" id="Fill-42" stroke="none" fill="#510B5E" fill-rule="evenodd"></path>
                            <path d="M344.7764,45.7713 C344.7764,45.7713 344.9584,39.1043 350.3664,40.5153 C355.7744,41.9263 354.9064,58.1723 350.1374,56.9833 C345.3684,55.7933 344.7764,45.7713 344.7764,45.7713" id="Fill-46" stroke="none" fill="#FC7575" fill-rule="evenodd"></path>
                            <path d="M346.2027,48.8744 C346.2027,48.8744 346.2537,41.6464 349.0297,43.3314 C351.8057,45.0134 352.6517,52.0194 349.9537,52.6814 C347.2557,53.3424 346.2027,48.8744 346.2027,48.8744" id="Fill-48" stroke="none" fill="#FD5E5A" fill-rule="evenodd"></path>
                            <path d="M247.3238,145.1991 C247.3238,140.8671 247.7958,137.4011 248.5808,135.3991 C250.8848,129.5521 253.0968,126.5001 253.3128,122.4841 L254.4728,122.5581 C254.1948,127.0011 251.8858,130.1151 249.6668,135.8251 C248.9678,137.5461 248.4778,140.9751 248.4948,145.1991 C248.4778,154.0371 250.5198,166.4851 256.4128,175.7131 L255.4238,176.3361 C249.3708,166.8151 247.3238,154.2081 247.3238,145.1991" id="Fill-50" stroke="none" fill="#212121" fill-rule="evenodd"></path>
                            <path d="M66.9161,189.0277 C60.9551,199.4567 53.1401,228.1317 53.1401,228.1317 C53.1401,228.1317 101.1841,250.1107 105.6551,254.5747 C110.1201,259.0427 113.2261,294.9297 156.3151,280.6487 C181.6361,272.2497 177.2741,241.4687 177.2741,241.4687 L158.1691,186.4177 L66.9161,189.0277 Z" id="Fill-56" stroke="none" fill="#002A68" fill-rule="evenodd"></path>
                            <path d="M60.773,227.6107 C44.865,233.2497 21.215,261.8957 27.904,277.6937 C29.087,295.3677 29.599,301.5327 34.456,335.9817 C39.456,371.3977 44.354,411.3307 44.354,411.3307 C44.354,411.3307 67.962,418.5207 85.407,408.2547 C85.407,408.2547 88.461,346.9067 85.975,328.0037 C84.639,317.9427 86.226,298.3857 87.995,282.2607 C88.751,281.9707 89.502,281.6897 90.264,281.3987 C108.146,274.6757 122.036,242.1857 122.036,242.1857 L60.773,227.6107 Z" id="Fill-58" stroke="none" fill="#002A68" fill-rule="evenodd"></path>
                            <path d="M122.3482,88.0057 C105.4732,92.0297 101.4112,91.2537 92.5902,95.1927 C83.7452,99.1397 88.5122,102.4017 88.5122,102.4017 C88.5122,102.4017 85.2242,135.2987 85.5602,136.9857 C86.2252,140.3007 67.0292,170.7587 58.1962,222.9887 C56.9562,230.3467 92.3342,213.7467 130.8232,224.5227 C132.6772,225.0417 152.9172,112.2977 152.9172,112.2977 C152.9172,112.2977 129.9172,107.2977 132.8762,83.1347 L122.3482,88.0057 Z" id="Fill-60" stroke="none" fill="#700000" fill-rule="evenodd"></path>
                            <path d="M210.8882,104.1791 C196.9712,95.4401 199.0072,105.2111 184.9072,94.9991 C184.9072,94.9991 184.3262,94.4251 180.8572,97.8861 C172.2632,104.2921 155.6382,103.0381 155.5982,103.1011 C155.2062,103.0381 154.7792,103.0071 154.4322,102.8971 L152.5952,108.8601 C146.7312,120.5371 137.9212,140.2041 136.2082,149.5981 C134.1672,160.8881 136.8462,178.8441 133.7682,185.0041 C130.6922,191.1611 108.1752,220.6061 115.4202,221.4421 C117.5872,221.6951 121.4442,222.2981 125.6472,222.9951 C141.7202,227.5111 175.3282,241.7661 175.7332,239.4061 C178.2922,224.5311 177.1892,190.3671 188.3192,170.6711 C198.1312,153.3351 216.6552,107.8101 210.8882,104.1791" id="Fill-66" stroke="none" fill="#A80000" fill-rule="evenodd"></path>
                            <path d="M150.5079,287.6473 C170.4259,277.1043 176.1819,259.1803 159.2049,244.9183 C141.0839,229.6833 102.7149,243.2683 102.7149,243.2683 C102.7149,243.2683 87.5339,271.7093 90.1499,284.4503 C89.9339,300.5883 90.4119,297.0743 92.6419,332.5173 C95.0989,371.6733 98.9779,414.3023 98.9779,414.3023 C98.9779,414.3023 123.6559,425.5133 144.0299,411.0353 C144.0299,411.0353 153.1809,313.1253 151.3729,294.0823 C151.1619,291.9043 150.8609,289.7533 150.5079,287.6473" id="Fill-70" stroke="none" fill="#02499E" fill-rule="evenodd"></path>
                            <path d="M101.7076,242.7596 C101.7076,242.7596 86.4926,271.1866 89.1036,283.9386 C88.8706,300.0606 89.3536,296.5566 91.5606,331.9856 C93.9896,371.1186 97.8286,413.7426 97.8286,413.7426 C97.8286,413.7426 104.0846,416.5746 112.9636,417.5446 C111.5586,385.4696 106.3136,287.2996 107.1046,276.5046 C107.8216,266.9236 126.1416,249.1606 138.3306,237.3536 C120.8696,236.0166 101.7076,242.7596 101.7076,242.7596" id="Fill-72" stroke="none" fill="#002A68" fill-rule="evenodd"></path>
                            <mask id="mask-5" fill="white">
                                <use xlink:href="#path-4"></use>
                            </mask>
                            <g id="Clip-75" stroke="none" fill="none"></g>
                            <polygon id="Fill-76" stroke="none" fill="#FFFFFF" fill-rule="evenodd" mask="url(#mask-5)" points="198.603 447.932 221.524 447.932 221.524 214.427 198.603 214.427"></polygon>
                            <g id="Group-79" stroke="none" stroke-width="1" fill="none" fill-rule="evenodd" mask="url(#mask-5)">
                                <g transform="translate(42.000000, 216.226000)">
                                    <mask id="mask-7" fill="white">
                                        <use xlink:href="#path-6"></use>
                                    </mask>
                                    <g id="Clip-78" stroke="none" fill="none"></g>
                                    <polygon id="Fill-77" stroke="none" fill="none" mask="url(#mask-7)" points="107.956 0.069 0.431 122.604 385.288 119.946 472.327 2.156"></polygon>
                                </g>
                            </g>
                            <path d="M138.4044,212.808 C138.4044,213.368 139.4904,213.784 140.8434,213.784 L517.1244,213.795 C518.4674,213.795 519.5414,213.38 519.5414,212.828 L470.0364,189.19 C467.5334,188.399 466.5954,188.218 465.2584,188.218 L176.6594,188.257 C175.2834,188.257 173.4114,188.504 170.0614,189.289 L138.4044,212.808 Z" id="Fill-80" stroke="none" fill="#E4E8EF" fill-rule="evenodd" mask="url(#mask-5)"></path>
                            <path d="M138.1822,226.4442 C138.1822,227.5312 139.2232,228.3862 140.5372,228.3862 L517.5512,228.3862 C518.8592,228.3862 519.9172,227.5312 519.9172,226.4442 L519.9172,213.7952 C519.9172,212.7232 518.8592,211.8442 517.5512,211.8442 L140.5372,211.8442 C139.2232,211.8442 138.1822,212.7232 138.1822,213.7952 L138.1822,226.4442 Z" id="Fill-81" stroke="none" fill="#FFFFFF" fill-rule="evenodd" mask="url(#mask-5)"></path>
                            <path d="M330.4947,115.1078 C327.9347,115.0108 325.5407,113.4958 325.7507,108.9598 C325.7507,108.5448 325.7627,108.1288 325.7967,107.6998 C325.8197,107.1138 325.8197,106.5998 325.8197,106.1348 C325.8197,104.5088 325.6157,103.6528 325.4447,103.3598 C325.3077,103.1638 325.3197,103.1638 325.2847,103.1748 C325.2627,103.1748 325.2227,103.1748 325.1777,103.1638 C325.1257,103.1638 325.0527,103.1748 324.9547,103.1898 C324.4767,103.2498 324.0387,102.9198 323.9647,102.4438 C323.9027,101.9548 324.2327,101.5148 324.7217,101.4518 C324.8297,101.4408 324.9897,101.4148 325.1777,101.4148 C326.5817,101.4148 327.5717,102.7968 327.5717,106.1348 C327.5717,106.6138 327.5597,107.1508 327.5487,107.7848 C327.5087,108.2148 327.4967,108.6038 327.4967,108.9598 C327.7027,113.1178 328.4127,112.9208 330.6767,113.3728 L330.7507,113.3728 C331.4727,113.5318 333.2197,111.3578 333.9987,107.6628 C334.8347,103.7518 336.6327,102.8968 337.5587,102.9338 C337.7407,102.9338 337.8547,102.9678 337.9117,102.9678 C338.3777,103.0898 338.6567,103.5668 338.5367,104.0318 C338.4347,104.4828 337.9917,104.7588 337.5477,104.6858 C337.4397,104.6988 336.5467,104.6478 335.7107,108.0548 C334.7097,111.8798 333.3897,114.8998 330.7507,115.1218 C330.6997,115.1218 330.6147,115.1218 330.4947,115.1078" id="Fill-82" stroke="none" fill="#FFFFFF" fill-rule="evenodd" mask="url(#mask-5)"></path>
                            <path d="M327.0762,126.3295 C322.8732,126.1595 321.1102,121.7935 321.0992,116.3165 C321.0992,114.0185 321.4062,111.4135 322.0372,108.5415 L322.0542,108.5415 C322.2242,107.7595 322.9932,107.2695 323.7772,107.4405 C324.5682,107.6115 325.0562,108.3825 324.8872,109.1755 C324.2892,111.8655 324.0112,114.2745 324.0112,116.3165 C324.0342,121.5235 325.7172,123.4065 327.0762,123.4205 L327.2242,123.4205 C330.4492,123.3205 333.3842,120.6195 337.0932,107.5005 C337.2972,106.7295 338.0932,106.2775 338.8722,106.4995 C339.6462,106.7075 340.0962,107.5145 339.8792,108.2835 C336.2732,121.3425 332.8212,125.9625 327.2982,126.3295 L327.0762,126.3295 Z" id="Fill-83" stroke="none" fill="#001C49" fill-rule="evenodd" mask="url(#mask-5)"></path>
                            <path d="M205.502,112.1302 L190.873,147.1582 L210.502,177.5652 L193.177,194.5032 C193.177,194.5032 212.566,201.0742 214.733,200.6562 C230.898,197.5792 235.135,188.6012 237.45,185.2632 C246.391,177.2202 222.429,129.0652 205.502,112.1302" id="Fill-84" stroke="none" fill="#FC7575" fill-rule="evenodd" mask="url(#mask-5)"></path>
                            <path d="M208.898,102.1283 C215.518,104.0823 219.352,117.1353 221.661,123.6763 C224.203,130.8633 221.405,132.9163 221.405,132.9163 L199.598,157.2873 L186.761,148.3183 C186.761,148.3183 190.396,104.9833 195.986,102.7233 C202.271,100.1813 208.898,102.1283 208.898,102.1283" id="Fill-85" stroke="none" fill="#A80000" fill-rule="evenodd" mask="url(#mask-5)"></path>
                            <polygon id="Fill-87" stroke="none" fill="#000000" fill-rule="evenodd" mask="url(#mask-5)" points="364.6607 467.8348 359.0807 467.8348 363.7397 325.6778 306.5947 301.8068 374.3007 270.0778 480.9457 279.3428 480.9457 317.9738 495.9557 457.9248 490.4047 457.9248 461.4827 317.9738 382.8617 325.6778"></polygon>
                            <path d="M476.5718,284.9051 C482.8628,284.9021 482.0998,278.7941 476.3848,276.1941 L435.5968,263.6681 C429.8698,261.0201 420.0528,258.8861 413.7618,258.9291 L318.5618,273.4301 C312.2718,273.4761 306.8338,277.1131 311.7768,280.9981 L328.6748,281.4921 C333.6178,285.3861 376.5648,308.2931 382.8618,308.281105 L476.5718,284.9051 Z" id="Fill-89" stroke="none" fill="#000000" fill-rule="evenodd" mask="url(#mask-5)"></path>
                            <path d="M353.5357,112.1415 C347.0917,117.7465 329.9427,146.9045 323.4707,147.7745 C317.0147,148.6315 284.0267,141.1295 284.0267,141.1295 L280.0567,166.9885 L328.4937,184.5175 C328.4937,184.5175 344.0827,180.6245 351.3177,170.5975 C352.9107,168.3985 353.5357,112.1415 353.5357,112.1415" id="Fill-90" stroke="none" fill="#7CAD98" fill-rule="evenodd" mask="url(#mask-5)"></path>
                            <path d="M287.1148,256.9364 C285.3568,271.2804 283.4688,307.0704 287.6718,313.1244 C291.8758,319.1594 305.4858,401.8254 304.7868,407.9154 C302.4608,428.1784 287.2918,444.5564 273.0038,453.5344 C282.2628,459.0624 293.3828,457.5034 310.4238,442.7874 C317.3618,436.8004 326.2118,432.8284 327.9188,427.3964 C331.7748,415.0344 326.0698,422.3204 325.7168,403.9254 C325.3648,385.5264 338.4748,331.9144 324.9838,303.5264 C316.7418,286.1824 320.0698,261.3674 317.9198,255.2634 C315.7408,249.1724 287.1148,256.9364 287.1148,256.9364" id="Fill-91" stroke="none" fill="#EAB6AC" fill-rule="evenodd" mask="url(#mask-5)"></path>
                            <path d="M293.2916,262.2684 C291.5216,276.6154 291.8636,314.5914 296.0786,320.6384 C300.2986,326.7124 313.9036,409.3544 313.1986,415.4414 C310.8896,435.7074 295.7086,452.0944 281.4216,461.0644 C290.6866,466.6034 301.8176,465.0374 318.8636,450.2974 C325.7686,444.3404 334.6246,440.3654 336.3476,434.9264 C340.2036,422.5734 334.4996,429.8614 334.1346,411.4644 C333.7656,393.0594 346.8976,339.4414 333.4066,311.0634 C325.1436,293.7184 328.4936,268.8864 326.3316,262.7974 C324.1646,256.7064 293.2916,262.2684 293.2916,262.2684" id="Fill-93" stroke="none" fill="#FFDDD2" fill-rule="evenodd" mask="url(#mask-5)"></path>
                            <path d="M379.6822,79.537 C370.7922,85.469 371.6972,83.279 365.2232,90.301 C360.8842,95.005 346.5512,132.481 346.5512,132.481 C343.4522,140.978 340.1702,152.385 339.8852,158.619 C339.4752,167.383 344.8962,175.727 348.6672,179.063 C352.4272,182.413 356.7212,196.274 358.1202,201.657 C358.6942,203.813 360.6222,211.972 362.7552,221.004 C363.9092,219.784 289.1222,255.651 282.5362,260.198 C275.9502,264.767 266.4452,354.118 266.4452,354.118 L342.5582,354.309 C342.5582,354.309 313.6532,281.803 386.6772,271.622 C404.9922,269.052 405.0492,98.246 379.6822,79.537" id="Fill-95" stroke="none" fill="#7CAD98" fill-rule="evenodd" mask="url(#mask-5)"></path>
                            <path d="M431.8668,211.6283 C430.9678,202.9683 425.9858,183.8063 415.4298,141.7033 C409.9968,120.0283 403.3088,95.9233 377.0318,77.6173 C368.6308,83.2033 369.7338,82.6223 363.9668,88.7533 C369.2908,92.7973 381.1778,100.9293 380.8528,108.6443 C378.9598,151.6313 395.8748,200.0143 397.7858,205.6193 C398.1838,211.7043 399.0988,220.4663 397.7858,223.8993 C393.4408,235.1643 326.5538,250.9263 302.3128,266.9523 C293.9798,272.4523 303.2628,329.6283 304.2578,354.3853 L351.1358,354.2583 C351.1358,354.2583 355.5438,294.6853 355.1788,290.8143 C367.8798,281.7433 399.0138,281.9963 430.4508,277.0283 C452.4278,273.5473 448.4858,238.6703 431.8668,211.6283" id="Fill-96" stroke="none" fill="#96BDAD" fill-rule="evenodd" mask="url(#mask-5)"></path>
                            <polygon id="Fill-97" stroke="none" fill="#96BDAD" fill-rule="evenodd" mask="url(#mask-5)" points="374.4839 72.8802 356.0779 93.5142 357.0169 107.7222 384.6589 83.0722"></polygon>
                            <path d="M360.8726,100.5165 L348.3716,105.0125 C348.3716,105.0125 343.1786,139.2885 342.3196,143.4635 C341.4496,147.6295 360.8726,100.5165 360.8726,100.5165" id="Fill-98" stroke="none" fill="#96BDAD" fill-rule="evenodd" mask="url(#mask-5)"></path>
                            <path d="M337.9854,110.0375 C337.2294,109.7555 336.8364,108.9255 337.1154,108.1655 C342.3644,93.5145 350.2244,64.0785 351.1304,61.0915 C352.3814,56.9345 352.9154,53.8515 352.9154,51.9205 C352.7564,49.5345 352.4774,49.7075 352.1364,49.6715 C351.7324,49.6455 350.7424,49.9645 349.4804,50.7945 L349.4804,50.8085 C348.8094,51.2465 347.9054,51.0535 347.4614,50.3795 C347.0234,49.7075 347.2164,48.8015 347.8934,48.3635 C349.4064,47.3965 350.7254,46.7845 352.1364,46.7595 C354.6904,46.7595 355.8274,49.2895 355.8274,51.9205 C355.8274,54.3545 355.2014,57.6085 353.9224,61.9245 C353.0524,64.7865 345.1854,94.2965 339.8574,109.1565 C339.6354,109.7525 339.0714,110.1225 338.4754,110.1225 C338.3154,110.1225 338.1444,110.0945 337.9854,110.0375" id="Fill-99" stroke="none" fill="#959BA5" fill-rule="evenodd" mask="url(#mask-5)"></path>
                            <path d="M209.6026,176.285 C207.0436,173.714 195.3836,155.309 194.7126,151.131 C192.6706,138.303 209.8526,119.826 222.4286,131.116 C225.6996,134.045 237.8256,162.427 238.3366,164.989 C233.7246,162.933 226.0236,162.421 219.3516,167.554 C212.6856,172.693 209.6026,176.285 209.6026,176.285" id="Fill-100" stroke="none" fill="#0059DB" fill-rule="evenodd" mask="url(#mask-5)"></path>
                            <path d="M205.7525,130.0951 C210.9395,137.8651 222.6845,160.6271 222.6845,160.6271 C222.6845,160.6271 231.1485,155.7521 238.3365,161.9091 C241.4195,160.8801 224.4815,127.5241 224.4815,127.5241 C224.4815,127.5241 202.1575,124.7061 205.7525,130.0951" id="Fill-101" stroke="none" fill="#0089DD" fill-rule="evenodd" mask="url(#mask-5)"></path>
                            <path d="M223.7935,176.4725 C223.1565,175.9695 223.0605,175.0535 223.5605,174.4305 C224.0605,173.7935 224.9825,173.6965 225.6135,174.2115 C238.5875,184.6595 252.4715,187.9725 264.3135,187.9725 C277.8725,188.0215 288.8725,183.4625 291.7785,180.8245 C293.6505,179.2075 320.3305,158.1725 325.8595,124.6325 L325.8705,124.6455 C325.9905,123.8495 326.7415,123.3125 327.5315,123.4455 C328.3285,123.5685 328.8685,124.3165 328.7315,125.1095 C322.9755,159.9105 295.4985,181.4095 293.7015,183.0105 C289.7365,186.4205 278.5885,190.8335 264.3135,190.881531 C251.9415,190.8935 237.3255,187.3985 223.7935,176.4725" id="Fill-102" stroke="none" fill="#001C49" fill-rule="evenodd" mask="url(#mask-5)"></path>
                            <path d="M210.1944,202.6156 C210.6504,200.2436 215.5524,197.2556 213.1974,194.1156 C210.8434,190.9756 203.5284,185.6956 203.5284,185.6956 C203.5284,185.6956 192.3294,188.6986 190.2134,190.1396 C188.1094,191.5846 188.7234,197.4626 190.2254,198.6006 C191.7324,199.7436 210.1944,202.6156 210.1944,202.6156" id="Fill-103" stroke="none" fill="#FD5E5A" fill-rule="evenodd" mask="url(#mask-5)"></path>
                            <path d="M214.3975,191.4735 C213.2435,189.8325 210.2625,186.5195 208.2775,187.0515 C206.2985,187.5775 205.5135,187.4265 206.2465,189.1165 C206.9975,190.8085 211.4065,196.4245 213.7095,197.1925 C215.2455,197.7105 216.1495,193.9225 214.3975,191.4735" id="Fill-104" stroke="none" fill="#FD5E5A" fill-rule="evenodd" mask="url(#mask-5)"></path>
                            <path d="M214.9776,191.0897 C213.8116,189.4487 211.6676,188.4677 208.9656,187.1847 C207.1116,186.3037 206.0876,187.0457 206.8276,188.7297 C207.5786,190.4217 211.6846,195.1187 212.9706,196.1097 C214.2556,197.0817 216.7246,193.5387 214.9776,191.0897" id="Fill-105" stroke="none" fill="#FF9494" fill-rule="evenodd" mask="url(#mask-5)"></path>
                            <path d="M211.053339,201.3417 C211.0643,199.5447 208.7553,195.7597 207.3283,193.7657 C205.9003,191.7807 204.9323,185.6327 203.5283,185.6957 C202.1183,185.7547 201.8733,185.7997 201.6003,188.5247 C201.3333,191.2547 202.6013,197.6187 202.6013,197.6187 L203.4493,203.0257 C203.4493,203.0257 201.1733,193.8397 200.8263,192.2167 C200.4803,190.6027 201.8733,185.7997 200.5823,184.8137 C199.2913,183.8347 197.3003,186.1527 196.6123,187.6627 C195.9243,189.1677 194.7693,195.7427 194.7583,196.6357 C194.7463,197.5367 194.9803,201.9987 194.9803,201.9987 C194.9803,201.9987 195.2583,191.8227 195.3383,190.5347 C195.4233,189.2297 197.4933,185.6157 196.1963,185.5447 C194.9063,185.4567 192.0453,188.0277 191.4253,190.0347 C190.8053,192.0487 188.6733,198.1107 188.6733,198.1107 C188.6733,198.1107 192.2203,188.3907 191.6523,187.9497 C191.0843,187.5177 185.2263,191.6557 184.2413,194.7377 C183.2463,197.8207 185.6123,200.9717 186.3633,200.8647 C187.5003,201.7347 192.2553,206.4747 193.3823,205.2917 C196.0603,206.2047 201.0823,209.1167 202.4993,206.3637 C208.9603,208.5537 211.053339,201.3417 211.053339,201.3417" id="Fill-106" stroke="none" fill="#FF9494" fill-rule="evenodd" mask="url(#mask-5)"></path>
                            <path d="M233.0084,180.161 L238.2124,185.135 L231.1594,192.961 L218.3904,176.023 C218.3904,176.023 224.5504,179.103 226.4784,179.492 C228.4064,179.874 233.0084,180.161 233.0084,180.161" id="Fill-107" stroke="none" fill="#FD5E5A" fill-rule="evenodd" mask="url(#mask-5)"></path>
                            <path d="M231.1597,173.5921 C228.4927,172.3721 223.1967,170.9091 221.0187,171.5351 C220.0627,171.8081 219.6017,172.2351 219.0677,172.8461 C217.2927,174.8631 218.9877,178.4971 222.8207,180.2581 C226.6317,182.0041 231.2157,182.1691 233.0087,180.1611 C234.7707,178.1411 235.0147,175.3461 231.1597,173.5921" id="Fill-108" stroke="none" fill="#E4E8EF" fill-rule="evenodd" mask="url(#mask-5)"></path>
                            <path d="M230.004,171.2967 C226.171,169.5477 221.621,169.7577 219.863,171.7657 C218.095,173.7797 219.784,176.8137 223.623,178.5737 C227.434,180.3177 231.984,180.1147 233.782,178.1077 C235.539,176.0857 233.86,173.0547 230.004,171.2967" id="Fill-109" stroke="none" fill="#FFFFFF" fill-rule="evenodd" mask="url(#mask-5)"></path>
                            <path d="M231.273,176.2762 C229.743,177.1552 222.105,176.0572 222.333,172.3542 C223.959,168.2112 224.363,168.9732 224.363,168.9732 L232.291,171.4532 L231.273,176.2762 Z" id="Fill-110" stroke="none" fill="#E4E8EF" fill-rule="evenodd" mask="url(#mask-5)"></path>
                            <path d="M232.2906,171.453 C232.0586,172.198 230.0906,172.255 227.9006,171.561 C225.7216,170.887 223.8386,169.653 224.0666,168.905 C224.2996,168.157 226.5586,168.182 228.7476,168.86 C230.9316,169.548 232.5246,170.7 232.2906,171.453" id="Fill-111" stroke="none" fill="#FFFFFF" fill-rule="evenodd" mask="url(#mask-5)"></path>
                            <path d="M273.4185,141.8343 C272.0705,140.3553 267.1005,136.9313 264.5175,135.7403 C261.2475,134.2353 252.9375,132.2933 250.8335,132.6313 C247.0855,133.2263 243.6155,150.2213 248.6375,154.9583 C253.6605,159.7053 267.9015,158.0783 271.2465,157.5463 C274.5675,157.0203 279.9145,159.8613 279.9145,159.8613 L282.8495,145.1443 L273.4185,141.8343 Z" id="Fill-112" stroke="none" fill="#FD5E5A" fill-rule="evenodd" mask="url(#mask-5)"></path>
                            <path d="M273.3106,137.6337 C271.8436,135.3677 270.7796,131.2357 267.6406,130.7177 C264.5296,130.1887 259.2906,127.5497 258.3066,126.8107 C257.3166,126.0627 255.4456,129.2877 257.5106,131.4937 C259.0466,133.1237 261.1046,134.1837 262.0096,135.7547 C262.9186,137.3267 264.8876,141.4417 267.7306,142.5817 C270.5856,143.7147 279.9026,149.9427 280.4266,151.0567 C280.9496,152.1747 280.8356,144.2857 280.8356,144.2857 L273.3106,137.6337 Z" id="Fill-113" stroke="none" fill="#FC7575" fill-rule="evenodd" mask="url(#mask-5)"></path>
                            <path d="M277.605,139.0961 C276.741,143.8301 273.151,160.8081 273.151,160.8081 L280.943,162.4751 L284.567,141.0521 L277.605,139.0961 Z" id="Fill-114" stroke="none" fill="#3E574C" fill-rule="evenodd" mask="url(#mask-5)"></path>
                            <path d="M260.0132,140.4745 C260.2972,141.6275 259.8762,142.7325 259.0692,142.9265 C258.2612,143.1315 257.3792,142.3495 257.0952,141.1945 L251.7772,119.6295 C251.4872,118.4665 251.9082,117.3695 252.7162,117.1665 C253.5292,116.9705 254.4102,117.7465 254.7012,118.9075 L260.0132,140.4745 Z" id="Fill-115" stroke="none" fill="#212121" fill-rule="evenodd" mask="url(#mask-5)"></path>
                            <path d="M249.7183,106.3744 C252.0843,107.0344 253.7733,110.8334 254.6553,114.3964 C255.4963,117.8434 256.5033,122.1634 254.8433,123.9154 C254.2913,124.4954 251.9823,123.8754 251.2313,124.0624 C248.1993,124.8084 244.8383,121.6864 243.7003,117.0984 C242.5743,112.5064 244.1043,108.1864 247.1303,107.4384 C247.8013,107.2704 249.0413,106.1844 249.7183,106.3744" id="Fill-116" stroke="none" fill="#000000" fill-rule="evenodd" mask="url(#mask-5)"></path>
                            <path d="M259.9962,112.9496 C261.4862,118.9666 260.6782,124.4646 257.1232,125.3516 C253.5692,126.2196 249.4742,122.0526 248.0012,116.0376 C246.5102,110.0256 248.1882,104.4376 251.7542,103.5556 C255.3032,102.6776 258.5122,106.9266 259.9962,112.9496" id="Fill-117" stroke="none" fill="#000000" fill-rule="evenodd" mask="url(#mask-5)"></path>
                            <path d="M258.1988,113.5209 C259.4668,118.6429 258.8528,123.1849 256.8448,123.6759 C254.8318,124.1739 252.1928,120.4349 250.9238,115.3149 C249.6668,110.2059 250.2698,105.6579 252.2778,105.1579 C254.2858,104.6629 256.9418,108.4109 258.1988,113.5209" id="Fill-118" stroke="none" fill="#FFFFFF" fill-rule="evenodd" mask="url(#mask-5)"></path>
                            <path d="M269.0787,147.6703 C270.6037,155.3593 267.9577,162.3563 263.1807,163.3053 C258.3867,164.2553 253.2847,158.7843 251.7657,151.0863 C250.2467,143.3893 252.8917,136.3853 257.6807,135.4413 C262.4527,134.5053 267.5667,139.9773 269.0787,147.6703" id="Fill-119" stroke="none" fill="#212121" fill-rule="evenodd" mask="url(#mask-5)"></path>
                            <path d="M251.7432,150.9921 C253.2392,158.5911 258.2322,163.9881 262.9532,163.2291 L256.9532,135.6151 C252.6362,137.0821 250.2982,143.7051 251.7432,150.9921" id="Fill-120" stroke="none" fill="#000000" fill-rule="evenodd" mask="url(#mask-5)"></path>
                            <path d="M251.7208,132.5067 C253.1428,135.4557 258.7738,140.5177 257.2718,142.1697 C255.7648,143.8137 251.4928,140.6647 250.2978,139.8037 C249.0988,138.9337 247.3758,139.2097 247.1638,135.7117 C246.9598,132.1997 251.7208,132.5067 251.7208,132.5067" id="Fill-121" stroke="none" fill="#FC7575" fill-rule="evenodd" mask="url(#mask-5)"></path>
                            <path d="M247.4947,137.7733 C245.5437,138.7943 244.2747,139.7043 245.9077,143.3303 C247.5507,146.9593 248.7797,146.9363 252.4487,147.7693 C256.1287,148.6063 260.6667,146.5953 259.0177,145.0933 C257.3627,143.5803 254.4047,143.3893 252.3517,141.5983 C250.2977,139.8043 247.4947,137.7733 247.4947,137.7733" id="Fill-122" stroke="none" fill="#FC7575" fill-rule="evenodd" mask="url(#mask-5)"></path>
                            <path d="M245.9078,143.3304 C245.8458,145.1074 243.6378,146.8684 245.1228,149.4724 C246.5838,152.0554 249.9288,151.8904 252.0438,151.8964 C254.1658,151.9244 258.1928,152.2624 257.2148,150.0134 C256.6688,148.6874 256.0538,149.3164 252.5558,148.4554 C248.7618,147.5304 245.9078,143.3304 245.9078,143.3304" id="Fill-123" stroke="none" fill="#FC7575" fill-rule="evenodd" mask="url(#mask-5)"></path>
                            <path d="M246.8228,151.3182 C246.2778,152.2912 246.1868,154.8532 247.7618,155.8342 C249.3318,156.8272 249.6498,156.6622 252.9088,155.9852 C254.9858,155.5502 256.1738,155.4592 255.9288,153.9042 C255.8098,153.1192 255.1958,152.8092 251.9928,152.6182 C250.4178,152.5272 246.8228,151.3182 246.8228,151.3182" id="Fill-124" stroke="none" fill="#FC7575" fill-rule="evenodd" mask="url(#mask-5)"></path>
                            <g id="Group-127" stroke="none" stroke-width="1" fill="none" fill-rule="evenodd" mask="url(#mask-5)">
                                <g transform="translate(234.000000, 174.226000)">
                                    <mask id="mask-9" fill="white">
                                        <use xlink:href="#path-8"></use>
                                    </mask>
                                    <g id="Clip-126" stroke="none" fill="none"></g>
                                    <polygon id="Fill-125" stroke="none" fill="none" mask="url(#mask-9)" points="138.812 -0.001 92.61 57.999 0.242 57.482 38.611 19.813 90.557 14.891"></polygon>
                                </g>
                            </g>
                            <path d="M266.2466,181.7938 C262.4186,181.0818 253.7046,172.3858 253.7046,172.3858 C253.7046,172.3858 239.6166,169.4248 237.1546,169.7978 C234.7256,170.1358 225.1476,171.0208 227.5926,172.3978 C230.0166,173.8048 238.9116,173.2558 238.9116,173.2558 L246.0386,174.4848 C246.0386,174.4848 228.8046,173.9868 227.4056,174.6718 C226.1826,175.2918 227.1266,176.1798 229.5096,177.0978 C229.8456,177.2208 230.1866,177.3488 230.5506,177.4678 C233.6846,178.5088 244.8326,178.1418 244.8326,178.1418 C244.8326,178.1418 228.7986,177.4498 229.8506,178.6758 C230.8976,179.8968 232.2116,180.3368 235.5216,180.8518 C238.8266,181.3578 244.4916,182.6638 245.5206,183.0188 C246.5726,183.3548 250.5826,187.0228 254.6776,189.5368 C258.7616,192.0598 272.6116,194.0388 272.6116,194.0388 L270.2626,182.8138 L266.2466,181.7938 Z" id="Fill-128" stroke="none" fill="#FF9494" fill-rule="evenodd" mask="url(#mask-5)"></path>
                            <polygon id="Fill-129" stroke="none" fill="#3E574C" fill-rule="evenodd" mask="url(#mask-5)" points="278.8902 177.3055 265.7232 178.4825 263.2322 199.5045 282.4852 199.8885"></polygon>
                            <path d="M381.0245,97.243 C400.0095,96.731 394.0545,119.243 389.7435,134.711 C378.5845,174.743 364.9795,186.417 350.7365,192.19 C346.9555,193.723 337.3995,198.35 279.9145,207.584 L271.0295,177.041 C271.0295,177.041 331.6045,162.509 333.8115,160.888 C340.4145,156.028 360.9415,122.315 364.5925,112.642 C369.9895,98.398 381.0245,97.243 381.0245,97.243" id="Fill-130" stroke="none" fill="#96BDAD" fill-rule="evenodd" mask="url(#mask-5)"></path>
                            <path d="M166.1373,81.7787 C166.1373,81.7787 176.7753,90.0577 190.8073,83.9587 C204.8393,77.8597 213.4523,59.2707 202.6193,36.1237 C191.7853,12.9767 181.3203,4.6827 181.3203,4.6827 L166.1373,81.7787 Z" id="Fill-131" stroke="none" fill="#000000" fill-rule="evenodd" mask="url(#mask-5)"></path>
                            <path d="M173.2418,4.683 C173.2418,4.683 179.3088,4.489 181.3208,4.683 C200.1188,6.484 213.5678,36.08 205.2998,49.164 C197.0958,62.145 189.1798,55.221 189.1188,55.176 C200.1188,73.687 180.1978,94.333 168.7308,82.796 C161.7858,75.808 173.2418,4.683 173.2418,4.683" id="Fill-132" stroke="none" fill="#542360" fill-rule="evenodd" mask="url(#mask-5)"></path>
                            <path d="M171.2501,63.0941 C171.2501,63.0941 168.1641,79.5861 171.9171,88.2981 C173.9491,93.0121 160.8751,106.4791 153.9171,107.2981 C148.0211,107.9921 144.9171,97.2981 144.9171,92.2981 C144.9171,81.8221 150.1071,59.5001 150.1071,59.5001 L171.2501,63.0941 Z" id="Fill-133" stroke="none" fill="#F98A8A" fill-rule="evenodd" mask="url(#mask-5)"></path>
                            <path d="M150.107,59.4999 L171.242,64.4649 C171.242,64.4649 170.334,69.4139 169.922,75.8759 C169.368,76.0579 168.801,76.2169 168.218,76.3509 C160.927,78.0339 152.947,74.4739 147.484,68.9199 C148.851,63.3729 150.107,59.4999 150.107,59.4999" id="Fill-134" stroke="none" fill="#FD5E5A" fill-rule="evenodd" mask="url(#mask-5)"></path>
                            <path d="M181.3204,4.68299993 C181.3204,4.68299993 190.3834,14.251 188.7664,26.153 C187.1504,38.053 189.0914,44.835 189.11748,49.081 C189.1434,53.327 182.8204,66.388 170.1744,69.014 C157.5274,71.64 142.8244,60.124 142.7624,49.65 C142.6974,39.175 144.4164,20.906 152.3854,12.788 C160.3554,4.67 181.3204,4.68299993 181.3204,4.68299993" id="Fill-135" stroke="none" fill="#F98A8A" fill-rule="evenodd" mask="url(#mask-5)"></path>
                            <path d="M167.4839,53.6639 C162.5049,52.5169 160.4129,50.3439 161.0789,50.7309 C160.6769,50.3419 160.0919,50.9519 160.4919,51.3419 C161.1609,51.6099 163.3299,54.9609 174.5029,55.3619 C175.0619,55.3809 175.0899,54.5329 174.5329,54.5119 C174.5329,54.5119 170.2499,54.2699 167.4839,53.6639" id="Fill-137" stroke="none" fill="#18287D" fill-rule="evenodd" mask="url(#mask-5)"></path>
                            <path d="M168.2979,57.517 C168.5149,57.522 168.7039,57.358 168.7299,57.136 C168.7479,56.901 168.5829,56.695 168.3519,56.669 C167.4309,56.574 164.8629,56.148 164.0799,55.317 C163.4279,54.597 161.6729,56.807 168.2629,57.516 C168.2769,57.516 168.2839,57.517 168.2979,57.517" id="Fill-138" stroke="none" fill="#18287D" fill-rule="evenodd" mask="url(#mask-5)"></path>
                            <path d="M178.2569,47.204 C178.2569,48.791 180.3229,50.079 182.8729,50.079 C185.4219,50.079 187.4879,48.791 187.4879,47.204 C187.4879,45.616 185.4219,44.329 182.8729,44.329 C180.3229,44.329 178.2569,45.616 178.2569,47.204" id="Fill-147" stroke="none" fill="#FD5E5A" fill-rule="evenodd" mask="url(#mask-5)"></path>
                            <path d="M181.3204,4.683 C181.3204,4.683 153.5854,25.027 147.1874,37.202 C140.7904,49.379 156.2724,66.905 154.9074,73.709 C153.5414,80.511 131.0834,95.724 122.4484,87.143 C113.8134,78.561 120.3434,65.075 120.3434,65.075 C120.3434,65.075 104.0244,65.175 105.0664,51.58 C106.1094,37.986 117.3044,19.575 132.3964,10.929 C164.7794,-7.623 181.3204,4.683 181.3204,4.683" id="Fill-149" stroke="none" fill="#542360" fill-rule="evenodd" mask="url(#mask-5)"></path>
                            <path d="M105.2105,43.1185 C117.0205,5.6045 162.1485,-8.1425 181.3205,4.6825 C161.6215,-5.4975 119.5955,9.4715 108.1245,44.0315 C106.7255,48.8175 105.4815,54.1725 107.7915,58.1055 C110.0885,62.1065 115.5165,63.8235 120.3375,64.1165 L121.7955,64.2045 C121.7285,64.8845 114.1055,77.7135 122.4485,87.1435 C116.6055,81.9785 116.3755,73.1995 118.9755,65.9745 C114.0355,65.6685 108.7155,64.2025 105.5205,59.5425 C102.4025,54.9015 103.6825,48.5535 105.2105,43.1185" id="Fill-150" stroke="none" fill="#34173A" fill-rule="evenodd" mask="url(#mask-5)"></path>
                        </g>
                    </g>
                </g>
            </g>
        </g>
    </g>
</svg>