<svg width="299" height="224" xmlns="http://www.w3.org/2000/svg" xmlns:xlink="http://www.w3.org/1999/xlink"><defs><linearGradient x1="48.199%" y1="80.303%" x2="52.107%" y2="14.553%" id="k"><stop stop-color="#FFAA8C" offset="0%"/><stop stop-color="#FFFFD8" offset="100%"/></linearGradient><linearGradient x1="23.917%" y1="68.65%" x2="84%" y2="28.94%" id="b"><stop stop-color="#EEE" offset="0%"/><stop stop-color="#D8D8D8" offset="100%"/></linearGradient><linearGradient x1="-89.847%" y1="50%" x2="-88.387%" y2="50%" id="q"><stop stop-color="#41117B" offset="0%"/><stop stop-color="#260A44" offset="100%"/></linearGradient><linearGradient x1="49.494%" y1="80.783%" x2="50.605%" y2="13.217%" id="e"><stop stop-color="#181D66" offset="0%"/><stop stop-color="#2D31BA" offset="100%"/></linearGradient><linearGradient x1="59.875%" y1="69.142%" x2="19.222%" y2="14.656%" id="n"><stop stop-color="#DB5949" offset="0%"/><stop stop-color="#EF895D" offset="100%"/></linearGradient><linearGradient x1="49.493%" y1="80.429%" x2="50.605%" y2="13.639%" id="h"><stop stop-color="#DB5949" offset="0%"/><stop stop-color="#EF895D" offset="100%"/></linearGradient><linearGradient x1="52.925%" y1="5.743%" x2="49.055%" y2="102.095%" id="t"><stop stop-color="#41117B" offset="0%"/><stop stop-color="#67468E" offset="100%"/></linearGradient><path d="M12.11.006C5.634.006.383 5.256.383 11.732v100.355c0 6.475 5.25 11.725 11.728 11.725h126.12c6.477 0 11.727-5.25 11.727-11.725V11.73c0-6.475-5.25-11.725-11.726-11.725H12.11z" id="j"/><path id="a" d="M0 0h299v224H0z"/><path d="M34.487 1.965c-4.027 1.156-8.903 2.311-16.04.82C8.718.755 3.613 4.761.42 10.63c-1.426 2.62 24.475 65.612 28.873 65.612s43.39 5.289 46.614 5.289c3.225 0 21.695-10.578 21.695-10.578C108.89 59.64 68.873 54.5 60.37 45.978c-8.5-8.522-7.914-42.31-15.244-44.956a9.722 9.722 0 00-3.353-.585c-2.331 0-4.623.764-7.285 1.528" id="m"/><path d="M13.592.305C6.394.305.559 6.123.559 13.3v111.22c0 7.176 5.834 12.994 13.032 12.994h140.16c7.197 0 13.033-5.818 13.033-12.995V13.3c0-7.176-5.836-12.994-13.034-12.994H13.592z" id="g"/><path d="M20.956 4.367c-2.147 5.763-.697 34.118-1.26 36.04-5.715 19.534-15.791 28.402-18.5 32.036-.65.87-.772 1.576-.597 2.188l.004.003c8.843 5.56 18.847 3.178 27.44-9.928 8.052-12.28 9.696-58.37 9.871-64.131A66.763 66.763 0 0033.52.422c-5.185 0-11.359.71-12.563 3.945" id="p"/><path d="M14.04.237C6.46.237.315 6.4.315 14.002v117.815c0 7.602 6.146 13.764 13.726 13.764h147.614c7.58 0 13.726-6.162 13.726-13.764V14.003c0-7.602-6.146-13.766-13.727-13.766H14.04z" id="d"/><path d="M12.366 2.098C3.897 9.688-3.894 57.343 3.48 60.165c7.373 2.822 43.292.72 43.292.72L48.54 49.82s-7.237-1.846-21.028-2.63c-10.793-.616-12.157-2.623-12.24-3.467.029-.006 9.082-39.034 3.603-42.017-.715-.39-1.78-1.11-3.14-1.11-.978 0-2.107.371-3.369 1.502" id="s"/></defs><g fill="none" fill-rule="evenodd"><mask id="c" fill="#fff"><use xlink:href="#a"/></mask><use fill="url(#b)" xlink:href="#a"/><g mask="url(#c)"><g transform="translate(101 8)"><mask id="f" fill="#fff"><use xlink:href="#d"/></mask><path d="M14.04.237C6.46.237.315 6.4.315 14.002v117.815c0 7.602 6.146 13.764 13.726 13.764h147.614c7.58 0 13.726-6.162 13.726-13.764V14.003c0-7.602-6.146-13.766-13.727-13.766H14.04z" fill="url(#e)" mask="url(#f)"/></g><g transform="translate(105 12)"><mask id="i" fill="#fff"><use xlink:href="#g"/></mask><path d="M13.592.305C6.394.305.559 6.123.559 13.3v111.22c0 7.176 5.834 12.994 13.032 12.994h140.16c7.197 0 13.033-5.818 13.033-12.995V13.3c0-7.176-5.836-12.994-13.034-12.994H13.592z" fill="url(#h)" mask="url(#i)"/></g><g transform="translate(114 19)"><mask id="l" fill="#fff"><use xlink:href="#j"/></mask><path d="M12.11.006C5.634.006.383 5.256.383 11.732v100.355c0 6.475 5.25 11.725 11.728 11.725h126.12c6.477 0 11.727-5.25 11.727-11.725V11.73c0-6.475-5.25-11.725-11.726-11.725H12.11z" fill="url(#k)" mask="url(#l)"/></g><g fill="#B9BCFC"><path d="M181.48 107.132h17.996V89.92H181.48zM181.48 87.491h17.996V71.895H181.48zM201.5 51.444h17.995v-8.256H201.5zM201.5 69.467h17.995V53.872H201.5zM161.461 87.491h17.995V71.895h-17.995zM181.48 69.467h17.996V53.872H181.48zM201.5 107.132h17.995V89.92H201.5zM181.48 51.444h17.996v-8.256H181.48zM221.519 87.491h17.994V71.895H221.52zM121.086 87.491h18.332V71.895h-18.332zM121.086 69.467h18.332V53.872h-18.332zM121.086 107.132h18.332V89.92h-18.332zM241.538 51.444h16.195v-8.256h-16.195zM201.5 87.491h17.995V71.895H201.5zM221.519 69.467h17.994V53.872H221.52zM161.461 107.132h17.995V89.92h-17.995zM221.519 107.132h17.994V89.92H221.52zM121.086 125.749h18.332v-16.188h-18.332zM221.519 51.444h17.994v-8.256H221.52zM241.538 87.491h16.195V71.895h-16.195zM241.539 107.132h16.195V89.92h-16.195zM121.086 51.444h18.332v-8.256h-18.332zM241.538 69.467h16.195V53.872h-16.195zM141.442 107.132h17.995V89.92h-17.995zM141.442 69.467h17.995V53.872h-17.995zM181.48 125.749h17.996v-16.188H181.48zM161.461 69.467h17.995V53.872h-17.995zM161.461 51.444h17.995v-8.256h-17.995zM141.442 87.491h17.995V71.895h-17.995zM141.442 51.444h17.995v-8.256h-17.995zM161.461 125.749h17.995v-16.188h-17.995zM141.442 125.749h17.995v-16.188h-17.995zM135.868 30.938h109.81v-4.856h-109.81z"/></g><path d="M103.884 201.75l.96 1.61a4.807 4.807 0 01-1.683 6.604L84.07 221.242l-6.375-3.067 26.189-16.424z" fill="#3A0027"/><path fill="#542360" d="M57.131 282.436h4.42V213.36h-4.42z"/><g transform="translate(5 136)"><mask id="o" fill="#fff"><use xlink:href="#m"/></mask><path d="M34.487 1.965c-4.027 1.156-8.903 2.311-16.04.82C8.718.755 3.613 4.761.42 10.63c-1.426 2.62 24.475 65.612 28.873 65.612s43.39 5.289 46.614 5.289c3.225 0 21.695-10.578 21.695-10.578C108.89 59.64 68.873 54.5 60.37 45.978c-8.5-8.522-7.914-42.31-15.244-44.956a9.722 9.722 0 00-3.353-.585c-2.331 0-4.623.764-7.285 1.528" fill="url(#n)" mask="url(#o)"/></g><path d="M5.62 147.687s26.154 61.145 37.262 61.145 40.045 6.135 41.507 10.809c1.462 4.674-8.77-1.461-16.661-1.461-7.893 0-24.262-1.168-33.323-5.259-9.061-4.09-31.212-46.213-28.785-65.234" fill="#3A0027"/><path fill="#846D75" d="M128.462 307.524h6.008V170.838h-6.008z"/><path fill="#583428" d="M128.462 177.886h6.008v-7.048h-6.008z"/><path fill="#846D75" d="M217.113 307.524h6.007V170.838h-6.007z"/><path fill="#583428" d="M217.113 177.886h6.007v-7.048h-6.007z"/><path d="M118.873 152.066l-7.729-3.41c-3.014-1.503-6.328-1.635-7.992-1.91l-.002-.001a277.34 277.34 0 00-4.337-.67c-.687 2.345-1.475 4.73-1.552 7.322.735-.098 1.46-.19 2.162-.273 3.342-.39 10.769.15 13.077 3.543 2.31 3.393 2.284 5.721 3.016 5.486.734-.236.051-3.849-1.07-5.608a24.856 24.856 0 01-1.755-3.258s2.992 3.467 3.448 5.337c.455 1.871 1.415 3.782 1.873 3.635.458-.148-.542-3.46-.932-5.45-.266-1.357-.678-2.515-1.193-3.515l2.244 1.08s3.217 4.914 3.519 3.73c.302-1.184-2.777-6.038-2.777-6.038" fill="#FD5E5A"/><path d="M90.722 144.915c-15.292-2.161-18.808-.492-18.808-7.353 0-9.307 10.35-37.17 5.69-40.076-1.075-.67-3.05-2.316-5.69.394-9.005 9.246-16.829 43.15-9.854 54.313 4.261 6.818 22.01 2.954 35.202 1.203.077-2.59.865-4.976 1.551-7.32-2.227-.33-4.877-.707-8.091-1.16" fill="#000"/><path d="M98.283 146.644l8.876 3.409s3.537 4.855 3.19 6.038c-.347 1.184-4.042-3.73-4.042-3.73l-5.367-2.25-2.657-3.467zM93.422 148.277s4.19 4.44 4.19 5.387c0 .947.37 3.197 1.2 3.197s.85-3.915.85-5.125-2.095-4.584-2.45-4.584-3.79 1.125-3.79 1.125" fill="#D85B5B"/><path d="M140.995 196.5c-4.603-12.488-65.604-25.662-65.604-25.662l-7.278 2.578-6.522 8.704 58.786 19.607s-6.476 44.039-13.647 65.216c2.391 2.089 12.68 2.994 12.68 2.994 4.766-15.55 24.149-66.483 21.585-73.438" fill="#0F1F42"/><path d="M125.463 195.812c-2.617-9.134-59.086-22.944-59.086-22.944H38.474s-6.099 21.928.912 27.24c2.764 2.094 62.018 5.383 62.018 5.383s-19.26 47.924-17.195 62.354c3.734-.443 10.376.222 14.075 0 .683-14.642 28.207-68.44 27.179-72.033" fill="#2A417F"/><path d="M72.974 93.976s4.48 1.18 7.442 3.86c2.961 2.682 5.746 24.968 1.956 29.473-3.792 4.504-4.595 9.413-7.547 15.593-1.396 2.925-10.015 15.083.883 21.644 2.738 1.649 7.344 1.073 5.923 3.432-1.421 2.36-47.266 8.687-46.081 5.47 1.185-3.218 10.247-20.163 15.992-39.771.566-1.93-.892-30.391 1.266-36.176 2.157-5.784 20.166-3.525 20.166-3.525" fill="#87D3B1"/><path d="M80.416 97.837c2.085 1.703 3.227 8.613 3.636 11.282 2.343 16.536-1.06 17.28-4.118 23.021-1.8 3.296-3.332 7.562-5.109 10.762 1.507-3.685 2.595-7.515 4.359-11.147 2.84-6.226 5.713-5.023 4.035-22.53-.348-3.421-1.2-7.787-1.48-8.777-.276-.937-.627-1.887-1.323-2.611" fill="#DEEDE7"/><g transform="translate(32 93)"><mask id="r" fill="#fff"><use xlink:href="#p"/></mask><path d="M20.956 4.367c-2.147 5.763-.697 34.118-1.26 36.04-5.715 19.534-15.791 28.402-18.5 32.036-.65.87-.772 1.576-.597 2.188l.004.003c8.843 5.56 18.847 3.178 27.44-9.928 8.052-12.28 9.696-58.37 9.871-64.131A66.763 66.763 0 0033.52.422c-5.185 0-11.359.71-12.563 3.945" fill="url(#q)" mask="url(#r)"/></g><g><path d="M60.734 92.39c-.418 3.34-1.448 15.298.857 23.197l2.317 1.827h-2.317l4.764 17.917.001-.004c2.66-17.42 3.385-37.91 3.499-41.632-3.204-1.358-5.921-1.654-9.121-1.306" fill="#352868"/><path d="M62.27 117.943l3.186.014-3.387-2.69c-1.831-6.394-1.715-16.247-1.335-22.878-1.4 7.57-1.445 15.436.38 23.518.11.087 1.359 1.063 1.247.977-.11 0-1.57.007-1.46.005.043.148 3.035 11.042 5.455 18.438-.63-3.016-2.774-12.252-4.085-17.384" fill="#6049BD"/><path fill="#846D75" d="M65.52 307.524h6.008V170.838H65.52z"/><path d="M105.1 154.797c-1.64-7.291-8.401-9.776-15.998-10.065v.001c-30.586-4.4-35.103-1.937-35.798-7.759-4.94 1.036-9.652 3.031-14.138 5.355.438 3.155 1.317 5.867 2.74 7.851 5.167 7.199 27.603 2.488 42.914.932 3.838-.391 12.368.15 15.02 3.542 2.652 3.393 2.623 5.722 3.465 5.486.842-.235.057-3.849-1.23-5.607-1.285-1.758-2.016-3.258-2.016-3.258s3.436 3.466 3.96 5.337c.524 1.87 1.626 3.78 2.152 3.634.526-.147-.623-3.46-1.07-5.45" fill="#FC7575"/></g><g transform="translate(41 94)"><mask id="u" fill="#fff"><use xlink:href="#s"/></mask><path d="M12.366 2.098C3.897 9.688-3.894 57.343 3.48 60.165c7.373 2.822 43.292.72 43.292.72L48.54 49.82s-7.237-1.846-21.028-2.63c-10.793-.616-12.157-2.623-12.24-3.467.029-.006 9.082-39.034 3.603-42.017-.715-.39-1.78-1.11-3.14-1.11-.978 0-2.107.371-3.369 1.502" fill="url(#t)" mask="url(#u)"/></g><g><path fill="#846D75" d="M242.427 306.583h6.001V169.767h-6z"/><path fill="#583428" d="M65.681 176.823h6.002v-7.056H65.68zM242.427 176.823h6.001v-7.056h-6z"/><path fill="#542360" d="M49.33 173.48h207.56v-7.424H49.33z"/><path fill="#BF81CE" d="M49.33 167.865h207.56v-1.81H49.33z"/><path fill="#603E6B" d="M91.597 166.056h60.349v-2.86H91.597z"/><path d="M90.357 59.113s3.874.936 5.71 3.561c1.834 2.626 3.847 13.21.44 19.553-3.408 6.343-9.044 7.875-6.815 10.106 2.228 2.231 4.158 0 4.158 0s.297 4.419-3.022 3.938c0 0 .436 2.45 1.66 2.45 0 0 .262 2.1-2.14 1.444-2.403-.657-3.955.94-2.885 2.012 1.071 1.072-11.673 5.577-11.673-3.02 0-8.594 16.852-27.93 17.965-30.842 1.112-2.913-1.53-5.994-1.53-5.994l-1.868-3.208z" fill="#42004A"/><path d="M57.923 85.144c1.922-4.288.906-6.307 6.15-12.782 5.241-6.475 3.058-8.382 6.335-11.662 3.275-3.283 15.021-4.158 17.624-2.934 2.602 1.223 4.194 5.955 4.194 5.955L80.122 99.419H64.887l-6.964-14.275z" fill="#42004A"/><path d="M84.522 89.18s-4.054 2.448-5.591 6.647c-1.537 4.198-1.118 9.517-1.118 9.517s-4.541 2.098-7.405-.77c-1.717-1.72-4.203-4.594-4.123-7.315.053-1.82 13.695-16.547 13.695-16.547l4.542 8.467z" fill="#FC7575"/><path d="M84.522 89.18l-4.542-8.468s-1.604 1.732-3.714 4.081c.527 3.179 1.626 6.516 3.902 8.642 1.82-2.718 4.354-4.256 4.354-4.256" fill="#FD5E5A"/><path d="M92.226 62.321s2.34 1.838 2.865 5.163c.523 3.324-1.692 7.049-1.692 9.85 0 2.8-5.193 16.137-11.658 12.987-6.465-3.15-5.94-13.3-5.94-15.575 0-2.275 3.144-10.15 6.988-11.988 3.845-1.836 9.437-.437 9.437-.437" fill="#FC7575"/><path d="M90.546 76.6c-.645 1.643-1.271 3.71-1.718 5.446-.58.006-1.255-.178-1.772-.593.708.908 1.905.875 1.967.897.42-1.411 1.047-3.265 1.523-5.75M89.358 74.123s-.24-1.673-1.154-2.891c-.915-1.22-3.449-1.394-3.449-1.394s2.393.65 2.976 1.49c.583.84.827 2.053.827 2.053l.8.742zM90.731 75.291s.976-1.014 2.016-1.19c1.04-.176 2.264 1.621 2.264 1.621s-1.407-1.352-2.103-1.193c-.696.158-1.434.838-1.434.838l-.743-.076zM86.871 75.081c-.176.674-.666 1.108-1.092.969-.428-.14-.63-.798-.453-1.473.178-.674.668-1.107 1.094-.969.426.139.628.799.451 1.473" fill="#510B5E"/><path d="M83.241 74.324c3.748-2.282 4.21.49 5.11.984-.785-.213-1.406-1.44-2.32-1.485-.744-.046-1.974.303-2.79.5" fill="#42004A"/><path d="M92.636 78.147c-.196.518-.611.805-.929.643-.317-.16-.415-.711-.22-1.228.195-.518.611-.805.928-.643.317.16.416.711.221 1.228" fill="#510B5E"/><path d="M90.124 77.92c2.708-2.872 3.508-.215 4.317.12-.672-.078-1.367-1.185-2.118-1.077-.613.079-1.564.627-2.2.958" fill="#42004A"/><path d="M85.334 84.573c2.086 1.235 2.67.822 2.62 1.153a.138.138 0 01-.16.114c-2.228-.416-4.885-2.768-4.771-2.891.115-.124.534.555 2.311 1.624M92.66 62.651c.053-.18-1.222-4.518-6.376-5.361-6.166-1.01-13.455 3.587-15.683 9.822-2.228 6.234-4.237 13.343-10.331 15.116-6.095 1.77-7.209 10.762-5.309 16.406 1.9 5.643 7.733 4.199 7.733 4.199s-3.571-3.116-2.622-4.068c0 0 2.721 5.283 5.802 4.233 3.08-1.05 4.324-2.763 4.324-2.763s-5.31-.816-1.817-3.767c2.435-2.056 6.042-3.938 8.926-7.416 2.757-3.327-1.058-12.236 1.34-18.631.306.255.769.486 1.52.564 3.261.342 1.202-3.433 4.307-6.994 5.324-3.004 7.829-1.327 8.186-1.34" fill="#510B5E"/><path d="M92.156 61.722c5.31-.58 8.98 3.467 7.909 8.027-.184.772-.526 1.563-1.24 1.892l-.39-1.05c.29-.056.598-.817.686-1.097 1.278-3.994-1.885-7.939-6.965-7.772" fill="#510B5E"/><path d="M88.854 59.113s3.636.013 6.316 2.698c2.68 2.684 1.878 13.27 0 14.842-1.877 1.573 4.775 3.058.793 3.058-3.983 0-10.673-20.225-7.11-20.598" fill="#510B5E"/><path d="M72.07 71.056c.841 2.411 1.434 5.568 1.329 8.032-.398 7.87-8.738 3.763-11.054 3.926-1.425.057-2.64 1.372-2.118 3.146.417 1.462 1.363 1.902 1.857 2.491.745.906.354 1.96-.513 2.388-1.72.862-3.839-1.091-4.532 1.24-.522 1.62-.02 3.563 1.265 4.824-1.461-1.079-2.195-3.095-1.795-4.964.421-1.92 1.75-1.83 3.58-1.695 1.132.076 1.545-.472 1.453-.82-.073-.686-1.647-.948-2.329-3.158-.54-1.584.074-3.291 1.54-4.126 3.822-2.212 12.346 5.749 11.982-5.956-.041-1.784-.314-3.56-.665-5.328" fill="#560D68"/><path fill="#464A7F" d="M116.775 152.957h82.755V82.481h-82.755z"/><path fill="#3C405E" d="M136.614 139.944h52.327V99.418h-52.327z"/><path fill="#242744" d="M158.153 130.118h22.807v-22.84h-22.807z"/><path fill="#242744" d="M167.6 165.356h8.146v-40.459h-8.145z"/><path fill="#242744" d="M129.482 166.056h52.78v-3.636h-52.78z"/><path fill="#595E7A" d="M158.153 107.278v22.84h9.448v32.302h-.96v-31.734h-9.488v-23.408z"/><path fill="#595E7A" d="M199.53 82.481h-82.755v70.476l3.222-67.866z"/><path d="M103.193 138.477a.322.322 0 01-.23-.095c-6.429-6.438-18.004-3.251-18.122-3.219a.326.326 0 11-.176-.629c.118-.032 12.064-3.32 18.76 3.387a.326.326 0 01-.232.556M30.757 110.366a.325.325 0 01-.326-.326c0-17.78 23.205-34.827 23.44-34.996a.326.326 0 11.382.528c-.232.168-23.17 17.022-23.17 34.468 0 .18-.146.326-.326.326" fill="#464A7F"/></g></g></g></svg>