<?xml version="1.0" encoding="UTF-8"?>
<svg width="620px" height="224px" viewBox="0 0 620 224" version="1.1" xmlns="http://www.w3.org/2000/svg" xmlns:xlink="http://www.w3.org/1999/xlink">
    <!-- Generator: Sketch 61.1 (89650) - https://sketch.com -->
    <title>imi-spoed</title>
    <desc>Created with Sketch.</desc>
    <defs>
        <linearGradient x1="23.9173266%" y1="54.3375622%" x2="83.9996625%" y2="45.1019707%" id="linearGradient-1">
            <stop stop-color="#EEEEEE" offset="0%"></stop>
            <stop stop-color="#D8D8D8" offset="100%"></stop>
        </linearGradient>
        <polygon id="path-2" points="0 0 620 0 620 224 0 224"></polygon>
        <polygon id="path-4" points="0 0.0843203746 59.2783979 0.0843203746 59.2783979 83.4919697 0 83.4919697"></polygon>
    </defs>
    <g id="Page---Desktop-HD" stroke="none" stroke-width="1" fill="none" fill-rule="evenodd">
        <g id="Menu" transform="translate(-250.000000, -178.000000)">
            <g id="The-Big-Menu" transform="translate(250.000000, 178.000000)">
                <g id="spoed">
                    <g id="imi-spoed">
                        <mask id="mask-3" fill="white">
                            <use xlink:href="#path-2"></use>
                        </mask>
                        <use id="Mask" fill="url(#linearGradient-1)" xlink:href="#path-2"></use>
                        <g id="Group-7" mask="url(#mask-3)">
                            <g transform="translate(-35.056543, 23.000000)">
                                <path d="M370.900917,174 C322.961274,174.003999 284.939245,141.837637 247.714875,110.35305 C219.491212,86.4819452 190.207345,62.073018 156.407092,50.0349994 C53.2476751,13.2921515 0.470978928,80.3849616 0,80.9747666 L0,60.5655166 C0.557158051,59.8677474 9.97172621,47.6727807 37.2073353,36.0296314 C62.0038749,25.4281377 103.606345,16.9719345 160.991621,36.8843488 C197.347186,49.4991766 227.540943,75.0367305 256.740635,99.7335624 C315.973751,149.831993 367.129077,193.097684 455.96873,125.328097 C523.255585,73.998074 586.684422,25.0842515 649.09414,7.2141617 C710.136016,-10.263058 773.774288,2.53171034 833.344103,61.9570564 L832.904189,80.4909266 C706.367182,-46.2971403 598.625241,34.032292 464.44635,136.38744 C428.904477,163.499473 398.281828,173.997001 370.900917,174" id="Fill-4" fill="#B4D2D9"></path>
                                <path d="M760.231167,178 C695.326973,178.004999 638.908703,149.985697 580.09106,120.782551 C507.477034,84.7293089 432.391534,47.4492288 332.351973,57.6568817 C268.471217,64.1750215 228.372877,90.1515933 192.99617,113.069569 C160.965165,133.818831 130.680614,152.067422 89.6649843,153.626217 C23.37985,156.143884 0.384540301,127.916609 0,126.193837 L0,108.080227 C0.0831167837,108.394186 14.5544498,140.075005 89.5948858,139.700054 C126.54981,139.515079 153.824132,121.845411 185.404504,101.387111 C222.106071,77.6112483 263.703518,50.6638045 330.933981,43.80271 C434.985179,33.1851112 511.910263,71.3780709 586.300785,108.313197 C664.142157,146.961096 738.420522,183.204313 832.342488,151.760463 L832.342488,166.652498 C805.569871,175.615315 784.156784,178 760.231167,178" id="Fill-1" fill="#CAE9EF"></path>
                            </g>
                        </g>
                        <g id="112-call-girl" mask="url(#mask-3)">
                            <g transform="translate(180.290792, -40.000000)">
                                <path d="M112.180937,264.117434 C112.180937,264.117434 115.637519,293 128.208958,293 C140.778893,293 137.950507,250.151988 137.950507,250.151988 C137.950507,250.151988 113.458369,247.524644 112.180937,264.117434" id="Fill-1" fill="#94C2E7"></path>
                                <path d="M53.6330066,189.93352 C53.6330066,189.93352 48.4144492,181.936767 54.3559844,176.036414 C62.0229851,168.428509 58.0833023,163 58.0833023,163 L18.0290792,175.098874 C18.0290792,175.098874 26.6189307,195.180669 28.2897435,198.635734 C30.2509966,202.696357 54.8166291,197.071118 53.6330066,189.93352" id="Fill-3" fill="#F98A8A"></path>
                                <path d="M169.393805,121.381891 C169.393805,121.381891 170.618648,137.828752 169.298522,145.789601 C167.978396,153.75045 218.352181,137.648034 218.352181,137.648034 L208.547289,69 L169.393805,121.381891 Z" id="Fill-10" fill="#F98A8A"></path>
                                <path d="M80.9038878,252.995579 L77.1770406,261.350742 C77.1770406,261.350742 54.5231118,188.644225 51.5823242,186.297217 C48.638454,183.950209 28.0452342,196.273921 28.0452342,196.273921 C28.0452342,196.273921 51.5823242,318.322932 62.1725504,327.418931 C72.7643179,336.513394 88.3575822,326.244659 94.8294727,319.203636 C101.302905,312.162613 117.189015,263.165946 117.189015,263.165946 L80.9038878,252.995579 Z" id="Fill-12" fill="#FF8D8D"></path>
                                <path d="M295.350515,242 C295.350515,242 297.213588,290.153558 286.615046,295.962781 C276.016505,301.772004 250.403877,307 250.403877,307 L265.123388,242 L295.350515,242 Z" id="Fill-14" fill="#FF8D8D"></path>
                                <g id="Group-18" stroke-width="1" fill="none" transform="translate(0.000000, 89.000000)">
                                    <mask id="mask-5" fill="white">
                                        <use xlink:href="#path-4"></use>
                                    </mask>
                                    <g id="Clip-17"></g>
                                    <path d="M22.22554,81.2371636 L0.154556978,12.4930909 C-0.42483907,10.6863273 0.680019883,8.77570909 2.54456568,8.35723636 L39.0280254,0.164945455 C40.7770001,-0.227563636 42.5167292,0.850690909 42.9266211,2.58109091 L59.191316,71.2671273 C59.5935032,72.9639273 58.5656916,74.6714182 56.869109,75.1280727 L26.1903964,83.3784 C24.5030595,83.832 22.7556257,82.8881455 22.22554,81.2371636" id="Fill-16" fill="#514E58" mask="url(#mask-5)"></path>
                                </g>
                                <polygon id="Fill-19" fill="#FF0013" points="24.2402553 167 4.00646204 104.111835 40.2058255 96 55.088853 158.721211"></polygon>
                                <path d="M17.7987658,174.914866 C17.7987658,174.914866 7.42240674,155.9955 6.7612963,153.652484 C6.10018586,151.307957 2.7192978,140.612564 2.03358789,134.995971 C1.34634053,129.379379 12.545244,136.784579 13.6030207,142.804515 C14.6592599,148.82445 17.0530947,151.667491 18.8965166,153.877571 C20.7399385,156.08916 34.5433096,164.704391 35.046061,170.355728 C35.5488125,176.008575 17.7987658,174.914866 17.7987658,174.914866" id="Fill-21" fill="#F98A8A"></path>
                                <path d="M56.4411275,155.734021 C56.4411275,155.734021 52.998145,157.137694 53.087325,153.495852 C53.1749124,149.852528 57.170492,143.432986 60.2933822,147.08965 C63.4178649,150.746314 56.4411275,155.734021 56.4411275,155.734021" id="Fill-23" fill="#F98A8A"></path>
                                <path d="M56.9331577,144.522552 C56.9331577,144.522552 53.563279,149.307457 52.3992761,145.577693 C51.2337655,141.847929 53.3868692,131.779324 57.4201692,134.442756 C61.454977,137.106189 56.9331577,144.522552 56.9331577,144.522552" id="Fill-25" fill="#F98A8A"></path>
                                <path d="M53.8057035,134.225683 C53.8057035,134.225683 50.3642275,140.349621 48.4411435,136.996334 C46.9928557,134.468447 50.0583185,121.741306 54.3203316,124.350637 C58.5839379,126.959967 53.8057035,134.225683 53.8057035,134.225683" id="Fill-27" fill="#F98A8A"></path>
                                <path d="M167.078552,14.8544475 C167.078552,14.8544475 128.641818,7.7192013 133.6681,55.1868192 C138.694383,102.655963 150.669172,127.408875 170.774303,121.002867 C190.879434,114.595333 218.820609,74.8442164 207.880506,40.7729202 C196.941951,6.70009836 167.078552,14.8544475 167.078552,14.8544475" id="Fill-29" fill="#F98A8A"></path>
                                <path d="M134.079718,49.1208727 C134.079718,49.1208727 133.122244,75.6686356 153.405947,83.8471752 C182.480586,95.5714306 210.563939,76.9667437 219.803644,141.321713 C229.044885,205.676683 243.171859,166.444463 245.512523,135.652238 C248.07296,101.965645 247.00483,20.3805456 215.306742,6.60439264 C187.876561,-5.31557278 165.189183,1.05570684 152.672856,8.8397684 C140.154993,16.622301 130.154535,27.5254915 134.079718,49.1208727" id="Fill-35" fill="#450F3D"></path>
                                <path d="M252.369144,331.328727 C246.515934,356.711005 258.806449,390.262625 258.220821,393.76268 C257.636726,397.264264 255.761798,404.693857 216.475692,426.576079 C182.541486,445.477905 111.248225,451.012272 110.625804,448.386466 C109.998784,445.762189 134.728519,361.67069 133.557264,341.249626 C132.387542,320.825505 117.170423,262.767386 117.170423,262.767386 L79.1276252,252.556089 C79.1276252,252.556089 91.1253255,206.167368 99.6123264,189.830211 C108.099327,173.493054 154.336312,151.02698 161.06643,145.775368 C162.544297,144.622949 163.568378,142.820955 164.270518,140.714808 L164.273584,140.714808 C164.273584,140.714808 173.356944,134.105971 195.158541,131.625364 C216.960138,129.146286 218.411942,134.838078 218.411942,134.838078 C218.943913,138.549054 219.45902,141.431632 219.886743,142.567239 C221.642092,147.23347 271.273264,163.350536 278.004915,170.644101 C284.735033,177.937665 299.483037,241.933651 299.483037,241.933651 C293.045733,247.47566 273.439473,249.346432 273.439473,249.346432 C269.927241,258.975404 258.220821,305.94645 252.369144,331.328727" id="Fill-37" fill="#574591"></path>
                                <polygon id="Fill-43" fill="#EA7373" points="77.1243942 260.483587 69.1114701 285 71.5428977 242"></polygon>
                                <path d="M23.9368041,139.669036 C23.5096623,140.194247 23.2974964,140.454621 22.8759749,140.978344 C22.1439325,140.298396 21.7743986,139.959167 21.0339257,139.280708 C21.9486275,138.236237 22.4108961,137.712514 23.3452689,136.662093 C24.3456801,136.397256 24.8444806,136.264837 25.8462968,136 C26.7258718,139.323855 27.1656593,140.984295 28.0452342,144.305174 C26.9942405,144.583402 26.4701487,144.721772 25.4191549,145 C24.8262146,142.867912 24.5297445,141.801124 23.9368041,139.669036" id="Fill-45" fill="#FFFFFF"></path>
                                <path d="M32.0101527,137.663717 C31.5550429,138.187316 31.326761,138.448378 30.8760132,138.971976 C30.1490007,138.289086 29.7840404,137.948378 29.0468498,137.268437 C30.0225005,136.225664 30.513961,135.70354 31.5099681,134.654867 C32.5452339,134.39233 33.0628668,134.261062 34.0981326,134 C34.8818521,137.324484 35.2758929,138.986726 36.0581583,142.311209 C34.9720016,142.587021 34.4281963,142.724189 33.3420396,143 C32.8098665,140.865782 32.5437799,139.797935 32.0101527,137.663717" id="Fill-47" fill="#FFFFFF"></path>
                                <path d="M41.7822258,136.119095 C41.8918724,135.975996 41.9755501,135.82982 42.0347015,135.67595 C42.0924103,135.52208 42.1097229,135.374365 42.0823112,135.234344 C42.0505714,135.069703 41.9741074,134.938914 41.852919,134.840437 C41.7331734,134.74196 41.5687034,134.721957 41.360952,134.77735 C41.1373306,134.835821 40.971418,134.980459 40.8632141,135.208186 C40.7550102,135.437452 40.7247131,135.712879 40.7737655,136.037544 C39.7047111,136.186798 39.1680198,136.262194 38.0946372,136.412987 C38.0268295,135.832897 38.0628974,135.30974 38.2013984,134.838898 C38.3384567,134.369595 38.5476508,133.955685 38.8304237,133.594091 C39.1117538,133.234036 39.4479072,132.935529 39.8388839,132.695492 C40.2284179,132.456993 40.6468063,132.280043 41.0911636,132.161563 C41.4965675,132.052316 41.909185,132 42.3319015,132 C42.7531754,132 43.1412666,132.073858 43.49329,132.216956 C43.8453133,132.360055 44.1526123,132.587783 44.4123017,132.900138 C44.671991,133.210956 44.8480027,133.623327 44.9403366,134.134174 C45.005259,134.497307 45.0182434,134.831205 44.9807328,135.129712 C44.9432221,135.431297 44.8682007,135.706724 44.7585541,135.962148 C44.6489075,136.216033 44.5176201,136.454531 44.3632492,136.677643 C44.2088784,136.900754 44.0444084,137.11771 43.8683968,137.328512 C43.4629929,137.820896 43.2595696,138.067087 42.8584938,138.557932 C43.9665016,138.264041 44.5205056,138.114787 45.6299561,137.819357 C45.8074105,138.805662 45.896859,139.298046 46.0743134,140.284351 C43.4947327,140.970611 42.2078278,141.313741 39.6296897,142 C39.4378082,141.090629 39.341146,140.636713 39.1492645,139.727343 C40.1865791,138.28866 40.7131714,137.565472 41.7822258,136.119095" id="Fill-49" fill="#FFFFFF"></path>
                                <polygon id="Fill-51" fill="#FFFFFF" points="31.5599087 119.038196 38.0613893 120.889707 36.9029266 124.775272 30.401446 122.925295 31.9262334 129.038196 27.9107512 130 26.3859638 123.887099 21.4938071 128.489032 18.6320911 125.542261 23.5289443 120.961804 17.0274637 119.111827 18.1859264 115.224728 24.687407 117.074705 23.1626196 110.961804 27.1781018 110 28.7028892 116.112901 33.5997424 111.532444 36.4567619 114.457739"></polygon>
                            </g>
                        </g>
                    </g>
                </g>
            </g>
        </g>
    </g>
</svg>