<svg width="299" height="224" xmlns="http://www.w3.org/2000/svg" xmlns:xlink="http://www.w3.org/1999/xlink"><defs><path id="a" d="M0 0h299v224H0z"/><path id="d" d="M0 472.226h519.918V0H0z"/><path id="f" d="M107.956.069l364.371 2.087-87.039 117.79L.431 122.604z"/><path id="h" d="M138.812-.001l-46.202 58-92.368-.517 38.369-37.669 51.946-4.922z"/><linearGradient x1="23.917%" y1="68.65%" x2="84%" y2="28.94%" id="b"><stop stop-color="#EEE" offset="0%"/><stop stop-color="#D8D8D8" offset="100%"/></linearGradient></defs><g fill="none" fill-rule="evenodd"><mask id="c" fill="#fff"><use xlink:href="#a"/></mask><use fill="url(#b)" xlink:href="#a"/><g mask="url(#c)"><g transform="translate(-110 -47)"><path d="M202.647 235.884c-2.019 15.263-17.53 26.319-34.609 24.684l-67.133-6.448c-16.806-1.61-28.683-15.14-26.601-30.203L72.023 106.92c2.065-14.814 17.194-25.723 33.831-24.414l83.358-.416c16.921 1.33 29.11 14.56 27.108 29.573l-13.673 124.22z" fill="#212121"/><path d="M197.386 248.982c0 15.38-1.132 31.49-2.673 36.097-1.542 4.621-17.973 17.461-28.734 18.994-10.762 1.553-154.478-3.607-156.013-11.293-.467-2.323-3.646-15.392 2.308-21.554 13.748-14.275 45.61-25.87 53.112-26.948 10.778-1.529 132 4.704 132 4.704" fill="#000"/><path d="M132.917 83.298h15s2.992 3.69 23.996 3.846l20.004 12.154-16 13-47 2 4-31z" fill="#A80000"/><path d="M333.886 83.092s9.256 6.145 12.497 16.172c1.753 5.425 3.445 12.452 3.434 16.947-.013 4.715 2.512 7.649 7.18 7.645 2.854-.002 5.954-.764 8.56-3.204 4.147-3.886 10.185-10.42 10.225-16.832.027-4.29-30.596-40.234-30.596-40.234l-11.3 19.506z" fill="#FC7575"/><path d="M333.886 83.092l11.3-19.506s3.602 4.226 8.331 9.952c-1.492 7.434-4.334 15.188-9.82 19.982-4.025-6.571-9.81-10.428-9.81-10.428" fill="#FD5E5A"/><path d="M310.877 22.113s-5.42 4.36-6.563 12.198c-1.14 7.838 4.125 16.582 4.196 23.177.07 6.595 12.53 37.941 27.555 30.437 15.022-7.505 16.623-32.159 16.565-37.517-.058-5.358-10.675-23.11-19.702-27.388-9.026-4.278-22.051-.907-22.051-.907" fill="#FC7575"/><path d="M319.316 54.167c.179 4.133-.038 9.156-.407 13.301 1.371.56 3.123.798 4.693.394-2.428 1.28-5.24.087-5.406.076.164-3.425.205-7.99 1.12-13.77M317.315 47.758s-2.873-2.15-5.94-2.33c-3.067-.179-6.673 4.288-6.673 4.288s4.144-3.469 6.199-3.253c2.053.214 4.226 1.637 4.226 1.637l2.188-.342z" fill="#510B5E"/><path d="M331.69 73.34c-7.478 3.537-10.37 3.573-13.079 3.206 4.08 2.77 10.49.438 13.079-3.206" fill="#FFF"/><path d="M328.688 52.094c.414 1.228 1.615 1.93 2.687 1.57 1.07-.362 1.604-1.651 1.191-2.88-.412-1.228-1.615-1.931-2.685-1.57-1.071.362-1.605 1.65-1.193 2.88" fill="#510B5E"/><path d="M337.986 51.714c-8.766-6.54-10.77-.37-13.189.438 2.043-.21 3.983-2.791 6.3-2.572 1.89.159 4.89 1.392 6.89 2.134" fill="#42004A"/><path d="M311.63 54.407c.396 1.233 1.394 1.992 2.23 1.694.835-.298 1.194-1.54.798-2.772-.396-1.234-1.394-1.991-2.23-1.693-.836.297-1.193 1.539-.798 2.77" fill="#510B5E"/><path d="M318.124 54.248c-7.165-6.356-8.942-.161-10.966.69 1.702-.246 3.36-2.86 5.28-2.687 1.568.122 4.037 1.295 5.686 1.997" fill="#42004A"/><path d="M330.229 64.315c.707 2.11 3.52 3.063 6.28 2.13 2.763-.932 4.428-3.399 3.72-5.507-.708-2.109-3.521-3.064-6.283-2.13-2.761.931-4.426 3.398-3.717 5.507" fill="#FD5E5A"/><path d="M306.346 44.197c4.35-1.105 8.906 2.008 10.161 6.939 1.256 4.933-1.26 9.845-5.61 10.95-4.348 1.108-8.906-2.005-10.16-6.938-1.256-4.932 1.261-9.845 5.61-10.951m23.386-1.308c4.66-1.186 9.544 2.149 10.89 7.435 1.343 5.285-1.355 10.549-6.013 11.735-4.659 1.184-9.545-2.151-10.889-7.435-1.345-5.286 1.352-10.551 6.012-11.735m-18.26 21.456c4.772-1.214 7.856-5.9 7.678-11.087l1.788-.11c.066.694.186 1.392.363 2.09 1.685 6.619 7.93 10.764 13.922 9.239 5.994-1.525 9.5-8.15 7.817-14.77-1.685-6.616-7.93-10.761-13.924-9.237-4.64 1.18-7.79 5.419-8.192 10.346l-2.069.127a17.56 17.56 0 00-.092-.381c-1.57-6.177-7.399-10.044-12.99-8.621-5.594 1.423-8.866 7.605-7.295 13.78 1.571 6.178 7.4 10.046 12.993 8.624" fill="#2B374D"/><path d="M310.062 22.023c.692-2.606 3.63-10.24 14.568-11.838.36-.061.723-.115 1.087-.16 6.73-.835 13.45-2.126 20.26-1.182 3.98.552 8.056 1.96 11.35 4.33 4.044 2.909 7.952 6.306 8.844 11.036 1.632 8.648-1.592 18.509 2.008 26.688l.078.178c3.968 8.892.51 19.317-8.105 23.85-4.948 2.606-9.08 3.669-12.248-.713.01-4.772 11.14-22.107-1.535-31.922-.705.604.36 5.108-1.391 5.303-4.248.472-7.783-8.544-8.592-12.357-1.145-3.623-3.605-6.952-8.334-9.82-5.943-3.146-10.295-3.763-13.261-3.6a27.17 27.17 0 00-3.013.49c-1.051.293-1.674.599-1.907.593-.021-.067.035-.384.19-.876" fill="#510B5E"/><path d="M314.164 16.206s-8.494.082-14.688 6.44c-6.192 6.355-3.49 27.15.933 30.828 4.423 3.678-11.609 12.083-2.337 11.342 13.146-1.05 24.425-47.779 16.092-48.61" fill="#510B5E"/><path d="M344.776 45.771s.182-6.667 5.59-5.256c5.408 1.411 4.54 17.657-.229 16.468-4.769-1.19-5.36-11.212-5.36-11.212" fill="#FC7575"/><path d="M346.203 48.874s.05-7.228 2.827-5.543c2.776 1.682 3.622 8.688.924 9.35-2.698.661-3.751-3.807-3.751-3.807" fill="#FD5E5A"/><path d="M247.324 145.2c0-4.333.472-7.799 1.257-9.8 2.304-5.848 4.516-8.9 4.732-12.916l1.16.074c-.278 4.443-2.587 7.557-4.806 13.267-.7 1.721-1.19 5.15-1.172 9.374-.017 8.838 2.025 21.286 7.918 30.514l-.99.623c-6.052-9.52-8.1-22.128-8.1-31.137" fill="#212121"/><path d="M66.916 189.028c-5.96 10.429-13.776 39.104-13.776 39.104s48.044 21.979 52.515 26.443c4.465 4.468 7.571 40.355 50.66 26.074 25.321-8.4 20.96-39.18 20.96-39.18l-19.106-55.051-91.253 2.61z" fill="#002A68"/><path d="M60.773 227.61c-15.908 5.64-39.558 34.286-32.869 50.084 1.183 17.674 1.695 23.839 6.552 58.288 5 35.416 9.898 75.349 9.898 75.349s23.608 7.19 41.053-3.076c0 0 3.054-61.348.568-80.251-1.336-10.061.251-29.618 2.02-45.743.756-.29 1.507-.571 2.269-.862 17.882-6.723 31.772-39.213 31.772-39.213L60.773 227.61z" fill="#002A68"/><path d="M122.348 88.006c-16.875 4.024-20.937 3.248-29.758 7.187-8.845 3.947-4.078 7.209-4.078 7.209s-3.288 32.897-2.952 34.584c.665 3.315-18.53 33.773-27.364 86.003-1.24 7.358 34.138-9.242 72.627 1.534 1.854.519 22.094-112.225 22.094-112.225s-23-5-20.04-29.163l-10.529 4.87z" fill="#700000"/><path d="M210.888 104.18c-13.917-8.74-11.88 1.031-25.98-9.18 0 0-.582-.575-4.05 2.886-8.595 6.406-25.22 5.152-25.26 5.215-.392-.063-.819-.094-1.166-.204l-1.837 5.963c-5.864 11.677-14.674 31.344-16.387 40.738-2.04 11.29.638 29.246-2.44 35.406-3.076 6.157-25.593 35.602-18.348 36.438 2.167.253 6.024.856 10.227 1.553 16.073 4.516 49.681 18.771 50.086 16.411 2.56-14.875 1.456-49.039 12.586-68.735 9.812-17.336 28.336-62.86 22.57-66.492" fill="#A80000"/><path d="M150.508 287.647c19.918-10.543 25.674-28.467 8.697-42.729-18.121-15.235-56.49-1.65-56.49-1.65S87.534 271.71 90.15 284.45c-.216 16.138.262 12.624 2.492 48.067 2.457 39.156 6.336 81.785 6.336 81.785s24.678 11.211 45.052-3.267c0 0 9.15-97.91 7.343-116.953a93.505 93.505 0 00-.865-6.435" fill="#02499E"/><path d="M101.708 242.76s-15.215 28.427-12.604 41.179c-.233 16.122.25 12.618 2.457 48.047 2.429 39.133 6.268 81.757 6.268 81.757s6.256 2.832 15.135 3.802c-1.405-32.075-6.65-130.245-5.86-141.04.718-9.581 19.038-27.344 31.227-39.151-17.461-1.337-36.623 5.406-36.623 5.406" fill="#002A68"/><mask id="e" fill="#fff"><use xlink:href="#d"/></mask><path fill="#FFF" mask="url(#e)" d="M198.603 447.932h22.921V214.427h-22.921z"/><g mask="url(#e)"><g transform="translate(42 216.226)"><mask id="g" fill="#fff"><use xlink:href="#f"/></mask><path mask="url(#g)" d="M107.956.069L.431 122.604l384.857-2.658 87.039-117.79z"/></g></g><path d="M138.404 212.808c0 .56 1.086.976 2.44.976l376.28.011c1.343 0 2.417-.415 2.417-.967l-49.505-23.638c-2.503-.791-3.44-.972-4.778-.972l-288.599.039c-1.376 0-3.248.247-6.598 1.032l-31.657 23.519z" fill="#E4E8EF" mask="url(#e)"/><path d="M138.182 226.444c0 1.087 1.041 1.942 2.355 1.942h377.014c1.308 0 2.366-.855 2.366-1.942v-12.649c0-1.072-1.058-1.95-2.366-1.95H140.537c-1.314 0-2.355.878-2.355 1.95v12.65zM330.495 115.108c-2.56-.097-4.954-1.612-4.744-6.148 0-.415.012-.831.046-1.26.023-.586.023-1.1.023-1.565 0-1.626-.204-2.482-.375-2.775-.137-.196-.125-.196-.16-.185-.022 0-.062 0-.107-.011-.052 0-.125.01-.223.026a.889.889 0 01-.99-.746.876.876 0 01.757-.992c.108-.011.268-.037.456-.037 1.404 0 2.394 1.382 2.394 4.72 0 .479-.012 1.016-.023 1.65-.04.43-.052.819-.052 1.175.206 4.158.916 3.96 3.18 4.413h.074c.722.159 2.469-2.015 3.248-5.71.836-3.911 2.634-4.766 3.56-4.73.182 0 .296.035.353.035a.875.875 0 01.625 1.064.866.866 0 01-.99.654c-.107.013-1-.038-1.836 3.369-1.001 3.825-2.321 6.845-4.96 7.067-.051 0-.136 0-.256-.014" fill="#FFF" mask="url(#e)"/><path d="M327.076 126.33c-4.203-.17-5.966-4.537-5.977-10.013 0-2.298.307-4.903.938-7.775h.017a1.442 1.442 0 011.723-1.102 1.45 1.45 0 011.11 1.736c-.598 2.69-.876 5.099-.876 7.14.023 5.207 1.706 7.09 3.065 7.105h.148c3.225-.1 6.16-2.802 9.87-15.92.203-.772 1-1.224 1.778-1.002a1.442 1.442 0 011.007 1.785c-3.606 13.058-7.058 17.678-12.58 18.045h-.223z" fill="#001C49" mask="url(#e)"/><path d="M205.502 112.13l-14.629 35.028 19.629 30.407-17.325 16.938s19.389 6.571 21.556 6.153c16.165-3.077 20.402-12.055 22.717-15.393 8.941-8.043-15.021-56.198-31.948-73.133" fill="#FC7575" mask="url(#e)"/><path d="M208.898 102.128c6.62 1.954 10.454 15.007 12.763 21.548 2.542 7.187-.256 9.24-.256 9.24l-21.807 24.371-12.837-8.969s3.635-43.335 9.225-45.595c6.285-2.542 12.912-.595 12.912-.595" fill="#A80000" mask="url(#e)"/><path fill="#000" mask="url(#e)" d="M364.66 467.835h-5.58l4.66-142.157-57.145-23.871 67.706-31.73 106.645 9.266v38.63l15.01 139.952h-5.551l-28.922-139.951-78.621 7.704z"/><path d="M476.572 284.905c6.29-.003 5.528-6.11-.187-8.71l-40.788-12.527c-5.727-2.648-15.544-4.782-21.835-4.739l-95.2 14.501c-6.29.046-11.728 3.683-6.785 7.568l16.898.494c4.943 3.894 47.89 26.801 54.187 26.79l93.71-23.377z" fill="#000" mask="url(#e)"/><path d="M353.536 112.141c-6.444 5.605-23.593 34.764-30.065 35.633-6.456.857-39.444-6.644-39.444-6.644l-3.97 25.858 48.437 17.53s15.589-3.893 22.824-13.92c1.593-2.2 2.218-58.457 2.218-58.457" fill="#7CAD98" mask="url(#e)"/><path d="M287.115 256.936c-1.758 14.344-3.646 50.134.557 56.188 4.204 6.035 17.814 88.701 17.115 94.791-2.326 20.263-17.495 36.641-31.783 45.62 9.259 5.527 20.379 3.968 37.42-10.748 6.938-5.987 15.788-9.959 17.495-15.39 3.856-12.363-1.85-5.077-2.202-23.472-.352-18.399 12.758-72.01-.733-100.399-8.242-17.344-4.914-42.159-7.064-48.263-2.18-6.09-30.805 1.673-30.805 1.673" fill="#EAB6AC" mask="url(#e)"/><path d="M293.292 262.268c-1.77 14.347-1.428 52.323 2.787 58.37 4.22 6.074 17.825 88.716 17.12 94.803-2.31 20.266-17.49 36.653-31.777 45.623 9.265 5.54 20.396 3.973 37.442-10.767 6.905-5.957 15.76-9.932 17.484-15.37 3.856-12.354-1.848-5.066-2.213-23.463-.37-18.405 12.763-72.023-.728-100.4-8.263-17.346-4.913-42.178-7.075-48.267-2.167-6.09-33.04-.529-33.04-.529" fill="#FFDDD2" mask="url(#e)"/><path d="M379.682 79.537c-8.89 5.932-7.985 3.742-14.459 10.764-4.339 4.704-18.672 42.18-18.672 42.18-3.099 8.497-6.38 19.904-6.666 26.138-.41 8.764 5.011 17.108 8.782 20.444 3.76 3.35 8.054 17.211 9.453 22.594.574 2.156 2.502 10.315 4.635 19.347 1.154-1.22-73.633 34.647-80.219 39.194-6.586 4.569-16.09 93.92-16.09 93.92l76.112.191s-28.905-72.506 44.12-82.687c18.314-2.57 18.371-173.376-6.996-192.085" fill="#7CAD98" mask="url(#e)"/><path d="M431.867 211.628c-.9-8.66-5.881-27.822-16.437-69.925-5.433-21.675-12.121-45.78-38.398-64.086-8.401 5.586-7.298 5.005-13.065 11.136 5.324 4.044 17.21 12.176 16.886 19.891-1.893 42.987 15.022 91.37 16.933 96.975.398 6.085 1.313 14.847 0 18.28-4.345 11.265-71.232 27.027-95.473 43.053-8.333 5.5.95 62.676 1.945 87.433l46.878-.127s4.408-59.573 4.043-63.444c12.7-9.07 43.835-8.818 75.272-13.786 21.977-3.48 18.035-38.358 1.416-65.4" fill="#96BDAD" mask="url(#e)"/><path fill="#96BDAD" mask="url(#e)" d="M374.484 72.88l-18.406 20.634.939 14.208 27.642-24.65z"/><path d="M360.873 100.516l-12.501 4.496s-5.193 34.276-6.052 38.452c-.87 4.166 18.553-42.948 18.553-42.948" fill="#96BDAD" mask="url(#e)"/><path d="M337.985 110.037a1.46 1.46 0 01-.87-1.872c5.25-14.65 13.11-44.087 14.015-47.074 1.251-4.157 1.785-7.24 1.785-9.17-.159-2.386-.438-2.213-.779-2.25-.404-.026-1.394.294-2.656 1.123v.015a1.464 1.464 0 01-2.019-.43 1.457 1.457 0 01.432-2.015c1.513-.967 2.832-1.58 4.243-1.604 2.554 0 3.691 2.53 3.691 5.16 0 2.434-.626 5.688-1.905 10.005-.87 2.862-8.737 32.371-14.065 47.231a1.48 1.48 0 01-1.382.966c-.16 0-.33-.028-.49-.085" fill="#959BA5" mask="url(#e)"/><path d="M209.603 176.285c-2.56-2.571-14.22-20.976-14.89-25.154-2.042-12.828 15.14-31.305 27.716-20.015 3.27 2.929 15.397 31.311 15.908 33.873-4.612-2.056-12.313-2.568-18.985 2.565-6.666 5.139-9.75 8.731-9.75 8.731" fill="#0059DB" mask="url(#e)"/><path d="M205.752 130.095c5.188 7.77 16.933 30.532 16.933 30.532s8.464-4.875 15.651 1.282c3.083-1.029-13.855-34.385-13.855-34.385s-22.323-2.818-18.728 2.571" fill="#0089DD" mask="url(#e)"/><path d="M223.793 176.472a1.446 1.446 0 01-.233-2.042 1.443 1.443 0 012.053-.219c12.975 10.448 26.858 13.761 38.7 13.761 13.56.05 24.56-4.51 27.466-7.148 1.872-1.617 28.551-22.651 34.08-56.192l.012.013a1.437 1.437 0 011.66-1.2 1.436 1.436 0 011.2 1.665c-5.755 34.8-33.233 56.3-35.03 57.9-3.965 3.41-15.113 7.823-29.388 7.872-12.371.011-26.987-3.483-40.52-14.41" fill="#001C49" mask="url(#e)"/><path d="M210.194 202.616c.456-2.372 5.358-5.36 3.003-8.5-2.354-3.14-9.669-8.42-9.669-8.42s-11.199 3.003-13.315 4.444c-2.104 1.445-1.49 7.323.012 8.46 1.507 1.144 19.97 4.016 19.97 4.016" fill="#FD5E5A" mask="url(#e)"/><path d="M214.398 191.474c-1.154-1.641-4.136-4.954-6.12-4.422-1.98.525-2.764.375-2.031 2.065.75 1.692 5.16 7.308 7.462 8.076 1.536.517 2.44-3.27.689-5.72" fill="#FD5E5A" mask="url(#e)"/><path d="M214.978 191.09c-1.166-1.641-3.31-2.622-6.012-3.905-1.854-.881-2.878-.14-2.138 1.545.75 1.692 4.857 6.389 6.143 7.38 1.285.972 3.754-2.571 2.007-5.02M211.053 201.342c.011-1.797-2.298-5.582-3.725-7.576-1.428-1.985-2.396-8.133-3.8-8.07-1.41.059-1.655.104-1.928 2.829-.267 2.73 1.001 9.094 1.001 9.094l.848 5.407s-2.276-9.186-2.623-10.81c-.346-1.613 1.047-6.416-.244-7.402-1.29-.98-3.282 1.339-3.97 2.849-.688 1.505-1.843 8.08-1.854 8.973-.012.9.222 5.363.222 5.363s.278-10.176.358-11.464c.085-1.305 2.155-4.92.858-4.99-1.29-.088-4.15 2.483-4.77 4.49-.62 2.014-2.753 8.076-2.753 8.076s3.547-9.72 2.98-10.161c-.569-.432-6.427 3.706-7.412 6.788-.995 3.083 1.371 6.234 2.122 6.127 1.137.87 5.892 5.61 7.02 4.427 2.677.913 7.7 3.825 9.116 1.072 6.461 2.19 8.554-5.022 8.554-5.022" fill="#FF9494" mask="url(#e)"/><path d="M233.008 180.161l5.204 4.974-7.053 7.826-12.769-16.938s6.16 3.08 8.088 3.469c1.928.382 6.53.669 6.53.669" fill="#FD5E5A" mask="url(#e)"/><path d="M231.16 173.592c-2.667-1.22-7.963-2.683-10.141-2.057-.956.273-1.417.7-1.951 1.311-1.775 2.017-.08 5.651 3.753 7.412 3.81 1.746 8.395 1.911 10.188-.097 1.762-2.02 2.006-4.815-1.85-6.569" fill="#E4E8EF" mask="url(#e)"/><path d="M230.004 171.297c-3.833-1.75-8.383-1.54-10.141.469-1.768 2.014-.079 5.048 3.76 6.808 3.811 1.744 8.361 1.54 10.159-.466 1.757-2.022.078-5.053-3.778-6.811" fill="#FFF" mask="url(#e)"/><path d="M231.273 176.276c-1.53.88-9.168-.219-8.94-3.922 1.626-4.143 2.03-3.38 2.03-3.38l7.928 2.48-1.018 4.822z" fill="#E4E8EF" mask="url(#e)"/><path d="M232.29 171.453c-.231.745-2.2.802-4.39.108-2.178-.674-4.061-1.908-3.833-2.656.233-.748 2.492-.723 4.68-.045 2.185.688 3.778 1.84 3.544 2.593" fill="#FFF" mask="url(#e)"/><path d="M273.418 141.834c-1.348-1.479-6.317-4.903-8.9-6.094-3.27-1.505-11.58-3.447-13.684-3.109-3.749.595-7.219 17.59-2.197 22.327 5.024 4.747 19.264 3.12 22.61 2.588 3.32-.526 8.667 2.315 8.667 2.315l2.935-14.717-9.43-3.31z" fill="#FD5E5A" mask="url(#e)"/><path d="M273.31 137.634c-1.466-2.266-2.53-6.398-5.67-6.916-3.11-.53-8.35-3.168-9.333-3.907-.99-.748-2.861 2.477-.796 4.683 1.536 1.63 3.594 2.69 4.499 4.26.909 1.573 2.878 5.688 5.72 6.828 2.856 1.133 12.173 7.36 12.697 8.475.523 1.118.409-6.771.409-6.771l-7.525-6.652z" fill="#FC7575" mask="url(#e)"/><path d="M277.605 139.096c-.864 4.734-4.454 21.712-4.454 21.712l7.792 1.667 3.624-21.423-6.962-1.956z" fill="#3E574C" mask="url(#e)"/><path d="M260.013 140.475c.284 1.153-.137 2.257-.944 2.452-.808.204-1.69-.577-1.974-1.732l-5.318-21.566c-.29-1.163.131-2.26.94-2.463.812-.195 1.693.58 1.984 1.742l5.312 21.567z" fill="#212121" mask="url(#e)"/><path d="M249.718 106.374c2.366.66 4.055 4.46 4.937 8.022.841 3.447 1.848 7.767.188 9.52-.552.58-2.86-.04-3.612.146-3.032.746-6.393-2.376-7.53-6.964-1.127-4.592.403-8.912 3.43-9.66.67-.168 1.91-1.254 2.587-1.064" fill="#000" mask="url(#e)"/><path d="M259.996 112.95c1.49 6.017.682 11.515-2.873 12.402-3.554.868-7.649-3.3-9.122-9.314-1.49-6.012.187-11.6 3.753-12.482 3.55-.878 6.758 3.37 8.242 9.394" fill="#000" mask="url(#e)"/><path d="M258.199 113.52c1.268 5.123.654 9.665-1.354 10.156-2.013.498-4.652-3.241-5.921-8.361-1.257-5.11-.654-9.657 1.354-10.157 2.008-.495 4.664 3.253 5.92 8.363" fill="#FFF" mask="url(#e)"/><path d="M269.079 147.67c1.525 7.69-1.121 14.686-5.898 15.635-4.794.95-9.896-4.52-11.415-12.219-1.52-7.697 1.126-14.7 5.915-15.645 4.772-.936 9.886 4.536 11.398 12.23" fill="#212121" mask="url(#e)"/><path d="M251.743 150.992c1.496 7.6 6.49 12.996 11.21 12.237l-6-27.614c-4.317 1.467-6.655 8.09-5.21 15.377" fill="#000" mask="url(#e)"/><path d="M251.72 132.507c1.423 2.949 7.054 8.01 5.552 9.663-1.507 1.644-5.78-1.505-6.974-2.366-1.2-.87-2.922-.594-3.134-4.092-.204-3.512 4.557-3.205 4.557-3.205" fill="#FC7575" mask="url(#e)"/><path d="M247.495 137.773c-1.951 1.021-3.22 1.931-1.587 5.557 1.643 3.63 2.872 3.606 6.54 4.44 3.68.836 8.219-1.175 6.57-2.677-1.655-1.513-4.613-1.704-6.666-3.495-2.054-1.794-4.857-3.825-4.857-3.825" fill="#FC7575" mask="url(#e)"/><path d="M245.908 143.33c-.062 1.777-2.27 3.538-.785 6.142 1.46 2.583 4.806 2.418 6.92 2.424 2.123.028 6.15.366 5.172-1.883-.546-1.326-1.161-.697-4.66-1.558-3.793-.925-6.647-5.125-6.647-5.125" fill="#FC7575" mask="url(#e)"/><path d="M246.823 151.318c-.545.973-.636 3.535.939 4.516 1.57.993 1.888.828 5.147.151 2.077-.435 3.265-.526 3.02-2.08-.12-.786-.733-1.096-3.936-1.287-1.575-.09-5.17-1.3-5.17-1.3" fill="#FC7575" mask="url(#e)"/><g mask="url(#e)"><g transform="translate(234 174.226)"><mask id="i" fill="#fff"><use xlink:href="#h"/></mask><path mask="url(#i)" d="M138.812-.001l-46.202 58-92.368-.517 38.369-37.669 51.946-4.922z"/></g></g><path d="M266.247 181.794c-3.828-.712-12.542-9.408-12.542-9.408s-14.088-2.961-16.55-2.588c-2.43.338-12.007 1.223-9.562 2.6 2.424 1.407 11.319.858 11.319.858l7.127 1.229s-17.234-.498-18.633.187c-1.223.62-.28 1.508 2.104 2.426.336.123.677.25 1.04.37 3.135 1.04 14.283.674 14.283.674s-16.034-.692-14.982.534c1.047 1.22 2.36 1.66 5.67 2.176 3.306.506 8.97 1.812 10 2.167 1.052.336 5.062 4.004 9.157 6.518 4.084 2.523 17.934 4.502 17.934 4.502l-2.35-11.225-4.015-1.02z" fill="#FF9494" mask="url(#e)"/><path fill="#3E574C" mask="url(#e)" d="M278.89 177.305l-13.167 1.177-2.49 21.023 19.252.383z"/><path d="M381.024 97.243c18.986-.512 13.03 22 8.72 37.468-11.16 40.032-24.765 51.706-39.008 57.479-3.78 1.533-13.337 6.16-70.822 15.394l-8.885-30.543s60.575-14.532 62.783-16.153c6.602-4.86 27.13-38.573 30.78-48.246 5.398-14.244 16.433-15.399 16.433-15.399" fill="#96BDAD" mask="url(#e)"/><path d="M166.137 81.779s10.638 8.279 24.67 2.18c14.032-6.1 22.645-24.688 11.812-47.835C191.785 12.977 181.32 4.683 181.32 4.683l-15.183 77.096z" fill="#000" mask="url(#e)"/><path d="M173.242 4.683s6.067-.194 8.079 0c18.798 1.801 32.247 31.397 23.979 44.481-8.204 12.981-16.12 6.057-16.181 6.012 11 18.511-8.921 39.157-20.388 27.62-6.945-6.988 4.51-78.113 4.51-78.113" fill="#542360" mask="url(#e)"/><path d="M171.25 63.094s-3.086 16.492.667 25.204c2.032 4.714-11.042 18.181-18 19-5.896.694-9-10-9-15 0-10.476 5.19-32.798 5.19-32.798l21.143 3.594z" fill="#F98A8A" mask="url(#e)"/><path d="M150.107 59.5l21.135 4.965s-.908 4.949-1.32 11.41c-.554.183-1.121.342-1.704.476-7.291 1.683-15.271-1.877-20.734-7.431 1.367-5.547 2.623-9.42 2.623-9.42" fill="#FD5E5A" mask="url(#e)"/><path d="M181.32 4.683s9.063 9.568 7.446 21.47c-1.616 11.9.325 18.682.351 22.928.026 4.246-6.297 17.307-18.943 19.933-12.647 2.626-27.35-8.89-27.412-19.364-.065-10.475 1.654-28.744 9.623-36.862 7.97-8.118 28.935-8.105 28.935-8.105" fill="#F98A8A" mask="url(#e)"/><path d="M167.484 53.664c-4.98-1.147-7.071-3.32-6.405-2.933-.402-.39-.987.22-.587.61.669.269 2.838 3.62 14.01 4.02.56.02.588-.828.03-.85 0 0-4.282-.241-7.048-.847M168.298 57.517a.428.428 0 00.432-.381.431.431 0 00-.378-.467c-.921-.095-3.49-.521-4.272-1.352-.652-.72-2.407 1.49 4.183 2.199l.035.001" fill="#18287D" mask="url(#e)"/><path d="M178.257 47.204c0 1.587 2.066 2.875 4.616 2.875 2.549 0 4.615-1.288 4.615-2.875 0-1.588-2.066-2.875-4.615-2.875-2.55 0-4.616 1.287-4.616 2.875" fill="#FD5E5A" mask="url(#e)"/><path d="M181.32 4.683s-27.735 20.344-34.133 32.519c-6.397 12.177 9.085 29.703 7.72 36.507-1.366 6.802-23.824 22.015-32.459 13.434-8.635-8.582-2.105-22.068-2.105-22.068s-16.319.1-15.277-13.495c1.043-13.594 12.238-32.005 27.33-40.651C164.78-7.623 181.32 4.683 181.32 4.683" fill="#542360" mask="url(#e)"/><path d="M105.21 43.118c11.81-37.514 56.939-51.26 76.11-38.436-19.698-10.18-61.724 4.79-73.195 39.35-1.4 4.786-2.644 10.14-.334 14.074 2.297 4 7.725 5.718 12.547 6.01l1.458.088c-.068.68-7.69 13.51.652 22.94-5.842-5.166-6.072-13.945-3.472-21.17-4.94-.306-10.26-1.772-13.456-6.432-3.117-4.64-1.837-10.989-.31-16.424" fill="#34173A" mask="url(#e)"/></g></g></g></svg>