<?xml version="1.0" encoding="UTF-8"?>
<svg width="299px" height="224px" viewBox="0 0 299 224" version="1.1" xmlns="http://www.w3.org/2000/svg" xmlns:xlink="http://www.w3.org/1999/xlink">
    <!-- Generator: Sketch 61.1 (89650) - https://sketch.com -->
    <title>mi-spreekuren</title>
    <desc>Created with Sketch.</desc>
    <defs>
        <linearGradient x1="23.9173266%" y1="68.6503384%" x2="83.9996625%" y2="28.9398055%" id="linearGradient-1">
            <stop stop-color="#EEEEEE" offset="0%"></stop>
            <stop stop-color="#D8D8D8" offset="100%"></stop>
        </linearGradient>
        <rect id="path-2" x="0" y="0" width="299" height="224"></rect>
        <path d="M14.0405294,0.236844444 C6.46023529,0.236844444 0.313823529,6.39999111 0.313823529,14.0023733 L0.313823529,14.0023733 L0.313823529,131.816587 C0.313823529,139.418969 6.45958824,145.581467 14.0398824,145.581467 L14.0398824,145.581467 L161.654059,145.581467 C169.234353,145.581467 175.380118,139.418969 175.380118,131.816587 L175.380118,131.816587 L175.380118,14.0030222 C175.380118,6.40064 169.234353,0.236844444 161.652765,0.236844444 L161.652765,0.236844444 L14.0405294,0.236844444 Z" id="path-4"></path>
        <linearGradient x1="49.4935785%" y1="80.7828062%" x2="50.6052261%" y2="13.2170485%" id="linearGradient-6">
            <stop stop-color="#181D66" offset="0%"></stop>
            <stop stop-color="#2D31BA" offset="100%"></stop>
        </linearGradient>
        <path d="M13.5919805,0.30515493 C6.3940856,0.30515493 0.558832685,6.12253521 0.558832685,13.299831 L0.558832685,13.299831 L0.558832685,124.519408 C0.558832685,131.696056 6.3934358,137.514085 13.5913307,137.514085 L13.5913307,137.514085 L153.750467,137.514085 C160.948362,137.514085 166.783615,131.696056 166.783615,124.519408 L166.783615,124.519408 L166.783615,13.2991831 C166.783615,6.12253521 160.948362,0.30515493 153.750467,0.30515493 L153.750467,0.30515493 L13.5919805,0.30515493 Z" id="path-7"></path>
        <linearGradient x1="49.493463%" y1="80.428986%" x2="50.6051154%" y2="13.6394805%" id="linearGradient-9">
            <stop stop-color="#DB5949" offset="0%"></stop>
            <stop stop-color="#EF895D" offset="100%"></stop>
        </linearGradient>
        <path d="M12.1103896,0.0064921466 C5.63376623,0.0064921466 0.383116883,5.25604188 0.383116883,11.7319581 L0.383116883,11.7319581 L0.383116883,112.086911 C0.383116883,118.562178 5.63376623,123.812377 12.111039,123.812377 L12.111039,123.812377 L138.231169,123.812377 C144.708442,123.812377 149.958442,118.562827 149.958442,112.086911 L149.958442,112.086911 L149.958442,11.7306597 C149.958442,5.25604188 144.708442,0.0064921466 138.231818,0.0064921466 L138.231818,0.0064921466 L12.1103896,0.0064921466 Z" id="path-10"></path>
        <linearGradient x1="48.1990807%" y1="80.3032919%" x2="52.1066518%" y2="14.5527806%" id="linearGradient-12">
            <stop stop-color="#FFAA8C" offset="0%"></stop>
            <stop stop-color="#FFFFD8" offset="100%"></stop>
        </linearGradient>
        <path d="M34.487013,1.96474603 C30.4597403,3.12055556 25.5844156,4.27636508 18.4461039,2.78539683 L18.4461039,2.78539683 C8.71948052,0.754269841 3.61428571,4.76055556 0.421428571,10.6300635 L0.421428571,10.6300635 C-1.00519481,13.2508095 24.8961039,76.2417778 29.2935065,76.2417778 L29.2935065,76.2417778 C33.6915584,76.2417778 72.6831169,81.5307778 75.9084416,81.5307778 L75.9084416,81.5307778 C79.1331169,81.5307778 97.6032468,70.9534286 97.6032468,70.9534286 L97.6032468,70.9534286 C108.89026,59.6400317 68.8720779,54.4987619 60.3694805,45.9779206 L60.3694805,45.9779206 C51.8681818,37.4564286 52.4545455,3.66722222 45.1253247,1.02239683 L45.1253247,1.02239683 C43.9707792,0.605888889 42.8668831,0.437333333 41.7720779,0.437333333 L41.7720779,0.437333333 C39.4409091,0.437333333 37.1493506,1.20071429 34.487013,1.96474603" id="path-13"></path>
        <linearGradient x1="59.874845%" y1="69.1423018%" x2="19.2215135%" y2="14.656164%" id="linearGradient-15">
            <stop stop-color="#DB5949" offset="0%"></stop>
            <stop stop-color="#EF895D" offset="100%"></stop>
        </linearGradient>
        <path d="M20.9560339,4.36735537 C18.8093559,10.129686 20.2591525,38.4849421 19.6968814,40.4065785 L19.6968814,40.4065785 C13.9814237,59.9413884 3.90498305,68.8088926 1.19538983,72.4426612 L1.19538983,72.4426612 C0.545525424,73.3135537 0.42379661,74.0187769 0.598983051,74.6305289 L0.598983051,74.6305289 L0.602847458,74.6343967 C9.44589831,80.1936694 19.4502034,77.8124132 28.0433559,64.7064793 L28.0433559,64.7064793 C36.0948475,52.4256694 37.7391525,6.33540496 37.914339,0.575008264 L37.914339,0.575008264 C36.6680678,0.49185124 35.1422712,0.422231405 33.5192203,0.422231405 L33.5192203,0.422231405 C28.3344746,0.422231405 22.1604407,1.13196694 20.9560339,4.36735537" id="path-16"></path>
        <linearGradient x1="-89.846558%" y1="49.9997994%" x2="-88.3872504%" y2="49.9997994%" id="linearGradient-18">
            <stop stop-color="#41117B" offset="0%"></stop>
            <stop stop-color="#260A44" offset="100%"></stop>
        </linearGradient>
        <path d="M12.3660526,2.0983125 C3.89743421,9.6875 -3.89356579,57.3428958 3.48028947,60.1645417 L3.48028947,60.1645417 C10.8535,62.9874792 46.7724342,60.8852917 46.7724342,60.8852917 L46.7724342,60.8852917 L48.5396579,49.8202292 C48.5396579,49.8202292 41.3031316,47.9737917 27.5115658,47.1891042 L27.5115658,47.1891042 C16.7193158,46.5742708 15.3550526,44.5670208 15.2718816,43.7229167 L15.2718816,43.7229167 C15.3008947,43.7171042 24.3536447,4.68875 18.8746711,1.70564583 L18.8746711,1.70564583 C18.1596579,1.31620833 17.0945526,0.59675 15.7341579,0.59675 L15.7341579,0.59675 C14.7573816,0.59675 13.6284474,0.967458333 12.3660526,2.0983125" id="path-19"></path>
        <linearGradient x1="52.9253477%" y1="5.74333998%" x2="49.0550396%" y2="102.095463%" id="linearGradient-21">
            <stop stop-color="#41117B" offset="0%"></stop>
            <stop stop-color="#67468E" offset="100%"></stop>
        </linearGradient>
    </defs>
    <g id="Symbols" stroke="none" stroke-width="1" fill="none" fill-rule="evenodd">
        <g id="Spreekuren">
            <g id="spreekuren">
                <g id="mi-spreekuren">
                    <mask id="mask-3" fill="white">
                        <use xlink:href="#path-2"></use>
                    </mask>
                    <use id="Mask" fill="url(#linearGradient-1)" xlink:href="#path-2"></use>
                    <g id="Group-133" mask="url(#mask-3)">
                        <g transform="translate(-33.000000, 8.000000)">
                            <g id="Group-10" transform="translate(134.000000, 0.000000)">
                                <mask id="mask-5" fill="white">
                                    <use xlink:href="#path-4"></use>
                                </mask>
                                <g id="Clip-9"></g>
                                <path d="M14.0405294,0.236844444 C6.46023529,0.236844444 0.313823529,6.39999111 0.313823529,14.0023733 L0.313823529,14.0023733 L0.313823529,131.816587 C0.313823529,139.418969 6.45958824,145.581467 14.0398824,145.581467 L14.0398824,145.581467 L161.654059,145.581467 C169.234353,145.581467 175.380118,139.418969 175.380118,131.816587 L175.380118,131.816587 L175.380118,14.0030222 C175.380118,6.40064 169.234353,0.236844444 161.652765,0.236844444 L161.652765,0.236844444 L14.0405294,0.236844444 Z" id="Fill-8" fill="url(#linearGradient-6)" mask="url(#mask-5)"></path>
                            </g>
                            <g id="Group-13" transform="translate(138.000000, 4.000000)">
                                <mask id="mask-8" fill="white">
                                    <use xlink:href="#path-7"></use>
                                </mask>
                                <g id="Clip-12"></g>
                                <path d="M13.5919805,0.30515493 C6.3940856,0.30515493 0.558832685,6.12253521 0.558832685,13.299831 L0.558832685,13.299831 L0.558832685,124.519408 C0.558832685,131.696056 6.3934358,137.514085 13.5913307,137.514085 L13.5913307,137.514085 L153.750467,137.514085 C160.948362,137.514085 166.783615,131.696056 166.783615,124.519408 L166.783615,124.519408 L166.783615,13.2991831 C166.783615,6.12253521 160.948362,0.30515493 153.750467,0.30515493 L153.750467,0.30515493 L13.5919805,0.30515493 Z" id="Fill-11" fill="url(#linearGradient-9)" mask="url(#mask-8)"></path>
                            </g>
                            <g id="Group-16" transform="translate(147.000000, 11.000000)">
                                <mask id="mask-11" fill="white">
                                    <use xlink:href="#path-10"></use>
                                </mask>
                                <g id="Clip-15"></g>
                                <path d="M12.1103896,0.0064921466 C5.63376623,0.0064921466 0.383116883,5.25604188 0.383116883,11.7319581 L0.383116883,11.7319581 L0.383116883,112.086911 C0.383116883,118.562178 5.63376623,123.812377 12.111039,123.812377 L12.111039,123.812377 L138.231169,123.812377 C144.708442,123.812377 149.958442,118.562827 149.958442,112.086911 L149.958442,112.086911 L149.958442,11.7306597 C149.958442,5.25604188 144.708442,0.0064921466 138.231818,0.0064921466 L138.231818,0.0064921466 L12.1103896,0.0064921466 Z" id="Fill-14" fill="url(#linearGradient-12)" mask="url(#mask-11)"></path>
                            </g>
                            <g id="Group-51" transform="translate(154.000000, 18.000000)">
                                <polygon id="Fill-17" fill="#B9BCFC" points="60.4806303 81.1322581 78.4756777 81.1322581 78.4756777 63.9187097 60.4806303 63.9187097"></polygon>
                                <polygon id="Fill-19" fill="#B9BCFC" points="60.4806303 61.4909677 78.4756777 61.4909677 78.4756777 45.8954839 60.4806303 45.8954839"></polygon>
                                <polygon id="Fill-20" fill="#B9BCFC" points="80.4995118 25.443871 98.4945592 25.443871 98.4945592 17.1877419 80.4995118 17.1877419"></polygon>
                                <polygon id="Fill-21" fill="#B9BCFC" points="80.4995118 43.4670968 98.4945592 43.4670968 98.4945592 27.8722581 80.4995118 27.8722581"></polygon>
                                <polygon id="Fill-22" fill="#B9BCFC" points="40.4610995 61.4909677 58.4561469 61.4909677 58.4561469 45.8954839 40.4610995 45.8954839"></polygon>
                                <polygon id="Fill-23" fill="#B9BCFC" points="60.4806303 43.4670968 78.4756777 43.4670968 78.4756777 27.8722581 60.4806303 27.8722581"></polygon>
                                <polygon id="Fill-24" fill="#B9BCFC" points="80.4995118 81.1322581 98.4945592 81.1322581 98.4945592 63.9187097 80.4995118 63.9187097"></polygon>
                                <polygon id="Fill-25" fill="#B9BCFC" points="60.4806303 25.443871 78.4756777 25.443871 78.4756777 17.1877419 60.4806303 17.1877419"></polygon>
                                <polygon id="Fill-26" fill="#B9BCFC" points="100.519043 61.4909677 118.513441 61.4909677 118.513441 45.8954839 100.519043 45.8954839"></polygon>
                                <polygon id="Fill-27" fill="#B9BCFC" points="0.0857061611 61.4909677 18.4183839 61.4909677 18.4183839 45.8954839 0.0857061611 45.8954839"></polygon>
                                <polygon id="Fill-28" fill="#B9BCFC" points="0.0857061611 43.4670968 18.4183839 43.4670968 18.4183839 27.8722581 0.0857061611 27.8722581"></polygon>
                                <polygon id="Fill-29" fill="#B9BCFC" points="0.0857061611 81.1322581 18.4183839 81.1322581 18.4183839 63.9187097 0.0857061611 63.9187097"></polygon>
                                <polygon id="Fill-30" fill="#B9BCFC" points="120.537924 25.443871 136.733142 25.443871 136.733142 17.1877419 120.537924 17.1877419"></polygon>
                                <polygon id="Fill-31" fill="#B9BCFC" points="80.4995118 61.4909677 98.4945592 61.4909677 98.4945592 45.8954839 80.4995118 45.8954839"></polygon>
                                <polygon id="Fill-32" fill="#B9BCFC" points="100.519043 43.4670968 118.513441 43.4670968 118.513441 27.8722581 100.519043 27.8722581"></polygon>
                                <polygon id="Fill-33" fill="#B9BCFC" points="40.4610995 81.1322581 58.4561469 81.1322581 58.4561469 63.9187097 40.4610995 63.9187097"></polygon>
                                <polygon id="Fill-34" fill="#B9BCFC" points="100.519043 81.1322581 118.513441 81.1322581 118.513441 63.9187097 100.519043 63.9187097"></polygon>
                                <polygon id="Fill-35" fill="#B9BCFC" points="0.0857061611 99.7490323 18.4183839 99.7490323 18.4183839 83.5606452 0.0857061611 83.5606452"></polygon>
                                <polygon id="Fill-36" fill="#B9BCFC" points="100.519043 25.443871 118.513441 25.443871 118.513441 17.1877419 100.519043 17.1877419"></polygon>
                                <polygon id="Fill-37" fill="#B9BCFC" points="120.537924 61.4909677 136.733142 61.4909677 136.733142 45.8954839 120.537924 45.8954839"></polygon>
                                <polygon id="Fill-38" fill="#B9BCFC" points="120.538573 81.1322581 136.733791 81.1322581 136.733791 63.9187097 120.538573 63.9187097"></polygon>
                                <polygon id="Fill-39" fill="#B9BCFC" points="0.0857061611 25.443871 18.4183839 25.443871 18.4183839 17.1877419 0.0857061611 17.1877419"></polygon>
                                <polygon id="Fill-40" fill="#B9BCFC" points="120.537924 43.4670968 136.733142 43.4670968 136.733142 27.8722581 120.537924 27.8722581"></polygon>
                                <polygon id="Fill-41" fill="#B9BCFC" points="20.442218 81.1322581 38.4372654 81.1322581 38.4372654 63.9187097 20.442218 63.9187097"></polygon>
                                <polygon id="Fill-42" fill="#B9BCFC" points="20.442218 43.4670968 38.4372654 43.4670968 38.4372654 27.8722581 20.442218 27.8722581"></polygon>
                                <polygon id="Fill-43" fill="#B9BCFC" points="60.4806303 99.7490323 78.4756777 99.7490323 78.4756777 83.5606452 60.4806303 83.5606452"></polygon>
                                <polygon id="Fill-44" fill="#B9BCFC" points="40.4610995 43.4670968 58.4561469 43.4670968 58.4561469 27.8722581 40.4610995 27.8722581"></polygon>
                                <polygon id="Fill-45" fill="#B9BCFC" points="40.4610995 25.443871 58.4561469 25.443871 58.4561469 17.1877419 40.4610995 17.1877419"></polygon>
                                <polygon id="Fill-46" fill="#B9BCFC" points="20.442218 61.4909677 38.4372654 61.4909677 38.4372654 45.8954839 20.442218 45.8954839"></polygon>
                                <polygon id="Fill-47" fill="#B9BCFC" points="20.442218 25.443871 38.4372654 25.443871 38.4372654 17.1877419 20.442218 17.1877419"></polygon>
                                <polygon id="Fill-48" fill="#B9BCFC" points="40.4610995 99.7490323 58.4561469 99.7490323 58.4561469 83.5606452 40.4610995 83.5606452"></polygon>
                                <polygon id="Fill-49" fill="#B9BCFC" points="20.442218 99.7490323 38.4372654 99.7490323 38.4372654 83.5606452 20.442218 83.5606452"></polygon>
                                <polygon id="Fill-50" fill="#B9BCFC" points="14.8680711 4.93806452 124.677142 4.93806452 124.677142 0.0819354839 14.8680711 0.0819354839"></polygon>
                            </g>
                            <g id="Group-61" transform="translate(53.000000, 193.000000)">
                                <path d="M83.8837683,0.750864706 L84.8445484,2.3601 C86.210617,4.64680588 85.4557184,7.60904118 83.161241,8.96398235 L64.0699462,20.2415706 L57.6947434,17.1745118 L83.8837683,0.750864706 Z" id="Fill-55" fill="#3A0027"></path>
                                <polygon id="Fill-57" fill="#542360" points="37.1313963 81.4360588 41.5513729 81.4360588 41.5513729 12.3599412 37.1313963 12.3599412"></polygon>
                            </g>
                            <g id="Group-64" transform="translate(38.000000, 128.000000)">
                                <mask id="mask-14" fill="white">
                                    <use xlink:href="#path-13"></use>
                                </mask>
                                <g id="Clip-63"></g>
                                <path d="M34.487013,1.96474603 C30.4597403,3.12055556 25.5844156,4.27636508 18.4461039,2.78539683 L18.4461039,2.78539683 C8.71948052,0.754269841 3.61428571,4.76055556 0.421428571,10.6300635 L0.421428571,10.6300635 C-1.00519481,13.2508095 24.8961039,76.2417778 29.2935065,76.2417778 L29.2935065,76.2417778 C33.6915584,76.2417778 72.6831169,81.5307778 75.9084416,81.5307778 L75.9084416,81.5307778 C79.1331169,81.5307778 97.6032468,70.9534286 97.6032468,70.9534286 L97.6032468,70.9534286 C108.89026,59.6400317 68.8720779,54.4987619 60.3694805,45.9779206 L60.3694805,45.9779206 C51.8681818,37.4564286 52.4545455,3.66722222 45.1253247,1.02239683 L45.1253247,1.02239683 C43.9707792,0.605888889 42.8668831,0.437333333 41.7720779,0.437333333 L41.7720779,0.437333333 C39.4409091,0.437333333 37.1493506,1.20071429 34.487013,1.96474603" id="Fill-62" fill="url(#linearGradient-15)" mask="url(#mask-14)"></path>
                            </g>
                            <g id="Group-84" transform="translate(38.000000, 85.000000)">
                                <path d="M0.620443838,54.6873529 C0.620443838,54.6873529 26.7738604,115.831824 37.8817465,115.831824 C48.9896326,115.831824 77.9269805,121.966588 79.3888682,126.640941 C80.8507559,131.315294 70.6194844,125.179882 62.7280101,125.179882 C54.835241,125.179882 38.4663721,124.011941 29.4049992,119.921235 C20.3436264,115.831824 -1.80675585,73.7076471 0.620443838,54.6873529" id="Fill-65" fill="#3A0027"></path>
                                <polygon id="Fill-67" fill="#846D75" points="123.461544 214.524471 129.469657 214.524471 129.469657 77.8378235 123.461544 77.8378235"></polygon>
                                <polygon id="Fill-69" fill="#583428" points="123.461544 84.8862353 129.469657 84.8862353 129.469657 77.8378235 123.461544 77.8378235"></polygon>
                                <polygon id="Fill-70" fill="#846D75" points="212.112925 214.524471 218.12039 214.524471 218.12039 77.8378235 212.112925 77.8378235"></polygon>
                                <polygon id="Fill-71" fill="#583428" points="212.112925 84.8862353 218.12039 84.8862353 218.12039 77.8378235 212.112925 77.8378235"></polygon>
                                <path d="M113.873167,59.0657412 L106.144197,55.6557412 L106.144844,55.6563882 C103.129782,54.1526235 99.8162559,54.0206235 98.1517239,53.7456235 L98.150429,53.7449765 C96.9242044,53.5430941 95.4836817,53.3224471 93.8133229,53.0752706 C93.1264041,55.4195647 92.3384867,57.8059176 92.2614431,60.3967412 C92.9962715,60.2990353 93.7200936,60.2065059 94.4231981,60.1243294 C97.7652106,59.7341529 105.191833,60.2738 107.499906,63.6669765 C109.809275,67.0601529 109.784025,69.3882706 110.516264,69.1527412 C111.249797,68.9172118 110.56741,65.3040353 109.446716,63.5453294 C108.327317,61.7872706 107.690897,60.2873882 107.690897,60.2873882 C107.690897,60.2873882 110.682652,63.7536824 111.139087,65.6243294 C111.594228,67.4949765 112.55436,69.4057412 113.01209,69.2588588 C113.470468,69.1113294 112.469548,65.7990353 112.079797,63.8093294 C111.814353,62.4524471 111.401942,61.2935647 110.886591,60.2938588 L113.130569,61.3738 C113.130569,61.3738 116.347629,66.2875647 116.649977,65.1034471 C116.951677,63.9199765 113.873167,59.0657412 113.873167,59.0657412" id="Fill-72" fill="#FD5E5A"></path>
                                <path d="M85.7215351,51.9152235 C70.4299828,49.7540471 66.9144602,51.4228118 66.9144602,44.5620471 C66.9144602,35.2554 77.2635632,7.39175294 72.6046864,4.48581176 C71.529312,3.81545882 69.5540156,2.16998824 66.9144602,4.87987059 C57.908766,14.1263412 50.0852715,48.0309294 57.0599906,59.1933412 C61.3213479,66.0114 79.0705289,62.1465176 92.2618315,60.3962235 C92.3388752,57.8060471 93.1267925,55.4196941 93.813064,53.0754 C91.5859189,52.7460471 88.9360047,52.3688118 85.7215351,51.9152235" id="Fill-73" fill="#000000"></path>
                                <path d="M93.2832754,53.6441 L102.158837,57.0528059 C102.158837,57.0528059 105.695725,61.9076882 105.349352,63.0911588 C105.002332,64.2752765 101.306824,59.3615118 101.306824,59.3615118 L95.9403112,57.1116882 L93.2832754,53.6441 Z" id="Fill-74" fill="#D85B5B"></path>
                                <path d="M88.4218838,55.2769529 C88.4218838,55.2769529 92.6113768,59.7164235 92.6113768,60.6637176 C92.6113768,61.6110118 92.9823518,63.8608353 93.8117044,63.8608353 C94.6410569,63.8608353 94.6611271,59.9461294 94.6611271,58.7361294 C94.6611271,57.5267765 92.5673518,54.1523647 92.211915,54.1523647 C91.8571256,54.1523647 88.4218838,55.2769529 88.4218838,55.2769529" id="Fill-75" fill="#D85B5B"></path>
                                <path d="M135.995062,103.499206 C131.391864,91.0116176 70.3913963,77.8381471 70.3913963,77.8381471 L63.1130343,80.4160294 L56.5908658,89.1196176 L115.377137,108.726794 C115.377137,108.726794 108.900936,152.765618 101.730047,173.942559 C104.120991,176.031912 114.409236,176.937147 114.409236,176.937147 C119.175585,161.387676 138.558869,110.454441 135.995062,103.499206" id="Fill-78" fill="#0F1F42"></path>
                                <path d="M120.462538,102.811706 C117.845643,93.6784706 61.3765086,79.8676471 61.3765086,79.8676471 L33.4737473,79.8676471 C33.4737473,79.8676471 27.3749953,101.796471 34.3859704,107.107529 C37.1504789,109.202059 96.4041919,112.491059 96.4041919,112.491059 C96.4041919,112.491059 77.1439189,160.414824 79.2092075,174.844882 C82.9429126,174.402294 89.5848549,175.067471 93.2835991,174.844882 C93.9672808,160.202588 121.491298,106.404176 120.462538,102.811706" id="Fill-81" fill="#2A417F"></path>
                                <path d="M67.9735842,0.975776471 C67.9735842,0.975776471 72.4544189,2.15536471 75.4157449,4.83677647 C78.377071,7.51818824 81.1622972,29.8041882 77.3716186,34.3090118 C73.5802925,38.8131882 72.776837,43.7224235 69.8252223,49.9024824 C68.4293721,52.8265412 59.8095437,64.9854235 70.7083112,71.5459529 C73.4462754,73.1946588 78.0520632,72.6187765 76.6309633,74.9779529 C75.2098635,77.3377765 29.3649883,83.6653647 30.5497777,80.4475412 C31.7345671,77.2303647 40.7965874,60.2845412 46.5418448,40.6767176 C47.107695,38.7478353 45.6503393,10.2856588 47.8082098,4.50095294 C49.9654329,-1.28310588 67.9735842,0.975776471 67.9735842,0.975776471" id="Fill-82" fill="#87D3B1"></path>
                                <path d="M75.4158097,4.83664706 C77.5005211,6.54035294 78.6425803,13.4502941 79.0517535,16.1187647 C81.3954353,32.655 77.9919173,33.3991176 74.9341248,39.1404706 C73.1336334,42.4359412 71.6018237,46.702 69.8252871,49.9023529 C71.3318471,46.2167059 72.42017,42.3867647 74.1837582,38.7554706 C77.0240156,32.5288235 79.8972917,33.7323529 78.2191638,16.2248824 C77.8714961,12.8038824 77.0181888,8.43817647 76.7385008,7.44752941 C76.4633448,6.51123529 76.1124399,5.56070588 75.4158097,4.83664706" id="Fill-83" fill="#DEEDE7"></path>
                            </g>
                            <g id="Group-87" transform="translate(65.000000, 85.000000)">
                                <mask id="mask-17" fill="white">
                                    <use xlink:href="#path-16"></use>
                                </mask>
                                <g id="Clip-86"></g>
                                <path d="M20.9560339,4.36735537 C18.8093559,10.129686 20.2591525,38.4849421 19.6968814,40.4065785 L19.6968814,40.4065785 C13.9814237,59.9413884 3.90498305,68.8088926 1.19538983,72.4426612 L1.19538983,72.4426612 C0.545525424,73.3135537 0.42379661,74.0187769 0.598983051,74.6305289 L0.598983051,74.6305289 L0.602847458,74.6343967 C9.44589831,80.1936694 19.4502034,77.8124132 28.0433559,64.7064793 L28.0433559,64.7064793 C36.0948475,52.4256694 37.7391525,6.33540496 37.914339,0.575008264 L37.914339,0.575008264 C36.6680678,0.49185124 35.1422712,0.422231405 33.5192203,0.422231405 L33.5192203,0.422231405 C28.3344746,0.422231405 22.1604407,1.13196694 20.9560339,4.36735537" id="Fill-85" fill="url(#linearGradient-18)" mask="url(#mask-17)"></path>
                            </g>
                            <g id="Group-95" transform="translate(72.000000, 84.000000)">
                                <path d="M21.7338034,0.389123529 C21.3155663,3.73053529 20.2861591,15.6875353 22.5909953,23.5868294 L24.9081326,25.4141235 L22.5909953,25.4141235 L27.3554025,43.3305353 C27.3554025,43.3305353 27.3554025,43.3292412 27.3560499,43.3266529 C30.0163229,25.9078294 30.7414399,5.41612353 30.8547395,1.69488824 C27.6506287,0.336711765 24.9340296,0.0410058824 21.7338034,0.389123529" id="Fill-88" fill="#352868"></path>
                                <path d="M23.2708573,25.9434824 C23.4722067,25.9441294 26.6555998,25.9577176 26.4555452,25.9570706 C26.3292972,25.8561294 22.8849914,23.1216588 23.0688604,23.2672471 C21.2379399,16.8730118 21.3544766,7.0196 21.7338682,0.389188235 C20.3347808,7.95848235 20.289461,15.8247765 22.1139072,23.9071882 C22.224617,23.9938941 23.4728541,24.9703059 23.3614969,24.8836 C23.2514345,24.8836 21.7914891,24.8907176 21.9015515,24.8894235 C21.9436342,25.0369529 24.9360367,35.9308353 27.3561147,43.3267176 C26.7261693,40.3114235 24.5818947,31.0746588 23.2708573,25.9434824" id="Fill-90" fill="#6049BD"></path>
                                <polygon id="Fill-92" fill="#846D75" points="26.5200936 215.524471 32.5282059 215.524471 32.5282059 78.8378235 26.5200936 78.8378235"></polygon>
                                <path d="M66.1002168,62.7967824 C64.4602871,55.5057235 57.698571,53.0210176 50.1016755,52.7324294 L50.1016755,52.7330765 C19.5159813,48.3337235 14.9988908,50.7964294 14.3035554,44.9741941 C9.36434321,46.0101353 4.65173011,48.0050176 0.166363495,50.3286059 C0.604023401,53.4843118 1.48258034,56.1961353 2.90691732,58.1800176 C8.07337598,65.3785471 30.509273,60.6679588 45.820248,59.1117824 C49.6581888,58.7209588 58.188025,59.2612529 60.8405289,62.6544294 C63.4917379,66.0469588 63.4626037,68.3757235 64.3049048,68.1401941 C65.1465585,67.9046647 64.3618783,64.2914882 63.0754431,62.5327824 C61.7896552,60.7747235 61.0593588,59.2748412 61.0593588,59.2748412 C61.0593588,59.2748412 64.495248,62.7411353 65.019663,64.6124294 C65.5427832,66.4824294 66.6453495,68.3925471 67.1710593,68.2463118 C67.6974165,68.0994294 66.5475881,64.7864882 66.1002168,62.7967824" id="Fill-94" fill="#FC7575"></path>
                            </g>
                            <g id="Group-98" transform="translate(74.000000, 86.000000)">
                                <mask id="mask-20" fill="white">
                                    <use xlink:href="#path-19"></use>
                                </mask>
                                <g id="Clip-97"></g>
                                <path d="M12.3660526,2.0983125 C3.89743421,9.6875 -3.89356579,57.3428958 3.48028947,60.1645417 L3.48028947,60.1645417 C10.8535,62.9874792 46.7724342,60.8852917 46.7724342,60.8852917 L46.7724342,60.8852917 L48.5396579,49.8202292 C48.5396579,49.8202292 41.3031316,47.9737917 27.5115658,47.1891042 L27.5115658,47.1891042 C16.7193158,46.5742708 15.3550526,44.5670208 15.2718816,43.7229167 L15.2718816,43.7229167 C15.3008947,43.7171042 24.3536447,4.68875 18.8746711,1.70564583 L18.8746711,1.70564583 C18.1596579,1.31620833 17.0945526,0.59675 15.7341579,0.59675 L15.7341579,0.59675 C14.7573816,0.59675 13.6284474,0.967458333 12.3660526,2.0983125" id="Fill-96" fill="url(#linearGradient-21)" mask="url(#mask-20)"></path>
                            </g>
                            <g id="Group-132" transform="translate(63.000000, 49.000000)">
                                <polygon id="Fill-99" fill="#846D75" points="212.427376 249.582902 218.428325 249.582902 218.428325 112.767487 212.427376 112.767487"></polygon>
                                <polygon id="Fill-101" fill="#583428" points="35.681037 119.822539 41.6826325 119.822539 41.6826325 112.767487 35.681037 112.767487"></polygon>
                                <polygon id="Fill-102" fill="#583428" points="212.427376 119.822539 218.428325 119.822539 218.428325 112.767487 212.427376 112.767487"></polygon>
                                <polygon id="Fill-103" fill="#542360" points="19.3305698 116.479922 226.890057 116.479922 226.890057 109.055699 19.3305698 109.055699"></polygon>
                                <polygon id="Fill-104" fill="#BF81CE" points="19.3305698 110.864637 226.890057 110.864637 226.890057 109.055699 19.3305698 109.055699"></polygon>
                                <polygon id="Fill-105" fill="#603E6B" points="61.5971937 109.055699 121.945564 109.055699 121.945564 106.195596 61.5971937 106.195596"></polygon>
                                <path d="M60.3574892,2.11256477 C60.3574892,2.11256477 64.2313638,3.04909326 66.0667655,5.67409326 C67.9008738,8.29974093 69.9141245,18.8839378 66.5065376,25.2272021 C63.0989507,31.5704663 57.4634009,33.1022021 59.6920105,35.3334197 C61.9199735,37.5639896 63.8497969,35.3334197 63.8497969,35.3334197 C63.8497969,35.3334197 64.1472897,39.7518135 60.8276573,39.2705959 C60.8276573,39.2705959 61.2641957,41.7207254 62.4877969,41.7207254 C62.4877969,41.7207254 62.7497199,43.8204663 60.3471416,43.1650259 C57.9445632,42.5082902 56.3930732,44.1054404 57.4634009,45.1766839 C58.5343752,46.2485751 45.790039,50.7537565 45.790039,42.1579016 C45.790039,33.563342 62.6417171,14.2272021 63.7547285,11.3146373 C64.8670932,8.40207254 62.2258738,5.32111399 62.2258738,5.32111399 L60.3574892,2.11256477 Z" id="Fill-106" fill="#42004A"></path>
                                <path d="M27.9227462,28.1439119 C29.8454556,23.8563472 28.8294527,21.8369171 34.0724413,15.3621762 C39.3141365,8.88678756 37.1307974,6.98005181 40.4077462,3.6996114 C43.6834014,0.417227979 55.4291963,-0.457772021 58.0316123,0.765673575 C60.6340282,1.98911917 62.2256151,6.72098446 62.2256151,6.72098446 L50.1215353,42.4185233 L34.8873131,42.4185233 L27.9227462,28.1439119 Z" id="Fill-107" fill="#42004A"></path>
                                <path d="M54.5217783,32.1791451 C54.5217783,32.1791451 50.4681145,34.6279793 48.9308524,38.8268135 C47.394237,43.025 47.813314,48.3436528 47.813314,48.3436528 C47.813314,48.3436528 43.2720205,50.4420984 40.4076815,47.5742228 C38.6906302,45.8546632 36.2052712,42.9803109 36.2848182,40.259456 C36.3378496,38.4388601 49.9798382,23.7121762 49.9798382,23.7121762 L54.5217783,32.1791451 Z" id="Fill-108" fill="#FC7575"></path>
                                <path d="M54.5217783,32.1791451 L49.9798382,23.7121762 C49.9798382,23.7121762 48.3759635,25.4440415 46.2657043,27.7931347 C46.792784,30.9718912 47.8915675,34.3086788 50.1680348,36.4349741 C51.9879151,33.7167098 54.5217783,32.1791451 54.5217783,32.1791451" id="Fill-109" fill="#FD5E5A"></path>
                                <path d="M62.2256151,5.32117876 C62.2256151,5.32117876 64.5654613,7.15861399 65.0906009,10.4843912 C65.6138003,13.8082254 63.3987718,17.5329663 63.3987718,20.3334845 C63.3987718,23.1333549 58.2062276,36.4707902 51.7409313,33.3205311 C45.275635,30.1709197 45.8001279,20.0206606 45.8001279,17.7460492 C45.8001279,15.4714378 48.945145,7.59643782 52.7892704,5.75835492 C56.6340425,3.92156736 62.2256151,5.32117876 62.2256151,5.32117876" id="Fill-110" fill="#FC7575"></path>
                                <path d="M60.5463325,19.6002591 C59.9009023,21.2427461 59.2748738,23.3101036 58.8279877,25.0458549 C58.2478766,25.0523316 57.5733439,24.8683938 57.055965,24.4532383 C57.7641274,25.3606218 58.9605661,25.3282383 59.0232983,25.3502591 C59.4430219,23.9389896 60.0696972,22.0853627 60.5463325,19.6002591" id="Fill-111" fill="#510B5E"></path>
                                <path d="M59.3577191,17.1227979 C59.3577191,17.1227979 59.1184313,15.4498705 58.2039641,14.2316062 C57.2888501,13.0126943 54.7549869,12.8378238 54.7549869,12.8378238 C54.7549869,12.8378238 57.1478644,13.4874352 57.7305624,14.3287565 C58.3139071,15.1687824 58.5583687,16.3805699 58.5583687,16.3805699 L59.3577191,17.1227979 Z" id="Fill-112" fill="#510B5E"></path>
                                <path d="M60.7313601,18.2909974 C60.7313601,18.2909974 61.7066194,17.2773964 62.746551,17.1012306 C63.7877761,16.9250648 65.0113772,18.7223446 65.0113772,18.7223446 C65.0113772,18.7223446 63.6041066,17.370013 62.9075852,17.5286917 C62.2117105,17.6867228 61.4737989,18.3667746 61.4737989,18.3667746 L60.7313601,18.2909974 Z" id="Fill-113" fill="#510B5E"></path>
                                <path d="M56.871196,18.0810233 C56.6946405,18.7552461 56.2050707,19.1891839 55.7788798,19.0499352 C55.3513954,18.9106865 55.1496177,18.2520078 55.3261732,17.5771373 C55.5040222,16.9029145 55.993592,16.4696244 56.4197829,16.6082254 C56.8459738,16.7468264 57.0477516,17.4068005 56.871196,18.0810233" id="Fill-114" fill="#510B5E"></path>
                                <path d="M53.2410068,17.323899 C56.9894171,15.0421632 57.4511778,17.8148316 58.3501236,18.3083549 C57.5656479,18.095272 56.9447932,16.8685881 56.0316194,16.8232513 C55.2872405,16.7772668 54.0571721,17.1263601 53.2410068,17.323899" id="Fill-115" fill="#42004A"></path>
                                <path d="M62.6361553,21.1472798 C62.440198,21.6647668 62.0250014,21.9523316 61.7074601,21.7904145 C61.3899188,21.6291451 61.2916168,21.0786269 61.4869274,20.5617876 C61.6815912,20.0443005 62.0980812,19.7567358 62.4149758,19.9186528 C62.7318704,20.0799223 62.8308191,20.6304404 62.6361553,21.1472798" id="Fill-116" fill="#510B5E"></path>
                                <path d="M60.1237632,20.9208549 C62.8315952,18.0484456 63.6315923,20.7045337 64.4406436,21.0406736 C63.7686977,20.961658 63.0741165,19.8554404 62.3226236,19.9629534 C61.7095296,20.0419689 60.7588459,20.5898964 60.1237632,20.9208549" id="Fill-117" fill="#42004A"></path>
                                <path d="M55.3339986,27.5733808 C57.4203291,28.8078368 58.0043205,28.3946244 57.9545228,28.7262306 C57.942235,28.8013601 57.8730356,28.8525259 57.7986624,28.8415155 C57.7973689,28.8408679 57.7947821,28.8402202 57.7934886,28.8402202 C55.5655256,28.4237694 52.9087849,26.0720855 53.0226083,25.9490285 C53.1377251,25.8253238 53.556802,26.5040803 55.3339986,27.5733808" id="Fill-118" fill="#510B5E"></path>
                                <path d="M62.6601487,5.65129534 C62.7125333,5.47124352 61.4384877,1.13316062 56.2841003,0.289896373 C50.118237,-0.719170984 42.8290148,3.87733161 40.6010519,10.1117876 C38.3730889,16.3462435 36.3637185,23.4550518 30.2696416,25.2277202 C24.1749179,26.9984456 23.0612598,35.9900259 24.9613339,41.6338083 C26.861408,47.276943 32.6942085,45.8326425 32.6942085,45.8326425 C32.6942085,45.8326425 29.1230006,42.7167098 30.0723909,41.7646373 C30.0723909,41.7646373 32.7931573,47.0483161 35.873502,45.9984456 C38.9538467,44.9485751 40.198143,43.2348446 40.198143,43.2348446 C40.198143,43.2348446 34.8872484,42.4187824 38.3808496,39.4680052 C40.8157641,37.411658 44.4231886,35.5301813 47.3069293,32.0522021 C50.0639123,28.7251295 46.2488895,19.8164508 48.6475875,13.4207254 C48.952841,13.6759067 49.4158952,13.9071244 50.1667413,13.9854922 C53.4281687,14.3274611 51.3690006,10.5522021 54.4739208,6.99132124 C59.7977499,3.98678756 62.3025105,5.6642487 62.6601487,5.65129534" id="Fill-119" fill="#510B5E"></path>
                                <path d="M62.156157,4.72156736 C67.4651114,4.14190415 71.1359148,8.18853627 70.0649405,12.7494171 C69.8806242,13.5214378 69.5391541,14.3115933 68.8251712,14.6406088 L68.4358436,13.591386 C68.7242823,13.5350389 69.0334162,12.7740285 69.1207239,12.4942358 C70.3992966,8.50006477 67.2361712,4.55511658 62.156157,4.72156736" id="Fill-120" fill="#510B5E"></path>
                                <path d="M58.8537274,2.11256477 C58.8537274,2.11256477 62.4902544,2.1261658 65.1702772,4.8107513 C67.8503,7.49533679 67.047716,18.0814767 65.1702772,19.6533679 C63.2928385,21.2259067 69.9450379,22.7110104 65.9631604,22.7110104 C61.9799895,22.7110104 55.2902801,2.48562176 58.8537274,2.11256477" id="Fill-121" fill="#510B5E"></path>
                                <path d="M42.0698259,14.055829 C42.9112134,16.4670984 43.5036123,19.6238342 43.398843,22.0875648 C43.001108,29.9573834 34.6609598,25.8511658 32.3450425,26.0143782 C30.9196635,26.0713731 29.7051165,27.3861399 30.2270225,29.1601036 C30.6435125,30.6218912 31.590316,31.0623057 32.0837661,31.6510363 C32.8287917,32.5571244 32.4381707,33.6108808 31.5709142,34.0389896 C29.8506293,34.9010363 27.7319627,32.9476684 27.0393217,35.2792746 C26.5167689,36.8997409 27.0199199,38.8420984 28.3043131,40.1031088 C26.8427177,39.0240933 26.109333,37.0079016 26.5090083,35.1387306 C26.9300254,33.2183938 28.2583957,33.3084197 30.0886236,33.4444301 C31.2210368,33.5195596 31.6336464,32.9722798 31.5418117,32.6231865 C31.4693786,31.9379534 29.8946066,31.6762953 29.2129598,29.4658031 C28.6729456,27.8822539 29.2866863,26.175 30.7528088,25.3401554 C34.5749456,23.1283679 43.09941,31.0888601 42.7353046,19.3835492 C42.6939142,17.5998705 42.4209969,15.8233161 42.0698259,14.055829" id="Fill-122" fill="#560D68"></path>
                                <polygon id="Fill-123" fill="#464A7F" points="86.7754387 95.9572539 169.530197 95.9572539 169.530197 25.4812176 86.7754387 25.4812176"></polygon>
                                <polygon id="Fill-124" fill="#3C405E" points="106.613687 82.9443005 158.94139 82.9443005 158.94139 42.4183938 106.613687 42.4183938"></polygon>
                                <polygon id="Fill-125" fill="#242744" points="128.152818 73.1178756 150.959527 73.1178756 150.959527 50.2784974 128.152818 50.2784974"></polygon>
                                <polygon id="Fill-126" fill="#242744" points="137.600803 108.356218 145.746288 108.356218 145.746288 67.8970207 137.600803 67.8970207"></polygon>
                                <polygon id="Fill-127" fill="#242744" points="99.4816182 109.055699 152.261382 109.055699 152.261382 105.419689 99.4816182 105.419689"></polygon>
                                <polygon id="Fill-128" fill="#595E7A" points="128.152947 50.2784326 128.152947 73.1178109 137.600933 73.1178109 137.600933 105.419624 136.641842 105.419624 136.641842 73.6864637 127.153112 73.6864637 127.153112 50.2784326"></polygon>
                                <polygon id="Fill-129" fill="#595E7A" points="169.530003 25.4810881 86.7752447 25.4810881 86.7752447 95.9571244 89.9972219 28.0911917"></polygon>
                                <path d="M73.1934014,81.4772021 C73.1099741,81.4772021 73.0265467,81.4454663 72.9638145,81.3819948 C66.534088,74.9435233 54.9590282,78.1306995 54.8413245,78.1630829 C54.6705895,78.2129534 54.4875667,78.1112694 54.4390624,77.9376943 C54.3899114,77.7641192 54.4901536,77.5834197 54.6647689,77.5341969 C54.7831194,77.5018135 66.7287519,74.2142487 73.4242818,80.9208549 C73.5516863,81.0477979 73.5516863,81.2544041 73.4242818,81.3819948 C73.3602561,81.4454663 73.2768288,81.4772021 73.1934014,81.4772021" id="Fill-130" fill="#464A7F"></path>
                                <path d="M0.756601994,53.3656088 C0.576812821,53.3656088 0.4313,53.2198834 0.4313,53.0398316 C0.4313,35.2593912 23.6357444,18.2134067 23.8705051,18.0437176 C24.0147245,17.939443 24.2184425,17.9685881 24.3257986,18.1162565 C24.4299211,18.2619819 24.3988783,18.4659974 24.2527188,18.572215 C24.0211917,18.7399611 1.08255071,35.5935881 1.08255071,53.0398316 C1.08255071,53.2198834 0.937037892,53.3656088 0.756601994,53.3656088" id="Fill-131" fill="#464A7F"></path>
                            </g>
                        </g>
                    </g>
                </g>
            </g>
        </g>
    </g>
</svg>