<?xml version="1.0" encoding="UTF-8"?>
<svg width="300px" height="225px" viewBox="0 0 300 225" version="1.1" xmlns="http://www.w3.org/2000/svg" xmlns:xlink="http://www.w3.org/1999/xlink">
    <!-- Generator: Sketch 61.1 (89650) - https://sketch.com -->
    <title>mi-team</title>
    <desc>Created with Sketch.</desc>
    <defs>
        <linearGradient x1="23.9173266%" y1="68.6919919%" x2="83.9996625%" y2="28.8927699%" id="linearGradient-1">
            <stop stop-color="#EEEEEE" offset="0%"></stop>
            <stop stop-color="#D8D8D8" offset="100%"></stop>
        </linearGradient>
        <rect id="path-2" x="0" y="0" width="300" height="225"></rect>
    </defs>
    <g id="Symbols" stroke="none" stroke-width="1" fill="none" fill-rule="evenodd">
        <g id="Het-team">
            <g id="Menu-Section-2-Copy">
                <g id="mi-team">
                    <mask id="mask-3" fill="white">
                        <use xlink:href="#path-2"></use>
                    </mask>
                    <use id="Mask" fill="url(#linearGradient-1)" xlink:href="#path-2"></use>
                    <g id="Group-150" mask="url(#mask-3)">
                        <g transform="translate(7.503344, 10.852679)" id="Group-149">
                            <g>
                                <polygon id="Fill-7" fill="#4C251B" points="143.345017 138.747207 143.216157 140.889465 142.938936 145.4697 142.29887 156.055226 132.519854 156.055226 131.878941 145.4697 131.600025 140.889465 131.471164 138.747207"></polygon>
                                <polygon id="Fill-9" fill="#965C45" points="143.345017 138.747207 143.216157 140.889465 142.938936 145.4697 131.878941 145.4697 131.600025 140.889465 131.471164 138.747207"></polygon>
                                <polygon id="Fill-11" fill="#7C4431" points="131.600449 140.88904 143.215733 140.88904 142.93936 145.470125 131.878517 145.470125"></polygon>
                                <polygon id="Fill-13" fill="#352351" points="139.096253 138.747207 138.962306 140.889465 138.67576 145.4697 138.011957 156.055226 142.260127 156.055226 142.924778 145.4697 143.211324 140.889465 143.345272 138.747207"></polygon>
                                <polygon id="Fill-15" fill="#000000" points="130.771924 138.747972 144.176001 138.747972 144.176001 138.079207 130.771924 138.079207"></polygon>
                                <path d="M130.86857,135.670972 C130.807531,136.019376 130.77362,136.377127 130.77362,136.742526 C130.77362,136.766319 130.776163,136.787563 130.776163,136.811357 L144.403203,136.811357 C144.403203,136.787563 144.404898,136.766319 144.404898,136.742526 C144.404898,136.377127 144.37014,136.020225 144.3091,135.670972 L130.86857,135.670972 Z" id="Fill-17" fill="#E5CE6C"></path>
                                <path d="M145.09193,137.230206 L145.09193,138.079122 L129.682032,138.079122 L129.682032,137.230206 C129.682032,136.960831 129.924494,136.742441 130.2263,136.742441 L144.550206,136.742441 C144.849468,136.742441 145.09193,136.960831 145.09193,137.230206" id="Fill-18" fill="#F4DC78"></path>
                                <polygon id="Fill-19" fill="#E5CE6C" points="128.742365 138.079207 145.704528 138.079207 145.704528 137.593141 128.742365 137.593141"></polygon>
                                <path d="M138.304776,136.205389 C138.304776,136.399985 136.748272,136.558042 134.82638,136.558042 C132.906183,136.558042 131.348831,136.399985 131.348831,136.205389 C131.348831,136.010793 132.906183,135.853586 134.82638,135.853586 C136.748272,135.853586 138.304776,136.010793 138.304776,136.205389" id="Fill-20" fill="#F4DC78"></path>
                                <path d="M133.938426,137.111579 C133.938426,137.276433 133.067768,137.410696 131.992796,137.410696 C130.917825,137.410696 130.046319,137.276433 130.046319,137.111579 C130.046319,136.945875 130.917825,136.810762 131.992796,136.810762 C133.067768,136.810762 133.938426,136.945875 133.938426,137.111579" id="Fill-21" fill="#F4DC78"></path>
                                <polygon id="Fill-23" fill="#464F7C" points="241.469283 204.677009 224.260419 266.516127 230.561039 341.060085 219.465438 341.060085 204.231876 262.228211 219.465438 171.955099"></polygon>
                                <path d="M238.561775,82.0751723 C238.561775,82.0751723 236.605971,64.2029094 232.032257,64.2029094 C222.447381,64.2029094 206.398265,113.728078 205.899776,121.023313 C205.05879,133.30582 213.321147,134.039168 221.420732,135.036792 C229.346525,136.013172 230.817404,118.219088 230.817404,118.219088 L238.561775,82.0751723 Z" id="Fill-24" fill="#FF9739"></path>
                                <path d="M219.465438,169.551962 L231.376593,206.853258 C231.376593,206.853258 245.418192,257.229042 247.956412,287.60815 C250.496328,317.988108 247.956412,338.752972 247.956412,338.752972 L261.967491,341.060085 C261.967491,341.060085 270.053513,277.994756 267.04478,256.844099 C264.036048,235.694291 267.715697,184.164526 267.715697,184.164526 L261.967491,169.551962 L219.465438,169.551962 Z" id="Fill-26" fill="#5D69A5"></path>
                                <polygon id="Fill-27" fill="#F9B406" points="267.279104 66.8706624 253.401972 61.2979019 241.161035 61.9428737 232.032257 64.2023995 218.525601 122.031475 218.981701 174.819742 267.715705 173.961479 254.632933 139.479705"></polygon>
                                <path d="M218.786544,120.912929 L218.525431,122.03122 L218.692442,141.305595 C223.371279,144.36645 229.576101,147.400962 235.780075,147.400962 C245.881243,147.400962 254.351304,153.678177 260.75196,155.607145 L254.632763,139.4803 L257.305779,125.592586 L218.786544,120.912929 Z" id="Fill-28" fill="#BF6D00"></path>
                                <path d="M249.1332,125.05137 C245.9032,127.354234 243.799038,130.692112 236.831224,132.710305 C240.911536,135.967455 245.582744,139.348671 250.031836,141.988892 C251.089851,136.222385 251.852844,131.4603 251.980009,125.694643 C251.826563,125.759225 249.294277,125.000385 249.1332,125.05137" id="Fill-29" fill="#FD5E5A"></path>
                                <path d="M275.760948,78.2977108 C273.691544,71.6049596 267.279019,66.8709174 267.279019,66.8709174 C260.244231,66.0381474 258.193478,103.833157 258.193478,103.833157 L255.397536,124.716988 C254.825291,125.343265 252.73215,124.732284 251.980178,125.049246 C251.853013,130.815753 249.759871,136.934063 248.703551,142.70057 C255.656953,146.82618 263.401323,148.423739 266.176919,145.586373 C272.493646,139.138354 277.840526,85.0006592 275.760948,78.2977108" id="Fill-30" fill="#FBCE5D"></path>
                                <path d="M206.344855,111.123973 C205.625947,111.485973 204.92569,111.848823 204.303427,112.192128 C204.907887,111.60324 205.396202,110.309898 206.249057,109.692968 C207.99207,108.428517 210.628632,107.723212 211.021997,108.125151 C211.490813,108.614616 208.855099,109.868869 206.344855,111.123973 M216.073005,104.754132 C213.312669,104.14655 204.70527,107.204006 204.70527,107.204006 C204.70527,107.204006 202.424771,110.44756 202.424771,112.534583 C202.424771,112.887236 202.616367,113.063137 202.932585,113.024048 C202.338299,113.465076 202.051753,113.827926 202.289976,114.072658 C203.430225,115.239386 212.420816,110.819757 212.957454,111.367855 C213.494092,111.917654 202.740989,113.709808 203.612496,115.699959 C203.977036,116.531879 208.108215,115.209644 210.705779,114.288499 C208.443931,115.1901 205.136784,116.649146 205.136784,117.532053 C205.136784,118.884029 214.510567,116.806353 216.56132,116.806353 C217.327703,116.806353 218.573924,117.637423 219.992241,118.547522 C220.624677,118.431104 221.055344,118.73702 221.324934,118.651193 C221.324934,118.651193 228.340223,118.492287 237.27147,119.628423 C227.516192,113.660522 216.819042,104.920686 216.073005,104.754132" id="Fill-31" fill="#FC7575"></path>
                                <path d="M257.002362,112.732238 C256.529307,115.046149 256.606454,121.964938 255.534874,123.69506 C255.534874,123.69506 254.370039,122.854642 253.986,123.264229 L253.977522,123.264229 C250.157475,125.343605 244.761425,131.076971 234.233829,133.366238 C223.892742,135.581577 209.785865,136.72706 209.785865,129.544844 C209.785865,122.375375 216.847781,118.443511 221.32485,118.443511 C221.32485,118.443511 228.340138,118.491947 237.272233,119.628084 L237.290884,119.628084 C246.212806,120.775267 256.07236,112.006539 257.002362,112.732238" id="Fill-32" fill="#FF8D8D"></path>
                                <path d="M267.279104,66.8715122 C260.75213,67.2403103 260.552056,97.5539864 255.39762,124.716733 C256.48446,110.679461 259.191387,65.1915263 267.279104,66.8715122" id="Fill-33" fill="#FFF7CF"></path>
                                <path d="M237.424238,47.396592 L238.288115,50.1940192 C238.288115,50.1940192 241.295152,49.3204606 242.325191,47.7466953 C243.353535,46.1737798 243.412031,45.2407376 243.412031,45.2407376 L237.424238,47.396592 Z" id="Fill-34" fill="#FFFFFF"></path>
                                <path d="M259.101947,22.4977901 C260.549089,21.3523066 262.676141,20.7838136 265.194863,21.5214099 L264.876102,22.4102643 C262.660034,21.3862972 260.605042,21.6352784 259.101947,22.4977901" id="Fill-35" fill="#1B2B80"></path>
                                <path d="M265.8841,27.0918761 C265.503451,25.7772892 264.653139,24.4108667 263.460328,23.623984 C262.273451,22.8388009 261.395162,22.8608948 260.439727,22.8388009 C260.087055,22.8557962 259.736078,22.9314254 259.381711,22.9747634 C259.484291,22.9569183 260.750858,22.6459042 261.509611,22.7682704 C263.717202,22.8778901 265.550079,24.7448244 266.313919,26.9559136 L265.8841,27.0918761 Z" id="Fill-36" fill="#1B2B80"></path>
                                <path d="M241.00903,55.5738831 C241.504127,50.7038784 241.898339,47.0974746 241.898339,47.0974746 L252.763348,39.9517986 C252.763348,39.9517986 253.194014,43.0687376 253.67809,47.3693995 C254.232531,52.2759441 254.856489,58.7205638 254.995523,63.8395498 C248.942452,67.9753573 242.782562,67.5649207 240.159565,66.5944887 C240.073093,66.054038 240.717397,58.4452399 241.00903,55.5738831" id="Fill-37" fill="#FC7575"></path>
                                <path d="M253.678345,47.3699944 C253.193421,43.0693324 252.763602,39.9523934 252.763602,39.9523934 L241.897746,47.0980695 C241.897746,47.0980695 241.504381,50.7036235 241.009284,55.5736282 C244.385948,53.9913653 249.655681,50.9203136 253.678345,47.3699944" id="Fill-38" fill="#FD5E5A"></path>
                                <path d="M240.672889,16.7303484 C240.672889,16.7303484 238.657742,15.8967286 236.979159,18.6355221 C235.298881,21.3743155 233.731356,30.5449822 235.186976,38.9992967 C236.642595,47.4553108 237.76165,50.6708225 241.232417,50.6708225 C244.703183,50.6708225 251.084341,49.1217005 255.78522,37.6898085 C260.487795,26.2570667 258.92027,13.1570854 240.672889,16.7303484" id="Fill-39" fill="#FC7575"></path>
                                <path d="M240.113192,23.6895009 C239.329006,23.6895009 232.150097,24.7610549 230.935244,17.1386606 C229.718696,9.51711596 241.066084,-0.367353521 246.327339,2.1343554 C251.589442,4.63521455 244.926825,8.98941174 244.926825,8.98941174 C244.926825,8.98941174 248.733308,6.72648685 249.852363,9.34631315 C250.972266,11.9661394 249.292835,13.1566606 249.852363,13.7531958 C250.411891,14.3480315 254.023387,8.99960892 258.043508,13.2764775 C262.064476,17.553346 259.368571,20.1833695 260.374872,22.5652615 C261.383718,24.9471535 266.006602,28.373407 261.383718,36.3807451 C258.446198,41.4657404 253.435883,42.4234258 253.435883,42.4234258 C253.435883,42.4234258 254.219221,39.7143742 254.219221,36.1411113 C254.219221,32.5686981 251.531793,35.4273085 251.531793,35.4273085 C251.531793,35.4273085 252.763602,35.1528343 252.763602,31.6161113 C252.763602,27.8168108 254.219221,24.7466089 254.219221,23.7753272 C254.219221,22.8031958 254.554938,20.3031864 250.748455,21.9704258 C246.941972,23.6368155 240.113192,23.6895009 240.113192,23.6895009" id="Fill-40" fill="#1B2B80"></path>
                                <path d="M241.654775,39.0964249 C241.948951,39.1270164 241.992187,38.6528474 241.697164,38.6214061 L238.785077,38.321439 L239.511615,30.2784108 C239.180985,32.5625798 238.563809,36.819054 238.283198,38.7488709 C238.378148,38.7590681 241.85824,39.117669 241.654775,39.0964249" id="Fill-41" fill="#172866"></path>
                                <path d="M248.695243,30.1489915 C246.456285,26.4907521 242.922783,28.8191089 242.888025,28.8420526 C242.637933,29.0111559 242.879547,29.4139446 243.128791,29.2448413 C243.257652,29.1564657 246.318946,27.1408225 248.319681,30.4090197 C248.386655,30.5186394 248.524841,30.5509305 248.629117,30.4787005 C248.733393,30.4064704 248.762217,30.259461 248.695243,30.1489915" id="Fill-42" fill="#172866"></path>
                                <path d="M235.481152,26.7457667 C235.357377,26.7457667 235.256493,26.8519873 235.256493,26.9837009 C235.256493,27.1162643 235.357377,27.222485 235.481152,27.222485 C237.392871,27.222485 237.782844,29.2585225 237.798104,29.3451986 C237.854905,29.6536634 238.293201,29.564438 238.238944,29.2559732 C238.233858,29.23133 237.766737,26.7457667 235.481152,26.7457667" id="Fill-43" fill="#172866"></path>
                                <path d="M243.828794,42.2407263 L243.822012,42.2483742 C242.741107,43.4414446 240.137608,43.3666653 238.598907,43.0913413 L238.589582,43.0896418 C238.240301,43.0276089 238.137721,43.5816559 238.482763,43.6657826 C242.761453,44.7084446 245.20981,42.9944681 244.462078,42.2279798 C244.284046,42.04613 243.999196,42.0503789 243.828794,42.2407263" id="Fill-44" fill="#FFFFFF"></path>
                                <path d="M250.594415,37.3819385 C250.594415,37.3819385 250.370604,32.022469 254.288993,30.9517648 C258.207381,29.879361 257.699568,34.5887601 255.520801,36.9052202 C253.342882,39.22253 250.594415,37.3819385 250.594415,37.3819385" id="Fill-45" fill="#FC7575"></path>
                                <path d="M254.288484,32.5414207 C252.646355,32.0647023 251.943555,34.5035286 251.872342,34.744862 C251.639206,35.5385427 251.751111,36.2735897 253.132127,36.5506131 C254.512295,36.8284864 255.930613,33.018139 254.288484,32.5414207" id="Fill-46" fill="#FD5E5A"></path>
                                <path d="M245.100448,31.7647352 C245.100448,32.4538948 244.735907,33.0121906 244.285742,33.0121906 C243.836424,33.0121906 243.471036,32.4538948 243.471036,31.7647352 C243.471036,31.0755756 243.836424,30.5172798 244.285742,30.5172798 C244.735907,30.5172798 245.100448,31.0755756 245.100448,31.7647352" id="Fill-47" fill="#18287D"></path>
                                <path d="M237.205599,31.3797066 C237.205599,31.9872887 236.947877,32.4793028 236.630811,32.4793028 C236.312898,32.4793028 236.056871,31.9872887 236.056871,31.3797066 C236.056871,30.7712746 236.312898,30.2784108 236.630811,30.2784108 C236.947877,30.2784108 237.205599,30.7712746 237.205599,31.3797066" id="Fill-48" fill="#18287D"></path>
                                <path d="M86.396301,172.034892 C86.4463193,171.86069 86.473448,171.758718 86.473448,171.758718 C86.473448,171.758718 86.4446238,171.85899 86.396301,172.034892" id="Fill-49" fill="#E6000E"></path>
                                <path d="M95.927938,160.104187 C93.0073736,162.715516 90.4903473,164.093835 90.4903473,164.093835 C90.4903473,164.093835 84.2956988,168.264483 84.2956988,170.15691 C84.2956988,172.050187 82.3602421,178.388586 83.5208379,178.388586 C84.5407041,178.388586 86.0429508,173.286596 86.3964705,172.034892 C86.4439456,171.85899 86.4736175,171.758718 86.4736175,171.758718 C86.4736175,171.758718 86.4456411,171.86069 86.3964705,172.034892 C86.060754,173.262802 84.7780794,178.206737 85.6021109,179.034408 C86.5465256,179.980197 88.3607514,171.467248 88.3607514,171.467248 C88.3607514,171.467248 87.3442763,178.388586 88.3607514,178.388586 C89.3763787,178.388586 89.7833079,171.28115 90.9057541,170.15691 C92.0282003,169.032671 90.8277594,175.687183 92.2799877,175.687183 C93.7322161,175.687183 92.756434,170.434784 93.758497,169.430361 C94.0102844,169.178831 96.4035364,166.579399 100.249017,164.780446 C99.4961979,162.068845 98.8688488,161.589577 95.927938,160.104187" id="Fill-50" fill="#FD5E5A"></path>
                                <path d="M149.30424,71.3476507 C131.605366,73.8816507 136.425781,131.614702 123.619382,138.249669 C114.66694,142.889388 102.046202,153.66866 95.2581157,159.738533 C98.1981787,161.224773 99.7309452,163.428214 100.483764,166.141515 C111.993925,160.758252 134.418264,150.364773 136.703849,146.438008 C139.751579,141.200054 153.577844,79.2861577 153.577844,79.2861577 C153.577844,79.2861577 151.532178,71.028139 149.30424,71.3476507" id="Fill-51" fill="#3F2344"></path>
                                <polygon id="Fill-54" fill="#6D70A8" points="163.852127 177.287885 139.320234 267.670618 145.316504 337.229853 134.755845 337.229853 120.257299 263.669923 134.755845 179.435242"></polygon>
                                <path d="M142.510474,176.414837 L142.520647,200.0757 C142.520647,200.0757 159.455681,259.004372 161.873519,287.351691 C164.288813,315.69901 161.873519,335.076208 161.873519,335.076208 L175.20723,337.229513 C175.20723,337.229513 182.903278,278.381569 180.04121,258.646621 C177.176598,238.910823 180.678732,190.827705 180.678732,190.827705 L175.90664,171.136095 L142.510474,176.414837 Z" id="Fill-55" fill="#7C8BDE"></path>
                                <path d="M175.174422,68.8738991 C175.174422,68.8738991 163.06828,64.1891432 149.303901,71.3475657 C136.92393,77.7862371 131.211662,152.09311 131.663523,179.270303 C151.103715,183.385716 184.053107,186.794974 184.053107,186.794974 L179.189456,135.491246 L182.356721,110.141049 C182.356721,110.141049 189.271973,74.3956737 175.174422,68.8738991" id="Fill-56" fill="#542F5A"></path>
                                <path d="M149.30424,71.3476507 C136.260466,78.9513502 131.916497,163.983961 131.663014,179.270388 C130.899174,160.733608 134.570862,79.2368714 149.30424,71.3476507" id="Fill-57" fill="#95719C"></path>
                                <polygon id="Fill-58" fill="#FC7575" points="171.303169 186.115757 164.685484 192.749024 172.367967 198.145034 174.594209 190.384128"></polygon>
                                <polygon id="Fill-59" fill="#1B2E96" points="161.595196 190.238478 161.595196 190.966727 161.595196 194.313102 176.337052 204.207769 177.35268 200.861393"></polygon>
                                <path d="M176.629872,69.5983239 C176.629872,69.5983239 168.88211,83.2837934 170.867585,95.5076667 C172.852213,107.73154 185.046523,129.84923 187.660195,136.8343 C190.273019,143.819371 167.916501,187.619671 167.916501,187.619671 L174.884315,195.373779 C174.884315,195.373779 208.758623,146.400958 208.758623,134.754925 C208.758623,123.108892 187.379583,71.9674695 176.629872,69.5983239" id="Fill-60" fill="#76597B"></path>
                                <path d="M176.629872,69.5983239 C173.090436,76.99723 170.041858,87.2122582 171.4322,95.3283662 C173.422761,106.855432 183.91899,126.393235 187.660195,136.8343 C175.811775,110.588451 161.710832,95.1490657 176.629872,69.5983239" id="Fill-61" fill="#95719C"></path>
                                <path d="M150.95917,38.1686512 C150.95917,38.1686512 148.847378,34.5554493 146.856816,34.9522897 C144.866254,35.3499798 145.194341,41.1513272 147.613874,41.8829751 C150.032559,42.614623 152.151134,40.9465338 150.95917,38.1686512" id="Fill-62" fill="#FD5E5A"></path>
                                <path d="M167.465064,43.9825751 C167.465064,43.9825751 167.294663,64.2605235 165.472807,68.077669 C163.650104,71.8956643 155.901494,73.5968944 152.874111,71.5056221 L152.34256,54.2341432 L167.465064,43.9825751 Z" id="Fill-63" fill="#FC7575"></path>
                                <path d="M152.498295,59.3124254 L152.342306,54.2342282 L167.46481,43.9826601 C167.46481,43.9826601 167.430051,48.0666319 167.227435,52.9153925 C165.369973,55.4383455 163.254789,57.5151718 161.362568,58.8204113 C158.196999,61.0026085 154.92461,60.9839136 152.498295,59.3124254" id="Fill-64" fill="#FD5E5A"></path>
                                <path d="M154.004187,22.6238953 C154.004187,22.6238953 149.433017,23.4991535 148.214772,27.0324775 C146.995681,30.5666512 146.281011,47.9511488 148.032502,51.9934822 C149.783145,56.034116 154.541673,57.2229376 159.321395,54.1127967 C164.101965,51.0009563 170.477188,43.5918531 170.945156,36.696008 C171.41482,29.8001629 162.464075,18.9401629 154.004187,22.6238953" id="Fill-65" fill="#FC7575"></path>
                                <path d="M159.811151,19.3883291 C162.874988,20.3018268 170.04118,16.4778831 173.090605,23.5147892 C176.141726,30.5525451 171.676527,31.4023103 172.778626,33.9456577 C173.881574,36.4898549 173.466167,37.5716061 171.952052,41.963193 C170.437088,46.3547798 169.128981,48.1146437 168.542324,48.9176718 C167.784419,49.956085 167.326624,50.2246108 167.326624,50.2246108 L167.462267,44.1632352 C167.462267,44.1632352 169.849584,41.463531 169.168826,39.8940146 C168.488067,38.3236484 165.935435,40.2721601 165.046125,39.3076765 C163.630351,37.7696014 166.998537,28.1035216 159.71281,25.868639 C153.342673,23.9133291 148.592623,26.4626249 147.494762,31.1771225 C145.572022,30.7717845 147.171762,15.6179207 159.811151,19.3883291" id="Fill-66" fill="#111F59"></path>
                                <path d="M165.592343,40.5711075 C165.592343,40.5711075 167.385374,37.0029432 169.355589,37.5595394 C171.326652,38.1178352 171.434319,44.077239 169.129235,44.6516803 C166.824151,45.2261216 164.635211,43.3481404 165.592343,40.5711075" id="Fill-67" fill="#FC7575"></path>
                                <path d="M166.389585,40.3154981 C166.389585,40.3154981 169.32117,37.8843197 170.079923,39.6331366 C170.837829,41.3828033 169.511918,43.5548033 167.437427,42.7347798 C165.363784,41.9147563 166.389585,40.3154981 166.389585,40.3154981" id="Fill-68" fill="#FD5E5A"></path>
                                <path d="M158.780349,48.1301944 C156.432028,48.7377765 153.808183,48.8270019 151.499708,48.138692 C150.708739,47.9254009 149.966942,47.5727484 149.206493,47.2124479 C149.854188,47.7367531 150.566314,48.2279174 151.370847,48.515138 C152.971435,49.2714291 156.209065,49.4779221 158.780349,48.1301944" id="Fill-69" fill="#172866"></path>
                                <path d="M163.193919,39.0715268 C163.16679,38.9704047 162.497901,36.5851136 160.469189,35.4812685 C158.394698,34.3510808 156.423635,35.7948319 156.339706,35.856015 C156.070964,36.0574094 156.372769,36.4686958 156.644055,36.2664516 C156.716116,36.2137662 158.442174,34.9595127 160.22588,35.9307944 C162.060452,36.9292685 162.695431,39.182846 162.701365,39.2057897 C162.739515,39.3417521 162.879397,39.4224798 163.01504,39.3842404 C163.154074,39.3451512 163.230373,39.2049399 163.193919,39.0715268" id="Fill-70" fill="#172866"></path>
                                <path d="M152.562895,35.6359258 C151.400604,33.84717 147.816236,35.1303155 147.363528,35.870461 C147.188887,36.160231 147.622097,36.4253577 147.800976,36.1372873 L147.800129,36.1372873 C147.800129,36.1372873 148.166365,35.6478225 149.827144,35.2994188 C151.468425,34.9561136 152.109339,35.8772592 152.13562,35.9163484 C152.324672,36.1967709 152.745166,35.9146488 152.562895,35.6359258" id="Fill-71" fill="#172866"></path>
                                <path d="M160.416289,39.888916 C159.900845,39.5371131 159.205674,39.2150521 158.41301,38.9864653 C157.990821,38.8649488 157.576262,38.7799723 157.187984,38.7323854 C157.437228,38.0406765 158.316365,37.6888737 159.198044,37.9429535 C160.108548,38.2063808 160.676554,39.0170568 160.464611,39.7546531 C160.451047,39.8005404 160.434092,39.8447282 160.416289,39.888916" id="Fill-72" fill="#1B2B80"></path>
                                <path d="M151.668753,38.4342028 C151.057512,38.3075878 150.292824,38.2761465 149.473879,38.3704704 C149.037278,38.4206066 148.622719,38.502184 148.245462,38.6067052 C148.209855,37.8733577 148.888071,37.2096911 149.799422,37.10517 C150.739598,36.9972498 151.574651,37.5283531 151.661123,38.2905925 C151.667058,38.3390291 151.668753,38.386616 151.668753,38.4342028" id="Fill-73" fill="#1B2B80"></path>
                                <path d="M152.46023,43.3859549 C153.007889,42.6738516 153.889569,41.9727953 153.917545,41.9456028 C153.959086,41.999138 154.609325,42.7222883 154.993364,43.4131474 C154.610173,43.1242272 154.209178,42.719739 153.886178,42.361138 C153.460598,42.7248376 152.948545,43.1191286 152.46023,43.3859549" id="Fill-74" fill="#18287D"></path>
                                <path d="M163.394247,28.6536596 C163.394247,28.6536596 160.856874,24.094669 160.750903,21.8079507 C160.646627,19.5220822 162.777071,17.8633404 164.216583,18.4326831 C165.656095,19.0011761 165.545885,20.1356127 165.545885,20.1356127 C165.545885,20.1356127 165.842604,17.7936596 164.522628,16.5003169 C163.203499,15.2078239 161.115444,16.0482418 160.05658,16.5088146 C158.998564,16.9693873 158.794252,17.6118099 158.794252,17.6118099 C158.794252,17.6118099 158.155882,15.7465751 159.325803,14.8211808 C160.495725,13.8966362 162.053076,14.4634296 162.053076,14.4634296 C162.053076,14.4634296 160.267675,12.8896643 157.944787,13.900885 C155.623596,14.9121056 155.734654,16.2674812 155.482018,16.9099038 C155.228535,17.5523263 155.875383,18.791284 155.875383,18.791284 C155.875383,18.791284 154.156955,18.1089225 153.654228,16.9455939 C153.148958,15.7822653 154.909774,13.4241667 154.909774,13.4241667 C154.909774,13.4241667 148.380257,13.640007 150.825223,19.2841479 C150.825223,19.2841479 149.558656,19.6283028 148.663412,18.6340775 C147.76732,17.6415516 148.275134,16.1051761 148.275134,16.1051761 C148.275134,16.1051761 140.100944,28.25427 147.494338,31.1774624 C147.779189,31.2896315 147.48247,27.4130023 153.301556,26.1587488 C158.799339,24.9741761 163.394247,28.6536596 163.394247,28.6536596" id="Fill-75" fill="#1B2B80"></path>
                                <path d="M157.188323,42.469738 C157.188323,43.3042075 158.53458,43.9823202 160.196208,43.9823202 C161.856987,43.9823202 163.203245,43.3042075 163.203245,42.469738 C163.203245,41.6344188 161.856987,40.9571559 160.196208,40.9571559 C158.53458,40.9571559 157.188323,41.6344188 157.188323,42.469738" id="Fill-76" fill="#FD5E5A"></path>
                                <path d="M151.251481,41.9453479 C151.251481,42.7806671 149.905224,43.45793 148.243597,43.45793 C147.801061,43.45793 147.37972,43.4103432 146.999072,43.3228174 C146.98466,42.4237657 146.981269,41.5017704 146.989746,40.5712775 C147.37209,40.4829019 147.796822,40.4327657 148.243597,40.4327657 C149.905224,40.4327657 151.251481,41.1108784 151.251481,41.9453479" id="Fill-77" fill="#FD5E5A"></path>
                                <path d="M85.2587645,100.829746 L85.0646253,101.772136 L87.5418065,132.904136 C87.5418065,132.904136 99.9904473,151.672052 104.408172,156.101028 C108.778421,160.480718 115.185012,156.101028 115.185012,156.101028 C106.926894,143.927291 85.2587645,100.829746 85.2587645,100.829746" id="Fill-78" fill="#FD5E5A"></path>
                                <path d="M91.576509,319.681605 C92.2131835,317.592882 97.339643,309.560901 103.981066,299.416403 C117.900586,278.184169 138.545458,247.438812 138.545458,242.772751 C138.545458,235.764737 122.604009,213.819549 114.894397,205.02023 C109.86204,199.275816 93.6586298,178.531347 93.6586298,178.531347 L83.5091387,172.87276 C83.5091387,172.87276 95.6593647,215.818197 95.6593647,218.693802 C95.6593647,221.569408 123.666263,236.663788 122.231838,240.976347 C120.797413,245.288906 114.843531,251.757319 110.093481,256.519403 C107.095769,259.524173 101.078305,276.87638 96.1900682,290.130169 C96.4164225,290.243187 96.6351469,290.370652 96.847937,290.506615 C96.6300603,290.38 96.4155747,290.242338 96.1900682,290.130169 C93.3322387,297.877478 90.8609919,304.226924 89.6054459,305.485427 C88.327858,306.766023 87.2774721,307.439887 86.3779892,307.867319 C84.8799812,308.580272 84.6468448,314.296643 84.913892,316.275746 C86.7391388,318.924464 82.689346,330.346159 82.689346,330.346159 L90.1429315,340.165197 C92.5624644,337.739967 91.7816691,332.685563 90.0785011,330.978385 C88.3761808,329.271206 89.6054459,326.150018 91.576509,319.681605" id="Fill-80" fill="#FD5E5A"></path>
                                <path d="M64.5695542,200.883742 C59.5405882,206.781113 60.924995,205.158062 55.9299398,211.014644 C54.6862626,210.95516 60.4120947,211.230484 43.8755116,210.435954 C42.6123357,210.386667 41.6145116,211.798127 41.7976297,213.398235 C41.957858,214.813094 42.9904407,215.792874 44.101866,215.587231 C49.097769,214.662686 51.5715591,214.204662 56.6115461,213.27162 C59.944974,208.430508 61.5769294,206.061362 64.8781421,201.266137 C65.0553258,201.006958 64.7687799,200.650057 64.5695542,200.883742" id="Fill-81" fill="#000000"></path>
                                <polygon id="Fill-82" fill="#142060" points="61.7270693 275.617113 72.3555499 275.617113 72.3555499 201.05616 61.7270693 201.05616"></polygon>
                                <path d="M35.7586316,187.602846 L35.7586316,198.923419 C35.7586316,201.269621 47.7876267,203.171395 62.6269762,203.171395 C77.4663257,203.171395 89.4961685,201.269621 89.4961685,198.923419 L89.5012551,188.611517 L35.7586316,187.602846 Z" id="Fill-84" fill="#1B2B80"></path>
                                <path d="M62.624009,183.354869 C47.786355,183.354869 35.7590555,185.256644 35.7590555,187.602846 C35.7590555,189.949048 47.786355,191.850823 62.624009,191.850823 C62.8291691,191.850823 63.0309381,191.849123 63.2352505,191.848273 C65.2766783,192.91048 70.1547415,194.543729 75.8509017,194.543729 C83.3841775,194.543729 89.714469,192.132095 89.4957446,188.612367 C89.2931278,185.353517 77.4625107,183.354869 62.624009,183.354869" id="Fill-85" fill="#A6BBEE"></path>
                                <path d="M72.355126,275.617453 L64.9337558,275.617453 L64.9337558,219.587331 C64.9337558,214.367223 68.2570105,210.135392 72.355126,210.135392 L72.355126,275.617453 Z" id="Fill-86" fill="#7D8CB3"></path>
                                <path d="M127.968437,344.118985 C124.562101,343.040632 124.562101,327.04805 122.411311,317.16528 C120.26815,307.32075 117.740951,246.122355 116.674457,238.999623 C115.598639,231.811459 90.7225512,186.414449 90.7225512,186.414449 L93.6583755,178.531177 C82.7730208,180.851886 67.9769076,181.300562 56.9881251,181.430576 C64.6205899,201.321881 101.154349,240.436576 101.154349,240.436576 C101.154349,240.436576 103.136433,280.687407 108.51468,298.297942 C109.830418,302.609651 112.460197,311.821956 112.667901,312.384501 C115.452822,319.945712 117.434906,323.773905 114.60251,328.71274 C113.441914,330.739431 117.168707,338.865736 117.168707,338.865736 C118.55057,341.78383 119.350017,346.92236 121.232064,348.809689 C123.114111,350.695318 131.39088,349.827708 131.39088,349.827708 C131.39088,349.827708 131.374773,345.198186 127.968437,344.118985" id="Fill-90" fill="#FC7575"></path>
                                <path d="M144.688731,238.337316 C142.921981,230.981748 95.3578981,178.530837 95.3578981,178.530837 C95.3578981,178.530837 85.0642862,170.271969 92.7493127,140.006729 C98.5667039,117.100457 95.5749269,113.411626 90.9079583,106.004222 C86.8505356,99.5655507 84.2487324,98.0427714 84.2487324,98.0427714 C84.2487324,98.0427714 65.5825534,92.0111376 65.5825534,97.4020484 C65.5825534,102.792959 71.6780129,126.152156 68.0919498,140.169034 C64.3973723,154.610795 51.3730963,170.034884 56.4529285,183.271677 C56.4529285,183.271677 87.2167719,228.937213 92.8603704,234.5941 C98.5031213,240.250138 96.6702446,250.466865 96.6702446,250.466865 L144.688731,238.337316 Z" id="Fill-95" fill="#4247A2"></path>
                                <path d="M95.3574742,178.531007 C90.5243428,174.595744 89.106873,165.268721 89.1187417,158.277702 C89.3705291,151.192359 89.3171197,154.874392 89.7138756,150.144599 C94.2511356,124.080599 98.7078575,120.026369 90.6252273,106.531246 C89.1187417,103.894425 86.4626813,99.723777 84.2483085,98.0429413 C86.9331931,99.6846878 89.7232011,103.416007 91.5043638,105.97465 C101.268968,120.317838 95.7118416,127.879049 91.6205082,150.425021 C91.5043638,151.715815 89.7901748,160.52873 91.2949649,168.870876 C91.9087497,172.314124 92.9845686,175.826204 95.3574742,178.531007" id="Fill-96" fill="#4F80FF"></path>
                                <path d="M105.257552,156.828767 C110.762116,158.635368 123.272644,174.763913 123.272644,174.763913 C123.272644,174.763913 122.868258,177.943734 120.489418,180.062199 C118.108883,182.179814 116.807557,183.259016 117.459492,183.538589 C118.10973,183.817312 121.369402,181.268866 121.369402,181.268866 C121.369402,181.268866 118.951565,184.575302 117.178032,185.63241 C115.402804,186.691218 116.136972,188.268382 120.117248,184.198007 C124.097523,180.127631 123.238733,181.975021 122.820783,182.950551 C122.403681,183.927781 118.197051,187.708387 117.821489,189.569373 C117.473904,191.294396 123.516801,184.436791 124.987681,182.059147 C119.559416,193.541176 122.499479,191.404016 127.308025,180.151424 C128.687345,176.923166 128.032867,171.819476 128.017607,171.69796 C127.996413,171.075931 115.863142,155.083349 110.828242,150.005152 C109.592195,148.757697 107.024302,152.754992 105.257552,156.828767" id="Fill-97" fill="#FD5E5A"></path>
                                <path d="M37.3556589,89.9562352 C37.3556589,89.9562352 37.8075199,78.582977 41.294394,78.582977 C48.6013154,78.582977 61.8739877,113.6137 62.254636,119.065794 C62.8955494,128.245808 58.3786359,128.146385 52.2043339,128.89078 C46.1614361,129.620728 43.2586749,116.969423 43.2586749,116.969423 L37.3556589,89.9562352 Z" id="Fill-98" fill="#EF7374"></path>
                                <path d="M9.62521803,172.190908 C12.0362732,162.706678 22.5714992,145.448796 22.5714992,145.448796 C24.3238379,136.427688 15.1111316,100.282923 15.1111316,100.282923 C15.1111316,100.282923 15.6062287,78.6869883 16.1471053,78.5637723 C36.000161,74.0719131 41.8633318,78.5926643 41.8633318,78.5926643 C41.8633318,78.5926643 44.3854447,86.7155704 48.4318464,93.2774577 C52.4790958,99.8384953 49.6280485,105.571862 48.1995577,111.894115 C46.7710668,118.217218 45.9538175,147.67688 45.9538175,147.67688 C45.9538175,147.67688 48.1571692,181.733772 49.8230354,189.846481 C51.4905971,197.95834 61.0110436,255.457707 61.0110436,255.457707 C61.0110436,255.457707 17.8392524,259.036918 7.60413661,255.457707 C7.60413661,255.457707 7.21585838,181.674289 9.62521803,172.190908" id="Fill-104" fill="#4F80FF"></path>
                                <path d="M41.8635861,78.5930892 C46.6144839,94.7802676 51.3314709,94.3196948 49.6783212,103.376493 C48.4549905,110.296981 47.6411322,107.391634 46.3838907,120.919047 C42.5672344,166.104465 49.2586755,193.008033 58.4510354,242.082826 C59.2877834,246.544094 60.1296181,251.004512 61.0112979,255.458131 C50.6066283,177.714808 51.0161008,206.552441 46.9307017,147.614423 L46.9315495,147.704498 C47.0917778,141.390742 47.7699931,118.543953 48.8330955,112.270986 C49.679169,108.018761 51.5001769,103.419831 50.9406493,98.9798075 C50.2827806,93.5209155 46.4627332,91.5622066 41.8635861,78.5930892" id="Fill-105" fill="#B9CCFF"></path>
                                <path d="M8.99685161,87.1330601 C10.5753976,82.1313418 15.4636339,78.5929192 15.4636339,78.5929192 C20.8257732,77.9708911 22.3890593,106.217938 22.3890593,106.217938 L24.5211985,121.825577 C24.9569518,122.294647 27.1450437,122.39322 27.1501303,122.554675 C27.3485083,122.57337 29.1771461,122.039717 29.2958338,122.076257 C31.7586029,123.797032 33.3625819,126.291093 38.6747028,127.799426 C34.1459205,131.344647 20.3561091,141.485746 16.3029253,137.423018 C11.4875971,132.604849 7.41152348,92.1432761 8.99685161,87.1330601" id="Fill-108" fill="#EF7374"></path>
                                <path d="M58.3504052,109.426142 C58.6496677,109.125325 60.6588803,109.653029 61.9881822,110.597118 C62.6392688,111.058541 63.0114394,112.025574 63.4709303,112.464902 C62.9961796,112.208273 62.4637806,111.937198 61.9152741,111.666973 C60.0010115,110.728832 57.9917989,109.792391 58.3504052,109.426142 M38.3388167,118.023217 C45.14725,117.173452 50.4949772,117.293269 50.4949772,117.293269 C50.700985,117.357001 51.0290717,117.127564 51.5114522,117.21594 C52.5932056,116.534428 53.5418591,115.914949 54.1268198,115.914949 C55.6901059,115.914949 62.8359512,117.46747 62.8359512,116.4554 C62.8359512,115.796832 60.3146861,114.705733 58.5903238,114.031869 C60.5707123,114.720179 63.7201744,115.709306 63.9982426,115.086428 C64.6620458,113.600189 56.4641191,112.260109 56.8735915,111.849672 C57.2822162,111.439236 64.136429,114.742273 65.00624,113.870414 C65.1885104,113.688564 64.9689382,113.416639 64.5162295,113.08778 C64.7578437,113.116672 64.9028122,112.984109 64.9028122,112.721531 C64.9028122,111.161362 63.1640379,108.736982 63.1640379,108.736982 C63.1640379,108.736982 56.6031532,106.451963 54.4998382,106.906588 C53.9292896,107.031503 45.7762946,113.563649 38.3388167,118.023217" id="Fill-109" fill="#E05B59"></path>
                                <path d="M23.2971048,112.869136 C23.6582544,114.598408 23.5980628,119.76923 24.4161599,121.063422 C24.4161599,121.063422 25.3037741,120.434596 25.5962544,120.740511 L25.6038843,120.740511 C28.5151233,122.294732 32.6293465,126.579248 40.6551761,128.289826 C48.5377327,129.946018 60.1131714,129.94007 62.2995678,125.039474 C62.8039904,123.910985 62.7353211,119.859305 62.254636,119.065624 C60.1106281,115.522103 53.2835439,117.136657 50.4952315,117.136657 C50.4952315,117.136657 45.1466565,117.173197 38.3382233,118.022962 L38.3238112,118.022962 C31.5213123,118.880375 24.0058397,112.326985 23.2971048,112.869136" id="Fill-110" fill="#EE5A58"></path>
                                <path d="M14.4601297,59.3223676 C14.4601297,59.3223676 13.4979118,63.4522268 15.7436521,64.649546 C17.9885445,65.8451657 19.6993425,64.0861516 19.6993425,64.0861516 C19.6993425,64.0861516 19.1974632,69.4779122 26.1754502,70.2919873 C29.725907,70.7075225 31.4790934,68.8507854 31.4790934,68.8507854 C31.4790934,68.8507854 35.096524,72.3798606 39.9440674,68.8507854 C44.7907631,65.3217103 43.7564848,62.7452221 43.7564848,62.7452221 C43.7564848,62.7452221 47.5180361,61.8198277 48.4929705,57.8794662 C49.4670572,53.9374052 48.1072356,50.2970108 48.1072356,50.2970108 C48.1072356,50.2970108 52.4825717,44.6316258 51.4211648,40.2060484 C50.359758,35.7796211 48.8880309,33.9075883 48.8880309,33.9075883 C48.8880309,33.9075883 49.9570677,29.6001282 46.2150151,27.0882221 C42.4729625,24.576316 37.4075424,26.2512033 37.4075424,26.2512033 C37.4075424,26.2512033 33.6137759,20.7481235 26.1754502,22.7824615 C18.7371246,24.8159498 18.2021823,28.1648746 18.2021823,28.1648746 C18.2021823,28.1648746 11.2233475,28.8829263 10.0619039,32.5913019 C8.90046027,36.2988277 10.0619039,40.1270202 10.0619039,40.1270202 C10.0619039,40.1270202 7.08369119,40.4235883 7.72460459,43.2057197 C8.36636576,45.9887009 10.0619039,46.8469638 10.0619039,46.8469638 C10.0619039,46.8469638 6.46397201,48.5396962 7.63304553,50.9215883 C8.8038146,53.30433 11.2809958,52.7519826 11.2809958,52.7519826 C11.2809958,52.7519826 10.1415942,57.340715 10.9842766,58.2822549 C11.8261113,59.2237948 14.4601297,59.3223676 14.4601297,59.3223676" id="Fill-111" fill="#052F43"></path>
                                <path d="M30.7846858,35.42187 C30.7846858,35.42187 33.2491504,31.6633582 38.3052451,31.6633582 C40.0567359,31.6633582 42.9255864,33.7801235 42.9255864,33.7801235 C42.9255864,33.7801235 45.676597,31.4441188 47.7646521,33.7801235 C49.8527073,36.1161282 47.7646521,37.6151141 47.7646521,37.6151141 C47.7646521,37.6151141 51.6143714,38.5719498 53.1115316,40.2468371 C54.6086917,41.9208746 53.2183505,45.4287056 51.8280092,45.4287056 C51.8280092,45.4287056 53.4319883,47.4188559 51.7203425,50.3513958 C50.0103924,53.2847854 46.4819776,52.7519826 46.4819776,52.7519826 C46.4819776,52.7519826 47.7595655,54.9477761 45.5197597,56.6889451 C43.2791061,58.4309638 38.6782634,56.7305836 37.8220167,53.8719732 C37.8220167,53.8719732 35.1464576,54.6010718 33.8112213,51.8495319 C32.4751373,49.0988418 34.3232738,46.2529779 34.3232738,46.2529779 C34.3232738,46.2529779 31.2585887,43.1181939 31.2585887,40.366654 C31.2585887,37.6151141 35.4686098,36.7245601 35.4686098,36.7245601 C35.4686098,36.7245601 28.5397934,35.42187 30.7846858,35.42187" id="Fill-112" fill="#653870"></path>
                                <path d="M25.8603345,59.4211103 C25.4084736,58.0334437 24.5513791,71.6602793 26.6708017,78.1541854 C27.0192348,79.2248897 33.9556812,86.4410962 37.1924634,82.7939038 C37.1924634,82.7939038 34.9975893,78.8382465 34.5855736,73.1431197 C34.17271,67.447993 37.2162009,64.5885329 37.2162009,64.5885329 C37.2162009,64.5885329 26.2977833,60.7586408 25.8603345,59.4211103" id="Fill-113" fill="#EF7374"></path>
                                <path d="M25.8603345,59.4211103 C26.2977833,60.7586408 37.2162009,64.5885329 37.2162009,64.5885329 C37.2162009,64.5885329 35.7003899,66.0127394 34.9543531,68.8509554 C32.1431509,68.7498333 27.6669303,67.8363357 25.3025024,65.7076737 C25.3135234,61.7248239 25.6365235,58.7336502 25.8603345,59.4211103" id="Fill-114" fill="#EE5A58"></path>
                                <path d="M38.1695172,36.3877981 C39.9642443,37.5256338 43.1586381,40.7462441 42.8949819,43.4612441 C42.6321735,46.1762441 44.8533284,49.7563052 44.0047116,55.3656056 C43.1569426,60.9749061 40.1609267,64.464892 38.7460002,65.0427324 C37.3310736,65.619723 28.1531259,64.2898404 25.7937846,60.4752441 C23.4361389,56.6606479 16.5022358,51.5331643 22.3662543,41.7872066 C28.2294251,32.0420986 34.642798,34.1503662 38.1695172,36.3877981" id="Fill-115" fill="#EF7374"></path>
                                <path d="M38.268028,50.0653648 C39.2650044,50.9397732 40.2314611,51.0544915 40.4145792,51.121623 C40.1017525,51.7436512 39.7202564,52.595116 39.0861251,53.5171113 C39.2158338,52.8466465 39.4048863,52.207623 39.6134375,51.5779469 C38.1145818,51.2040502 37.0760647,49.8231817 36.8980332,48.3267451 C37.6118548,49.4994211 37.834818,49.6549282 38.268028,50.0653648" id="Fill-116" fill="#000000"></path>
                                <path d="M35.0135274,47.8604789 C34.43111,46.7838263 33.2569499,45.930662 32.1573935,46.3708404 C31.0264695,46.8577559 30.7450102,48.0788685 29.6496926,48.4587136 C30.7331414,48.7119437 31.538522,47.3378732 32.3676402,47.0251596 C33.1704775,46.6827042 34.1343909,47.2537465 35.0135274,47.8604789" id="Fill-117" fill="#000000"></path>
                                <path d="M38.7175999,48.4480066 C39.3025606,47.3730535 40.479264,46.5232883 41.5771249,46.9668657 C42.7080489,47.4571803 42.9861171,48.678293 44.0788914,49.0623869 C42.9962903,49.3122178 42.1943008,47.9347484 41.3651827,47.6203352 C40.5640409,47.2761803 39.598432,47.8438235 38.7175999,48.4480066" id="Fill-118" fill="#000000"></path>
                                <path d="M31.8534682,41.9925948 C30.7437386,41.8787263 29.6585942,42.5993272 28.9108619,43.5026277 C30.8971848,42.2067357 31.9407885,42.5058531 33.0844289,43.3122803 C34.2416337,44.1187075 34.4061009,44.7016465 34.7274053,44.3022568 C35.1462032,43.7796512 33.2692426,42.1914399 31.8534682,41.9925948" id="Fill-119" fill="#000000"></path>
                                <path d="M40.9289207,43.9925174 C41.5223591,43.9245362 42.2048131,44.4012545 42.9254168,44.7284141 C41.6334168,42.8189915 40.1430388,42.6634845 38.8883406,44.8932685 C38.684876,45.2569681 39.1426713,45.6308648 39.3893721,45.3028554 C39.3893721,45.3028554 40.5770966,44.0324563 40.9289207,43.9925174" id="Fill-120" fill="#000000"></path>
                                <path d="M36.1030802,56.8369742 C36.1030802,56.8369742 40.8819543,55.4654531 40.8819543,56.1818052 C40.8819543,56.8998568 40.4148336,58.7022089 40.4148336,59.3225376 C40.4148336,59.9420164 40.0672483,60.8419178 38.4920934,60.8419178 C36.9194818,60.8419178 36.1030802,57.7360258 36.1030802,56.8369742" id="Fill-121" fill="#000000"></path>
                                <path d="M36.1030802,56.8369742 C36.1030802,57.0672606 36.1573374,57.4462559 36.2641563,57.8796362 C37.3052167,57.5261338 39.6543847,56.8216784 40.747159,57.2567582 C40.8217627,56.8293263 40.8819543,56.4375845 40.8819543,56.1818052 C40.8819543,55.4654531 36.1030802,56.8369742 36.1030802,56.8369742" id="Fill-122" fill="#FFFFFF"></path>
                                <path d="M33.9389801,34.6509629 C33.9389801,34.6509629 26.7532896,37.8630756 28.9108619,38.7927188 C31.0675863,39.722362 29.6899616,43.5046671 28.3555731,43.5046671 C27.0220324,43.5046671 28.4488277,46.1176953 29.7264157,47.1994465 C31.0031559,48.2803479 28.5937962,50.8126484 27.3187516,50.8126484 C26.0437069,50.8126484 30.4953422,52.0269629 28.3555731,54.8439347 C26.2166518,57.659207 22.7416465,56.1032869 22.7416465,56.1032869 C22.7416465,56.1032869 23.5978932,57.3328972 22.7416465,58.4945263 C21.8853997,59.6544559 15.7119455,61.4194183 15.7119455,57.9328315 C15.7119455,54.4462446 17.482935,54.4165028 17.482935,54.4165028 C17.482935,54.4165028 14.5750872,53.590531 14.0113208,51.2740709 C13.4475544,48.9593103 16.8716936,48.9593103 16.8716936,48.9593103 C16.8716936,48.9593103 12.8608982,47.5461507 13.9485859,44.7317282 C15.0362736,41.9181554 17.2387776,42.1254981 17.2387776,42.1254981 C17.2387776,42.1254981 12.2394835,37.0031131 17.7279403,34.0603761 C20.8239929,32.4007845 22.9476544,33.6244465 22.9476544,33.6244465 C22.9476544,33.6244465 23.1282292,31.7507141 27.6425994,31.1915685 C32.1586651,30.632423 33.9389801,34.6509629 33.9389801,34.6509629" id="Fill-123" fill="#422549"></path>
                                <path d="M74.9861773,112.853415 C74.9047915,113.456748 64.5781166,152.278274 64.9341797,155.040011 C65.483534,159.300734 95.9913511,167.518814 98.9941491,168.43826 C101.997795,169.356007 103.339813,173.282772 104.135021,174.931316 C104.92938,176.580711 108.502727,177.732143 109.032582,178.831739 C109.560743,179.930485 105.783931,180.063899 104.552971,178.456992 C103.32201,176.850086 102.196173,179.259171 102.386921,180.606049 C102.578517,181.953777 103.679769,186.800838 106.307005,187.605565 C108.935089,188.409443 110.716252,190.30187 109.900698,190.696162 C109.084296,191.090453 104.915816,188.703462 104.915816,188.703462 C104.915816,188.703462 109.729449,192.811227 108.766383,193.278598 C107.801622,193.745119 104.207929,189.892284 104.207929,189.892284 C104.207929,189.892284 105.914488,192.58264 105.566055,193.471495 C105.216774,194.360349 99.5028105,187.340438 98.8084877,185.897537 C98.1124693,184.454636 97.3638892,175.49726 97.2112908,172.521382 C97.0578446,169.544654 60.9004945,169.676368 52.859405,160.011988 C52.859405,160.011988 54.280266,109.175631 65.4818385,97.9485324 C68.5711089,98.5442178 75.8839647,106.226096 74.9861773,112.853415" id="Fill-124" fill="#FC7575"></path>
                                <path d="M65.4819232,97.9485324 C69.0671386,98.7439127 75.9433933,106.164913 75.3253697,112.748894 C74.3241544,117.640143 66.7900309,146.165063 65.4666634,154.208941 C65.5497448,154.722199 64.4281463,155.637396 69.8691281,158.197739 C77.7499892,161.964748 90.7793517,165.809936 98.9950816,168.43826 C91.3558347,166.468504 73.4314536,161.721715 66.6976241,157.539171 C63.6041148,155.585561 64.6723038,154.479166 64.5035977,154.093373 C67.1706792,139.308307 73.6052463,117.228007 74.6641098,112.670715 C75.3753881,106.684969 69.1197002,98.9572038 65.4819232,97.9485324" id="Fill-125" fill="#FFB8B8"></path>
                                <path d="M92.0723691,55.6203653 C92.0723691,55.6203653 90.3632667,51.2253793 80.0281142,51.2253793 C69.6946572,51.2253793 67.573539,61.4514545 68.8994498,63.9752573 C70.2245129,66.4990601 67.9711427,71.6052995 65.5863684,72.3055061 C63.201594,73.0065624 57.2324521,76.2798582 60.4590612,79.5140648 C63.6856702,82.7482714 57.9013419,82.5689709 57.9013419,85.4904638 C57.9013419,88.4128066 59.6697882,90.3341258 63.7314497,90.8575812 C67.7931112,91.3793371 92.0723691,55.6203653 92.0723691,55.6203653" id="Fill-126" fill="#330B3D"></path>
                                <path d="M84.3356287,75.2554662 C81.710088,84.7014568 74.5438962,81.4833958 73.5553975,89.598654 C73.1883135,92.6110718 73.8682243,95.8699216 75.4442269,98.5747244 C78.2605157,103.409039 83.8329017,101.327114 83.8329017,101.327114 C83.8329017,101.327114 79.7653058,98.9945085 80.5562743,98.0087808 C80.5562743,98.0087808 84.1313164,102.408865 87.0272955,101.049241 C89.9232746,99.691316 90.8821014,97.9798887 90.8821014,97.9798887 C90.8821014,97.9798887 85.4589227,97.9543958 88.4549386,94.8255601 C90.5438415,92.646762 93.8289466,90.4671141 96.1323351,86.9456869 C97.8499152,84.3182127 94.9632616,78.6868183 94.3426946,74.1218793 C91.2712274,71.0907667 87.9149097,68.3043864 84.459403,65.6055319 C84.4941616,68.8244427 85.2122219,72.1028371 84.3356287,75.2554662" id="Fill-127" fill="#330B3D"></path>
                                <path d="M90.4025184,85.9231643 C90.4025184,85.9231643 86.7418516,89.0044131 85.8635629,93.439338 C85.38966,95.8373756 85.022576,98.9152254 85.2591036,100.829746 C85.5058044,102.838592 84.5715629,104.213512 82.5665891,104.447197 C81.340715,104.589108 79.9681769,104.420005 78.7253475,103.510756 C76.7441112,102.063606 73.8150691,99.5822911 73.4683316,96.8528451 C73.2377384,95.0275493 84.5486731,78.1792535 84.5486731,78.1792535 L90.4025184,85.9231643 Z" id="Fill-128" fill="#FC7575"></path>
                                <path d="M90.4025184,85.9231643 L84.5486731,78.1792535 C84.5486731,78.1792535 83.2185235,80.1609061 81.4805969,82.8368169 C82.5021586,85.9291127 84.1205497,89.0902394 86.7240485,90.8577512 C88.1152375,87.8563803 90.4025184,85.9231643 90.4025184,85.9231643" id="Fill-129" fill="#FD5E5A"></path>
                                <path d="M93.8938009,57.8925526 C93.8938009,57.8925526 96.5151028,59.3600972 97.5578588,62.5985526 C98.6006147,65.837008 96.9720503,69.9048343 97.4086514,72.700562 C97.8477958,75.4971394 94.7500477,89.631285 87.8068191,87.5000737 C80.8635906,85.3680127 79.8004882,75.1495854 79.445273,72.8773131 C79.08921,70.6050408 80.9975381,62.2475995 84.5471471,59.809623 C88.0950606,57.3716465 93.8938009,57.8925526 93.8938009,57.8925526" id="Fill-130" fill="#FC7575"></path>
                                <path d="M97.5580283,62.5985526 C96.5152724,59.3592474 93.8931227,57.8925526 93.8931227,57.8925526 C93.8931227,57.8925526 88.0952302,57.3716465 84.5464689,59.809623 C80.9977076,62.2475995 79.0893795,70.6050408 79.4454425,72.8773131 C79.7167286,74.6133836 80.4008782,80.9874728 83.8055188,84.8496559 C84.1641251,80.8914493 81.348684,75.0229704 82.5109754,69.3822286 C82.8543219,69.5895714 84.3633508,69.7476277 85.1237996,69.7076887 C88.3351488,69.5419845 83.881818,64.9846934 86.7972957,60.4843366 C88.5962617,59.1264117 88.6556055,58.9649563 89.8331567,58.6819845 C90.2180439,62.3172803 93.7311988,68.6565291 97.3613459,72.2977732 C97.1188839,69.5232897 98.5516136,65.6849 97.5580283,62.5985526" id="Fill-131" fill="#FD5E5A"></path>
                                <path d="M92.5625492,72.0464127 C92.7795781,73.8071263 93.2263523,75.918793 93.6782132,77.6480653 C93.1330977,77.9794737 92.4023208,78.2021122 91.7029114,78.1409291 C92.8304442,78.5131263 93.9461083,77.8137695 94.0164731,77.7976239 C93.7036463,76.3589714 93.3619954,74.4300042 92.5625492,72.0464127" id="Fill-132" fill="#510B5E"></path>
                                <path d="M89.2260693,69.4506347 C89.2260693,69.4506347 87.8230115,68.5388366 86.2554865,68.4810526 C84.6871138,68.4249681 82.6923132,70.3862263 82.6923132,70.3862263 C82.6923132,70.3862263 84.932119,68.8540995 85.9774183,68.9331277 C87.0235653,69.0121559 88.0926021,69.6137897 88.0926021,69.6137897 L89.2260693,69.4506347 Z" id="Fill-133" fill="#510B5E"></path>
                                <path d="M92.9615941,69.1942606 C92.9615941,69.1942606 94.0365652,68.0844671 95.3328041,67.7955469 C96.629043,67.5066268 98.4848094,69.1466737 98.4848094,69.1466737 C98.4848094,69.1466737 96.4696624,67.9663498 95.6074813,68.1991854 C94.7461479,68.4328709 93.9204209,69.1866127 93.9204209,69.1866127 L92.9615941,69.1942606 Z" id="Fill-134" fill="#510B5E"></path>
                                <path d="M88.6399218,81.0220582 C92.0818641,81.9975887 93.3187592,81.8131897 94.4488353,81.4690347 C92.9033523,82.9255324 90.0022866,82.3850817 88.6399218,81.0220582" id="Fill-135" fill="#FFFFFF"></path>
                                <path d="M88.4163651,71.8198653 C88.3273493,72.3688136 87.8636196,72.7503582 87.3803913,72.67133 C86.8980107,72.5931516 86.5792495,72.084992 86.6674175,71.5351939 C86.7564333,70.9870953 87.2201629,70.6055507 87.7025435,70.6845789 C88.1857719,70.7627573 88.5045331,71.2709169 88.4163651,71.8198653" id="Fill-136" fill="#510B5E"></path>
                                <path d="M84.4209143,72.3053362 C87.6975417,68.928369 88.9912373,71.4011859 90.0806205,71.574538 C89.1930063,71.6280732 88.1824656,70.669538 87.2092267,70.9236178 C86.4148671,71.1224629 85.2203605,71.853261 84.4209143,72.3053362" id="Fill-137" fill="#42004A"></path>
                                <path d="M95.8591839,71.6132023 C95.7777981,72.1621507 95.4056275,72.5530427 95.0283702,72.4850615 C94.6494175,72.4170803 94.4094988,71.9165685 94.4917324,71.3667704 C94.5722705,70.8178221 94.9435933,70.42693 95.3225461,70.495761 C95.7006511,70.5637423 95.9405697,71.064254 95.8591839,71.6132023" id="Fill-138" fill="#510B5E"></path>
                                <path d="M93.0774841,71.9966164 C95.6843739,68.8091469 96.8814238,71.3074568 97.8054921,71.527546 C97.0628464,71.5411423 96.1684501,70.5494662 95.3622217,70.7568089 C94.7018096,70.9174146 93.731114,71.5861798 93.0774841,71.9966164" id="Fill-139" fill="#42004A"></path>
                                <path d="M88.625001,77.1002216 C88.4715548,78.0417615 87.3380876,78.6416958 86.0952582,78.4386019 C84.8498854,78.2363577 83.9648146,77.3075643 84.1182608,76.3668742 C84.2700114,75.4244845 85.4026309,74.8245502 86.6480036,75.0276441 C87.8916808,75.230738 88.7775995,76.1586817 88.625001,77.1002216" id="Fill-140" fill="#FD5E5A"></path>
                                <path d="M86.7970414,60.4841667 C89.1106031,58.7387488 90.9248289,58.1753545 92.2015691,58.0385423 C92.7560101,58.0105 93.1917634,58.0164484 93.5232411,58.0368427 C93.9912096,58.0869789 94.2794511,58.1736549 94.3788152,58.1549601 C94.3820311,58.1252183 94.3362516,57.9943545 94.2345193,57.7972089 C93.754682,56.7426502 91.9591072,53.7149366 87.1793852,53.7999131 C87.0208524,53.7981601 86.8623196,53.8016127 86.7046346,53.8084108 C83.7722014,53.9222793 80.8126397,53.8432512 77.9734611,54.7159601 C76.3135293,55.2258192 74.673944,56.1061761 73.4362011,57.3383357 C71.9161512,58.8500681 71.7321853,60.6558192 71.6864058,62.7190493 C71.6033245,66.4937066 72.4349859,70.347392 71.4787024,74.0600164 C70.5622641,77.6145845 68.4411459,80.9363169 65.1967337,82.764162 C62.3736628,84.3540728 60.948563,86.8370869 60.570458,90.0610962 C60.1787887,93.4049225 60.8307231,97.0138756 62.3855315,100.00165 C65.162823,105.339026 70.7572509,102.982627 70.7572509,102.982627 C70.7572509,102.982627 66.7066104,100.429932 67.5052089,99.3303357 C67.5052089,99.3303357 71.0463402,104.180796 73.9558836,102.649519 C76.8637314,101.117392 77.8386658,99.2113685 77.8386658,99.2113685 C77.8386658,99.2113685 72.4112484,99.2283638 75.4369361,95.7332793 C77.54449,93.2978521 80.8507893,90.8530775 83.1838497,86.927162 C84.4690676,84.7653592 83.2898208,81.0969225 82.3242119,77.0724343 C82.2513037,76.6042136 82.052078,75.7850399 81.8299625,74.8273545 C81.3908182,72.5635798 81.1670071,70.2590164 81.6112381,68.1108099 C81.9545846,68.3173028 82.4530728,68.4753592 83.2135216,68.43627 C85.0599626,68.341946 85.0514849,67.2253545 85.1260886,65.554716 C85.3600729,63.9418615 85.8314325,61.9738052 86.7970414,60.4841667" id="Fill-141" fill="#510B5E"></path>
                                <path d="M92.0723691,55.6203653 C92.0723691,55.6203653 95.7016684,55.0646188 98.7960255,57.3241446 C101.889535,59.5845202 102.209144,68.5733371 100.582275,70.4377221 C98.9545583,72.3029568 106.392884,74.7451822 102.383784,75.0765906 C96.6986448,75.545661 88.574474,56.551708 92.0723691,55.6203653" id="Fill-142" fill="#510B5E"></path>
                                <path d="M75.1468295,69.7759249 C76.3625304,72.052446 77.4476747,75.1116009 77.7274385,77.5895164 C78.5607955,85.5110282 69.5973333,82.7178498 67.311748,83.2447042 C65.8985169,83.5251268 64.8922151,85.0283615 65.6908135,86.7185446 C66.3342702,88.1138592 67.348202,88.4044789 67.9314671,88.914338 C68.816538,89.7029202 68.592727,90.8178122 67.7932808,91.379507 C66.2121915,92.5105446 63.7926586,90.8925915 63.4654198,93.3297183 C63.196677,95.0300986 64.0020576,96.8902347 65.4822623,97.9481925 C63.8545458,97.1001268 62.807551,95.2026009 62.9152177,93.2719343 C63.0347531,91.2885822 64.3742282,91.1704648 66.221517,91.0183568 C67.3626141,90.916385 67.689853,90.3054038 67.5431889,89.9705962 C67.3643096,89.2984319 65.7518529,89.2839859 64.7269001,87.1825164 C63.9401704,85.6860798 64.2860602,83.8854272 65.6179054,82.8215211 C69.0869764,80.0130469 78.8363205,86.6250704 76.6439897,74.9926338 C76.323533,73.2183239 75.7724831,71.4865023 75.1468295,69.7759249" id="Fill-143" fill="#6F1884"></path>
                                <path d="M93.185066,56.8767432 C98.5751816,56.699992 101.962867,61.0601376 100.536919,65.5749404 C100.292762,66.3397291 99.8875281,67.1096164 99.1431869,67.3866399 L98.8320556,66.2989404 C99.1262315,66.2649498 99.4958588,65.5205554 99.605221,65.246931 C101.198179,61.3184662 98.3149165,57.0993817 93.185066,56.8767432" id="Fill-144" fill="#6F1884"></path>
                                <path d="M184.616619,39.4283432 C184.514887,39.4283432 184.411459,39.4003009 184.318204,39.3399676 C184.062178,39.1751131 183.987575,38.8326577 184.152042,38.5751789 C194.816129,21.9537704 180.023406,7.99467653 179.389275,7.4083385 C179.164616,7.20184554 179.150204,6.85089249 179.356212,6.62570469 C179.564763,6.40136667 179.914044,6.38777042 180.137855,6.59341362 C180.299779,6.7429723 196.252249,21.7608737 185.082044,39.1734136 C184.976073,39.3391178 184.798889,39.4283432 184.616619,39.4283432" id="Fill-145" fill="#411AC0"></path>
                                <path d="M274.108392,35.6043995 C274.036332,35.6043995 273.963423,35.5899535 273.892211,35.5602117 C273.610752,35.4412446 273.481891,35.1149347 273.600578,34.8345122 C278.349781,23.6524512 279.351844,14.4673385 276.500796,8.27000047 C274.15078,3.1620615 270.002646,1.80753568 269.960258,1.79393944 C269.670321,1.70216479 269.507549,1.39200047 269.599956,1.10053099 C269.68982,0.809061502 270.000951,0.644207042 270.290888,0.737681221 C270.47994,0.797164789 274.950227,2.2570615 277.503707,7.80602864 C280.531938,14.3866108 279.560395,23.6261085 274.616206,35.2678925 C274.526342,35.4786343 274.322878,35.6043995 274.108392,35.6043995" id="Fill-146" fill="#411AC0"></path>
                                <path d="M285.893569,91.4100986 C285.58922,91.4100986 285.340823,91.1628169 285.340823,90.8577512 C285.340823,73.2684601 278.301797,64.5252254 278.230584,64.4402488 C278.03475,64.2040141 278.06866,63.8547606 278.303492,63.6610141 C278.537477,63.4638685 278.88591,63.4970094 279.081744,63.7340939 C279.381855,64.0952441 286.445466,72.8359296 286.445466,90.8577512 C286.445466,91.1628169 286.197918,91.4100986 285.893569,91.4100986" id="Fill-147" fill="#411AC0"></path>
                                <path d="M0.592832218,91.4100986 C0.288483128,91.4100986 0.0409345653,91.1628169 0.0409345653,90.8577512 C0.0409345653,74.0069061 13.5628509,72.247892 13.698494,72.2317465 C14.0282762,72.2020047 14.2758247,72.414446 14.3105833,72.7178122 C14.3461896,73.0203286 14.1291607,73.2965023 13.8265071,73.3321925 C13.309368,73.3933756 1.14557764,75.0155775 1.14557764,90.8577512 C1.14557764,91.1628169 0.898029077,91.4100986 0.592832218,91.4100986" id="Fill-148" fill="#411AC0"></path>
                            </g>
                        </g>
                    </g>
                </g>
            </g>
        </g>
    </g>
</svg>